<?xml version="1.0" encoding="UTF-8" standalone="no"?><!DOCTYPE svg PUBLIC "-//W3C//DTD SVG 1.1//EN" "http://www.w3.org/Graphics/SVG/1.1/DTD/svg11.dtd"><svg width="100%" height="100%" viewBox="0 0 900 210" version="1.1" xmlns="http://www.w3.org/2000/svg" xmlns:xlink="http://www.w3.org/1999/xlink" xml:space="preserve" xmlns:serif="http://www.serif.com/" style="fill-rule:evenodd;clip-rule:evenodd;stroke-linejoin:round;stroke-miterlimit:1.41421;"><rect x="0" y="-0.005" width="900" height="210.011" style="fill:url(#_Linear1);"/><g><path d="M51.541,76.033l0.875,6l1.281,-5.406l9,-31.75l5.063,0l8.781,31.75l1.25,5.5l0.969,-6.125l7.062,-31.125l6.031,0l-11.031,45.5l-5.469,0l-9.375,-33.156l-0.718,-3.469l-0.719,3.469l-9.719,33.156l-5.469,0l-11,-45.5l6,0l7.188,31.156Z" style="fill:#fff;fill-rule:nonzero;"/><path d="M110.666,91.002c-4.584,0 -8.313,-1.505 -11.188,-4.516c-2.875,-3.01 -4.312,-7.036 -4.312,-12.078l0,-1.062c0,-3.354 0.64,-6.349 1.922,-8.985c1.281,-2.635 3.073,-4.697 5.375,-6.187c2.302,-1.49 4.797,-2.234 7.484,-2.234c4.396,0 7.813,1.448 10.25,4.343c2.438,2.896 3.656,7.042 3.656,12.438l0,2.406l-22.906,0c0.083,3.333 1.057,6.026 2.922,8.078c1.864,2.052 4.234,3.078 7.109,3.078c2.042,0 3.771,-0.416 5.188,-1.25c1.416,-0.833 2.656,-1.937 3.719,-3.312l3.531,2.75c-2.834,4.354 -7.084,6.531 -12.75,6.531Zm-0.719,-30.312c-2.333,0 -4.292,0.849 -5.875,2.546c-1.583,1.698 -2.562,4.079 -2.937,7.141l16.937,0l0,-0.437c-0.167,-2.938 -0.958,-5.214 -2.375,-6.829c-1.417,-1.614 -3.333,-2.421 -5.75,-2.421Z" style="fill:#fff;fill-rule:nonzero;"/><rect x="131.041" y="42.377" width="5.781" height="48" style="fill:#fff;"/><path d="M159.635,86.283c2.062,0 3.864,-0.625 5.406,-1.875c1.541,-1.25 2.396,-2.812 2.562,-4.687l5.469,0c-0.104,1.937 -0.771,3.781 -2,5.531c-1.229,1.75 -2.87,3.146 -4.922,4.188c-2.052,1.041 -4.224,1.562 -6.515,1.562c-4.605,0 -8.266,-1.536 -10.985,-4.609c-2.719,-3.073 -4.078,-7.276 -4.078,-12.61l0,-0.968c0,-3.292 0.604,-6.219 1.813,-8.782c1.208,-2.562 2.942,-4.552 5.203,-5.968c2.26,-1.417 4.932,-2.125 8.015,-2.125c3.792,0 6.943,1.135 9.453,3.406c2.511,2.271 3.849,5.219 4.016,8.844l-5.469,0c-0.166,-2.188 -0.995,-3.985 -2.484,-5.391c-1.49,-1.406 -3.328,-2.109 -5.516,-2.109c-2.937,0 -5.213,1.057 -6.828,3.171c-1.614,2.115 -2.422,5.172 -2.422,9.172l0,1.094c0,3.896 0.802,6.896 2.407,9c1.604,2.104 3.895,3.156 6.875,3.156Z" style="fill:#fff;fill-rule:nonzero;"/><path d="M178.041,73.158c0,-3.312 0.651,-6.291 1.953,-8.937c1.302,-2.646 3.114,-4.688 5.437,-6.125c2.323,-1.438 4.974,-2.156 7.954,-2.156c4.604,0 8.328,1.593 11.171,4.781c2.844,3.187 4.266,7.427 4.266,12.719l0,0.406c0,3.292 -0.63,6.245 -1.891,8.859c-1.26,2.615 -3.062,4.651 -5.406,6.11c-2.344,1.458 -5.036,2.187 -8.078,2.187c-4.583,0 -8.297,-1.594 -11.141,-4.781c-2.843,-3.188 -4.265,-7.406 -4.265,-12.656l0,-0.407Zm5.812,0.688c0,3.75 0.87,6.76 2.61,9.031c1.739,2.271 4.067,3.406 6.984,3.406c2.938,0 5.271,-1.151 7,-3.453c1.729,-2.302 2.594,-5.526 2.594,-9.672c0,-3.708 -0.88,-6.713 -2.641,-9.015c-1.76,-2.302 -4.099,-3.453 -7.015,-3.453c-2.855,0 -5.157,1.135 -6.907,3.406c-1.75,2.271 -2.625,5.521 -2.625,9.75Z" style="fill:#fff;fill-rule:nonzero;"/><path d="M221.51,56.565l0.156,3.75c2.479,-2.917 5.823,-4.375 10.031,-4.375c4.729,0 7.948,1.812 9.656,5.437c1.125,-1.625 2.589,-2.937 4.391,-3.937c1.802,-1 3.932,-1.5 6.391,-1.5c7.416,0 11.187,3.927 11.312,11.781l0,22.656l-5.781,0l0,-22.312c0,-2.417 -0.552,-4.224 -1.656,-5.422c-1.105,-1.198 -2.959,-1.797 -5.563,-1.797c-2.146,0 -3.927,0.64 -5.344,1.922c-1.416,1.281 -2.239,3.005 -2.468,5.172l0,22.437l-5.813,0l0,-22.156c0,-4.917 -2.406,-7.375 -7.219,-7.375c-3.791,0 -6.385,1.614 -7.781,4.844l0,24.687l-5.781,0l0,-33.812l5.469,0Z" style="fill:#fff;fill-rule:nonzero;"/><path d="M286.197,91.002c-4.583,0 -8.312,-1.505 -11.187,-4.516c-2.875,-3.01 -4.313,-7.036 -4.313,-12.078l0,-1.062c0,-3.354 0.641,-6.349 1.922,-8.985c1.281,-2.635 3.073,-4.697 5.375,-6.187c2.302,-1.49 4.797,-2.234 7.484,-2.234c4.396,0 7.813,1.448 10.25,4.343c2.438,2.896 3.657,7.042 3.657,12.438l0,2.406l-22.907,0c0.084,3.333 1.058,6.026 2.922,8.078c1.865,2.052 4.235,3.078 7.11,3.078c2.041,0 3.77,-0.416 5.187,-1.25c1.417,-0.833 2.656,-1.937 3.719,-3.312l3.531,2.75c-2.833,4.354 -7.083,6.531 -12.75,6.531Zm-0.719,-30.312c-2.333,0 -4.291,0.849 -5.875,2.546c-1.583,1.698 -2.562,4.079 -2.937,7.141l16.937,0l0,-0.437c-0.166,-2.938 -0.958,-5.214 -2.375,-6.829c-1.416,-1.614 -3.333,-2.421 -5.75,-2.421Z" style="fill:#fff;fill-rule:nonzero;"/><path d="M326.697,47.44l0,9.125l7.688,0l0,1.718l-7.688,0l0,24c0,1.48 0.135,2.677 0.406,3.594c0.271,0.917 0.641,1.63 1.11,2.141c0.468,0.51 1.01,0.854 1.625,1.031c0.614,0.177 1.265,0.266 1.953,0.266c0.646,0 1.219,-0.026 1.719,-0.079c0.5,-0.052 1.041,-0.119 1.625,-0.203l0.281,1.594c-0.229,0.083 -0.5,0.146 -0.813,0.188c-0.312,0.041 -0.635,0.078 -0.968,0.109c-0.334,0.031 -0.657,0.052 -0.969,0.062c-0.313,0.011 -0.573,0.016 -0.781,0.016c-1.084,0 -2.053,-0.135 -2.907,-0.406c-0.854,-0.271 -1.578,-0.74 -2.172,-1.406c-0.593,-0.667 -1.046,-1.563 -1.359,-2.688c-0.312,-1.125 -0.469,-2.531 -0.469,-4.219l0,-24l-6.25,0l0,-1.718l6.25,0l0,-9.125l1.719,0Z" style="fill:#fff;fill-rule:nonzero;"/><path d="M339.978,72.815c0,-2.48 0.36,-4.75 1.078,-6.813c0.719,-2.062 1.73,-3.838 3.032,-5.328c1.302,-1.49 2.859,-2.651 4.672,-3.484c1.812,-0.834 3.812,-1.25 6,-1.25c2.208,0 4.223,0.416 6.046,1.25c1.823,0.833 3.381,1.994 4.672,3.484c1.292,1.49 2.297,3.266 3.016,5.328c0.719,2.063 1.078,4.333 1.078,6.813l0,1.312c0,2.479 -0.354,4.75 -1.062,6.813c-0.709,2.062 -1.714,3.838 -3.016,5.328c-1.302,1.489 -2.859,2.651 -4.672,3.484c-1.812,0.833 -3.812,1.25 -6,1.25c-2.208,0 -4.224,-0.417 -6.047,-1.25c-1.823,-0.833 -3.385,-1.995 -4.687,-3.484c-1.302,-1.49 -2.313,-3.266 -3.032,-5.328c-0.718,-2.063 -1.078,-4.334 -1.078,-6.813l0,-1.312Zm1.688,1.312c0,2.021 0.297,3.948 0.89,5.781c0.594,1.834 1.454,3.448 2.579,4.844c1.125,1.396 2.5,2.505 4.125,3.328c1.625,0.823 3.479,1.235 5.562,1.235c2.063,0 3.901,-0.412 5.516,-1.235c1.614,-0.823 2.979,-1.932 4.093,-3.328c1.115,-1.396 1.969,-3.01 2.563,-4.844c0.594,-1.833 0.891,-3.76 0.891,-5.781l0,-1.312c0,-1.98 -0.297,-3.881 -0.891,-5.704c-0.594,-1.822 -1.453,-3.437 -2.578,-4.843c-1.125,-1.407 -2.5,-2.532 -4.125,-3.375c-1.625,-0.844 -3.469,-1.266 -5.531,-1.266c-2.063,0 -3.907,0.422 -5.532,1.266c-1.625,0.843 -2.995,1.968 -4.109,3.375c-1.115,1.406 -1.969,3.021 -2.563,4.843c-0.593,1.823 -0.89,3.724 -0.89,5.704l0,1.312Z" style="fill:#fff;fill-rule:nonzero;"/><path d="M396.853,47.44l0,9.125l7.688,0l0,1.718l-7.688,0l0,24c0,1.48 0.136,2.677 0.407,3.594c0.27,0.917 0.64,1.63 1.109,2.141c0.469,0.51 1.01,0.854 1.625,1.031c0.614,0.177 1.266,0.266 1.953,0.266c0.646,0 1.219,-0.026 1.719,-0.079c0.5,-0.052 1.041,-0.119 1.625,-0.203l0.281,1.594c-0.229,0.083 -0.5,0.146 -0.812,0.188c-0.313,0.041 -0.636,0.078 -0.969,0.109c-0.334,0.031 -0.656,0.052 -0.969,0.062c-0.312,0.011 -0.573,0.016 -0.781,0.016c-1.084,0 -2.052,-0.135 -2.906,-0.406c-0.855,-0.271 -1.579,-0.74 -2.172,-1.406c-0.594,-0.667 -1.047,-1.563 -1.36,-2.688c-0.312,-1.125 -0.468,-2.531 -0.468,-4.219l0,-24l-6.25,0l0,-1.718l6.25,0l0,-9.125l1.718,0Z" style="fill:#fff;fill-rule:nonzero;"/><path d="M415.01,64.44c0.5,-1.188 1.14,-2.302 1.921,-3.344c0.782,-1.042 1.683,-1.943 2.704,-2.703c1.02,-0.761 2.151,-1.36 3.39,-1.797c1.24,-0.438 2.568,-0.656 3.985,-0.656c1.708,0 3.229,0.234 4.562,0.703c1.333,0.468 2.458,1.208 3.375,2.218c0.917,1.011 1.615,2.308 2.094,3.891c0.479,1.583 0.719,3.5 0.719,5.75l0,21.875l-1.688,0l0,-21.875c0,-2.146 -0.224,-3.922 -0.672,-5.328c-0.448,-1.406 -1.078,-2.521 -1.89,-3.344c-0.813,-0.823 -1.782,-1.401 -2.907,-1.734c-1.125,-0.333 -2.354,-0.5 -3.687,-0.5c-1.229,0 -2.354,0.172 -3.375,0.515c-1.021,0.344 -1.943,0.808 -2.766,1.391c-0.823,0.583 -1.557,1.25 -2.203,2c-0.646,0.75 -1.203,1.542 -1.672,2.375c-0.469,0.833 -0.859,1.667 -1.172,2.5c-0.312,0.833 -0.552,1.615 -0.718,2.344l0,21.656l-1.688,0l0,-48l1.688,0l0,22.063Z" style="fill:#fff;fill-rule:nonzero;"/><path d="M460.51,91.002c-2.063,0 -3.99,-0.417 -5.782,-1.25c-1.791,-0.833 -3.359,-1.995 -4.703,-3.484c-1.344,-1.49 -2.401,-3.261 -3.172,-5.313c-0.771,-2.052 -1.156,-4.307 -1.156,-6.765l0,-1.375c0,-2.459 0.375,-4.724 1.125,-6.797c0.75,-2.073 1.766,-3.854 3.047,-5.344c1.281,-1.49 2.781,-2.651 4.5,-3.484c1.719,-0.834 3.557,-1.25 5.516,-1.25c1.875,0 3.598,0.349 5.171,1.046c1.573,0.698 2.927,1.683 4.063,2.954c1.135,1.27 2.021,2.791 2.656,4.562c0.636,1.771 0.953,3.729 0.953,5.875l0,1.969l-25.343,0l0,1.844c0,2.104 0.333,4.078 1,5.921c0.666,1.844 1.588,3.448 2.765,4.813c1.177,1.365 2.568,2.443 4.172,3.234c1.604,0.792 3.333,1.188 5.188,1.188c0.958,0 1.89,-0.073 2.796,-0.219c0.907,-0.146 1.776,-0.396 2.61,-0.75c0.833,-0.354 1.635,-0.828 2.406,-1.422c0.771,-0.594 1.51,-1.349 2.219,-2.265l1.187,0.843c-0.562,0.813 -1.208,1.552 -1.937,2.219c-0.729,0.667 -1.558,1.24 -2.485,1.719c-0.927,0.479 -1.953,0.854 -3.078,1.125c-1.125,0.271 -2.364,0.406 -3.718,0.406Zm-0.625,-33.375c-1.709,0 -3.277,0.333 -4.704,1c-1.427,0.667 -2.682,1.589 -3.765,2.766c-1.084,1.177 -1.964,2.557 -2.641,4.14c-0.677,1.584 -1.109,3.292 -1.297,5.125l23.563,0l0,-0.406c0,-1.687 -0.266,-3.297 -0.797,-4.828c-0.531,-1.531 -1.281,-2.875 -2.25,-4.031c-0.969,-1.157 -2.141,-2.073 -3.516,-2.75c-1.375,-0.677 -2.906,-1.016 -4.593,-1.016Z" style="fill:#fff;fill-rule:nonzero;"/><path d="M53.978,155.002c-2.062,0 -3.989,-0.417 -5.781,-1.25c-1.792,-0.833 -3.359,-1.995 -4.703,-3.484c-1.344,-1.49 -2.401,-3.261 -3.172,-5.313c-0.771,-2.052 -1.156,-4.307 -1.156,-6.765l0,-1.375c0,-2.459 0.375,-4.724 1.125,-6.797c0.75,-2.073 1.765,-3.854 3.047,-5.344c1.281,-1.49 2.781,-2.651 4.5,-3.484c1.718,-0.834 3.557,-1.25 5.515,-1.25c1.875,0 3.599,0.349 5.172,1.046c1.573,0.698 2.927,1.683 4.063,2.954c1.135,1.27 2.02,2.791 2.656,4.562c0.635,1.771 0.953,3.729 0.953,5.875l0,1.969l-25.344,0l0,1.844c0,2.104 0.334,4.078 1,5.921c0.667,1.844 1.589,3.448 2.766,4.813c1.177,1.365 2.568,2.443 4.172,3.234c1.604,0.792 3.333,1.188 5.187,1.188c0.959,0 1.891,-0.073 2.797,-0.219c0.906,-0.146 1.776,-0.396 2.61,-0.75c0.833,-0.354 1.635,-0.828 2.406,-1.422c0.771,-0.594 1.51,-1.349 2.219,-2.265l1.187,0.843c-0.562,0.813 -1.208,1.552 -1.937,2.219c-0.73,0.667 -1.558,1.24 -2.485,1.719c-0.927,0.479 -1.953,0.854 -3.078,1.125c-1.125,0.271 -2.365,0.406 -3.719,0.406Zm-0.625,-33.375c-1.708,0 -3.276,0.333 -4.703,1c-1.427,0.667 -2.682,1.589 -3.765,2.766c-1.084,1.177 -1.964,2.557 -2.641,4.14c-0.677,1.584 -1.109,3.292 -1.297,5.125l23.563,0l0,-0.406c0,-1.687 -0.266,-3.297 -0.797,-4.828c-0.532,-1.531 -1.282,-2.875 -2.25,-4.031c-0.969,-1.157 -2.141,-2.073 -3.516,-2.75c-1.375,-0.677 -2.906,-1.016 -4.594,-1.016Z" style="fill:#fff;fill-rule:nonzero;"/><path d="M71.51,136.815c0,-2.48 0.359,-4.75 1.078,-6.813c0.718,-2.062 1.729,-3.838 3.031,-5.328c1.302,-1.49 2.859,-2.651 4.672,-3.484c1.812,-0.834 3.812,-1.25 6,-1.25c2.208,0 4.224,0.416 6.047,1.25c1.823,0.833 3.38,1.994 4.672,3.484c1.291,1.49 2.296,3.266 3.015,5.328c0.719,2.063 1.078,4.333 1.078,6.813l0,1.312c0,2.479 -0.354,4.75 -1.062,6.813c-0.709,2.062 -1.714,3.838 -3.016,5.328c-1.302,1.489 -2.859,2.651 -4.672,3.484c-1.812,0.833 -3.812,1.25 -6,1.25c-2.208,0 -4.224,-0.417 -6.047,-1.25c-1.823,-0.833 -3.385,-1.995 -4.687,-3.484c-1.302,-1.49 -2.313,-3.266 -3.031,-5.328c-0.719,-2.063 -1.078,-4.334 -1.078,-6.813l0,-1.312Zm1.687,1.312c0,2.021 0.297,3.948 0.891,5.781c0.593,1.834 1.453,3.448 2.578,4.844c1.125,1.396 2.5,2.505 4.125,3.328c1.625,0.823 3.479,1.235 5.562,1.235c2.063,0 3.901,-0.412 5.516,-1.235c1.614,-0.823 2.979,-1.932 4.094,-3.328c1.114,-1.396 1.968,-3.01 2.562,-4.844c0.594,-1.833 0.891,-3.76 0.891,-5.781l0,-1.312c0,-1.98 -0.297,-3.881 -0.891,-5.704c-0.594,-1.822 -1.453,-3.437 -2.578,-4.843c-1.125,-1.407 -2.5,-2.532 -4.125,-3.375c-1.625,-0.844 -3.469,-1.266 -5.531,-1.266c-2.063,0 -3.906,0.422 -5.531,1.266c-1.625,0.843 -2.995,1.968 -4.11,3.375c-1.114,1.406 -1.969,3.021 -2.562,4.843c-0.594,1.823 -0.891,3.724 -0.891,5.704l0,1.312Z" style="fill:#fff;fill-rule:nonzero;"/><path d="M130.135,146.096c0,-0.771 -0.146,-1.552 -0.438,-2.344c-0.292,-0.792 -0.823,-1.557 -1.594,-2.297c-0.771,-0.739 -1.823,-1.427 -3.156,-2.062c-1.333,-0.636 -3.042,-1.183 -5.125,-1.641c-1.896,-0.396 -3.557,-0.844 -4.984,-1.344c-1.427,-0.5 -2.62,-1.109 -3.578,-1.828c-0.959,-0.719 -1.678,-1.573 -2.157,-2.562c-0.479,-0.99 -0.718,-2.172 -0.718,-3.547c0,-1.188 0.26,-2.297 0.781,-3.328c0.521,-1.032 1.265,-1.933 2.234,-2.703c0.969,-0.771 2.151,-1.381 3.547,-1.829c1.396,-0.447 2.979,-0.671 4.75,-0.671c1.896,0 3.589,0.234 5.078,0.703c1.49,0.468 2.755,1.125 3.797,1.968c1.042,0.844 1.839,1.86 2.391,3.047c0.552,1.188 0.828,2.5 0.828,3.938l-1.719,0c0,-1.042 -0.229,-2.042 -0.687,-3c-0.459,-0.958 -1.125,-1.807 -2,-2.547c-0.875,-0.74 -1.959,-1.328 -3.25,-1.766c-1.292,-0.437 -2.771,-0.656 -4.438,-0.656c-1.708,0 -3.172,0.203 -4.391,0.609c-1.218,0.407 -2.213,0.938 -2.984,1.594c-0.771,0.656 -1.339,1.386 -1.703,2.188c-0.365,0.802 -0.547,1.599 -0.547,2.39c0,0.875 0.12,1.683 0.359,2.422c0.24,0.74 0.73,1.427 1.469,2.063c0.74,0.635 1.781,1.234 3.125,1.797c1.344,0.562 3.11,1.093 5.297,1.593c2.021,0.459 3.755,0.98 5.203,1.563c1.448,0.583 2.641,1.265 3.578,2.047c0.938,0.781 1.625,1.682 2.063,2.703c0.437,1.021 0.656,2.198 0.656,3.531c0,1.313 -0.276,2.511 -0.828,3.594c-0.552,1.083 -1.344,2.015 -2.375,2.797c-1.031,0.781 -2.281,1.39 -3.75,1.828c-1.469,0.437 -3.109,0.656 -4.922,0.656c-2.042,0 -3.849,-0.245 -5.422,-0.734c-1.573,-0.49 -2.896,-1.157 -3.969,-2c-1.073,-0.844 -1.885,-1.823 -2.437,-2.938c-0.552,-1.114 -0.828,-2.297 -0.828,-3.547l1.687,0c0.104,1.459 0.505,2.672 1.203,3.641c0.698,0.969 1.563,1.74 2.594,2.312c1.031,0.573 2.177,0.98 3.438,1.219c1.26,0.24 2.505,0.36 3.734,0.36c1.667,0 3.135,-0.209 4.406,-0.625c1.271,-0.417 2.334,-0.969 3.188,-1.657c0.854,-0.687 1.5,-1.463 1.937,-2.328c0.438,-0.864 0.657,-1.734 0.657,-2.609Z" style="fill:#fff;fill-rule:nonzero;"/><path d="M141.041,154.377l0,-45.5l12.844,0c3.958,0 7.458,0.875 10.5,2.625c3.041,1.75 5.39,4.24 7.046,7.469c1.657,3.229 2.495,6.937 2.516,11.125l0,2.906c0,4.292 -0.828,8.052 -2.484,11.281c-1.657,3.23 -4.021,5.709 -7.094,7.438c-3.073,1.729 -6.651,2.614 -10.734,2.656l-12.594,0Zm6,-40.594l0,35.688l6.312,0c4.625,0 8.224,-1.439 10.797,-4.316c2.573,-2.878 3.86,-6.975 3.86,-12.293l0,-2.658c0,-5.171 -1.214,-9.19 -3.641,-12.057c-2.427,-2.868 -5.87,-4.322 -10.328,-4.364l-7,0Z" style="fill:#fff;fill-rule:nonzero;"/><path d="M207.478,142.471l-19.062,0l-4.281,11.906l-6.188,0l17.375,-45.5l5.25,0l17.406,45.5l-6.156,0l-4.344,-11.906Zm-17.25,-4.906l15.469,0l-7.75,-21.282l-7.719,21.282Z" style="fill:#fff;fill-rule:nonzero;"/><path d="M257.228,139.94c-0.562,4.812 -2.338,8.526 -5.328,11.14c-2.989,2.615 -6.963,3.922 -11.922,3.922c-5.375,0 -9.682,-1.927 -12.922,-5.781c-3.239,-3.854 -4.859,-9.011 -4.859,-15.469l0,-4.375c0,-4.229 0.755,-7.948 2.266,-11.156c1.51,-3.208 3.651,-5.672 6.422,-7.391c2.77,-1.719 5.979,-2.578 9.625,-2.578c4.833,0 8.708,1.349 11.625,4.047c2.916,2.698 4.614,6.432 5.093,11.203l-6.031,0c-0.521,-3.636 -1.651,-6.269 -3.391,-7.899c-1.739,-1.63 -4.171,-2.445 -7.296,-2.445c-3.834,0 -6.839,1.418 -9.016,4.254c-2.177,2.836 -3.266,6.87 -3.266,12.104l0,4.41c0,4.942 1.032,8.872 3.094,11.791c2.063,2.919 4.948,4.379 8.656,4.379c3.334,0 5.891,-0.755 7.672,-2.266c1.781,-1.51 2.964,-4.14 3.547,-7.89l6.031,0Z" style="fill:#fff;fill-rule:nonzero;"/><path d="M289.01,108.877l14.875,37.125l14.875,-37.125l7.781,0l0,45.5l-6,0l0,-17.719l0.562,-19.125l-14.937,36.844l-4.594,0l-14.906,-36.75l0.594,19.031l0,17.719l-6,0l0,-45.5l7.75,0Z" style="fill:#fff;fill-rule:nonzero;"/><path d="M350.26,155.002c-4.584,0 -8.313,-1.505 -11.188,-4.516c-2.875,-3.01 -4.312,-7.036 -4.312,-12.078l0,-1.062c0,-3.354 0.64,-6.349 1.921,-8.985c1.282,-2.635 3.073,-4.697 5.375,-6.187c2.302,-1.49 4.797,-2.234 7.485,-2.234c4.396,0 7.812,1.448 10.25,4.343c2.437,2.896 3.656,7.042 3.656,12.438l0,2.406l-22.906,0c0.083,3.333 1.057,6.026 2.922,8.078c1.864,2.052 4.234,3.078 7.109,3.078c2.042,0 3.771,-0.416 5.188,-1.25c1.416,-0.833 2.656,-1.937 3.718,-3.312l3.532,2.75c-2.834,4.354 -7.084,6.531 -12.75,6.531Zm-0.719,-30.312c-2.334,0 -4.292,0.849 -5.875,2.546c-1.584,1.698 -2.563,4.079 -2.938,7.141l16.938,0l0,-0.437c-0.167,-2.938 -0.959,-5.214 -2.375,-6.829c-1.417,-1.614 -3.334,-2.421 -5.75,-2.421Z" style="fill:#fff;fill-rule:nonzero;"/><path d="M375.572,120.565l0.156,3.75c2.479,-2.917 5.823,-4.375 10.032,-4.375c4.729,0 7.947,1.812 9.656,5.437c1.125,-1.625 2.588,-2.937 4.39,-3.937c1.802,-1 3.933,-1.5 6.391,-1.5c7.417,0 11.188,3.927 11.313,11.781l0,22.656l-5.782,0l0,-22.312c0,-2.417 -0.552,-4.224 -1.656,-5.422c-1.104,-1.198 -2.958,-1.797 -5.562,-1.797c-2.146,0 -3.928,0.64 -5.344,1.922c-1.417,1.281 -2.24,3.005 -2.469,5.172l0,22.437l-5.812,0l0,-22.156c0,-4.917 -2.407,-7.375 -7.219,-7.375c-3.792,0 -6.386,1.614 -7.781,4.844l0,24.687l-5.782,0l0,-33.812l5.469,0Z" style="fill:#fff;fill-rule:nonzero;"/><path d="M454.853,137.846c0,5.167 -1.187,9.318 -3.562,12.453c-2.375,3.135 -5.563,4.703 -9.563,4.703c-4.271,0 -7.573,-1.51 -9.906,-4.531l-0.281,3.906l-5.313,0l0,-48l5.782,0l0,17.906c2.333,-2.895 5.552,-4.343 9.656,-4.343c4.104,0 7.328,1.552 9.672,4.656c2.343,3.104 3.515,7.354 3.515,12.75l0,0.5Zm-5.781,-0.656c0,-3.938 -0.76,-6.98 -2.281,-9.125c-1.521,-2.146 -3.709,-3.219 -6.563,-3.219c-3.812,0 -6.552,1.771 -8.218,5.312l0,14.625c1.77,3.542 4.531,5.313 8.281,5.313c2.771,0 4.927,-1.073 6.469,-3.219c1.541,-2.146 2.312,-5.375 2.312,-9.687Z" style="fill:#fff;fill-rule:nonzero;"/><path d="M476.166,155.002c-4.584,0 -8.313,-1.505 -11.188,-4.516c-2.875,-3.01 -4.312,-7.036 -4.312,-12.078l0,-1.062c0,-3.354 0.64,-6.349 1.922,-8.985c1.281,-2.635 3.073,-4.697 5.375,-6.187c2.302,-1.49 4.797,-2.234 7.484,-2.234c4.396,0 7.813,1.448 10.25,4.343c2.438,2.896 3.656,7.042 3.656,12.438l0,2.406l-22.906,0c0.083,3.333 1.057,6.026 2.922,8.078c1.864,2.052 4.234,3.078 7.109,3.078c2.042,0 3.771,-0.416 5.188,-1.25c1.416,-0.833 2.656,-1.937 3.719,-3.312l3.531,2.75c-2.834,4.354 -7.084,6.531 -12.75,6.531Zm-0.719,-30.312c-2.333,0 -4.292,0.849 -5.875,2.546c-1.583,1.698 -2.562,4.079 -2.937,7.141l16.937,0l0,-0.437c-0.167,-2.938 -0.958,-5.214 -2.375,-6.829c-1.417,-1.614 -3.333,-2.421 -5.75,-2.421Z" style="fill:#fff;fill-rule:nonzero;"/><path d="M512.385,125.752c-0.875,-0.146 -1.823,-0.219 -2.844,-0.219c-3.792,0 -6.365,1.615 -7.719,4.844l0,24l-5.781,0l0,-33.812l5.625,0l0.094,3.906c1.895,-3.021 4.583,-4.531 8.062,-4.531c1.125,0 1.979,0.145 2.563,0.437l0,5.375Z" style="fill:#fff;fill-rule:nonzero;"/><path d="M567.916,139.94c-0.563,4.812 -2.339,8.526 -5.328,11.14c-2.99,2.615 -6.964,3.922 -11.922,3.922c-5.375,0 -9.683,-1.927 -12.922,-5.781c-3.24,-3.854 -4.859,-9.011 -4.859,-15.469l0,-4.375c0,-4.229 0.755,-7.948 2.265,-11.156c1.511,-3.208 3.651,-5.672 6.422,-7.391c2.771,-1.719 5.979,-2.578 9.625,-2.578c4.833,0 8.708,1.349 11.625,4.047c2.917,2.698 4.615,6.432 5.094,11.203l-6.031,0c-0.521,-3.636 -1.652,-6.269 -3.391,-7.899c-1.74,-1.63 -4.172,-2.445 -7.297,-2.445c-3.833,0 -6.839,1.418 -9.016,4.254c-2.177,2.836 -3.265,6.87 -3.265,12.104l0,4.41c0,4.942 1.031,8.872 3.094,11.791c2.062,2.919 4.947,4.379 8.656,4.379c3.333,0 5.89,-0.755 7.672,-2.266c1.781,-1.51 2.963,-4.14 3.547,-7.89l6.031,0Z" style="fill:#fff;fill-rule:nonzero;"/><path d="M582.135,149.471l21.562,0l0,4.906l-27.594,0l0,-45.5l6.032,0l0,40.594Z" style="fill:#fff;fill-rule:nonzero;"/><rect x="610.978" y="108.877" width="6" height="45.5" style="fill:#fff;"/><path d="M653.666,133.346l-19.719,0l0,16.125l22.906,0l0,4.906l-28.906,0l0,-45.5l28.594,0l0,4.906l-22.594,0l0,14.657l19.719,0l0,4.906Z" style="fill:#fff;fill-rule:nonzero;"/><path d="M699.291,154.377l-6.031,0l-22.907,-35.062l0,35.062l-6.031,0l0,-45.5l6.031,0l22.969,35.219l0,-35.219l5.969,0l0,45.5Z" style="fill:#fff;fill-rule:nonzero;"/><path d="M740.478,113.783l-14.625,0l0,40.594l-5.968,0l0,-40.594l-14.594,0l0,-4.906l35.187,0l0,4.906Z" style="fill:#fff;fill-rule:nonzero;"/></g><defs><linearGradient id="_Linear1" x1="0" y1="0" x2="1" y2="0" gradientUnits="userSpaceOnUse" gradientTransform="matrix(687.751,0,0,687.751,211.7,96.836)"><stop offset="0" style="stop-color:#4a1289;stop-opacity:1"/><stop offset="1" style="stop-color:#7c41ba;stop-opacity:1"/></linearGradient></defs></svg>