<?xml version="1.0" encoding="UTF-8" standalone="no"?><!DOCTYPE svg PUBLIC "-//W3C//DTD SVG 1.1//EN" "http://www.w3.org/Graphics/SVG/1.1/DTD/svg11.dtd"><svg width="100%" height="100%" viewBox="0 0 48 48" version="1.1" xmlns="http://www.w3.org/2000/svg" xmlns:xlink="http://www.w3.org/1999/xlink" xml:space="preserve" xmlns:serif="http://www.serif.com/" style="fill-rule:evenodd;clip-rule:evenodd;stroke-linecap:round;stroke-linejoin:round;stroke-miterlimit:10;"><g><path d="M43,33c0,2.208 -1.79,4 -4,4c-2.21,0 -4,-1.792 -4,-4c0,-2.208 1.79,-4 4,-4c2.21,0 4,1.792 4,4Z" style="fill:none;stroke:#7c41ba;stroke-width:2px;"/><path d="M37,37l-2,10l4,-2l4,2l-2,-10" style="fill:none;stroke:#7c41ba;stroke-width:2px;"/><path d="M31,43l-26,0l0,-30l12,-12l22,0l0,24" style="fill:none;stroke:#7c41ba;stroke-width:2px;"/><path d="M5,13l12,0l0,-12" style="fill:none;stroke:#7c41ba;stroke-width:2px;"/><path d="M9,21l26,0" style="fill:none;stroke:#7c41ba;stroke-width:2px;"/><path d="M9,29l22,0" style="fill:none;stroke:#7c41ba;stroke-width:2px;"/><path d="M9,37l8,0" style="fill:none;stroke:#7c41ba;stroke-width:2px;"/><path d="M23,13l12,0" style="fill:none;stroke:#7c41ba;stroke-width:2px;"/></g></svg>