<?xml version="1.0" encoding="UTF-8" standalone="no"?><!DOCTYPE svg PUBLIC "-//W3C//DTD SVG 1.1//EN" "http://www.w3.org/Graphics/SVG/1.1/DTD/svg11.dtd"><svg width="100%" height="100%" viewBox="0 0 180 120" version="1.1" xmlns="http://www.w3.org/2000/svg" xmlns:xlink="http://www.w3.org/1999/xlink" xml:space="preserve" xmlns:serif="http://www.serif.com/" style="fill-rule:evenodd;clip-rule:evenodd;stroke-linecap:round;stroke-linejoin:round;stroke-miterlimit:10;"><rect id="ArtBoard1" x="0" y="0" width="180" height="120" style="fill:none;"/><g id="Ebene-1" serif:id="Ebene 1"><path d="M169,83c0,-44.182 -35.816,-80 -80,-80c-44.184,0 -80,35.818 -80,80c0,11.77 2.562,22.938 7.128,33l145.744,0c4.566,-10.062 7.128,-21.23 7.128,-33" style="fill:#e3d7ef;fill-rule:nonzero;"/><path d="M11,116l156,0" style="fill:none;stroke:#7c41ba;stroke-width:2px;"/><path d="M2,116l5,0" style="fill:none;stroke:#7c41ba;stroke-width:2px;"/><path d="M171,116l5,0" style="fill:none;stroke:#7c41ba;stroke-width:2px;"/></g><g id="Ebene-11" serif:id="Ebene 1"><path d="M119.56,104.201l-71.28,0c-2.916,0 -5.278,-2.364 -5.278,-5.28l0,-56.762c0,-2.916 2.362,-5.278 5.278,-5.278l71.28,0c2.916,0 5.282,2.362 5.282,5.278l0,56.762c0,2.916 -2.366,5.28 -5.282,5.28" style="fill:#b999db;fill-rule:nonzero;stroke:#000;stroke-width:2px;stroke-linecap:butt;stroke-miterlimit:1.41421;"/><path d="M108.288,36.88l-60.008,0c-1.822,0 -3.43,0.924 -4.378,2.328c-0.57,0.842 -0.902,1.858 -0.902,2.952l0,56.76c0,0.934 0.262,1.798 0.688,2.558l30.591,-30.59l34.009,-34.008Z" style="fill:#fff;fill-rule:nonzero;"/><path d="M119.56,104.201l-71.28,0c-2.916,0 -5.278,-2.364 -5.278,-5.28l0,-56.762c0,-2.916 2.362,-5.278 5.278,-5.278l71.28,0c2.916,0 5.282,2.362 5.282,5.278l0,56.762c0,2.916 -2.366,5.28 -5.282,5.28Z" style="fill:none;stroke:#7c41ba;stroke-width:2px;stroke-linecap:butt;"/><path d="M119.56,36.88l-71.28,0c-2.916,0 -5.278,2.364 -5.278,5.28l0,10.56l81.84,0l0,-10.56c0,-2.916 -2.366,-5.28 -5.282,-5.28Z" style="fill:#fff;fill-rule:nonzero;stroke:#7c41ba;stroke-width:2px;stroke-linecap:butt;"/><path d="M59.001,63.119c1.546,1.546 1.546,4.054 0,5.6c-1.546,1.548 -4.054,1.548 -5.602,0c-1.544,-1.546 -1.544,-4.054 0,-5.6c1.548,-1.546 4.056,-1.546 5.602,0" style="fill:#b999db;fill-rule:nonzero;stroke:#000;stroke-width:2px;stroke-linecap:butt;stroke-miterlimit:1.41421;"/><path d="M59.002,63.12c-1.546,-1.547 -4.056,-1.547 -5.602,-0.002c-1.546,1.546 -1.546,4.056 0,5.602c1.545,1.546 4.055,1.547 5.601,0.002c1.546,-1.546 1.547,-4.056 0.001,-5.602Z" style="fill:none;stroke:#7c41ba;stroke-width:2px;stroke-linecap:butt;"/><path d="M60.161,79.12c0,2.186 -1.774,3.96 -3.96,3.96c-2.188,0 -3.96,-1.774 -3.96,-3.96c0,-2.188 1.772,-3.96 3.96,-3.96c2.186,0 3.96,1.772 3.96,3.96" style="fill:#b999db;fill-rule:nonzero;stroke:#000;stroke-width:2px;stroke-linecap:butt;stroke-miterlimit:1.41421;"/><path d="M60.161,79.12c0,-2.185 -1.774,-3.96 -3.96,-3.96c-2.186,0 -3.96,1.775 -3.96,3.96c0,2.186 1.774,3.96 3.96,3.96c2.186,0 3.96,-1.774 3.96,-3.96Z" style="fill:none;stroke:#7c41ba;stroke-width:2px;stroke-linecap:butt;"/><path d="M66.761,65.92l19.798,0" style="fill:none;stroke:#7c41ba;stroke-width:2px;"/><path d="M66.761,79.12l36.958,0" style="fill:none;stroke:#7c41ba;stroke-width:2px;"/><path d="M60.161,92.32c0,2.188 -1.774,3.96 -3.96,3.96c-2.188,0 -3.96,-1.772 -3.96,-3.96c0,-2.186 1.772,-3.96 3.96,-3.96c2.186,0 3.96,1.774 3.96,3.96" style="fill:#b999db;fill-rule:nonzero;stroke:#000;stroke-width:2px;stroke-linecap:butt;stroke-miterlimit:1.41421;"/><path d="M60.161,92.32c0,-2.186 -1.774,-3.96 -3.96,-3.96c-2.186,0 -3.96,1.774 -3.96,3.96c0,2.185 1.774,3.96 3.96,3.96c2.186,0 3.96,-1.775 3.96,-3.96Z" style="fill:none;stroke:#7c41ba;stroke-width:2px;stroke-linecap:butt;"/><path d="M66.761,92.32l36.958,0" style="fill:none;stroke:#7c41ba;stroke-width:2px;"/><path d="M53.56,44.8c0,1.458 -1.182,2.64 -2.638,2.64c-1.46,0 -2.642,-1.182 -2.642,-2.64c0,-1.458 1.182,-2.64 2.642,-2.64c1.456,0 2.638,1.182 2.638,2.64" style="fill:#fff;fill-rule:nonzero;stroke:#000;stroke-width:2px;stroke-linecap:butt;stroke-miterlimit:1.41421;"/><path d="M53.56,44.8c0,-1.457 -1.183,-2.64 -2.64,-2.64c-1.457,0 -2.64,1.183 -2.64,2.64c0,1.457 1.183,2.64 2.64,2.64c1.457,0 2.64,-1.183 2.64,-2.64Z" style="fill:none;stroke:#7c41ba;stroke-width:2px;stroke-linecap:butt;"/><path d="M64.12,44.8c0,1.458 -1.182,2.64 -2.64,2.64c-1.458,0 -2.64,-1.182 -2.64,-2.64c0,-1.458 1.182,-2.64 2.64,-2.64c1.458,0 2.64,1.182 2.64,2.64" style="fill:#fff;fill-rule:nonzero;stroke:#000;stroke-width:2px;stroke-linecap:butt;stroke-miterlimit:1.41421;"/><path d="M64.12,44.8c0,-1.457 -1.183,-2.64 -2.64,-2.64c-1.457,0 -2.64,1.183 -2.64,2.64c0,1.457 1.183,2.64 2.64,2.64c1.457,0 2.64,-1.183 2.64,-2.64Z" style="fill:none;stroke:#7c41ba;stroke-width:2px;stroke-linecap:butt;"/><path d="M74.681,44.8c0,1.458 -1.182,2.64 -2.64,2.64c-1.458,0 -2.642,-1.182 -2.642,-2.64c0,-1.458 1.184,-2.64 2.642,-2.64c1.458,0 2.64,1.182 2.64,2.64" style="fill:#fff;fill-rule:nonzero;stroke:#000;stroke-width:2px;stroke-linecap:butt;stroke-miterlimit:1.41421;"/><path d="M74.681,44.8c0,-1.457 -1.184,-2.64 -2.641,-2.64c-1.458,0 -2.641,1.183 -2.641,2.64c0,1.457 1.183,2.64 2.641,2.64c1.457,0 2.641,-1.183 2.641,-2.64Z" style="fill:none;stroke:#7c41ba;stroke-width:2px;stroke-linecap:butt;"/><path d="M135.399,48.76c0,13.122 -10.636,23.76 -23.76,23.76c-13.12,0 -23.76,-10.638 -23.76,-23.76c0,-13.122 10.64,-23.76 23.76,-23.76c13.124,0 23.76,10.638 23.76,23.76" style="fill:#fff;fill-rule:nonzero;stroke:#000;stroke-width:2px;stroke-linecap:butt;stroke-miterlimit:1.41421;"/><path d="M135.399,48.76c0,-13.114 -10.646,-23.76 -23.76,-23.76c-13.113,0 -23.76,10.646 -23.76,23.76c0,13.114 10.647,23.76 23.76,23.76c13.114,0 23.76,-10.646 23.76,-23.76Z" style="fill:none;stroke:#7c41ba;stroke-width:2px;stroke-linecap:butt;"/><path d="M112.054,49.9l0,13.212l12.478,-7.34l0,-13.21l-12.478,7.338Z" style="fill:#b999db;fill-rule:nonzero;stroke:#7c41ba;stroke-width:2px;"/><path d="M99.576,42.561l0,13.21l12.478,7.34l0,-13.212l-12.478,-7.338Z" style="fill:#fff;fill-rule:nonzero;stroke:#7c41ba;stroke-width:2px;"/><path d="M99.576,42.561l12.478,7.338l12.478,-7.338l-12.478,-7.34l-12.478,7.34Z" style="fill:#fff;fill-rule:nonzero;stroke:#7c41ba;stroke-width:2px;"/><path d="M114.108,35.221c0,1.136 -0.92,2.056 -2.054,2.056c-1.136,0 -2.056,-0.92 -2.056,-2.056c0,-1.134 0.92,-2.054 2.056,-2.054c1.134,0 2.054,0.92 2.054,2.054" style="fill:#b999db;fill-rule:nonzero;stroke:#000;stroke-width:2px;stroke-linecap:butt;stroke-miterlimit:1.41421;"/><path d="M114.108,35.222c0,-1.134 -0.92,-2.055 -2.055,-2.055c-1.134,0 -2.055,0.921 -2.055,2.055c0,1.134 0.921,2.055 2.055,2.055c1.135,0 2.055,-0.921 2.055,-2.055Z" style="fill:none;stroke:#7c41ba;stroke-width:2px;stroke-linecap:butt;"/><path d="M114.108,49.9c0,1.136 -0.92,2.056 -2.054,2.056c-1.136,0 -2.056,-0.92 -2.056,-2.056c0,-1.134 0.92,-2.054 2.056,-2.054c1.134,0 2.054,0.92 2.054,2.054" style="fill:#fff;fill-rule:nonzero;stroke:#000;stroke-width:2px;stroke-linecap:butt;stroke-miterlimit:1.41421;"/><path d="M114.108,49.901c0,-1.134 -0.92,-2.055 -2.055,-2.055c-1.134,0 -2.055,0.921 -2.055,2.055c0,1.134 0.921,2.055 2.055,2.055c1.135,0 2.055,-0.921 2.055,-2.055Z" style="fill:none;stroke:#7c41ba;stroke-width:2px;stroke-linecap:butt;"/><path d="M114.108,63.112c0,1.134 -0.92,2.054 -2.054,2.054c-1.136,0 -2.056,-0.92 -2.056,-2.054c0,-1.134 0.92,-2.056 2.056,-2.056c1.134,0 2.054,0.922 2.054,2.056" style="fill:#fff;fill-rule:nonzero;stroke:#000;stroke-width:2px;stroke-linecap:butt;stroke-miterlimit:1.41421;"/><path d="M114.108,63.111c0,-1.135 -0.92,-2.055 -2.055,-2.055c-1.134,0 -2.055,0.92 -2.055,2.055c0,1.134 0.921,2.055 2.055,2.055c1.135,0 2.055,-0.921 2.055,-2.055Z" style="fill:none;stroke:#7c41ba;stroke-width:2px;stroke-linecap:butt;"/><path d="M126.586,42.561c0,1.134 -0.92,2.054 -2.054,2.054c-1.136,0 -2.056,-0.92 -2.056,-2.054c0,-1.136 0.92,-2.054 2.056,-2.054c1.134,0 2.054,0.918 2.054,2.054" style="fill:#fff;fill-rule:nonzero;stroke:#000;stroke-width:2px;stroke-linecap:butt;stroke-miterlimit:1.41421;"/><path d="M126.586,42.561c0,-1.134 -0.921,-2.054 -2.055,-2.054c-1.134,0 -2.055,0.92 -2.055,2.054c0,1.133 0.921,2.054 2.055,2.054c1.134,0 2.055,-0.921 2.055,-2.054Z" style="fill:none;stroke:#7c41ba;stroke-width:2px;stroke-linecap:butt;"/><path d="M101.632,42.561c0,1.134 -0.92,2.054 -2.056,2.054c-1.134,0 -2.054,-0.92 -2.054,-2.054c0,-1.136 0.92,-2.054 2.054,-2.054c1.136,0 2.056,0.918 2.056,2.054" style="fill:#b999db;fill-rule:nonzero;stroke:#000;stroke-width:2px;stroke-linecap:butt;stroke-miterlimit:1.41421;"/><path d="M101.632,42.561c0,-1.134 -0.921,-2.054 -2.055,-2.054c-1.134,0 -2.055,0.92 -2.055,2.054c0,1.133 0.921,2.054 2.055,2.054c1.134,0 2.055,-0.921 2.055,-2.054Z" style="fill:none;stroke:#7c41ba;stroke-width:2px;stroke-linecap:butt;"/><path d="M126.586,55.772c0,1.136 -0.92,2.056 -2.054,2.056c-1.136,0 -2.056,-0.92 -2.056,-2.056c0,-1.134 0.92,-2.054 2.056,-2.054c1.134,0 2.054,0.92 2.054,2.054" style="fill:#fff;fill-rule:nonzero;stroke:#000;stroke-width:2px;stroke-linecap:butt;stroke-miterlimit:1.41421;"/><path d="M126.586,55.773c0,-1.134 -0.921,-2.055 -2.055,-2.055c-1.134,0 -2.055,0.921 -2.055,2.055c0,1.134 0.921,2.055 2.055,2.055c1.134,0 2.055,-0.921 2.055,-2.055Z" style="fill:none;stroke:#7c41ba;stroke-width:2px;stroke-linecap:butt;"/><path d="M101.632,55.772c0,1.136 -0.92,2.056 -2.056,2.056c-1.134,0 -2.054,-0.92 -2.054,-2.056c0,-1.134 0.92,-2.054 2.054,-2.054c1.136,0 2.056,0.92 2.056,2.054" style="fill:#b999db;fill-rule:nonzero;stroke:#000;stroke-width:2px;stroke-linecap:butt;stroke-miterlimit:1.41421;"/><path d="M101.632,55.773c0,-1.134 -0.921,-2.055 -2.055,-2.055c-1.134,0 -2.055,0.921 -2.055,2.055c0,1.134 0.921,2.055 2.055,2.055c1.134,0 2.055,-0.921 2.055,-2.055Z" style="fill:none;stroke:#7c41ba;stroke-width:2px;stroke-linecap:butt;"/></g></svg>