<?xml version="1.0" encoding="UTF-8" standalone="no"?><!DOCTYPE svg PUBLIC "-//W3C//DTD SVG 1.1//EN" "http://www.w3.org/Graphics/SVG/1.1/DTD/svg11.dtd"><svg width="100%" height="100%" viewBox="0 0 160 160" version="1.1" xmlns="http://www.w3.org/2000/svg" xmlns:xlink="http://www.w3.org/1999/xlink" xml:space="preserve" xmlns:serif="http://www.serif.com/" style="fill-rule:evenodd;clip-rule:evenodd;stroke-linejoin:round;stroke-miterlimit:10;"><path d="M159.999,80c0,44.184 -35.816,80 -79.999,80c-44.183,0 -80,-35.816 -80,-80c0,-44.182 35.817,-80 80,-80c44.183,0 79.999,35.818 79.999,80" style="fill:#e3d7ef;fill-rule:nonzero;"/><g id="Excellence-of-Service-Provision" serif:id="Excellence of Service Provision"><path d="M64.039,33.261l14.85,9.914l14.852,-9.914l0,-14.87l-29.702,0l0,14.87Z" style="fill:#b999db;fill-rule:nonzero;stroke:#7c41ba;stroke-width:2px;"/><path d="M64.039,18.391l14.85,9.914l14.852,-9.914l-14.852,-9.914l-14.85,9.914Z" style="fill:#fff;fill-rule:nonzero;stroke:#7c41ba;stroke-width:2px;"/><path d="M78.888,58.045l14.852,9.914l14.85,-9.914l0,-14.87l-29.702,0l0,14.87Z" style="fill:#b999db;fill-rule:nonzero;stroke:#7c41ba;stroke-width:2px;"/><path d="M78.888,43.174l14.852,9.914l14.85,-9.914l-14.85,-9.914l-14.852,9.914Z" style="fill:#fff;fill-rule:nonzero;stroke:#7c41ba;stroke-width:2px;"/><path d="M49.189,58.045l14.85,9.914l14.85,-9.914l0,-14.87l-29.7,0l0,14.87Z" style="fill:#b999db;fill-rule:nonzero;stroke:#7c41ba;stroke-width:2px;"/><path d="M49.189,43.174l14.85,9.914l14.85,-9.914l-14.85,-9.914l-14.85,9.914Z" style="fill:#fff;fill-rule:nonzero;stroke:#7c41ba;stroke-width:2px;"/><path d="M78.888,28.305l0,14.87" style="fill:none;stroke:#7c41ba;stroke-width:2px;"/><path d="M64.039,53.088l0,14.87" style="fill:none;stroke:#7c41ba;stroke-width:2px;"/><path d="M93.74,53.088l0,14.87" style="fill:none;stroke:#7c41ba;stroke-width:2px;"/><path d="M35.664,95.337c-1.832,0 -3.4,-1.382 -3.596,-3.242c-0.8,-7.746 2.132,-18.476 7.132,-26.094c1.094,-1.668 3.336,-2.138 5.008,-1.04c1.668,1.096 2.134,3.338 1.038,5.008c-4.036,6.15 -6.608,15.34 -5.982,21.38c0.206,1.986 -1.238,3.766 -3.224,3.968c-0.128,0.016 -0.252,0.02 -0.376,0.02Z" style="fill:#b999db;fill-rule:nonzero;stroke:#7c41ba;stroke-width:2px;stroke-linejoin:miter;"/><path d="M61.435,120.204c-0.404,-2.06 -0.932,-4.394 -0.028,-7.11c4.794,-14.378 -0.25,-24.492 -2.824,-31.576c-0.684,-1.874 -2.758,-2.846 -4.636,-2.162c-1.88,0.682 -2.81,2.746 -2.164,4.636c8.884,28.146 -15.726,16.56 -16.042,-7.07c0.066,-2.962 0.038,-7.444 0.018,-10.718c-0.01,-1.286 -0.018,-2.404 -0.018,-3.192c0,-1.998 -1.618,-3.616 -3.614,-3.616c-2,0 -3.618,1.618 -3.618,3.616c0,0.8 0.006,1.932 0.016,3.236c0.02,3.234 0.046,7.658 -0.016,10.516c-0.398,18.026 11.678,30.102 11.792,43.44l21.134,0Z" style="fill:#fff;fill-rule:nonzero;stroke:#7c41ba;stroke-width:2px;stroke-linecap:round;"/><path d="M61.435,120.204c-0.404,-2.06 -0.932,-4.394 -0.028,-7.11c4.794,-14.378 -0.25,-24.492 -2.824,-31.576c-0.684,-1.874 -2.758,-2.846 -4.636,-2.162c-1.88,0.682 -2.81,2.746 -2.164,4.636c8.884,28.146 -15.726,16.56 -16.042,-7.07c0.066,-2.962 0.038,-7.444 0.018,-10.718c-0.01,-1.286 -0.018,-2.404 -0.018,-3.192c0,-1.998 -1.618,-3.616 -3.614,-3.616c-2,0 -3.618,1.618 -3.618,3.616c0,0.8 0.006,1.932 0.016,3.236c0.02,3.234 0.046,7.658 -0.016,10.516c-0.398,18.026 11.678,30.102 11.792,43.44l21.134,0Z" style="fill:none;stroke:#7c41ba;stroke-width:2px;stroke-linecap:round;"/><path d="M64.474,127.282l0,9.372c0,0.908 -0.734,1.644 -1.644,1.644l-24.742,0c-0.906,0 -1.646,-0.736 -1.646,-1.644l0,-9.372c0,-0.908 0.74,-1.644 1.646,-1.644l24.742,0c0.91,0 1.644,0.736 1.644,1.644Z" style="fill:#b999db;fill-rule:nonzero;stroke:#7c41ba;stroke-width:2px;"/><path d="M64.474,127.282l0,9.372c0,0.908 -0.734,1.644 -1.644,1.644l-24.742,0c-0.906,0 -1.646,-0.736 -1.646,-1.644l0,-9.372c0,-0.908 0.74,-1.644 1.646,-1.644l24.742,0c0.91,0 1.644,0.736 1.644,1.644Z" style="fill:none;stroke:#7c41ba;stroke-width:2px;"/><path d="M62.666,125.637l0,-3.782c0,-0.908 -0.734,-1.644 -1.644,-1.644l-21.126,0c-0.906,0 -1.644,0.736 -1.644,1.644l0,3.782l24.414,0Z" style="fill:#fff;fill-rule:nonzero;stroke:#7c41ba;stroke-width:2px;stroke-linecap:round;"/><path d="M122.115,95.337c1.832,0 3.402,-1.382 3.594,-3.242c0.8,-7.746 -2.13,-18.476 -7.13,-26.094c-1.094,-1.668 -3.336,-2.138 -5.006,-1.04c-1.67,1.096 -2.138,3.338 -1.04,5.008c4.036,6.15 6.606,15.34 5.98,21.38c-0.206,1.986 1.238,3.766 3.228,3.968c0.124,0.016 0.25,0.02 0.374,0.02" style="fill:#b999db;fill-rule:nonzero;stroke:#7c41ba;stroke-width:2px;stroke-miterlimit:1.41421;"/><path d="M122.115,95.337c1.832,0 3.402,-1.382 3.594,-3.242c0.8,-7.746 -2.13,-18.476 -7.13,-26.094c-1.094,-1.668 -3.336,-2.138 -5.006,-1.04c-1.67,1.096 -2.138,3.338 -1.04,5.008c4.036,6.15 6.606,15.34 5.98,21.38c-0.206,1.986 1.238,3.766 3.228,3.968c0.124,0.016 0.25,0.02 0.374,0.02Z" style="fill:none;stroke:#7c41ba;stroke-width:2px;stroke-linejoin:miter;"/><path d="M96.342,120.204c0.406,-2.06 0.934,-4.394 0.03,-7.11c-4.794,-14.378 0.25,-24.492 2.826,-31.576c0.682,-1.874 2.756,-2.846 4.634,-2.162c1.878,0.682 2.81,2.746 2.162,4.636c-8.882,28.146 15.726,16.56 16.044,-7.07c-0.066,-2.962 -0.036,-7.444 -0.016,-10.718c0.008,-1.286 0.016,-2.404 0.016,-3.192c0,-1.998 1.616,-3.616 3.616,-3.616c1.996,0 3.618,1.618 3.618,3.616c0,0.8 -0.008,1.932 -0.018,3.236c-0.02,3.234 -0.048,7.658 0.018,10.516c0.396,18.026 -11.68,30.102 -11.794,43.44l-21.136,0Z" style="fill:#fff;fill-rule:nonzero;stroke:#7c41ba;stroke-width:2px;stroke-linecap:round;"/><path d="M96.342,120.204c0.406,-2.06 0.934,-4.394 0.03,-7.11c-4.794,-14.378 0.25,-24.492 2.826,-31.576c0.682,-1.874 2.756,-2.846 4.634,-2.162c1.878,0.682 2.81,2.746 2.162,4.636c-8.882,28.146 15.726,16.56 16.044,-7.07c-0.066,-2.962 -0.036,-7.444 -0.016,-10.718c0.008,-1.286 0.016,-2.404 0.016,-3.192c0,-1.998 1.616,-3.616 3.616,-3.616c1.996,0 3.618,1.618 3.618,3.616c0,0.8 -0.008,1.932 -0.018,3.236c-0.02,3.234 -0.048,7.658 0.018,10.516c0.396,18.026 -11.68,30.102 -11.794,43.44l-21.136,0Z" style="fill:none;stroke:#7c41ba;stroke-width:2px;stroke-linecap:round;"/><path d="M93.302,127.282l0,9.372c0,0.908 0.738,1.644 1.644,1.644l24.742,0c0.91,0 1.646,-0.736 1.646,-1.644l0,-9.372c0,-0.908 -0.736,-1.644 -1.646,-1.644l-24.742,0c-0.906,0 -1.644,0.736 -1.644,1.644Z" style="fill:#b999db;fill-rule:nonzero;stroke:#7c41ba;stroke-width:2px;"/><path d="M95.111,125.637l0,-3.782c0,-0.908 0.736,-1.644 1.644,-1.644l21.126,0c0.91,0 1.644,0.736 1.644,1.644l0,3.782l-24.414,0Z" style="fill:#fff;fill-rule:nonzero;stroke:#7c41ba;stroke-width:2px;stroke-linecap:round;"/></g></svg>