<?xml version="1.0" encoding="UTF-8" standalone="no"?><!DOCTYPE svg PUBLIC "-//W3C//DTD SVG 1.1//EN" "http://www.w3.org/Graphics/SVG/1.1/DTD/svg11.dtd"><svg width="100%" height="100%" viewBox="0 0 160 160" version="1.1" xmlns="http://www.w3.org/2000/svg" xmlns:xlink="http://www.w3.org/1999/xlink" xml:space="preserve" xmlns:serif="http://www.serif.com/" style="fill-rule:evenodd;clip-rule:evenodd;stroke-linejoin:round;stroke-miterlimit:1.41421;"><g id="Ebene-1" serif:id="Ebene 1"><path d="M159.999,80c0,44.184 -35.816,80 -79.999,80c-44.183,0 -80,-35.816 -80,-80c0,-44.182 35.817,-80 80,-80c44.183,0 79.999,35.818 79.999,80" style="fill:#e3d7ef;fill-rule:nonzero;"/><path d="M35.229,112.016c4.554,0 8.247,-3.692 8.247,-8.246l0,-53.602c0,-4.557 3.693,-8.247 8.247,-8.247l41.232,0c-4.554,0 -8.246,3.69 -8.246,8.247l0,53.602c0,4.554 -3.693,8.246 -8.247,8.246l-41.233,0Z" style="fill:#fff;fill-rule:nonzero;stroke:#000;stroke-width:2px;"/><path d="M84.71,50.167c0,-4.822 4.138,-8.677 9.057,-8.209c4.287,0.411 7.435,4.257 7.435,8.563l0,4.113c0,0.948 -0.769,1.718 -1.717,1.718l-14.775,0l0,-6.185Z" style="fill:#fff;fill-rule:nonzero;stroke:#7c41ba;stroke-width:2px;stroke-miterlimit:10;"/><path d="M113.916,118.202c0,1.422 -8.076,2.577 -18.039,2.577c-9.963,0 -18.041,-1.155 -18.041,-2.577c0,-1.424 8.078,-2.577 18.041,-2.577c9.963,0 18.039,1.153 18.039,2.577" style="fill:#e3d7ef;fill-rule:nonzero;"/><path d="M107.263,117.171l-21.74,0c-0.829,0 -1.5,-0.672 -1.5,-1.5l0,-2.115c0,-1.988 1.611,-3.602 3.599,-3.602l17.541,0c1.987,0 3.6,1.614 3.6,3.602l0,2.115c0,0.828 -0.672,1.5 -1.5,1.5" style="fill:#fff;fill-rule:nonzero;stroke:#000;stroke-width:2px;"/><path d="M35.229,112.016c4.554,0 8.247,-3.692 8.247,-8.246l0,-53.602c0,-4.557 3.693,-8.247 8.247,-8.247l41.232,0c-4.554,0 -8.246,3.69 -8.246,8.247l0,53.602c0,4.554 -3.693,8.246 -8.247,8.246l-41.233,0Z" style="fill:none;stroke:#7c41ba;stroke-width:2px;stroke-miterlimit:10;"/><path d="M61,58.414l17.524,0" style="fill:none;stroke:#7c41ba;stroke-width:2px;stroke-linecap:round;stroke-miterlimit:10;"/><path d="M61,66.66l17.524,0" style="fill:none;stroke:#7c41ba;stroke-width:2px;stroke-linecap:round;stroke-miterlimit:10;"/><path d="M41.872,58.47l-2.289,18.327l8.016,-4.583l8.017,4.583l-2.29,-18.327l-11.454,0Z" style="fill:#b999db;fill-rule:nonzero;stroke:#000;stroke-width:2px;"/><path d="M61,74.907l10.308,0" style="fill:none;stroke:#7c41ba;stroke-width:2px;stroke-linecap:round;stroke-miterlimit:10;"/><path d="M49.66,83.153l18.555,0" style="fill:none;stroke:#7c41ba;stroke-width:2px;stroke-linecap:round;stroke-miterlimit:10;"/><path d="M49.66,91.4l14.432,0" style="fill:none;stroke:#7c41ba;stroke-width:2px;stroke-linecap:round;stroke-miterlimit:10;"/><path d="M49.66,99.647l14.432,0" style="fill:none;stroke:#7c41ba;stroke-width:2px;stroke-linecap:round;stroke-miterlimit:10;"/><path d="M41.872,58.47l-2.289,18.327l8.016,-4.583l8.017,4.583l-2.29,-18.327l-11.454,0Z" style="fill:none;stroke:#7c41ba;stroke-width:2px;stroke-miterlimit:10;"/><path d="M60.198,51.599c0,1.552 -2.512,2.593 -3.073,3.945c-0.581,1.399 0.438,3.907 -0.618,4.963c-1.055,1.056 -3.563,0.038 -4.964,0.618c-1.348,0.561 -2.391,3.072 -3.943,3.072c-1.554,0 -2.597,-2.511 -3.947,-3.072c-1.401,-0.58 -3.909,0.438 -4.963,-0.619c-1.055,-1.055 -0.036,-3.563 -0.618,-4.962c-0.559,-1.352 -3.072,-2.393 -3.072,-3.945c0,-1.554 2.513,-2.594 3.072,-3.945c0.582,-1.4 -0.437,-3.908 0.618,-4.964c1.054,-1.056 3.564,-0.037 4.963,-0.618c1.35,-0.561 2.393,-3.072 3.947,-3.072c1.552,0 2.595,2.511 3.943,3.072c1.401,0.581 3.911,-0.438 4.965,0.62c1.055,1.054 0.037,3.562 0.617,4.962c0.561,1.351 3.074,2.391 3.074,3.945" style="fill:#b999db;fill-rule:nonzero;stroke:#000;stroke-width:2px;"/><path d="M60.198,51.599c0,1.552 -2.512,2.593 -3.073,3.945c-0.581,1.399 0.438,3.907 -0.618,4.963c-1.055,1.056 -3.563,0.038 -4.964,0.618c-1.348,0.561 -2.391,3.072 -3.943,3.072c-1.554,0 -2.597,-2.511 -3.947,-3.072c-1.401,-0.58 -3.909,0.438 -4.963,-0.619c-1.055,-1.055 -0.036,-3.563 -0.618,-4.962c-0.559,-1.352 -3.072,-2.393 -3.072,-3.945c0,-1.554 2.513,-2.594 3.072,-3.945c0.582,-1.4 -0.437,-3.908 0.618,-4.964c1.054,-1.056 3.564,-0.037 4.963,-0.618c1.35,-0.561 2.393,-3.072 3.947,-3.072c1.552,0 2.595,2.511 3.943,3.072c1.401,0.581 3.911,-0.438 4.965,0.62c1.055,1.054 0.037,3.562 0.617,4.962c0.561,1.351 3.074,2.391 3.074,3.945l-0.001,0Z" style="fill:none;stroke:#7c41ba;stroke-width:2px;stroke-miterlimit:10;"/><path d="M53.326,51.599c0,3.162 -2.564,5.725 -5.726,5.725c-3.163,0 -5.728,-2.563 -5.728,-5.725c0,-3.162 2.565,-5.726 5.728,-5.726c3.162,0 5.726,2.564 5.726,5.726" style="fill:#fff;fill-rule:nonzero;stroke:#000;stroke-width:2px;"/><path d="M53.325,51.598c0,-3.159 -2.566,-5.725 -5.727,-5.725c-3.16,0 -5.727,2.566 -5.727,5.725c0,3.16 2.567,5.726 5.727,5.726c3.161,0 5.727,-2.566 5.727,-5.726Z" style="fill:none;stroke:#7c41ba;stroke-width:2px;stroke-miterlimit:10;"/><path d="M114.947,81.092c-1.14,0 -2.061,-0.921 -2.061,-2.061c0,-2.235 -2.834,-4.124 -6.186,-4.124c-3.351,0 -7.217,1.889 -7.217,4.124c0,1.14 -0.921,2.061 -2.061,2.061c-1.138,0 -2.062,-0.921 -2.062,-2.061c0,-4.55 5.656,-8.247 11.34,-8.247c5.683,0 10.308,3.697 10.308,8.247c0,1.14 -0.921,2.061 -2.061,2.061" style="fill:#fff;fill-rule:nonzero;stroke:#000;stroke-width:2px;"/><path d="M114.947,81.092c-1.14,0 -2.061,-0.921 -2.061,-2.061c0,-2.235 -2.834,-4.124 -6.186,-4.124c-3.351,0 -7.217,1.889 -7.217,4.124c0,1.14 -0.921,2.061 -2.061,2.061c-1.138,0 -2.062,-0.921 -2.062,-2.061c0,-4.55 5.656,-8.247 11.34,-8.247c5.683,0 10.308,3.697 10.308,8.247c0,1.14 -0.921,2.061 -2.061,2.061Z" style="fill:none;stroke:#7c41ba;stroke-width:2px;stroke-linecap:round;stroke-miterlimit:10;"/><path d="M95.361,81.092c-1.139,0 -2.061,-0.921 -2.061,-2.061c0,-2.235 -3.864,-4.124 -7.217,-4.124c-3.352,0 -6.184,1.889 -6.184,4.124c0,1.14 -0.923,2.061 -2.063,2.061c-1.138,0 -2.061,-0.921 -2.061,-2.061c0,-4.55 4.625,-8.247 10.308,-8.247c5.684,0 11.34,3.697 11.34,8.247c0,1.14 -0.922,2.061 -2.062,2.061" style="fill:#fff;fill-rule:nonzero;stroke:#000;stroke-width:2px;"/><path d="M95.361,81.092c-1.139,0 -2.061,-0.921 -2.061,-2.061c0,-2.235 -3.864,-4.124 -7.217,-4.124c-3.352,0 -6.184,1.889 -6.184,4.124c0,1.14 -0.923,2.061 -2.063,2.061c-1.138,0 -2.061,-0.921 -2.061,-2.061c0,-4.55 4.625,-8.247 10.308,-8.247c5.684,0 11.34,3.697 11.34,8.247c0,1.14 -0.922,2.061 -2.062,2.061Z" style="fill:none;stroke:#7c41ba;stroke-width:2px;stroke-linecap:round;stroke-miterlimit:10;"/><rect x="93.3" y="77.999" width="6.185" height="27.833" style="fill:#fff;stroke:#7c41ba;stroke-width:2px;stroke-linecap:round;stroke-miterlimit:10;"/><rect x="93.3" y="77.999" width="6.185" height="27.833" style="fill:none;stroke:#7c41ba;stroke-width:2px;stroke-linecap:round;stroke-miterlimit:10;"/><path d="M96.392,70.783l-5.154,5.154c0,1.139 0.924,2.063 2.061,2.063l6.186,0c1.138,0 2.062,-0.924 2.062,-2.063l-5.155,-5.154Z" style="fill:#fff;fill-rule:nonzero;stroke:#7c41ba;stroke-width:2px;stroke-linecap:round;stroke-miterlimit:10;"/><path d="M107.263,117.171l-21.74,0c-0.829,0 -1.5,-0.672 -1.5,-1.5l0,-2.115c0,-1.988 1.611,-3.602 3.599,-3.602l17.541,0c1.987,0 3.6,1.614 3.6,3.602l0,2.115c0,0.828 -0.672,1.5 -1.5,1.5Z" style="fill:none;stroke:#7c41ba;stroke-width:2px;stroke-linecap:round;stroke-miterlimit:10;"/><path d="M102.576,109.955l-12.369,0c-1.708,0 -3.093,-1.385 -3.093,-3.093c0,-1.707 1.385,-3.092 3.093,-3.092l12.369,0c1.709,0 3.095,1.385 3.095,3.092c0,1.708 -1.386,3.093 -3.095,3.093Z" style="fill:#fff;fill-rule:nonzero;stroke:#7c41ba;stroke-width:2px;stroke-linecap:round;stroke-miterlimit:10;"/><path d="M114.947,81.092l8.247,13.402l-16.494,0l8.247,-13.402Z" style="fill:none;stroke:#7c41ba;stroke-width:2px;stroke-linecap:round;stroke-miterlimit:10;"/><path d="M86.084,94.494c0,4.552 -3.693,8.245 -8.247,8.245c-4.554,0 -8.247,-3.693 -8.247,-8.245l16.494,0Z" style="fill:#fff;fill-rule:nonzero;stroke:#000;stroke-width:2px;"/><path d="M77.837,81.092l-8.247,13.402l16.494,0l-8.247,-13.402Z" style="fill:none;stroke:#7c41ba;stroke-width:2px;stroke-linecap:round;stroke-miterlimit:10;"/><path d="M86.084,94.494c0,4.552 -3.693,8.245 -8.247,8.245c-4.554,0 -8.247,-3.693 -8.247,-8.245l16.494,0Z" style="fill:none;stroke:#7c41ba;stroke-width:2px;stroke-linecap:round;stroke-miterlimit:10;"/><path d="M123.194,94.494c0,4.552 -3.693,8.245 -8.247,8.245c-4.554,0 -8.247,-3.693 -8.247,-8.245l16.494,0Z" style="fill:#fff;fill-rule:nonzero;stroke:#7c41ba;stroke-width:2px;stroke-linecap:round;stroke-miterlimit:10;"/></g></svg>