<?xml version="1.0" encoding="UTF-8" standalone="no"?><!DOCTYPE svg PUBLIC "-//W3C//DTD SVG 1.1//EN" "http://www.w3.org/Graphics/SVG/1.1/DTD/svg11.dtd"><svg width="100%" height="100%" viewBox="0 0 48 48" version="1.1" xmlns="http://www.w3.org/2000/svg" xmlns:xlink="http://www.w3.org/1999/xlink" xml:space="preserve" xmlns:serif="http://www.serif.com/" style="fill-rule:evenodd;clip-rule:evenodd;stroke-linejoin:round;stroke-miterlimit:1.41421;"><g><path d="M40,48c-0.552,0 -1,-0.448 -1,-1l0,-9c0,-0.06 0.006,-0.12 0.016,-0.18l1.786,-9.82l-8.802,0c-0.552,0 -1,-0.448 -1,-1l0,-6.916c0,-2.748 -0.982,-4.084 -3,-4.084c-2.018,0 -3,1.336 -3,4.084l0,8.916c0,0.08 -0.01,0.162 -0.03,0.24l-1,4.002c-0.48,1.768 -0.49,3.622 -0.036,5.378c0.762,1.342 1.696,2.578 2.778,3.678c0.186,0.19 0.288,0.438 0.288,0.702l0,4c0,0.552 -0.448,1 -1,1c-0.552,0 -1,-0.448 -1,-1l0,-3.596c-1.116,-1.182 -2.082,-2.498 -2.874,-3.916c-0.04,-0.07 -0.07,-0.146 -0.092,-0.226c-0.288,-1.062 -0.432,-2.15 -0.43,-3.252c-0.33,0.296 -0.678,0.57 -1.042,0.818c-0.038,0.026 -0.076,0.048 -0.116,0.068c-0.484,0.242 -1.11,0.376 -1.76,0.376c-0.57,0 -1.416,-0.104 -2.21,-0.594c-0.952,-0.588 -1.476,-1.538 -1.476,-2.678l0,-6l-9,0c-1.654,0 -3,-1.346 -3,-3l0,-22c0,-1.654 1.346,-3 3,-3l36,0c1.654,0 3,1.346 3,3l0,22c0,1.34 -0.882,2.494 -2.142,2.868l-1.858,10.222l0,8.91c0,0.552 -0.448,1 -1,1Zm-23,-14c0,0.444 0.168,0.754 0.526,0.976c0.31,0.19 0.724,0.296 1.168,0.296c0.306,0 0.596,-0.052 0.806,-0.142c1.246,-0.864 2.214,-2.06 2.802,-3.46l0.698,-2.792l0,-0.878l-6,0l0,6Zm25,-8c0.552,0 1,-0.448 1,-1l0,-22c0,-0.552 -0.448,-1 -1,-1l-36,0c-0.552,0 -1,0.448 -1,1l0,22c0,0.552 0.448,1 1,1l17,0l0,-5.916c0,-5.492 3.496,-6.084 5,-6.084c1.504,0 5,0.592 5,6.084l0,5.916l9,0Z" style="fill:#7c41ba;fill-rule:nonzero;"/><path d="M24,8c-0.552,0 -1,-0.448 -1,-1c0,-0.552 0.448,-1 1,-1l12,0c0.552,0 1,0.448 1,1c0,0.552 -0.448,1 -1,1l-12,0Z" style="fill:#7c41ba;fill-rule:nonzero;"/><path d="M24,12c-0.552,0 -1,-0.448 -1,-1c0,-0.552 0.448,-1 1,-1l12,0c0.552,0 1,0.448 1,1c0,0.552 -0.448,1 -1,1l-12,0Z" style="fill:#7c41ba;fill-rule:nonzero;"/><path d="M15,18c-3.308,0 -6,-2.692 -6,-6c0,-3.308 2.692,-6 6,-6c3.308,0 6,2.692 6,6c0,3.308 -2.692,6 -6,6Zm0,-10c-2.206,0 -4,1.794 -4,4c0,2.206 1.794,4 4,4c2.206,0 4,-1.794 4,-4c0,-2.206 -1.794,-4 -4,-4Z" style="fill:#7c41ba;fill-rule:nonzero;"/></g></svg>