<?xml version="1.0" encoding="UTF-8" standalone="no"?><!DOCTYPE svg PUBLIC "-//W3C//DTD SVG 1.1//EN" "http://www.w3.org/Graphics/SVG/1.1/DTD/svg11.dtd"><svg width="100%" height="100%" viewBox="0 0 160 160" version="1.1" xmlns="http://www.w3.org/2000/svg" xmlns:xlink="http://www.w3.org/1999/xlink" xml:space="preserve" xmlns:serif="http://www.serif.com/" style="fill-rule:evenodd;clip-rule:evenodd;stroke-linecap:round;stroke-linejoin:round;stroke-miterlimit:10;"><g id="Excellence-of-Service-Provision" serif:id="Excellence of Service Provision"></g><g id="Ebene-1" serif:id="Ebene 1"><path d="M111.038,51.239c0,0 -2.4,-8.492 0.458,-13.792l-4.304,-3.456c-4.558,3.932 -13.368,3.42 -13.368,3.42l17.214,13.828Z" style="fill:#fff;fill-rule:nonzero;stroke:#7c41ba;stroke-width:2px;"/><path d="M16.544,82.29l0,-5.52" style="fill:#b999db;fill-rule:nonzero;stroke:#7c41ba;stroke-width:2px;"/><path d="M25.794,71.251l-14.77,0l0,5.52l14.008,0c0.16,-1.87 0.396,-3.718 0.762,-5.52Z" style="fill:#fff;fill-rule:nonzero;stroke:#7c41ba;stroke-width:2px;"/><path d="M24.893,82.29l-11.11,0l0,5.52l11.588,0c-0.26,-1.812 -0.426,-3.648 -0.478,-5.52Z" style="fill:#fff;fill-rule:nonzero;stroke:#7c41ba;stroke-width:2px;"/><path d="M121.423,80.911c0,26.676 -21.626,48.3 -48.3,48.3c-26.676,0 -48.3,-21.624 -48.3,-48.3c0,-26.676 21.624,-48.3 48.3,-48.3c26.674,0 48.3,21.624 48.3,48.3" style="fill:#b999db;fill-rule:nonzero;stroke:#000;stroke-width:2px;stroke-linecap:butt;stroke-miterlimit:1.41421;"/><path d="M99.965,64.696l10.936,0c2.368,0 4.546,-1.312 5.652,-3.406c0.136,-0.258 0.194,-0.536 0.292,-0.802c-5.788,-12.37 -16.628,-21.884 -29.898,-25.844l-7.442,0c-3.532,0 -6.396,2.862 -6.396,6.392c0,3.532 2.864,6.396 6.396,6.396c2.824,0 5.114,2.29 5.114,5.116c0,2.824 -2.29,5.112 -5.114,5.112l-8.314,0l-10.868,0c-7.064,0 -12.79,5.728 -12.79,12.79c0,7.062 5.726,12.788 12.79,12.788l10.868,0l0,6.076c0,1.588 1.29,2.876 2.878,2.876c1.59,0 2.878,1.288 2.878,2.878l0,3.514c0,0.742 -0.156,1.214 -0.42,1.536c-1.878,2.294 -2.266,5.464 -0.996,8.144c1.268,2.68 3.968,4.388 6.934,4.388l3.434,0c8.312,0 10.868,-7.672 10.868,-11.508l0,-12.79c0,-3.142 1.78,-4.972 3.738,-6.172c3.034,-1.86 4.896,-5.174 4.896,-8.73c0,-0.246 -0.198,-0.442 -0.442,-0.442l-4.994,0c-1.412,0 -2.558,-1.146 -2.558,-2.558l0,-3.198c0,-1.412 1.146,-2.556 2.558,-2.556" style="fill:#fff;fill-rule:nonzero;stroke:#000;stroke-width:2px;stroke-linecap:butt;stroke-miterlimit:1.41421;"/><path d="M121.423,80.911c0,-26.658 -21.642,-48.3 -48.3,-48.3c-26.657,0 -48.3,21.642 -48.3,48.3c0,26.657 21.643,48.3 48.3,48.3c26.658,0 48.3,-21.643 48.3,-48.3Z" style="fill:none;stroke:#7c41ba;stroke-width:2px;stroke-linecap:butt;"/><path d="M99.965,64.696l10.936,0c2.368,0 4.546,-1.312 5.652,-3.406c0.136,-0.258 0.194,-0.536 0.292,-0.802c-5.788,-12.37 -16.628,-21.884 -29.898,-25.844l-7.442,0c-3.532,0 -6.396,2.862 -6.396,6.392c0,3.532 2.864,6.396 6.396,6.396c2.824,0 5.114,2.29 5.114,5.116c0,2.824 -2.29,5.112 -5.114,5.112l-8.314,0l-10.868,0c-7.064,0 -12.79,5.728 -12.79,12.79c0,7.062 5.726,12.788 12.79,12.788l10.868,0l0,6.076c0,1.588 1.29,2.876 2.878,2.876c1.59,0 2.878,1.288 2.878,2.878l0,3.514c0,0.742 -0.156,1.214 -0.42,1.536c-1.878,2.294 -2.266,5.464 -0.996,8.144c1.268,2.68 3.968,4.388 6.934,4.388l3.434,0c8.312,0 10.868,-7.672 10.868,-11.508l0,-12.79c0,-3.142 1.78,-4.972 3.738,-6.172c3.034,-1.86 4.896,-5.174 4.896,-8.73c0,-0.246 -0.198,-0.442 -0.442,-0.442l-4.994,0c-1.412,0 -2.558,-1.146 -2.558,-2.558l0,-3.198c0,-1.412 1.146,-2.556 2.558,-2.556Z" style="fill:none;stroke:#7c41ba;stroke-width:2px;stroke-linecap:butt;"/><path d="M60.671,33.812c-4.688,-0.58 -11.018,-11.812 -11.018,-11.812c0,0 3.692,12.354 0.858,16.13" style="fill:none;stroke:#7c41ba;stroke-width:2px;"/><path d="M51.575,33.179l4.792,-2.038" style="fill:none;stroke:#7c41ba;stroke-width:2px;"/><path d="M70.363,134.731c0,1.524 1.236,2.76 2.76,2.76c1.524,0 2.76,-1.236 2.76,-2.76l0,-5.52l-5.52,0l0,5.52Z" style="fill:#fff;fill-rule:nonzero;stroke:#7c41ba;stroke-width:2px;"/><path d="M85.544,123.69c0,-1.526 -1.236,-2.76 -2.76,-2.76l-13.08,0c-1.596,0 -3.122,0.674 -4.198,1.856c-0.504,0.554 -1.232,0.904 -2.042,0.904c-2.232,0 -4.142,1.33 -5.012,3.236c4.628,1.474 9.554,2.286 14.672,2.286c5.606,0 10.964,-1.004 15.97,-2.762l-0.79,0c-1.524,0 -2.76,-1.234 -2.76,-2.76" style="fill:#fff;fill-rule:nonzero;stroke:#000;stroke-width:2px;stroke-linecap:butt;stroke-miterlimit:1.41421;"/><path d="M85.544,123.69c0,-1.526 -1.236,-2.76 -2.76,-2.76l-13.08,0c-1.596,0 -3.122,0.674 -4.198,1.856c-0.504,0.554 -1.232,0.904 -2.042,0.904c-2.232,0 -4.142,1.33 -5.012,3.236c4.628,1.474 9.554,2.286 14.672,2.286c5.606,0 10.964,-1.004 15.97,-2.762l-0.79,0c-1.524,0 -2.76,-1.234 -2.76,-2.76Z" style="fill:none;stroke:#7c41ba;stroke-width:2px;"/><path d="M117.284,73.268c-0.016,0.012 -0.034,0.024 -0.048,0.036" style="fill:none;stroke:#7c41ba;stroke-width:2px;stroke-miterlimit:4;"/><path d="M18.363,119.108l0.226,0.065l0.214,0.1l0.195,0.132l0.171,0.161l0.145,0.186l0.114,0.206l0.08,0.221l0.045,0.231l0.007,0.235l-0.029,0.234l-0.065,0.226l-0.1,0.213l-0.132,0.195l-0.16,0.172l-0.186,0.145l-0.206,0.113l-0.222,0.081l-0.231,0.044l-0.075,0.009l-0.236,0.007l-0.233,-0.029l-0.226,-0.065l-0.214,-0.1l-0.195,-0.132l-0.171,-0.16l-0.145,-0.186l-0.114,-0.206l-0.08,-0.222l-0.045,-0.231l-0.007,-0.235l0.029,-0.233l0.065,-0.227l0.1,-0.213l0.132,-0.195l0.161,-0.172l0.185,-0.144l0.206,-0.114l0.222,-0.08l0.231,-0.045l0.076,-0.008l0.235,-0.008l0.233,0.029Zm-6.271,-0.034l0.039,0.007l0.016,0.003l0.227,0.061l0.215,0.096l0.198,0.128l0.175,0.157l0.148,0.183l0.118,0.203l0.085,0.22l0.049,0.23l0.013,0.235l-0.025,0.234l-0.06,0.228l-0.096,0.215l-0.128,0.197l-0.157,0.175l-0.183,0.149l-0.204,0.118l-0.219,0.084l-0.231,0.049l-0.235,0.013l-0.234,-0.024l-0.036,-0.007l-0.059,-0.012l-0.226,-0.063l-0.214,-0.099l-0.196,-0.131l-0.173,-0.159l-0.146,-0.185l-0.115,-0.205l-0.081,-0.221l-0.046,-0.231l-0.01,-0.235l0.028,-0.234l0.064,-0.227l0.098,-0.213l0.131,-0.196l0.159,-0.173l0.185,-0.146l0.206,-0.115l0.22,-0.081l0.231,-0.047l0.235,-0.009l0.234,0.028Zm12.217,-1.072l0.232,0.04l0.222,0.075l0.209,0.109l0.189,0.141l0.164,0.169l0.136,0.192l0.104,0.211l0.07,0.224l0.034,0.233l-0.002,0.236l-0.04,0.232l-0.075,0.223l-0.11,0.208l-0.14,0.189l-0.169,0.164l-0.192,0.136l-0.211,0.105l-0.225,0.07l-0.074,0.016l-0.233,0.034l-0.235,-0.002l-0.232,-0.04l-0.223,-0.075l-0.209,-0.11l-0.189,-0.14l-0.164,-0.169l-0.136,-0.192l-0.104,-0.211l-0.07,-0.225l-0.034,-0.233l0.003,-0.235l0.039,-0.232l0.076,-0.223l0.109,-0.208l0.141,-0.189l0.168,-0.165l0.192,-0.136l0.211,-0.104l0.225,-0.07l0.074,-0.017l0.233,-0.034l0.236,0.003Zm6.147,-1.556l0.227,0.062l0.215,0.097l0.197,0.129l0.174,0.158l0.147,0.183l0.117,0.204l0.084,0.22l0.048,0.231l0.012,0.235l-0.026,0.234l-0.061,0.227l-0.097,0.215l-0.129,0.197l-0.158,0.174l-0.183,0.147l-0.204,0.117l-0.22,0.084l-0.074,0.022l-0.23,0.048l-0.235,0.011l-0.234,-0.025l-0.227,-0.062l-0.215,-0.096l-0.197,-0.129l-0.174,-0.158l-0.148,-0.184l-0.117,-0.204l-0.084,-0.22l-0.048,-0.23l-0.011,-0.236l0.025,-0.234l0.062,-0.227l0.096,-0.214l0.129,-0.197l0.158,-0.175l0.184,-0.147l0.204,-0.117l0.22,-0.084l0.073,-0.021l0.231,-0.048l0.235,-0.012l0.234,0.025Zm-22.29,-1.468l0.232,0.041l0.222,0.077l0.208,0.11l0.187,0.142l0.164,0.17l0.135,0.193l0.102,0.211l0.069,0.226l0.032,0.233l-0.004,0.235l0,-0.002l-0.003,0.043l0,-0.003l-0.035,0.233l-0.072,0.224l-0.105,0.211l-0.137,0.191l-0.165,0.168l-0.19,0.139l-0.209,0.108l-0.223,0.075l-0.233,0.038l-0.235,0.002l-0.233,-0.036l-0.224,-0.071l-0.21,-0.105l-0.192,-0.137l-0.167,-0.166l-0.14,-0.189l-0.108,-0.209l-0.074,-0.224l-0.039,-0.232l-0.001,-0.235l0.001,-0.016l0.007,-0.081l0.001,-0.017l0.041,-0.232l0.077,-0.222l0.111,-0.208l0.142,-0.188l0.169,-0.163l0.193,-0.135l0.212,-0.103l0.225,-0.068l0.233,-0.033l0.236,0.005Zm28.145,-0.421l0.229,0.052l0.219,0.087l0.202,0.121l0.181,0.15l0.155,0.177l0.125,0.2l0.093,0.216l0.058,0.228l0.021,0.235l-0.015,0.234l-0.052,0.23l-0.088,0.219l-0.12,0.202l-0.151,0.181l-0.177,0.155l-0.199,0.125l-0.217,0.093l-0.072,0.024l-0.228,0.058l-0.234,0.021l-0.235,-0.015l-0.23,-0.052l-0.218,-0.088l-0.203,-0.12l-0.18,-0.151l-0.155,-0.177l-0.126,-0.199l-0.093,-0.217l-0.057,-0.228l-0.022,-0.234l0.016,-0.235l0.052,-0.23l0.087,-0.218l0.121,-0.202l0.151,-0.181l0.177,-0.155l0.199,-0.126l0.216,-0.092l0.072,-0.025l0.229,-0.058l0.234,-0.021l0.235,0.016Zm5.793,-2.104l0.231,0.045l0.222,0.08l0.206,0.113l0.186,0.145l0.161,0.171l0.132,0.195l0.1,0.213l0.065,0.226l0.03,0.234l-0.008,0.235l-0.044,0.231l-0.08,0.222l-0.114,0.206l-0.144,0.186l-0.172,0.161l-0.195,0.132l-0.213,0.1l-0.071,0.027l-0.226,0.065l-0.234,0.03l-0.235,-0.008l-0.231,-0.044l-0.222,-0.08l-0.206,-0.114l-0.186,-0.144l-0.161,-0.172l-0.132,-0.195l-0.1,-0.213l-0.065,-0.226l-0.03,-0.234l0.008,-0.235l0.044,-0.231l0.08,-0.221l0.114,-0.207l0.144,-0.185l0.172,-0.161l0.195,-0.133l0.213,-0.1l0.071,-0.026l0.226,-0.066l0.234,-0.029l0.235,0.007Zm5.741,-2.27l0.232,0.039l0.224,0.074l0.209,0.108l0.189,0.139l0.166,0.168l0.137,0.191l0.106,0.21l0.071,0.225l0.036,0.232l-0.002,0.236l-0.038,0.232l-0.074,0.223l-0.108,0.209l-0.14,0.19l-0.167,0.165l-0.191,0.138l-0.211,0.105l-0.07,0.029l-0.225,0.071l-0.232,0.036l-0.236,-0.002l-0.232,-0.038l-0.223,-0.074l-0.21,-0.108l-0.189,-0.139l-0.166,-0.168l-0.137,-0.191l-0.105,-0.21l-0.072,-0.225l-0.035,-0.232l0.001,-0.236l0.038,-0.232l0.074,-0.224l0.109,-0.209l0.139,-0.189l0.168,-0.166l0.191,-0.137l0.21,-0.105l0.071,-0.029l0.224,-0.072l0.233,-0.035l0.235,0.001Zm-37.013,-0.768l0.229,0.054l0.218,0.089l0.201,0.122l0.18,0.152l0.153,0.178l0.124,0.2l0.091,0.217l0.056,0.229l0.02,0.235l-0.018,0.234l-0.054,0.229l-0.089,0.218l-0.122,0.202l-0.044,0.061l-0.152,0.18l-0.179,0.154l-0.2,0.124l-0.217,0.091l-0.229,0.056l-0.234,0.019l-0.235,-0.017l-0.229,-0.054l-0.218,-0.089l-0.201,-0.123l-0.18,-0.152l-0.153,-0.178l-0.124,-0.2l-0.091,-0.217l-0.056,-0.229l-0.02,-0.234l0.018,-0.235l0.054,-0.229l0.089,-0.218l0.122,-0.201l0.044,-0.062l0.153,-0.18l0.178,-0.154l0.2,-0.123l0.217,-0.091l0.229,-0.056l0.234,-0.02l0.235,0.018Zm42.938,-1.607l0.225,0.069l0.211,0.104l0.193,0.135l0.169,0.164l0.141,0.188l0.11,0.209l0.076,0.222l0.04,0.232l0.004,0.235l-0.034,0.233l-0.069,0.225l-0.104,0.212l-0.135,0.192l-0.164,0.169l-0.188,0.141l-0.208,0.11l-0.07,0.031l-0.223,0.076l-0.232,0.04l-0.235,0.004l-0.233,-0.034l-0.225,-0.069l-0.212,-0.104l-0.192,-0.135l-0.169,-0.164l-0.141,-0.188l-0.11,-0.209l-0.076,-0.222l-0.041,-0.232l-0.003,-0.236l0.033,-0.233l0.069,-0.224l0.104,-0.212l0.136,-0.192l0.164,-0.169l0.188,-0.141l0.208,-0.11l0.07,-0.031l0.223,-0.076l0.232,-0.04l0.235,-0.004l0.233,0.034Zm5.638,-2.536l0.226,0.064l0.214,0.099l0.195,0.131l0.173,0.16l0.145,0.185l0.115,0.206l0.081,0.221l0.045,0.231l0.009,0.235l-0.028,0.234l-0.064,0.226l-0.099,0.214l-0.132,0.195l-0.16,0.173l-0.185,0.145l-0.205,0.115l-0.07,0.032l-0.221,0.081l-0.231,0.045l-0.235,0.009l-0.233,-0.028l-0.227,-0.064l-0.213,-0.099l-0.196,-0.131l-0.172,-0.16l-0.146,-0.186l-0.114,-0.205l-0.082,-0.221l-0.045,-0.231l-0.009,-0.235l0.028,-0.234l0.065,-0.226l0.098,-0.214l0.132,-0.195l0.16,-0.173l0.185,-0.145l0.205,-0.115l0.07,-0.032l0.221,-0.081l0.231,-0.045l0.235,-0.009l0.234,0.028Zm5.593,-2.643l0.228,0.06l0.215,0.095l0.198,0.128l0.175,0.157l0.149,0.182l0.118,0.204l0.086,0.219l0.049,0.23l0.014,0.235l-0.024,0.234l-0.06,0.228l-0.095,0.215l-0.128,0.198l-0.157,0.176l-0.182,0.148l-0.203,0.119l-0.069,0.033l-0.219,0.085l-0.231,0.05l-0.235,0.013l-0.234,-0.024l-0.227,-0.06l-0.216,-0.095l-0.198,-0.127l-0.175,-0.157l-0.149,-0.183l-0.118,-0.203l-0.085,-0.219l-0.05,-0.23l-0.013,-0.235l0.023,-0.235l0.06,-0.227l0.095,-0.216l0.128,-0.197l0.157,-0.176l0.182,-0.149l0.204,-0.118l0.068,-0.033l0.22,-0.085l0.23,-0.05l0.235,-0.013l0.234,0.023Zm5.55,-2.741l0.229,0.057l0.216,0.092l0.2,0.124l0.178,0.154l0.152,0.18l0.121,0.202l0.089,0.218l0.053,0.229l0.017,0.235l-0.02,0.235l-0.057,0.228l-0.091,0.217l-0.125,0.2l-0.154,0.178l-0.18,0.151l-0.202,0.122l-0.068,0.034l-0.218,0.088l-0.229,0.054l-0.235,0.016l-0.235,-0.02l-0.228,-0.056l-0.217,-0.092l-0.2,-0.124l-0.177,-0.154l-0.152,-0.181l-0.122,-0.201l-0.088,-0.218l-0.053,-0.229l-0.017,-0.235l0.02,-0.235l0.056,-0.228l0.092,-0.217l0.125,-0.2l0.154,-0.178l0.18,-0.151l0.201,-0.122l0.069,-0.034l0.218,-0.089l0.229,-0.053l0.235,-0.017l0.234,0.02Zm5.5,-2.834l0.23,0.053l0.218,0.087l0.202,0.121l0.181,0.151l0.154,0.178l0.125,0.199l0.093,0.217l0.057,0.228l0.021,0.234l-0.016,0.235l-0.053,0.23l-0.087,0.218l-0.121,0.202l-0.151,0.181l-0.178,0.154l-0.199,0.125l-0.068,0.036l-0.216,0.092l-0.228,0.057l-0.235,0.021l-0.235,-0.016l-0.229,-0.052l-0.219,-0.088l-0.202,-0.121l-0.18,-0.151l-0.155,-0.177l-0.125,-0.2l-0.092,-0.216l-0.058,-0.229l-0.02,-0.234l0.016,-0.235l0.052,-0.229l0.088,-0.219l0.121,-0.202l0.151,-0.18l0.177,-0.155l0.2,-0.125l0.067,-0.035l0.217,-0.093l0.228,-0.057l0.234,-0.021l0.235,0.016Zm5.458,-2.922l0.23,0.049l0.22,0.085l0.204,0.118l0.182,0.148l0.158,0.175l0.128,0.198l0.095,0.215l0.061,0.227l0.025,0.234l-0.013,0.235l-0.049,0.23l-0.085,0.22l-0.118,0.204l-0.148,0.183l-0.175,0.157l-0.197,0.128l-0.067,0.036l-0.216,0.096l-0.227,0.061l-0.234,0.024l-0.235,-0.012l-0.23,-0.05l-0.22,-0.084l-0.204,-0.118l-0.183,-0.148l-0.157,-0.175l-0.128,-0.198l-0.095,-0.215l-0.061,-0.227l-0.025,-0.234l0.013,-0.235l0.049,-0.231l0.085,-0.219l0.117,-0.204l0.149,-0.183l0.175,-0.157l0.197,-0.128l0.067,-0.037l0.215,-0.095l0.228,-0.061l0.234,-0.024l0.235,0.012Zm5.406,-3.009l0.231,0.045l0.222,0.081l0.205,0.114l0.186,0.145l0.16,0.172l0.132,0.196l0.099,0.213l0.065,0.226l0.028,0.234l-0.008,0.235l-0.045,0.231l-0.081,0.221l-0.114,0.206l-0.145,0.186l-0.172,0.16l-0.195,0.132l-0.067,0.037l-0.213,0.099l-0.227,0.065l-0.233,0.029l-0.235,-0.009l-0.231,-0.045l-0.222,-0.08l-0.205,-0.115l-0.186,-0.145l-0.16,-0.172l-0.132,-0.195l-0.099,-0.214l-0.065,-0.226l-0.028,-0.233l0.008,-0.236l0.045,-0.231l0.081,-0.221l0.114,-0.206l0.145,-0.185l0.172,-0.16l0.195,-0.132l0.067,-0.037l0.213,-0.1l0.227,-0.065l0.233,-0.028l0.235,0.008Zm5.362,-3.094l0.232,0.041l0.222,0.078l0.208,0.111l0.187,0.142l0.163,0.17l0.135,0.193l0.102,0.212l0.068,0.225l0.032,0.233l-0.005,0.236l-0.041,0.231l-0.077,0.223l-0.112,0.207l-0.142,0.188l-0.17,0.163l-0.193,0.134l-0.066,0.039l-0.212,0.102l-0.225,0.068l-0.233,0.032l-0.235,-0.004l-0.232,-0.042l-0.222,-0.077l-0.208,-0.111l-0.187,-0.143l-0.163,-0.169l-0.135,-0.194l-0.102,-0.212l-0.068,-0.225l-0.033,-0.233l0.005,-0.235l0.042,-0.232l0.077,-0.222l0.111,-0.208l0.143,-0.187l0.169,-0.163l0.194,-0.135l0.065,-0.038l0.212,-0.103l0.226,-0.068l0.233,-0.032l0.235,0.005Zm5.306,-3.182l0.232,0.037l0.224,0.073l0.21,0.108l0.19,0.139l0.166,0.166l0.137,0.191l0.107,0.21l0.072,0.224l0.036,0.233l-0.001,0.235l-0.037,0.233l-0.073,0.223l-0.108,0.21l-0.139,0.19l-0.166,0.166l-0.191,0.138l-0.065,0.039l-0.21,0.107l-0.224,0.072l-0.233,0.036l-0.235,-0.001l-0.233,-0.037l-0.223,-0.073l-0.21,-0.108l-0.19,-0.139l-0.166,-0.167l-0.138,-0.19l-0.106,-0.21l-0.072,-0.224l-0.036,-0.233l0,-0.235l0.038,-0.233l0.073,-0.223l0.107,-0.21l0.139,-0.19l0.167,-0.166l0.191,-0.138l0.065,-0.039l0.21,-0.107l0.224,-0.072l0.233,-0.036l0.235,0.001Zm5.486,-3.24l0.225,0.069l0.211,0.104l0.192,0.136l0.169,0.164l0.141,0.189l0.109,0.208l0.076,0.223l0.04,0.232l0.003,0.236l-0.034,0.233l-0.07,0.224l-0.104,0.211l-0.136,0.193l-0.164,0.168l-0.188,0.141l-0.065,0.041l-0.208,0.109l-0.223,0.076l-0.232,0.04l-0.235,0.003l-0.233,-0.034l-0.225,-0.069l-0.211,-0.105l-0.193,-0.135l-0.168,-0.165l-0.141,-0.188l-0.11,-0.208l-0.075,-0.223l-0.04,-0.232l-0.003,-0.236l0.033,-0.233l0.07,-0.224l0.104,-0.212l0.136,-0.192l0.164,-0.168l0.189,-0.141l0.065,-0.041l0.208,-0.11l0.223,-0.075l0.232,-0.04l0.235,-0.003l0.233,0.034Zm5.186,-3.376l0.227,0.065l0.213,0.1l0.194,0.132l0.172,0.161l0.145,0.186l0.113,0.206l0.08,0.222l0.044,0.231l0.008,0.235l-0.029,0.234l-0.066,0.226l-0.1,0.213l-0.132,0.195l-0.161,0.171l-0.186,0.145l-0.063,0.042l-0.206,0.113l-0.222,0.08l-0.231,0.045l-0.235,0.007l-0.234,-0.029l-0.226,-0.066l-0.213,-0.1l-0.195,-0.132l-0.171,-0.161l-0.145,-0.185l-0.113,-0.207l-0.08,-0.221l-0.045,-0.231l-0.007,-0.235l0.029,-0.234l0.065,-0.226l0.1,-0.213l0.132,-0.195l0.161,-0.172l0.186,-0.144l0.064,-0.042l0.206,-0.114l0.221,-0.08l0.232,-0.044l0.235,-0.008l0.233,0.03Z" style="fill:#7c41ba;"/><path d="M15.62,105.145c0.016,-0.018 0.034,-0.034 0.048,-0.048" style="fill:none;stroke:#7c41ba;stroke-width:2px;stroke-miterlimit:4;"/><path d="M141.739,49.831l-3.368,2.184l-0.616,7.008l4.696,-5.246l-0.712,-3.946Z" style="fill:#7c41ba;"/><path d="M132.749,53.807l0.392,7.026l3.296,2.282l0.84,-3.922l-4.528,-5.386Z" style="fill:#7c41ba;"/><path d="M137.975,59.157l0.712,3.946l3.368,-2.186l0.616,-7.006l-4.696,5.246Z" style="fill:#7c41ba;"/><path d="M142.578,61.376l-2.28,3.29l3.922,0.836l5.382,-4.512l-7.024,0.386Z" style="fill:#7c41ba;"/><path d="M144.257,66.221l-3.944,0.712l2.186,3.372l7.006,0.614l-5.248,-4.698Z" style="fill:#7c41ba;"/><path d="M142.039,70.827l-3.29,-2.28l-0.836,3.922l4.512,5.384l-0.386,-7.026Z" style="fill:#7c41ba;"/><path d="M136.505,68.588l-3.372,2.184l-0.614,7.004l4.7,-5.246l-0.714,-3.942Z" style="fill:#7c41ba;"/><path d="M130.945,66.161l-5.382,4.514l7.022,-0.388l2.282,-3.288l-3.922,-0.838Z" style="fill:#7c41ba;"/><path d="M132.667,61.358l-7.006,-0.614l5.246,4.7l3.944,-0.714l-2.184,-3.372Z" style="fill:#7c41ba;"/><path d="M125.526,60.96l-3.942,0.712l2.182,3.37l7.008,0.618l-5.248,-4.7Z" style="fill:#7c41ba;"/><path d="M132.5,53.864l-3.292,-2.286l-0.838,3.926l4.52,5.392l-0.39,-7.032Z" style="fill:#7c41ba;"/><path d="M147.906,56.622l-5.382,4.514l7.022,-0.388l2.282,-3.284l-3.922,-0.842Z" style="fill:#7c41ba;"/><path d="M151.398,66.62l-7.006,-0.618l5.246,4.7l3.942,-0.712l-2.182,-3.37Z" style="fill:#7c41ba;"/><path d="M142.277,70.772l0.388,7.022l3.288,2.28l0.836,-3.922l-4.512,-5.38Z" style="fill:#7c41ba;"/><path d="M132.712,77.885l0.712,3.946l3.372,-2.184l0.616,-7.008l-4.7,5.246Z" style="fill:#7c41ba;"/><path d="M125.618,70.915l-2.282,3.286l3.922,0.84l5.382,-4.514l-7.022,0.388Z" style="fill:#7c41ba;"/><path d="M127.431,75.149l4.866,2.57l0.592,-7.09l-5.458,4.52Z" style="fill:#7c41ba;"/><path d="M123.817,65.243l1.622,5.258l5.432,-4.598l-7.054,-0.66Z" style="fill:#7c41ba;"/><path d="M128.265,55.68l-2.564,4.86l7.088,0.596l-4.524,-5.456Z" style="fill:#7c41ba;"/><path d="M132.918,53.682l4.59,5.438l0.662,-7.06l-5.252,1.622Z" style="fill:#7c41ba;"/><path d="M142.877,53.948l-0.598,7.092l5.456,-4.526l-4.858,-2.566Z" style="fill:#7c41ba;"/><path d="M149.731,61.167l-5.438,4.592l7.06,0.658l-1.622,-5.25Z" style="fill:#7c41ba;"/><path d="M142.375,70.526l4.524,5.458l2.566,-4.858l-7.09,-0.6Z" style="fill:#7c41ba;"/><path d="M137.656,72.542l-0.658,7.06l5.25,-1.622l-4.592,-5.438Z" style="fill:#7c41ba;"/></g></svg>