<?xml version="1.0" encoding="UTF-8" standalone="no"?><!DOCTYPE svg PUBLIC "-//W3C//DTD SVG 1.1//EN" "http://www.w3.org/Graphics/SVG/1.1/DTD/svg11.dtd"><svg width="100%" height="100%" viewBox="0 0 48 48" version="1.1" xmlns="http://www.w3.org/2000/svg" xmlns:xlink="http://www.w3.org/1999/xlink" xml:space="preserve" xmlns:serif="http://www.serif.com/" style="fill-rule:evenodd;clip-rule:evenodd;stroke-linecap:round;stroke-linejoin:round;stroke-miterlimit:10;"><g><path d="M9.001,27.002l-1.02,-2.038c-0.61,-1.224 -0.556,-2.674 0.148,-3.848l4.152,-6.92c0.466,-0.774 1.18,-1.37 2.026,-1.686l14.692,-5.51l12,6c0,0 -1.75,5.124 -6,12c-4.25,6.874 -10,8 -10,8l-7.006,4.204c-1.676,1.006 -3.846,0.518 -4.928,-1.108l-0.004,-0.004c-1.138,-1.708 -0.654,-4.014 1.078,-5.118c2.736,-1.742 6.346,-3.974 6.86,-3.974c0,-0.844 2.158,-4.156 4,-6c-3.53,0 -6,-2 -6,-2c0,1.28 -5,4 -6,4c0,0 2,1.834 2,4" style="fill:none;stroke:#7c41ba;stroke-width:2px;"/><path d="M31,1l-4,5l15.106,7.552c1.33,0.666 2.894,-0.302 2.894,-1.788l0,-4.764l-14,-6Z" style="fill:none;stroke:#7c41ba;stroke-width:2px;"/><path d="M29,32l0,15l-26,0l0,-20l17,0" style="fill:none;stroke:#7c41ba;stroke-width:2px;"/></g></svg>