<?xml version="1.0" encoding="UTF-8" standalone="no"?><!DOCTYPE svg PUBLIC "-//W3C//DTD SVG 1.1//EN" "http://www.w3.org/Graphics/SVG/1.1/DTD/svg11.dtd"><svg width="100%" height="100%" viewBox="0 0 24 24" version="1.1" xmlns="http://www.w3.org/2000/svg" xmlns:xlink="http://www.w3.org/1999/xlink" xml:space="preserve" xmlns:serif="http://www.serif.com/" style="fill-rule:evenodd;clip-rule:evenodd;stroke-linejoin:round;stroke-miterlimit:1.41421;"><g><path d="M15.43,23.435c-0.343,0 -0.568,-0.126 -0.696,-0.232c-0.235,-0.194 -0.365,-0.487 -0.365,-0.825l0,-3.184c0.047,-0.673 -0.187,-1.311 -0.642,-1.768c-0.135,-0.135 -0.181,-0.339 -0.117,-0.519c0.064,-0.18 0.227,-0.31 0.417,-0.331c4.235,-0.468 4.806,-2.879 4.806,-5.177c0.016,-1.026 -0.357,-2.001 -1.05,-2.748c-0.127,-0.136 -0.167,-0.331 -0.104,-0.507c0.275,-0.778 0.277,-1.623 0.008,-2.398c-0.364,0.026 -1.183,0.205 -2.53,1.116c-0.083,0.056 -0.18,0.086 -0.28,0.086c-0.045,0 -0.09,-0.006 -0.133,-0.018c-0.894,-0.245 -1.818,-0.37 -2.747,-0.37c-0.929,0 -1.853,0.124 -2.748,0.37c-0.043,0.013 -0.087,0.019 -0.132,0.019c-0.1,0 -0.197,-0.03 -0.281,-0.086c-1.352,-0.918 -2.173,-1.092 -2.532,-1.117c-0.269,0.775 -0.266,1.62 0.01,2.398c0.062,0.176 0.022,0.37 -0.104,0.507c-0.693,0.747 -1.066,1.72 -1.052,2.739c0,4.096 2.424,4.925 4.795,5.196c0.191,0.022 0.354,0.153 0.416,0.335c0.062,0.182 0.013,0.386 -0.124,0.52c-0.332,0.324 -0.539,0.757 -0.581,1.219c-0.015,0.164 -0.109,0.31 -0.251,0.39l-0.001,-0.001c-0.009,0.007 -0.018,0.012 -0.027,0.018c-0.433,0.238 -0.922,0.363 -1.414,0.363c-1.079,0 -2.071,-0.586 -2.589,-1.529c-0.06,-0.104 -0.129,-0.201 -0.206,-0.29c0.247,0.328 0.437,0.701 0.559,1.102c0.016,0.052 0.418,1.296 2.214,1.296c0.327,0 0.684,-0.042 1.062,-0.124c0.036,-0.007 0.071,-0.011 0.105,-0.011c0.114,0 0.225,0.039 0.313,0.11c0.118,0.095 0.186,0.236 0.187,0.387c0.004,0.715 0.002,1.32 0.001,1.698l-0.001,0.306c0,0.334 -0.127,0.625 -0.359,0.82c-0.129,0.108 -0.356,0.238 -0.706,0.238c-0.088,0 -0.181,-0.009 -0.277,-0.025c-0.026,-0.005 -0.049,-0.01 -0.072,-0.018c-4.92,-1.634 -8.223,-6.215 -8.218,-11.4c0.007,-6.612 5.391,-11.99 12.001,-11.99l0.03,0c5.179,0 9.756,3.303 11.388,8.218c2.085,6.28 -1.327,13.085 -7.607,15.17c-0.021,0.007 -0.042,0.012 -0.062,0.016c-0.106,0.021 -0.208,0.031 -0.304,0.031Zm-0.05,-1.002c0.008,0 0.023,0.002 0.047,0.002c0.031,0 0.062,-0.003 0.09,-0.008c5.732,-1.925 8.844,-8.153 6.938,-13.895c-1.497,-4.505 -5.692,-7.532 -10.44,-7.532c-0.005,0 -0.032,0 -0.032,0c-6.058,0 -10.992,4.93 -10.998,10.989c-0.004,4.737 3.007,8.928 7.494,10.437c0.024,0.003 0.05,0.005 0.075,0.005c0.039,0 0.058,-0.005 0.064,-0.007c-0.007,0 -0.001,-0.024 -0.001,-0.052l0.001,-0.29c0.001,-0.267 0.002,-0.655 0.002,-1.118c-0.228,0.028 -0.45,0.042 -0.662,0.042c-2.545,0 -3.174,-1.985 -3.18,-2.005c-0.176,-0.579 -0.555,-1.078 -1.066,-1.405c-0.228,-0.156 -0.817,-0.557 -0.647,-1.095c0.107,-0.339 0.456,-0.526 0.983,-0.526c0.04,0 0.06,0.002 0.08,0.005c0.896,0.123 1.672,0.644 2.125,1.429c0.346,0.631 1.004,1.02 1.718,1.02c0.256,0 0.503,-0.049 0.738,-0.146c0.056,-0.289 0.155,-0.57 0.293,-0.83c-4.332,-0.831 -4.844,-3.839 -4.844,-6.056c-0.017,-1.167 0.381,-2.3 1.123,-3.203c-0.294,-1.034 -0.219,-2.14 0.216,-3.128c0.057,-0.131 0.169,-0.231 0.305,-0.275c0.062,-0.018 0.197,-0.051 0.415,-0.051c0.553,0 1.517,0.205 2.99,1.167c0.911,-0.23 1.849,-0.347 2.79,-0.347c0.941,0 1.879,0.117 2.79,0.347c1.477,-0.963 2.439,-1.167 2.99,-1.167c0.218,0 0.351,0.032 0.412,0.052c0.136,0.044 0.247,0.144 0.305,0.275c0.435,0.988 0.511,2.093 0.218,3.128c0.742,0.903 1.14,2.038 1.121,3.213c0,3.463 -1.588,5.444 -4.852,6.042c0.295,0.541 0.432,1.16 0.387,1.78l0.001,3.148c0,0.024 0.004,0.044 0.008,0.056c0,-0.001 0.001,-0.001 0.003,-0.001Z" style="fill:#4a1289;fill-rule:nonzero;"/></g></svg>