<?xml version="1.0" encoding="UTF-8" standalone="no"?>
<!-- Generated by IcoMoon.io -->

<svg
   xmlns:dc="http://purl.org/dc/elements/1.1/"
   xmlns:cc="http://creativecommons.org/ns#"
   xmlns:rdf="http://www.w3.org/1999/02/22-rdf-syntax-ns#"
   xmlns:svg="http://www.w3.org/2000/svg"
   xmlns="http://www.w3.org/2000/svg"
   xmlns:sodipodi="http://sodipodi.sourceforge.net/DTD/sodipodi-0.dtd"
   xmlns:inkscape="http://www.inkscape.org/namespaces/inkscape"
   version="1.1"
   width="48"
   height="48"
   viewBox="0 0 48 48"
   id="svg6"
   sodipodi:docname="ui-15.svg"
   inkscape:version="0.92.3 (2405546, 2018-03-11)">
  <metadata
     id="metadata12">
    <rdf:RDF>
      <cc:Work
         rdf:about="">
        <dc:format>image/svg+xml</dc:format>
        <dc:type
           rdf:resource="http://purl.org/dc/dcmitype/StillImage" />
        <dc:title>ui-15</dc:title>
      </cc:Work>
    </rdf:RDF>
  </metadata>
  <defs
     id="defs10" />
  <sodipodi:namedview
     pagecolor="#ffffff"
     bordercolor="#666666"
     borderopacity="1"
     objecttolerance="10"
     gridtolerance="10"
     guidetolerance="10"
     inkscape:pageopacity="0"
     inkscape:pageshadow="2"
     inkscape:window-width="1596"
     inkscape:window-height="861"
     id="namedview8"
     showgrid="false"
     inkscape:zoom="7.375"
     inkscape:cx="-10.372881"
     inkscape:cy="16"
     inkscape:window-x="0"
     inkscape:window-y="18"
     inkscape:window-maximized="0"
     inkscape:current-layer="svg6" />
  <title
     id="title2">ui-15</title>
  <path
     d="M 34.968407,48 C 27.84363,48 22.031312,42.1875 22.031312,34.968 c 0,-7.125 5.812318,-12.9375 12.937095,-12.9375 C 42.187682,22.0305 48,27.843 48,34.968 48,42.1875 42.187682,48 34.968407,48 Z m 0,-24 c -5.999813,0 -10.969157,4.9695 -10.969157,10.9695 0,6.0945 4.969344,11.0625 10.969157,11.0625 6.09431,0 11.062155,-4.9695 11.062155,-11.0625 0,-6 -4.969345,-10.9695 -11.062155,-10.9695 z m -1.59445,16.875 c -0.562483,0 -1.124965,-0.1875 -1.499953,-0.5625 -0.0945,0 -0.187494,-0.0945 -0.281991,-0.1875 l -2.999907,-3 c -0.374988,-0.375 -0.374988,-1.032 0,-1.407 0.187494,-0.1875 0.374989,-0.282 0.65698,-0.282 0.281991,0 0.562482,0.0945 0.749977,0.282 l 2.999906,3 c 0,0 0,0 0,0 0.0945,0.0945 0.187494,0.0945 0.374988,0.0945 0.0945,0 0.281991,0 0.374988,-0.1875 l 5.812319,-7.6875 c 0.187494,-0.282 0.469485,-0.4695 0.749976,-0.4695 0.280491,0 0.469485,0.0945 0.656979,0.282 0.187495,0.0945 0.374989,0.375 0.374989,0.657 0,0.1875 0,0.4695 -0.187494,0.75 l -5.812318,7.6875 c -0.469486,0.657 -1.219462,1.032 -1.969439,1.032 z M 14.999532,19.032 c -5.2498367,0 -9.4692048,-4.3125 -9.4692048,-9.5625 0,-5.25 4.2193681,-9.4695 9.4692048,-9.4695 5.249835,0 9.469203,4.2195 9.469203,9.4695 0,5.25 -4.219368,9.5625 -9.469203,9.5625 z m 0,-17.0625 c -4.124872,0 -7.4997663,3.375 -7.4997663,7.5 0,4.125 3.3748943,7.5 7.4997663,7.5 4.124871,0 7.499765,-3.375 7.499765,-7.5 0,-4.125 -3.374894,-7.5 -7.499765,-7.5 z M 1.0319678,36 C 0.46948533,36 0,35.5305 0,34.968 0,31.0305 1.5944502,27.186 4.4068623,24.3735 c 2.8124121,-2.8125 6.5622947,-4.407 10.5941687,-4.407 2.906909,0 5.719321,0.8445 8.062249,2.4375 0.469485,0.282 0.656979,0.9375 0.374988,1.3125 -0.187494,0.375 -0.562483,0.4695 -0.844474,0.4695 -0.187494,0 -0.374988,0 -0.562482,-0.0945 -2.062436,-1.407 -4.49986,-2.0625 -7.03178,-2.0625 -3.469392,0 -6.7497898,1.3125 -9.1872136,3.75 -2.2499297,2.25 -3.5623887,5.157 -3.7498829,8.25 H 16.968969 c 0.562483,0 1.031968,0.375 1.031968,0.9375 0,0.5625 -0.469485,1.032 -1.031968,1.032 z"
     id="path4"
     inkscape:connector-curvature="0"
     style="fill:#7c41ba;stroke-width:1.49997652" />
</svg>
