<?xml version="1.0" encoding="UTF-8" standalone="no"?><!DOCTYPE svg PUBLIC "-//W3C//DTD SVG 1.1//EN" "http://www.w3.org/Graphics/SVG/1.1/DTD/svg11.dtd"><svg width="100%" height="100%" viewBox="0 0 595 391" version="1.1" xmlns="http://www.w3.org/2000/svg" xmlns:xlink="http://www.w3.org/1999/xlink" xml:space="preserve" xmlns:serif="http://www.serif.com/" style="fill-rule:evenodd;clip-rule:evenodd;stroke-linecap:round;stroke-linejoin:round;"><g id="Ebene-1" serif:id="Ebene 1"></g><rect id="ArtBoard1" x="0" y="0" width="595" height="391" style="fill:none;"/><g id="Ebene-11" serif:id="Ebene 1"><g><path d="M176,301.225c0,-44.183 -35.818,-80 -80,-80c-44.184,0 -80,35.817 -80,80c0,11.771 2.563,22.936 7.129,33l145.742,0c4.566,-10.064 7.129,-21.229 7.129,-33" style="fill:#e3d7ef;fill-rule:nonzero;"/><path d="M73.034,257.242c0,-2.329 2.038,-4.367 4.368,-4.367l34.941,0c2.33,0 4.368,2.038 4.368,4.367l0,17.471c0,2.33 -2.038,4.368 -4.368,4.368l-34.941,0c-2.33,0 -4.368,-2.038 -4.368,-4.368l0,-17.471Z" style="fill:#fff;fill-rule:nonzero;stroke:#7c41ba;stroke-width:2px;"/><path d="M83.225,270.345c2.33,0 4.368,-2.038 4.368,-4.367c0,-2.33 -2.038,-4.368 -4.368,-4.368c-2.329,0 -4.367,2.038 -4.367,4.368c0,2.329 2.038,4.367 4.367,4.367Z" style="fill:#b999db;fill-rule:nonzero;stroke:#7c41ba;stroke-width:2px;"/><path d="M106.52,270.345c2.329,0 4.367,-2.038 4.367,-4.367c0,-2.33 -2.038,-4.368 -4.367,-4.368c-2.33,0 -4.368,2.038 -4.368,4.368c0,2.329 2.038,4.367 4.368,4.367Z" style="fill:#b999db;fill-rule:nonzero;stroke:#7c41ba;stroke-width:2px;"/><path d="M90.505,284.904l8.735,0" style="fill:none;stroke:#7c41ba;stroke-width:2px;"/><path d="M90.505,290.728l8.735,0" style="fill:none;stroke:#7c41ba;stroke-width:2px;"/><path d="M103.608,296.551l-17.177,0c-3.206,0 -6.409,1.456 -8.156,4.077c-2.035,2.621 -2.912,5.824 -2.035,9.027l1.456,6.405c0,0.583 0.87,1.165 1.456,1.165l32.609,0c0.582,0 1.164,-0.582 1.456,-1.165l1.456,-6.405c0.582,-3.203 0,-6.406 -2.036,-9.027c-2.623,-2.621 -5.823,-4.077 -9.029,-4.077Z" style="fill:#fff;fill-rule:nonzero;stroke:#7c41ba;stroke-width:2px;"/><path d="M114.092,306.16l6.115,-4.659c3.2,-2.621 4.656,-6.694 3.782,-10.774l-0.288,-0.582" style="fill:none;stroke:#7c41ba;stroke-width:2px;"/><path d="M126.902,279.081c2.329,3.203 1.75,7.862 -1.456,10.191c-3.203,2.329 -7.862,1.747 -10.191,-1.456" style="fill:none;stroke:#7c41ba;stroke-width:2px;"/><path d="M75.656,306.16l-6.118,-4.659c-3.2,-2.621 -4.656,-6.694 -3.782,-10.774l0,-0.582" style="fill:none;stroke:#7c41ba;stroke-width:2px;"/><path d="M62.843,279.081c-2.33,3.203 -1.747,7.862 1.456,10.191c3.205,2.329 7.861,1.747 10.191,-1.456" style="fill:none;stroke:#7c41ba;stroke-width:2px;"/><path d="M105.064,316.934l0,-10.191c0,-0.874 -0.583,-1.456 -1.456,-1.456l-17.471,0c-0.874,0 -1.456,0.582 -1.456,1.456l0,10.191" style="fill:#b999db;fill-rule:nonzero;stroke:#7c41ba;stroke-width:2px;"/><path d="M18,334.225l156,0" style="fill:none;stroke:#7c41ba;stroke-width:2px;stroke-miterlimit:10;"/><path d="M9,334.225l5,0" style="fill:none;stroke:#7c41ba;stroke-width:2px;stroke-miterlimit:10;"/><path d="M178,334.225l5,0" style="fill:none;stroke:#7c41ba;stroke-width:2px;stroke-miterlimit:10;"/><path d="M72.074,325.85c0,2.223 1.803,4.025 4.025,4.025c2.223,0 4.026,-1.802 4.026,-4.025l0,-4.025l-8.051,0l0,4.025Z" style="fill:#fff;fill-rule:nonzero;stroke:#7c41ba;stroke-width:2px;stroke-miterlimit:10;"/><path d="M110.025,325.85c0,2.223 1.801,4.025 4.025,4.025c2.223,0 4.024,-1.802 4.024,-4.025l0,-4.025l-8.049,0l0,4.025Z" style="fill:#fff;fill-rule:nonzero;stroke:#7c41ba;stroke-width:2px;stroke-miterlimit:10;"/><path d="M150.574,322.975l-114.449,0c-1.106,0 -2,-0.896 -2,-2l0,-1.75c0,-1.104 0.894,-2 2,-2l114.449,0c1.105,0 2,0.896 2,2l0,1.75c0,1.104 -0.895,2 -2,2Z" style="fill:#b999db;fill-rule:nonzero;stroke:#7c41ba;stroke-width:2px;stroke-miterlimit:10;"/><path d="M159.475,359.201c0,2.224 -28.318,4.024 -63.25,4.024c-34.932,0 -63.25,-1.8 -63.25,-4.024c0,-2.224 28.318,-4.026 63.25,-4.026c34.932,0 63.25,1.802 63.25,4.026" style="fill:#e3d7ef;fill-rule:nonzero;"/><path d="M143.676,357.475l-100.65,0c-1.106,0 -2,-0.896 -2,-2l0,-32.5l104.65,0l0,32.5c0,1.104 -0.896,2 -2,2Z" style="fill:#fff;fill-rule:nonzero;stroke:#7c41ba;stroke-width:2px;stroke-miterlimit:10;"/></g><g><path d="M378,301.225c0,-44.183 -35.818,-80 -80,-80c-44.184,0 -80,35.817 -80,80c0,11.771 2.563,22.936 7.129,33l145.742,0c4.566,-10.064 7.129,-21.229 7.129,-33" style="fill:#e3d7ef;fill-rule:nonzero;"/><path d="M275.034,257.242c0,-2.329 2.038,-4.367 4.368,-4.367l34.941,0c2.33,0 4.368,2.038 4.368,4.367l0,17.471c0,2.33 -2.038,4.368 -4.368,4.368l-34.941,0c-2.33,0 -4.368,-2.038 -4.368,-4.368l0,-17.471Z" style="fill:#fff;fill-rule:nonzero;stroke:#7c41ba;stroke-width:2px;"/><path d="M285.225,270.345c2.33,0 4.368,-2.038 4.368,-4.367c0,-2.33 -2.038,-4.368 -4.368,-4.368c-2.329,0 -4.367,2.038 -4.367,4.368c0,2.329 2.038,4.367 4.367,4.367Z" style="fill:#b999db;fill-rule:nonzero;stroke:#7c41ba;stroke-width:2px;"/><path d="M308.52,270.345c2.329,0 4.367,-2.038 4.367,-4.367c0,-2.33 -2.038,-4.368 -4.367,-4.368c-2.33,0 -4.368,2.038 -4.368,4.368c0,2.329 2.038,4.367 4.368,4.367Z" style="fill:#b999db;fill-rule:nonzero;stroke:#7c41ba;stroke-width:2px;"/><path d="M292.505,284.904l8.735,0" style="fill:none;stroke:#7c41ba;stroke-width:2px;"/><path d="M292.505,290.728l8.735,0" style="fill:none;stroke:#7c41ba;stroke-width:2px;"/><path d="M305.608,296.551l-17.177,0c-3.206,0 -6.409,1.456 -8.156,4.077c-2.035,2.621 -2.912,5.824 -2.035,9.027l1.456,6.405c0,0.583 0.87,1.165 1.456,1.165l32.609,0c0.582,0 1.164,-0.582 1.456,-1.165l1.456,-6.405c0.582,-3.203 0,-6.406 -2.036,-9.027c-2.623,-2.621 -5.823,-4.077 -9.029,-4.077Z" style="fill:#fff;fill-rule:nonzero;stroke:#7c41ba;stroke-width:2px;"/><path d="M316.092,306.16l6.115,-4.659c3.2,-2.621 4.656,-6.694 3.782,-10.774l-0.288,-0.582" style="fill:none;stroke:#7c41ba;stroke-width:2px;"/><path d="M328.902,279.081c2.329,3.203 1.75,7.862 -1.456,10.191c-3.203,2.329 -7.862,1.747 -10.191,-1.456" style="fill:none;stroke:#7c41ba;stroke-width:2px;"/><path d="M277.656,306.16l-6.118,-4.659c-3.2,-2.621 -4.656,-6.694 -3.782,-10.774l0,-0.582" style="fill:none;stroke:#7c41ba;stroke-width:2px;"/><path d="M264.843,279.081c-2.33,3.203 -1.747,7.862 1.456,10.191c3.205,2.329 7.861,1.747 10.191,-1.456" style="fill:none;stroke:#7c41ba;stroke-width:2px;"/><path d="M307.064,316.934l0,-10.191c0,-0.874 -0.583,-1.456 -1.456,-1.456l-17.471,0c-0.874,0 -1.456,0.582 -1.456,1.456l0,10.191" style="fill:#b999db;fill-rule:nonzero;stroke:#7c41ba;stroke-width:2px;"/><path d="M220,334.225l156,0" style="fill:none;stroke:#7c41ba;stroke-width:2px;stroke-miterlimit:10;"/><path d="M211,334.225l5,0" style="fill:none;stroke:#7c41ba;stroke-width:2px;stroke-miterlimit:10;"/><path d="M380,334.225l5,0" style="fill:none;stroke:#7c41ba;stroke-width:2px;stroke-miterlimit:10;"/><path d="M274.074,325.85c0,2.223 1.803,4.025 4.025,4.025c2.223,0 4.026,-1.802 4.026,-4.025l0,-4.025l-8.051,0l0,4.025Z" style="fill:#fff;fill-rule:nonzero;stroke:#7c41ba;stroke-width:2px;stroke-miterlimit:10;"/><path d="M312.025,325.85c0,2.223 1.801,4.025 4.025,4.025c2.223,0 4.024,-1.802 4.024,-4.025l0,-4.025l-8.049,0l0,4.025Z" style="fill:#fff;fill-rule:nonzero;stroke:#7c41ba;stroke-width:2px;stroke-miterlimit:10;"/><path d="M352.574,322.975l-114.449,0c-1.106,0 -2,-0.896 -2,-2l0,-1.75c0,-1.104 0.894,-2 2,-2l114.449,0c1.105,0 2,0.896 2,2l0,1.75c0,1.104 -0.895,2 -2,2Z" style="fill:#b999db;fill-rule:nonzero;stroke:#7c41ba;stroke-width:2px;stroke-miterlimit:10;"/><path d="M347.676,359.201c0,2.224 -25.229,4.024 -56.351,4.024c-31.121,0 -56.35,-1.8 -56.35,-4.024c0,-2.224 25.229,-4.026 56.35,-4.026c31.122,0 56.351,1.802 56.351,4.026" style="fill:#e3d7ef;fill-rule:nonzero;"/><path d="M345.676,357.475l-100.65,0c-1.106,0 -2,-0.896 -2,-2l0,-32.5l104.65,0l0,32.5c0,1.104 -0.896,2 -2,2Z" style="fill:#fff;fill-rule:nonzero;stroke:#7c41ba;stroke-width:2px;stroke-miterlimit:10;"/></g></g><g id="Ebene-12" serif:id="Ebene 1"><g><path d="M378.12,91.497c0,-44.184 -35.816,-80 -80,-80c-44.184,0 -80,35.816 -80,80c0,11.77 2.563,22.936 7.127,33l145.744,0c4.566,-10.064 7.129,-21.23 7.129,-33" style="fill:#e3d7ef;fill-rule:nonzero;"/><path d="M220.12,124.497l156,0" style="fill:none;stroke:#7c41ba;stroke-width:2px;stroke-miterlimit:10;"/><path d="M211.12,124.497l5,0" style="fill:none;stroke:#7c41ba;stroke-width:2px;stroke-miterlimit:10;"/><path d="M380.12,124.497l5,0" style="fill:none;stroke:#7c41ba;stroke-width:2px;stroke-miterlimit:10;"/><path d="M268.669,124.461l0,-15.258c0,-17.314 14.045,-31.285 31.287,-31.285c17.274,0 31.287,14 31.287,31.285l0,15.258l-62.574,0Z" style="fill:#fff;fill-rule:nonzero;stroke:#7c41ba;stroke-width:2px;stroke-linecap:butt;stroke-miterlimit:10;"/><path d="M299.956,78.735l0,12.035l-7.967,3.969l-1.607,0.81c-1.215,0.612 -2.67,-0.14 -2.875,-1.484l-1.233,-8.035c-0.558,-3.647 1.022,-7.408 4.221,-9.244c0.371,-0.215 0.723,-0.371 1.037,-0.457c1.156,-0.289 2.36,1.949 3.586,1.804l4.838,0.602Z" style="fill:#fff;fill-rule:nonzero;stroke:#7c41ba;stroke-width:2px;stroke-miterlimit:10;"/><path d="M313.634,86.049l-1.229,8.016c-0.205,1.343 -1.662,2.095 -2.875,1.484l-1.607,-0.811l-7.967,-3.968l0,-12.035l4.838,-0.602c1.227,0.145 2.43,-2.094 3.586,-1.805c0.34,0.092 0.721,0.268 1.127,0.508c3.145,1.865 4.68,5.598 4.127,9.213Z" style="fill:#fff;fill-rule:nonzero;stroke:#7c41ba;stroke-width:2px;stroke-miterlimit:10;"/><path d="M319.21,124.461l0,-18.437" style="fill:none;stroke:#7c41ba;stroke-width:2px;stroke-miterlimit:10;"/><path d="M280.702,124.497l0,-18.473" style="fill:none;stroke:#7c41ba;stroke-width:2px;stroke-miterlimit:10;"/><path d="M307.175,83.215l-7.221,7.555l-7.218,-7.555l0,-10.83l14.439,0l0,10.83Z" style="fill:#fff;fill-rule:nonzero;stroke:#7c41ba;stroke-width:2px;stroke-miterlimit:10;"/><path d="M307.923,94.739l-5.561,5.656l-4.812,0l-5.561,-5.656l7.967,-3.969l7.967,3.969Z" style="fill:#b999db;fill-rule:nonzero;stroke:#7c41ba;stroke-width:2px;stroke-miterlimit:10;"/><path d="M305.974,113.418c0,-4.584 -1.246,-9.082 -3.605,-13.012l-0.006,-0.011l-4.803,0c-2.369,3.937 -3.621,8.445 -3.621,13.041l0,11.025l12.035,0l0,-11.043Z" style="fill:#b999db;fill-rule:nonzero;stroke:#7c41ba;stroke-width:2px;stroke-miterlimit:10;"/><path d="M294.271,109.692l8.502,-8.5" style="fill:none;stroke:#7c41ba;stroke-width:2px;stroke-miterlimit:10;"/><path d="M293.939,116.293l10.771,-10.768" style="fill:none;stroke:#7c41ba;stroke-width:2px;stroke-miterlimit:10;"/><path d="M293.939,122.565l11.781,-11.779" style="fill:none;stroke:#7c41ba;stroke-width:2px;stroke-miterlimit:10;"/><path d="M298.308,124.469l7.666,-7.666" style="fill:none;stroke:#7c41ba;stroke-width:2px;stroke-miterlimit:10;"/><path d="M278.425,51.389c-2.361,-3.266 -3.738,-7.26 -3.738,-11.6c0,-10.964 8.888,-19.855 19.855,-19.855c5.414,0 16.244,-1.307 19.854,3.504c15.832,3.519 10.32,30.597 8.705,28.982c-0.701,-0.699 -1.621,-1.199 -2.688,-1.199c-0.947,0 -1.761,0.373 -2.406,0.971c-3.611,-5.889 -6.018,-11.905 -5.393,-19.617c0,5.419 -11.863,10.109 -21.878,10.109c-2.606,0 -5.086,-0.316 -7.2,-1.024c0.778,4.643 -0.425,13.067 -0.425,13.067c0,-2.348 -2.227,-4.008 -4.686,-3.338Z" style="fill:#fff;fill-rule:nonzero;stroke:#7c41ba;stroke-width:2px;stroke-linecap:butt;stroke-miterlimit:10;"/><path d="M323.099,52.42c-0.699,-0.699 -1.617,-1.199 -2.686,-1.199c-0.947,0 -1.761,0.373 -2.406,0.97c-3.611,-5.89 -6.017,-11.904 -5.392,-19.617c0,5.42 -11.864,10.11 -21.879,10.11c-2.606,0 -5.086,-0.317 -7.2,-1.024c0.778,4.641 -0.425,13.067 -0.425,13.067c0,-2.348 -2.227,-4.008 -4.686,-3.338c-0.017,-0.026 -0.029,-0.053 -0.047,-0.076c-1.441,0.472 -2.488,1.814 -2.488,3.414l0,1.203c0,1.994 1.615,3.609 3.609,3.609c0.116,0 0.221,-0.021 0.332,-0.033c1.696,9.588 10.049,16.881 20.125,16.881c10.077,0 18.432,-7.293 20.125,-16.881c0.112,0.012 0.219,0.033 0.332,0.033c1.995,0 3.61,-1.615 3.61,-3.609l0,-1.203c0,-0.862 -0.313,-1.641 -0.817,-2.262c-0.035,-0.01 -0.074,-0.012 -0.107,-0.045Z" style="fill:#fff;fill-rule:nonzero;stroke:#7c41ba;stroke-width:2px;stroke-miterlimit:10;"/><path d="M314.396,59.54c0,1.33 -1.076,2.406 -2.406,2.406c-1.328,0 -2.406,-1.076 -2.406,-2.406c0,-1.328 1.078,-2.406 2.406,-2.406c1.33,0 2.406,1.078 2.406,2.406" style="fill:#b999db;fill-rule:nonzero;"/><path d="M290.329,59.54c0,1.33 -1.078,2.406 -2.406,2.406c-1.33,0 -2.406,-1.076 -2.406,-2.406c0,-1.328 1.076,-2.406 2.406,-2.406c1.328,0 2.406,1.078 2.406,2.406" style="fill:#b999db;fill-rule:nonzero;"/><path d="M310.786,53.124c-0.619,-1.178 -1.707,-2.006 -3.008,-2.006c-1.301,0 -2.39,0.828 -3.008,2.006" style="fill:none;stroke:#7c41ba;stroke-width:2px;stroke-miterlimit:10;"/><path d="M295.144,53.124c-0.619,-1.178 -1.709,-2.006 -3.01,-2.006c-1.301,0 -2.388,0.828 -3.008,2.006" style="fill:none;stroke:#7c41ba;stroke-width:2px;stroke-miterlimit:10;"/><path d="M293.939,64.293c3.645,3.211 8.391,3.211 12.035,0" style="fill:none;stroke:#7c41ba;stroke-width:2px;stroke-miterlimit:10;"/></g><g><path d="M284.432,204.345l13.151,13.152l13.579,-13.578" style="fill:none;stroke:#7c41ba;stroke-width:2px;stroke-miterlimit:10;"/><circle cx="296.678" cy="162.886" r="11.321" style="fill:none;stroke:#7c41ba;stroke-width:2px;stroke-miterlimit:10;"/><path d="M297,174.208l0,41.738" style="fill:none;stroke:#7c41ba;stroke-width:2px;stroke-miterlimit:10;"/></g><g><path d="M406.408,200.859l18.599,0l0.001,-19.202" style="fill:none;stroke:#7c41ba;stroke-width:2px;stroke-miterlimit:10;"/><path d="M377.746,154.878c-4.418,4.419 -4.418,11.593 0,16.011c4.418,4.419 11.593,4.419 16.011,0c4.419,-4.418 4.419,-11.592 0,-16.011c-4.418,-4.418 -11.593,-4.418 -16.011,0Z" style="fill:none;stroke:#7c41ba;stroke-width:2px;stroke-miterlimit:10;"/><path d="M393.984,170.662l29.514,29.514" style="fill:none;stroke:#7c41ba;stroke-width:2px;stroke-miterlimit:10;"/></g><g><path d="M186.032,200.859l-18.599,0l-0.001,-19.202" style="fill:none;stroke:#7c41ba;stroke-width:2px;stroke-miterlimit:10;"/><path d="M214.694,154.878c4.418,4.419 4.418,11.593 0,16.011c-4.419,4.419 -11.593,4.419 -16.011,0c-4.419,-4.418 -4.419,-11.592 0,-16.011c4.418,-4.418 11.592,-4.418 16.011,0Z" style="fill:none;stroke:#7c41ba;stroke-width:2px;stroke-miterlimit:10;"/><path d="M198.455,170.662l-29.513,29.514" style="fill:none;stroke:#7c41ba;stroke-width:2px;stroke-miterlimit:10;"/></g></g><g id="Ebene1"><g><path d="M580,301.225c0,-44.183 -35.818,-80 -80,-80c-44.184,0 -80,35.817 -80,80c0,11.771 2.563,22.936 7.129,33l145.742,0c4.566,-10.064 7.129,-21.229 7.129,-33" style="fill:#e3d7ef;fill-rule:nonzero;"/><path d="M477.034,257.242c0,-2.329 2.038,-4.367 4.368,-4.367l34.941,0c2.33,0 4.368,2.038 4.368,4.367l0,17.471c0,2.33 -2.038,4.368 -4.368,4.368l-34.941,0c-2.33,0 -4.368,-2.038 -4.368,-4.368l0,-17.471Z" style="fill:#fff;fill-rule:nonzero;stroke:#7c41ba;stroke-width:2px;"/><path d="M487.225,270.345c2.33,0 4.368,-2.038 4.368,-4.367c0,-2.33 -2.038,-4.368 -4.368,-4.368c-2.329,0 -4.367,2.038 -4.367,4.368c0,2.329 2.038,4.367 4.367,4.367Z" style="fill:#b999db;fill-rule:nonzero;stroke:#7c41ba;stroke-width:2px;"/><path d="M510.52,270.345c2.329,0 4.367,-2.038 4.367,-4.367c0,-2.33 -2.038,-4.368 -4.367,-4.368c-2.33,0 -4.368,2.038 -4.368,4.368c0,2.329 2.038,4.367 4.368,4.367Z" style="fill:#b999db;fill-rule:nonzero;stroke:#7c41ba;stroke-width:2px;"/><path d="M494.505,284.904l8.735,0" style="fill:none;stroke:#7c41ba;stroke-width:2px;"/><path d="M494.505,290.728l8.735,0" style="fill:none;stroke:#7c41ba;stroke-width:2px;"/><path d="M507.608,296.551l-17.177,0c-3.206,0 -6.409,1.456 -8.156,4.077c-2.035,2.621 -2.912,5.824 -2.035,9.027l1.456,6.405c0,0.583 0.87,1.165 1.456,1.165l32.609,0c0.582,0 1.164,-0.582 1.456,-1.165l1.456,-6.405c0.582,-3.203 0,-6.406 -2.036,-9.027c-2.623,-2.621 -5.823,-4.077 -9.029,-4.077Z" style="fill:#fff;fill-rule:nonzero;stroke:#7c41ba;stroke-width:2px;"/><path d="M518.092,306.16l6.115,-4.659c3.2,-2.621 4.656,-6.694 3.782,-10.774l-0.288,-0.582" style="fill:none;stroke:#7c41ba;stroke-width:2px;"/><path d="M530.902,279.081c2.329,3.203 1.75,7.862 -1.456,10.191c-3.203,2.329 -7.862,1.747 -10.191,-1.456" style="fill:none;stroke:#7c41ba;stroke-width:2px;"/><path d="M479.656,306.16l-6.118,-4.659c-3.2,-2.621 -4.656,-6.694 -3.782,-10.774l0,-0.582" style="fill:none;stroke:#7c41ba;stroke-width:2px;"/><path d="M466.843,279.081c-2.33,3.203 -1.747,7.862 1.456,10.191c3.205,2.329 7.861,1.747 10.191,-1.456" style="fill:none;stroke:#7c41ba;stroke-width:2px;"/><path d="M509.064,316.934l0,-10.191c0,-0.874 -0.583,-1.456 -1.456,-1.456l-17.471,0c-0.874,0 -1.456,0.582 -1.456,1.456l0,10.191" style="fill:#b999db;fill-rule:nonzero;stroke:#7c41ba;stroke-width:2px;"/><path d="M422,334.225l156,0" style="fill:none;stroke:#7c41ba;stroke-width:2px;stroke-miterlimit:10;"/><path d="M413,334.225l5,0" style="fill:none;stroke:#7c41ba;stroke-width:2px;stroke-miterlimit:10;"/><path d="M582,334.225l5,0" style="fill:none;stroke:#7c41ba;stroke-width:2px;stroke-miterlimit:10;"/><path d="M476.074,325.85c0,2.223 1.803,4.025 4.025,4.025c2.223,0 4.026,-1.802 4.026,-4.025l0,-4.025l-8.051,0l0,4.025Z" style="fill:#fff;fill-rule:nonzero;stroke:#7c41ba;stroke-width:2px;stroke-miterlimit:10;"/><path d="M514.025,325.85c0,2.223 1.801,4.025 4.025,4.025c2.223,0 4.024,-1.802 4.024,-4.025l0,-4.025l-8.049,0l0,4.025Z" style="fill:#fff;fill-rule:nonzero;stroke:#7c41ba;stroke-width:2px;stroke-miterlimit:10;"/><path d="M554.574,322.975l-114.449,0c-1.106,0 -2,-0.896 -2,-2l0,-1.75c0,-1.104 0.894,-2 2,-2l114.449,0c1.105,0 2,0.896 2,2l0,1.75c0,1.104 -0.895,2 -2,2Z" style="fill:#b999db;fill-rule:nonzero;stroke:#7c41ba;stroke-width:2px;stroke-miterlimit:10;"/><path d="M563.475,359.201c0,2.224 -28.318,4.024 -63.25,4.024c-34.932,0 -63.25,-1.8 -63.25,-4.024c0,-2.224 28.318,-4.026 63.25,-4.026c34.932,0 63.25,1.802 63.25,4.026" style="fill:#e3d7ef;fill-rule:nonzero;"/><path d="M547.676,357.475l-100.65,0c-1.106,0 -2,-0.896 -2,-2l0,-32.5l104.65,0l0,32.5c0,1.104 -0.896,2 -2,2Z" style="fill:#fff;fill-rule:nonzero;stroke:#7c41ba;stroke-width:2px;stroke-miterlimit:10;"/></g><g id="Ebene-13" serif:id="Ebene 1"><path d="M537.401,374.753c0,0.852 -0.691,1.543 -1.542,1.543l-44.587,0c-0.852,0 -1.543,-0.691 -1.543,-1.543l0,-59.421c0,-0.851 0.691,-1.541 1.543,-1.541l44.587,0c0.851,0 1.542,0.69 1.542,1.541l0,59.421Z" style="fill:#fff;fill-rule:nonzero;stroke:#7c41ba;stroke-width:2px;stroke-linecap:butt;stroke-linejoin:miter;stroke-miterlimit:10;"/><path d="M522.448,345.056c0.255,0 0.497,-0.112 0.661,-0.309c0.163,-0.195 0.232,-0.454 0.186,-0.706c-1.034,-5.736 -5.857,-10.155 -11.784,-10.573c-0.239,-0.018 -0.472,0.066 -0.647,0.229c-0.175,0.162 -0.275,0.39 -0.275,0.629l0,9.869c0,0.476 0.386,0.861 0.86,0.861l10.999,0Z" style="fill:#b999db;fill-rule:nonzero;"/><path d="M522.448,345.056c0.255,0 0.497,-0.112 0.661,-0.309c0.163,-0.195 0.232,-0.454 0.186,-0.706c-1.034,-5.736 -5.857,-10.155 -11.784,-10.573c-0.239,-0.018 -0.472,0.066 -0.647,0.229c-0.175,0.162 -0.275,0.39 -0.275,0.629l0,9.869c0,0.476 0.386,0.861 0.86,0.861" style="fill:none;stroke:#7c41ba;stroke-width:2px;stroke-miterlimit:10;"/><path d="M523.924,348.925c-0.018,-0.463 -0.397,-0.83 -0.861,-0.83l-10.117,0c-0.34,0 -0.647,0.201 -0.784,0.51c-0.139,0.31 -0.083,0.675 0.144,0.927l7.312,8.156c0.167,0.185 0.407,0.289 0.656,0.286c0.25,-0.004 0.485,-0.116 0.647,-0.308c1.878,-2.241 3.011,-5.127 3.011,-8.279c0,-0.155 -0.003,-0.308 -0.008,-0.462" style="fill:#b999db;fill-rule:nonzero;"/><path d="M523.924,348.925c-0.018,-0.463 -0.397,-0.83 -0.861,-0.83l-10.117,0c-0.34,0 -0.647,0.201 -0.784,0.51c-0.139,0.31 -0.083,0.675 0.144,0.927l7.312,8.156c0.167,0.185 0.407,0.289 0.656,0.286c0.25,-0.004 0.485,-0.116 0.647,-0.308c1.878,-2.241 3.011,-5.127 3.011,-8.279c0,-0.155 -0.003,-0.308 -0.008,-0.462Z" style="fill:none;stroke:#7c41ba;stroke-width:2px;stroke-miterlimit:10;"/><path d="M507.575,336.909c0,-0.239 -0.1,-0.469 -0.273,-0.63c-0.176,-0.163 -0.41,-0.246 -0.649,-0.229c-6.701,0.473 -11.99,6.058 -11.99,12.881c0,6.82 5.289,12.407 11.99,12.88c0.239,0.017 0.473,-0.067 0.647,-0.23c0.175,-0.162 0.275,-0.39 0.275,-0.629l0,-13.313l0,-10.73Z" style="fill:none;stroke:#7c41ba;stroke-width:2px;stroke-miterlimit:10;"/><path d="M511.66,352.758c-0.238,-0.266 -0.616,-0.358 -0.949,-0.229c-0.332,0.127 -0.553,0.446 -0.553,0.804l0,11.062c0,0.24 0.099,0.468 0.274,0.631c0.176,0.162 0.41,0.245 0.649,0.228c2.95,-0.209 5.624,-1.412 7.694,-3.271c0.354,-0.319 0.383,-0.862 0.066,-1.216l-7.181,-8.009Z" style="fill:#b999db;fill-rule:nonzero;stroke:#7c41ba;stroke-width:2px;stroke-miterlimit:10;"/><path d="M496.803,322.106l17.358,0" style="fill:none;stroke:#7c41ba;stroke-width:2px;stroke-linejoin:miter;stroke-miterlimit:10;"/><path d="M496.803,326.734l9.643,0" style="fill:none;stroke:#7c41ba;stroke-width:2px;stroke-linejoin:miter;stroke-miterlimit:10;"/></g><g id="Ebene-14" serif:id="Ebene 1"><path d="M554.401,374.753c0,0.852 -0.691,1.543 -1.542,1.543l-44.587,0c-0.852,0 -1.543,-0.691 -1.543,-1.543l0,-59.421c0,-0.851 0.691,-1.541 1.543,-1.541l44.587,0c0.851,0 1.542,0.69 1.542,1.541l0,59.421Z" style="fill:#fff;fill-rule:nonzero;stroke:#7c41ba;stroke-width:2px;stroke-linecap:butt;stroke-linejoin:miter;stroke-miterlimit:10;"/><path d="M540.448,345.056c0.255,0 0.497,-0.112 0.661,-0.309c0.163,-0.195 0.232,-0.454 0.186,-0.706c-1.034,-5.736 -5.857,-10.155 -11.784,-10.573c-0.239,-0.018 -0.472,0.066 -0.647,0.229c-0.175,0.162 -0.275,0.39 -0.275,0.629l0,9.869c0,0.476 0.386,0.861 0.86,0.861l10.999,0Z" style="fill:#b999db;fill-rule:nonzero;"/><path d="M540.448,345.056c0.255,0 0.497,-0.112 0.661,-0.309c0.163,-0.195 0.232,-0.454 0.186,-0.706c-1.034,-5.736 -5.857,-10.155 -11.784,-10.573c-0.239,-0.018 -0.472,0.066 -0.647,0.229c-0.175,0.162 -0.275,0.39 -0.275,0.629l0,9.869c0,0.476 0.386,0.861 0.86,0.861" style="fill:none;stroke:#7c41ba;stroke-width:2px;stroke-miterlimit:10;"/><path d="M541.924,348.925c-0.018,-0.463 -0.397,-0.83 -0.861,-0.83l-10.117,0c-0.34,0 -0.647,0.201 -0.784,0.51c-0.139,0.31 -0.083,0.675 0.144,0.927l7.312,8.156c0.167,0.185 0.407,0.289 0.656,0.286c0.25,-0.004 0.485,-0.116 0.647,-0.308c1.878,-2.241 3.011,-5.127 3.011,-8.279c0,-0.155 -0.003,-0.308 -0.008,-0.462" style="fill:#b999db;fill-rule:nonzero;"/><path d="M541.924,348.925c-0.018,-0.463 -0.397,-0.83 -0.861,-0.83l-10.117,0c-0.34,0 -0.647,0.201 -0.784,0.51c-0.139,0.31 -0.083,0.675 0.144,0.927l7.312,8.156c0.167,0.185 0.407,0.289 0.656,0.286c0.25,-0.004 0.485,-0.116 0.647,-0.308c1.878,-2.241 3.011,-5.127 3.011,-8.279c0,-0.155 -0.003,-0.308 -0.008,-0.462Z" style="fill:none;stroke:#7c41ba;stroke-width:2px;stroke-miterlimit:10;"/><path d="M525.575,336.909c0,-0.239 -0.1,-0.469 -0.273,-0.63c-0.176,-0.163 -0.41,-0.246 -0.649,-0.229c-6.701,0.473 -11.99,6.058 -11.99,12.881c0,6.82 5.289,12.407 11.99,12.88c0.239,0.017 0.473,-0.067 0.647,-0.23c0.175,-0.162 0.275,-0.39 0.275,-0.629l0,-13.313l0,-10.73Z" style="fill:none;stroke:#7c41ba;stroke-width:2px;stroke-miterlimit:10;"/><path d="M529.66,352.758c-0.238,-0.266 -0.616,-0.358 -0.949,-0.229c-0.332,0.127 -0.553,0.446 -0.553,0.804l0,11.062c0,0.24 0.099,0.468 0.274,0.631c0.176,0.162 0.41,0.245 0.649,0.228c2.95,-0.209 5.624,-1.412 7.694,-3.271c0.354,-0.319 0.383,-0.862 0.066,-1.216l-7.181,-8.009Z" style="fill:#b999db;fill-rule:nonzero;stroke:#7c41ba;stroke-width:2px;stroke-miterlimit:10;"/><path d="M514.803,322.106l17.358,0" style="fill:none;stroke:#7c41ba;stroke-width:2px;stroke-linejoin:miter;stroke-miterlimit:10;"/><path d="M514.803,326.734l9.643,0" style="fill:none;stroke:#7c41ba;stroke-width:2px;stroke-linejoin:miter;stroke-miterlimit:10;"/></g><g id="Ebene-15" serif:id="Ebene 1"><path d="M569.401,374.753c0,0.852 -0.691,1.543 -1.542,1.543l-44.587,0c-0.852,0 -1.543,-0.691 -1.543,-1.543l0,-59.421c0,-0.851 0.691,-1.541 1.543,-1.541l44.587,0c0.851,0 1.542,0.69 1.542,1.541l0,59.421Z" style="fill:#fff;fill-rule:nonzero;stroke:#7c41ba;stroke-width:2px;stroke-linecap:butt;stroke-linejoin:miter;stroke-miterlimit:10;"/><path d="M555.448,345.056c0.255,0 0.497,-0.112 0.661,-0.309c0.163,-0.195 0.232,-0.454 0.186,-0.706c-1.034,-5.736 -5.857,-10.155 -11.784,-10.573c-0.239,-0.018 -0.472,0.066 -0.647,0.229c-0.175,0.162 -0.275,0.39 -0.275,0.629l0,9.869c0,0.476 0.386,0.861 0.86,0.861l10.999,0Z" style="fill:#b999db;fill-rule:nonzero;"/><path d="M555.448,345.056c0.255,0 0.497,-0.112 0.661,-0.309c0.163,-0.195 0.232,-0.454 0.186,-0.706c-1.034,-5.736 -5.857,-10.155 -11.784,-10.573c-0.239,-0.018 -0.472,0.066 -0.647,0.229c-0.175,0.162 -0.275,0.39 -0.275,0.629l0,9.869c0,0.476 0.386,0.861 0.86,0.861" style="fill:none;stroke:#7c41ba;stroke-width:2px;stroke-miterlimit:10;"/><path d="M556.924,348.925c-0.018,-0.463 -0.397,-0.83 -0.861,-0.83l-10.117,0c-0.34,0 -0.647,0.201 -0.784,0.51c-0.139,0.31 -0.083,0.675 0.144,0.927l7.312,8.156c0.167,0.185 0.407,0.289 0.656,0.286c0.25,-0.004 0.485,-0.116 0.647,-0.308c1.878,-2.241 3.011,-5.127 3.011,-8.279c0,-0.155 -0.003,-0.308 -0.008,-0.462" style="fill:#b999db;fill-rule:nonzero;"/><path d="M556.924,348.925c-0.018,-0.463 -0.397,-0.83 -0.861,-0.83l-10.117,0c-0.34,0 -0.647,0.201 -0.784,0.51c-0.139,0.31 -0.083,0.675 0.144,0.927l7.312,8.156c0.167,0.185 0.407,0.289 0.656,0.286c0.25,-0.004 0.485,-0.116 0.647,-0.308c1.878,-2.241 3.011,-5.127 3.011,-8.279c0,-0.155 -0.003,-0.308 -0.008,-0.462Z" style="fill:none;stroke:#7c41ba;stroke-width:2px;stroke-miterlimit:10;"/><path d="M540.575,336.909c0,-0.239 -0.1,-0.469 -0.273,-0.63c-0.176,-0.163 -0.41,-0.246 -0.649,-0.229c-6.701,0.473 -11.99,6.058 -11.99,12.881c0,6.82 5.289,12.407 11.99,12.88c0.239,0.017 0.473,-0.067 0.647,-0.23c0.175,-0.162 0.275,-0.39 0.275,-0.629l0,-13.313l0,-10.73Z" style="fill:none;stroke:#7c41ba;stroke-width:2px;stroke-miterlimit:10;"/><path d="M544.66,352.758c-0.238,-0.266 -0.616,-0.358 -0.949,-0.229c-0.332,0.127 -0.553,0.446 -0.553,0.804l0,11.062c0,0.24 0.099,0.468 0.274,0.631c0.176,0.162 0.41,0.245 0.649,0.228c2.95,-0.209 5.624,-1.412 7.694,-3.271c0.354,-0.319 0.383,-0.862 0.066,-1.216l-7.181,-8.009Z" style="fill:#b999db;fill-rule:nonzero;stroke:#7c41ba;stroke-width:2px;stroke-miterlimit:10;"/><path d="M529.803,322.106l17.358,0" style="fill:none;stroke:#7c41ba;stroke-width:2px;stroke-linejoin:miter;stroke-miterlimit:10;"/><path d="M529.803,326.734l9.643,0" style="fill:none;stroke:#7c41ba;stroke-width:2px;stroke-linejoin:miter;stroke-miterlimit:10;"/></g></g><g id="Ebene-16" serif:id="Ebene 1"><path d="M305.698,375.435c4.006,0 7.255,-3.285 7.255,-7.339l0,-47.706c0,-4.054 3.249,-7.34 7.256,-7.34l36.276,0c-4.007,0 -7.254,3.286 -7.254,7.34l0,47.706c0,4.054 -3.249,7.339 -7.256,7.339l-36.277,0Z" style="fill:#fff;fill-rule:nonzero;"/><path d="M349.23,320.39c0,-4.292 3.641,-7.723 7.969,-7.306c3.771,0.366 6.541,3.788 6.541,7.622l0,3.659c0,0.845 -0.676,1.529 -1.511,1.529l-12.999,0l0,-5.504Z" style="fill:#fff;fill-rule:nonzero;stroke:#7c41ba;stroke-width:2px;stroke-linecap:butt;stroke-miterlimit:10;"/><path d="M374.926,380.94c0,1.266 -7.106,2.294 -15.872,2.294c-8.764,0 -15.87,-1.028 -15.87,-2.294c0,-1.266 7.106,-2.293 15.87,-2.293c8.766,0 15.872,1.027 15.872,2.293" style="fill:#e3d7ef;fill-rule:nonzero;"/><path d="M369.072,380.023l-19.126,0c-0.73,0 -1.32,-0.598 -1.32,-1.335l0,-1.883c0,-1.769 1.418,-3.204 3.167,-3.204l15.431,0c1.749,0 3.168,1.435 3.168,3.204l0,1.883c0,0.737 -0.591,1.335 -1.32,1.335" style="fill:#fff;fill-rule:nonzero;"/><path d="M305.698,375.435c4.006,0 7.255,-3.285 7.255,-7.339l0,-47.706c0,-4.054 3.249,-7.34 7.256,-7.34l36.276,0c-4.007,0 -7.254,3.286 -7.254,7.34l0,47.706c0,4.054 -3.249,7.339 -7.256,7.339l-36.277,0Z" style="fill:none;stroke:#7c41ba;stroke-width:2px;stroke-linecap:butt;stroke-miterlimit:10;"/><path d="M328.371,327.73l15.417,0" style="fill:none;stroke:#7c41ba;stroke-width:2px;stroke-miterlimit:10;"/><path d="M328.371,335.068l15.417,0" style="fill:none;stroke:#7c41ba;stroke-width:2px;stroke-miterlimit:10;"/><path d="M311.542,327.78l-2.014,16.31l7.053,-4.078l7.053,4.078l-2.015,-16.31l-10.077,0Z" style="fill:#b999db;fill-rule:nonzero;"/><path d="M328.371,342.408l9.069,0" style="fill:none;stroke:#7c41ba;stroke-width:2px;stroke-miterlimit:10;"/><path d="M318.395,349.747l16.324,0" style="fill:none;stroke:#7c41ba;stroke-width:2px;stroke-miterlimit:10;"/><path d="M318.395,357.087l12.696,0" style="fill:none;stroke:#7c41ba;stroke-width:2px;stroke-miterlimit:10;"/><path d="M318.395,364.426l12.696,0" style="fill:none;stroke:#7c41ba;stroke-width:2px;stroke-miterlimit:10;"/><path d="M311.542,327.78l-2.014,16.31l7.053,-4.078l7.053,4.078l-2.015,-16.31l-10.077,0Z" style="fill:none;stroke:#7c41ba;stroke-width:2px;stroke-linecap:butt;stroke-miterlimit:10;"/><path d="M327.666,321.664c0,1.382 -2.211,2.309 -2.704,3.511c-0.51,1.246 0.385,3.478 -0.544,4.418c-0.928,0.939 -3.134,0.033 -4.366,0.549c-1.187,0.499 -2.105,2.735 -3.471,2.735c-1.366,0 -2.284,-2.236 -3.472,-2.735c-1.232,-0.516 -3.438,0.39 -4.366,-0.55c-0.928,-0.939 -0.032,-3.171 -0.544,-4.417c-0.492,-1.202 -2.703,-2.129 -2.703,-3.511c0,-1.383 2.211,-2.309 2.703,-3.511c0.512,-1.246 -0.384,-3.478 0.544,-4.418c0.928,-0.939 3.135,-0.033 4.366,-0.549c1.188,-0.499 2.106,-2.735 3.472,-2.735c1.366,0 2.284,2.236 3.471,2.735c1.232,0.516 3.44,-0.39 4.367,0.55c0.928,0.939 0.033,3.171 0.543,4.417c0.493,1.202 2.704,2.128 2.704,3.511" style="fill:#b999db;fill-rule:nonzero;"/><path d="M327.666,321.664c0,1.382 -2.211,2.309 -2.704,3.511c-0.51,1.246 0.385,3.478 -0.544,4.418c-0.928,0.939 -3.134,0.033 -4.366,0.549c-1.187,0.499 -2.105,2.735 -3.471,2.735c-1.366,0 -2.284,-2.236 -3.472,-2.735c-1.232,-0.516 -3.438,0.39 -4.366,-0.55c-0.928,-0.939 -0.032,-3.171 -0.544,-4.417c-0.492,-1.202 -2.703,-2.129 -2.703,-3.511c0,-1.383 2.211,-2.309 2.703,-3.511c0.512,-1.246 -0.384,-3.478 0.544,-4.418c0.928,-0.939 3.135,-0.033 4.366,-0.549c1.188,-0.499 2.106,-2.735 3.472,-2.735c1.366,0 2.284,2.236 3.471,2.735c1.232,0.516 3.44,-0.39 4.367,0.55c0.928,0.939 0.033,3.171 0.543,4.417c0.493,1.202 2.704,2.128 2.704,3.511Z" style="fill:none;stroke:#7c41ba;stroke-width:2px;stroke-linecap:butt;stroke-miterlimit:10;"/><path d="M321.619,321.664c0,2.815 -2.255,5.096 -5.038,5.096c-2.782,0 -5.038,-2.281 -5.038,-5.096c0,-2.815 2.256,-5.096 5.038,-5.096c2.783,0 5.038,2.281 5.038,5.096" style="fill:#fff;fill-rule:nonzero;"/><path d="M321.619,321.664c0,-2.813 -2.258,-5.096 -5.038,-5.096c-2.781,0 -5.038,2.283 -5.038,5.096c0,2.813 2.257,5.096 5.038,5.096c2.78,0 5.038,-2.283 5.038,-5.096Z" style="fill:none;stroke:#7c41ba;stroke-width:2px;stroke-linecap:butt;stroke-miterlimit:10;"/><path d="M375.833,347.913c-1.003,0 -1.813,-0.821 -1.813,-1.835c0,-1.99 -2.493,-3.67 -5.443,-3.67c-2.949,0 -6.348,1.68 -6.348,3.67c0,1.014 -0.811,1.835 -1.813,1.835c-1.003,0 -1.815,-0.821 -1.815,-1.835c0,-4.049 4.976,-7.34 9.976,-7.34c5.001,0 9.069,3.291 9.069,7.34c0,1.014 -0.81,1.835 -1.813,1.835" style="fill:#fff;fill-rule:nonzero;"/><path d="M375.833,347.913c-1.003,0 -1.813,-0.821 -1.813,-1.835c0,-1.99 -2.493,-3.67 -5.443,-3.67c-2.949,0 -6.348,1.68 -6.348,3.67c0,1.014 -0.811,1.835 -1.813,1.835c-1.003,0 -1.815,-0.821 -1.815,-1.835c0,-4.049 4.976,-7.34 9.976,-7.34c5.001,0 9.069,3.291 9.069,7.34c0,1.014 -0.81,1.835 -1.813,1.835Z" style="fill:none;stroke:#7c41ba;stroke-width:2px;stroke-miterlimit:10;"/><path d="M358.601,347.913c-1.002,0 -1.813,-0.821 -1.813,-1.835c0,-1.99 -3.4,-3.67 -6.349,-3.67c-2.95,0 -5.441,1.68 -5.441,3.67c0,1.014 -0.812,1.835 -1.814,1.835c-1.003,0 -1.813,-0.821 -1.813,-1.835c0,-4.049 4.068,-7.34 9.068,-7.34c5.001,0 9.977,3.291 9.977,7.34c0,1.014 -0.812,1.835 -1.815,1.835" style="fill:#fff;fill-rule:nonzero;"/><path d="M358.601,347.913c-1.002,0 -1.813,-0.821 -1.813,-1.835c0,-1.99 -3.4,-3.67 -6.349,-3.67c-2.95,0 -5.441,1.68 -5.441,3.67c0,1.014 -0.812,1.835 -1.814,1.835c-1.003,0 -1.813,-0.821 -1.813,-1.835c0,-4.049 4.068,-7.34 9.068,-7.34c5.001,0 9.977,3.291 9.977,7.34c0,1.014 -0.812,1.835 -1.815,1.835Z" style="fill:none;stroke:#7c41ba;stroke-width:2px;stroke-miterlimit:10;"/><rect x="356.788" y="345.16" width="5.441" height="24.77" style="fill:#fff;stroke:#7c41ba;stroke-width:2px;stroke-miterlimit:10;"/><rect x="356.788" y="345.16" width="5.441" height="24.77" style="fill:none;stroke:#7c41ba;stroke-width:2px;stroke-miterlimit:10;"/><path d="M359.508,338.738l-4.533,4.587c0,1.014 0.811,1.835 1.813,1.835l5.441,0c1.003,0 1.814,-0.821 1.814,-1.835l-4.535,-4.587Z" style="fill:#fff;fill-rule:nonzero;stroke:#7c41ba;stroke-width:2px;stroke-miterlimit:10;"/><path d="M369.072,380.023l-19.126,0c-0.73,0 -1.32,-0.598 -1.32,-1.335l0,-1.883c0,-1.769 1.418,-3.204 3.167,-3.204l15.431,0c1.749,0 3.168,1.435 3.168,3.204l0,1.883c0,0.737 -0.591,1.335 -1.32,1.335Z" style="fill:none;stroke:#7c41ba;stroke-width:2px;stroke-miterlimit:10;"/><path d="M364.949,373.601l-10.882,0c-1.503,0 -2.72,-1.233 -2.72,-2.752c0,-1.52 1.217,-2.753 2.72,-2.753l10.882,0c1.503,0 2.722,1.233 2.722,2.753c0,1.519 -1.219,2.752 -2.722,2.752Z" style="fill:#fff;fill-rule:nonzero;stroke:#7c41ba;stroke-width:2px;stroke-miterlimit:10;"/><path d="M375.833,347.913l7.256,11.927l-14.512,0l7.256,-11.927Z" style="fill:none;stroke:#7c41ba;stroke-width:2px;stroke-miterlimit:10;"/><path d="M350.439,359.84c0,4.052 -3.249,7.338 -7.255,7.338c-4.007,0 -7.256,-3.286 -7.256,-7.338l14.511,0Z" style="fill:#fff;fill-rule:nonzero;"/><path d="M343.184,347.913l-7.256,11.927l14.511,0l-7.255,-11.927Z" style="fill:none;stroke:#7c41ba;stroke-width:2px;stroke-miterlimit:10;"/><path d="M350.439,359.84c0,4.052 -3.249,7.338 -7.255,7.338c-4.007,0 -7.256,-3.286 -7.256,-7.338l14.511,0Z" style="fill:none;stroke:#7c41ba;stroke-width:2px;stroke-miterlimit:10;"/><path d="M383.089,359.84c0,4.052 -3.249,7.338 -7.256,7.338c-4.007,0 -7.256,-3.286 -7.256,-7.338l14.512,0Z" style="fill:#fff;fill-rule:nonzero;stroke:#7c41ba;stroke-width:2px;stroke-miterlimit:10;"/></g><g id="Ebene-17" serif:id="Ebene 1"><path d="M98.344,368.269c0.598,-2.702 -0.802,-5.169 -2.976,-6.137c-0.219,-0.097 -0.146,-0.432 0.094,-0.432l28.796,0l0,-47.45c0,-0.63 -0.326,-1.214 -0.856,-1.532c-0.531,-0.316 -1.183,-0.319 -1.715,-0.005l-2.521,1.485c-0.565,0.333 -1.264,0.308 -1.805,-0.063l-3.444,-2.367c-0.513,-0.353 -1.17,-0.394 -1.721,-0.111l-5.213,2.689c-0.483,0.248 -1.052,0.248 -1.537,0l-5.211,-2.689c-0.553,-0.283 -1.21,-0.242 -1.723,0.111l-3.442,2.367c-0.541,0.371 -1.24,0.396 -1.805,0.064l-2.521,-1.486c-0.532,-0.314 -1.186,-0.311 -1.716,0.005c-0.529,0.318 -0.856,0.902 -0.856,1.532l0,52.768c0,3.343 2.996,5.966 6.371,5.171c1.864,-0.439 3.376,-1.999 3.801,-3.92" style="fill:#fff;fill-rule:nonzero;"/><path d="M126.55,381.296c0,1.059 -8.335,1.918 -18.615,1.918c-10.283,0 -18.617,-0.859 -18.617,-1.918c0,-1.061 8.334,-1.921 18.617,-1.921c10.28,0 18.615,0.86 18.615,1.921" style="fill:#b999db;fill-rule:nonzero;"/><path d="M93.328,321.829l25.775,0" style="fill:none;stroke:#7c41ba;stroke-width:2px;stroke-miterlimit:10;"/><path d="M93.328,327.146l25.775,0" style="fill:none;stroke:#7c41ba;stroke-width:2px;stroke-miterlimit:10;"/><path d="M93.328,332.462l11.168,0" style="fill:none;stroke:#7c41ba;stroke-width:2px;stroke-miterlimit:10;"/><path d="M93.328,337.779l7.731,0" style="fill:none;stroke:#7c41ba;stroke-width:2px;stroke-miterlimit:10;"/><path d="M93.328,343.094l6.873,0" style="fill:none;stroke:#7c41ba;stroke-width:2px;stroke-miterlimit:10;"/><path d="M93.328,348.41l6.873,0" style="fill:none;stroke:#7c41ba;stroke-width:2px;stroke-miterlimit:10;"/><path d="M98.344,368.269c0.598,-2.702 -0.802,-5.169 -2.976,-6.137c-0.219,-0.097 -0.146,-0.432 0.094,-0.432l28.796,0l0,-47.45c0,-0.63 -0.326,-1.214 -0.856,-1.532c-0.531,-0.316 -1.183,-0.319 -1.715,-0.005l-2.521,1.485c-0.565,0.333 -1.264,0.308 -1.805,-0.063l-3.444,-2.367c-0.513,-0.353 -1.17,-0.394 -1.721,-0.111l-5.213,2.689c-0.483,0.248 -1.052,0.248 -1.537,0l-5.211,-2.689c-0.553,-0.283 -1.21,-0.242 -1.723,0.111l-3.442,2.367c-0.541,0.371 -1.24,0.396 -1.805,0.064l-2.521,-1.486c-0.532,-0.314 -1.186,-0.311 -1.716,0.005c-0.529,0.318 -0.856,0.902 -0.856,1.532l0,52.768c0,3.343 2.996,5.966 6.371,5.171c1.864,-0.439 3.376,-1.999 3.801,-3.92Z" style="fill:none;stroke:#7c41ba;stroke-width:2px;stroke-miterlimit:10;"/><path d="M93.328,372.332c2.847,0 5.154,-2.38 5.154,-5.314c0,-2.187 -1.28,-4.067 -3.11,-4.883c-0.216,-0.098 -0.137,-0.436 0.099,-0.436l28.651,0c2.46,0 4.695,1.722 5.182,4.208c0.671,3.421 -1.848,6.425 -5.046,6.425l-30.93,0Z" style="fill:#fff;fill-rule:nonzero;stroke:#7c41ba;stroke-width:2px;stroke-miterlimit:10;"/><path d="M120.822,343.094c0,4.893 -3.848,8.861 -8.592,8.861c-4.746,0 -8.592,-3.968 -8.592,-8.861c0,-4.893 3.846,-8.86 8.592,-8.86c4.744,0 8.592,3.967 8.592,8.86" style="fill:#b999db;fill-rule:nonzero;"/><path d="M112.23,337.926c4.131,0 7.581,3.007 8.404,7.014c0.123,-0.597 0.188,-1.212 0.188,-1.845c0,-4.893 -3.848,-8.861 -8.592,-8.861c-4.746,0 -8.592,3.968 -8.592,8.861c0,0.633 0.066,1.248 0.187,1.845c0.824,-4.007 4.273,-7.014 8.405,-7.014" style="fill:#fff;fill-rule:nonzero;"/><path d="M120.822,343.094c0,-4.89 -3.85,-8.86 -8.592,-8.86c-4.742,0 -8.592,3.97 -8.592,8.86c0,4.891 3.85,8.861 8.592,8.861c4.742,0 8.592,-3.97 8.592,-8.861Z" style="fill:none;stroke:#7c41ba;stroke-width:2px;stroke-miterlimit:10;"/><path d="M112.23,337.188l0,1.476" style="fill:none;stroke:#7c41ba;stroke-width:2px;stroke-miterlimit:10;"/><path d="M112.23,347.524l0,1.477" style="fill:none;stroke:#7c41ba;stroke-width:2px;stroke-miterlimit:10;"/><path d="M110.082,345.309c0,1.224 0.962,2.214 2.148,2.214c1.186,0 2.148,-0.99 2.148,-2.214c0,-1.224 -0.962,-2.214 -2.148,-2.214c-1.186,0 -2.148,-0.994 -2.148,-2.215c0,-1.224 0.962,-2.216 2.148,-2.216c1.186,0 2.148,0.992 2.148,2.216" style="fill:none;stroke:#7c41ba;stroke-width:2px;stroke-miterlimit:10;"/></g><g id="Ebene-18" serif:id="Ebene 1"><path d="M112.344,368.269c0.598,-2.702 -0.802,-5.169 -2.976,-6.137c-0.219,-0.097 -0.146,-0.432 0.094,-0.432l28.796,0l0,-47.45c0,-0.63 -0.326,-1.214 -0.856,-1.532c-0.531,-0.316 -1.183,-0.319 -1.715,-0.005l-2.521,1.485c-0.565,0.333 -1.264,0.308 -1.805,-0.063l-3.444,-2.367c-0.513,-0.353 -1.17,-0.394 -1.721,-0.111l-5.213,2.689c-0.483,0.248 -1.052,0.248 -1.537,0l-5.211,-2.689c-0.553,-0.283 -1.21,-0.242 -1.723,0.111l-3.442,2.367c-0.541,0.371 -1.24,0.396 -1.805,0.064l-2.521,-1.486c-0.532,-0.314 -1.186,-0.311 -1.716,0.005c-0.529,0.318 -0.856,0.902 -0.856,1.532l0,52.768c0,3.343 2.996,5.966 6.371,5.171c1.864,-0.439 3.376,-1.999 3.801,-3.92" style="fill:#fff;fill-rule:nonzero;"/><path d="M140.55,381.296c0,1.059 -8.335,1.918 -18.615,1.918c-10.283,0 -18.617,-0.859 -18.617,-1.918c0,-1.061 8.334,-1.921 18.617,-1.921c10.28,0 18.615,0.86 18.615,1.921" style="fill:#b999db;fill-rule:nonzero;"/><path d="M107.328,321.829l25.775,0" style="fill:none;stroke:#7c41ba;stroke-width:2px;stroke-miterlimit:10;"/><path d="M107.328,327.146l25.775,0" style="fill:none;stroke:#7c41ba;stroke-width:2px;stroke-miterlimit:10;"/><path d="M107.328,332.462l11.168,0" style="fill:none;stroke:#7c41ba;stroke-width:2px;stroke-miterlimit:10;"/><path d="M107.328,337.779l7.731,0" style="fill:none;stroke:#7c41ba;stroke-width:2px;stroke-miterlimit:10;"/><path d="M107.328,343.094l6.873,0" style="fill:none;stroke:#7c41ba;stroke-width:2px;stroke-miterlimit:10;"/><path d="M107.328,348.41l6.873,0" style="fill:none;stroke:#7c41ba;stroke-width:2px;stroke-miterlimit:10;"/><path d="M112.344,368.269c0.598,-2.702 -0.802,-5.169 -2.976,-6.137c-0.219,-0.097 -0.146,-0.432 0.094,-0.432l28.796,0l0,-47.45c0,-0.63 -0.326,-1.214 -0.856,-1.532c-0.531,-0.316 -1.183,-0.319 -1.715,-0.005l-2.521,1.485c-0.565,0.333 -1.264,0.308 -1.805,-0.063l-3.444,-2.367c-0.513,-0.353 -1.17,-0.394 -1.721,-0.111l-5.213,2.689c-0.483,0.248 -1.052,0.248 -1.537,0l-5.211,-2.689c-0.553,-0.283 -1.21,-0.242 -1.723,0.111l-3.442,2.367c-0.541,0.371 -1.24,0.396 -1.805,0.064l-2.521,-1.486c-0.532,-0.314 -1.186,-0.311 -1.716,0.005c-0.529,0.318 -0.856,0.902 -0.856,1.532l0,52.768c0,3.343 2.996,5.966 6.371,5.171c1.864,-0.439 3.376,-1.999 3.801,-3.92Z" style="fill:none;stroke:#7c41ba;stroke-width:2px;stroke-miterlimit:10;"/><path d="M107.328,372.332c2.847,0 5.154,-2.38 5.154,-5.314c0,-2.187 -1.28,-4.067 -3.11,-4.883c-0.216,-0.098 -0.137,-0.436 0.099,-0.436l28.651,0c2.46,0 4.695,1.722 5.182,4.208c0.671,3.421 -1.848,6.425 -5.046,6.425l-30.93,0Z" style="fill:#fff;fill-rule:nonzero;stroke:#7c41ba;stroke-width:2px;stroke-miterlimit:10;"/><path d="M134.822,343.094c0,4.893 -3.848,8.861 -8.592,8.861c-4.746,0 -8.592,-3.968 -8.592,-8.861c0,-4.893 3.846,-8.86 8.592,-8.86c4.744,0 8.592,3.967 8.592,8.86" style="fill:#b999db;fill-rule:nonzero;"/><path d="M126.23,337.926c4.131,0 7.581,3.007 8.404,7.014c0.123,-0.597 0.188,-1.212 0.188,-1.845c0,-4.893 -3.848,-8.861 -8.592,-8.861c-4.746,0 -8.592,3.968 -8.592,8.861c0,0.633 0.066,1.248 0.187,1.845c0.824,-4.007 4.273,-7.014 8.405,-7.014" style="fill:#fff;fill-rule:nonzero;"/><path d="M134.822,343.094c0,-4.89 -3.85,-8.86 -8.592,-8.86c-4.742,0 -8.592,3.97 -8.592,8.86c0,4.891 3.85,8.861 8.592,8.861c4.742,0 8.592,-3.97 8.592,-8.861Z" style="fill:none;stroke:#7c41ba;stroke-width:2px;stroke-miterlimit:10;"/><path d="M126.23,337.188l0,1.476" style="fill:none;stroke:#7c41ba;stroke-width:2px;stroke-miterlimit:10;"/><path d="M126.23,347.524l0,1.477" style="fill:none;stroke:#7c41ba;stroke-width:2px;stroke-miterlimit:10;"/><path d="M124.082,345.309c0,1.224 0.962,2.214 2.148,2.214c1.186,0 2.148,-0.99 2.148,-2.214c0,-1.224 -0.962,-2.214 -2.148,-2.214c-1.186,0 -2.148,-0.994 -2.148,-2.215c0,-1.224 0.962,-2.216 2.148,-2.216c1.186,0 2.148,0.992 2.148,2.216" style="fill:none;stroke:#7c41ba;stroke-width:2px;stroke-miterlimit:10;"/></g><g id="Ebene-19" serif:id="Ebene 1"><path d="M127.344,368.269c0.598,-2.702 -0.802,-5.169 -2.976,-6.137c-0.219,-0.097 -0.146,-0.432 0.094,-0.432l28.796,0l0,-47.45c0,-0.63 -0.326,-1.214 -0.856,-1.532c-0.531,-0.316 -1.183,-0.319 -1.715,-0.005l-2.521,1.485c-0.565,0.333 -1.264,0.308 -1.805,-0.063l-3.444,-2.367c-0.513,-0.353 -1.17,-0.394 -1.721,-0.111l-5.213,2.689c-0.483,0.248 -1.052,0.248 -1.537,0l-5.211,-2.689c-0.553,-0.283 -1.21,-0.242 -1.723,0.111l-3.442,2.367c-0.541,0.371 -1.24,0.396 -1.805,0.064l-2.521,-1.486c-0.532,-0.314 -1.186,-0.311 -1.716,0.005c-0.529,0.318 -0.856,0.902 -0.856,1.532l0,52.768c0,3.343 2.996,5.966 6.371,5.171c1.864,-0.439 3.376,-1.999 3.801,-3.92" style="fill:#fff;fill-rule:nonzero;"/><path d="M155.55,381.296c0,1.059 -8.335,1.918 -18.615,1.918c-10.283,0 -18.617,-0.859 -18.617,-1.918c0,-1.061 8.334,-1.921 18.617,-1.921c10.28,0 18.615,0.86 18.615,1.921" style="fill:#b999db;fill-rule:nonzero;"/><path d="M122.328,321.829l25.775,0" style="fill:none;stroke:#7c41ba;stroke-width:2px;stroke-miterlimit:10;"/><path d="M122.328,327.146l25.775,0" style="fill:none;stroke:#7c41ba;stroke-width:2px;stroke-miterlimit:10;"/><path d="M122.328,332.462l11.168,0" style="fill:none;stroke:#7c41ba;stroke-width:2px;stroke-miterlimit:10;"/><path d="M122.328,337.779l7.731,0" style="fill:none;stroke:#7c41ba;stroke-width:2px;stroke-miterlimit:10;"/><path d="M122.328,343.094l6.873,0" style="fill:none;stroke:#7c41ba;stroke-width:2px;stroke-miterlimit:10;"/><path d="M122.328,348.41l6.873,0" style="fill:none;stroke:#7c41ba;stroke-width:2px;stroke-miterlimit:10;"/><path d="M127.344,368.269c0.598,-2.702 -0.802,-5.169 -2.976,-6.137c-0.219,-0.097 -0.146,-0.432 0.094,-0.432l28.796,0l0,-47.45c0,-0.63 -0.326,-1.214 -0.856,-1.532c-0.531,-0.316 -1.183,-0.319 -1.715,-0.005l-2.521,1.485c-0.565,0.333 -1.264,0.308 -1.805,-0.063l-3.444,-2.367c-0.513,-0.353 -1.17,-0.394 -1.721,-0.111l-5.213,2.689c-0.483,0.248 -1.052,0.248 -1.537,0l-5.211,-2.689c-0.553,-0.283 -1.21,-0.242 -1.723,0.111l-3.442,2.367c-0.541,0.371 -1.24,0.396 -1.805,0.064l-2.521,-1.486c-0.532,-0.314 -1.186,-0.311 -1.716,0.005c-0.529,0.318 -0.856,0.902 -0.856,1.532l0,52.768c0,3.343 2.996,5.966 6.371,5.171c1.864,-0.439 3.376,-1.999 3.801,-3.92Z" style="fill:none;stroke:#7c41ba;stroke-width:2px;stroke-miterlimit:10;"/><path d="M122.328,372.332c2.847,0 5.154,-2.38 5.154,-5.314c0,-2.187 -1.28,-4.067 -3.11,-4.883c-0.216,-0.098 -0.137,-0.436 0.099,-0.436l28.651,0c2.46,0 4.695,1.722 5.182,4.208c0.671,3.421 -1.848,6.425 -5.046,6.425l-30.93,0Z" style="fill:#fff;fill-rule:nonzero;stroke:#7c41ba;stroke-width:2px;stroke-miterlimit:10;"/><path d="M149.822,343.094c0,4.893 -3.848,8.861 -8.592,8.861c-4.746,0 -8.592,-3.968 -8.592,-8.861c0,-4.893 3.846,-8.86 8.592,-8.86c4.744,0 8.592,3.967 8.592,8.86" style="fill:#b999db;fill-rule:nonzero;"/><path d="M141.23,337.926c4.131,0 7.581,3.007 8.404,7.014c0.123,-0.597 0.188,-1.212 0.188,-1.845c0,-4.893 -3.848,-8.861 -8.592,-8.861c-4.746,0 -8.592,3.968 -8.592,8.861c0,0.633 0.066,1.248 0.187,1.845c0.824,-4.007 4.273,-7.014 8.405,-7.014" style="fill:#fff;fill-rule:nonzero;"/><path d="M149.822,343.094c0,-4.89 -3.85,-8.86 -8.592,-8.86c-4.742,0 -8.592,3.97 -8.592,8.86c0,4.891 3.85,8.861 8.592,8.861c4.742,0 8.592,-3.97 8.592,-8.861Z" style="fill:none;stroke:#7c41ba;stroke-width:2px;stroke-miterlimit:10;"/><path d="M141.23,337.188l0,1.476" style="fill:none;stroke:#7c41ba;stroke-width:2px;stroke-miterlimit:10;"/><path d="M141.23,347.524l0,1.477" style="fill:none;stroke:#7c41ba;stroke-width:2px;stroke-miterlimit:10;"/><path d="M139.082,345.309c0,1.224 0.962,2.214 2.148,2.214c1.186,0 2.148,-0.99 2.148,-2.214c0,-1.224 -0.962,-2.214 -2.148,-2.214c-1.186,0 -2.148,-0.994 -2.148,-2.215c0,-1.224 0.962,-2.216 2.148,-2.216c1.186,0 2.148,0.992 2.148,2.216" style="fill:none;stroke:#7c41ba;stroke-width:2px;stroke-miterlimit:10;"/></g><g id="Ebene-110" serif:id="Ebene 1"><path d="M140.344,368.269c0.598,-2.702 -0.802,-5.169 -2.976,-6.137c-0.219,-0.097 -0.146,-0.432 0.094,-0.432l28.796,0l0,-47.45c0,-0.63 -0.326,-1.214 -0.856,-1.532c-0.531,-0.316 -1.183,-0.319 -1.715,-0.005l-2.521,1.485c-0.565,0.333 -1.264,0.308 -1.805,-0.063l-3.444,-2.367c-0.513,-0.353 -1.17,-0.394 -1.721,-0.111l-5.213,2.689c-0.483,0.248 -1.052,0.248 -1.537,0l-5.211,-2.689c-0.553,-0.283 -1.21,-0.242 -1.723,0.111l-3.442,2.367c-0.541,0.371 -1.24,0.396 -1.805,0.064l-2.521,-1.486c-0.532,-0.314 -1.186,-0.311 -1.716,0.005c-0.529,0.318 -0.856,0.902 -0.856,1.532l0,52.768c0,3.343 2.996,5.966 6.371,5.171c1.864,-0.439 3.376,-1.999 3.801,-3.92" style="fill:#fff;fill-rule:nonzero;"/><path d="M168.55,381.296c0,1.059 -8.335,1.918 -18.615,1.918c-10.283,0 -18.617,-0.859 -18.617,-1.918c0,-1.061 8.334,-1.921 18.617,-1.921c10.28,0 18.615,0.86 18.615,1.921" style="fill:#b999db;fill-rule:nonzero;"/><path d="M568.55,381.296c0,1.059 -18.184,1.918 -40.615,1.918c-22.435,0 -40.617,-0.859 -40.617,-1.918c0,-1.061 18.182,-1.921 40.617,-1.921c22.431,0 40.615,0.86 40.615,1.921" style="fill:#b999db;fill-rule:nonzero;"/><path d="M135.328,321.829l25.775,0" style="fill:none;stroke:#7c41ba;stroke-width:2px;stroke-miterlimit:10;"/><path d="M135.328,327.146l25.775,0" style="fill:none;stroke:#7c41ba;stroke-width:2px;stroke-miterlimit:10;"/><path d="M135.328,332.462l11.168,0" style="fill:none;stroke:#7c41ba;stroke-width:2px;stroke-miterlimit:10;"/><path d="M135.328,337.779l7.731,0" style="fill:none;stroke:#7c41ba;stroke-width:2px;stroke-miterlimit:10;"/><path d="M135.328,343.094l6.873,0" style="fill:none;stroke:#7c41ba;stroke-width:2px;stroke-miterlimit:10;"/><path d="M135.328,348.41l6.873,0" style="fill:none;stroke:#7c41ba;stroke-width:2px;stroke-miterlimit:10;"/><path d="M140.344,368.269c0.598,-2.702 -0.802,-5.169 -2.976,-6.137c-0.219,-0.097 -0.146,-0.432 0.094,-0.432l28.796,0l0,-47.45c0,-0.63 -0.326,-1.214 -0.856,-1.532c-0.531,-0.316 -1.183,-0.319 -1.715,-0.005l-2.521,1.485c-0.565,0.333 -1.264,0.308 -1.805,-0.063l-3.444,-2.367c-0.513,-0.353 -1.17,-0.394 -1.721,-0.111l-5.213,2.689c-0.483,0.248 -1.052,0.248 -1.537,0l-5.211,-2.689c-0.553,-0.283 -1.21,-0.242 -1.723,0.111l-3.442,2.367c-0.541,0.371 -1.24,0.396 -1.805,0.064l-2.521,-1.486c-0.532,-0.314 -1.186,-0.311 -1.716,0.005c-0.529,0.318 -0.856,0.902 -0.856,1.532l0,52.768c0,3.343 2.996,5.966 6.371,5.171c1.864,-0.439 3.376,-1.999 3.801,-3.92Z" style="fill:none;stroke:#7c41ba;stroke-width:2px;stroke-miterlimit:10;"/><path d="M135.328,372.332c2.847,0 5.154,-2.38 5.154,-5.314c0,-2.187 -1.28,-4.067 -3.11,-4.883c-0.216,-0.098 -0.137,-0.436 0.099,-0.436l28.651,0c2.46,0 4.695,1.722 5.182,4.208c0.671,3.421 -1.848,6.425 -5.046,6.425l-30.93,0Z" style="fill:#fff;fill-rule:nonzero;stroke:#7c41ba;stroke-width:2px;stroke-miterlimit:10;"/><path d="M162.822,343.094c0,4.893 -3.848,8.861 -8.592,8.861c-4.746,0 -8.592,-3.968 -8.592,-8.861c0,-4.893 3.846,-8.86 8.592,-8.86c4.744,0 8.592,3.967 8.592,8.86" style="fill:#b999db;fill-rule:nonzero;"/><path d="M154.23,337.926c4.131,0 7.581,3.007 8.404,7.014c0.123,-0.597 0.188,-1.212 0.188,-1.845c0,-4.893 -3.848,-8.861 -8.592,-8.861c-4.746,0 -8.592,3.968 -8.592,8.861c0,0.633 0.066,1.248 0.187,1.845c0.824,-4.007 4.273,-7.014 8.405,-7.014" style="fill:#fff;fill-rule:nonzero;"/><path d="M162.822,343.094c0,-4.89 -3.85,-8.86 -8.592,-8.86c-4.742,0 -8.592,3.97 -8.592,8.86c0,4.891 3.85,8.861 8.592,8.861c4.742,0 8.592,-3.97 8.592,-8.861Z" style="fill:none;stroke:#7c41ba;stroke-width:2px;stroke-miterlimit:10;"/><path d="M154.23,337.188l0,1.476" style="fill:none;stroke:#7c41ba;stroke-width:2px;stroke-miterlimit:10;"/><path d="M154.23,347.524l0,1.477" style="fill:none;stroke:#7c41ba;stroke-width:2px;stroke-miterlimit:10;"/><path d="M152.082,345.309c0,1.224 0.962,2.214 2.148,2.214c1.186,0 2.148,-0.99 2.148,-2.214c0,-1.224 -0.962,-2.214 -2.148,-2.214c-1.186,0 -2.148,-0.994 -2.148,-2.215c0,-1.224 0.962,-2.216 2.148,-2.216c1.186,0 2.148,0.992 2.148,2.216" style="fill:none;stroke:#7c41ba;stroke-width:2px;stroke-miterlimit:10;"/></g></svg>