<?xml version="1.0" encoding="UTF-8" standalone="no"?><!DOCTYPE svg PUBLIC "-//W3C//DTD SVG 1.1//EN" "http://www.w3.org/Graphics/SVG/1.1/DTD/svg11.dtd"><svg width="100%" height="100%" viewBox="0 0 622 338" version="1.1" xmlns="http://www.w3.org/2000/svg" xmlns:xlink="http://www.w3.org/1999/xlink" xml:space="preserve" xmlns:serif="http://www.serif.com/" style="fill-rule:evenodd;clip-rule:evenodd;stroke-linecap:round;stroke-linejoin:round;stroke-miterlimit:10;"><g id="Ebene-1" serif:id="Ebene 1"></g><rect id="ArtBoard1" x="0" y="0" width="622" height="338" style="fill:none;"/><g id="Ebene-11" serif:id="Ebene 1"></g><g id="Ebene-12" serif:id="Ebene 1"><g><path d="M202.77,224.794l13.151,13.152l13.579,-13.578" style="fill:none;stroke:#7c41ba;stroke-width:2px;"/><path d="M267.77,261.794l13.151,13.152l13.579,-13.578" style="fill:none;stroke:#7c41ba;stroke-width:2px;"/><path d="M127.27,195.794l13.151,13.152l13.579,-13.578" style="fill:none;stroke:#7c41ba;stroke-width:2px;"/><path d="M216,161.208l0,75.738" style="fill:none;stroke:#7c41ba;stroke-width:2px;"/></g><g><path d="M449.426,246.77l13.152,13.151l-13.578,13.579" style="fill:none;stroke:#7c41ba;stroke-width:2px;"/><g><path d="M362.729,257.387c0.706,3.096 0.116,6.236 -1.466,8.791c-1.153,1.86 -2.831,3.411 -4.918,4.408c-4.951,2.366 -10.882,0.985 -14.277,-3.327c-3.397,-4.31 -3.353,-10.399 0.106,-14.658c3.459,-4.262 9.409,-5.557 14.326,-3.117" style="fill:#fff;fill-rule:nonzero;stroke:#7c41ba;stroke-width:2px;stroke-miterlimit:4;"/><path d="M365.522,246.734l-14.895,18.49l-6.524,-6.524" style="fill:none;stroke:#7c41ba;stroke-width:2px;stroke-miterlimit:4;"/></g><path d="M461,260l-97.739,0" style="fill:none;stroke:#7c41ba;stroke-width:2px;"/></g><path d="M281,273.946l0,-87.036c0,-2.209 1.791,-4 4,-4l28.6,0" style="fill:none;stroke:#7c41ba;stroke-width:2px;stroke-miterlimit:4;"/><path d="M307.017,182.91l26.983,0c2.209,0 4,-1.791 4,-4l0,-31" style="fill:none;stroke:#7c41ba;stroke-width:2px;stroke-miterlimit:4;"/><path d="M140.6,207.946l0,-21.036c0,-2.209 -1.791,-4 -4,-4l-28.6,0" style="fill:none;stroke:#7c41ba;stroke-width:2px;stroke-miterlimit:4;"/><path d="M125.253,182.91l-26.983,0c-2.209,0 -4,-1.791 -4,-4l0,-31" style="fill:none;stroke:#7c41ba;stroke-width:2px;stroke-miterlimit:4;"/><path d="M544.162,87.008l-13.151,-13.152l-13.579,13.578" style="fill:none;stroke:#7c41ba;stroke-width:2px;"/><path d="M531.011,201.738c-6.249,0 -11.322,-5.073 -11.322,-11.322c0,-6.248 5.073,-11.321 11.322,-11.321c6.248,0 11.321,5.073 11.321,11.321c0,6.249 -5.073,11.322 -11.321,11.322" style="fill:#fff;stroke:#7c41ba;stroke-width:2px;stroke-linecap:butt;stroke-miterlimit:1.41421;"/><g id="Ebene-13" serif:id="Ebene 1"><path d="M539.032,142.389l8.128,-2.699c2.036,-0.604 4.234,0.13 5.504,1.834c-22.437,11.218 -15.177,11.15 -34.861,4.587l-7.339,4.587" style="fill:none;stroke:#7c41ba;stroke-width:2px;stroke-miterlimit:4;"/><path d="M526.977,143.353l10.091,0c0.734,0.132 1.477,-0.188 1.886,-0.808c0.411,-0.624 0.411,-1.431 0,-2.055c-0.409,-0.62 -1.152,-0.939 -1.886,-0.807l-5.504,0c-2.177,-2.244 -5.134,-3.558 -8.257,-3.67l-5.504,0l-7.339,3.67" style="fill:none;stroke:#7c41ba;stroke-width:2px;stroke-miterlimit:4;"/><path d="M521.479,116.748c0,-0.506 0.411,-0.917 0.918,-0.917l25.687,0c0.506,0 0.917,0.411 0.917,0.917l0,12.844c0,0.506 -0.411,0.917 -0.917,0.917l-25.687,0c-0.507,0 -0.918,-0.411 -0.918,-0.917l0,-12.844Z" style="fill:none;stroke:#7c41ba;stroke-width:2px;stroke-miterlimit:4;"/><path d="M540.822,115.831l8.179,6.422" style="fill:none;stroke:#7c41ba;stroke-width:2px;stroke-miterlimit:4;"/><path d="M541.975,130.509l7.026,-6.422" style="fill:none;stroke:#7c41ba;stroke-width:2px;stroke-miterlimit:4;"/><path d="M521.479,124.087l7.024,6.422" style="fill:none;stroke:#7c41ba;stroke-width:2px;stroke-miterlimit:4;"/><path d="M521.479,122.253l8.141,-6.422" style="fill:none;stroke:#7c41ba;stroke-width:2px;stroke-miterlimit:4;"/><path d="M535.24,125.922c1.519,0 2.752,-1.233 2.752,-2.752c0,-1.519 -1.233,-2.752 -2.752,-2.752c-1.519,0 -2.752,1.233 -2.752,2.752c0,1.519 1.233,2.752 2.752,2.752Z" style="fill:none;stroke:#7c41ba;stroke-width:2px;stroke-miterlimit:4;"/></g><path d="M531.011,111.095l0,-37.239" style="fill:none;stroke:#7c41ba;stroke-width:2px;"/><path d="M531.011,178.499l0,-22.643" style="fill:none;stroke:#7c41ba;stroke-width:2px;"/></g><g id="Isolationsmodus"><g><path d="M105.546,147.322c0.706,3.097 0.116,6.237 -1.466,8.791c-1.153,1.861 -2.831,3.411 -4.918,4.408c-4.951,2.366 -10.882,0.985 -14.277,-3.327c-3.397,-4.31 -3.353,-10.399 0.106,-14.658c3.459,-4.262 9.409,-5.557 14.326,-3.117" style="fill:#fff;fill-rule:nonzero;stroke:#7c41ba;stroke-width:2px;stroke-miterlimit:4;"/><path d="M108.339,136.67l-14.895,18.49l-6.524,-6.524" style="fill:none;stroke:#7c41ba;stroke-width:2px;stroke-miterlimit:4;"/></g><g><path d="M226.546,147.322c0.706,3.097 0.116,6.237 -1.466,8.791c-1.153,1.861 -2.831,3.411 -4.918,4.408c-4.951,2.366 -10.882,0.985 -14.277,-3.327c-3.397,-4.31 -3.353,-10.399 0.106,-14.658c3.459,-4.262 9.409,-5.557 14.326,-3.117" style="fill:#fff;fill-rule:nonzero;stroke:#7c41ba;stroke-width:2px;stroke-miterlimit:4;"/><path d="M229.339,136.67l-14.895,18.49l-6.524,-6.524" style="fill:none;stroke:#7c41ba;stroke-width:2px;stroke-miterlimit:4;"/></g><g><path d="M348.546,147.322c0.706,3.097 0.116,6.237 -1.466,8.791c-1.153,1.861 -2.831,3.411 -4.918,4.408c-4.951,2.366 -10.882,0.985 -14.277,-3.327c-3.397,-4.31 -3.353,-10.399 0.106,-14.658c3.459,-4.262 9.409,-5.557 14.326,-3.117" style="fill:#fff;fill-rule:nonzero;stroke:#7c41ba;stroke-width:2px;stroke-miterlimit:4;"/><path d="M351.339,136.67l-14.895,18.49l-6.524,-6.524" style="fill:none;stroke:#7c41ba;stroke-width:2px;stroke-miterlimit:4;"/></g></g><g><g id="Icons"><path d="M395.934,270.395c3.427,1.966 7.634,1.994 11.086,0.067l2.196,1.948l0,3.065l3.066,0l1.021,1.075l0,3.012l2.692,0l2.17,2.043l4.334,0l0,-4.332l-11.145,-11.145c2.064,-3.703 1.868,-8.256 -0.507,-11.768c-2.376,-3.511 -6.527,-5.387 -10.732,-4.854" style="fill:#e3d7ef;fill-rule:nonzero;stroke:#7c41ba;stroke-width:2px;stroke-miterlimit:4;"/><path d="M404.108,258.106c0.004,-5.808 -4.416,-10.663 -10.199,-11.198c-5.783,-0.54 -11.025,3.418 -12.089,9.126c-1.065,5.711 2.397,11.294 7.983,12.874l0,2.481l-2.043,2.043l2.043,2.043l0,2.044l-2.043,2.043l2.043,2.044l0,3.065l3.066,3.065l3.065,-3.065l0,-15.763c4.833,-1.369 8.17,-5.779 8.174,-10.802Z" style="fill:#fff;fill-rule:nonzero;stroke:#7c41ba;stroke-width:2px;stroke-miterlimit:4;"/><path d="M392.869,259.124c2.256,0 4.087,-1.831 4.087,-4.087c0,-2.256 -1.831,-4.087 -4.087,-4.087c-2.256,0 -4.087,1.831 -4.087,4.087c0,2.256 1.831,4.087 4.087,4.087Z" style="fill:none;stroke:#7c41ba;stroke-width:2px;stroke-miterlimit:4;"/><path d="M392.869,254.019l0,-9.196c0,-2.256 1.831,-4.087 4.087,-4.087c2.256,0 4.087,1.831 4.087,4.087l0,4.604" style="fill:none;stroke:#7c41ba;stroke-width:2px;stroke-miterlimit:4;"/></g></g><g id="Ebene-14" serif:id="Ebene 1"><g><path d="M175,96.785c0,-44.182 -35.818,-80 -80,-80c-44.182,0 -80,35.818 -80,80c0,11.771 2.564,22.936 7.129,33l145.744,0c4.564,-10.064 7.127,-21.229 7.127,-33" style="fill:#e3d7ef;fill-rule:nonzero;"/><path d="M16,129.785l156,0" style="fill:none;stroke:#7c41ba;stroke-width:2px;"/><path d="M7,129.785l5,0" style="fill:none;stroke:#7c41ba;stroke-width:2px;"/><path d="M176,129.785l5,0" style="fill:none;stroke:#7c41ba;stroke-width:2px;"/><path d="M295,96.785c0,-44.182 -35.816,-80 -80,-80c-44.182,0 -80,35.818 -80,80c0,11.771 2.563,22.936 7.129,33l145.744,0c4.564,-10.064 7.127,-21.229 7.127,-33" style="fill:#e3d7ef;fill-rule:nonzero;"/><path d="M136,129.785l156,0" style="fill:none;stroke:#7c41ba;stroke-width:2px;"/><path d="M127,129.785l5,0" style="fill:none;stroke:#7c41ba;stroke-width:2px;"/><path d="M296,129.785l5,0" style="fill:none;stroke:#7c41ba;stroke-width:2px;"/><path d="M415.004,96.79c0,-44.182 -35.816,-80 -80,-80c-44.182,0 -80,35.818 -80,80c0,11.771 2.564,22.936 7.129,33l145.744,0c4.564,-10.064 7.127,-21.229 7.127,-33" style="fill:#e3d7ef;fill-rule:nonzero;"/><path d="M256.004,129.79l156,0" style="fill:none;stroke:#7c41ba;stroke-width:2px;"/><path d="M247.004,129.79l5,0" style="fill:none;stroke:#7c41ba;stroke-width:2px;"/><path d="M416.004,129.79l5,0" style="fill:none;stroke:#7c41ba;stroke-width:2px;"/><path d="M367.004,129.79l5,0" style="fill:none;stroke:#7c41ba;stroke-width:2px;"/><path d="M365.283,109.054c-0.301,0.221 -0.602,0.42 -0.9,0.619c-1.516,1.108 -4.473,2.899 -9.108,5.209l-0.015,14.908l10.316,0l-0.006,-20.943c-0.096,0.066 -0.189,0.143 -0.287,0.207Z" style="fill:#fff;fill-rule:nonzero;stroke:#7c41ba;stroke-width:2px;"/><path d="M367.813,76.398c0.004,-3.666 -2.326,-6.764 -5.576,-7.961c0.367,-0.775 0.588,-1.631 0.588,-2.545c0.002,-0.637 -0.125,-1.238 -0.307,-1.814c2.002,-1.553 3.315,-3.953 3.316,-6.682c0.004,-3.443 -2.048,-6.394 -4.99,-7.734l0,-0.705c0.016,-13.291 -11.613,-23.08 -24.904,-23.096c-13.07,-0.016 -23.693,10.394 -24.063,23.377c-3.482,1.058 -6.037,4.256 -6.043,8.086c-0.001,2.73 1.305,5.135 3.303,6.691c-0.185,0.576 -0.31,1.176 -0.312,1.813c0,0.914 0.218,1.771 0.584,2.547c-3.256,1.189 -5.592,4.281 -5.596,7.947c-0.006,3.984 2.744,7.306 6.443,8.23c-0.291,0.703 -0.455,1.471 -0.457,2.278c-0.004,3.312 2.68,6.002 5.994,6.005c0.122,0 0.237,-0.027 0.356,-0.035c0.814,2.346 3.018,4.039 5.639,4.043c0.035,0 0.066,-0.009 0.099,-0.009c0.43,2.584 2.5,4.589 5.112,4.937c1.968,9.119 15.46,9.676 17.568,0.02c2.613,-0.34 4.687,-2.342 5.121,-4.924c0.035,0 0.066,0.01 0.1,0.01c2.623,0.003 4.83,-1.688 5.648,-4.03c0.121,0.008 0.234,0.037 0.357,0.037c3.313,0.004 6.002,-2.679 6.006,-5.994c0.002,-0.806 -0.162,-1.572 -0.449,-2.275c3.701,-0.916 6.457,-4.233 6.463,-8.217" style="fill:#fff;fill-rule:nonzero;"/><path d="M367.813,76.398c0.004,-3.666 -2.326,-6.764 -5.576,-7.961c0.367,-0.775 0.588,-1.631 0.588,-2.545c0.002,-0.637 -0.125,-1.238 -0.307,-1.814c2.002,-1.553 3.315,-3.953 3.316,-6.682c0.004,-3.443 -2.048,-6.394 -4.99,-7.734l0,-0.705c0.016,-13.291 -11.613,-23.08 -24.904,-23.096c-13.07,-0.016 -23.693,10.394 -24.063,23.377c-3.482,1.058 -6.037,4.256 -6.043,8.086c-0.001,2.73 1.305,5.135 3.303,6.691c-0.185,0.576 -0.31,1.176 -0.312,1.813c0,0.914 0.218,1.771 0.584,2.547c-3.256,1.189 -5.592,4.281 -5.596,7.947c-0.006,3.984 2.744,7.306 6.443,8.23c-0.291,0.703 -0.455,1.471 -0.457,2.278c-0.004,3.312 2.68,6.002 5.994,6.005c0.122,0 0.237,-0.027 0.356,-0.035c0.814,2.346 3.018,4.039 5.639,4.043c0.035,0 0.066,-0.009 0.099,-0.009c0.43,2.584 2.5,4.589 5.112,4.937c1.968,9.123 15.46,9.674 17.568,0.02c2.613,-0.34 4.687,-2.342 5.121,-4.924c0.035,0 0.066,0.01 0.1,0.01c2.623,0.003 4.83,-1.688 5.648,-4.03c0.121,0.008 0.234,0.037 0.357,0.037c3.313,0.004 6.002,-2.679 6.006,-5.994c0.002,-0.806 -0.162,-1.572 -0.449,-2.275c3.701,-0.916 6.457,-4.233 6.463,-8.217Z" style="fill:none;stroke:#7c41ba;stroke-width:2px;"/><path d="M366.525,108.136l0,0.02c-0.422,0.32 -0.822,0.619 -1.242,0.898c-0.299,0.221 -0.6,0.42 -0.901,0.619c-1.515,1.108 -4.47,2.899 -9.105,5.209l-0.018,14.908l-37.693,0l0,-14.953c-5.576,-2.797 -9.646,-5.252 -11.521,-6.773c0.06,-0.34 0.14,-0.68 0.22,-1.02c2.553,-9.777 9.74,-17.668 19.065,-21.197c1.281,-0.479 2.621,-0.877 3.982,-1.176c0.02,-0.039 0.061,-0.039 0.08,-0.019c2.221,-0.537 4.541,-0.795 6.92,-0.791c2.381,0.002 4.701,0.265 6.92,0.806c0.02,-0.017 0.061,-0.017 0.08,0.022c1.359,0.301 2.699,0.703 3.979,1.185c9.316,3.549 16.486,11.459 19.015,21.242c0.078,0.34 0.158,0.68 0.219,1.02" style="fill:#b999db;fill-rule:nonzero;"/><path d="M338.053,91.724l-0.002,2.139c-0.002,2 -0.039,34 -0.039,34l-0.002,1.927" style="fill:none;stroke:#7c41ba;stroke-width:2px;"/><path d="M334.053,91.72l-0.043,38.07" style="fill:none;stroke:#7c41ba;stroke-width:2px;"/><path d="M366.525,108.136l0,0.02c-0.422,0.32 -0.822,0.619 -1.242,0.898c-0.299,0.221 -0.6,0.42 -0.901,0.619c-1.515,1.108 -4.47,2.899 -9.105,5.209l-0.018,14.908l-37.693,0l0,-14.953c-5.576,-2.797 -9.646,-5.252 -11.521,-6.773c0.06,-0.34 0.14,-0.68 0.22,-1.02c2.553,-9.777 9.74,-17.668 19.065,-21.197c1.281,-0.479 2.621,-0.877 3.982,-1.176c0.02,-0.039 0.061,-0.039 0.08,-0.019c2.221,-0.537 4.541,-0.795 6.92,-0.791c2.381,0.002 4.701,0.265 6.92,0.806c0.02,-0.017 0.061,-0.017 0.08,0.022c1.359,0.301 2.699,0.703 3.979,1.185c9.316,3.549 16.486,11.459 19.015,21.242c0.078,0.34 0.158,0.68 0.219,1.02Z" style="fill:none;stroke:#7c41ba;stroke-width:2px;"/><path d="M329.069,77.853l14.002,0.016l-0.013,11l-14.001,-0.016l0.012,-11Z" style="fill:#fff;stroke:#7c41ba;stroke-width:2px;"/><path d="M329.069,77.853l14.002,0.016l-0.013,11l-14.001,-0.016l0.012,-11Z" style="fill:none;stroke:#7c41ba;stroke-width:2px;"/><path d="M360.09,60.888c-0.002,2.199 -1.805,3.998 -4.004,3.996c-0.08,0 -0.16,-0.021 -0.24,-0.021c-1.451,9.619 -9.74,17.009 -19.781,16.998c-10.039,-0.012 -18.311,-7.422 -19.739,-17.043c-0.08,0 -0.16,0.019 -0.24,0.017c-2.201,-0.002 -3.998,-1.802 -3.996,-4.004c0.002,-2.199 1.805,-3.998 4.006,-3.994l0.002,-1.82c4.08,-0.416 9.162,-1.731 13.428,-6.346c1.882,-2.037 3.425,-5.695 4.548,-7.814c1.276,3.322 3.731,8.166 7.166,10.869c4.797,3.787 10.377,3.912 14.858,3.258l-0.002,1.9c2.199,0.002 3.996,1.805 3.994,4.004" style="fill:#fff;fill-rule:nonzero;"/><path d="M360.09,60.888c-0.002,2.199 -1.805,3.998 -4.004,3.996c-0.08,0 -0.16,-0.021 -0.24,-0.021c-1.451,9.619 -9.74,17.009 -19.781,16.998c-10.039,-0.012 -18.311,-7.422 -19.739,-17.043c-0.08,0 -0.16,0.019 -0.24,0.017c-2.201,-0.002 -3.998,-1.802 -3.996,-4.004c0.002,-2.199 1.805,-3.998 4.006,-3.994l0.002,-1.82c4.08,-0.416 9.162,-1.731 13.428,-6.346c1.882,-2.037 3.425,-5.695 4.548,-7.814c1.276,3.322 3.731,8.166 7.166,10.869c4.797,3.787 10.377,3.912 14.858,3.258l-0.002,1.9c2.199,0.002 3.996,1.805 3.994,4.004Z" style="fill:none;stroke:#7c41ba;stroke-width:2px;"/><path d="M347.092,58.872c-0.617,-1.176 -1.703,-2.006 -3.004,-2.008c-1.301,-0.002 -2.392,0.826 -3.014,2.002" style="fill:none;stroke:#7c41ba;stroke-width:2px;"/><path d="M331.107,58.855c-0.615,-1.178 -1.703,-2.008 -3.004,-2.01c-1.301,0 -2.391,0.826 -3.012,2.002" style="fill:none;stroke:#7c41ba;stroke-width:2px;"/><path d="M327.084,65.349c0,1.381 -1.121,2.5 -2.502,2.498c-1.381,-0.002 -2.498,-1.123 -2.498,-2.504c0.002,-1.379 1.123,-2.498 2.504,-2.496c1.381,0.002 2.498,1.123 2.496,2.502" style="fill:#b999db;fill-rule:nonzero;"/><path d="M345.084,65.371c0,1.381 1.117,2.502 2.498,2.504c1.381,0 2.502,-1.117 2.502,-2.498c0.002,-1.379 -1.115,-2.502 -2.496,-2.502c-1.381,-0.002 -2.502,1.117 -2.504,2.496" style="fill:#b999db;fill-rule:nonzero;"/><path d="M325.055,90.847l0.006,-4.691c0.002,-1.276 1.035,-2.307 2.31,-2.307c0.805,0.002 1.602,0.393 1.965,1.111c0.842,1.666 3.535,2.897 6.723,2.901c3.185,0.004 5.883,-1.221 6.728,-2.885c0.366,-0.717 1.163,-1.108 1.967,-1.106c1.276,0.002 2.309,1.036 2.307,2.311l-0.006,4.691" style="fill:#b999db;fill-rule:nonzero;stroke:#7c41ba;stroke-width:2px;"/><path d="M331.318,70.855c3.025,2.67 6.969,2.674 10,0.012" style="fill:none;stroke:#7c41ba;stroke-width:2px;"/><path d="M307.273,108.978l-0.025,20.812l10.318,0l0,-14.953c-4.568,-2.291 -8.125,-4.351 -10.293,-5.859Z" style="fill:#fff;fill-rule:nonzero;stroke:#7c41ba;stroke-width:2px;"/><path d="M325.059,86.847c0,0 3.994,5.006 10.994,5.014c7,0.007 11.006,-4.989 11.006,-4.989" style="fill:none;stroke:#7c41ba;stroke-width:2px;"/><path d="M336.053,91.861c0,0 -9,0.988 -7.004,3.992c0.729,1.094 1.859,0.86 3,0.117c1.984,-1.289 4.004,-4.109 4.004,-4.109Z" style="fill:none;stroke:#7c41ba;stroke-width:2px;"/><path d="M336.053,91.861c0,0 9,1.01 6.996,4.008c-0.73,1.094 -1.861,0.855 -3,0.111c-1.982,-1.295 -3.996,-4.119 -3.996,-4.119Z" style="fill:none;stroke:#7c41ba;stroke-width:2px;"/><path d="M339.033,108.865c0.01,-8 -2.98,-17.004 -2.98,-17.004c0,0 -3.01,8.996 -3.02,16.996" style="fill:none;stroke:#7c41ba;stroke-width:2px;"/><path d="M356.047,97.884l-1.016,12.998" style="fill:none;stroke:#7c41ba;stroke-width:2px;"/><path d="M363.289,110.406l-2.252,-4.516" style="fill:none;stroke:#7c41ba;stroke-width:2px;"/><path d="M316.047,97.835l0.984,13.002" style="fill:none;stroke:#7c41ba;stroke-width:2px;"/><path d="M308.916,110.058l2.121,-4.227" style="fill:none;stroke:#7c41ba;stroke-width:2px;"/><path d="M316.328,62.837c0,0 -1.012,9.998 -2.014,10.996c0,0 -0.002,2 1.998,2.004c2,0.002 2.002,-1.998 2.002,-1.998c-0.998,-1.002 -1.986,-11.002 -1.986,-11.002Z" style="fill:#b999db;fill-rule:nonzero;stroke:#7c41ba;stroke-width:2px;"/><path d="M355.828,62.884c0,0 -1.012,9.998 -2.014,10.996c0,0 -0.002,2 1.998,2.004c2,0.002 2.002,-1.998 2.002,-1.998c-0.998,-1.002 -1.986,-11.002 -1.986,-11.002Z" style="fill:#b999db;fill-rule:nonzero;stroke:#7c41ba;stroke-width:2px;"/><path d="M94.789,83.374c-17.232,0 -31.201,13.971 -31.201,31.201l0,15.209l62.402,0l0,-15.209c0,-17.23 -13.969,-31.201 -31.201,-31.201" style="fill:#b999db;fill-rule:nonzero;"/><path d="M94.789,83.374c-17.232,0 -31.201,13.971 -31.201,31.201l0,15.209l62.402,0l0,-15.209c0,-17.23 -13.969,-31.201 -31.201,-31.201Z" style="fill:none;stroke:#7c41ba;stroke-width:2px;"/><path d="M101.99,88.986l-14.402,0l-2.018,3.711c-0.244,0.449 -0.307,0.973 -0.178,1.467l9.397,35.621l9.4,-35.621c0.129,-0.494 0.067,-1.018 -0.179,-1.467l-2.02,-3.711Z" style="fill:#fff;fill-rule:nonzero;stroke:#7c41ba;stroke-width:2px;"/><path d="M101.99,88.986l-7.201,4.799l-7.201,-4.799l0,-10.801l14.402,0l0,10.801Z" style="fill:#fff;fill-rule:nonzero;stroke:#7c41ba;stroke-width:2px;"/><path d="M101.99,88.986l-7.201,4.799l-7.201,-4.799l0,-10.801l14.402,0l0,10.801Z" style="fill:none;stroke:#7c41ba;stroke-width:2px;"/><path d="M94.789,129.785l4.799,-18.193l-4.799,-17.807l-4.816,17.74l4.816,18.26Z" style="fill:#b999db;fill-rule:nonzero;stroke:#7c41ba;stroke-width:2px;"/><path d="M87.588,82.986l0,6l-2.018,3.711c-0.244,0.449 -0.306,0.973 -0.177,1.467l9.396,35.621l-4.799,0l-9.601,-17.19l3.601,-6.81l-8.402,-7.199l2.508,-7.233c1.476,-4.262 5.08,-7.437 9.492,-8.367Z" style="fill:#b999db;fill-rule:nonzero;stroke:#7c41ba;stroke-width:2px;"/><path d="M101.99,82.986l0,6l2.018,3.711c0.244,0.449 0.306,0.973 0.177,1.467l-9.396,35.621l4.799,0l9.601,-17.19l-3.601,-6.81l8.402,-7.199l-2.508,-7.233c-1.476,-4.262 -5.08,-7.437 -9.492,-8.367Z" style="fill:#b999db;fill-rule:nonzero;stroke:#7c41ba;stroke-width:2px;"/><path d="M86.725,99.21l8.064,-5.426l8.073,5.395" style="fill:none;stroke:#7c41ba;stroke-width:2px;"/><path d="M75.588,115.384l0,14.4" style="fill:none;stroke:#7c41ba;stroke-width:2px;"/><path d="M113.99,115.384l0,14.4" style="fill:none;stroke:#7c41ba;stroke-width:2px;"/><path d="M74.789,56.787l0,-5c0,-11.047 8.955,-20 20,-20c11.045,0 20,8.953 20,20l0,5c2.209,0 4,1.791 4,4c0,2.209 -1.791,4 -4,4c-0.084,0 -0.162,-0.02 -0.244,-0.025c-1.442,9.63 -9.723,17.025 -19.756,17.025c-10.033,0 -18.314,-7.395 -19.756,-17.025c-0.082,0.005 -0.16,0.025 -0.244,0.025c-2.209,0 -4,-1.791 -4,-4c0,-2.209 1.791,-4 4,-4Z" style="fill:#fff;fill-rule:nonzero;stroke:#7c41ba;stroke-width:2px;"/><path d="M103.789,65.287c0,1.381 1.119,2.5 2.5,2.5c1.381,0 2.5,-1.119 2.5,-2.5c0,-1.381 -1.119,-2.5 -2.5,-2.5c-1.381,0 -2.5,1.119 -2.5,2.5" style="fill:#b999db;fill-rule:nonzero;"/><path d="M85.789,65.287c0,1.381 -1.119,2.5 -2.5,2.5c-1.381,0 -2.5,-1.119 -2.5,-2.5c0,-1.381 1.119,-2.5 2.5,-2.5c1.381,0 2.5,1.119 2.5,2.5" style="fill:#b999db;fill-rule:nonzero;"/><path d="M100.807,69.787c-3.645,3.209 -8.391,3.209 -12.035,0" style="fill:none;stroke:#7c41ba;stroke-width:2px;"/><path d="M83.789,58.787c0.619,-1.178 1.709,-2.006 3.01,-2.006c1.301,0 2.386,0.828 3.008,2.006" style="fill:none;stroke:#7c41ba;stroke-width:2px;"/><path d="M99.807,58.787c0.617,-1.178 1.707,-2.006 3.008,-2.006c1.301,0 2.39,0.828 3.008,2.006" style="fill:none;stroke:#7c41ba;stroke-width:2px;"/><path d="M94.789,30.792c-11.826,0.242 -20,8.035 -20,19.994l0,5c0,0.629 0.297,1.221 0.799,1.6l1.898,1.424c0.537,0.402 1.303,0.019 1.303,-0.651l0,-9.373c0,-3.299 1.736,-6.17 4.338,-7.801c0.889,-0.556 2.099,-0.463 2.758,0.354c1.638,2.043 5,3.447 8.904,3.447c3.904,0 7.266,-1.404 8.904,-3.447c0.659,-0.817 1.869,-0.91 2.758,-0.354c2.602,1.631 4.338,4.502 4.338,7.801l0,9.373c0,0.67 0.766,1.053 1.303,0.651l1.898,-1.424c0.502,-0.379 0.799,-0.971 0.799,-1.6l0,-5c0,-11.959 -8.174,-19.752 -20,-19.994Z" style="fill:#fff;fill-rule:nonzero;stroke:#7c41ba;stroke-width:2px;"/><path d="M108.238,76.574l-5.354,1.338c-1.835,0.459 -3.75,-0.135 -5.003,-1.496c-0.403,-0.438 -1.008,-0.629 -1.602,-0.629l-2.98,0c-0.594,0 -1.2,0.191 -1.602,0.629c-1.252,1.361 -3.168,1.955 -5.002,1.496l-5.355,-1.338c3.546,3.236 8.263,5.213 13.449,5.213c5.185,0 9.9,-1.977 13.449,-5.213Z" style="fill:#fff;fill-rule:nonzero;stroke:#7c41ba;stroke-width:2px;"/><path d="M213.789,83.374c-17.232,0 -31.199,13.971 -31.199,31.201l0,15.209l62.398,0l0,-15.209c0,-17.23 -13.967,-31.201 -31.199,-31.201" style="fill:#b999db;fill-rule:nonzero;"/><path d="M213.789,83.374c-17.232,0 -31.199,13.971 -31.199,31.201l0,15.209l62.398,0l0,-15.209c0,-17.23 -13.967,-31.201 -31.199,-31.201Z" style="fill:none;stroke:#7c41ba;stroke-width:2px;"/><path d="M220.988,88.986l-14.398,0l-2.02,3.711c-0.244,0.449 -0.307,0.973 -0.178,1.467l9.397,35.621l9.398,-35.621c0.131,-0.494 0.067,-1.018 -0.178,-1.467l-2.021,-3.711Z" style="fill:#fff;fill-rule:nonzero;stroke:#7c41ba;stroke-width:2px;"/><path d="M220.988,88.986l-7.199,4.799l-7.199,-4.799l0,-10.801l14.398,0l0,10.801Z" style="fill:#fff;fill-rule:nonzero;stroke:#7c41ba;stroke-width:2px;"/><path d="M220.988,88.986l-7.199,4.799l-7.199,-4.799l0,-10.801l14.398,0l0,10.801Z" style="fill:none;stroke:#7c41ba;stroke-width:2px;"/><path d="M213.789,129.785l4.799,-18.193l-4.799,-17.807l-4.816,17.74l4.816,18.26Z" style="fill:#b999db;fill-rule:nonzero;stroke:#7c41ba;stroke-width:2px;"/><path d="M206.59,82.986l0,6l-2.02,3.711c-0.244,0.449 -0.306,0.973 -0.177,1.467l9.396,35.621l-4.801,0l-9.599,-17.19l3.599,-6.81l-8.398,-7.199l2.506,-7.233c1.476,-4.262 5.08,-7.437 9.494,-8.367Z" style="fill:#b999db;fill-rule:nonzero;stroke:#7c41ba;stroke-width:2px;"/><path d="M220.988,82.986l0,6l2.02,3.711c0.244,0.449 0.306,0.973 0.177,1.467l-9.396,35.621l4.801,0l9.599,-17.19l-3.599,-6.81l8.398,-7.199l-2.506,-7.233c-1.476,-4.262 -5.08,-7.437 -9.494,-8.367Z" style="fill:#b999db;fill-rule:nonzero;stroke:#7c41ba;stroke-width:2px;"/><path d="M205.725,99.21l8.064,-5.426l8.073,5.395" style="fill:none;stroke:#7c41ba;stroke-width:2px;"/><path d="M194.59,115.384l0,14.4" style="fill:none;stroke:#7c41ba;stroke-width:2px;"/><path d="M232.988,115.384l0,14.4" style="fill:none;stroke:#7c41ba;stroke-width:2px;"/><path d="M233.789,56.787l0,-5c0,-11.047 -8.955,-20 -20,-20c-11.045,0 -20,8.953 -20,20l0,5c-2.209,0 -4,1.791 -4,4c0,2.209 1.791,4 4,4c0.084,0 0.162,-0.02 0.246,-0.025c1.44,9.63 9.721,17.025 19.754,17.025c10.031,0 18.314,-7.395 19.754,-17.025c0.084,0.005 0.162,0.025 0.246,0.025c2.209,0 4,-1.791 4,-4c0,-2.209 -1.791,-4 -4,-4Z" style="fill:#fff;fill-rule:nonzero;stroke:#7c41ba;stroke-width:2px;"/><path d="M207.772,69.38c3.645,3.207 8.391,3.207 12.035,0" style="fill:none;stroke:#7c41ba;stroke-width:2px;"/><path d="M192.527,57.404c-2.361,-3.268 -3.738,-7.262 -3.738,-11.602c0,-10.964 8.888,-19.853 19.855,-19.853c5.414,0 16.244,-1.309 19.856,3.506c15.832,3.517 10.318,30.594 8.703,28.98c-0.699,-0.699 -2.414,-1.648 -4.414,-0.648c-3.61,-5.889 -6.696,-11.487 -6.073,-19.195c0,5.416 -9.912,8.195 -19.927,8.195c-2.606,0 -8.887,-1.297 -11,-2c0.777,4.64 0,15 0,15c0,-2.348 -2,-3 -3.262,-2.383Z" style="fill:#fff;fill-rule:nonzero;stroke:#7c41ba;stroke-width:2px;"/><path d="M229.789,65.38c0,1.328 -1.078,2.406 -2.406,2.406c-1.33,0 -2.406,-1.078 -2.406,-2.406c0,-1.33 1.076,-2.408 2.406,-2.408c1.328,0 2.406,1.078 2.406,2.408" style="fill:#b999db;fill-rule:nonzero;"/><path d="M202.602,65.38c0,1.328 -1.076,2.406 -2.406,2.406c-1.328,0 -2.406,-1.078 -2.406,-2.406c0,-1.33 1.078,-2.408 2.406,-2.408c1.33,0 2.406,1.078 2.406,2.408" style="fill:#b999db;fill-rule:nonzero;"/><path d="M227.807,58.521c-0.619,-1.176 -1.709,-2.004 -3.01,-2.004c-1.301,0 -2.388,0.828 -3.008,2.004" style="fill:none;stroke:#7c41ba;stroke-width:2px;"/><path d="M205.789,58.521c-0.619,-1.176 -1.707,-2.004 -3.008,-2.004c-1.301,0 -2.39,0.828 -3.01,2.004" style="fill:none;stroke:#7c41ba;stroke-width:2px;"/><path d="M230.789,60.111c0,1.221 -0.9,2.301 -2.119,2.48c-2.16,0.301 -4.84,0.26 -7.1,-0.08c-1.101,-0.16 -1.961,-1.041 -2.121,-2.14l-0.66,-4.52c-0.18,-1.381 0.781,-2.66 2.16,-2.84c2.461,-0.3 5.32,-0.3 7.68,0.02c1.24,0.16 2.16,1.24 2.16,2.48l0,4.6Zm-22,-4.26l-0.66,4.52c-0.16,1.099 -1.02,1.98 -2.119,2.14c-2.262,0.34 -4.94,0.381 -7.1,0.08c-1.221,-0.179 -2.121,-1.259 -2.121,-2.48l0,-4.6c0,-1.24 0.92,-2.32 2.16,-2.48c2.36,-0.32 5.221,-0.32 7.68,-0.02c1.381,0.18 2.34,1.459 2.16,2.84m21.541,-5.679c-3.76,-0.52 -7.602,-0.5 -11.521,-0.02c-1.92,0.24 -3.319,1.799 -3.479,3.639l-1.541,0l-1.541,0c-0.16,-1.84 -1.559,-3.399 -3.479,-3.639c-3.919,-0.48 -7.759,-0.5 -11.521,0.02c-1.979,0.259 -3.459,1.98 -3.459,3.98l0,7.34c0,1.978 1.439,3.699 3.4,3.978c3.44,0.481 6.981,0.422 10.62,-0.119c1.74,-0.279 3.14,-1.66 3.38,-3.42l0.6,-4.14l4,0l0.6,4.14c0.24,1.76 1.64,3.141 3.38,3.42c3.641,0.541 7.18,0.6 10.62,0.119c1.961,-0.279 3.4,-2 3.4,-3.978l0,-7.34c0,-2 -1.48,-3.721 -3.459,-3.98" style="fill:#b999db;fill-rule:nonzero;"/><path d="M230.789,60.111c0,1.221 -0.9,2.301 -2.119,2.48c-2.16,0.301 -4.84,0.26 -7.1,-0.08c-1.101,-0.16 -1.961,-1.041 -2.121,-2.14l-0.66,-4.52c-0.18,-1.381 0.781,-2.66 2.16,-2.84c2.461,-0.3 5.32,-0.3 7.68,0.02c1.24,0.16 2.16,1.24 2.16,2.48l0,4.6Zm-22,-4.26l-0.66,4.52c-0.16,1.099 -1.02,1.98 -2.119,2.14c-2.262,0.34 -4.94,0.381 -7.1,0.08c-1.221,-0.179 -2.121,-1.259 -2.121,-2.48l0,-4.6c0,-1.24 0.92,-2.32 2.16,-2.48c2.36,-0.32 5.221,-0.32 7.68,-0.02c1.381,0.18 2.34,1.459 2.16,2.84Zm21.541,-5.679c-3.76,-0.52 -7.602,-0.5 -11.521,-0.02c-1.92,0.24 -3.319,1.799 -3.479,3.639l-1.541,0l-1.541,0c-0.16,-1.84 -1.559,-3.399 -3.479,-3.639c-3.919,-0.48 -7.759,-0.5 -11.521,0.02c-1.979,0.259 -3.459,1.98 -3.459,3.98l0,7.34c0,1.978 1.439,3.699 3.4,3.978c3.44,0.481 6.981,0.422 10.62,-0.119c1.74,-0.279 3.14,-1.66 3.38,-3.42l0.6,-4.14l4,0l0.6,4.14c0.24,1.76 1.64,3.141 3.38,3.42c3.641,0.541 7.18,0.6 10.62,0.119c1.961,-0.279 3.4,-2 3.4,-3.978l0,-7.34c0,-2 -1.48,-3.721 -3.459,-3.98Z" style="fill:none;stroke:#7c41ba;stroke-width:2px;"/></g></g><g id="Ebene1"><g><g id="Ebene-15" serif:id="Ebene 1"></g><g id="Ebene-16" serif:id="Ebene 1"></g><g id="Ebene-17" serif:id="Ebene 1"></g></g></g><g id="Ebene-18" serif:id="Ebene 1"></g><g id="Ebene-19" serif:id="Ebene 1"></g><g id="Ebene-110" serif:id="Ebene 1"></g><g id="Ebene-111" serif:id="Ebene 1"></g><g id="Ebene-112" serif:id="Ebene 1"></g><g><path d="M174,217.877c0,-3.174 -2.576,-5.75 -5.75,-5.75l-53.5,0c-3.174,0 -5.75,2.576 -5.75,5.75l0,11.5c0,3.173 2.576,5.75 5.75,5.75l53.5,0c3.174,0 5.75,-2.577 5.75,-5.75l0,-11.5Z" style="fill:#e3d7ef;stroke:#7c41ba;stroke-width:2px;stroke-miterlimit:1.5;"/><path d="M249,253.604c0,-3.174 -2.576,-5.75 -5.75,-5.75l-66.5,0c-3.174,0 -5.75,2.576 -5.75,5.75l0,11.5c0,3.173 2.576,5.75 5.75,5.75l66.5,0c3.174,0 5.75,-2.577 5.75,-5.75l0,-11.5Z" style="fill:#e3d7ef;stroke:#7c41ba;stroke-width:2px;stroke-miterlimit:1.5;"/><path d="M322,289.486c0,-3.173 -2.576,-5.75 -5.75,-5.75l-66.5,0c-3.174,0 -5.75,2.577 -5.75,5.75l0,11.5c0,3.174 2.576,5.75 5.75,5.75l66.5,0c3.174,0 5.75,-2.576 5.75,-5.75l0,-11.5Z" style="fill:#e3d7ef;stroke:#7c41ba;stroke-width:2px;stroke-miterlimit:1.5;"/><g><path d="M115.498,226.346l1.107,-0.094c0.083,0.539 0.273,0.944 0.572,1.216c0.299,0.271 0.659,0.407 1.081,0.407c0.508,0 0.937,-0.191 1.289,-0.574c0.351,-0.383 0.527,-0.891 0.527,-1.524c0,-0.601 -0.169,-1.076 -0.507,-1.423c-0.338,-0.348 -0.78,-0.522 -1.327,-0.522c-0.34,0 -0.646,0.077 -0.92,0.231c-0.273,0.155 -0.488,0.355 -0.644,0.601l-0.99,-0.129l0.832,-4.412l4.271,0l0,1.008l-3.428,0l-0.463,2.308c0.516,-0.359 1.057,-0.539 1.623,-0.539c0.75,0 1.383,0.26 1.899,0.78c0.516,0.519 0.773,1.187 0.773,2.004c0,0.777 -0.226,1.449 -0.679,2.015c-0.551,0.696 -1.303,1.043 -2.256,1.043c-0.781,0 -1.419,-0.219 -1.913,-0.656c-0.494,-0.438 -0.777,-1.018 -0.847,-1.74Z" style="fill:#7c41ba;fill-rule:nonzero;"/><path d="M122.553,228.596l0,-8.59l1.136,0l0,4.26l4.266,-4.26l1.541,0l-3.603,3.48l3.761,5.11l-1.5,0l-3.058,-4.348l-1.407,1.371l0,2.977l-1.136,0Z" style="fill:#7c41ba;fill-rule:nonzero;"/><path d="M130.475,228.596l0,-8.59l1.054,0l0,4.898l2.496,-2.531l1.366,0l-2.379,2.309l2.619,3.914l-1.301,0l-2.057,-3.182l-0.744,0.715l0,2.467l-1.054,0Z" style="fill:#7c41ba;fill-rule:nonzero;"/><path d="M142.732,225.584l1.137,0.287c-0.238,0.934 -0.667,1.646 -1.286,2.136c-0.619,0.49 -1.376,0.735 -2.27,0.735c-0.926,0 -1.679,-0.188 -2.259,-0.565c-0.58,-0.377 -1.022,-0.923 -1.325,-1.638c-0.302,-0.715 -0.454,-1.482 -0.454,-2.303c0,-0.894 0.171,-1.674 0.513,-2.34c0.342,-0.667 0.828,-1.172 1.459,-1.518c0.631,-0.346 1.325,-0.519 2.083,-0.519c0.859,0 1.582,0.219 2.168,0.657c0.586,0.437 0.994,1.052 1.225,1.845l-1.119,0.264c-0.2,-0.625 -0.489,-1.08 -0.868,-1.365c-0.379,-0.285 -0.855,-0.428 -1.429,-0.428c-0.661,0 -1.212,0.158 -1.656,0.475c-0.443,0.316 -0.755,0.741 -0.934,1.274c-0.18,0.533 -0.27,1.083 -0.27,1.649c0,0.731 0.107,1.369 0.32,1.914c0.212,0.544 0.544,0.952 0.993,1.221c0.449,0.27 0.935,0.405 1.459,0.405c0.636,0 1.176,-0.184 1.617,-0.551c0.441,-0.367 0.74,-0.912 0.896,-1.635Z" style="fill:#7c41ba;fill-rule:nonzero;"/><path d="M147.689,228.596l0,-3.639l-3.31,-4.951l1.383,0l1.693,2.59c0.313,0.484 0.604,0.968 0.873,1.453c0.258,-0.449 0.57,-0.955 0.938,-1.518l1.664,-2.525l1.324,0l-3.428,4.951l0,3.639l-1.137,0Z" style="fill:#7c41ba;fill-rule:nonzero;"/><path d="M153.145,228.596l0,-8.59l1.054,0l0,4.898l2.496,-2.531l1.366,0l-2.379,2.309l2.619,3.914l-1.301,0l-2.057,-3.182l-0.744,0.715l0,2.467l-1.054,0Z" style="fill:#7c41ba;fill-rule:nonzero;"/><path d="M159.139,230.98l0,-8.607l0.961,0l0,0.809c0.226,-0.317 0.482,-0.554 0.767,-0.712c0.285,-0.158 0.631,-0.238 1.037,-0.238c0.532,0 1,0.137 1.407,0.411c0.406,0.273 0.712,0.659 0.919,1.157c0.208,0.498 0.311,1.044 0.311,1.637c0,0.637 -0.114,1.21 -0.343,1.72c-0.228,0.51 -0.56,0.901 -0.996,1.172c-0.435,0.272 -0.893,0.407 -1.374,0.407c-0.351,0 -0.667,-0.074 -0.946,-0.222c-0.279,-0.149 -0.509,-0.336 -0.689,-0.563l0,3.029l-1.054,0Zm0.955,-5.46c0,0.8 0.162,1.392 0.486,1.775c0.324,0.383 0.717,0.574 1.178,0.574c0.469,0 0.87,-0.198 1.204,-0.595c0.334,-0.396 0.501,-1.01 0.501,-1.842c0,-0.793 -0.163,-1.387 -0.489,-1.782c-0.327,-0.394 -0.716,-0.591 -1.169,-0.591c-0.45,0 -0.847,0.21 -1.193,0.629c-0.345,0.42 -0.518,1.031 -0.518,1.832Z" style="fill:#7c41ba;fill-rule:nonzero;"/><path d="M182.066,221.582l0.27,-0.832c0.621,0.219 1.072,0.408 1.353,0.568c-0.074,-0.707 -0.113,-1.193 -0.117,-1.459l0.85,0c-0.012,0.387 -0.057,0.871 -0.135,1.453c0.402,-0.203 0.863,-0.39 1.383,-0.562l0.269,0.832c-0.496,0.164 -0.982,0.273 -1.459,0.328c0.239,0.207 0.575,0.576 1.008,1.108l-0.703,0.498c-0.226,-0.309 -0.494,-0.729 -0.803,-1.26c-0.289,0.551 -0.543,0.971 -0.761,1.26l-0.692,-0.498c0.453,-0.559 0.778,-0.928 0.973,-1.108c-0.504,-0.098 -0.982,-0.207 -1.436,-0.328Z" style="fill:#7c41ba;fill-rule:nonzero;"/><path d="M186.736,221.582l0.27,-0.832c0.621,0.219 1.072,0.408 1.353,0.568c-0.074,-0.707 -0.113,-1.193 -0.117,-1.459l0.85,0c-0.012,0.387 -0.057,0.871 -0.135,1.453c0.402,-0.203 0.863,-0.39 1.383,-0.562l0.269,0.832c-0.496,0.164 -0.982,0.273 -1.459,0.328c0.239,0.207 0.575,0.576 1.008,1.108l-0.703,0.498c-0.226,-0.309 -0.494,-0.729 -0.803,-1.26c-0.289,0.551 -0.543,0.971 -0.761,1.26l-0.692,-0.498c0.453,-0.559 0.778,-0.928 0.973,-1.108c-0.504,-0.098 -0.983,-0.207 -1.436,-0.328Z" style="fill:#7c41ba;fill-rule:nonzero;"/><path d="M191.406,221.582l0.27,-0.832c0.621,0.219 1.072,0.408 1.353,0.568c-0.074,-0.707 -0.113,-1.193 -0.117,-1.459l0.85,0c-0.012,0.387 -0.057,0.871 -0.135,1.453c0.402,-0.203 0.863,-0.39 1.383,-0.562l0.269,0.832c-0.496,0.164 -0.982,0.273 -1.459,0.328c0.239,0.207 0.575,0.576 1.008,1.108l-0.703,0.498c-0.227,-0.309 -0.494,-0.729 -0.803,-1.26c-0.289,0.551 -0.543,0.971 -0.761,1.26l-0.692,-0.498c0.453,-0.559 0.777,-0.928 0.973,-1.108c-0.504,-0.098 -0.983,-0.207 -1.436,-0.328Z" style="fill:#7c41ba;fill-rule:nonzero;"/><path d="M196.076,221.582l0.27,-0.832c0.621,0.219 1.072,0.408 1.353,0.568c-0.074,-0.707 -0.113,-1.193 -0.117,-1.459l0.85,0c-0.012,0.387 -0.057,0.871 -0.135,1.453c0.402,-0.203 0.863,-0.39 1.383,-0.562l0.269,0.832c-0.496,0.164 -0.982,0.273 -1.459,0.328c0.239,0.207 0.574,0.576 1.008,1.108l-0.703,0.498c-0.227,-0.309 -0.494,-0.729 -0.803,-1.26c-0.289,0.551 -0.543,0.971 -0.762,1.26l-0.691,-0.498c0.453,-0.559 0.777,-0.928 0.973,-1.108c-0.504,-0.098 -0.983,-0.207 -1.436,-0.328Z" style="fill:#7c41ba;fill-rule:nonzero;"/><path d="M219.426,221.582l0.269,-0.832c0.621,0.219 1.073,0.408 1.354,0.568c-0.074,-0.707 -0.113,-1.193 -0.117,-1.459l0.849,0c-0.011,0.387 -0.056,0.871 -0.135,1.453c0.403,-0.203 0.864,-0.39 1.383,-0.562l0.27,0.832c-0.496,0.164 -0.983,0.273 -1.459,0.328c0.238,0.207 0.574,0.576 1.008,1.108l-0.703,0.498c-0.227,-0.309 -0.495,-0.729 -0.803,-1.26c-0.289,0.551 -0.543,0.971 -0.762,1.26l-0.691,-0.498c0.453,-0.559 0.777,-0.928 0.972,-1.108c-0.504,-0.098 -0.982,-0.207 -1.435,-0.328Z" style="fill:#7c41ba;fill-rule:nonzero;"/><path d="M224.096,221.582l0.269,-0.832c0.621,0.219 1.073,0.408 1.354,0.568c-0.074,-0.707 -0.114,-1.193 -0.117,-1.459l0.849,0c-0.012,0.387 -0.056,0.871 -0.135,1.453c0.403,-0.203 0.864,-0.39 1.383,-0.562l0.27,0.832c-0.496,0.164 -0.983,0.273 -1.459,0.328c0.238,0.207 0.574,0.576 1.008,1.108l-0.704,0.498c-0.226,-0.309 -0.494,-0.729 -0.802,-1.26c-0.289,0.551 -0.543,0.971 -0.762,1.26l-0.691,-0.498c0.453,-0.559 0.777,-0.928 0.972,-1.108c-0.504,-0.098 -0.982,-0.207 -1.435,-0.328Z" style="fill:#7c41ba;fill-rule:nonzero;"/><path d="M255.438,221.582l0.269,-0.832c0.621,0.219 1.072,0.408 1.354,0.568c-0.075,-0.707 -0.114,-1.193 -0.118,-1.459l0.85,0c-0.012,0.387 -0.057,0.871 -0.135,1.453c0.403,-0.203 0.863,-0.39 1.383,-0.562l0.27,0.832c-0.497,0.164 -0.983,0.273 -1.459,0.328c0.238,0.207 0.574,0.576 1.007,1.108l-0.703,0.498c-0.226,-0.309 -0.494,-0.729 -0.802,-1.26c-0.29,0.551 -0.543,0.971 -0.762,1.26l-0.692,-0.498c0.454,-0.559 0.778,-0.928 0.973,-1.108c-0.504,-0.098 -0.982,-0.207 -1.435,-0.328Z" style="fill:#7c41ba;fill-rule:nonzero;"/><path d="M260.107,221.582l0.27,-0.832c0.621,0.219 1.072,0.408 1.353,0.568c-0.074,-0.707 -0.113,-1.193 -0.117,-1.459l0.85,0c-0.012,0.387 -0.057,0.871 -0.135,1.453c0.402,-0.203 0.863,-0.39 1.383,-0.562l0.269,0.832c-0.496,0.164 -0.982,0.273 -1.459,0.328c0.239,0.207 0.575,0.576 1.008,1.108l-0.703,0.498c-0.226,-0.309 -0.494,-0.729 -0.803,-1.26c-0.289,0.551 -0.543,0.971 -0.761,1.26l-0.692,-0.498c0.453,-0.559 0.778,-0.928 0.973,-1.108c-0.504,-0.098 -0.982,-0.207 -1.436,-0.328Z" style="fill:#7c41ba;fill-rule:nonzero;"/><path d="M264.777,221.582l0.27,-0.832c0.621,0.219 1.072,0.408 1.353,0.568c-0.074,-0.707 -0.113,-1.193 -0.117,-1.459l0.85,0c-0.012,0.387 -0.057,0.871 -0.135,1.453c0.402,-0.203 0.863,-0.39 1.383,-0.562l0.269,0.832c-0.496,0.164 -0.982,0.273 -1.459,0.328c0.239,0.207 0.575,0.576 1.008,1.108l-0.703,0.498c-0.226,-0.309 -0.494,-0.729 -0.803,-1.26c-0.289,0.551 -0.543,0.971 -0.761,1.26l-0.692,-0.498c0.453,-0.559 0.778,-0.928 0.973,-1.108c-0.504,-0.098 -0.983,-0.207 -1.436,-0.328Z" style="fill:#7c41ba;fill-rule:nonzero;"/><path d="M269.447,221.582l0.27,-0.832c0.621,0.219 1.072,0.408 1.353,0.568c-0.074,-0.707 -0.113,-1.193 -0.117,-1.459l0.85,0c-0.012,0.387 -0.057,0.871 -0.135,1.453c0.402,-0.203 0.863,-0.39 1.383,-0.562l0.269,0.832c-0.496,0.164 -0.982,0.273 -1.459,0.328c0.239,0.207 0.575,0.576 1.008,1.108l-0.703,0.498c-0.227,-0.309 -0.494,-0.729 -0.803,-1.26c-0.289,0.551 -0.543,0.971 -0.761,1.26l-0.692,-0.498c0.453,-0.559 0.778,-0.928 0.973,-1.108c-0.504,-0.098 -0.983,-0.207 -1.436,-0.328Z" style="fill:#7c41ba;fill-rule:nonzero;"/><path d="M288.127,221.582l0.269,-0.832c0.622,0.219 1.073,0.408 1.354,0.568c-0.074,-0.707 -0.113,-1.193 -0.117,-1.459l0.849,0c-0.011,0.387 -0.056,0.871 -0.134,1.453c0.402,-0.203 0.863,-0.39 1.382,-0.562l0.27,0.832c-0.496,0.164 -0.982,0.273 -1.459,0.328c0.238,0.207 0.574,0.576 1.008,1.108l-0.703,0.498c-0.227,-0.309 -0.494,-0.729 -0.803,-1.26c-0.289,0.551 -0.543,0.971 -0.762,1.26l-0.691,-0.498c0.453,-0.559 0.777,-0.928 0.973,-1.108c-0.504,-0.098 -0.983,-0.207 -1.436,-0.328Z" style="fill:#7c41ba;fill-rule:nonzero;"/><path d="M292.797,221.582l0.269,-0.832c0.622,0.219 1.073,0.408 1.354,0.568c-0.074,-0.707 -0.113,-1.193 -0.117,-1.459l0.849,0c-0.011,0.387 -0.056,0.871 -0.134,1.453c0.402,-0.203 0.863,-0.39 1.382,-0.562l0.27,0.832c-0.496,0.164 -0.982,0.273 -1.459,0.328c0.238,0.207 0.574,0.576 1.008,1.108l-0.703,0.498c-0.227,-0.309 -0.495,-0.729 -0.803,-1.26c-0.289,0.551 -0.543,0.971 -0.762,1.26l-0.691,-0.498c0.453,-0.559 0.777,-0.928 0.972,-1.108c-0.503,-0.098 -0.982,-0.207 -1.435,-0.328Z" style="fill:#7c41ba;fill-rule:nonzero;"/><path d="M297.467,221.582l0.269,-0.832c0.621,0.219 1.073,0.408 1.354,0.568c-0.074,-0.707 -0.113,-1.193 -0.117,-1.459l0.849,0c-0.011,0.387 -0.056,0.871 -0.134,1.453c0.402,-0.203 0.863,-0.39 1.382,-0.562l0.27,0.832c-0.496,0.164 -0.983,0.273 -1.459,0.328c0.238,0.207 0.574,0.576 1.008,1.108l-0.703,0.498c-0.227,-0.309 -0.495,-0.729 -0.803,-1.26c-0.289,0.551 -0.543,0.971 -0.762,1.26l-0.691,-0.498c0.453,-0.559 0.777,-0.928 0.972,-1.108c-0.504,-0.098 -0.982,-0.207 -1.435,-0.328Z" style="fill:#7c41ba;fill-rule:nonzero;"/></g><g><path d="M115.375,256.703l0.27,-0.832c0.621,0.219 1.072,0.408 1.353,0.568c-0.074,-0.707 -0.113,-1.193 -0.117,-1.459l0.849,0c-0.011,0.387 -0.056,0.872 -0.134,1.454c0.402,-0.204 0.863,-0.391 1.383,-0.563l0.269,0.832c-0.496,0.164 -0.982,0.274 -1.459,0.328c0.238,0.207 0.574,0.576 1.008,1.108l-0.703,0.498c-0.227,-0.309 -0.494,-0.729 -0.803,-1.26c-0.289,0.551 -0.543,0.971 -0.762,1.26l-0.691,-0.498c0.453,-0.559 0.777,-0.928 0.973,-1.108c-0.504,-0.097 -0.983,-0.207 -1.436,-0.328Z" style="fill:#7c41ba;fill-rule:nonzero;"/><path d="M120.045,256.703l0.269,-0.832c0.622,0.219 1.073,0.408 1.354,0.568c-0.074,-0.707 -0.113,-1.193 -0.117,-1.459l0.849,0c-0.011,0.387 -0.056,0.872 -0.134,1.454c0.402,-0.204 0.863,-0.391 1.382,-0.563l0.27,0.832c-0.496,0.164 -0.982,0.274 -1.459,0.328c0.238,0.207 0.574,0.576 1.008,1.108l-0.703,0.498c-0.227,-0.309 -0.494,-0.729 -0.803,-1.26c-0.289,0.551 -0.543,0.971 -0.762,1.26l-0.691,-0.498c0.453,-0.559 0.777,-0.928 0.972,-1.108c-0.503,-0.097 -0.982,-0.207 -1.435,-0.328Z" style="fill:#7c41ba;fill-rule:nonzero;"/><path d="M124.715,256.703l0.269,-0.832c0.621,0.219 1.073,0.408 1.354,0.568c-0.074,-0.707 -0.113,-1.193 -0.117,-1.459l0.849,0c-0.011,0.387 -0.056,0.872 -0.134,1.454c0.402,-0.204 0.863,-0.391 1.382,-0.563l0.27,0.832c-0.496,0.164 -0.983,0.274 -1.459,0.328c0.238,0.207 0.574,0.576 1.008,1.108l-0.703,0.498c-0.227,-0.309 -0.495,-0.729 -0.803,-1.26c-0.289,0.551 -0.543,0.971 -0.762,1.26l-0.691,-0.498c0.453,-0.559 0.777,-0.928 0.972,-1.108c-0.504,-0.097 -0.982,-0.207 -1.435,-0.328Z" style="fill:#7c41ba;fill-rule:nonzero;"/><path d="M129.385,256.703l0.269,-0.832c0.621,0.219 1.073,0.408 1.354,0.568c-0.074,-0.707 -0.113,-1.193 -0.117,-1.459l0.849,0c-0.011,0.387 -0.056,0.872 -0.135,1.454c0.403,-0.204 0.864,-0.391 1.383,-0.563l0.27,0.832c-0.496,0.164 -0.983,0.274 -1.459,0.328c0.238,0.207 0.574,0.576 1.008,1.108l-0.703,0.498c-0.227,-0.309 -0.495,-0.729 -0.803,-1.26c-0.289,0.551 -0.543,0.971 -0.762,1.26l-0.691,-0.498c0.453,-0.559 0.777,-0.928 0.972,-1.108c-0.504,-0.097 -0.982,-0.207 -1.435,-0.328Z" style="fill:#7c41ba;fill-rule:nonzero;"/><path d="M134.055,256.703l0.269,-0.832c0.621,0.219 1.072,0.408 1.354,0.568c-0.074,-0.707 -0.114,-1.193 -0.117,-1.459l0.849,0c-0.012,0.387 -0.056,0.872 -0.135,1.454c0.403,-0.204 0.864,-0.391 1.383,-0.563l0.27,0.832c-0.496,0.164 -0.983,0.274 -1.459,0.328c0.238,0.207 0.574,0.576 1.008,1.108l-0.704,0.498c-0.226,-0.309 -0.494,-0.729 -0.802,-1.26c-0.289,0.551 -0.543,0.971 -0.762,1.26l-0.691,-0.498c0.453,-0.559 0.777,-0.928 0.972,-1.108c-0.504,-0.097 -0.982,-0.207 -1.435,-0.328Z" style="fill:#7c41ba;fill-rule:nonzero;"/><path d="M138.725,256.703l0.269,-0.832c0.621,0.219 1.072,0.408 1.354,0.568c-0.075,-0.707 -0.114,-1.193 -0.118,-1.459l0.85,0c-0.012,0.387 -0.057,0.872 -0.135,1.454c0.403,-0.204 0.864,-0.391 1.383,-0.563l0.27,0.832c-0.496,0.164 -0.983,0.274 -1.459,0.328c0.238,0.207 0.574,0.576 1.007,1.108l-0.703,0.498c-0.226,-0.309 -0.494,-0.729 -0.802,-1.26c-0.289,0.551 -0.543,0.971 -0.762,1.26l-0.691,-0.498c0.453,-0.559 0.777,-0.928 0.972,-1.108c-0.504,-0.097 -0.982,-0.207 -1.435,-0.328Z" style="fill:#7c41ba;fill-rule:nonzero;"/><path d="M143.395,256.703l0.269,-0.832c0.621,0.219 1.072,0.408 1.354,0.568c-0.075,-0.707 -0.114,-1.193 -0.118,-1.459l0.85,0c-0.012,0.387 -0.057,0.872 -0.135,1.454c0.403,-0.204 0.864,-0.391 1.383,-0.563l0.27,0.832c-0.497,0.164 -0.983,0.274 -1.459,0.328c0.238,0.207 0.574,0.576 1.007,1.108l-0.703,0.498c-0.226,-0.309 -0.494,-0.729 -0.802,-1.26c-0.29,0.551 -0.543,0.971 -0.762,1.26l-0.692,-0.498c0.454,-0.559 0.778,-0.928 0.973,-1.108c-0.504,-0.097 -0.982,-0.207 -1.435,-0.328Z" style="fill:#7c41ba;fill-rule:nonzero;"/><path d="M148.064,256.703l0.27,-0.832c0.621,0.219 1.072,0.408 1.354,0.568c-0.075,-0.707 -0.114,-1.193 -0.118,-1.459l0.85,0c-0.012,0.387 -0.057,0.872 -0.135,1.454c0.403,-0.204 0.863,-0.391 1.383,-0.563l0.27,0.832c-0.497,0.164 -0.983,0.274 -1.459,0.328c0.238,0.207 0.574,0.576 1.007,1.108l-0.703,0.498c-0.226,-0.309 -0.494,-0.729 -0.803,-1.26c-0.289,0.551 -0.542,0.971 -0.761,1.26l-0.692,-0.498c0.453,-0.559 0.778,-0.928 0.973,-1.108c-0.504,-0.097 -0.982,-0.207 -1.436,-0.328Z" style="fill:#7c41ba;fill-rule:nonzero;"/><path d="M152.734,256.703l0.27,-0.832c0.621,0.219 1.072,0.408 1.353,0.568c-0.074,-0.707 -0.113,-1.193 -0.117,-1.459l0.85,0c-0.012,0.387 -0.057,0.872 -0.135,1.454c0.402,-0.204 0.863,-0.391 1.383,-0.563l0.269,0.832c-0.496,0.164 -0.982,0.274 -1.459,0.328c0.239,0.207 0.575,0.576 1.008,1.108l-0.703,0.498c-0.226,-0.309 -0.494,-0.729 -0.803,-1.26c-0.289,0.551 -0.543,0.971 -0.761,1.26l-0.692,-0.498c0.453,-0.559 0.778,-0.928 0.973,-1.108c-0.504,-0.097 -0.982,-0.207 -1.436,-0.328Z" style="fill:#7c41ba;fill-rule:nonzero;"/><path d="M157.404,256.703l0.27,-0.832c0.621,0.219 1.072,0.408 1.353,0.568c-0.074,-0.707 -0.113,-1.193 -0.117,-1.459l0.85,0c-0.012,0.387 -0.057,0.872 -0.135,1.454c0.402,-0.204 0.863,-0.391 1.383,-0.563l0.269,0.832c-0.496,0.164 -0.982,0.274 -1.459,0.328c0.239,0.207 0.575,0.576 1.008,1.108l-0.703,0.498c-0.227,-0.309 -0.494,-0.729 -0.803,-1.26c-0.289,0.551 -0.543,0.971 -0.761,1.26l-0.692,-0.498c0.453,-0.559 0.778,-0.928 0.973,-1.108c-0.504,-0.097 -0.983,-0.207 -1.436,-0.328Z" style="fill:#7c41ba;fill-rule:nonzero;"/><path d="M179.98,260.348l0,-1.008l3.639,-0.006l0,3.187c-0.558,0.446 -1.135,0.781 -1.728,1.005c-0.594,0.225 -1.203,0.337 -1.828,0.337c-0.844,0 -1.611,-0.18 -2.3,-0.542c-0.69,-0.361 -1.21,-0.884 -1.562,-1.567c-0.351,-0.684 -0.527,-1.447 -0.527,-2.291c0,-0.836 0.175,-1.616 0.524,-2.341c0.35,-0.725 0.853,-1.263 1.509,-1.614c0.656,-0.352 1.412,-0.528 2.268,-0.528c0.621,0 1.182,0.101 1.684,0.302c0.502,0.201 0.896,0.482 1.181,0.841c0.285,0.359 0.502,0.828 0.65,1.406l-1.025,0.282c-0.129,-0.438 -0.289,-0.782 -0.481,-1.032c-0.191,-0.25 -0.464,-0.45 -0.82,-0.6c-0.355,-0.151 -0.75,-0.226 -1.184,-0.226c-0.519,0 -0.968,0.079 -1.347,0.237c-0.379,0.159 -0.685,0.367 -0.917,0.624c-0.233,0.258 -0.413,0.541 -0.542,0.85c-0.219,0.531 -0.328,1.107 -0.328,1.729c0,0.765 0.132,1.406 0.395,1.921c0.264,0.516 0.648,0.899 1.152,1.149c0.503,0.25 1.039,0.375 1.605,0.375c0.492,0 0.973,-0.095 1.441,-0.284c0.469,-0.19 0.825,-0.392 1.067,-0.607l0,-1.599l-2.526,0Z" style="fill:#7c41ba;fill-rule:nonzero;"/><path d="M186.309,263.717l-1.905,-6.223l1.09,0l0.99,3.592l0.37,1.336c0.015,-0.067 0.123,-0.494 0.322,-1.283l0.99,-3.645l1.084,0l0.932,3.61l0.31,1.189l0.358,-1.201l1.066,-3.598l1.025,0l-1.945,6.223l-1.096,0l-0.99,-3.727l-0.24,-1.06l-1.26,4.787l-1.101,0Z" style="fill:#7c41ba;fill-rule:nonzero;"/><path d="M197.863,263.717l0,-0.785c-0.394,0.617 -0.974,0.925 -1.74,0.925c-0.496,0 -0.952,-0.136 -1.368,-0.41c-0.416,-0.273 -0.738,-0.655 -0.967,-1.145c-0.228,-0.49 -0.343,-1.054 -0.343,-1.691c0,-0.621 0.104,-1.184 0.311,-1.69c0.207,-0.506 0.517,-0.894 0.932,-1.163c0.414,-0.27 0.876,-0.404 1.388,-0.404c0.375,0 0.709,0.079 1.002,0.237c0.293,0.158 0.531,0.364 0.715,0.618l0,-3.082l1.049,0l0,8.59l-0.979,0Zm-3.334,-3.106c0,0.797 0.168,1.393 0.504,1.787c0.336,0.395 0.733,0.592 1.19,0.592c0.461,0 0.852,-0.188 1.174,-0.565c0.323,-0.377 0.484,-0.952 0.484,-1.726c0,-0.851 -0.164,-1.476 -0.492,-1.875c-0.328,-0.398 -0.733,-0.597 -1.213,-0.597c-0.469,0 -0.861,0.191 -1.175,0.574c-0.314,0.383 -0.472,0.986 -0.472,1.81Z" style="fill:#7c41ba;fill-rule:nonzero;"/><path d="M199.691,263.717l3.299,-8.59l1.225,0l3.515,8.59l-1.294,0l-1.002,-2.602l-3.592,0l-0.944,2.602l-1.207,0Zm2.479,-3.528l2.912,0l-0.896,-2.378c-0.274,-0.723 -0.477,-1.317 -0.61,-1.782c-0.109,0.551 -0.263,1.098 -0.463,1.641l-0.943,2.519Z" style="fill:#7c41ba;fill-rule:nonzero;"/><path d="M212.658,260.348l0,-1.008l3.639,-0.006l0,3.187c-0.559,0.446 -1.135,0.781 -1.729,1.005c-0.593,0.225 -1.203,0.337 -1.828,0.337c-0.844,0 -1.61,-0.18 -2.3,-0.542c-0.689,-0.361 -1.21,-0.884 -1.561,-1.567c-0.352,-0.684 -0.527,-1.447 -0.527,-2.291c0,-0.836 0.174,-1.616 0.524,-2.341c0.35,-0.725 0.853,-1.263 1.509,-1.614c0.656,-0.352 1.412,-0.528 2.267,-0.528c0.621,0 1.183,0.101 1.685,0.302c0.502,0.201 0.895,0.482 1.181,0.841c0.285,0.359 0.502,0.828 0.65,1.406l-1.025,0.282c-0.129,-0.438 -0.289,-0.782 -0.481,-1.032c-0.191,-0.25 -0.465,-0.45 -0.82,-0.6c-0.356,-0.151 -0.75,-0.226 -1.184,-0.226c-0.519,0 -0.969,0.079 -1.347,0.237c-0.379,0.159 -0.685,0.367 -0.917,0.624c-0.233,0.258 -0.414,0.541 -0.542,0.85c-0.219,0.531 -0.329,1.107 -0.329,1.729c0,0.765 0.132,1.406 0.396,1.921c0.264,0.516 0.647,0.899 1.151,1.149c0.504,0.25 1.039,0.375 1.606,0.375c0.492,0 0.972,-0.095 1.441,-0.284c0.469,-0.19 0.824,-0.392 1.067,-0.607l0,-1.599l-2.526,0Z" style="fill:#7c41ba;fill-rule:nonzero;"/><path d="M217.961,263.717l0,-8.59l1.166,0l4.512,6.744l0,-6.744l1.09,0l0,8.59l-1.166,0l-4.512,-6.75l0,6.75l-1.09,0Z" style="fill:#7c41ba;fill-rule:nonzero;"/><path d="M226.639,263.717l0,-8.59l3.24,0c0.57,0 1.006,0.027 1.307,0.082c0.421,0.07 0.775,0.204 1.06,0.401c0.285,0.198 0.515,0.474 0.689,0.829c0.173,0.356 0.26,0.747 0.26,1.172c0,0.731 -0.232,1.349 -0.697,1.855c-0.465,0.506 -1.305,0.759 -2.519,0.759l-2.204,0l0,3.492l-1.136,0Zm1.136,-4.506l2.221,0c0.734,0 1.256,-0.137 1.565,-0.41c0.308,-0.274 0.462,-0.658 0.462,-1.155c0,-0.359 -0.09,-0.667 -0.272,-0.922c-0.182,-0.256 -0.421,-0.425 -0.718,-0.507c-0.191,-0.051 -0.545,-0.076 -1.06,-0.076l-2.198,0l0,3.07Z" style="fill:#7c41ba;fill-rule:nonzero;"/><path d="M234.596,263.717l0,-8.59l1.136,0l0,7.576l4.231,0l0,1.014l-5.367,0Z" style="fill:#7c41ba;fill-rule:nonzero;"/><path d="M256.99,256.703l0.27,-0.832c0.621,0.219 1.072,0.408 1.353,0.568c-0.074,-0.707 -0.113,-1.193 -0.117,-1.459l0.85,0c-0.012,0.387 -0.057,0.872 -0.135,1.454c0.402,-0.204 0.863,-0.391 1.383,-0.563l0.269,0.832c-0.496,0.164 -0.982,0.274 -1.459,0.328c0.239,0.207 0.575,0.576 1.008,1.108l-0.703,0.498c-0.227,-0.309 -0.494,-0.729 -0.803,-1.26c-0.289,0.551 -0.543,0.971 -0.761,1.26l-0.692,-0.498c0.453,-0.559 0.777,-0.928 0.973,-1.108c-0.504,-0.097 -0.983,-0.207 -1.436,-0.328Z" style="fill:#7c41ba;fill-rule:nonzero;"/><path d="M261.66,256.703l0.27,-0.832c0.621,0.219 1.072,0.408 1.353,0.568c-0.074,-0.707 -0.113,-1.193 -0.117,-1.459l0.85,0c-0.012,0.387 -0.057,0.872 -0.135,1.454c0.402,-0.204 0.863,-0.391 1.383,-0.563l0.269,0.832c-0.496,0.164 -0.982,0.274 -1.459,0.328c0.239,0.207 0.574,0.576 1.008,1.108l-0.703,0.498c-0.227,-0.309 -0.494,-0.729 -0.803,-1.26c-0.289,0.551 -0.543,0.971 -0.762,1.26l-0.691,-0.498c0.453,-0.559 0.777,-0.928 0.973,-1.108c-0.504,-0.097 -0.983,-0.207 -1.436,-0.328Z" style="fill:#7c41ba;fill-rule:nonzero;"/><path d="M266.33,256.703l0.27,-0.832c0.621,0.219 1.072,0.408 1.353,0.568c-0.074,-0.707 -0.113,-1.193 -0.117,-1.459l0.85,0c-0.012,0.387 -0.057,0.872 -0.135,1.454c0.402,-0.204 0.863,-0.391 1.383,-0.563l0.269,0.832c-0.496,0.164 -0.982,0.274 -1.459,0.328c0.238,0.207 0.574,0.576 1.008,1.108l-0.703,0.498c-0.227,-0.309 -0.494,-0.729 -0.803,-1.26c-0.289,0.551 -0.543,0.971 -0.762,1.26l-0.691,-0.498c0.453,-0.559 0.777,-0.928 0.973,-1.108c-0.504,-0.097 -0.983,-0.207 -1.436,-0.328Z" style="fill:#7c41ba;fill-rule:nonzero;"/><path d="M271,256.703l0.27,-0.832c0.621,0.219 1.072,0.408 1.353,0.568c-0.074,-0.707 -0.113,-1.193 -0.117,-1.459l0.849,0c-0.011,0.387 -0.056,0.872 -0.134,1.454c0.402,-0.204 0.863,-0.391 1.383,-0.563l0.269,0.832c-0.496,0.164 -0.982,0.274 -1.459,0.328c0.238,0.207 0.574,0.576 1.008,1.108l-0.703,0.498c-0.227,-0.309 -0.494,-0.729 -0.803,-1.26c-0.289,0.551 -0.543,0.971 -0.762,1.26l-0.691,-0.498c0.453,-0.559 0.777,-0.928 0.973,-1.108c-0.504,-0.097 -0.983,-0.207 -1.436,-0.328Z" style="fill:#7c41ba;fill-rule:nonzero;"/><path d="M285.01,256.703l0.269,-0.832c0.621,0.219 1.073,0.408 1.354,0.568c-0.074,-0.707 -0.113,-1.193 -0.117,-1.459l0.849,0c-0.011,0.387 -0.056,0.872 -0.135,1.454c0.403,-0.204 0.864,-0.391 1.383,-0.563l0.27,0.832c-0.496,0.164 -0.983,0.274 -1.459,0.328c0.238,0.207 0.574,0.576 1.008,1.108l-0.703,0.498c-0.227,-0.309 -0.495,-0.729 -0.803,-1.26c-0.289,0.551 -0.543,0.971 -0.762,1.26l-0.691,-0.498c0.453,-0.559 0.777,-0.928 0.972,-1.108c-0.504,-0.097 -0.982,-0.207 -1.435,-0.328Z" style="fill:#7c41ba;fill-rule:nonzero;"/><path d="M289.68,256.703l0.269,-0.832c0.621,0.219 1.072,0.408 1.354,0.568c-0.074,-0.707 -0.114,-1.193 -0.117,-1.459l0.849,0c-0.012,0.387 -0.056,0.872 -0.135,1.454c0.403,-0.204 0.864,-0.391 1.383,-0.563l0.27,0.832c-0.496,0.164 -0.983,0.274 -1.459,0.328c0.238,0.207 0.574,0.576 1.008,1.108l-0.704,0.498c-0.226,-0.309 -0.494,-0.729 -0.802,-1.26c-0.289,0.551 -0.543,0.971 -0.762,1.26l-0.691,-0.498c0.453,-0.559 0.777,-0.928 0.972,-1.108c-0.504,-0.097 -0.982,-0.207 -1.435,-0.328Z" style="fill:#7c41ba;fill-rule:nonzero;"/><path d="M294.35,256.703l0.269,-0.832c0.621,0.219 1.072,0.408 1.354,0.568c-0.075,-0.707 -0.114,-1.193 -0.118,-1.459l0.85,0c-0.012,0.387 -0.057,0.872 -0.135,1.454c0.403,-0.204 0.864,-0.391 1.383,-0.563l0.27,0.832c-0.496,0.164 -0.983,0.274 -1.459,0.328c0.238,0.207 0.574,0.576 1.007,1.108l-0.703,0.498c-0.226,-0.309 -0.494,-0.729 -0.802,-1.26c-0.289,0.551 -0.543,0.971 -0.762,1.26l-0.691,-0.498c0.453,-0.559 0.777,-0.928 0.972,-1.108c-0.504,-0.097 -0.982,-0.207 -1.435,-0.328Z" style="fill:#7c41ba;fill-rule:nonzero;"/><path d="M299.02,256.703l0.269,-0.832c0.621,0.219 1.072,0.408 1.354,0.568c-0.075,-0.707 -0.114,-1.193 -0.118,-1.459l0.85,0c-0.012,0.387 -0.057,0.872 -0.135,1.454c0.403,-0.204 0.864,-0.391 1.383,-0.563l0.27,0.832c-0.497,0.164 -0.983,0.274 -1.459,0.328c0.238,0.207 0.574,0.576 1.007,1.108l-0.703,0.498c-0.226,-0.309 -0.494,-0.729 -0.802,-1.26c-0.29,0.551 -0.543,0.971 -0.762,1.26l-0.692,-0.498c0.454,-0.559 0.778,-0.928 0.973,-1.108c-0.504,-0.097 -0.982,-0.207 -1.435,-0.328Z" style="fill:#7c41ba;fill-rule:nonzero;"/></g><g><path d="M115.375,291.824l0.27,-0.832c0.621,0.219 1.072,0.408 1.353,0.569c-0.074,-0.707 -0.113,-1.194 -0.117,-1.459l0.849,0c-0.011,0.386 -0.056,0.871 -0.134,1.453c0.402,-0.203 0.863,-0.391 1.383,-0.563l0.269,0.832c-0.496,0.164 -0.982,0.274 -1.459,0.328c0.238,0.207 0.574,0.577 1.008,1.108l-0.703,0.498c-0.227,-0.309 -0.494,-0.729 -0.803,-1.26c-0.289,0.551 -0.543,0.971 -0.762,1.26l-0.691,-0.498c0.453,-0.559 0.777,-0.928 0.973,-1.108c-0.504,-0.097 -0.983,-0.207 -1.436,-0.328Z" style="fill:#7c41ba;fill-rule:nonzero;"/><path d="M120.045,291.824l0.269,-0.832c0.622,0.219 1.073,0.408 1.354,0.569c-0.074,-0.707 -0.113,-1.194 -0.117,-1.459l0.849,0c-0.011,0.386 -0.056,0.871 -0.134,1.453c0.402,-0.203 0.863,-0.391 1.382,-0.563l0.27,0.832c-0.496,0.164 -0.982,0.274 -1.459,0.328c0.238,0.207 0.574,0.577 1.008,1.108l-0.703,0.498c-0.227,-0.309 -0.494,-0.729 -0.803,-1.26c-0.289,0.551 -0.543,0.971 -0.762,1.26l-0.691,-0.498c0.453,-0.559 0.777,-0.928 0.972,-1.108c-0.503,-0.097 -0.982,-0.207 -1.435,-0.328Z" style="fill:#7c41ba;fill-rule:nonzero;"/><path d="M124.715,291.824l0.269,-0.832c0.621,0.219 1.073,0.408 1.354,0.569c-0.074,-0.707 -0.113,-1.194 -0.117,-1.459l0.849,0c-0.011,0.386 -0.056,0.871 -0.134,1.453c0.402,-0.203 0.863,-0.391 1.382,-0.563l0.27,0.832c-0.496,0.164 -0.983,0.274 -1.459,0.328c0.238,0.207 0.574,0.577 1.008,1.108l-0.703,0.498c-0.227,-0.309 -0.495,-0.729 -0.803,-1.26c-0.289,0.551 -0.543,0.971 -0.762,1.26l-0.691,-0.498c0.453,-0.559 0.777,-0.928 0.972,-1.108c-0.504,-0.097 -0.982,-0.207 -1.435,-0.328Z" style="fill:#7c41ba;fill-rule:nonzero;"/><path d="M129.385,291.824l0.269,-0.832c0.621,0.219 1.073,0.408 1.354,0.569c-0.074,-0.707 -0.113,-1.194 -0.117,-1.459l0.849,0c-0.011,0.386 -0.056,0.871 -0.135,1.453c0.403,-0.203 0.864,-0.391 1.383,-0.563l0.27,0.832c-0.496,0.164 -0.983,0.274 -1.459,0.328c0.238,0.207 0.574,0.577 1.008,1.108l-0.703,0.498c-0.227,-0.309 -0.495,-0.729 -0.803,-1.26c-0.289,0.551 -0.543,0.971 -0.762,1.26l-0.691,-0.498c0.453,-0.559 0.777,-0.928 0.972,-1.108c-0.504,-0.097 -0.982,-0.207 -1.435,-0.328Z" style="fill:#7c41ba;fill-rule:nonzero;"/><path d="M134.055,291.824l0.269,-0.832c0.621,0.219 1.072,0.408 1.354,0.569c-0.074,-0.707 -0.114,-1.194 -0.117,-1.459l0.849,0c-0.012,0.386 -0.056,0.871 -0.135,1.453c0.403,-0.203 0.864,-0.391 1.383,-0.563l0.27,0.832c-0.496,0.164 -0.983,0.274 -1.459,0.328c0.238,0.207 0.574,0.577 1.008,1.108l-0.704,0.498c-0.226,-0.309 -0.494,-0.729 -0.802,-1.26c-0.289,0.551 -0.543,0.971 -0.762,1.26l-0.691,-0.498c0.453,-0.559 0.777,-0.928 0.972,-1.108c-0.504,-0.097 -0.982,-0.207 -1.435,-0.328Z" style="fill:#7c41ba;fill-rule:nonzero;"/><path d="M138.725,291.824l0.269,-0.832c0.621,0.219 1.072,0.408 1.354,0.569c-0.075,-0.707 -0.114,-1.194 -0.118,-1.459l0.85,0c-0.012,0.386 -0.057,0.871 -0.135,1.453c0.403,-0.203 0.864,-0.391 1.383,-0.563l0.27,0.832c-0.496,0.164 -0.983,0.274 -1.459,0.328c0.238,0.207 0.574,0.577 1.007,1.108l-0.703,0.498c-0.226,-0.309 -0.494,-0.729 -0.802,-1.26c-0.289,0.551 -0.543,0.971 -0.762,1.26l-0.691,-0.498c0.453,-0.559 0.777,-0.928 0.972,-1.108c-0.504,-0.097 -0.982,-0.207 -1.435,-0.328Z" style="fill:#7c41ba;fill-rule:nonzero;"/><path d="M143.395,291.824l0.269,-0.832c0.621,0.219 1.072,0.408 1.354,0.569c-0.075,-0.707 -0.114,-1.194 -0.118,-1.459l0.85,0c-0.012,0.386 -0.057,0.871 -0.135,1.453c0.403,-0.203 0.864,-0.391 1.383,-0.563l0.27,0.832c-0.497,0.164 -0.983,0.274 -1.459,0.328c0.238,0.207 0.574,0.577 1.007,1.108l-0.703,0.498c-0.226,-0.309 -0.494,-0.729 -0.802,-1.26c-0.29,0.551 -0.543,0.971 -0.762,1.26l-0.692,-0.498c0.454,-0.559 0.778,-0.928 0.973,-1.108c-0.504,-0.097 -0.982,-0.207 -1.435,-0.328Z" style="fill:#7c41ba;fill-rule:nonzero;"/><path d="M148.064,291.824l0.27,-0.832c0.621,0.219 1.072,0.408 1.354,0.569c-0.075,-0.707 -0.114,-1.194 -0.118,-1.459l0.85,0c-0.012,0.386 -0.057,0.871 -0.135,1.453c0.403,-0.203 0.863,-0.391 1.383,-0.563l0.27,0.832c-0.497,0.164 -0.983,0.274 -1.459,0.328c0.238,0.207 0.574,0.577 1.007,1.108l-0.703,0.498c-0.226,-0.309 -0.494,-0.729 -0.803,-1.26c-0.289,0.551 -0.542,0.971 -0.761,1.26l-0.692,-0.498c0.453,-0.559 0.778,-0.928 0.973,-1.108c-0.504,-0.097 -0.982,-0.207 -1.436,-0.328Z" style="fill:#7c41ba;fill-rule:nonzero;"/><path d="M152.734,291.824l0.27,-0.832c0.621,0.219 1.072,0.408 1.353,0.569c-0.074,-0.707 -0.113,-1.194 -0.117,-1.459l0.85,0c-0.012,0.386 -0.057,0.871 -0.135,1.453c0.402,-0.203 0.863,-0.391 1.383,-0.563l0.269,0.832c-0.496,0.164 -0.982,0.274 -1.459,0.328c0.239,0.207 0.575,0.577 1.008,1.108l-0.703,0.498c-0.226,-0.309 -0.494,-0.729 -0.803,-1.26c-0.289,0.551 -0.543,0.971 -0.761,1.26l-0.692,-0.498c0.453,-0.559 0.778,-0.928 0.973,-1.108c-0.504,-0.097 -0.982,-0.207 -1.436,-0.328Z" style="fill:#7c41ba;fill-rule:nonzero;"/><path d="M157.404,291.824l0.27,-0.832c0.621,0.219 1.072,0.408 1.353,0.569c-0.074,-0.707 -0.113,-1.194 -0.117,-1.459l0.85,0c-0.012,0.386 -0.057,0.871 -0.135,1.453c0.402,-0.203 0.863,-0.391 1.383,-0.563l0.269,0.832c-0.496,0.164 -0.982,0.274 -1.459,0.328c0.239,0.207 0.575,0.577 1.008,1.108l-0.703,0.498c-0.227,-0.309 -0.494,-0.729 -0.803,-1.26c-0.289,0.551 -0.543,0.971 -0.761,1.26l-0.692,-0.498c0.453,-0.559 0.778,-0.928 0.973,-1.108c-0.504,-0.097 -0.983,-0.207 -1.436,-0.328Z" style="fill:#7c41ba;fill-rule:nonzero;"/><path d="M185.412,291.824l0.27,-0.832c0.621,0.219 1.072,0.408 1.353,0.569c-0.074,-0.707 -0.113,-1.194 -0.117,-1.459l0.85,0c-0.012,0.386 -0.057,0.871 -0.135,1.453c0.402,-0.203 0.863,-0.391 1.383,-0.563l0.269,0.832c-0.496,0.164 -0.982,0.274 -1.459,0.328c0.238,0.207 0.574,0.577 1.008,1.108l-0.703,0.498c-0.227,-0.309 -0.494,-0.729 -0.803,-1.26c-0.289,0.551 -0.543,0.971 -0.762,1.26l-0.691,-0.498c0.453,-0.559 0.777,-0.928 0.973,-1.108c-0.504,-0.097 -0.983,-0.207 -1.436,-0.328Z" style="fill:#7c41ba;fill-rule:nonzero;"/><path d="M190.082,291.824l0.27,-0.832c0.621,0.219 1.072,0.408 1.353,0.569c-0.074,-0.707 -0.113,-1.194 -0.117,-1.459l0.85,0c-0.012,0.386 -0.057,0.871 -0.135,1.453c0.402,-0.203 0.863,-0.391 1.383,-0.563l0.269,0.832c-0.496,0.164 -0.982,0.274 -1.459,0.328c0.238,0.207 0.574,0.577 1.008,1.108l-0.703,0.498c-0.227,-0.309 -0.494,-0.729 -0.803,-1.26c-0.289,0.551 -0.543,0.971 -0.762,1.26l-0.691,-0.498c0.453,-0.559 0.777,-0.928 0.973,-1.108c-0.504,-0.097 -0.983,-0.207 -1.436,-0.328Z" style="fill:#7c41ba;fill-rule:nonzero;"/><path d="M194.752,291.824l0.269,-0.832c0.622,0.219 1.073,0.408 1.354,0.569c-0.074,-0.707 -0.113,-1.194 -0.117,-1.459l0.849,0c-0.011,0.386 -0.056,0.871 -0.134,1.453c0.402,-0.203 0.863,-0.391 1.382,-0.563l0.27,0.832c-0.496,0.164 -0.982,0.274 -1.459,0.328c0.238,0.207 0.574,0.577 1.008,1.108l-0.703,0.498c-0.227,-0.309 -0.494,-0.729 -0.803,-1.26c-0.289,0.551 -0.543,0.971 -0.762,1.26l-0.691,-0.498c0.453,-0.559 0.777,-0.928 0.973,-1.108c-0.504,-0.097 -0.983,-0.207 -1.436,-0.328Z" style="fill:#7c41ba;fill-rule:nonzero;"/><path d="M199.422,291.824l0.269,-0.832c0.622,0.219 1.073,0.408 1.354,0.569c-0.074,-0.707 -0.113,-1.194 -0.117,-1.459l0.849,0c-0.011,0.386 -0.056,0.871 -0.134,1.453c0.402,-0.203 0.863,-0.391 1.382,-0.563l0.27,0.832c-0.496,0.164 -0.982,0.274 -1.459,0.328c0.238,0.207 0.574,0.577 1.008,1.108l-0.703,0.498c-0.227,-0.309 -0.495,-0.729 -0.803,-1.26c-0.289,0.551 -0.543,0.971 -0.762,1.26l-0.691,-0.498c0.453,-0.559 0.777,-0.928 0.972,-1.108c-0.503,-0.097 -0.982,-0.207 -1.435,-0.328Z" style="fill:#7c41ba;fill-rule:nonzero;"/><path d="M204.092,291.824l0.269,-0.832c0.621,0.219 1.073,0.408 1.354,0.569c-0.074,-0.707 -0.113,-1.194 -0.117,-1.459l0.849,0c-0.011,0.386 -0.056,0.871 -0.134,1.453c0.402,-0.203 0.863,-0.391 1.382,-0.563l0.27,0.832c-0.496,0.164 -0.983,0.274 -1.459,0.328c0.238,0.207 0.574,0.577 1.008,1.108l-0.703,0.498c-0.227,-0.309 -0.495,-0.729 -0.803,-1.26c-0.289,0.551 -0.543,0.971 -0.762,1.26l-0.691,-0.498c0.453,-0.559 0.777,-0.928 0.972,-1.108c-0.504,-0.097 -0.982,-0.207 -1.435,-0.328Z" style="fill:#7c41ba;fill-rule:nonzero;"/><path d="M208.762,291.824l0.269,-0.832c0.621,0.219 1.073,0.408 1.354,0.569c-0.074,-0.707 -0.114,-1.194 -0.117,-1.459l0.849,0c-0.012,0.386 -0.056,0.871 -0.135,1.453c0.403,-0.203 0.864,-0.391 1.383,-0.563l0.27,0.832c-0.496,0.164 -0.983,0.274 -1.459,0.328c0.238,0.207 0.574,0.577 1.008,1.108l-0.704,0.498c-0.226,-0.309 -0.494,-0.729 -0.802,-1.26c-0.289,0.551 -0.543,0.971 -0.762,1.26l-0.691,-0.498c0.453,-0.559 0.777,-0.928 0.972,-1.108c-0.504,-0.097 -0.982,-0.207 -1.435,-0.328Z" style="fill:#7c41ba;fill-rule:nonzero;"/><path d="M213.432,291.824l0.269,-0.832c0.621,0.219 1.072,0.408 1.354,0.569c-0.075,-0.707 -0.114,-1.194 -0.117,-1.459l0.849,0c-0.012,0.386 -0.057,0.871 -0.135,1.453c0.403,-0.203 0.864,-0.391 1.383,-0.563l0.27,0.832c-0.496,0.164 -0.983,0.274 -1.459,0.328c0.238,0.207 0.574,0.577 1.008,1.108l-0.704,0.498c-0.226,-0.309 -0.494,-0.729 -0.802,-1.26c-0.289,0.551 -0.543,0.971 -0.762,1.26l-0.691,-0.498c0.453,-0.559 0.777,-0.928 0.972,-1.108c-0.504,-0.097 -0.982,-0.207 -1.435,-0.328Z" style="fill:#7c41ba;fill-rule:nonzero;"/><path d="M218.102,291.824l0.269,-0.832c0.621,0.219 1.072,0.408 1.354,0.569c-0.075,-0.707 -0.114,-1.194 -0.118,-1.459l0.85,0c-0.012,0.386 -0.057,0.871 -0.135,1.453c0.403,-0.203 0.864,-0.391 1.383,-0.563l0.27,0.832c-0.496,0.164 -0.983,0.274 -1.459,0.328c0.238,0.207 0.574,0.577 1.007,1.108l-0.703,0.498c-0.226,-0.309 -0.494,-0.729 -0.802,-1.26c-0.289,0.551 -0.543,0.971 -0.762,1.26l-0.692,-0.498c0.454,-0.559 0.778,-0.928 0.973,-1.108c-0.504,-0.097 -0.982,-0.207 -1.435,-0.328Z" style="fill:#7c41ba;fill-rule:nonzero;"/><path d="M222.771,291.824l0.27,-0.832c0.621,0.219 1.072,0.408 1.354,0.569c-0.075,-0.707 -0.114,-1.194 -0.118,-1.459l0.85,0c-0.012,0.386 -0.057,0.871 -0.135,1.453c0.403,-0.203 0.863,-0.391 1.383,-0.563l0.27,0.832c-0.497,0.164 -0.983,0.274 -1.459,0.328c0.238,0.207 0.574,0.577 1.007,1.108l-0.703,0.498c-0.226,-0.309 -0.494,-0.729 -0.802,-1.26c-0.29,0.551 -0.543,0.971 -0.762,1.26l-0.692,-0.498c0.454,-0.559 0.778,-0.928 0.973,-1.108c-0.504,-0.097 -0.982,-0.207 -1.436,-0.328Z" style="fill:#7c41ba;fill-rule:nonzero;"/><path d="M227.441,291.824l0.27,-0.832c0.621,0.219 1.072,0.408 1.353,0.569c-0.074,-0.707 -0.113,-1.194 -0.117,-1.459l0.85,0c-0.012,0.386 -0.057,0.871 -0.135,1.453c0.402,-0.203 0.863,-0.391 1.383,-0.563l0.269,0.832c-0.496,0.164 -0.982,0.274 -1.459,0.328c0.239,0.207 0.575,0.577 1.008,1.108l-0.703,0.498c-0.226,-0.309 -0.494,-0.729 -0.803,-1.26c-0.289,0.551 -0.543,0.971 -0.761,1.26l-0.692,-0.498c0.453,-0.559 0.778,-0.928 0.973,-1.108c-0.504,-0.097 -0.982,-0.207 -1.436,-0.328Z" style="fill:#7c41ba;fill-rule:nonzero;"/><path d="M256.838,298.838l-0.979,0l0,-8.59l1.055,0l0,3.064c0.445,-0.558 1.014,-0.837 1.705,-0.837c0.383,0 0.745,0.077 1.087,0.231c0.342,0.154 0.623,0.371 0.844,0.65c0.221,0.28 0.393,0.617 0.518,1.011c0.125,0.395 0.188,0.817 0.188,1.266c0,1.066 -0.264,1.89 -0.791,2.472c-0.527,0.582 -1.16,0.874 -1.899,0.874c-0.734,0 -1.31,-0.307 -1.728,-0.92l0,0.779Zm-0.012,-3.158c0,0.746 0.102,1.285 0.305,1.617c0.332,0.543 0.781,0.814 1.348,0.814c0.46,0 0.859,-0.2 1.195,-0.6c0.336,-0.401 0.504,-0.997 0.504,-1.79c0,-0.813 -0.161,-1.412 -0.484,-1.799c-0.322,-0.387 -0.712,-0.58 -1.169,-0.58c-0.461,0 -0.859,0.2 -1.195,0.6c-0.336,0.401 -0.504,0.98 -0.504,1.738Z" style="fill:#7c41ba;fill-rule:nonzero;"/><path d="M262.146,295.727c0,-1.153 0.321,-2.006 0.961,-2.561c0.536,-0.461 1.188,-0.691 1.957,-0.691c0.856,0 1.555,0.28 2.098,0.84c0.543,0.561 0.815,1.335 0.815,2.324c0,0.8 -0.121,1.43 -0.361,1.889c-0.24,0.459 -0.59,0.816 -1.049,1.07c-0.459,0.254 -0.96,0.381 -1.503,0.381c-0.871,0 -1.575,-0.28 -2.112,-0.838c-0.537,-0.559 -0.806,-1.364 -0.806,-2.414Zm1.084,0c0,0.796 0.174,1.393 0.522,1.79c0.348,0.396 0.785,0.594 1.312,0.594c0.524,0 0.959,-0.199 1.307,-0.597c0.348,-0.399 0.522,-1.006 0.522,-1.823c0,-0.769 -0.175,-1.352 -0.525,-1.749c-0.349,-0.396 -0.784,-0.594 -1.304,-0.594c-0.527,0 -0.964,0.197 -1.312,0.591c-0.348,0.395 -0.522,0.991 -0.522,1.788Z" style="fill:#7c41ba;fill-rule:nonzero;"/><path d="M269.365,298.838l0,-8.59l3.809,0c0.765,0 1.347,0.077 1.746,0.231c0.398,0.155 0.717,0.427 0.955,0.818c0.238,0.39 0.357,0.822 0.357,1.295c0,0.609 -0.197,1.123 -0.591,1.541c-0.395,0.418 -1.004,0.683 -1.828,0.797c0.3,0.144 0.529,0.287 0.685,0.427c0.332,0.305 0.647,0.686 0.943,1.143l1.495,2.338l-1.43,0l-1.137,-1.787c-0.332,-0.516 -0.605,-0.91 -0.82,-1.184c-0.215,-0.273 -0.407,-0.465 -0.577,-0.574c-0.17,-0.109 -0.343,-0.186 -0.519,-0.229c-0.129,-0.027 -0.34,-0.041 -0.633,-0.041l-1.318,0l0,3.815l-1.137,0Zm1.137,-4.799l2.443,0c0.52,0 0.926,-0.054 1.219,-0.161c0.293,-0.107 0.516,-0.279 0.668,-0.516c0.152,-0.236 0.229,-0.493 0.229,-0.77c0,-0.406 -0.148,-0.74 -0.443,-1.002c-0.295,-0.262 -0.761,-0.393 -1.397,-0.393l-2.719,0l0,2.842Z" style="fill:#7c41ba;fill-rule:nonzero;"/><path d="M278.037,298.838l0,-8.59l6.211,0l0,1.014l-5.074,0l0,2.631l4.752,0l0,1.007l-4.752,0l0,2.924l5.273,0l0,1.014l-6.41,0Z" style="fill:#7c41ba;fill-rule:nonzero;"/><path d="M290.143,296.834l1.089,0.135c-0.171,0.636 -0.49,1.131 -0.955,1.482c-0.464,0.352 -1.058,0.528 -1.781,0.528c-0.91,0 -1.632,-0.281 -2.165,-0.841c-0.533,-0.561 -0.8,-1.347 -0.8,-2.359c0,-1.047 0.27,-1.859 0.809,-2.437c0.539,-0.578 1.238,-0.867 2.098,-0.867c0.832,0 1.511,0.283 2.039,0.849c0.527,0.567 0.791,1.363 0.791,2.391c0,0.062 -0.002,0.156 -0.006,0.281l-4.641,0c0.039,0.684 0.233,1.207 0.58,1.57c0.348,0.364 0.781,0.545 1.301,0.545c0.387,0 0.717,-0.101 0.99,-0.304c0.274,-0.203 0.49,-0.528 0.651,-0.973Zm-3.463,-1.705l3.474,0c-0.047,-0.524 -0.179,-0.916 -0.398,-1.178c-0.336,-0.406 -0.772,-0.609 -1.307,-0.609c-0.484,0 -0.891,0.162 -1.221,0.486c-0.331,0.324 -0.513,0.758 -0.548,1.301Z" style="fill:#7c41ba;fill-rule:nonzero;"/><path d="M292.51,301.234l-0.117,-0.99c0.23,0.063 0.431,0.094 0.603,0.094c0.234,0 0.422,-0.039 0.563,-0.117c0.14,-0.078 0.255,-0.188 0.345,-0.328c0.067,-0.106 0.174,-0.368 0.323,-0.786c0.019,-0.058 0.05,-0.144 0.093,-0.257l-2.361,-6.235l1.137,0l1.295,3.604c0.168,0.457 0.318,0.937 0.451,1.441c0.121,-0.484 0.265,-0.957 0.433,-1.418l1.33,-3.627l1.055,0l-2.367,6.328c-0.254,0.684 -0.451,1.155 -0.592,1.412c-0.187,0.348 -0.402,0.603 -0.644,0.765c-0.243,0.162 -0.532,0.243 -0.868,0.243c-0.203,0 -0.429,-0.043 -0.679,-0.129Z" style="fill:#7c41ba;fill-rule:nonzero;"/><path d="M298.715,298.838l0,-8.59l6.211,0l0,1.014l-5.074,0l0,2.631l4.752,0l0,1.007l-4.752,0l0,2.924l5.273,0l0,1.014l-6.41,0Z" style="fill:#7c41ba;fill-rule:nonzero;"/><path d="M310.24,298.838l-1.054,0l0,-6.721c-0.254,0.242 -0.587,0.485 -0.999,0.727c-0.413,0.242 -0.783,0.424 -1.111,0.545l0,-1.02c0.59,-0.277 1.106,-0.613 1.547,-1.008c0.441,-0.394 0.754,-0.777 0.938,-1.148l0.679,0l0,8.625Z" style="fill:#7c41ba;fill-rule:nonzero;"/></g></g><g id="Ebene-113" serif:id="Ebene 1"></g><g id="Ebene-114" serif:id="Ebene 1"><g><path d="M590.469,306.839c0,1.826 -24.678,3.307 -55.125,3.307c-30.445,0 -55.125,-1.481 -55.125,-3.307c0,-1.826 24.68,-3.309 55.125,-3.309c30.447,0 55.125,1.483 55.125,3.309" style="fill:#e3d7ef;fill-rule:nonzero;"/><path d="M497.309,305.736l88.609,0c2.209,0 4,-1.791 4,-4l0,-84.609c0,-2.209 -1.791,-4 -4,-4l-88.609,0l0,92.609Z" style="fill:#fff;fill-rule:nonzero;stroke:#7c41ba;stroke-width:2px;"/><path d="M481.463,305.736l15.846,0l0,-92.609l-15.846,0c-2.209,0 -4,1.791 -4,4l0,84.609c0,2.209 1.791,4 4,4Z" style="fill:#fff;fill-rule:nonzero;stroke:#7c41ba;stroke-width:2px;"/><path d="M576.688,259.431c0,18.266 -14.809,33.074 -33.074,33.074c-18.268,0 -33.076,-14.808 -33.076,-33.074c0,-18.268 14.808,-33.074 33.076,-33.074c18.265,0 33.074,14.806 33.074,33.074" style="fill:#fff;fill-rule:nonzero;"/><path d="M576.688,259.431c0,-18.254 -14.821,-33.074 -33.075,-33.074c-18.255,0 -33.075,14.82 -33.075,33.074c0,18.254 14.82,33.074 33.075,33.074c18.254,0 33.075,-14.82 33.075,-33.074Z" style="fill:none;stroke:#7c41ba;stroke-width:2px;"/><path d="M571.395,259.431c0,-15.334 -12.449,-27.783 -27.782,-27.783c-15.334,0 -27.782,12.449 -27.782,27.783c0,15.334 12.448,27.783 27.782,27.783c15.333,0 27.782,-12.449 27.782,-27.783Z" style="fill:none;stroke:#7c41ba;stroke-width:2px;"/><path d="M564.779,259.431c0,-11.683 -9.484,-21.168 -21.167,-21.168c-11.682,0 -21.167,9.485 -21.167,21.168c0,11.683 9.485,21.168 21.167,21.168c11.683,0 21.167,-9.485 21.167,-21.168Z" style="fill:none;stroke:#7c41ba;stroke-width:2px;"/><path d="M564.008,233.746l5.291,5.293l-3.744,3.742l-5.291,-5.293l3.744,-3.742Z" style="fill:#b999db;stroke:#7c41ba;stroke-width:2px;"/><path d="M560.927,238.149l3.969,3.969l-38.481,38.482l-3.97,-3.97l38.482,-38.481Z" style="fill:#b999db;stroke:#7c41ba;stroke-width:2px;"/><path d="M569.299,279.824l-5.291,5.293l-3.744,-3.742l5.291,-5.293l3.744,3.742Z" style="fill:#b999db;stroke:#7c41ba;stroke-width:2px;"/><path d="M564.904,276.735l-3.978,3.979l-38.379,-38.359l3.978,-3.98l38.379,38.36Z" style="fill:#b999db;stroke:#7c41ba;stroke-width:2px;"/><path d="M489.615,218.418l-3.137,0c-1.326,0 -2.4,1.076 -2.4,2.4l0,5.539l7.937,0l0,-5.539c0,-1.324 -1.076,-2.4 -2.4,-2.4Z" style="fill:#b999db;fill-rule:nonzero;stroke:#7c41ba;stroke-width:2px;"/><path d="M492.016,292.506l-7.937,0l0,5.539c0,1.326 1.074,2.4 2.4,2.4l3.137,0c1.324,0 2.4,-1.074 2.4,-2.4l0,-5.539Z" style="fill:#b999db;fill-rule:nonzero;stroke:#7c41ba;stroke-width:2px;"/><path d="M551.551,259.431c0,4.385 -3.553,7.939 -7.937,7.939c-4.385,0 -7.938,-3.554 -7.938,-7.939c0,-4.385 3.553,-7.937 7.938,-7.937c4.384,0 7.937,3.552 7.937,7.937" style="fill:#b999db;fill-rule:nonzero;"/><path d="M551.551,259.432c0,-4.381 -3.557,-7.938 -7.938,-7.938c-4.38,0 -7.937,3.557 -7.937,7.938c0,4.381 3.557,7.938 7.937,7.938c4.381,0 7.938,-3.557 7.938,-7.938Z" style="fill:none;stroke:#7c41ba;stroke-width:2px;"/><path d="M526.414,269.185l0,-19.508c0,-3.383 2.74,-6.123 6.123,-6.123l12.123,0c1.613,0 2.922,-1.306 2.922,-2.922l0,-2.59c0,-0.607 -0.494,-1.101 -1.104,-1.101l-17.433,0c-4.16,0 -8.078,-1.961 -10.574,-5.293c-2.496,-3.332 -6.414,-5.291 -10.575,-5.291l-24.039,0c-0.607,0 -1.101,0.492 -1.101,1.101l0,63.946c0,0.609 0.494,1.101 1.101,1.101l24.039,0c4.161,0 8.079,-1.961 10.575,-5.291c2.496,-3.332 6.414,-5.293 10.574,-5.293l17.433,0c0.61,0 1.104,-0.494 1.104,-1.101l0,-2.592c0,-1.613 -1.309,-2.922 -2.922,-2.922l-12.123,0c-3.383,0 -6.123,-2.74 -6.123,-6.121Z" style="fill:#fff;fill-rule:nonzero;stroke:#7c41ba;stroke-width:2px;"/><path d="M535.676,259.431l-2.646,0" style="fill:none;stroke:#7c41ba;stroke-width:2px;"/><path d="M551.551,259.431l2.646,0" style="fill:none;stroke:#7c41ba;stroke-width:2px;"/><path d="M544.863,231.648l-2.5,0c-0.771,0 -1.396,0.625 -1.396,1.396l0,3.897l5.292,0l0,-3.897c0,-0.771 -0.625,-1.396 -1.396,-1.396Z" style="fill:#fff;fill-rule:nonzero;stroke:#7c41ba;stroke-width:2px;"/><path d="M542.363,287.214l2.5,0c0.771,0 1.396,-0.625 1.396,-1.396l0,-3.897l-5.292,0l0,3.897c0,0.771 0.625,1.396 1.396,1.396Z" style="fill:#fff;fill-rule:nonzero;stroke:#7c41ba;stroke-width:2px;"/><path d="M543.613,251.494l0,-2.646" style="fill:none;stroke:#7c41ba;stroke-width:2px;"/><path d="M543.613,267.371l0,2.645" style="fill:none;stroke:#7c41ba;stroke-width:2px;"/><path d="M505.182,281.922l-22.426,0l0,-44.98l22.426,0c3.689,0 6.678,2.988 6.678,6.677l0,31.625c0,3.688 -2.989,6.678 -6.678,6.678Z" style="fill:#b999db;fill-rule:nonzero;stroke:#7c41ba;stroke-width:2px;"/><path d="M584.625,221.064c0,1.461 -1.184,2.645 -2.645,2.645c-1.46,0 -2.646,-1.184 -2.646,-2.645c0,-1.461 1.186,-2.646 2.646,-2.646c1.461,0 2.645,1.185 2.645,2.646" style="fill:#fff;fill-rule:nonzero;"/><path d="M584.625,221.064c0,-1.461 -1.185,-2.646 -2.645,-2.646c-1.46,0 -2.646,1.185 -2.646,2.646c0,1.46 1.186,2.645 2.646,2.645c1.46,0 2.645,-1.185 2.645,-2.645Z" style="fill:none;stroke:#7c41ba;stroke-width:2px;"/><path d="M507.893,297.798c0,1.461 -1.186,2.646 -2.648,2.646c-1.459,0 -2.645,-1.185 -2.645,-2.646c0,-1.461 1.186,-2.646 2.645,-2.646c1.462,0 2.648,1.185 2.648,2.646" style="fill:#fff;fill-rule:nonzero;"/><path d="M507.893,297.798c0,-1.46 -1.186,-2.646 -2.647,-2.646c-1.46,0 -2.646,1.186 -2.646,2.646c0,1.461 1.186,2.646 2.646,2.646c1.461,0 2.647,-1.185 2.647,-2.646Z" style="fill:none;stroke:#7c41ba;stroke-width:2px;"/><path d="M507.893,221.064c0,1.461 -1.186,2.645 -2.648,2.645c-1.459,0 -2.645,-1.184 -2.645,-2.645c0,-1.461 1.186,-2.646 2.645,-2.646c1.462,0 2.648,1.185 2.648,2.646" style="fill:#fff;fill-rule:nonzero;"/><path d="M507.893,221.064c0,-1.461 -1.186,-2.646 -2.647,-2.646c-1.46,0 -2.646,1.185 -2.646,2.646c0,1.46 1.186,2.645 2.646,2.645c1.461,0 2.647,-1.185 2.647,-2.645Z" style="fill:none;stroke:#7c41ba;stroke-width:2px;"/><path d="M601.18,316.447c0,1.826 -10.049,3.307 -22.443,3.307c-12.395,0 -22.446,-1.481 -22.446,-3.307c0,-1.828 10.051,-3.309 22.446,-3.309c12.394,0 22.443,1.481 22.443,3.309" style="fill:#e3d7ef;fill-rule:nonzero;"/><path d="M613.793,326.686c0,1.826 -10.049,3.307 -22.443,3.307c-12.395,0 -22.446,-1.481 -22.446,-3.307c0,-1.828 10.051,-3.309 22.446,-3.309c12.394,0 22.443,1.481 22.443,3.309" style="fill:#e3d7ef;fill-rule:nonzero;"/><path d="M606.649,309.793c-0.264,1.084 -1.355,1.75 -2.441,1.486c-1.082,-0.263 -1.748,-1.357 -1.487,-2.441c0.264,-1.084 1.358,-1.75 2.442,-1.486c1.084,0.263 1.75,1.357 1.486,2.441" style="fill:#fff;fill-rule:nonzero;"/><path d="M581.098,298.726c0,-1.955 -1.586,-3.543 -3.545,-3.543l-11.81,0c-1.957,0 -3.543,1.588 -3.543,3.543c0,1.959 1.586,3.545 3.543,3.545l11.81,0c1.959,0 3.545,-1.586 3.545,-3.545" style="fill:#fff;fill-rule:nonzero;"/><path d="M578.736,305.814c0,-1.955 -1.588,-3.543 -3.545,-3.543l-11.812,0c-1.955,0 -3.543,1.588 -3.543,3.543c0,1.957 1.588,3.545 3.543,3.545l11.812,0c1.957,0 3.545,-1.588 3.545,-3.545" style="fill:#fff;fill-rule:nonzero;"/><path d="M578.736,312.902c0,-1.957 -1.588,-3.543 -3.545,-3.543l-11.812,0c-1.955,0 -3.543,1.586 -3.543,3.543c0,1.957 1.588,3.545 3.543,3.545l11.812,0c1.957,0 3.545,-1.588 3.545,-3.545" style="fill:#fff;fill-rule:nonzero;"/><path d="M597.635,312.902c0,-1.957 -1.586,-3.543 -3.543,-3.543l-11.812,0c-1.957,0 -3.543,1.586 -3.543,3.543c0,1.957 1.586,3.545 3.543,3.545l11.812,0c1.957,0 3.543,-1.588 3.543,-3.545" style="fill:#fff;fill-rule:nonzero;"/><path d="M597.635,305.814c0,-1.955 -1.586,-3.543 -3.543,-3.543l-11.812,0c-1.957,0 -3.543,1.588 -3.543,3.543c0,1.957 1.586,3.545 3.543,3.545l11.812,0c1.957,0 3.543,-1.588 3.543,-3.545" style="fill:#fff;fill-rule:nonzero;"/><path d="M581.098,298.726c0,-1.955 -1.586,-3.543 -3.545,-3.543l-11.81,0c-1.957,0 -3.543,1.588 -3.543,3.543c0,1.959 1.586,3.545 3.543,3.545l11.81,0c1.959,0 3.545,-1.586 3.545,-3.545Z" style="fill:none;stroke:#7c41ba;stroke-width:2px;"/><path d="M588.184,291.64c0,-1.959 -1.584,-3.545 -3.541,-3.545l-11.813,0c-1.958,0 -3.544,1.586 -3.544,3.545c0,1.957 1.586,3.543 3.544,3.543l11.813,0c1.957,0 3.541,-1.586 3.541,-3.543" style="fill:#fff;fill-rule:nonzero;"/><path d="M588.184,291.64c0,-1.959 -1.584,-3.545 -3.541,-3.545l-11.813,0c-1.958,0 -3.544,1.586 -3.544,3.545c0,1.957 1.586,3.543 3.544,3.543l11.813,0c1.957,0 3.541,-1.586 3.541,-3.543Z" style="fill:none;stroke:#7c41ba;stroke-width:2px;"/><path d="M578.736,305.814c0,-1.955 -1.588,-3.543 -3.545,-3.543l-11.812,0c-1.955,0 -3.543,1.588 -3.543,3.543c0,1.957 1.588,3.545 3.543,3.545l11.812,0c1.957,0 3.545,-1.588 3.545,-3.545Z" style="fill:none;stroke:#7c41ba;stroke-width:2px;"/><path d="M578.736,312.902c0,-1.957 -1.588,-3.543 -3.545,-3.543l-11.812,0c-1.955,0 -3.543,1.586 -3.543,3.543c0,1.957 1.588,3.545 3.543,3.545l11.812,0c1.957,0 3.545,-1.588 3.545,-3.545Z" style="fill:none;stroke:#7c41ba;stroke-width:2px;"/><path d="M597.635,312.902c0,-1.957 -1.586,-3.543 -3.543,-3.543l-11.812,0c-1.957,0 -3.543,1.586 -3.543,3.543c0,1.957 1.586,3.545 3.543,3.545l11.812,0c1.957,0 3.543,-1.588 3.543,-3.545Z" style="fill:none;stroke:#7c41ba;stroke-width:2px;"/><path d="M597.635,305.814c0,-1.955 -1.586,-3.543 -3.543,-3.543l-11.812,0c-1.957,0 -3.543,1.588 -3.543,3.543c0,1.957 1.586,3.545 3.543,3.545l11.812,0c1.957,0 3.543,-1.588 3.543,-3.545Z" style="fill:none;stroke:#7c41ba;stroke-width:2px;"/><path d="M599.998,298.726c0,-1.955 -1.588,-3.543 -3.545,-3.543l-11.81,0c-1.957,0 -3.545,1.588 -3.545,3.543c0,1.959 1.588,3.545 3.545,3.545l11.81,0c1.957,0 3.545,-1.586 3.545,-3.545" style="fill:#fff;fill-rule:nonzero;"/><path d="M599.998,298.726c0,-1.955 -1.588,-3.543 -3.545,-3.543l-11.81,0c-1.957,0 -3.545,1.588 -3.545,3.543c0,1.959 1.588,3.545 3.545,3.545l11.81,0c1.957,0 3.545,-1.586 3.545,-3.545Z" style="fill:none;stroke:#7c41ba;stroke-width:2px;"/><path d="M546.26,259.429c0,-1.459 -1.186,-2.645 -2.646,-2.645c-1.463,0 -2.647,1.186 -2.647,2.645c0,1.463 1.184,2.646 2.647,2.646c1.46,0 2.646,-1.183 2.646,-2.646" style="fill:#fff;fill-rule:nonzero;"/><path d="M546.26,259.43c0,-1.46 -1.186,-2.646 -2.647,-2.646c-1.46,0 -2.646,1.186 -2.646,2.646c0,1.46 1.186,2.645 2.646,2.645c1.461,0 2.647,-1.185 2.647,-2.645Z" style="fill:none;stroke:#7c41ba;stroke-width:2px;"/><ellipse cx="489.368" cy="287.214" rx="1.103" ry="1.101" style="fill:#7c41ba;"/><ellipse cx="499.954" cy="287.214" rx="1.103" ry="1.101" style="fill:#7c41ba;"/><ellipse cx="511.861" cy="285.891" rx="1.103" ry="1.102" style="fill:#7c41ba;"/><ellipse cx="518.478" cy="272.661" rx="1.103" ry="1.102" style="fill:#7c41ba;"/><ellipse cx="489.368" cy="231.647" rx="1.103" ry="1.103" style="fill:#7c41ba;"/><ellipse cx="499.954" cy="231.647" rx="1.103" ry="1.103" style="fill:#7c41ba;"/><ellipse cx="511.861" cy="232.971" rx="1.103" ry="1.103" style="fill:#7c41ba;"/><ellipse cx="518.478" cy="246.202" rx="1.103" ry="1.103" style="fill:#7c41ba;"/><ellipse cx="518.478" cy="259.431" rx="1.103" ry="1.101" style="fill:#7c41ba;"/><g><path d="M591.665,325.332l-13.514,-7.744l4.955,-20.5l8.559,-12.299l8.56,12.299l4.955,20.5l-13.515,7.744l13.515,-7.744" style="fill:#fff;stroke:#7c41ba;stroke-width:2px;stroke-miterlimit:1.5;"/><path d="M600.225,297.088l-8.56,28.244" style="fill:none;stroke:#7c41ba;stroke-width:2px;stroke-miterlimit:1.5;"/><path d="M591.665,325.332l-8.559,-28.244" style="fill:none;stroke:#7c41ba;stroke-width:2px;stroke-miterlimit:1.5;"/></g><g><path d="M547.416,135.373l-8.875,-5.086l3.254,-13.462l5.621,-8.077l5.621,8.077l3.254,13.462l-8.875,5.086l8.875,-5.086" style="fill:#fff;stroke:#7c41ba;stroke-width:2px;stroke-miterlimit:1.5;"/><path d="M553.037,116.825l-5.621,18.548" style="fill:none;stroke:#7c41ba;stroke-width:2px;stroke-miterlimit:1.5;"/><path d="M547.416,135.373l-5.621,-18.548" style="fill:none;stroke:#7c41ba;stroke-width:2px;stroke-miterlimit:1.5;"/></g></g></g><path d="M125.554,204l-16.554,0c-4.967,0 -9,4.033 -9,9l0,94c0,4.967 4.033,9 9,9l214,0c4.967,0 9,-4.033 9,-9l0,-94c0,-4.967 -4.033,-9 -9,-9l-33.979,0" style="fill:none;stroke:#7c41ba;stroke-width:2px;stroke-miterlimit:1.5;"/><path d="M274.428,204l-49.818,0" style="fill:none;stroke:#7c41ba;stroke-width:2px;stroke-miterlimit:1.5;"/><path d="M207.325,204l-51.261,0" style="fill:none;stroke:#7c41ba;stroke-width:2px;stroke-miterlimit:1.5;"/></svg>