<?xml version="1.0" encoding="UTF-8" standalone="no"?><!DOCTYPE svg PUBLIC "-//W3C//DTD SVG 1.1//EN" "http://www.w3.org/Graphics/SVG/1.1/DTD/svg11.dtd"><svg width="100%" height="100%" viewBox="0 0 24 24" version="1.1" xmlns="http://www.w3.org/2000/svg" xmlns:xlink="http://www.w3.org/1999/xlink" xml:space="preserve" xmlns:serif="http://www.serif.com/" style="fill-rule:evenodd;clip-rule:evenodd;stroke-linejoin:round;stroke-miterlimit:1.41421;"><path d="M8.5,24c-0.276,0 -0.5,-0.224 -0.5,-0.5l0,-11.5l-2.5,0c-0.276,0 -0.5,-0.224 -0.5,-0.5l0,-4c0,-0.276 0.224,-0.5 0.5,-0.5l2.5,0l0,-1.645c0,-0.669 0.102,-1.965 0.782,-3.128c0.866,-1.478 2.342,-2.227 4.389,-2.227l4.329,0c0.275,0 0.5,0.224 0.5,0.5l0,4.01c0,0.134 -0.052,0.26 -0.147,0.354c-0.095,0.094 -0.22,0.146 -0.353,0.146c-0.002,0 -2.57,-0.01 -2.988,-0.01l-0.047,-0.001c-0.023,0 -0.044,0.001 -0.064,0.004c-0.125,0.017 -0.237,0.081 -0.313,0.181c-0.077,0.1 -0.11,0.224 -0.093,0.349c0.003,0.023 0.005,0.045 0.005,0.067l0,1.4l3.768,0c0.142,0 0.277,0.06 0.372,0.165c0.095,0.105 0.141,0.246 0.125,0.387l-0.417,3.999c-0.026,0.256 -0.24,0.449 -0.497,0.449l-3.351,0l0,11.5c0,0.276 -0.224,0.5 -0.5,0.5l-5,0Zm4.5,-1l0,-11.5c0,-0.276 0.224,-0.5 0.5,-0.5l3.4,0l0.313,-3l-3.713,0c-0.276,0 -0.5,-0.224 -0.5,-0.5l0,-1.87c-0.041,-0.377 0.063,-0.75 0.293,-1.052c0.239,-0.312 0.584,-0.513 0.974,-0.566c0.065,-0.009 0.132,-0.013 0.198,-0.013c0.023,0 0.047,0 0.07,0.002l0.084,0c0.407,0 1.553,0.005 2.271,0.007l0.109,0l0,-3.008l-3.829,0c-1.557,0 -4.17,0.566 -4.17,4.355l0,2.145c0,0.276 -0.224,0.5 -0.5,0.5l-2.5,0l0,3l2.5,0c0.276,0 0.5,0.224 0.5,0.5l0,11.5l4,0Z" style="fill:#4a1289;fill-rule:nonzero;"/></svg>