<?xml version="1.0" encoding="UTF-8" standalone="no"?><!DOCTYPE svg PUBLIC "-//W3C//DTD SVG 1.1//EN" "http://www.w3.org/Graphics/SVG/1.1/DTD/svg11.dtd"><svg width="100%" height="100%" viewBox="0 0 24 24" version="1.1" xmlns="http://www.w3.org/2000/svg" xmlns:xlink="http://www.w3.org/1999/xlink" xml:space="preserve" xmlns:serif="http://www.serif.com/" style="fill-rule:evenodd;clip-rule:evenodd;stroke-linejoin:round;stroke-miterlimit:1.41421;"><path d="M8.437,20.889c-2.523,0 -5.261,-0.649 -8.14,-1.928c-0.217,-0.097 -0.337,-0.335 -0.285,-0.567c0.051,-0.226 0.256,-0.39 0.488,-0.39c0.092,0.002 0.173,0.003 0.253,0.003c1.65,0 3.272,-0.4 4.735,-1.162c-1.776,-0.273 -3.073,-0.89 -3.936,-2.617c-0.062,-0.125 -0.07,-0.271 -0.02,-0.401c0.049,-0.13 0.151,-0.234 0.281,-0.286l1.066,-0.426c-2.016,-0.829 -2.605,-2.656 -2.87,-4.014c-0.031,-0.161 0.018,-0.327 0.132,-0.445c0.094,-0.097 0.225,-0.152 0.359,-0.152c0.028,0 0.056,0.002 0.084,0.007l1.645,0.274c-0.888,-1.376 -1.13,-3.18 -0.719,-5.373c0.035,-0.187 0.177,-0.341 0.36,-0.391c0.042,-0.011 0.086,-0.017 0.13,-0.017c0.145,0 0.283,0.063 0.378,0.172c2.617,3.014 5.122,4.48 7.658,4.48c0.319,0 0.642,-0.024 0.964,-0.071l0,-0.581c-0.007,-1.273 0.468,-2.489 1.338,-3.421c0.907,-0.973 2.139,-1.534 3.469,-1.58c0.06,-0.002 0.12,-0.003 0.18,-0.003c1.161,0 2.282,0.407 3.174,1.149l2.202,-0.626c0.045,-0.013 0.091,-0.019 0.137,-0.019c0.149,0 0.29,0.066 0.385,0.181c0.126,0.152 0.15,0.365 0.062,0.542l-0.721,1.443l1.395,0.349c0.184,0.046 0.324,0.189 0.366,0.373c0.042,0.184 -0.021,0.374 -0.167,0.495l-1.82,1.523l0,1.094c0,4.17 -2.144,8.153 -5.595,10.396c-2.031,1.32 -4.375,1.989 -6.966,1.989l-0.002,0Zm-5.743,-2.053c2.016,0.698 3.944,1.052 5.743,1.052c2.397,0 4.558,-0.615 6.423,-1.826c3.171,-2.06 5.14,-5.722 5.14,-9.557l0,-1.329c0,-0.149 0.065,-0.289 0.179,-0.384l1.246,-1.042l-1.046,-0.262c-0.148,-0.037 -0.27,-0.138 -0.333,-0.277c-0.063,-0.138 -0.061,-0.296 0.007,-0.432l0.493,-0.985l-1.373,0.39c-0.044,0.013 -0.09,0.019 -0.136,0.019c-0.127,0 -0.248,-0.048 -0.341,-0.134c-0.74,-0.69 -1.7,-1.07 -2.704,-1.07c-0.05,0 -0.099,0.001 -0.149,0.003c-1.063,0.037 -2.048,0.485 -2.773,1.263c-0.695,0.745 -1.075,1.717 -1.07,2.736l0,1.003c0,0.236 -0.168,0.442 -0.399,0.49c-0.525,0.108 -1.055,0.163 -1.575,0.163c-2.594,0 -5.11,-1.318 -7.678,-4.025c-0.17,1.96 0.329,3.471 1.485,4.499c0.165,0.147 0.214,0.39 0.119,0.589c-0.083,0.173 -0.26,0.284 -0.452,0.284c-0.027,0 -0.055,-0.002 -0.083,-0.007l-2.254,-0.376c0.524,1.785 1.583,2.68 3.394,2.886c0.228,0.026 0.408,0.203 0.439,0.43c0.031,0.227 -0.097,0.446 -0.31,0.531l-1.966,0.787c0.918,1.383 2.324,1.595 4.319,1.751c0.209,0.017 0.387,0.163 0.443,0.365c0.056,0.202 -0.021,0.419 -0.191,0.541c-1.368,0.976 -2.94,1.632 -4.597,1.924Z" style="fill:#4a1289;fill-rule:nonzero;"/></svg>