<?xml version="1.0" encoding="UTF-8" standalone="no"?><!DOCTYPE svg PUBLIC "-//W3C//DTD SVG 1.1//EN" "http://www.w3.org/Graphics/SVG/1.1/DTD/svg11.dtd"><svg width="100%" height="100%" viewBox="0 0 24 24" version="1.1" xmlns="http://www.w3.org/2000/svg" xmlns:xlink="http://www.w3.org/1999/xlink" xml:space="preserve" xmlns:serif="http://www.serif.com/" style="fill-rule:evenodd;clip-rule:evenodd;stroke-linejoin:round;stroke-miterlimit:1.41421;"><g><path d="M4.5,23.5c-2.481,0 -4.5,-2.019 -4.5,-4.5l0,-3c0,-2.481 2.019,-4.5 4.5,-4.5l14,0c2.481,0 4.5,2.019 4.5,4.5l0,3c0,2.481 -2.019,4.5 -4.5,4.5l-14,0Zm0,-11c-1.93,0 -3.5,1.57 -3.5,3.5l0,3c0,1.93 1.57,3.5 3.5,3.5l14,0c1.93,0 3.5,-1.57 3.5,-3.5l0,-3c0,-1.93 -1.57,-3.5 -3.5,-3.5l-14,0Z" style="fill:#4a1289;fill-rule:nonzero;"/><path d="M6.501,9.502c-0.276,0 -0.5,-0.224 -0.5,-0.5l-0.001,-4.335l-2.9,-3.867c-0.08,-0.107 -0.114,-0.238 -0.095,-0.37c0.019,-0.133 0.088,-0.25 0.195,-0.33c0.088,-0.065 0.191,-0.1 0.3,-0.1c0.156,0 0.306,0.075 0.4,0.2l2.6,3.467l2.6,-3.467c0.094,-0.125 0.244,-0.2 0.4,-0.2c0.109,0 0.213,0.035 0.3,0.1c0.107,0.08 0.176,0.197 0.195,0.33c0.019,0.132 -0.015,0.263 -0.095,0.37l-2.9,3.867l0.001,4.335c0,0.276 -0.224,0.5 -0.5,0.5Z" style="fill:#4a1289;fill-rule:nonzero;"/><path d="M11,9.5c-1.103,0 -2,-0.897 -2,-2l0,-3c0,-1.103 0.897,-2 2,-2c1.103,0 2,0.897 2,2l0,3c0,1.103 -0.897,2 -2,2Zm0,-6c-0.551,0 -1,0.449 -1,1l0,3c0,0.551 0.449,1 1,1c0.551,0 1,-0.449 1,-1l0,-3c0,-0.551 -0.449,-1 -1,-1Z" style="fill:#4a1289;fill-rule:nonzero;"/><path d="M18.5,9.5c-0.276,0 -0.5,-0.224 -0.5,-0.5l0,-0.001c-0.428,0.323 -0.952,0.501 -1.5,0.501c-1.378,0 -2.5,-1.121 -2.5,-2.5l0,-4c0,-0.276 0.224,-0.5 0.5,-0.5c0.276,0 0.5,0.224 0.5,0.5l0,4c0,0.827 0.673,1.5 1.5,1.5c0.827,0 1.5,-0.673 1.5,-1.5l0,-4c0,-0.279 0.224,-0.503 0.5,-0.503c0.276,0 0.5,0.224 0.5,0.5l0,6.003c0,0.276 -0.224,0.5 -0.5,0.5Z" style="fill:#4a1289;fill-rule:nonzero;"/><path d="M10.5,20.5c-0.139,0 -0.265,-0.057 -0.356,-0.149c-0.201,0.098 -0.42,0.149 -0.644,0.149c-0.827,0 -1.5,-0.673 -1.5,-1.5l0,-3c0,-0.275 0.224,-0.5 0.5,-0.5c0.276,0 0.5,0.225 0.5,0.5l0,3c0,0.276 0.224,0.5 0.5,0.5c0.276,0 0.5,-0.224 0.5,-0.5l0,-3c0,-0.279 0.224,-0.503 0.5,-0.503c0.276,0 0.5,0.224 0.5,0.5l0,4.003c0,0.276 -0.224,0.5 -0.5,0.5Z" style="fill:#4a1289;fill-rule:nonzero;"/><path d="M5.5,20.478c-0.276,0 -0.5,-0.224 -0.5,-0.5l0,-4.478l-1.521,0c-0.276,0 -0.5,-0.224 -0.5,-0.5c0,-0.276 0.224,-0.5 0.5,-0.5l4.042,0c0.276,0 0.5,0.224 0.5,0.5c0,0.276 -0.224,0.5 -0.5,0.5l-1.521,0l0,4.478c0,0.276 -0.224,0.5 -0.5,0.5Z" style="fill:#4a1289;fill-rule:nonzero;"/><path d="M13.5,20.5c-0.23,0 -0.455,-0.054 -0.66,-0.157c-0.089,0.084 -0.209,0.135 -0.34,0.135c-0.276,0 -0.5,-0.224 -0.5,-0.5l0,-5.978c0,-0.276 0.224,-0.5 0.5,-0.5c0.276,0 0.5,0.224 0.5,0.5l0,1.588c0.16,-0.058 0.328,-0.088 0.5,-0.088c0.827,0 1.5,0.673 1.5,1.5l0,2c0,0.827 -0.673,1.5 -1.5,1.5Zm0,-4c-0.276,0 -0.5,0.224 -0.5,0.5l0,2c0,0.276 0.224,0.5 0.5,0.5c0.276,0 0.5,-0.224 0.5,-0.5l0,-2c0,-0.275 -0.224,-0.5 -0.5,-0.5Z" style="fill:#4a1289;fill-rule:nonzero;"/><path d="M17.699,20.507c-0.049,0 -0.097,-0.002 -0.147,-0.007c-0.851,-0.074 -1.509,-0.76 -1.552,-1.599l0,-0.891c0,-0.007 0,-0.033 0.001,-0.04l-0.001,-0.97c0,-0.827 0.673,-1.5 1.5,-1.5c0.827,0 1.5,0.673 1.5,1.5l0,1c0,0.276 -0.224,0.5 -0.5,0.5l-1.5,0l0,0.375c0.017,0.317 0.293,0.598 0.629,0.627c0.023,0.002 0.041,0.003 0.06,0.003c0.253,0 0.462,-0.185 0.486,-0.43c0.026,-0.257 0.241,-0.45 0.5,-0.45c0.008,0 0.038,0.001 0.046,0.002c0.135,0.013 0.254,0.078 0.339,0.181c0.085,0.104 0.124,0.233 0.111,0.366c-0.077,0.76 -0.709,1.333 -1.472,1.333Zm0.301,-3.007l0,-0.5c0,-0.276 -0.224,-0.5 -0.5,-0.5c-0.276,0 -0.5,0.225 -0.5,0.5l0,0.5l1,0Z" style="fill:#4a1289;fill-rule:nonzero;"/></g></svg>