<?xml version="1.0" encoding="utf-8"?>
<!-- Generator: Adobe Illustrator 16.0.0, SVG Export Plug-In . SVG Version: 6.00 Build 0)  -->
<!DOCTYPE svg PUBLIC "-//W3C//DTD SVG 1.1//EN" "http://www.w3.org/Graphics/SVG/1.1/DTD/svg11.dtd">
<svg version="1.1" id="Layer_1" xmlns="http://www.w3.org/2000/svg" xmlns:xlink="http://www.w3.org/1999/xlink" x="0px" y="0px"
	 width="612px" height="792px" viewBox="0 0 612 792" enable-background="new 0 0 612 792" xml:space="preserve">
<g>
	<g>
	</g>
	<g>
		
			<line fill="none" stroke="#764D9F" stroke-linecap="round" stroke-linejoin="round" stroke-miterlimit="10" x1="87.985" y1="437.367" x2="187.052" y2="437.367"/>
		
			<line fill="none" stroke="#764D9F" stroke-linecap="round" stroke-linejoin="round" stroke-miterlimit="10" x1="82.27" y1="437.367" x2="85.445" y2="437.367"/>
		
			<line fill="none" stroke="#764D9F" stroke-linecap="round" stroke-linejoin="round" stroke-miterlimit="10" x1="189.592" y1="437.367" x2="192.767" y2="437.367"/>
	</g>
</g>
<g>
	<g>
	</g>
	<g>
		
			<line fill="none" stroke="#764D9F" stroke-linecap="round" stroke-linejoin="round" stroke-miterlimit="10" x1="402.035" y1="428.911" x2="501.102" y2="428.911"/>
		
			<line fill="none" stroke="#764D9F" stroke-linecap="round" stroke-linejoin="round" stroke-miterlimit="10" x1="396.319" y1="428.911" x2="399.494" y2="428.911"/>
		
			<line fill="none" stroke="#764D9F" stroke-linecap="round" stroke-linejoin="round" stroke-miterlimit="10" x1="503.642" y1="428.911" x2="506.816" y2="428.911"/>
	</g>
</g>
<g>
	<g>
	</g>
	<g>
		
			<line fill="none" stroke="#764D9F" stroke-linecap="round" stroke-linejoin="round" stroke-miterlimit="10" x1="190.69" y1="515" x2="289.757" y2="515"/>
		
			<line fill="none" stroke="#764D9F" stroke-linecap="round" stroke-linejoin="round" stroke-miterlimit="10" x1="184.975" y1="515" x2="188.149" y2="515"/>
		
			<line fill="none" stroke="#764D9F" stroke-linecap="round" stroke-linejoin="round" stroke-miterlimit="10" x1="292.297" y1="515" x2="295.472" y2="515"/>
	</g>
</g>
<g>
	<g>
	</g>
	<g>
		
			<line fill="none" stroke="#764D9F" stroke-width="0.5" stroke-linecap="round" stroke-linejoin="round" stroke-miterlimit="10" x1="264.399" y1="404.164" x2="318.829" y2="404.164"/>
		
			<line fill="none" stroke="#764D9F" stroke-width="0.5" stroke-linecap="round" stroke-linejoin="round" stroke-miterlimit="10" x1="261.259" y1="404.164" x2="263.004" y2="404.164"/>
		
			<line fill="none" stroke="#764D9F" stroke-width="0.5" stroke-linecap="round" stroke-linejoin="round" stroke-miterlimit="10" x1="320.224" y1="404.164" x2="321.968" y2="404.164"/>
	</g>
</g>
<path fill="#FFFFFF" d="M158.286,386.571c0.066-0.278,0.111-0.566,0.111-0.865c0-2.067-1.675-3.744-3.743-3.744
	c-0.849,0-1.624,0.294-2.251,0.771c-1.374-1.614-3.417-2.642-5.703-2.642c-4.134,0-7.485,3.352-7.485,7.486
	c0,0.016,0.001,0.032,0.001,0.048c-0.156-0.02-0.309-0.048-0.471-0.048c-2.066,0-3.742,1.676-3.742,3.743
	c0,2.066,1.676,3.743,3.742,3.743h16.845c2.584,0,4.679-2.094,4.679-4.677C160.268,388.807,159.481,387.419,158.286,386.571z"/>
<g>
	<g>
		<polygon fill="#FFFFFF" points="194.496,463.096 169.278,440.679 126.684,440.679 101.466,463.096 		"/>
		<polygon fill="#FFFFFF" points="126.807,445.163 130.939,440.679 126.684,440.679 121.641,445.163 121.641,445.163 		"/>
		<polygon fill="#FFFFFF" points="126.836,449.647 123.33,454.13 162.707,454.13 160.631,449.647 		"/>
		<polygon fill="#FFFFFF" points="179.364,449.647 169.074,449.647 179.356,463.096 194.496,463.096 		"/>
		<g>
			<path fill="#B699C8" stroke="#764D9F" stroke-linecap="round" stroke-linejoin="round" stroke-miterlimit="10" d="
				M169.074,449.647h10.29l-5.043-4.484h-24.576l-0.343-4.484h-2.842l-0.343,4.484h-15.874l3.505-4.484h-2.909l-4.132,4.484h-5.167
				l-5.043,4.484h6.08l-12.392,13.448h6.033l4.383-5.604h43.562l2.593,5.604h12.5L169.074,449.647z M123.33,454.13l3.506-4.482
				h33.795l2.076,4.482H123.33z"/>
		</g>
		<polygon fill="none" stroke="#764D9F" stroke-linecap="round" stroke-linejoin="round" stroke-miterlimit="10" points="
			194.496,463.096 169.278,440.679 126.684,440.679 101.466,463.096 		"/>
	</g>
	<g>
		<path fill="#FFFFFF" d="M155.828,416.582c0,7.737-14.011,28.581-14.011,28.581s-14.01-20.844-14.01-28.581
			c0-7.739,6.272-14.011,14.01-14.011C149.554,402.571,155.828,408.843,155.828,416.582z"/>
		
			<circle fill="#B699C8" stroke="#764D9F" stroke-linecap="round" stroke-linejoin="round" stroke-miterlimit="10" cx="141.817" cy="416.582" r="6.725"/>
		<path fill="none" stroke="#764D9F" stroke-linecap="round" stroke-linejoin="round" stroke-miterlimit="10" d="M155.828,416.582
			c0,7.737-14.011,28.581-14.011,28.581s-14.01-20.844-14.01-28.581c0-7.739,6.272-14.011,14.01-14.011
			C149.554,402.571,155.828,408.843,155.828,416.582z"/>
	</g>
	<path fill="#FFFFFF" stroke="#764D9F" stroke-linecap="round" stroke-linejoin="round" stroke-miterlimit="10" d="M121.642,445.724
		c0,1.548-2.802,5.043-2.802,5.043s-2.802-3.495-2.802-5.043s1.254-2.802,2.802-2.802
		C120.386,442.922,121.642,444.176,121.642,445.724z"/>
	<path fill="#FFFFFF" stroke="#764D9F" stroke-linecap="round" stroke-linejoin="round" stroke-miterlimit="10" d="M166.476,438.998
		c0,1.548-2.802,5.045-2.802,5.045s-2.803-3.497-2.803-5.045s1.255-2.802,2.803-2.802
		C165.22,436.196,166.476,437.45,166.476,438.998z"/>
	<g>
		<path fill="#FFFFFF" stroke="#764D9F" stroke-linecap="round" stroke-linejoin="round" stroke-miterlimit="10" d="
			M184.408,441.238c0,3.406-6.165,11.771-6.165,11.771s-6.164-8.365-6.164-11.771c0-3.402,2.76-6.163,6.164-6.163
			C181.648,435.075,184.408,437.836,184.408,441.238z"/>
		<path fill="#B699C8" stroke="#764D9F" stroke-linecap="round" stroke-linejoin="round" stroke-miterlimit="10" d="
			M181.045,441.238c0,1.551-1.254,2.805-2.802,2.805s-2.802-1.254-2.802-2.805c0-1.546,1.254-2.801,2.802-2.801
			S181.045,439.692,181.045,441.238z"/>
	</g>
</g>
<path fill="#E3D7EA" stroke="#764D9F" stroke-width="2" stroke-miterlimit="10" d="M183.142,367.1
	c0-24.258-18.829-43.928-42.053-43.928s-42.053,19.67-42.053,43.928c0,20.85,13.919,38.273,32.576,42.77l9.478,39.597l9.478-39.597
	C169.222,405.373,183.142,387.949,183.142,367.1z"/>
<g>
	<path fill="#B699C8" d="M160.913,380.637h-17.936c-0.862,0-1.56-0.698-1.56-1.559v-15.597c0-0.862,0.698-1.56,1.56-1.56h17.936
		c0.861,0,1.559,0.698,1.559,1.56v15.597C162.472,379.939,161.773,380.637,160.913,380.637z"/>
	
		<circle fill="#FFFFFF" stroke="#764D9F" stroke-linecap="round" stroke-linejoin="round" stroke-miterlimit="10" cx="159.743" cy="365.041" r="1.17"/>
	
		<circle fill="#FFFFFF" stroke="#764D9F" stroke-linecap="round" stroke-linejoin="round" stroke-miterlimit="10" cx="155.844" cy="365.041" r="1.17"/>
	
		<circle fill="#FFFFFF" stroke="#764D9F" stroke-linecap="round" stroke-linejoin="round" stroke-miterlimit="10" cx="159.743" cy="371.28" r="1.17"/>
	
		<circle fill="#FFFFFF" stroke="#764D9F" stroke-linecap="round" stroke-linejoin="round" stroke-miterlimit="10" cx="155.844" cy="371.28" r="1.17"/>
	
		<circle fill="#FFFFFF" stroke="#764D9F" stroke-linecap="round" stroke-linejoin="round" stroke-miterlimit="10" cx="159.743" cy="377.518" r="1.17"/>
	
		<circle fill="#FFFFFF" stroke="#764D9F" stroke-linecap="round" stroke-linejoin="round" stroke-miterlimit="10" cx="155.844" cy="377.518" r="1.17"/>
	<path fill="none" stroke="#764D9F" stroke-linecap="round" stroke-linejoin="round" stroke-miterlimit="10" d="M160.913,380.637
		h-17.936c-0.862,0-1.56-0.698-1.56-1.559v-4.68h21.055v4.68C162.472,379.939,161.773,380.637,160.913,380.637z"/>
	
		<rect x="141.417" y="368.16" fill="none" stroke="#764D9F" stroke-linecap="round" stroke-linejoin="round" stroke-miterlimit="10" width="21.055" height="6.238"/>
	<path fill="none" stroke="#764D9F" stroke-linecap="round" stroke-linejoin="round" stroke-miterlimit="10" d="M162.472,368.16
		h-21.055v-4.679c0-0.862,0.698-1.56,1.56-1.56h17.936c0.861,0,1.559,0.698,1.559,1.56V368.16z"/>
</g>
<g>
	<path fill="#B699C8" d="M139.077,380.637h-17.936c-0.86,0-1.559-0.698-1.559-1.559v-15.597c0-0.862,0.698-1.56,1.559-1.56h17.936
		c0.862,0,1.56,0.698,1.56,1.56v15.597C140.637,379.939,139.939,380.637,139.077,380.637z"/>
	
		<line fill="none" stroke="#764D9F" stroke-linecap="round" stroke-linejoin="round" stroke-miterlimit="10" x1="121.922" y1="377.518" x2="126.602" y2="377.518"/>
	
		<line fill="none" stroke="#764D9F" stroke-linecap="round" stroke-linejoin="round" stroke-miterlimit="10" x1="121.922" y1="371.28" x2="126.602" y2="371.28"/>
	
		<line fill="none" stroke="#764D9F" stroke-linecap="round" stroke-linejoin="round" stroke-miterlimit="10" x1="121.922" y1="365.041" x2="126.602" y2="365.041"/>
	<path fill="none" stroke="#764D9F" stroke-linecap="round" stroke-linejoin="round" stroke-miterlimit="10" d="M139.077,380.637
		h-17.936c-0.86,0-1.559-0.698-1.559-1.559v-4.68h21.054v4.68C140.637,379.939,139.939,380.637,139.077,380.637z"/>
	
		<rect x="119.583" y="368.16" fill="none" stroke="#764D9F" stroke-linecap="round" stroke-linejoin="round" stroke-miterlimit="10" width="21.054" height="6.238"/>
	<path fill="none" stroke="#764D9F" stroke-linecap="round" stroke-linejoin="round" stroke-miterlimit="10" d="M140.637,368.16
		h-21.054v-4.679c0-0.862,0.698-1.56,1.559-1.56h17.936c0.862,0,1.56,0.698,1.56,1.56V368.16z"/>
</g>
<g>
	<path fill="#B699C8" d="M149.996,383.756h-17.937c-0.861,0-1.559-0.698-1.559-1.559v-21.835c0-0.862,0.698-1.56,1.559-1.56h17.937
		c0.86,0,1.559,0.698,1.559,1.56v21.835C151.555,383.059,150.856,383.756,149.996,383.756z"/>
	
		<line fill="none" stroke="#764D9F" stroke-linecap="round" stroke-linejoin="round" stroke-miterlimit="10" x1="132.838" y1="380.637" x2="137.518" y2="380.637"/>
	
		<line fill="none" stroke="#764D9F" stroke-linecap="round" stroke-linejoin="round" stroke-miterlimit="10" x1="132.838" y1="374.398" x2="137.518" y2="374.398"/>
	
		<line fill="none" stroke="#764D9F" stroke-linecap="round" stroke-linejoin="round" stroke-miterlimit="10" x1="132.838" y1="361.921" x2="137.518" y2="361.921"/>
	
		<circle fill="#FFFFFF" stroke="#764D9F" stroke-linecap="round" stroke-linejoin="round" stroke-miterlimit="10" cx="148.826" cy="361.921" r="1.17"/>
	
		<circle fill="#FFFFFF" stroke="#764D9F" stroke-linecap="round" stroke-linejoin="round" stroke-miterlimit="10" cx="144.926" cy="361.921" r="1.17"/>
	
		<circle fill="#FFFFFF" stroke="#764D9F" stroke-linecap="round" stroke-linejoin="round" stroke-miterlimit="10" cx="148.826" cy="374.398" r="1.17"/>
	
		<circle fill="#FFFFFF" stroke="#764D9F" stroke-linecap="round" stroke-linejoin="round" stroke-miterlimit="10" cx="144.926" cy="374.398" r="1.17"/>
	
		<circle fill="#FFFFFF" stroke="#764D9F" stroke-linecap="round" stroke-linejoin="round" stroke-miterlimit="10" cx="148.826" cy="380.637" r="1.17"/>
	
		<circle fill="#FFFFFF" stroke="#764D9F" stroke-linecap="round" stroke-linejoin="round" stroke-miterlimit="10" cx="144.926" cy="380.637" r="1.17"/>
	<path fill="none" stroke="#764D9F" stroke-linecap="round" stroke-linejoin="round" stroke-miterlimit="10" d="M149.996,383.756
		h-17.937c-0.861,0-1.559-0.698-1.559-1.559v-4.679h21.055v4.679C151.555,383.059,150.856,383.756,149.996,383.756z"/>
	
		<rect x="130.5" y="371.28" fill="none" stroke="#764D9F" stroke-linecap="round" stroke-linejoin="round" stroke-miterlimit="10" width="21.055" height="6.238"/>
	<path fill="none" stroke="#764D9F" stroke-linecap="round" stroke-linejoin="round" stroke-miterlimit="10" d="M151.555,365.041
		H130.5v-4.679c0-0.862,0.698-1.56,1.559-1.56h17.937c0.86,0,1.559,0.698,1.559,1.56V365.041z"/>
	
		<line fill="none" stroke="#764D9F" stroke-linecap="round" stroke-linejoin="round" stroke-miterlimit="10" x1="132.838" y1="368.16" x2="137.518" y2="368.16"/>
	
		<circle fill="#FFFFFF" stroke="#764D9F" stroke-linecap="round" stroke-linejoin="round" stroke-miterlimit="10" cx="148.826" cy="368.16" r="1.17"/>
	
		<circle fill="#FFFFFF" stroke="#764D9F" stroke-linecap="round" stroke-linejoin="round" stroke-miterlimit="10" cx="144.926" cy="368.16" r="1.17"/>
	
		<rect x="130.5" y="365.041" fill="none" stroke="#764D9F" stroke-linecap="round" stroke-linejoin="round" stroke-miterlimit="10" width="21.055" height="6.239"/>
</g>
<ellipse fill="#B699C8" cx="141.027" cy="387.377" rx="11.229" ry="1.169"/>
<g>
	<g>
		<polygon fill="#FFFFFF" points="318.791,421.078 302.668,406.746 275.436,406.746 259.313,421.078 		"/>
		<polygon fill="#FFFFFF" points="275.515,409.613 278.156,406.746 275.436,406.746 272.211,409.613 272.211,409.613 		"/>
		<polygon fill="#FFFFFF" points="275.533,412.48 273.292,415.346 298.467,415.346 297.14,412.48 		"/>
		<polygon fill="#FFFFFF" points="309.117,412.48 302.539,412.48 309.111,421.078 318.791,421.078 		"/>
		<g>
			<path fill="#B699C8" stroke="#764D9F" stroke-linecap="round" stroke-linejoin="round" stroke-miterlimit="10" d="
				M302.539,412.48h6.578l-3.225-2.867H290.18l-0.22-2.867h-1.816l-0.221,2.867h-10.148l2.242-2.867h-1.86l-2.641,2.867h-3.304
				l-3.224,2.867h3.886l-7.922,8.598h3.857l2.802-3.582h27.851l1.657,3.582h7.993L302.539,412.48z M273.292,415.346l2.241-2.865
				h21.607l1.327,2.865H273.292z"/>
		</g>
		<polygon fill="none" stroke="#764D9F" stroke-linecap="round" stroke-linejoin="round" stroke-miterlimit="10" points="
			318.791,421.078 302.668,406.746 275.436,406.746 259.313,421.078 		"/>
	</g>
	<g>
		<path fill="#FFFFFF" d="M294.068,391.339c0,4.947-8.957,18.274-8.957,18.274s-8.958-13.327-8.958-18.274
			c0-4.947,4.01-8.958,8.958-8.958C290.058,382.382,294.068,386.393,294.068,391.339z"/>
		
			<circle fill="#B699C8" stroke="#764D9F" stroke-linecap="round" stroke-linejoin="round" stroke-miterlimit="10" cx="285.111" cy="391.339" r="4.3"/>
		<path fill="none" stroke="#764D9F" stroke-linecap="round" stroke-linejoin="round" stroke-miterlimit="10" d="M294.068,391.339
			c0,4.947-8.957,18.274-8.957,18.274s-8.958-13.327-8.958-18.274c0-4.947,4.01-8.958,8.958-8.958
			C290.058,382.382,294.068,386.393,294.068,391.339z"/>
	</g>
	<path fill="#FFFFFF" stroke="#764D9F" stroke-linecap="round" stroke-linejoin="round" stroke-miterlimit="10" d="M272.212,409.971
		c0,0.99-1.792,3.225-1.792,3.225s-1.791-2.234-1.791-3.225s0.802-1.791,1.791-1.791S272.212,408.98,272.212,409.971z"/>
	<path fill="#FFFFFF" stroke="#764D9F" stroke-linecap="round" stroke-linejoin="round" stroke-miterlimit="10" d="M300.877,405.672
		c0,0.99-1.792,3.225-1.792,3.225s-1.792-2.234-1.792-3.225s0.802-1.793,1.792-1.793
		C300.074,403.879,300.877,404.682,300.877,405.672z"/>
	<g>
		<path fill="#FFFFFF" stroke="#764D9F" stroke-linecap="round" stroke-linejoin="round" stroke-miterlimit="10" d="M312.34,407.105
			c0,2.178-3.939,7.523-3.939,7.523s-3.942-5.346-3.942-7.523s1.765-3.941,3.942-3.941
			C310.576,403.164,312.34,404.928,312.34,407.105z"/>
		
			<circle fill="#B699C8" stroke="#764D9F" stroke-linecap="round" stroke-linejoin="round" stroke-miterlimit="10" cx="308.4" cy="407.105" r="1.792"/>
	</g>
</g>
<path fill="#E3D7EA" stroke="#764D9F" stroke-width="2" stroke-miterlimit="10" d="M311.531,359.704
	c0-15.51-12.038-28.085-26.885-28.085c-14.849,0-26.887,12.575-26.887,28.085c0,13.33,8.899,24.469,20.827,27.344l6.06,25.316
	l6.059-25.316C302.632,384.173,311.531,373.034,311.531,359.704z"/>
<g>
	<path fill="#B699C8" d="M297.319,368.359h-11.467c-0.551,0-0.997-0.447-0.997-0.997v-9.972c0-0.551,0.446-0.997,0.997-0.997h11.467
		c0.551,0,0.997,0.446,0.997,0.997v9.972C298.316,367.912,297.87,368.359,297.319,368.359z"/>
	
		<circle fill="#FFFFFF" stroke="#764D9F" stroke-linecap="round" stroke-linejoin="round" stroke-miterlimit="10" cx="296.572" cy="358.387" r="0.748"/>
	
		<circle fill="#FFFFFF" stroke="#764D9F" stroke-linecap="round" stroke-linejoin="round" stroke-miterlimit="10" cx="294.079" cy="358.387" r="0.748"/>
	
		<circle fill="#FFFFFF" stroke="#764D9F" stroke-linecap="round" stroke-linejoin="round" stroke-miterlimit="10" cx="296.572" cy="362.376" r="0.748"/>
	
		<circle fill="#FFFFFF" stroke="#764D9F" stroke-linecap="round" stroke-linejoin="round" stroke-miterlimit="10" cx="294.079" cy="362.376" r="0.748"/>
	
		<circle fill="#FFFFFF" stroke="#764D9F" stroke-linecap="round" stroke-linejoin="round" stroke-miterlimit="10" cx="296.572" cy="366.364" r="0.748"/>
	
		<circle fill="#FFFFFF" stroke="#764D9F" stroke-linecap="round" stroke-linejoin="round" stroke-miterlimit="10" cx="294.079" cy="366.364" r="0.748"/>
	<path fill="none" stroke="#764D9F" stroke-linecap="round" stroke-linejoin="round" stroke-miterlimit="10" d="M297.319,368.359
		h-11.467c-0.551,0-0.997-0.447-0.997-0.997v-2.992h13.46v2.992C298.316,367.912,297.87,368.359,297.319,368.359z"/>
	
		<rect x="284.855" y="360.382" fill="none" stroke="#764D9F" stroke-linecap="round" stroke-linejoin="round" stroke-miterlimit="10" width="13.46" height="3.988"/>
	<path fill="none" stroke="#764D9F" stroke-linecap="round" stroke-linejoin="round" stroke-miterlimit="10" d="M298.316,360.382
		h-13.46v-2.992c0-0.551,0.446-0.997,0.997-0.997h11.467c0.551,0,0.997,0.446,0.997,0.997V360.382z"/>
</g>
<g>
	<path fill="#B699C8" d="M283.359,368.359h-11.467c-0.55,0-0.997-0.447-0.997-0.997v-9.972c0-0.551,0.447-0.997,0.997-0.997h11.467
		c0.552,0,0.997,0.446,0.997,0.997v9.972C284.356,367.912,283.911,368.359,283.359,368.359z"/>
	
		<line fill="none" stroke="#764D9F" stroke-linecap="round" stroke-linejoin="round" stroke-miterlimit="10" x1="272.391" y1="366.364" x2="275.383" y2="366.364"/>
	
		<line fill="none" stroke="#764D9F" stroke-linecap="round" stroke-linejoin="round" stroke-miterlimit="10" x1="272.391" y1="362.376" x2="275.383" y2="362.376"/>
	
		<line fill="none" stroke="#764D9F" stroke-linecap="round" stroke-linejoin="round" stroke-miterlimit="10" x1="272.391" y1="358.387" x2="275.383" y2="358.387"/>
	<path fill="none" stroke="#764D9F" stroke-linecap="round" stroke-linejoin="round" stroke-miterlimit="10" d="M283.359,368.359
		h-11.467c-0.55,0-0.997-0.447-0.997-0.997v-2.992h13.46v2.992C284.356,367.912,283.911,368.359,283.359,368.359z"/>
	
		<rect x="270.896" y="360.382" fill="none" stroke="#764D9F" stroke-linecap="round" stroke-linejoin="round" stroke-miterlimit="10" width="13.46" height="3.988"/>
	<path fill="none" stroke="#764D9F" stroke-linecap="round" stroke-linejoin="round" stroke-miterlimit="10" d="M284.356,360.382
		h-13.46v-2.992c0-0.551,0.447-0.997,0.997-0.997h11.467c0.552,0,0.997,0.446,0.997,0.997V360.382z"/>
</g>
<g>
	<path fill="#B699C8" d="M290.34,370.353h-11.467c-0.551,0-0.997-0.446-0.997-0.998v-13.959c0-0.551,0.446-0.997,0.997-0.997h11.467
		c0.55,0,0.997,0.446,0.997,0.997v13.959C291.337,369.907,290.89,370.353,290.34,370.353z"/>
	
		<line fill="none" stroke="#764D9F" stroke-linecap="round" stroke-linejoin="round" stroke-miterlimit="10" x1="279.37" y1="368.359" x2="282.362" y2="368.359"/>
	
		<line fill="none" stroke="#764D9F" stroke-linecap="round" stroke-linejoin="round" stroke-miterlimit="10" x1="279.37" y1="364.37" x2="282.362" y2="364.37"/>
	
		<line fill="none" stroke="#764D9F" stroke-linecap="round" stroke-linejoin="round" stroke-miterlimit="10" x1="279.37" y1="356.393" x2="282.362" y2="356.393"/>
	
		<circle fill="#FFFFFF" stroke="#764D9F" stroke-linecap="round" stroke-linejoin="round" stroke-miterlimit="10" cx="289.592" cy="356.393" r="0.748"/>
	
		<circle fill="#FFFFFF" stroke="#764D9F" stroke-linecap="round" stroke-linejoin="round" stroke-miterlimit="10" cx="287.099" cy="356.393" r="0.748"/>
	
		<circle fill="#FFFFFF" stroke="#764D9F" stroke-linecap="round" stroke-linejoin="round" stroke-miterlimit="10" cx="289.592" cy="364.37" r="0.748"/>
	
		<circle fill="#FFFFFF" stroke="#764D9F" stroke-linecap="round" stroke-linejoin="round" stroke-miterlimit="10" cx="287.099" cy="364.37" r="0.748"/>
	
		<circle fill="#FFFFFF" stroke="#764D9F" stroke-linecap="round" stroke-linejoin="round" stroke-miterlimit="10" cx="289.592" cy="368.359" r="0.748"/>
	
		<circle fill="#FFFFFF" stroke="#764D9F" stroke-linecap="round" stroke-linejoin="round" stroke-miterlimit="10" cx="287.099" cy="368.359" r="0.748"/>
	<path fill="none" stroke="#764D9F" stroke-linecap="round" stroke-linejoin="round" stroke-miterlimit="10" d="M290.34,370.353
		h-11.467c-0.551,0-0.997-0.446-0.997-0.998v-2.992h13.461v2.992C291.337,369.907,290.89,370.353,290.34,370.353z"/>
	
		<rect x="277.876" y="362.376" fill="none" stroke="#764D9F" stroke-linecap="round" stroke-linejoin="round" stroke-miterlimit="10" width="13.461" height="3.988"/>
	<path fill="none" stroke="#764D9F" stroke-linecap="round" stroke-linejoin="round" stroke-miterlimit="10" d="M291.337,358.387
		h-13.461v-2.991c0-0.551,0.446-0.997,0.997-0.997h11.467c0.55,0,0.997,0.446,0.997,0.997V358.387z"/>
	
		<line fill="none" stroke="#764D9F" stroke-linecap="round" stroke-linejoin="round" stroke-miterlimit="10" x1="279.37" y1="360.382" x2="282.362" y2="360.382"/>
	
		<circle fill="#FFFFFF" stroke="#764D9F" stroke-linecap="round" stroke-linejoin="round" stroke-miterlimit="10" cx="289.592" cy="360.382" r="0.748"/>
	
		<circle fill="#FFFFFF" stroke="#764D9F" stroke-linecap="round" stroke-linejoin="round" stroke-miterlimit="10" cx="287.099" cy="360.382" r="0.748"/>
	
		<rect x="277.876" y="358.387" fill="none" stroke="#764D9F" stroke-linecap="round" stroke-linejoin="round" stroke-miterlimit="10" width="13.461" height="3.989"/>
</g>
<ellipse fill="#B699C8" cx="284.607" cy="372.668" rx="7.179" ry="0.748"/>
<path fill="none" stroke="#764D9F" stroke-linecap="round" stroke-linejoin="round" stroke-miterlimit="10" d="M293.587,339.836
	c0.058-0.241,0.096-0.491,0.096-0.75c0-1.792-1.452-3.244-3.244-3.244c-0.736,0-1.407,0.255-1.952,0.668
	c-1.189-1.399-2.96-2.29-4.94-2.29c-3.584,0-6.489,2.905-6.489,6.487c0,0.014,0.002,0.028,0.002,0.042
	c-0.135-0.018-0.268-0.042-0.408-0.042c-1.792,0-3.244,1.453-3.244,3.245s1.452,3.244,3.244,3.244h14.599
	c2.239,0,4.056-1.815,4.056-4.055C295.306,341.773,294.624,340.571,293.587,339.836z"/>
<g>
	<g>
		<polygon fill="#FFFFFF" points="288.275,541.378 262.168,518.171 218.071,518.171 191.963,541.378 		"/>
		<polygon fill="#FFFFFF" points="218.199,522.813 222.476,518.171 218.071,518.171 212.851,522.813 212.851,522.813 		"/>
		<polygon fill="#FFFFFF" points="218.229,527.454 214.599,532.096 255.365,532.096 253.217,527.454 		"/>
		<polygon fill="#FFFFFF" points="272.61,527.454 261.957,527.454 272.602,541.378 288.275,541.378 		"/>
		<g>
			<path fill="#B699C8" stroke="#764D9F" stroke-linecap="round" stroke-linejoin="round" stroke-miterlimit="10" d="
				M261.957,527.454h10.653l-5.222-4.642h-25.442l-0.356-4.642h-2.941l-0.356,4.642h-16.434l3.63-4.642h-3.013l-4.276,4.642h-5.349
				l-5.222,4.642h6.294l-12.829,13.924h6.246l4.537-5.802h45.099l2.685,5.802h12.941L261.957,527.454z M214.599,532.096l3.63-4.642
				h34.988l2.148,4.642H214.599z"/>
		</g>
		<polygon fill="none" stroke="#764D9F" stroke-linecap="round" stroke-linejoin="round" stroke-miterlimit="10" points="
			288.275,541.378 262.168,518.171 218.071,518.171 191.963,541.378 		"/>
	</g>
	<g>
		<path fill="#FFFFFF" d="M248.243,493.223c0,8.011-14.505,29.59-14.505,29.59s-14.505-21.579-14.505-29.59
			s6.493-14.505,14.505-14.505C241.749,478.718,248.243,485.212,248.243,493.223z"/>
		
			<circle fill="#B699C8" stroke="#764D9F" stroke-linecap="round" stroke-linejoin="round" stroke-miterlimit="10" cx="233.738" cy="493.223" r="6.962"/>
		<path fill="none" stroke="#764D9F" stroke-linecap="round" stroke-linejoin="round" stroke-miterlimit="10" d="M248.243,493.223
			c0,8.011-14.505,29.59-14.505,29.59s-14.505-21.579-14.505-29.59s6.493-14.505,14.505-14.505
			C241.749,478.718,248.243,485.212,248.243,493.223z"/>
	</g>
	<path fill="#FFFFFF" stroke="#764D9F" stroke-linecap="round" stroke-linejoin="round" stroke-miterlimit="10" d="M212.852,523.393
		c0,1.602-2.901,5.222-2.901,5.222s-2.901-3.62-2.901-5.222c0-1.603,1.299-2.901,2.901-2.901S212.852,521.79,212.852,523.393z"/>
	<path fill="#FFFFFF" stroke="#764D9F" stroke-linecap="round" stroke-linejoin="round" stroke-miterlimit="10" d="M259.267,516.431
		c0,1.602-2.9,5.221-2.9,5.221s-2.901-3.619-2.901-5.221c0-1.603,1.298-2.901,2.901-2.901
		C257.967,513.529,259.267,514.828,259.267,516.431z"/>
	<g>
		<path fill="#FFFFFF" stroke="#764D9F" stroke-linecap="round" stroke-linejoin="round" stroke-miterlimit="10" d="M277.832,518.75
			c0,3.526-6.383,12.186-6.383,12.186s-6.382-8.659-6.382-12.186c0-3.524,2.857-6.381,6.382-6.381S277.832,515.226,277.832,518.75z"
			/>
		
			<circle fill="#B699C8" stroke="#764D9F" stroke-linecap="round" stroke-linejoin="round" stroke-miterlimit="10" cx="271.45" cy="518.75" r="2.901"/>
	</g>
</g>
<path fill="#E3D7EA" stroke="#764D9F" stroke-width="2" stroke-miterlimit="10" d="M276.52,441.996
	c0-25.115-19.493-45.478-43.535-45.478c-24.043,0-43.536,20.363-43.536,45.478c0,21.585,14.41,39.622,33.724,44.277l9.813,40.993
	l9.812-40.993C262.109,481.618,276.52,463.581,276.52,441.996z"/>
<g>
	<path fill="#B699C8" d="M253.508,456.011h-18.569c-0.892,0-1.614-0.724-1.614-1.614V438.25c0-0.892,0.723-1.615,1.614-1.615h18.569
		c0.891,0,1.614,0.724,1.614,1.615v16.146C255.122,455.287,254.398,456.011,253.508,456.011z"/>
	
		<circle fill="#FFFFFF" stroke="#764D9F" stroke-linecap="round" stroke-linejoin="round" stroke-miterlimit="10" cx="252.296" cy="439.864" r="1.211"/>
	
		<circle fill="#FFFFFF" stroke="#764D9F" stroke-linecap="round" stroke-linejoin="round" stroke-miterlimit="10" cx="248.26" cy="439.864" r="1.211"/>
	
		<circle fill="#FFFFFF" stroke="#764D9F" stroke-linecap="round" stroke-linejoin="round" stroke-miterlimit="10" cx="252.296" cy="446.323" r="1.211"/>
	
		<circle fill="#FFFFFF" stroke="#764D9F" stroke-linecap="round" stroke-linejoin="round" stroke-miterlimit="10" cx="248.26" cy="446.323" r="1.211"/>
	
		<circle fill="#FFFFFF" stroke="#764D9F" stroke-linecap="round" stroke-linejoin="round" stroke-miterlimit="10" cx="252.296" cy="452.781" r="1.211"/>
	
		<circle fill="#FFFFFF" stroke="#764D9F" stroke-linecap="round" stroke-linejoin="round" stroke-miterlimit="10" cx="248.26" cy="452.781" r="1.211"/>
	<path fill="none" stroke="#764D9F" stroke-linecap="round" stroke-linejoin="round" stroke-miterlimit="10" d="M253.508,456.011
		h-18.569c-0.892,0-1.614-0.724-1.614-1.614v-4.845h21.798v4.845C255.122,455.287,254.398,456.011,253.508,456.011z"/>
	
		<rect x="233.324" y="443.094" fill="none" stroke="#764D9F" stroke-linecap="round" stroke-linejoin="round" stroke-miterlimit="10" width="21.798" height="6.458"/>
	<path fill="none" stroke="#764D9F" stroke-linecap="round" stroke-linejoin="round" stroke-miterlimit="10" d="M255.122,443.094
		h-21.798v-4.844c0-0.892,0.723-1.615,1.614-1.615h18.569c0.891,0,1.614,0.724,1.614,1.615V443.094z"/>
</g>
<g>
	<path fill="#B699C8" d="M230.902,456.011h-18.568c-0.892,0-1.615-0.724-1.615-1.614V438.25c0-0.892,0.723-1.615,1.615-1.615h18.568
		c0.892,0,1.614,0.724,1.614,1.615v16.146C232.517,455.287,231.794,456.011,230.902,456.011z"/>
	
		<line fill="none" stroke="#764D9F" stroke-linecap="round" stroke-linejoin="round" stroke-miterlimit="10" x1="213.142" y1="452.781" x2="217.985" y2="452.781"/>
	
		<line fill="none" stroke="#764D9F" stroke-linecap="round" stroke-linejoin="round" stroke-miterlimit="10" x1="213.142" y1="446.323" x2="217.985" y2="446.323"/>
	
		<line fill="none" stroke="#764D9F" stroke-linecap="round" stroke-linejoin="round" stroke-miterlimit="10" x1="213.142" y1="439.864" x2="217.985" y2="439.864"/>
	<path fill="none" stroke="#764D9F" stroke-linecap="round" stroke-linejoin="round" stroke-miterlimit="10" d="M230.902,456.011
		h-18.568c-0.892,0-1.615-0.724-1.615-1.614v-4.845h21.797v4.845C232.517,455.287,231.794,456.011,230.902,456.011z"/>
	
		<rect x="210.719" y="443.094" fill="none" stroke="#764D9F" stroke-linecap="round" stroke-linejoin="round" stroke-miterlimit="10" width="21.797" height="6.458"/>
	<path fill="none" stroke="#764D9F" stroke-linecap="round" stroke-linejoin="round" stroke-miterlimit="10" d="M232.517,443.094
		h-21.797v-4.844c0-0.892,0.723-1.615,1.615-1.615h18.568c0.892,0,1.614,0.724,1.614,1.615V443.094z"/>
</g>
<g>
	<path fill="#B699C8" d="M242.205,459.24h-18.569c-0.891,0-1.614-0.724-1.614-1.615v-22.604c0-0.892,0.724-1.614,1.614-1.614h18.569
		c0.891,0,1.614,0.723,1.614,1.614v22.604C243.819,458.517,243.096,459.24,242.205,459.24z"/>
	
		<line fill="none" stroke="#764D9F" stroke-linecap="round" stroke-linejoin="round" stroke-miterlimit="10" x1="224.443" y1="456.011" x2="229.288" y2="456.011"/>
	
		<line fill="none" stroke="#764D9F" stroke-linecap="round" stroke-linejoin="round" stroke-miterlimit="10" x1="224.443" y1="449.552" x2="229.288" y2="449.552"/>
	
		<line fill="none" stroke="#764D9F" stroke-linecap="round" stroke-linejoin="round" stroke-miterlimit="10" x1="224.443" y1="436.635" x2="229.288" y2="436.635"/>
	
		<circle fill="#FFFFFF" stroke="#764D9F" stroke-linecap="round" stroke-linejoin="round" stroke-miterlimit="10" cx="240.994" cy="436.635" r="1.211"/>
	
		<circle fill="#FFFFFF" stroke="#764D9F" stroke-linecap="round" stroke-linejoin="round" stroke-miterlimit="10" cx="236.957" cy="436.635" r="1.211"/>
	
		<circle fill="#FFFFFF" stroke="#764D9F" stroke-linecap="round" stroke-linejoin="round" stroke-miterlimit="10" cx="240.994" cy="449.552" r="1.211"/>
	
		<circle fill="#FFFFFF" stroke="#764D9F" stroke-linecap="round" stroke-linejoin="round" stroke-miterlimit="10" cx="236.957" cy="449.552" r="1.211"/>
	
		<circle fill="#FFFFFF" stroke="#764D9F" stroke-linecap="round" stroke-linejoin="round" stroke-miterlimit="10" cx="240.994" cy="456.011" r="1.211"/>
	
		<circle fill="#FFFFFF" stroke="#764D9F" stroke-linecap="round" stroke-linejoin="round" stroke-miterlimit="10" cx="236.957" cy="456.011" r="1.211"/>
	<path fill="none" stroke="#764D9F" stroke-linecap="round" stroke-linejoin="round" stroke-miterlimit="10" d="M242.205,459.24
		h-18.569c-0.891,0-1.614-0.724-1.614-1.615v-4.844h21.798v4.844C243.819,458.517,243.096,459.24,242.205,459.24z"/>
	
		<rect x="222.021" y="446.323" fill="none" stroke="#764D9F" stroke-linecap="round" stroke-linejoin="round" stroke-miterlimit="10" width="21.798" height="6.458"/>
	<path fill="none" stroke="#764D9F" stroke-linecap="round" stroke-linejoin="round" stroke-miterlimit="10" d="M243.819,439.864
		h-21.798v-4.844c0-0.892,0.724-1.614,1.614-1.614h18.569c0.891,0,1.614,0.723,1.614,1.614V439.864z"/>
	
		<line fill="none" stroke="#764D9F" stroke-linecap="round" stroke-linejoin="round" stroke-miterlimit="10" x1="224.443" y1="443.094" x2="229.288" y2="443.094"/>
	
		<circle fill="#FFFFFF" stroke="#764D9F" stroke-linecap="round" stroke-linejoin="round" stroke-miterlimit="10" cx="240.994" cy="443.094" r="1.211"/>
	
		<circle fill="#FFFFFF" stroke="#764D9F" stroke-linecap="round" stroke-linejoin="round" stroke-miterlimit="10" cx="236.957" cy="443.094" r="1.211"/>
	
		<rect x="222.021" y="439.864" fill="none" stroke="#764D9F" stroke-linecap="round" stroke-linejoin="round" stroke-miterlimit="10" width="21.798" height="6.459"/>
</g>
<ellipse fill="#B699C8" cx="232.92" cy="462.988" rx="11.625" ry="1.211"/>
<g>
	<g>
		<polygon fill="#FFFFFF" points="498.263,457.222 470.983,432.975 424.911,432.975 397.633,457.222 		"/>
		<polygon fill="#FFFFFF" points="425.044,437.825 429.513,432.975 424.911,432.975 419.456,437.825 419.456,437.825 		"/>
		<polygon fill="#FFFFFF" points="425.076,442.674 421.284,447.522 463.875,447.522 461.631,442.674 		"/>
		<polygon fill="#FFFFFF" points="481.895,442.674 470.765,442.674 481.885,457.222 498.263,457.222 		"/>
		<g>
			<path fill="#B699C8" stroke="#764D9F" stroke-linecap="round" stroke-linejoin="round" stroke-miterlimit="10" d="
				M470.765,442.674h11.13l-5.455-4.849h-26.583l-0.372-4.851h-3.073l-0.373,4.851h-17.17l3.793-4.851h-3.148l-4.469,4.851h-5.588
				l-5.457,4.849h6.577l-13.402,14.548h6.525l4.74-6.061h47.119l2.805,6.061h13.521L470.765,442.674z M421.284,447.522l3.792-4.849
				h36.555l2.244,4.849H421.284z"/>
		</g>
		<polygon fill="none" stroke="#764D9F" stroke-linecap="round" stroke-linejoin="round" stroke-miterlimit="10" points="
			498.263,457.222 470.983,432.975 424.911,432.975 397.633,457.222 		"/>
	</g>
	<g>
		<path fill="#FFFFFF" d="M456.436,406.909c0,8.368-15.154,30.916-15.154,30.916s-15.156-22.548-15.156-30.916
			c0-8.371,6.785-15.156,15.156-15.156C449.65,391.753,456.436,398.538,456.436,406.909z"/>
		
			<circle fill="#B699C8" stroke="#764D9F" stroke-linecap="round" stroke-linejoin="round" stroke-miterlimit="10" cx="441.28" cy="406.909" r="7.274"/>
		<path fill="none" stroke="#764D9F" stroke-linecap="round" stroke-linejoin="round" stroke-miterlimit="10" d="M456.436,406.909
			c0,8.368-15.154,30.916-15.154,30.916s-15.156-22.548-15.156-30.916c0-8.371,6.785-15.156,15.156-15.156
			C449.65,391.753,456.436,398.538,456.436,406.909z"/>
	</g>
	<path fill="#FFFFFF" stroke="#764D9F" stroke-linecap="round" stroke-linejoin="round" stroke-miterlimit="10" d="M419.458,438.432
		c0,1.673-3.032,5.454-3.032,5.454s-3.03-3.781-3.03-5.454c0-1.676,1.356-3.033,3.03-3.033S419.458,436.756,419.458,438.432z"/>
	<path fill="#FFFFFF" stroke="#764D9F" stroke-linecap="round" stroke-linejoin="round" stroke-miterlimit="10" d="M467.953,431.156
		c0,1.673-3.031,5.455-3.031,5.455s-3.03-3.782-3.03-5.455c0-1.676,1.355-3.032,3.03-3.032
		C466.596,428.124,467.953,429.48,467.953,431.156z"/>
	<g>
		<path fill="#FFFFFF" stroke="#764D9F" stroke-linecap="round" stroke-linejoin="round" stroke-miterlimit="10" d="M487.35,433.58
			c0,3.684-6.667,12.73-6.667,12.73s-6.669-9.047-6.669-12.73c0-3.683,2.985-6.669,6.669-6.669
			C484.364,426.911,487.35,429.897,487.35,433.58z"/>
		
			<circle fill="#B699C8" stroke="#764D9F" stroke-linecap="round" stroke-linejoin="round" stroke-miterlimit="10" cx="480.682" cy="433.58" r="3.031"/>
	</g>
</g>
<path fill="#E3D7EA" stroke="#764D9F" stroke-width="2" stroke-miterlimit="10" d="M485.98,353.385
	c0-26.241-20.368-47.517-45.489-47.517c-25.12,0-45.486,21.276-45.486,47.517c0,22.552,15.056,41.398,35.236,46.261l10.25,42.831
	l10.253-42.831C470.924,394.784,485.98,375.937,485.98,353.385z"/>
<g>
	<path fill="#B699C8" d="M461.935,368.028h-19.4c-0.933,0-1.686-0.755-1.686-1.687v-16.87c0-0.932,0.753-1.688,1.686-1.688h19.4
		c0.933,0,1.688,0.755,1.688,1.688v16.87C463.622,367.272,462.867,368.028,461.935,368.028z"/>
	
		<circle fill="#FFFFFF" stroke="#764D9F" stroke-linecap="round" stroke-linejoin="round" stroke-miterlimit="10" cx="460.669" cy="351.158" r="1.265"/>
	
		<circle fill="#FFFFFF" stroke="#764D9F" stroke-linecap="round" stroke-linejoin="round" stroke-miterlimit="10" cx="456.453" cy="351.158" r="1.266"/>
	
		<circle fill="#FFFFFF" stroke="#764D9F" stroke-linecap="round" stroke-linejoin="round" stroke-miterlimit="10" cx="460.669" cy="357.906" r="1.265"/>
	
		<circle fill="#FFFFFF" stroke="#764D9F" stroke-linecap="round" stroke-linejoin="round" stroke-miterlimit="10" cx="456.453" cy="357.906" r="1.266"/>
	
		<circle fill="#FFFFFF" stroke="#764D9F" stroke-linecap="round" stroke-linejoin="round" stroke-miterlimit="10" cx="460.669" cy="364.654" r="1.265"/>
	
		<circle fill="#FFFFFF" stroke="#764D9F" stroke-linecap="round" stroke-linejoin="round" stroke-miterlimit="10" cx="456.453" cy="364.654" r="1.266"/>
	<path fill="none" stroke="#764D9F" stroke-linecap="round" stroke-linejoin="round" stroke-miterlimit="10" d="M461.935,368.028
		h-19.4c-0.933,0-1.686-0.755-1.686-1.687v-5.062h22.773v5.062C463.622,367.272,462.867,368.028,461.935,368.028z"/>
	
		<rect x="440.849" y="354.532" fill="none" stroke="#764D9F" stroke-linecap="round" stroke-linejoin="round" stroke-miterlimit="10" width="22.773" height="6.747"/>
	<path fill="none" stroke="#764D9F" stroke-linecap="round" stroke-linejoin="round" stroke-miterlimit="10" d="M463.622,354.532
		h-22.773v-5.061c0-0.932,0.753-1.688,1.686-1.688h19.4c0.933,0,1.688,0.755,1.688,1.688V354.532z"/>
</g>
<g>
	<path fill="#B699C8" d="M438.316,368.028h-19.401c-0.931,0-1.686-0.755-1.686-1.687v-16.87c0-0.932,0.755-1.688,1.686-1.688h19.401
		c0.933,0,1.688,0.755,1.688,1.688v16.87C440.004,367.272,439.249,368.028,438.316,368.028z"/>
	
		<line fill="none" stroke="#764D9F" stroke-linecap="round" stroke-linejoin="round" stroke-miterlimit="10" x1="419.76" y1="364.654" x2="424.821" y2="364.654"/>
	
		<line fill="none" stroke="#764D9F" stroke-linecap="round" stroke-linejoin="round" stroke-miterlimit="10" x1="419.76" y1="357.906" x2="424.821" y2="357.906"/>
	
		<line fill="none" stroke="#764D9F" stroke-linecap="round" stroke-linejoin="round" stroke-miterlimit="10" x1="419.76" y1="351.158" x2="424.821" y2="351.158"/>
	<path fill="none" stroke="#764D9F" stroke-linecap="round" stroke-linejoin="round" stroke-miterlimit="10" d="M438.316,368.028
		h-19.401c-0.931,0-1.686-0.755-1.686-1.687v-5.062h22.774v5.062C440.004,367.272,439.249,368.028,438.316,368.028z"/>
	
		<rect x="417.229" y="354.532" fill="none" stroke="#764D9F" stroke-linecap="round" stroke-linejoin="round" stroke-miterlimit="10" width="22.774" height="6.747"/>
	<path fill="none" stroke="#764D9F" stroke-linecap="round" stroke-linejoin="round" stroke-miterlimit="10" d="M440.004,354.532
		h-22.774v-5.061c0-0.932,0.755-1.688,1.686-1.688h19.401c0.933,0,1.688,0.755,1.688,1.688V354.532z"/>
</g>
<g>
	<path fill="#B699C8" d="M450.128,371.402h-19.401c-0.933,0-1.688-0.756-1.688-1.688v-23.618c0-0.932,0.755-1.687,1.688-1.687
		h19.401c0.93,0,1.686,0.755,1.686,1.687v23.618C451.813,370.646,451.058,371.402,450.128,371.402z"/>
	
		<line fill="none" stroke="#764D9F" stroke-linecap="round" stroke-linejoin="round" stroke-miterlimit="10" x1="431.567" y1="368.028" x2="436.631" y2="368.028"/>
	
		<line fill="none" stroke="#764D9F" stroke-linecap="round" stroke-linejoin="round" stroke-miterlimit="10" x1="431.567" y1="361.279" x2="436.631" y2="361.279"/>
	
		<line fill="none" stroke="#764D9F" stroke-linecap="round" stroke-linejoin="round" stroke-miterlimit="10" x1="431.567" y1="347.784" x2="436.631" y2="347.784"/>
	
		<circle fill="#FFFFFF" stroke="#764D9F" stroke-linecap="round" stroke-linejoin="round" stroke-miterlimit="10" cx="448.862" cy="347.784" r="1.266"/>
	
		<circle fill="#FFFFFF" stroke="#764D9F" stroke-linecap="round" stroke-linejoin="round" stroke-miterlimit="10" cx="444.644" cy="347.784" r="1.265"/>
	
		<circle fill="#FFFFFF" stroke="#764D9F" stroke-linecap="round" stroke-linejoin="round" stroke-miterlimit="10" cx="448.862" cy="361.279" r="1.266"/>
	
		<circle fill="#FFFFFF" stroke="#764D9F" stroke-linecap="round" stroke-linejoin="round" stroke-miterlimit="10" cx="444.644" cy="361.279" r="1.265"/>
	
		<circle fill="#FFFFFF" stroke="#764D9F" stroke-linecap="round" stroke-linejoin="round" stroke-miterlimit="10" cx="448.862" cy="368.028" r="1.266"/>
	
		<circle fill="#FFFFFF" stroke="#764D9F" stroke-linecap="round" stroke-linejoin="round" stroke-miterlimit="10" cx="444.644" cy="368.028" r="1.265"/>
	<path fill="none" stroke="#764D9F" stroke-linecap="round" stroke-linejoin="round" stroke-miterlimit="10" d="M450.128,371.402
		h-19.401c-0.933,0-1.688-0.756-1.688-1.688v-5.061h22.774v5.061C451.813,370.646,451.058,371.402,450.128,371.402z"/>
	
		<rect x="429.039" y="357.906" fill="none" stroke="#764D9F" stroke-linecap="round" stroke-linejoin="round" stroke-miterlimit="10" width="22.774" height="6.748"/>
	<path fill="none" stroke="#764D9F" stroke-linecap="round" stroke-linejoin="round" stroke-miterlimit="10" d="M451.813,351.158
		h-22.774v-5.061c0-0.932,0.755-1.687,1.688-1.687h19.401c0.93,0,1.686,0.755,1.686,1.687V351.158z"/>
	
		<line fill="none" stroke="#764D9F" stroke-linecap="round" stroke-linejoin="round" stroke-miterlimit="10" x1="431.567" y1="354.532" x2="436.631" y2="354.532"/>
	
		<circle fill="#FFFFFF" stroke="#764D9F" stroke-linecap="round" stroke-linejoin="round" stroke-miterlimit="10" cx="448.862" cy="354.532" r="1.266"/>
	
		<circle fill="#FFFFFF" stroke="#764D9F" stroke-linecap="round" stroke-linejoin="round" stroke-miterlimit="10" cx="444.644" cy="354.532" r="1.265"/>
	
		<rect x="429.039" y="351.158" fill="none" stroke="#764D9F" stroke-linecap="round" stroke-linejoin="round" stroke-miterlimit="10" width="22.774" height="6.749"/>
</g>
<ellipse fill="#B699C8" cx="440.426" cy="375.318" rx="12.146" ry="1.266"/>
<path fill="none" stroke="#764D9F" stroke-linecap="round" stroke-linejoin="round" stroke-miterlimit="10" d="M157.435,336.563
	c0.098-0.409,0.161-0.83,0.161-1.27c0-3.031-2.457-5.488-5.487-5.488c-1.247,0-2.382,0.431-3.302,1.129
	c-2.015-2.367-5.01-3.874-8.36-3.874c-6.063,0-10.978,4.915-10.978,10.977c0,0.023,0.002,0.047,0.002,0.07
	c-0.229-0.029-0.452-0.07-0.689-0.07c-3.03,0-5.487,2.458-5.487,5.488c0,3.031,2.457,5.489,5.487,5.489h24.698
	c3.79,0,6.861-3.072,6.861-6.861C160.341,339.841,159.188,337.806,157.435,336.563z"/>
<polygon fill="#B699C8" stroke="#764D9F" stroke-linecap="round" stroke-linejoin="round" stroke-miterlimit="10" points="
	232.517,392.661 232.517,409.01 247.957,399.928 247.957,383.579 "/>
<polygon fill="#FFFFFF" stroke="#764D9F" stroke-linecap="round" stroke-linejoin="round" stroke-miterlimit="10" points="
	217.076,383.579 217.076,399.928 232.517,409.01 232.517,392.661 "/>
<polygon fill="#FFFFFF" stroke="#764D9F" stroke-linecap="round" stroke-linejoin="round" stroke-miterlimit="10" points="
	217.076,383.579 232.517,392.661 247.957,383.579 232.517,374.496 "/>
<circle fill="#B699C8" stroke="#764D9F" stroke-linejoin="round" stroke-miterlimit="10" cx="232.517" cy="374.496" r="2.543"/>
<circle fill="#FFFFFF" stroke="#764D9F" stroke-linejoin="round" stroke-miterlimit="10" cx="232.517" cy="392.661" r="2.543"/>
<circle fill="#FFFFFF" stroke="#764D9F" stroke-linejoin="round" stroke-miterlimit="10" cx="232.517" cy="409.01" r="2.543"/>
<circle fill="#FFFFFF" stroke="#764D9F" stroke-linejoin="round" stroke-miterlimit="10" cx="247.957" cy="383.579" r="2.543"/>
<circle fill="#B699C8" stroke="#764D9F" stroke-linejoin="round" stroke-miterlimit="10" cx="217.076" cy="383.579" r="2.543"/>
<circle fill="#FFFFFF" stroke="#764D9F" stroke-linejoin="round" stroke-miterlimit="10" cx="247.957" cy="399.928" r="2.543"/>
<circle fill="#B699C8" stroke="#764D9F" stroke-linejoin="round" stroke-miterlimit="10" cx="217.076" cy="399.928" r="2.543"/>
<polygon fill="#B699C8" stroke="#764D9F" stroke-linecap="round" stroke-linejoin="round" stroke-miterlimit="10" points="
	397.633,327.969 397.633,344.318 413.073,335.235 413.073,318.887 "/>
<polygon fill="#FFFFFF" stroke="#764D9F" stroke-linecap="round" stroke-linejoin="round" stroke-miterlimit="10" points="
	382.192,318.887 382.192,335.235 397.633,344.318 397.633,327.969 "/>
<polygon fill="#FFFFFF" stroke="#764D9F" stroke-linecap="round" stroke-linejoin="round" stroke-miterlimit="10" points="
	382.192,318.887 397.633,327.969 413.073,318.887 397.633,309.804 "/>
<circle fill="#B699C8" stroke="#764D9F" stroke-linejoin="round" stroke-miterlimit="10" cx="397.633" cy="309.804" r="2.543"/>
<circle fill="#FFFFFF" stroke="#764D9F" stroke-linejoin="round" stroke-miterlimit="10" cx="397.633" cy="327.969" r="2.543"/>
<circle fill="#FFFFFF" stroke="#764D9F" stroke-linejoin="round" stroke-miterlimit="10" cx="397.633" cy="344.318" r="2.543"/>
<circle fill="#FFFFFF" stroke="#764D9F" stroke-linejoin="round" stroke-miterlimit="10" cx="413.073" cy="318.887" r="2.543"/>
<circle fill="#B699C8" stroke="#764D9F" stroke-linejoin="round" stroke-miterlimit="10" cx="382.192" cy="318.887" r="2.543"/>
<circle fill="#FFFFFF" stroke="#764D9F" stroke-linejoin="round" stroke-miterlimit="10" cx="413.073" cy="335.235" r="2.543"/>
<circle fill="#B699C8" stroke="#764D9F" stroke-linejoin="round" stroke-miterlimit="10" cx="382.192" cy="335.235" r="2.543"/>
<polygon fill="#B699C8" stroke="#764D9F" stroke-linecap="round" stroke-linejoin="round" stroke-miterlimit="10" points="
	288.108,304.163 288.108,312.521 296.002,307.877 296.002,299.519 "/>
<polygon fill="#FFFFFF" stroke="#764D9F" stroke-linecap="round" stroke-linejoin="round" stroke-miterlimit="10" points="
	280.214,299.519 280.214,307.877 288.108,312.521 288.108,304.163 "/>
<polygon fill="#FFFFFF" stroke="#764D9F" stroke-linecap="round" stroke-linejoin="round" stroke-miterlimit="10" points="
	280.214,299.519 288.108,304.163 296.002,299.519 288.108,294.876 "/>
<circle fill="#B699C8" stroke="#764D9F" stroke-linejoin="round" stroke-miterlimit="10" cx="288.108" cy="294.876" r="1.3"/>
<circle fill="#FFFFFF" stroke="#764D9F" stroke-linejoin="round" stroke-miterlimit="10" cx="288.108" cy="304.163" r="1.3"/>
<circle fill="#FFFFFF" stroke="#764D9F" stroke-linejoin="round" stroke-miterlimit="10" cx="288.108" cy="312.521" r="1.3"/>
<circle fill="#FFFFFF" stroke="#764D9F" stroke-linejoin="round" stroke-miterlimit="10" cx="296.002" cy="299.519" r="1.3"/>
<circle fill="#B699C8" stroke="#764D9F" stroke-linejoin="round" stroke-miterlimit="10" cx="280.214" cy="299.519" r="1.3"/>
<circle fill="#FFFFFF" stroke="#764D9F" stroke-linejoin="round" stroke-miterlimit="10" cx="296.002" cy="307.877" r="1.3"/>
<circle fill="#B699C8" stroke="#764D9F" stroke-linejoin="round" stroke-miterlimit="10" cx="280.214" cy="307.877" r="1.3"/>
<polygon fill="#B699C8" stroke="#764D9F" stroke-linecap="round" stroke-linejoin="round" stroke-miterlimit="10" points="
	325.434,269.422 325.434,276.761 332.364,272.684 332.364,265.345 "/>
<polygon fill="#FFFFFF" stroke="#764D9F" stroke-linecap="round" stroke-linejoin="round" stroke-miterlimit="10" points="
	318.502,265.345 318.502,272.684 325.434,276.761 325.434,269.422 "/>
<polygon fill="#FFFFFF" stroke="#764D9F" stroke-linecap="round" stroke-linejoin="round" stroke-miterlimit="10" points="
	318.502,265.345 325.434,269.422 332.364,265.345 325.434,261.268 "/>
<circle fill="#B699C8" stroke="#764D9F" stroke-linejoin="round" stroke-miterlimit="10" cx="325.433" cy="261.268" r="1.141"/>
<circle fill="#FFFFFF" stroke="#764D9F" stroke-linejoin="round" stroke-miterlimit="10" cx="325.433" cy="269.422" r="1.141"/>
<circle fill="#FFFFFF" stroke="#764D9F" stroke-linejoin="round" stroke-miterlimit="10" cx="325.433" cy="276.761" r="1.141"/>
<circle fill="#FFFFFF" stroke="#764D9F" stroke-linejoin="round" stroke-miterlimit="10" cx="332.364" cy="265.345" r="1.142"/>
<circle fill="#B699C8" stroke="#764D9F" stroke-linejoin="round" stroke-miterlimit="10" cx="318.502" cy="265.345" r="1.142"/>
<circle fill="#FFFFFF" stroke="#764D9F" stroke-linejoin="round" stroke-miterlimit="10" cx="332.364" cy="272.684" r="1.142"/>
<circle fill="#B699C8" stroke="#764D9F" stroke-linejoin="round" stroke-miterlimit="10" cx="318.502" cy="272.684" r="1.142"/>
<polygon fill="#B699C8" stroke="#764D9F" stroke-linecap="round" stroke-linejoin="round" stroke-miterlimit="10" points="
	141.997,295.305 141.997,307.444 153.461,300.7 153.461,288.561 "/>
<polygon fill="#FFFFFF" stroke="#764D9F" stroke-linecap="round" stroke-linejoin="round" stroke-miterlimit="10" points="
	130.532,288.561 130.532,300.7 141.997,307.444 141.997,295.305 "/>
<polygon fill="#FFFFFF" stroke="#764D9F" stroke-linecap="round" stroke-linejoin="round" stroke-miterlimit="10" points="
	130.532,288.561 141.997,295.305 153.461,288.561 141.997,281.817 "/>
<circle fill="#B699C8" stroke="#764D9F" stroke-linejoin="round" stroke-miterlimit="10" cx="141.996" cy="281.817" r="1.888"/>
<circle fill="#FFFFFF" stroke="#764D9F" stroke-linejoin="round" stroke-miterlimit="10" cx="141.996" cy="295.305" r="1.888"/>
<circle fill="#FFFFFF" stroke="#764D9F" stroke-linejoin="round" stroke-miterlimit="10" cx="141.996" cy="307.444" r="1.888"/>
<circle fill="#FFFFFF" stroke="#764D9F" stroke-linejoin="round" stroke-miterlimit="10" cx="153.461" cy="288.561" r="1.888"/>
<circle fill="#B699C8" stroke="#764D9F" stroke-linejoin="round" stroke-miterlimit="10" cx="130.531" cy="288.561" r="1.888"/>
<circle fill="#FFFFFF" stroke="#764D9F" stroke-linejoin="round" stroke-miterlimit="10" cx="153.461" cy="300.7" r="1.888"/>
<circle fill="#B699C8" stroke="#764D9F" stroke-linejoin="round" stroke-miterlimit="10" cx="130.531" cy="300.7" r="1.888"/>
<path fill="none" stroke="#764D9F" stroke-width="2.399" stroke-linecap="round" stroke-linejoin="round" stroke-dasharray="0.0613,4.904" d="
	M234.333,371.402c4.095-7.312,8.574-14.959,13.25-22.578c18.564-30.236,30.792-42.69,32.633-40.704"/>
<g>
	
		<path fill="none" stroke="#764D9F" stroke-width="2.399" stroke-linecap="round" stroke-linejoin="round" stroke-dasharray="0.0613,4.904" d="
		M296.002,299.519c8.473-0.75,17.525-1.079,26.748-0.904c36.607,0.712,56.059,11.71,56.578,18.819"/>
</g>
<path fill="none" stroke="#764D9F" stroke-width="2.399" stroke-linecap="round" stroke-linejoin="round" stroke-dasharray="0.0613,4.904" d="
	M291.367,295.899c2.114-3.922,4.606-8.089,7.391-12.309c11.076-16.75,22.646-27.948,25.848-25.009
	c0.895,0.821,1.043,2.658,0.549,5.241"/>
<path fill="none" stroke="#764D9F" stroke-width="2.399" stroke-linecap="round" stroke-linejoin="round" stroke-dasharray="0.0613,4.904" d="
	M277.876,298.219c-11.24-2.974-23.894-6.03-37.473-9.013c-53.937-11.839-102.089-18.005-107.544-13.769
	c-1.526,1.184,0.437,3.053,5.234,5.389"/>
<path fill="none" stroke="#764D9F" stroke-width="2.399" stroke-linecap="round" stroke-linejoin="round" d="M141.935,281.864
	c0.021,0.007,0.042,0.016,0.062,0.024"/>
<g>
	<path fill="#754E9F" d="M130.952,471.754c0.528-0.107,1.295-0.18,2.003-0.18c1.115,0,1.847,0.216,2.351,0.672
		c0.396,0.348,0.636,0.899,0.636,1.535c0,1.056-0.684,1.763-1.523,2.051v0.036c0.612,0.216,0.983,0.791,1.188,1.631
		c0.264,1.127,0.456,1.907,0.612,2.219h-1.08c-0.132-0.228-0.312-0.924-0.528-1.931c-0.24-1.115-0.684-1.535-1.631-1.571h-0.983
		v3.502h-1.043V471.754z M131.995,475.424h1.067c1.115,0,1.823-0.611,1.823-1.535c0-1.043-0.755-1.499-1.859-1.499
		c-0.504,0-0.852,0.048-1.031,0.096V475.424z"/>
	<path fill="#754E9F" d="M139.77,479.85c-1.559,0-2.783-1.151-2.783-2.986c0-1.942,1.284-3.082,2.878-3.082
		c1.667,0,2.794,1.211,2.794,2.975c0,2.158-1.499,3.094-2.878,3.094H139.77z M139.806,479.059c1.007,0,1.763-0.948,1.763-2.268
		c0-0.983-0.492-2.219-1.739-2.219c-1.235,0-1.775,1.151-1.775,2.255c0,1.271,0.72,2.231,1.739,2.231H139.806z"/>
	<path fill="#754E9F" d="M143.995,475.484c0-0.612-0.024-1.092-0.048-1.571h0.923l0.048,0.936h0.036
		c0.324-0.552,0.864-1.067,1.835-1.067c0.78,0,1.379,0.479,1.631,1.163h0.024c0.18-0.336,0.419-0.575,0.66-0.756
		c0.348-0.264,0.719-0.407,1.271-0.407c0.78,0,1.919,0.504,1.919,2.519v3.418h-1.031v-3.286c0-1.128-0.42-1.787-1.259-1.787
		c-0.612,0-1.067,0.443-1.259,0.947c-0.048,0.156-0.084,0.348-0.084,0.528v3.598h-1.032v-3.479c0-0.936-0.408-1.595-1.211-1.595
		c-0.648,0-1.14,0.527-1.308,1.056c-0.06,0.155-0.084,0.336-0.084,0.516v3.502h-1.031V475.484z"/>
	<path fill="#754E9F" d="M158.093,478.326c0,0.504,0.024,0.996,0.084,1.392h-0.948l-0.096-0.731h-0.036
		c-0.312,0.456-0.947,0.863-1.775,0.863c-1.175,0-1.775-0.827-1.775-1.667c0-1.403,1.247-2.171,3.49-2.159v-0.119
		c0-0.48-0.132-1.355-1.319-1.344c-0.552,0-1.116,0.156-1.523,0.432l-0.24-0.707c0.479-0.3,1.187-0.504,1.919-0.504
		c1.787,0,2.219,1.211,2.219,2.374V478.326z M157.062,476.756c-1.151-0.024-2.458,0.18-2.458,1.307c0,0.696,0.456,1.008,0.983,1.008
		c0.768,0,1.259-0.479,1.427-0.972c0.036-0.107,0.048-0.228,0.048-0.336V476.756z"/>
	<path fill="#754E9F" d="M159.787,475.484c0-0.612-0.012-1.092-0.048-1.571h0.936l0.06,0.947h0.024
		c0.288-0.54,0.959-1.079,1.919-1.079c0.803,0,2.051,0.479,2.051,2.471v3.466h-1.056v-3.346c0-0.936-0.348-1.728-1.343-1.728
		c-0.684,0-1.223,0.492-1.415,1.079c-0.048,0.132-0.072,0.324-0.072,0.492v3.502h-1.056V475.484z"/>
	<path fill="#754E9F" d="M166.951,472.846c-0.396,0-0.66-0.312-0.66-0.684s0.276-0.672,0.684-0.672s0.671,0.3,0.671,0.672
		s-0.264,0.684-0.684,0.684H166.951z M166.447,479.718v-5.805h1.056v5.805H166.447z"/>
	<path fill="#754E9F" d="M173.345,478.326c0,0.504,0.024,0.996,0.084,1.392h-0.948l-0.096-0.731h-0.036
		c-0.312,0.456-0.947,0.863-1.775,0.863c-1.175,0-1.775-0.827-1.775-1.667c0-1.403,1.247-2.171,3.49-2.159v-0.119
		c0-0.48-0.132-1.355-1.319-1.344c-0.551,0-1.115,0.156-1.523,0.432l-0.24-0.707c0.479-0.3,1.188-0.504,1.919-0.504
		c1.787,0,2.219,1.211,2.219,2.374V478.326z M172.313,476.756c-1.151-0.024-2.459,0.18-2.459,1.307c0,0.696,0.456,1.008,0.983,1.008
		c0.768,0,1.259-0.479,1.427-0.972c0.036-0.107,0.048-0.228,0.048-0.336V476.756z"/>
</g>
<g>
	<path fill="#754E9F" d="M205.282,549.416v4.798c0,1.799,0.803,2.566,1.883,2.566c1.188,0,1.967-0.791,1.967-2.566v-4.798h1.056
		v4.726c0,2.482-1.308,3.49-3.059,3.49c-1.655,0-2.902-0.936-2.902-3.454v-4.762H205.282z"/>
	<path fill="#754E9F" d="M211.955,553.267c0-0.612-0.012-1.092-0.048-1.571h0.936l0.06,0.947h0.024
		c0.288-0.54,0.959-1.079,1.919-1.079c0.803,0,2.051,0.479,2.051,2.471v3.466h-1.056v-3.346c0-0.936-0.348-1.728-1.343-1.728
		c-0.684,0-1.223,0.492-1.415,1.079c-0.048,0.132-0.072,0.324-0.072,0.492v3.502h-1.056V553.267z"/>
	<path fill="#754E9F" d="M219.119,550.628c-0.396,0-0.66-0.312-0.66-0.684s0.276-0.672,0.684-0.672s0.671,0.3,0.671,0.672
		s-0.264,0.684-0.684,0.684H219.119z M218.615,557.5v-5.805h1.056v5.805H218.615z"/>
	<path fill="#754E9F" d="M222.694,550.304v1.392h1.511v0.804h-1.511v3.13c0,0.72,0.204,1.128,0.792,1.128
		c0.288,0,0.456-0.024,0.611-0.072l0.048,0.804c-0.204,0.071-0.528,0.144-0.936,0.144c-0.492,0-0.888-0.168-1.14-0.443
		c-0.288-0.324-0.408-0.84-0.408-1.523v-3.166h-0.899v-0.804h0.899v-1.067L222.694,550.304z"/>
	<path fill="#754E9F" d="M225.922,554.777c0.024,1.428,0.924,2.015,1.979,2.015c0.755,0,1.223-0.132,1.607-0.287l0.192,0.743
		c-0.372,0.168-1.019,0.372-1.943,0.372c-1.775,0-2.854-1.188-2.854-2.927c0-1.763,1.043-3.143,2.735-3.143
		c1.895,0,2.387,1.668,2.387,2.735c0,0.216-0.012,0.384-0.036,0.503L225.922,554.777z M229.004,554.021
		c0.012-0.659-0.276-1.715-1.451-1.715c-1.08,0-1.535,0.983-1.619,1.715H229.004z"/>
	<path fill="#754E9F" d="M236.348,548.984v7.017c0,0.516,0.012,1.104,0.048,1.499h-0.947l-0.048-1.008h-0.024
		c-0.324,0.648-1.02,1.14-1.967,1.14c-1.403,0-2.495-1.188-2.495-2.95c-0.012-1.943,1.2-3.118,2.603-3.118
		c0.9,0,1.5,0.42,1.751,0.875h0.024v-3.454H236.348z M235.292,554.058c0-0.144-0.012-0.312-0.048-0.455
		c-0.156-0.66-0.731-1.212-1.523-1.212c-1.091,0-1.739,0.96-1.739,2.23c0,1.188,0.588,2.159,1.715,2.159
		c0.708,0,1.355-0.479,1.547-1.259c0.036-0.145,0.048-0.288,0.048-0.456V554.058z"/>
	<path fill="#754E9F" d="M240.682,549.416h1.043v3.898h0.036c0.216-0.312,0.432-0.6,0.636-0.863l2.471-3.035h1.295l-2.926,3.431
		l3.154,4.653h-1.235l-2.651-3.97l-0.779,0.888v3.082h-1.043V549.416z"/>
	<path fill="#754E9F" d="M247.774,550.628c-0.396,0-0.66-0.312-0.66-0.684s0.276-0.672,0.684-0.672s0.671,0.3,0.671,0.672
		s-0.264,0.684-0.684,0.684H247.774z M247.27,557.5v-5.805h1.056v5.805H247.27z"/>
	<path fill="#754E9F" d="M250.078,553.267c0-0.612-0.012-1.092-0.048-1.571h0.936l0.06,0.947h0.024
		c0.288-0.54,0.959-1.079,1.919-1.079c0.803,0,2.051,0.479,2.051,2.471v3.466h-1.056v-3.346c0-0.936-0.348-1.728-1.343-1.728
		c-0.684,0-1.223,0.492-1.415,1.079c-0.048,0.132-0.072,0.324-0.072,0.492v3.502h-1.056V553.267z"/>
	<path fill="#754E9F" d="M261.703,556.648c0,1.344-0.276,2.146-0.828,2.662c-0.576,0.517-1.391,0.696-2.123,0.696
		c-0.696,0-1.463-0.168-1.931-0.479l0.264-0.816c0.384,0.252,0.984,0.468,1.703,0.468c1.08,0,1.871-0.563,1.871-2.038v-0.636h-0.024
		c-0.312,0.539-0.948,0.971-1.847,0.971c-1.439,0-2.471-1.223-2.471-2.842c0-1.967,1.284-3.07,2.627-3.07
		c1.007,0,1.547,0.516,1.811,0.995h0.024l0.036-0.863h0.936c-0.036,0.407-0.048,0.875-0.048,1.583V556.648z M260.647,553.974
		c0-0.168-0.012-0.323-0.06-0.468c-0.192-0.623-0.696-1.127-1.476-1.127c-1.007,0-1.727,0.852-1.727,2.207
		c0,1.127,0.588,2.087,1.715,2.087c0.66,0,1.247-0.408,1.463-1.092c0.06-0.168,0.084-0.372,0.084-0.563V553.974z"/>
	<path fill="#754E9F" d="M268.459,548.984v7.017c0,0.516,0.012,1.104,0.048,1.499h-0.947l-0.048-1.008h-0.024
		c-0.324,0.648-1.02,1.14-1.967,1.14c-1.403,0-2.495-1.188-2.495-2.95c-0.012-1.943,1.2-3.118,2.603-3.118
		c0.9,0,1.5,0.42,1.751,0.875h0.024v-3.454H268.459z M267.404,554.058c0-0.144-0.012-0.312-0.048-0.455
		c-0.156-0.66-0.731-1.212-1.523-1.212c-1.091,0-1.739,0.96-1.739,2.23c0,1.188,0.588,2.159,1.715,2.159
		c0.708,0,1.355-0.479,1.547-1.259c0.036-0.145,0.048-0.288,0.048-0.456V554.058z"/>
	<path fill="#754E9F" d="M272.576,557.632c-1.559,0-2.783-1.151-2.783-2.986c0-1.942,1.284-3.082,2.878-3.082
		c1.667,0,2.794,1.211,2.794,2.975c0,2.158-1.499,3.094-2.878,3.094H272.576z M272.612,556.841c1.007,0,1.763-0.948,1.763-2.268
		c0-0.983-0.492-2.219-1.739-2.219c-1.235,0-1.775,1.151-1.775,2.255c0,1.271,0.72,2.231,1.739,2.231H272.612z"/>
	<path fill="#754E9F" d="M276.802,553.267c0-0.612-0.024-1.092-0.048-1.571h0.923l0.048,0.936h0.036
		c0.324-0.552,0.864-1.067,1.835-1.067c0.78,0,1.379,0.479,1.631,1.163h0.024c0.18-0.336,0.419-0.575,0.66-0.756
		c0.348-0.264,0.719-0.407,1.271-0.407c0.78,0,1.919,0.504,1.919,2.519v3.418h-1.031v-3.286c0-1.128-0.42-1.787-1.259-1.787
		c-0.612,0-1.067,0.443-1.259,0.947c-0.048,0.156-0.084,0.348-0.084,0.528v3.598h-1.032v-3.479c0-0.936-0.408-1.595-1.211-1.595
		c-0.648,0-1.14,0.527-1.308,1.056c-0.06,0.155-0.084,0.336-0.084,0.516v3.502h-1.031V553.267z"/>
</g>
<g>
	<path fill="#754E9F" d="M418.513,471.229c0.468,0.3,1.14,0.528,1.859,0.528c1.067,0,1.691-0.552,1.691-1.38
		c0-0.743-0.433-1.188-1.523-1.595c-1.319-0.479-2.135-1.176-2.135-2.303c0-1.26,1.043-2.195,2.614-2.195
		c0.815,0,1.428,0.192,1.775,0.396l-0.288,0.852c-0.252-0.156-0.792-0.384-1.523-0.384c-1.104,0-1.523,0.659-1.523,1.211
		c0,0.756,0.492,1.127,1.607,1.56c1.367,0.539,2.051,1.187,2.051,2.374c0,1.248-0.911,2.339-2.818,2.339
		c-0.779,0-1.631-0.24-2.063-0.527L418.513,471.229z"/>
	<path fill="#754E9F" d="M426.936,472.632c-1.56,0-2.782-1.151-2.782-2.986c0-1.942,1.283-3.082,2.878-3.082
		c1.667,0,2.795,1.211,2.795,2.975c0,2.158-1.499,3.094-2.879,3.094H426.936z M426.972,471.841c1.007,0,1.763-0.948,1.763-2.268
		c0-0.983-0.491-2.219-1.739-2.219c-1.235,0-1.774,1.151-1.774,2.255c0,1.271,0.72,2.231,1.739,2.231H426.972z"/>
	<path fill="#754E9F" d="M436.018,470.917c0,0.6,0.013,1.127,0.049,1.583h-0.936l-0.061-0.947h-0.023
		c-0.265,0.468-0.888,1.079-1.919,1.079c-0.912,0-2.003-0.516-2.003-2.543v-3.394h1.055v3.202c0,1.104,0.349,1.859,1.296,1.859
		c0.707,0,1.199-0.492,1.391-0.972c0.061-0.145,0.097-0.336,0.097-0.54v-3.55h1.055V470.917z"/>
	<path fill="#754E9F" d="M439.044,465.304v1.392h1.512v0.804h-1.512v3.13c0,0.72,0.204,1.128,0.792,1.128
		c0.288,0,0.456-0.024,0.611-0.072l0.048,0.804c-0.203,0.071-0.527,0.144-0.936,0.144c-0.491,0-0.887-0.168-1.139-0.443
		c-0.288-0.324-0.408-0.84-0.408-1.523v-3.166h-0.899v-0.804h0.899v-1.067L439.044,465.304z"/>
	<path fill="#754E9F" d="M441.745,463.984h1.055v3.622h0.024c0.168-0.3,0.432-0.575,0.756-0.743c0.312-0.192,0.684-0.3,1.079-0.3
		c0.779,0,2.026,0.479,2.026,2.482v3.454h-1.055v-3.334c0-0.947-0.349-1.728-1.344-1.728c-0.684,0-1.211,0.48-1.415,1.056
		c-0.06,0.144-0.072,0.3-0.072,0.504v3.502h-1.055V463.984z"/>
	<path fill="#754E9F" d="M450.984,464.416h1.044v3.898h0.036c0.216-0.312,0.432-0.6,0.636-0.863l2.471-3.035h1.295l-2.927,3.431
		l3.154,4.653h-1.235l-2.65-3.97l-0.779,0.888v3.082h-1.044V464.416z"/>
	<path fill="#754E9F" d="M459.804,472.632c-1.56,0-2.782-1.151-2.782-2.986c0-1.942,1.283-3.082,2.878-3.082
		c1.667,0,2.795,1.211,2.795,2.975c0,2.158-1.499,3.094-2.879,3.094H459.804z M459.84,471.841c1.007,0,1.763-0.948,1.763-2.268
		c0-0.983-0.491-2.219-1.739-2.219c-1.235,0-1.774,1.151-1.774,2.255c0,1.271,0.72,2.231,1.738,2.231H459.84z"/>
	<path fill="#754E9F" d="M464.041,468.506c0-0.684-0.012-1.271-0.048-1.811h0.923l0.048,1.14H465
		c0.265-0.78,0.912-1.271,1.619-1.271c0.108,0,0.192,0.012,0.288,0.036v0.983c-0.12-0.013-0.228-0.024-0.372-0.024
		c-0.743,0-1.271,0.563-1.415,1.344c-0.023,0.155-0.036,0.323-0.036,0.503v3.095h-1.055L464.041,468.506z"/>
	<path fill="#754E9F" d="M468.48,469.777c0.023,1.428,0.923,2.015,1.979,2.015c0.756,0,1.224-0.132,1.607-0.287l0.191,0.743
		c-0.372,0.168-1.02,0.372-1.942,0.372c-1.775,0-2.854-1.188-2.854-2.927c0-1.763,1.043-3.143,2.734-3.143
		c1.895,0,2.387,1.668,2.387,2.735c0,0.216-0.013,0.384-0.036,0.503L468.48,469.777z M471.563,469.021
		c0.012-0.659-0.276-1.715-1.451-1.715c-1.079,0-1.535,0.983-1.619,1.715H471.563z"/>
	<path fill="#754E9F" d="M477.981,471.108c0,0.504,0.024,0.996,0.084,1.392h-0.947l-0.096-0.731h-0.036
		c-0.312,0.456-0.947,0.863-1.775,0.863c-1.175,0-1.774-0.827-1.774-1.667c0-1.403,1.247-2.171,3.49-2.159v-0.119
		c0-0.48-0.132-1.355-1.319-1.344c-0.552,0-1.115,0.156-1.523,0.432l-0.24-0.707c0.48-0.3,1.188-0.504,1.919-0.504
		c1.787,0,2.219,1.211,2.219,2.374V471.108z M476.95,469.538c-1.151-0.024-2.458,0.18-2.458,1.307c0,0.696,0.455,1.008,0.983,1.008
		c0.768,0,1.259-0.479,1.427-0.972c0.036-0.107,0.048-0.228,0.048-0.336V469.538z"/>
</g>
</svg>
