<?xml version="1.0" encoding="UTF-8" standalone="no"?><!DOCTYPE svg PUBLIC "-//W3C//DTD SVG 1.1//EN" "http://www.w3.org/Graphics/SVG/1.1/DTD/svg11.dtd"><svg width="100%" height="100%" viewBox="0 0 160 160" version="1.1" xmlns="http://www.w3.org/2000/svg" xmlns:xlink="http://www.w3.org/1999/xlink" xml:space="preserve" xmlns:serif="http://www.serif.com/" style="fill-rule:evenodd;clip-rule:evenodd;stroke-linejoin:round;stroke-miterlimit:1.41421;"><g id="Ebene-1" serif:id="Ebene 1"><path d="M159.999,80c0,44.184 -35.816,80 -79.999,80c-44.183,0 -80,-35.816 -80,-80c0,-44.182 35.817,-80 80,-80c44.183,0 79.999,35.818 79.999,80" style="fill:#e3d7ef;fill-rule:nonzero;"/><path d="M107.308,119.262l-87.11,0c-3.976,0 -7.198,-3.222 -7.198,-7.2l0,-62.5c0,-3.976 3.222,-7.2 7.198,-7.2l87.11,0c3.976,0 7.202,3.224 7.202,7.2l0,62.5c0,3.978 -3.226,7.2 -7.202,7.2" style="fill:#b999db;fill-rule:nonzero;stroke:#000;stroke-width:2px;"/><path d="M22.228,42.361c-5.098,0 -9.228,4.132 -9.228,9.228l0,49.218c0,0.32 0.062,0.622 0.096,0.934l59.376,-59.38l-50.244,0Z" style="fill:#fff;fill-rule:nonzero;"/><path d="M107.308,119.262l-87.11,0c-3.976,0 -7.198,-3.222 -7.198,-7.2l0,-62.5c0,-3.976 3.222,-7.2 7.198,-7.2l87.11,0c3.976,0 7.202,3.224 7.202,7.2l0,62.5c0,3.978 -3.226,7.2 -7.202,7.2Z" style="fill:none;stroke:#7c41ba;stroke-width:2px;stroke-linecap:round;stroke-miterlimit:10;"/><path d="M72.982,131.566l-18.458,0l1.54,-12.304l15.378,0l1.54,12.304Z" style="fill:#fff;fill-rule:nonzero;stroke:#7c41ba;stroke-width:2px;stroke-linecap:round;stroke-miterlimit:10;"/><path d="M82.208,137.719l-36.91,0c0,-3.396 2.754,-6.152 6.152,-6.152l24.606,0c3.398,0 6.152,2.756 6.152,6.152Z" style="fill:#fff;fill-rule:nonzero;stroke:#7c41ba;stroke-width:2px;stroke-linecap:round;stroke-miterlimit:10;"/><path d="M105.28,119.262c5.098,0 9.23,-4.13 9.23,-9.228l0,-3.074l-101.51,0l0,3.074c0,5.098 4.132,9.228 9.23,9.228l83.05,0Z" style="fill:#fff;fill-rule:nonzero;stroke:#7c41ba;stroke-width:2px;stroke-linecap:round;stroke-miterlimit:10;"/><path d="M151.097,82.845c1.898,1.898 1.898,4.974 0,6.874c-1.896,1.896 -4.974,1.896 -6.872,0l-11.072,-11.074c-1,-1.002 -1,-2.624 0,-3.624l3.246,-3.246c0.482,-0.482 1.134,-0.752 1.814,-0.752c0.678,0 1.332,0.27 1.812,0.752l11.072,11.07Z" style="fill:#b999db;fill-rule:nonzero;stroke:#7c41ba;stroke-width:2px;stroke-linecap:round;stroke-miterlimit:10;"/><path d="M124.469,66.525l3.436,-3.436l8.59,8.59l-3.436,3.436l-8.59,-8.59Z" style="fill:#fff;stroke:#7c41ba;stroke-width:2px;stroke-linecap:round;stroke-miterlimit:10;"/><path d="M128.765,36.463c8.54,8.54 8.54,22.382 0,30.922c-8.542,8.538 -22.384,8.538 -30.924,0c-8.538,-8.54 -8.538,-22.382 0,-30.922c8.54,-8.54 22.382,-8.54 30.924,0" style="fill:#fff;fill-rule:nonzero;stroke:#000;stroke-width:2px;"/><path d="M128.765,36.462c-8.533,-8.534 -22.389,-8.534 -30.923,-0.001c-8.534,8.533 -8.534,22.39 -0.001,30.923c8.533,8.534 22.389,8.535 30.923,0.001c8.534,-8.533 8.534,-22.389 0.001,-30.923Z" style="fill:none;stroke:#7c41ba;stroke-width:2px;stroke-linecap:round;stroke-miterlimit:10;"/><path d="M124.47,40.756c6.168,6.168 6.168,16.168 0,22.334c-6.168,6.168 -16.166,6.168 -22.334,0c-6.166,-6.166 -6.166,-16.166 0,-22.334c6.168,-6.166 16.166,-6.166 22.334,0" style="fill:#b999db;fill-rule:nonzero;stroke:#000;stroke-width:2px;"/><path d="M124.47,40.756c-6.168,-6.166 -16.168,-6.166 -22.334,0c-6.166,6.168 -6.166,16.168 0,22.334c0.076,0.076 0.158,0.138 0.234,0.212l22.31,-22.31c-0.074,-0.076 -0.136,-0.16 -0.21,-0.236" style="fill:#fff;fill-rule:nonzero;"/><path d="M124.471,40.756c-6.164,-6.163 -16.172,-6.164 -22.335,0c-6.163,6.163 -6.163,16.171 0.001,22.334c6.163,6.164 16.171,6.164 22.334,0.001c6.163,-6.164 6.163,-16.171 0,-22.335Z" style="fill:none;stroke:#7c41ba;stroke-width:2px;stroke-linecap:round;stroke-miterlimit:10;"/><path d="M79.134,83.888l18.456,0" style="fill:none;stroke:#7c41ba;stroke-width:2px;stroke-linecap:round;stroke-miterlimit:10;"/><path d="M79.134,90.041l18.456,0" style="fill:none;stroke:#7c41ba;stroke-width:2px;stroke-linecap:round;stroke-miterlimit:10;"/><path d="M79.134,96.193l18.456,0" style="fill:none;stroke:#7c41ba;stroke-width:2px;stroke-linecap:round;stroke-miterlimit:10;"/><path d="M56.064,48.513l0,21.534l21.532,0c0,-11.894 -9.642,-21.534 -21.532,-21.534Z" style="fill:#fff;fill-rule:nonzero;stroke:#7c41ba;stroke-width:2px;stroke-linecap:round;stroke-miterlimit:10;"/><path d="M68.372,62.357l7.692,-7.692l7.682,0" style="fill:none;stroke:#7c41ba;stroke-width:2px;stroke-linecap:round;stroke-miterlimit:10;"/><path d="M49.912,54.666c-11.892,0 -21.532,9.64 -21.532,21.532c0,5.946 2.408,11.33 6.306,15.226l15.226,-15.226l0,-21.532Z" style="fill:#fff;fill-rule:nonzero;stroke:#7c41ba;stroke-width:2px;stroke-linecap:round;stroke-miterlimit:10;"/><path d="M71.443,76.197l-21.532,0l-15.226,15.226c3.898,3.898 9.282,6.308 15.226,6.308c11.892,0 21.532,-9.642 21.532,-21.534Z" style="fill:#fff;fill-rule:nonzero;stroke:#7c41ba;stroke-width:2px;stroke-linecap:round;stroke-miterlimit:10;"/><path d="M51.451,91.578l7.688,9.228l10.768,0" style="fill:none;stroke:#7c41ba;stroke-width:2px;stroke-linecap:round;stroke-miterlimit:10;"/><path d="M37.607,74.66l-6.152,-10.766l-12.306,0" style="fill:none;stroke:#7c41ba;stroke-width:2px;stroke-linecap:round;stroke-miterlimit:10;"/><path d="M65.037,113.111c0,-0.707 -0.575,-1.282 -1.282,-1.282c-0.708,0 -1.282,0.575 -1.282,1.282c0,0.708 0.574,1.282 1.282,1.282c0.707,0 1.282,-0.574 1.282,-1.282Z" style="fill:none;stroke:#7c41ba;stroke-width:2px;stroke-linecap:round;stroke-miterlimit:10;"/></g></svg>