<?xml version="1.0" encoding="UTF-8" standalone="no"?>
<!-- Generator: Adobe Illustrator 16.0.0, SVG Export Plug-In . SVG Version: 6.00 Build 0)  -->

<svg
   xmlns:dc="http://purl.org/dc/elements/1.1/"
   xmlns:cc="http://creativecommons.org/ns#"
   xmlns:rdf="http://www.w3.org/1999/02/22-rdf-syntax-ns#"
   xmlns:svg="http://www.w3.org/2000/svg"
   xmlns="http://www.w3.org/2000/svg"
   xmlns:sodipodi="http://sodipodi.sourceforge.net/DTD/sodipodi-0.dtd"
   xmlns:inkscape="http://www.inkscape.org/namespaces/inkscape"
   version="1.1"
   id="Layer_1"
   x="0px"
   y="0px"
   width="250"
   height="250"
   viewBox="0 0 250 250"
   enable-background="new 0 0 80 80"
   xml:space="preserve"
   sodipodi:docname="support world.svg"
   inkscape:version="0.92.3 (2405546, 2018-03-11)"><metadata
   id="metadata111"><rdf:RDF><cc:Work
       rdf:about=""><dc:format>image/svg+xml</dc:format><dc:type
         rdf:resource="http://purl.org/dc/dcmitype/StillImage" /><dc:title></dc:title></cc:Work></rdf:RDF></metadata><defs
   id="defs109" /><sodipodi:namedview
   pagecolor="#ffffff"
   bordercolor="#666666"
   borderopacity="1"
   objecttolerance="10"
   gridtolerance="10"
   guidetolerance="10"
   inkscape:pageopacity="0"
   inkscape:pageshadow="2"
   inkscape:window-width="1596"
   inkscape:window-height="861"
   id="namedview107"
   showgrid="false"
   inkscape:zoom="2.95"
   inkscape:cx="3.559322"
   inkscape:cy="53.559322"
   inkscape:window-x="0"
   inkscape:window-y="198"
   inkscape:window-maximized="0"
   inkscape:current-layer="Layer_1" />
<circle
   cx="125"
   cy="125"
   id="circle2"
   style="fill:#e3d7ea;stroke-width:3.12499976"
   r="125" />
<g
   id="g104"
   transform="matrix(3.125,0,0,3.1249999,0,5e-6)">
	<g
   id="g52">
		<g
   id="g38">
			<g
   id="g8">
				<path
   d="m 58.729,26.957 c 0,0 -1.2,-4.246 0.229,-6.896 l -2.152,-1.729 c -2.279,1.966 -6.685,1.71 -6.685,1.71 z"
   id="path4"
   inkscape:connector-curvature="0"
   style="fill:#ffffff" />
				<path
   stroke-miterlimit="10"
   d="m 58.729,26.957 c 0,0 -1.2,-4.246 0.229,-6.896 l -2.152,-1.729 c -2.279,1.966 -6.685,1.71 -6.685,1.71 z"
   id="path6"
   inkscape:connector-curvature="0"
   style="fill:none;stroke:#764d9f;stroke-linecap:round;stroke-linejoin:round;stroke-miterlimit:10" />
			</g>
			<g
   id="g16">
				
					<line
   stroke-miterlimit="10"
   x1="11.481"
   y1="42.481998"
   x2="11.481"
   y2="39.723"
   id="line10"
   style="fill:#b699c8;stroke:#764d9f;stroke-linecap:round;stroke-linejoin:round;stroke-miterlimit:10" />
				<path
   stroke-miterlimit="10"
   d="M 16.106,36.962 H 8.721 v 2.76 h 7.004 c 0.08,-0.934 0.198,-1.858 0.381,-2.76 z"
   id="path12"
   inkscape:connector-curvature="0"
   style="fill:#ffffff;stroke:#764d9f;stroke-linecap:round;stroke-linejoin:round;stroke-miterlimit:10" />
				<path
   stroke-miterlimit="10"
   d="m 15.656,42.482 h -5.555 v 2.76 h 5.794 c -0.129,-0.906 -0.212,-1.824 -0.239,-2.76 z"
   id="path14"
   inkscape:connector-curvature="0"
   style="fill:#ffffff;stroke:#764d9f;stroke-linecap:round;stroke-linejoin:round;stroke-miterlimit:10" />
			</g>
			<circle
   cx="39.771"
   cy="41.792999"
   r="24.15"
   id="circle18"
   style="fill:#b699c8" />
			<path
   d="m 53.192,33.685 c 1.255,0 3.292,0 5.468,0 1.185,0 2.272,-0.656 2.826,-1.703 0.067,-0.129 0.097,-0.268 0.146,-0.401 -2.895,-6.184 -8.314,-10.942 -14.95,-12.922 h -3.721 c -1.766,0 -3.197,1.432 -3.197,3.197 0,1.766 1.432,3.197 3.197,3.197 1.412,0 2.558,1.145 2.558,2.558 0,1.412 -1.146,2.557 -2.558,2.557 H 38.805 33.37 c -3.531,0 -6.395,2.863 -6.395,6.395 0,3.532 2.863,6.395 6.395,6.395 h 5.435 v 3.037 c 0,0.793 0.645,1.438 1.439,1.438 0.794,0 1.439,0.645 1.439,1.439 v 1.758 c 0,0.371 -0.078,0.605 -0.211,0.768 -0.938,1.146 -1.132,2.732 -0.498,4.072 0.634,1.34 1.985,2.193 3.467,2.193 0.589,0 1.17,0 1.717,0 4.156,0 5.435,-3.836 5.435,-5.754 0,-1.918 0,-4.359 0,-6.395 0,-1.572 0.89,-2.486 1.868,-3.086 1.518,-0.93 2.448,-2.588 2.448,-4.366 0,-0.123 -0.099,-0.221 -0.221,-0.221 h -2.497 c -0.706,0 -1.279,-0.573 -1.279,-1.279 v -1.599 c 10e-4,-0.706 0.574,-1.278 1.28,-1.278 z"
   id="path20"
   inkscape:connector-curvature="0"
   style="fill:#ffffff" />
			<circle
   stroke-miterlimit="10"
   cx="39.771"
   cy="41.792999"
   r="24.15"
   id="circle22"
   style="fill:none;stroke:#764d9f;stroke-linejoin:round;stroke-miterlimit:10" />
			<path
   stroke-miterlimit="10"
   d="m 53.192,33.685 c 1.255,0 3.292,0 5.468,0 1.185,0 2.272,-0.656 2.826,-1.703 0.067,-0.129 0.097,-0.268 0.146,-0.401 -2.895,-6.184 -8.314,-10.942 -14.95,-12.922 h -3.721 c -1.766,0 -3.197,1.432 -3.197,3.197 0,1.766 1.432,3.197 3.197,3.197 1.412,0 2.558,1.145 2.558,2.558 0,1.412 -1.146,2.557 -2.558,2.557 H 38.805 33.37 c -3.531,0 -6.395,2.863 -6.395,6.395 0,3.532 2.863,6.395 6.395,6.395 h 5.435 v 3.037 c 0,0.793 0.645,1.438 1.439,1.438 0.794,0 1.439,0.645 1.439,1.439 v 1.758 c 0,0.371 -0.078,0.605 -0.211,0.768 -0.938,1.146 -1.132,2.732 -0.498,4.072 0.634,1.34 1.985,2.193 3.467,2.193 0.589,0 1.17,0 1.717,0 4.156,0 5.435,-3.836 5.435,-5.754 0,-1.918 0,-4.359 0,-6.395 0,-1.572 0.89,-2.486 1.868,-3.086 1.518,-0.93 2.448,-2.588 2.448,-4.366 0,-0.123 -0.099,-0.221 -0.221,-0.221 h -2.497 c -0.706,0 -1.279,-0.573 -1.279,-1.279 v -1.599 c 10e-4,-0.706 0.574,-1.278 1.28,-1.278 z"
   id="path24"
   inkscape:connector-curvature="0"
   style="fill:none;stroke:#764d9f;stroke-linejoin:round;stroke-miterlimit:10" />
			<g
   id="g30">
				<path
   stroke-miterlimit="10"
   d="m 33.545,18.243 c -2.344,-0.29 -5.509,-5.906 -5.509,-5.906 0,0 1.846,6.176 0.429,8.065"
   id="path26"
   inkscape:connector-curvature="0"
   style="fill:none;stroke:#764d9f;stroke-linecap:round;stroke-linejoin:round;stroke-miterlimit:10" />
				
					<line
   stroke-miterlimit="10"
   x1="28.997"
   y1="17.927"
   x2="31.393999"
   y2="16.908001"
   id="line28"
   style="fill:none;stroke:#764d9f;stroke-linecap:round;stroke-linejoin:round;stroke-miterlimit:10" />
			</g>
			<path
   stroke-miterlimit="10"
   d="m 38.391,68.703 c 0,0.762 0.618,1.379 1.38,1.379 0.762,0 1.38,-0.617 1.38,-1.379 v -2.76 h -2.76 z"
   id="path32"
   inkscape:connector-curvature="0"
   style="fill:#ffffff;stroke:#764d9f;stroke-linecap:round;stroke-linejoin:round;stroke-miterlimit:10" />
			<g
   id="g36">
				<path
   stroke-miterlimit="10"
   d="m 45.981,63.182 c 0,-0.762 -0.618,-1.379 -1.381,-1.379 h -6.539 c -0.798,0 -1.562,0.336 -2.099,0.928 -0.252,0.277 -0.616,0.451 -1.021,0.451 -1.116,0 -2.071,0.666 -2.506,1.619 2.314,0.736 4.777,1.143 7.336,1.143 2.803,0 5.482,-0.502 7.985,-1.381 H 47.36 c -0.761,0 -1.379,-0.618 -1.379,-1.381 z"
   id="path34"
   inkscape:connector-curvature="0"
   style="fill:#ffffff;stroke:#764d9f;stroke-linecap:round;stroke-linejoin:round;stroke-miterlimit:10" />
			</g>
		</g>
		<g
   id="g50">
			<g
   id="g48">
				<g
   id="g46">
					<path
   d="m 61.852,37.971 c -0.009,0.006 -0.017,0.012 -0.024,0.018"
   id="path40"
   inkscape:connector-curvature="0"
   style="fill:none;stroke:#764d9f;stroke-width:2.39899993;stroke-linecap:round;stroke-linejoin:round" />
					
						<path
   d="m 57.187,41.188 c -3.836,2.533 -8.158,5.137 -12.804,7.678 -18.45,10.085 -35.007,15.337 -36.98,11.726 -0.551,-1.008 0.093,-2.6 1.709,-4.59"
   id="path42"
   inkscape:connector-curvature="0"
   style="fill:none;stroke:#764d9f;stroke-width:2.39899993;stroke-linecap:round;stroke-linejoin:round;stroke-dasharray:0.0613, 4.904" />
					<path
   d="m 11.02,53.91 c 0.008,-0.01 0.017,-0.018 0.024,-0.025"
   id="path44"
   inkscape:connector-curvature="0"
   style="fill:none;stroke:#764d9f;stroke-width:2.39899993;stroke-linecap:round;stroke-linejoin:round" />
				</g>
			</g>
		</g>
	</g>
	<g
   id="g102">
		<polygon
   points="72.396,27.344 72.087,30.848 74.435,28.225 74.079,26.252 "
   id="polygon54"
   style="clip-rule:evenodd;fill:#764d9f;fill-rule:evenodd" />
		<polygon
   points="69.78,31.753 71.429,32.895 71.848,30.934 69.584,28.241 "
   id="polygon56"
   style="clip-rule:evenodd;fill:#764d9f;fill-rule:evenodd" />
		<polygon
   points="72.554,32.888 74.237,31.795 74.546,28.292 72.197,30.916 "
   id="polygon58"
   style="clip-rule:evenodd;fill:#764d9f;fill-rule:evenodd" />
		<polygon
   points="73.358,33.669 75.319,34.087 78.011,31.832 74.499,32.025 "
   id="polygon60"
   style="clip-rule:evenodd;fill:#764d9f;fill-rule:evenodd" />
		<polygon
   points="73.366,34.804 74.459,36.49 77.962,36.796 75.339,34.448 "
   id="polygon62"
   style="clip-rule:evenodd;fill:#764d9f;fill-rule:evenodd" />
		<polygon
   points="72.585,35.611 72.166,37.572 74.423,40.264 74.229,36.75 "
   id="polygon64"
   style="clip-rule:evenodd;fill:#764d9f;fill-rule:evenodd" />
		<polygon
   points="69.776,36.723 69.47,40.225 71.819,37.602 71.462,35.631 "
   id="polygon66"
   style="clip-rule:evenodd;fill:#764d9f;fill-rule:evenodd" />
		<polygon
   points="65.991,36.674 69.503,36.481 70.644,34.836 68.683,34.417 "
   id="polygon68"
   style="clip-rule:evenodd;fill:#764d9f;fill-rule:evenodd" />
		<polygon
   points="66.04,31.709 68.663,34.059 70.636,33.702 69.543,32.016 "
   id="polygon70"
   style="clip-rule:evenodd;fill:#764d9f;fill-rule:evenodd" />
		<polygon
   points="64.002,32.173 65.093,33.858 68.597,34.167 65.973,31.817 "
   id="polygon72"
   style="clip-rule:evenodd;fill:#764d9f;fill-rule:evenodd" />
		<polygon
   points="67.813,27.126 67.395,29.089 69.655,31.785 69.46,28.269 "
   id="polygon74"
   style="clip-rule:evenodd;fill:#764d9f;fill-rule:evenodd" />
		<polygon
   points="74.472,31.905 77.983,31.711 79.124,30.069 77.163,29.648 "
   id="polygon76"
   style="clip-rule:evenodd;fill:#764d9f;fill-rule:evenodd" />
		<polygon
   points="75.405,34.338 78.028,36.688 80,36.332 78.909,34.647 "
   id="polygon78"
   style="clip-rule:evenodd;fill:#764d9f;fill-rule:evenodd" />
		<polygon
   points="74.542,40.234 76.187,41.375 76.604,39.414 74.349,36.723 "
   id="polygon80"
   style="clip-rule:evenodd;fill:#764d9f;fill-rule:evenodd" />
		<polygon
   points="69.922,42.252 71.607,41.16 71.915,37.657 69.565,40.279 "
   id="polygon82"
   style="clip-rule:evenodd;fill:#764d9f;fill-rule:evenodd" />
		<polygon
   points="64.878,38.437 66.839,38.858 69.53,36.6 66.019,36.794 "
   id="polygon84"
   style="clip-rule:evenodd;fill:#764d9f;fill-rule:evenodd" />
		<polygon
   points="69.358,40.197 69.655,36.652 66.925,38.912 "
   id="polygon86"
   style="clip-rule:evenodd;fill:#764d9f;fill-rule:evenodd" />
		<polygon
   points="65.929,36.587 68.646,34.289 65.118,33.958 "
   id="polygon88"
   style="clip-rule:evenodd;fill:#764d9f;fill-rule:evenodd" />
		<polygon
   points="66.061,31.607 69.604,31.905 67.343,29.177 "
   id="polygon90"
   style="clip-rule:evenodd;fill:#764d9f;fill-rule:evenodd" />
		<polygon
   points="71.964,30.897 72.294,27.368 69.669,28.178 "
   id="polygon92"
   style="clip-rule:evenodd;fill:#764d9f;fill-rule:evenodd" />
		<polygon
   points="74.349,31.857 77.077,29.594 74.647,28.311 "
   id="polygon94"
   style="clip-rule:evenodd;fill:#764d9f;fill-rule:evenodd" />
		<polygon
   points="75.356,34.216 78.886,34.545 78.075,31.92 "
   id="polygon96"
   style="clip-rule:evenodd;fill:#764d9f;fill-rule:evenodd" />
		<polygon
   points="76.659,39.328 77.942,36.9 74.397,36.6 "
   id="polygon98"
   style="clip-rule:evenodd;fill:#764d9f;fill-rule:evenodd" />
		<polygon
   points="71.708,41.139 74.334,40.326 72.038,37.608 "
   id="polygon100"
   style="clip-rule:evenodd;fill:#764d9f;fill-rule:evenodd" />
	</g>
</g>
</svg>