<!-- Generated by IcoMoon.io -->
<svg version="1.1" xmlns="http://www.w3.org/2000/svg" width="1024" height="1024" viewBox="0 0 1024 1024">
<title></title>
<g id="icomoon-ignore">
</g>
<path d="M1012 130l-300-128c-8-4-18-2-24 6l-86 106c-4 6-6 12-4 18s6 12 10 14l-268 100c-22 10-42 26-54 46l-88 148c-20 30-20 70-4 102l6 12h-94c-12 0-20 10-20 22v426c0 12 8 22 20 22h556c12 0 20-10 20-22v-320c0 0 0-2 0-4 40-26 86-68 126-134 68-110 106-198 120-238l4 2c8 4 18 8 28 8 16 0 32-8 44-20 14-12 20-28 20-46v-100c0-10-6-16-12-20zM640 982h-512v-384h108c0 0 0 0 0 0h170c-20 12-44 26-74 44-22 16-38 38-44 64-4 26 0 54 16 76 0 0 0 0 0 0 20 28 50 44 82 44 18 0 36-4 52-14l146-88c8-2 30-8 56-22v280zM356 500c34-14 76-38 100-64 16 10 42 22 76 30-24 28-48 64-58 90-2 0-2-2-4-2h-88c-4-20-16-40-26-54zM772 522c-86 136-200 160-200 162-2 0-4 0-6 2l-150 90c-26 16-60 8-76-18-2 0-2 0-2 0-8-14-10-28-8-44 4-14 12-26 26-36 114-72 136-80 134-80 12 0 22-10 22-20 2-14 40-76 80-114 6-6 6-16 4-24-4-8-12-14-20-14-66 0-114-36-114-38-8-4-16-6-24-4-6 4-10 10-10 18-8 20-90 66-108 68-8 0-16 4-20 12-4 10 0 18 6 24 0 0 22 22 32 48h-90l-16-30c-10-20-8-44 2-62l88-148c8-12 20-22 34-28l304-114 230 116c-14 36-52 124-118 234zM982 250c0 8-4 14-8 16-6 6-16 8-24 4l-298-150 58-72 272 116z" style="fill:#ffffff;stroke:#ffffff;stroke-width:2px;"></path>
</svg>

