<?xml version="1.0" encoding="UTF-8" standalone="no"?><!DOCTYPE svg PUBLIC "-//W3C//DTD SVG 1.1//EN" "http://www.w3.org/Graphics/SVG/1.1/DTD/svg11.dtd"><svg width="100%" height="100%" viewBox="0 0 48 48" version="1.1" xmlns="http://www.w3.org/2000/svg" xmlns:xlink="http://www.w3.org/1999/xlink" xml:space="preserve" xmlns:serif="http://www.serif.com/" style="fill-rule:evenodd;clip-rule:evenodd;stroke-linecap:round;stroke-linejoin:round;stroke-miterlimit:10;"><g><path d="M41.032,14.941l-34.064,0c-3.32,0 -6.011,2.691 -6.011,6.011l0,20.037c0,3.32 2.691,6.011 6.011,6.011l34.064,0c3.32,0 6.011,-2.691 6.011,-6.011l0,-20.037c0,-3.32 -2.691,-6.011 -6.011,-6.011Z" style="fill:none;stroke:#7c41ba;stroke-width:2px;"/><path d="M41.032,30.97c0,1.106 -0.898,2.004 -2.004,2.004c-1.106,0 -2.004,-0.898 -2.004,-2.004c0,-1.106 0.898,-2.003 2.004,-2.003c1.106,0 2.004,0.897 2.004,2.003Z" style="fill:none;stroke:#7c41ba;stroke-width:2px;"/><path d="M39.028,36.981l8.015,0l0,-12.022l-8.015,0c-3.32,0 -6.011,2.691 -6.011,6.011c0,3.32 2.691,6.011 6.011,6.011Z" style="fill:none;stroke:#7c41ba;stroke-width:2px;"/><path d="M0.957,20.952l0,-0.002c0,-3.641 2.184,-6.925 5.543,-8.334l25.515,-10.7c4.508,-2.504 9.017,0.445 9.017,4.976l0,8.049" style="fill:none;stroke:#7c41ba;stroke-width:2px;"/><path d="M18.991,14.941l16.029,-6.012" style="fill:none;stroke:#7c41ba;stroke-width:2px;"/></g></svg>