<?xml version="1.0" encoding="UTF-8" standalone="no"?><!DOCTYPE svg PUBLIC "-//W3C//DTD SVG 1.1//EN" "http://www.w3.org/Graphics/SVG/1.1/DTD/svg11.dtd"><svg width="100%" height="100%" viewBox="0 0 24 24" version="1.1" xmlns="http://www.w3.org/2000/svg" xmlns:xlink="http://www.w3.org/1999/xlink" xml:space="preserve" xmlns:serif="http://www.serif.com/" style="fill-rule:evenodd;clip-rule:evenodd;stroke-linejoin:round;stroke-miterlimit:1.41421;"><g><path d="M11.898,19.765c-1.286,0 -2.562,-0.33 -3.691,-0.954c-0.117,-0.064 -0.202,-0.171 -0.239,-0.299c-0.037,-0.128 -0.022,-0.264 0.043,-0.381c0.088,-0.159 0.256,-0.258 0.438,-0.258c0.084,0 0.168,0.022 0.241,0.062c0.982,0.542 2.087,0.829 3.197,0.829l0.105,-0.001l0.11,0.001c1.112,0 2.216,-0.284 3.193,-0.821c0.074,-0.041 0.157,-0.062 0.24,-0.062c0.183,0 0.351,0.099 0.439,0.259c0.133,0.242 0.044,0.547 -0.197,0.679c-1.125,0.618 -2.399,0.944 -3.685,0.944c0,0.001 -0.194,0.002 -0.194,0.002Z" style="fill:#4a1289;fill-rule:nonzero;"/><path d="M16,16c-1.103,0 -2,-0.897 -2,-2c0,-1.103 0.897,-2 2,-2c1.103,0 2,0.897 2,2c0,1.103 -0.898,2 -2,2Zm0,-3c-0.552,0 -1,0.448 -1,1c0,0.552 0.448,1 1,1c0.552,0 1,-0.448 1,-1c0,-0.552 -0.449,-1 -1,-1Z" style="fill:#4a1289;fill-rule:nonzero;"/><path d="M8,16c-1.103,0 -2,-0.897 -2,-2c0,-1.103 0.897,-2 2,-2c1.103,0 2,0.897 2,2c0,1.103 -0.897,2 -2,2Zm0,-3c-0.551,0 -1,0.448 -1,1c0,0.552 0.449,1 1,1c0.551,0 1,-0.448 1,-1c0,-0.552 -0.449,-1 -1,-1Z" style="fill:#4a1289;fill-rule:nonzero;"/><path d="M12,22.5c-5.514,0 -10,-3.14 -10,-7c0,-0.213 0.016,-0.434 0.046,-0.658c-0.769,-0.258 -1.4,-0.811 -1.751,-1.546c-0.714,-1.492 -0.08,-3.287 1.412,-4.001c0.407,-0.195 0.841,-0.294 1.29,-0.294c0.958,0 1.865,0.465 2.425,1.228c1.696,-1.037 3.841,-1.643 6.091,-1.719c0.057,-1.066 0.368,-3.602 2.01,-4.546c0.412,-0.237 0.878,-0.358 1.385,-0.358c0.658,0 1.397,0.204 2.2,0.606c0.352,-1.282 1.539,-2.212 2.892,-2.212c1.654,0 3,1.346 3,3c0,1.654 -1.346,3 -3,3c-1.547,0 -2.831,-1.176 -2.982,-2.702c-0.809,-0.458 -1.517,-0.69 -2.106,-0.69c-0.333,0 -0.632,0.075 -0.89,0.224c-1.187,0.683 -1.448,2.752 -1.505,3.68c2.239,0.08 4.373,0.685 6.061,1.718c0.355,-0.489 0.843,-0.852 1.423,-1.057c0.324,-0.115 0.661,-0.173 1,-0.173c0.448,0 0.883,0.099 1.292,0.295c1.492,0.714 2.126,2.508 1.413,4.001c-0.352,0.735 -0.983,1.289 -1.752,1.546c0.031,0.225 0.046,0.445 0.046,0.658c0,3.86 -4.486,7 -10,7Zm0,-13c-4.963,0 -9,2.692 -9,6c0,3.308 4.037,6 9,6c4.963,0 9,-2.692 9,-6c0,-3.308 -4.038,-6 -9,-6Zm7.403,1.297c1.134,0.874 1.93,1.926 2.321,3.067c0.473,-0.183 0.86,-0.538 1.08,-0.999c0.23,-0.481 0.259,-1.024 0.081,-1.528c-0.178,-0.504 -0.541,-0.909 -1.022,-1.139c-0.274,-0.132 -0.564,-0.198 -0.862,-0.198c-0.226,0 -0.451,0.039 -0.667,0.115c-0.378,0.134 -0.696,0.367 -0.931,0.682Zm-16.406,-0.795c-0.299,0 -0.587,0.066 -0.859,0.195c-0.995,0.476 -1.417,1.672 -0.942,2.667c0.22,0.461 0.606,0.816 1.079,0.999c0.391,-1.14 1.187,-2.193 2.32,-3.066c-0.373,-0.495 -0.968,-0.795 -1.598,-0.795Zm17.003,-7.002c-1.103,0 -2,0.897 -2,2c0,1.103 0.897,2 2,2c1.103,0 2,-0.897 2,-2c0,-1.103 -0.898,-2 -2,-2Z" style="fill:#4a1289;fill-rule:nonzero;"/></g></svg>