<?xml version="1.0" encoding="UTF-8" standalone="no"?><!DOCTYPE svg PUBLIC "-//W3C//DTD SVG 1.1//EN" "http://www.w3.org/Graphics/SVG/1.1/DTD/svg11.dtd"><svg width="100%" height="100%" viewBox="0 0 24 24" version="1.1" xmlns="http://www.w3.org/2000/svg" xmlns:xlink="http://www.w3.org/1999/xlink" xml:space="preserve" xmlns:serif="http://www.serif.com/" style="fill-rule:evenodd;clip-rule:evenodd;stroke-linejoin:round;stroke-miterlimit:1.41421;"><g><path d="M20.759,7.246c-1,-0.999 -2.163,-1.73 -3.4,-2.202c0.721,-2.12 3.277,-2.892 3.277,-2.892c0,0 -5.964,-3.096 -12.551,-1.861c-2.196,0.349 -4.301,1.698 -5.841,3.478c-3.343,3.859 -2.9,9.669 0.991,12.984c0.598,0.512 1.933,1.308 1.958,1.349c-0.877,2.226 -3.678,2.835 -3.678,2.835c0,0 3.703,2.316 8.675,2.917c1.319,0.163 2.72,0.204 4.17,0.049c2.302,-0.187 4.596,-1.405 6.341,-3.12c3.777,-3.721 3.81,-9.783 0.058,-13.537Zm-1.704,12.058c-1.409,1.382 -3.515,2.259 -5.137,2.381c-1.147,0.114 -2.376,0.13 -3.556,-0.016c-1.736,-0.212 -2.99,-0.691 -4.219,-1.154c0.623,-0.601 1.246,-1.43 1.5,-2.145c0.163,-0.423 0.147,-0.894 -0.05,-1.308c-1.319,-2.714 -0.745,-5.964 1.426,-8.077c1.573,-1.536 3.736,-2.259 5.931,-1.991c1.614,0.195 3.081,0.902 4.228,2.048c2.785,2.795 2.687,7.524 -0.123,10.262Z" style="fill:#4a1289;fill-rule:nonzero;"/></g></svg>