<?xml version="1.0" encoding="UTF-8" standalone="no"?><!DOCTYPE svg PUBLIC "-//W3C//DTD SVG 1.1//EN" "http://www.w3.org/Graphics/SVG/1.1/DTD/svg11.dtd"><svg width="100%" height="100%" viewBox="0 0 24 24" version="1.1" xmlns="http://www.w3.org/2000/svg" xmlns:xlink="http://www.w3.org/1999/xlink" xml:space="preserve" xmlns:serif="http://www.serif.com/" style="fill-rule:evenodd;clip-rule:evenodd;stroke-linejoin:round;stroke-miterlimit:1.41421;"><g><path d="M19.228,19.139c-0.608,0 -1.209,-0.21 -1.691,-0.592c-0.481,-0.33 -0.944,-0.867 -1.392,-1.385c-0.342,-0.396 -0.975,-1.129 -1.22,-1.129c-0.313,0.099 -0.374,0.337 -0.41,1.054c-0.023,0.472 -0.049,1.007 -0.396,1.379c-0.08,0.086 -0.188,0.141 -0.305,0.156c-0.49,0.06 -0.991,0.091 -1.488,0.091c-0.199,0 -0.399,-0.005 -0.597,-0.015c-0.094,0.005 -0.211,0.008 -0.328,0.008c-2.176,0 -4.263,-0.938 -5.725,-2.574c-2.931,-3.05 -5.464,-8.739 -5.571,-8.98c-0.066,-0.172 -0.238,-0.723 0.087,-1.11c0.304,-0.361 0.876,-0.404 1.044,-0.409l3.296,-0.027c0.049,0.002 0.072,0.004 0.096,0.009c0.258,0.049 0.498,0.146 0.715,0.29c0.016,0.01 0.031,0.022 0.046,0.035c0.184,0.153 0.331,0.353 0.424,0.575c0.619,1.562 2.215,4.578 3.009,4.919c0.029,-0.058 0.074,-0.171 0.119,-0.373c0.284,-1.286 0.074,-3.483 -0.145,-3.779c-0.152,-0.168 -0.399,-0.287 -0.661,-0.31c-0.271,-0.035 -0.465,-0.217 -0.506,-0.464c-0.079,-0.48 0.473,-0.948 0.839,-1.13c0.024,-0.012 0.05,-0.022 0.077,-0.031c0.756,-0.23 1.537,-0.347 2.322,-0.347c0.234,0 0.472,0.01 0.707,0.031c0.079,-0.003 0.158,-0.004 0.237,-0.004c0.5,0 0.999,0.058 1.482,0.173c1.397,0.34 1.275,2.202 1.167,3.846c-0.052,0.784 -0.137,2.069 0.13,2.379c0.736,-0.339 2.422,-3.482 2.993,-5.002c0.115,-0.252 0.27,-0.447 0.469,-0.596c0.024,-0.018 0.049,-0.033 0.074,-0.046c0.183,-0.091 0.377,-0.137 0.578,-0.137c0.04,0 0.079,0.002 0.119,0.005l3.403,-0.016c0.064,-0.007 0.182,-0.017 0.327,-0.017c0.735,0 1.225,0.25 1.381,0.705c0.178,0.497 0.097,1.362 -1.873,3.987c-0.297,0.395 -0.559,0.735 -0.789,1.031c-0.635,0.821 -1.054,1.363 -1.048,1.625c0.005,0.228 0.453,0.644 1.073,1.218l0.052,0.048c0.933,0.765 1.735,1.693 2.372,2.749c0.309,0.512 0.361,0.972 0.155,1.367c-0.343,0.654 -1.224,0.74 -1.397,0.751l-3.096,0.037c-0.043,0.003 -0.099,0.005 -0.155,0.005Zm-4.296,-4.109c0.695,0 1.285,0.684 1.968,1.476c0.408,0.473 0.829,0.96 1.231,1.237c0.333,0.262 0.71,0.395 1.106,0.395c0.036,0 0.073,-0.001 0.109,-0.003l3.097,-0.037c0.173,-0.012 0.492,-0.109 0.548,-0.216c0.017,-0.033 0.013,-0.156 -0.125,-0.386c-0.578,-0.957 -1.309,-1.802 -2.173,-2.512l-0.074,-0.067c-1.838,-1.705 -1.847,-1.979 -0.136,-4.19c0.227,-0.293 0.486,-0.629 0.78,-1.02c1.669,-2.224 1.742,-2.893 1.733,-3.028c-0.057,-0.026 -0.206,-0.064 -0.446,-0.064c-0.081,0 -0.161,0.005 -0.231,0.013c-0.023,0.004 -0.042,0.005 -0.061,0.005l-3.458,0.017c0,0 -0.084,-0.005 -0.096,-0.005c-0.031,0 -0.062,0.005 -0.091,0.015c-0.045,0.042 -0.082,0.093 -0.108,0.148c-0.012,0.034 -2.116,5.075 -3.653,5.583c-0.102,0.034 -0.204,0.051 -0.303,0.051c-0.162,0 -0.32,-0.047 -0.456,-0.134c-0.817,-0.529 -0.727,-1.888 -0.632,-3.327c0.078,-1.189 0.176,-2.667 -0.402,-2.807c-0.406,-0.096 -0.825,-0.145 -1.244,-0.145c-0.077,0 -0.155,0.002 -0.232,0.005c-0.007,0 -0.013,0 -0.018,0c-0.025,0 -0.038,-0.001 -0.05,-0.002c-0.214,-0.02 -0.432,-0.03 -0.646,-0.03c-0.608,0 -1.213,0.08 -1.803,0.238c0.188,0.108 0.358,0.247 0.506,0.412c0.569,0.765 0.614,3.418 0.347,4.626c-0.125,0.567 -0.32,0.905 -0.613,1.065c-0.133,0.072 -0.284,0.11 -0.437,0.11c-0.118,0 -0.239,-0.022 -0.36,-0.066c-1.562,-0.566 -3.602,-5.445 -3.621,-5.493c-0.025,-0.06 -0.068,-0.121 -0.122,-0.171c-0.086,-0.053 -0.18,-0.092 -0.278,-0.115l-3.233,0.025c-0.089,0.003 -0.185,0.023 -0.249,0.043c0.005,0.031 0.013,0.067 0.025,0.097c0.101,0.225 2.62,5.807 5.378,8.678c1.283,1.435 3.106,2.254 5.008,2.254c0.104,0 0.209,-0.002 0.314,-0.007c0.213,0.009 0.401,0.014 0.589,0.014c0.378,0 0.758,-0.019 1.13,-0.056c0.044,-0.154 0.056,-0.388 0.067,-0.617c0.032,-0.652 0.08,-1.635 1.104,-1.96c0.1,-0.033 0.205,-0.049 0.311,-0.049Z" style="fill:#4a1289;fill-rule:nonzero;"/></g></svg>