<?xml version="1.0" encoding="utf-8"?>
<!-- Generator: Adobe Illustrator 16.0.0, SVG Export Plug-In . SVG Version: 6.00 Build 0)  -->
<!DOCTYPE svg PUBLIC "-//W3C//DTD SVG 1.1//EN" "http://www.w3.org/Graphics/SVG/1.1/DTD/svg11.dtd">
<svg version="1.1" id="Layer_1" xmlns="http://www.w3.org/2000/svg" xmlns:xlink="http://www.w3.org/1999/xlink" x="0px" y="0px"
	 width="450px" height="600px" viewBox="0 0 450 600" enable-background="new 0 0 450 600" xml:space="preserve">
<g>
	<g>
		<g>
			<g>
				<path fill="#E3D7EA" d="M264,98.569c0-44.184-35.816-80-80-80c-44.183,0-80,35.816-80,80c0,11.77,2.563,22.936,7.128,33h145.743
					C261.438,121.505,264,110.339,264,98.569z"/>
			</g>
			<g>
				
					<line fill="none" stroke="#764D9F" stroke-width="2" stroke-linecap="round" stroke-linejoin="round" stroke-miterlimit="10" x1="106" y1="131.569" x2="262" y2="131.569"/>
				
					<line fill="none" stroke="#764D9F" stroke-width="2" stroke-linecap="round" stroke-linejoin="round" stroke-miterlimit="10" x1="97" y1="131.569" x2="102" y2="131.569"/>
				
					<line fill="none" stroke="#764D9F" stroke-width="2" stroke-linecap="round" stroke-linejoin="round" stroke-miterlimit="10" x1="266" y1="131.569" x2="271" y2="131.569"/>
			</g>
		</g>
	</g>
	<g>
		
			<path fill="#FFFFFF" stroke="#764D9F" stroke-width="2" stroke-linecap="round" stroke-linejoin="round" stroke-miterlimit="10" d="
			M169.398,48.589h4.223c1.508,0,2.736,1.211,2.762,2.719l1.336,86.98H165.3l1.339-86.98
			C166.661,49.8,167.891,48.589,169.398,48.589z"/>
		
			<polygon fill="#B699C8" stroke="#764D9F" stroke-width="2" stroke-linecap="round" stroke-linejoin="round" stroke-miterlimit="10" points="
			166.34,70.669 176.68,70.669 176.531,61.009 166.488,61.009 		"/>
		
			<polygon fill="#B699C8" stroke="#764D9F" stroke-width="2" stroke-linecap="round" stroke-linejoin="round" stroke-miterlimit="10" points="
			166.001,92.749 177.018,92.749 176.871,83.089 166.149,83.089 		"/>
		<rect x="130.8" y="88.608" fill="#FFFFFF" width="85.56" height="49.68"/>
		
			<rect x="130.8" y="88.608" fill="none" stroke="#764D9F" stroke-width="2" stroke-linecap="round" stroke-linejoin="round" stroke-miterlimit="10" width="85.56" height="49.68"/>
		
			<path fill="#B699C8" stroke="#764D9F" stroke-width="2" stroke-linecap="round" stroke-linejoin="round" stroke-miterlimit="10" d="
			M218.359,72.05h11.18c1.105,0,2,0.895,2,2v29.738h-15.18V74.05C216.359,72.944,217.256,72.05,218.359,72.05z"/>
		
			<path fill="#B699C8" stroke="#764D9F" stroke-width="2" stroke-linecap="round" stroke-linejoin="round" stroke-miterlimit="10" d="
			M204.699,81.71h-19.461c-1.104,0-2,0.895-2,2v20.078h23.461V83.71C206.699,82.604,205.805,81.71,204.699,81.71z"/>
		<path fill="none" stroke="#764D9F" stroke-width="2" stroke-linecap="round" stroke-linejoin="round" stroke-miterlimit="10" d="
			M242.578,103.788h-11.039V77.569h10.039c0.555,0,1,0.449,1,1V103.788z"/>
		
			<polyline fill="none" stroke="#764D9F" stroke-width="2" stroke-linecap="round" stroke-linejoin="round" stroke-miterlimit="10" points="
			231.539,77.569 242.578,88.608 231.539,88.608 242.578,99.649 231.539,99.649 		"/>
		<path fill="none" stroke="#764D9F" stroke-width="2" stroke-linecap="round" stroke-linejoin="round" stroke-miterlimit="10" d="
			M166.68,138.288h-13.801v-44.16h12.801c0.552,0,1,0.449,1,1V138.288z"/>
		
			<polyline fill="none" stroke="#764D9F" stroke-width="2" stroke-linecap="round" stroke-linejoin="round" stroke-miterlimit="10" points="
			152.879,94.128 166.68,107.929 152.879,107.929 166.68,121.729 152.879,121.729 166.68,135.528 		"/>
		<path fill="#FFFFFF" d="M162.539,138.288h84.18v-32.5c0-1.104-0.895-2-2-2h-80.18c-1.104,0-2,0.896-2,2V138.288z"/>
		<path fill="none" stroke="#764D9F" stroke-width="2" stroke-linecap="round" stroke-linejoin="round" stroke-miterlimit="10" d="
			M162.539,138.288h84.18v-32.5c0-1.104-0.895-2-2-2h-80.18c-1.104,0-2,0.896-2,2V138.288z"/>
		<path fill="none" stroke="#764D9F" stroke-width="2" stroke-linecap="round" stroke-linejoin="round" stroke-miterlimit="10" d="
			M183.238,113.45h58.748c6.426,0,11.633,5.209,11.633,11.633v13.205"/>
		<path fill="#FFFFFF" d="M143.181,43.069h6.979c1.51,0,2.738,1.211,2.761,2.719l1.341,92.5h-15.182l1.341-92.5
			C140.442,44.28,141.672,43.069,143.181,43.069z"/>
		<path fill="#FFFFFF" d="M122.48,43.069h6.979c1.51,0,2.738,1.211,2.761,2.719l1.341,92.5h-15.182l1.342-92.5
			C119.742,44.28,120.972,43.069,122.48,43.069z"/>
		<path fill="none" stroke="#764D9F" stroke-width="2" stroke-linecap="round" stroke-linejoin="round" stroke-miterlimit="10" d="
			M143.181,43.069h6.979c1.51,0,2.738,1.211,2.761,2.719l1.341,92.5h-15.182l1.341-92.5
			C140.442,44.28,141.672,43.069,143.181,43.069z"/>
		
			<path fill="#B699C8" stroke="#764D9F" stroke-width="2" stroke-linecap="round" stroke-linejoin="round" stroke-miterlimit="10" d="
			M226.023,138.292h9.66v-36.24c0-1.326-1.074-2.4-2.398-2.4h-4.863c-1.324,0-2.398,1.074-2.398,2.4V138.292z"/>
		
			<path fill="#B699C8" stroke="#764D9F" stroke-width="2" stroke-linecap="round" stroke-linejoin="round" stroke-miterlimit="10" d="
			M220.5,138.288h20.699v-8.998c0-2.65-2.148-4.801-4.801-4.801h-11.098c-2.652,0-4.801,2.15-4.801,4.801V138.288z"/>
		
			<path fill="#B699C8" stroke="#764D9F" stroke-width="2" stroke-linecap="round" stroke-linejoin="round" stroke-miterlimit="10" d="
			M199.805,138.292h9.66v-36.24c0-1.326-1.074-2.4-2.398-2.4h-4.863c-1.324,0-2.398,1.074-2.398,2.4V138.292z"/>
		
			<path fill="#B699C8" stroke="#764D9F" stroke-width="2" stroke-linecap="round" stroke-linejoin="round" stroke-miterlimit="10" d="
			M194.281,138.288h20.699v-8.998c0-2.65-2.148-4.801-4.801-4.801h-11.098c-2.652,0-4.801,2.15-4.801,4.801V138.288z"/>
		
			<path fill="#B699C8" stroke="#764D9F" stroke-width="2" stroke-linecap="round" stroke-linejoin="round" stroke-miterlimit="10" d="
			M173.584,138.292h9.66v-36.24c0-1.326-1.074-2.4-2.4-2.4h-4.859c-1.326,0-2.4,1.074-2.4,2.4V138.292z"/>
		
			<path fill="#B699C8" stroke="#764D9F" stroke-width="2" stroke-linecap="round" stroke-linejoin="round" stroke-miterlimit="10" d="
			M168.061,138.288h20.701v-8.998c0-2.65-2.15-4.801-4.801-4.801h-11.1c-2.65,0-4.801,2.15-4.801,4.801V138.288z"/>
		
			<line fill="none" stroke="#764D9F" stroke-width="2" stroke-linecap="round" stroke-linejoin="round" stroke-miterlimit="10" x1="190.141" y1="81.71" x2="190.141" y2="89.989"/>
		
			<line fill="none" stroke="#764D9F" stroke-width="2" stroke-linecap="round" stroke-linejoin="round" stroke-miterlimit="10" x1="199.801" y1="81.71" x2="199.801" y2="89.989"/>
		
			<line fill="none" stroke="#764D9F" stroke-width="2" stroke-linecap="round" stroke-linejoin="round" stroke-miterlimit="10" x1="190.141" y1="87.229" x2="199.801" y2="87.229"/>
		
			<line fill="none" stroke="#764D9F" stroke-width="2" stroke-linecap="round" stroke-linejoin="round" stroke-miterlimit="10" x1="221.879" y1="77.569" x2="226.02" y2="77.569"/>
		<path fill="none" stroke="#764D9F" stroke-width="2" stroke-linecap="round" stroke-linejoin="round" stroke-miterlimit="10" d="
			M122.48,43.069h6.979c1.51,0,2.738,1.211,2.761,2.719l1.341,92.5h-15.182l1.342-92.5C119.742,44.28,120.972,43.069,122.48,43.069z
			"/>
		
			<line fill="none" stroke="#764D9F" stroke-width="2" stroke-linecap="round" stroke-linejoin="round" stroke-miterlimit="10" x1="118.379" y1="51.351" x2="133.561" y2="51.351"/>
		
			<line fill="none" stroke="#764D9F" stroke-width="2" stroke-linecap="round" stroke-linejoin="round" stroke-miterlimit="10" x1="139.079" y1="51.351" x2="154.261" y2="51.351"/>
		<circle fill="#FFFFFF" stroke="#764D9F" stroke-width="2" stroke-miterlimit="10" cx="169.439" cy="12.709" r="4.139"/>
		<circle fill="#FFFFFF" stroke="#764D9F" stroke-width="2" stroke-miterlimit="10" cx="132.179" cy="26.509" r="4.14"/>
		<path fill="#FFFFFF" stroke="#764D9F" stroke-width="2" stroke-linejoin="round" stroke-miterlimit="10" d="M163.278,21.63
			c-2.692-2.693-7.063-2.693-9.757,0c-1.705,1.705-2.324,4.076-1.873,6.275c-0.05-0.002-0.097-0.016-0.148-0.016
			c-2.286,0-4.14,1.852-4.14,4.139s1.854,4.141,4.14,4.141c2.03,0,3.711-1.463,4.065-3.389c2.541,1.146,5.627,0.695,7.713-1.391
			C165.975,28.694,165.975,24.325,163.278,21.63z"/>
	</g>
	<g>
		<g>
			<path fill="#B699C8" d="M290.688,123.193c1.051,0,1.904-0.853,1.904-1.904v-3.049c0-1.052-0.854-1.904-1.904-1.904h-3.012
				c-0.445-2.188-1.31-4.221-2.5-6.02l2.134-2.136c0.356-0.357,0.559-0.841,0.559-1.346c0-0.506-0.202-0.991-0.559-1.349
				l-2.155-2.153c-0.743-0.744-1.95-0.744-2.693,0l-2.135,2.134c-1.799-1.191-3.833-2.057-6.021-2.5v-3.012
				c0-1.053-0.853-1.904-1.903-1.904h-3.049c-1.053,0-1.906,0.852-1.906,1.904v3.012c-2.187,0.443-4.221,1.309-6.02,2.5
				l-2.134-2.134c-0.744-0.744-1.95-0.744-2.694,0l-2.153,2.153c-0.746,0.744-0.746,1.951,0,2.694l2.134,2.136
				c-1.191,1.799-2.057,3.832-2.5,6.02h-3.012c-1.053,0-1.906,0.853-1.906,1.904v3.049c0,1.052,0.854,1.904,1.906,1.904h3.012
				c0.443,2.188,1.309,4.221,2.5,6.02l-2.134,2.136c-0.357,0.356-0.56,0.841-0.56,1.346c0,0.506,0.202,0.991,0.56,1.347l2.153,2.155
				c0.744,0.744,1.95,0.744,2.694,0l2.134-2.134c1.799,1.19,3.833,2.057,6.02,2.5v3.012c0,1.053,0.854,1.904,1.906,1.904h3.049
				c1.051,0,1.903-0.852,1.903-1.904v-3.012c2.188-0.443,4.222-1.31,6.021-2.5l2.135,2.134c0.743,0.744,1.95,0.744,2.693,0
				l2.155-2.155c0.356-0.355,0.558-0.841,0.558-1.347c0-0.505-0.201-0.989-0.558-1.346l-2.134-2.136
				c1.19-1.799,2.055-3.831,2.5-6.02H290.688z M270.877,127.766c-4.418,0-8-3.582-8-8.002c0-4.418,3.582-8,8-8s8.001,3.582,8.001,8
				C278.878,124.184,275.295,127.766,270.877,127.766z"/>
			<path fill="#FFFFFF" d="M290.688,123.193c1.051,0,1.904-0.853,1.904-1.904v-3.049c0-1.052-0.854-1.904-1.904-1.904h-3.012
				c-0.445-2.188-1.31-4.221-2.5-6.02l2.134-2.136c0.356-0.357,0.559-0.841,0.559-1.346c0-0.506-0.202-0.991-0.559-1.349
				l-2.155-2.153c-0.743-0.744-1.95-0.744-2.693,0l-2.135,2.134c-1.799-1.191-3.833-2.057-6.021-2.5v-3.012
				c0-1.053-0.853-1.904-1.903-1.904h-3.049c-1.053,0-1.906,0.852-1.906,1.904v3.012c-2.187,0.443-4.221,1.309-6.02,2.5
				l-2.134-2.134c-0.744-0.744-1.95-0.744-2.694,0l-2.153,2.153c-0.746,0.744-0.746,1.951,0,2.694l2.134,2.136
				c-1.191,1.799-2.057,3.832-2.5,6.02h-3.012c-1.053,0-1.906,0.853-1.906,1.904v3.049c0,1.052,0.854,1.904,1.906,1.904h3.012
				c0.443,2.188,1.309,4.221,2.5,6.02l-2.134,2.136c-0.357,0.356-0.56,0.841-0.56,1.346c0,0.506,0.202,0.991,0.56,1.347l2.153,2.155
				c0.744,0.744,1.95,0.744,2.694,0l2.134-2.134c1.799,1.19,3.833,2.057,6.02,2.5v3.012c0,1.053,0.854,1.904,1.906,1.904h3.049
				c1.051,0,1.903-0.852,1.903-1.904v-3.012c2.188-0.443,4.222-1.31,6.021-2.5l2.135,2.134c0.743,0.744,1.95,0.744,2.693,0
				l2.155-2.155c0.356-0.355,0.558-0.841,0.558-1.347c0-0.505-0.201-0.989-0.558-1.346l-2.134-2.136
				c1.19-1.799,2.055-3.831,2.5-6.02H290.688z M270.877,132.336c-6.943,0-12.57-5.628-12.57-12.572c0-6.941,5.627-12.57,12.57-12.57
				c6.944,0,12.572,5.629,12.572,12.57C283.449,126.708,277.821,132.336,270.877,132.336z"/>
			<path fill="none" stroke="#764D9F" stroke-width="2" stroke-linejoin="round" stroke-miterlimit="10" d="M290.688,123.193
				c1.051,0,1.904-0.853,1.904-1.904v-3.049c0-1.052-0.854-1.904-1.904-1.904h-3.012c-0.445-2.188-1.31-4.221-2.5-6.02l2.134-2.136
				c0.356-0.357,0.559-0.841,0.559-1.346c0-0.506-0.202-0.991-0.559-1.349l-2.155-2.153c-0.743-0.744-1.95-0.744-2.693,0
				l-2.135,2.134c-1.799-1.191-3.833-2.057-6.021-2.5v-3.012c0-1.053-0.853-1.904-1.903-1.904h-3.049
				c-1.053,0-1.906,0.852-1.906,1.904v3.012c-2.187,0.443-4.221,1.309-6.02,2.5l-2.134-2.134c-0.744-0.744-1.95-0.744-2.694,0
				l-2.153,2.153c-0.746,0.744-0.746,1.951,0,2.694l2.134,2.136c-1.191,1.799-2.057,3.832-2.5,6.02h-3.012
				c-1.053,0-1.906,0.853-1.906,1.904v3.049c0,1.052,0.854,1.904,1.906,1.904h3.012c0.443,2.188,1.309,4.221,2.5,6.02l-2.134,2.136
				c-0.357,0.356-0.56,0.841-0.56,1.346c0,0.506,0.202,0.991,0.56,1.347l2.153,2.155c0.744,0.744,1.95,0.744,2.694,0l2.134-2.134
				c1.799,1.19,3.833,2.057,6.02,2.5v3.012c0,1.053,0.854,1.904,1.906,1.904h3.049c1.051,0,1.903-0.852,1.903-1.904v-3.012
				c2.188-0.443,4.222-1.31,6.021-2.5l2.135,2.134c0.743,0.744,1.95,0.744,2.693,0l2.155-2.155c0.356-0.355,0.558-0.841,0.558-1.347
				c0-0.505-0.201-0.989-0.558-1.346l-2.134-2.136c1.19-1.799,2.055-3.831,2.5-6.02H290.688z M270.877,127.766
				c-4.418,0-8-3.582-8-8.002c0-4.418,3.582-8,8-8s8.001,3.582,8.001,8C278.878,124.184,275.295,127.766,270.877,127.766z"/>
		</g>
		<ellipse fill="#E3D7EA" cx="270.877" cy="192.766" rx="38.096" ry="2.857"/>
		<path fill="#FFFFFF" d="M307.722,182.621h-73.69c-1.742,0-3.154-1.412-3.154-3.154V135.49c0-1.742,1.412-3.154,3.154-3.154h73.69
			c1.744,0,3.155,1.412,3.155,3.154v43.977C310.877,181.209,309.466,182.621,307.722,182.621z"/>
		<circle fill="#B699C8" cx="242.306" cy="143.765" r="4.57"/>
		
			<circle fill="none" stroke="#764D9F" stroke-width="2" stroke-linejoin="round" stroke-miterlimit="10" cx="242.306" cy="143.765" r="4.57"/>
		<circle fill="#B699C8" cx="242.306" cy="158.622" r="4.57"/>
		
			<circle fill="none" stroke="#764D9F" stroke-width="2" stroke-linejoin="round" stroke-miterlimit="10" cx="242.306" cy="158.622" r="4.57"/>
		<path fill="#B699C8" stroke="#764D9F" stroke-width="2" stroke-linejoin="round" stroke-miterlimit="10" d="M260.591,173.479
			c0,1.264-1.022,2.286-2.284,2.286c-1.264,0-2.286-1.022-2.286-2.286v-33.144c0-1.261,1.022-2.284,2.286-2.284
			c1.262,0,2.284,1.023,2.284,2.284V173.479z"/>
		<g>
			<path fill="#FFFFFF" d="M263.586,175.765h-10.561c-0.871,0-1.577-0.705-1.577-1.577v-3.702c0-0.872,0.706-1.577,1.577-1.577
				h10.561c0.87,0,1.577,0.705,1.577,1.577v3.702C265.163,175.06,264.456,175.765,263.586,175.765z"/>
			<path fill="none" stroke="#764D9F" stroke-width="2" stroke-linejoin="round" stroke-miterlimit="10" d="M263.586,175.765
				h-10.561c-0.871,0-1.577-0.705-1.577-1.577v-3.702c0-0.872,0.706-1.577,1.577-1.577h10.561c0.87,0,1.577,0.705,1.577,1.577v3.702
				C265.163,175.06,264.456,175.765,263.586,175.765z"/>
		</g>
		<path fill="#B699C8" stroke="#764D9F" stroke-width="2" stroke-linejoin="round" stroke-miterlimit="10" d="M281.163,173.479
			c0,1.264-1.023,2.286-2.285,2.286c-1.263,0-2.286-1.022-2.286-2.286v-33.144c0-1.261,1.023-2.284,2.286-2.284
			c1.262,0,2.285,1.023,2.285,2.284V173.479z"/>
		<path fill="#B699C8" stroke="#764D9F" stroke-width="2" stroke-linejoin="round" stroke-miterlimit="10" d="M301.734,173.479
			c0,1.264-1.023,2.286-2.285,2.286c-1.263,0-2.285-1.022-2.285-2.286v-33.144c0-1.261,1.022-2.284,2.285-2.284
			c1.262,0,2.285,1.023,2.285,2.284V173.479z"/>
		<g>
			<path fill="#FFFFFF" d="M284.157,151.764h-10.56c-0.872,0-1.578-0.705-1.578-1.577v-3.701c0-0.872,0.706-1.578,1.578-1.578h10.56
				c0.87,0,1.577,0.706,1.577,1.578v3.701C285.734,151.059,285.027,151.764,284.157,151.764z"/>
			<path fill="none" stroke="#764D9F" stroke-width="2" stroke-linejoin="round" stroke-miterlimit="10" d="M284.157,151.764h-10.56
				c-0.872,0-1.578-0.705-1.578-1.577v-3.701c0-0.872,0.706-1.578,1.578-1.578h10.56c0.87,0,1.577,0.706,1.577,1.578v3.701
				C285.734,151.059,285.027,151.764,284.157,151.764z"/>
		</g>
		<g>
			<path fill="#FFFFFF" d="M304.729,163.193h-10.56c-0.872,0-1.577-0.706-1.577-1.578v-3.701c0-0.872,0.705-1.578,1.577-1.578h10.56
				c0.871,0,1.578,0.706,1.578,1.578v3.701C306.307,162.487,305.6,163.193,304.729,163.193z"/>
			<path fill="none" stroke="#764D9F" stroke-width="2" stroke-linejoin="round" stroke-miterlimit="10" d="M304.729,163.193h-10.56
				c-0.872,0-1.577-0.706-1.577-1.578v-3.701c0-0.872,0.705-1.578,1.577-1.578h10.56c0.871,0,1.578,0.706,1.578,1.578v3.701
				C306.307,162.487,305.6,163.193,304.729,163.193z"/>
		</g>
		<path fill="none" stroke="#764D9F" stroke-width="2" stroke-linecap="round" stroke-linejoin="round" stroke-miterlimit="10" d="
			M307.722,182.621h-73.69c-1.742,0-3.154-1.412-3.154-3.154V135.49c0-1.742,1.412-3.154,3.154-3.154h73.69
			c1.744,0,3.155,1.412,3.155,3.154v43.977C310.877,181.209,309.466,182.621,307.722,182.621z"/>
	</g>
	<g>
		<g>
			<path fill-rule="evenodd" clip-rule="evenodd" fill="#FFFFFF" d="M139.153,217c6.249,0,11.321,5.073,11.321,11.321
				c0,6.249-5.072,11.321-11.321,11.321s-11.322-5.072-11.322-11.321C127.831,222.073,132.904,217,139.153,217z"/>
			<path fill="none" stroke="#764E9F" stroke-width="2" stroke-linecap="round" stroke-linejoin="round" stroke-miterlimit="10" d="
				M139.153,217c6.249,0,11.321,5.073,11.321,11.321c0,6.249-5.072,11.321-11.321,11.321s-11.322-5.072-11.322-11.321
				C127.831,222.073,132.904,217,139.153,217z"/>
			
				<line fill="none" stroke="#764E9F" stroke-width="2" stroke-linecap="round" stroke-linejoin="round" stroke-miterlimit="10" x1="139.153" y1="239.643" x2="139.153" y2="498.422"/>
			
				<polyline fill="none" stroke="#764E9F" stroke-width="2" stroke-linecap="round" stroke-linejoin="round" stroke-miterlimit="10" points="
				126.001,485.27 139.153,498.422 152.73,484.844 			"/>
		</g>
		<g>
			<path fill-rule="evenodd" clip-rule="evenodd" fill="#FFFFFF" d="M300.379,217.414c6.248,0,11.321,5.073,11.321,11.321
				c0,6.249-5.073,11.321-11.321,11.321c-6.249,0-11.322-5.072-11.322-11.321C289.057,222.487,294.13,217.414,300.379,217.414z"/>
			<path fill="none" stroke="#764E9F" stroke-width="2" stroke-linecap="round" stroke-linejoin="round" stroke-miterlimit="10" d="
				M300.379,217.414c6.248,0,11.321,5.073,11.321,11.321c0,6.249-5.073,11.321-11.321,11.321c-6.249,0-11.322-5.072-11.322-11.321
				C289.057,222.487,294.13,217.414,300.379,217.414z"/>
			
				<line fill="none" stroke="#764E9F" stroke-width="2" stroke-linecap="round" stroke-linejoin="round" stroke-miterlimit="10" x1="300.379" y1="240.057" x2="300.379" y2="506.923"/>
			
				<polyline fill="none" stroke="#764E9F" stroke-width="2" stroke-linecap="round" stroke-linejoin="round" stroke-miterlimit="10" points="
				287.227,493.771 300.379,506.923 313.957,493.345 			"/>
		</g>
		<g>
			<path fill-rule="evenodd" clip-rule="evenodd" fill="#FFFFFF" d="M213.089,205c6.248,0,11.321,5.073,11.321,11.322
				c0,6.248-5.073,11.32-11.321,11.32c-6.249,0-11.321-5.072-11.321-11.32C201.768,210.073,206.84,205,213.089,205z"/>
			<path fill="none" stroke="#764E9F" stroke-width="2" stroke-linecap="round" stroke-linejoin="round" stroke-miterlimit="10" d="
				M213.089,205c6.248,0,11.321,5.073,11.321,11.322c0,6.248-5.073,11.32-11.321,11.32c-6.249,0-11.321-5.072-11.321-11.32
				C201.768,210.073,206.84,205,213.089,205z"/>
			
				<line fill="none" stroke="#764E9F" stroke-width="2" stroke-linecap="round" stroke-linejoin="round" stroke-miterlimit="10" x1="213.089" y1="227.643" x2="213.089" y2="318.705"/>
			
				<polyline fill="none" stroke="#764E9F" stroke-width="2" stroke-linecap="round" stroke-linejoin="round" stroke-miterlimit="10" points="
				199.938,305.553 213.089,318.705 226.667,305.127 			"/>
		</g>
		<g>
			<path fill-rule="evenodd" clip-rule="evenodd" fill="#FFFFFF" d="M393.64,205c6.249,0,11.322,5.073,11.322,11.322
				c0,6.248-5.073,11.32-11.322,11.32c-6.248,0-11.321-5.072-11.321-11.32C382.318,210.073,387.392,205,393.64,205z"/>
			<path fill="none" stroke="#764E9F" stroke-width="2" stroke-linecap="round" stroke-linejoin="round" stroke-miterlimit="10" d="
				M393.64,205c6.249,0,11.322,5.073,11.322,11.322c0,6.248-5.073,11.32-11.322,11.32c-6.248,0-11.321-5.072-11.321-11.32
				C382.318,210.073,387.392,205,393.64,205z"/>
			
				<line fill="none" stroke="#764E9F" stroke-width="2" stroke-linecap="round" stroke-linejoin="round" stroke-miterlimit="10" x1="393.64" y1="227.643" x2="393.64" y2="318.705"/>
			
				<polyline fill="none" stroke="#764E9F" stroke-width="2" stroke-linecap="round" stroke-linejoin="round" stroke-miterlimit="10" points="
				380.488,305.553 393.64,318.705 407.219,305.127 			"/>
		</g>
		<g>
			<path fill-rule="evenodd" clip-rule="evenodd" fill="#FFFFFF" d="M58.154,205c6.248,0,11.321,5.073,11.321,11.322
				c0,6.248-5.073,11.32-11.321,11.32s-11.322-5.072-11.322-11.32C46.832,210.073,51.906,205,58.154,205z"/>
			<path fill="none" stroke="#764E9F" stroke-width="2" stroke-linecap="round" stroke-linejoin="round" stroke-miterlimit="10" d="
				M58.154,205c6.248,0,11.321,5.073,11.321,11.322c0,6.248-5.073,11.32-11.321,11.32s-11.322-5.072-11.322-11.32
				C46.832,210.073,51.906,205,58.154,205z"/>
			
				<line fill="none" stroke="#764E9F" stroke-width="2" stroke-linecap="round" stroke-linejoin="round" stroke-miterlimit="10" x1="58.154" y1="227.643" x2="58.154" y2="318.705"/>
			
				<polyline fill="none" stroke="#764E9F" stroke-width="2" stroke-linecap="round" stroke-linejoin="round" stroke-miterlimit="10" points="
				45.002,305.553 58.154,318.705 71.732,305.127 			"/>
		</g>
	</g>
	<g>
		<g>
			<g>
				<path fill="#E3D7EA" d="M98.002,376c0-22.091-17.908-40-40-40s-40,17.909-40,40c0,5.886,1.281,11.468,3.564,16.5h72.871
					C96.721,387.468,98.002,381.886,98.002,376z"/>
			</g>
			<g>
				
					<line fill="none" stroke="#764D9F" stroke-linecap="round" stroke-linejoin="round" stroke-miterlimit="10" x1="18.502" y1="392.5" x2="96.502" y2="392.5"/>
				
					<line fill="none" stroke="#764D9F" stroke-linecap="round" stroke-linejoin="round" stroke-miterlimit="10" x1="14.002" y1="392.5" x2="16.502" y2="392.5"/>
				
					<line fill="none" stroke="#764D9F" stroke-linecap="round" stroke-linejoin="round" stroke-miterlimit="10" x1="98.502" y1="392.5" x2="101.002" y2="392.5"/>
			</g>
		</g>
		<g>
			<path fill="#B699C8" d="M75.85,395.864h-41.1c-1.988,0-3.6-1.611-3.6-3.6v-27.3c0-1.988,1.611-3.601,3.6-3.601h41.1
				c1.988,0,3.601,1.612,3.601,3.601v27.3C79.45,394.253,77.838,395.864,75.85,395.864z"/>
			<path fill="#FFFFFF" d="M60.361,361.364H35.29c-2.286,0-4.14,1.854-4.14,4.141v25.07L60.361,361.364z"/>
			<path fill="none" stroke="#764D9F" stroke-linecap="round" stroke-linejoin="round" stroke-miterlimit="10" d="M75.85,395.864
				h-41.1c-1.988,0-3.6-1.611-3.6-3.6v-27.3c0-1.988,1.611-3.601,3.6-3.601h41.1c1.988,0,3.601,1.612,3.601,3.601v27.3
				C79.45,394.253,77.838,395.864,75.85,395.864z"/>
			<path fill="#FFFFFF" stroke="#764D9F" stroke-linecap="round" stroke-linejoin="round" stroke-miterlimit="10" d="
				M75.311,395.864c2.286,0,4.14-1.854,4.14-4.139v-1.381h-48.3v1.381c0,2.285,1.854,4.139,4.14,4.139H75.311z"/>
			<polygon fill="#FFFFFF" points="59.439,401.386 51.16,401.386 51.85,395.864 58.75,395.864 			"/>
			<polygon fill="none" stroke="#764D9F" stroke-linecap="round" stroke-linejoin="round" stroke-miterlimit="10" points="
				59.439,401.386 51.16,401.386 51.85,395.864 58.75,395.864 			"/>
			<path fill="#FFFFFF" stroke="#764D9F" stroke-linecap="round" stroke-linejoin="round" stroke-miterlimit="10" d="M64.27,404.146
				H46.33c0-1.525,1.235-2.76,2.76-2.76h12.42C63.034,401.386,64.27,402.62,64.27,404.146z"/>
			<path fill="#FFFFFF" stroke="#764D9F" stroke-linecap="round" stroke-linejoin="round" stroke-miterlimit="10" d="
				M79.811,382.755H44.59c-1.32,0-2.4-1.08-2.4-2.4v-23.819H82.21v23.819C82.21,381.675,81.13,382.755,79.811,382.755z"/>
			<path fill="#FFFFFF" stroke="#764D9F" stroke-linecap="round" stroke-linejoin="round" stroke-miterlimit="10" d="M82.21,356.535
				H42.189v-5.88c0-1.32,1.08-2.4,2.4-2.4h35.221c1.319,0,2.399,1.08,2.399,2.4V356.535z"/>
			
				<circle fill="#B699C8" stroke="#764D9F" stroke-linecap="round" stroke-linejoin="round" stroke-miterlimit="10" cx="46.33" cy="352.396" r="1.38"/>
			
				<circle fill="#B699C8" stroke="#764D9F" stroke-linecap="round" stroke-linejoin="round" stroke-miterlimit="10" cx="51.851" cy="352.396" r="1.38"/>
			
				<circle fill="#B699C8" stroke="#764D9F" stroke-linecap="round" stroke-linejoin="round" stroke-miterlimit="10" cx="57.37" cy="352.396" r="1.38"/>
			<path fill="#B699C8" stroke="#764D9F" stroke-linecap="round" stroke-linejoin="round" stroke-miterlimit="10" d="M59.13,370.335
				h-3.521c-0.552,0-1-0.447-1-1v-3.52c0-0.553,0.448-1,1-1h3.521c0.553,0,1,0.447,1,1v3.52
				C60.13,369.888,59.683,370.335,59.13,370.335z"/>
			<path fill="#B699C8" stroke="#764D9F" stroke-linecap="round" stroke-linejoin="round" stroke-miterlimit="10" d="M68.1,370.335
				h-3.52c-0.553,0-1-0.447-1-1v-3.52c0-0.553,0.447-1,1-1h3.52c0.553,0,1,0.447,1,1v3.52C69.1,369.888,68.652,370.335,68.1,370.335
				z"/>
			<path fill="#B699C8" stroke="#764D9F" stroke-linecap="round" stroke-linejoin="round" stroke-miterlimit="10" d="M77.07,370.335
				H73.55c-0.552,0-1-0.447-1-1v-3.52c0-0.553,0.448-1,1-1h3.521c0.553,0,1,0.447,1,1v3.52
				C78.07,369.888,77.623,370.335,77.07,370.335z"/>
			<path fill="#B699C8" stroke="#764D9F" stroke-linecap="round" stroke-linejoin="round" stroke-miterlimit="10" d="M59.13,378.614
				h-3.521c-0.552,0-1-0.447-1-1v-3.52c0-0.552,0.448-1,1-1h3.521c0.553,0,1,0.448,1,1v3.52
				C60.13,378.167,59.683,378.614,59.13,378.614z"/>
			<path fill="#B699C8" stroke="#764D9F" stroke-linecap="round" stroke-linejoin="round" stroke-miterlimit="10" d="M68.1,378.614
				h-3.52c-0.553,0-1-0.447-1-1v-3.52c0-0.552,0.447-1,1-1h3.52c0.553,0,1,0.448,1,1v3.52C69.1,378.167,68.652,378.614,68.1,378.614
				z"/>
			<path fill="#B699C8" stroke="#764D9F" stroke-linecap="round" stroke-linejoin="round" stroke-miterlimit="10" d="M77.07,378.614
				H73.55c-0.552,0-1-0.447-1-1v-3.52c0-0.552,0.448-1,1-1h3.521c0.553,0,1,0.448,1,1v3.52
				C78.07,378.167,77.623,378.614,77.07,378.614z"/>
			<path fill="#B699C8" stroke="#764D9F" stroke-linecap="round" stroke-linejoin="round" stroke-miterlimit="10" d="M50.85,362.055
				h-3.52c-0.553,0-1-0.447-1-1v-0.76c0-0.552,0.447-1,1-1h3.52c0.553,0,1,0.448,1,1v0.76
				C51.85,361.607,51.402,362.055,50.85,362.055z"/>
			<path fill="#B699C8" stroke="#764D9F" stroke-linejoin="round" stroke-miterlimit="10" d="M77.07,362.055H55.609
				c-0.552,0-1-0.447-1-1v-0.76c0-0.552,0.448-1,1-1H77.07c0.553,0,1,0.448,1,1v0.76C78.07,361.607,77.623,362.055,77.07,362.055z"
				/>
			
				<line fill="none" stroke="#764D9F" stroke-linecap="round" stroke-linejoin="round" stroke-miterlimit="10" x1="46.33" y1="364.815" x2="51.85" y2="364.815"/>
			
				<line fill="none" stroke="#764D9F" stroke-linecap="round" stroke-linejoin="round" stroke-miterlimit="10" x1="46.33" y1="367.575" x2="51.85" y2="367.575"/>
			
				<line fill="none" stroke="#764D9F" stroke-linecap="round" stroke-linejoin="round" stroke-miterlimit="10" x1="46.33" y1="370.335" x2="51.85" y2="370.335"/>
			
				<line fill="none" stroke="#764D9F" stroke-linecap="round" stroke-linejoin="round" stroke-miterlimit="10" x1="46.33" y1="373.095" x2="51.85" y2="373.095"/>
			
				<line fill="none" stroke="#764D9F" stroke-linecap="round" stroke-linejoin="round" stroke-miterlimit="10" x1="46.33" y1="375.854" x2="51.85" y2="375.854"/>
			
				<line fill="none" stroke="#764D9F" stroke-linecap="round" stroke-linejoin="round" stroke-miterlimit="10" x1="46.33" y1="378.614" x2="49.78" y2="378.614"/>
			
				<circle fill="none" stroke="#764D9F" stroke-linecap="round" stroke-linejoin="round" stroke-miterlimit="10" cx="55.3" cy="393.104" r="0.575"/>
		</g>
	</g>
	<g>
		<g>
			<path fill="#E3D7EA" d="M433.997,378c0-22.091-17.908-40-40-40s-40,17.909-40,40c0,5.886,1.281,11.468,3.564,16.5h72.871
				C432.716,389.468,433.997,383.886,433.997,378z"/>
		</g>
		<g>
			
				<line fill="none" stroke="#764D9F" stroke-linecap="round" stroke-linejoin="round" stroke-miterlimit="10" x1="354.497" y1="394.5" x2="432.497" y2="394.5"/>
			
				<line fill="none" stroke="#764D9F" stroke-linecap="round" stroke-linejoin="round" stroke-miterlimit="10" x1="349.997" y1="394.5" x2="352.497" y2="394.5"/>
			
				<line fill="none" stroke="#764D9F" stroke-linecap="round" stroke-linejoin="round" stroke-miterlimit="10" x1="434.497" y1="394.5" x2="436.997" y2="394.5"/>
		</g>
	</g>
	<g>
		<path fill="#B699C8" d="M411.845,397.864h-41.1c-1.988,0-3.6-1.611-3.6-3.6v-27.3c0-1.988,1.611-3.601,3.6-3.601h41.1
			c1.988,0,3.601,1.612,3.601,3.601v27.3C415.445,396.253,413.833,397.864,411.845,397.864z"/>
		<path fill="#FFFFFF" d="M396.356,363.364h-25.071c-2.286,0-4.14,1.854-4.14,4.141v25.07L396.356,363.364z"/>
		<path fill="none" stroke="#764D9F" stroke-linecap="round" stroke-linejoin="round" stroke-miterlimit="10" d="M411.845,397.864
			h-41.1c-1.988,0-3.6-1.611-3.6-3.6v-27.3c0-1.988,1.611-3.601,3.6-3.601h41.1c1.988,0,3.601,1.612,3.601,3.601v27.3
			C415.445,396.253,413.833,397.864,411.845,397.864z"/>
		<path fill="#FFFFFF" stroke="#764D9F" stroke-linecap="round" stroke-linejoin="round" stroke-miterlimit="10" d="
			M411.306,397.864c2.286,0,4.14-1.854,4.14-4.139v-1.381h-48.3v1.381c0,2.285,1.854,4.139,4.14,4.139H411.306z"/>
		<polygon fill="#FFFFFF" points="395.435,403.386 387.155,403.386 387.845,397.864 394.745,397.864 		"/>
		<polygon fill="none" stroke="#764D9F" stroke-linecap="round" stroke-linejoin="round" stroke-miterlimit="10" points="
			395.435,403.386 387.155,403.386 387.845,397.864 394.745,397.864 		"/>
		<path fill="#FFFFFF" stroke="#764D9F" stroke-linecap="round" stroke-linejoin="round" stroke-miterlimit="10" d="
			M400.265,406.146h-17.939c0-1.525,1.235-2.76,2.76-2.76h12.42C399.029,403.386,400.265,404.62,400.265,406.146z"/>
		<path fill="#FFFFFF" stroke="#764D9F" stroke-linecap="round" stroke-linejoin="round" stroke-miterlimit="10" d="
			M415.806,384.755h-35.221c-1.32,0-2.4-1.08-2.4-2.4v-23.819h40.021v23.819C418.205,383.675,417.125,384.755,415.806,384.755z"/>
		<path fill="#FFFFFF" stroke="#764D9F" stroke-linecap="round" stroke-linejoin="round" stroke-miterlimit="10" d="
			M418.205,358.535h-40.021v-5.88c0-1.32,1.08-2.4,2.4-2.4h35.221c1.319,0,2.399,1.08,2.399,2.4V358.535z"/>
		
			<circle fill="#B699C8" stroke="#764D9F" stroke-linecap="round" stroke-linejoin="round" stroke-miterlimit="10" cx="382.325" cy="354.396" r="1.38"/>
		
			<circle fill="#B699C8" stroke="#764D9F" stroke-linecap="round" stroke-linejoin="round" stroke-miterlimit="10" cx="387.846" cy="354.396" r="1.38"/>
		
			<circle fill="#B699C8" stroke="#764D9F" stroke-linecap="round" stroke-linejoin="round" stroke-miterlimit="10" cx="393.365" cy="354.396" r="1.38"/>
		<path fill="#B699C8" stroke="#764D9F" stroke-linecap="round" stroke-linejoin="round" stroke-miterlimit="10" d="
			M386.845,364.055h-3.52c-0.553,0-1-0.447-1-1v-0.76c0-0.552,0.447-1,1-1h3.52c0.553,0,1,0.448,1,1v0.76
			C387.845,363.607,387.397,364.055,386.845,364.055z"/>
		<path fill="#B699C8" stroke="#764D9F" stroke-linejoin="round" stroke-miterlimit="10" d="M413.065,364.055h-21.461
			c-0.552,0-1-0.447-1-1v-0.76c0-0.552,0.448-1,1-1h21.461c0.553,0,1,0.448,1,1v0.76
			C414.065,363.607,413.618,364.055,413.065,364.055z"/>
		
			<line fill="none" stroke="#764D9F" stroke-linecap="round" stroke-linejoin="round" stroke-miterlimit="10" x1="382.325" y1="366.815" x2="412.325" y2="366.815"/>
		
			<line fill="none" stroke="#764D9F" stroke-linecap="round" stroke-linejoin="round" stroke-miterlimit="10" x1="382.325" y1="369.575" x2="412.325" y2="369.575"/>
		
			<line fill="none" stroke="#764D9F" stroke-linecap="round" stroke-linejoin="round" stroke-miterlimit="10" x1="382.325" y1="372.335" x2="412.325" y2="372.335"/>
		
			<line fill="none" stroke="#764D9F" stroke-linecap="round" stroke-linejoin="round" stroke-miterlimit="10" x1="382.325" y1="375.095" x2="412.325" y2="375.095"/>
		
			<line fill="none" stroke="#764D9F" stroke-linecap="round" stroke-linejoin="round" stroke-miterlimit="10" x1="382.325" y1="377.854" x2="412.325" y2="377.854"/>
		
			<line fill="none" stroke="#764D9F" stroke-linecap="round" stroke-linejoin="round" stroke-miterlimit="10" x1="382.325" y1="380.614" x2="401.078" y2="380.614"/>
		
			<circle fill="none" stroke="#764D9F" stroke-linecap="round" stroke-linejoin="round" stroke-miterlimit="10" cx="391.295" cy="395.104" r="0.575"/>
	</g>
	<g>
		<g>
			<g>
				<path fill="#E3D7EA" d="M254,378c0-22.092-17.908-40-40-40s-40,17.908-40,40c0,5.885,1.281,11.468,3.564,16.5h72.871
					C252.719,389.468,254,383.885,254,378z"/>
			</g>
			<g>
				
					<line fill="none" stroke="#764D9F" stroke-linecap="round" stroke-linejoin="round" stroke-miterlimit="10" x1="174.5" y1="394.5" x2="252.5" y2="394.5"/>
				
					<line fill="none" stroke="#764D9F" stroke-linecap="round" stroke-linejoin="round" stroke-miterlimit="10" x1="170" y1="394.5" x2="172.5" y2="394.5"/>
				
					<line fill="none" stroke="#764D9F" stroke-linecap="round" stroke-linejoin="round" stroke-miterlimit="10" x1="254.5" y1="394.5" x2="257" y2="394.5"/>
			</g>
		</g>
		<g>
			<rect x="218.536" y="386.506" fill="#FFFFFF" width="7.935" height="4.762"/>
			
				<rect x="218.536" y="386.506" fill="none" stroke="#764D9F" stroke-linecap="round" stroke-linejoin="round" stroke-miterlimit="10" width="7.935" height="4.762"/>
			<path fill="#FFFFFF" stroke="#764D9F" stroke-linecap="round" stroke-linejoin="round" stroke-miterlimit="10" d="
				M232.818,394.441h-20.631c0-1.753,1.422-3.174,3.174-3.174h14.283C231.398,391.268,232.818,392.688,232.818,394.441z"/>
			<path fill="#B699C8" d="M243.135,350.006h-41.262c-2.191,0-3.969,1.775-3.969,3.967v26.186h49.197v-26.186
				C247.102,351.781,245.326,350.006,243.135,350.006z"/>
			<path fill="#FFFFFF" d="M228.466,350.006h-26.593c-2.191,0-3.969,1.775-3.969,3.967v26.594L228.466,350.006z"/>
			<g>
				<path fill="none" stroke="#764D9F" stroke-linecap="round" stroke-linejoin="round" stroke-miterlimit="10" d="M243.135,350.006
					h-41.262c-2.191,0-3.969,1.775-3.969,3.967v26.186h49.197v-26.186C247.102,351.781,245.326,350.006,243.135,350.006z"/>
			</g>
			<path fill="#FFFFFF" stroke="#764D9F" stroke-linecap="round" stroke-linejoin="round" stroke-miterlimit="10" d="
				M243.135,386.506c2.191,0,3.967-1.775,3.967-3.967v-2.381h-49.197v2.381c0,2.191,1.777,3.967,3.969,3.967H243.135z"/>
			<ellipse fill="#E3D7EA" cx="200.23" cy="398.386" rx="12.696" ry="1.587"/>
			<path fill="#FFFFFF" stroke="#764D9F" stroke-linecap="round" stroke-linejoin="round" stroke-miterlimit="10" d="
				M210.469,396.799h-20.217c-0.553,0-1-0.447-1-1V370.82c0-0.553,0.447-1,1-1h20.217c0.553,0,1,0.447,1,1v24.979
				C211.469,396.352,211.021,396.799,210.469,396.799z"/>
			<path fill="#B699C8" d="M207.295,392.038h-13.869c-0.553,0-1-0.448-1-1v-17.044c0-0.553,0.447-1,1-1h13.869c0.553,0,1,0.447,1,1
				v17.044C208.295,391.59,207.848,392.038,207.295,392.038z"/>
			<path fill="#FFFFFF" d="M192.426,386.016l13.021-13.021h-11.699c-0.73,0-1.322,0.592-1.322,1.322V386.016z"/>
			<path fill="none" stroke="#764D9F" stroke-linecap="round" stroke-linejoin="round" stroke-miterlimit="10" d="M207.295,392.038
				h-13.869c-0.553,0-1-0.448-1-1v-17.044c0-0.553,0.447-1,1-1h13.869c0.553,0,1,0.447,1,1v17.044
				C208.295,391.59,207.848,392.038,207.295,392.038z"/>
			<g>
				<ellipse fill="#E3D7EA" cx="189.97" cy="403.94" rx="9.522" ry="1.587"/>
				<path fill="#FFFFFF" stroke="#764D9F" stroke-linecap="round" stroke-linejoin="round" stroke-miterlimit="10" d="
					M194.524,403.146h-9.108c-0.553,0-1-0.447-1-1v-17.043c0-0.553,0.447-1,1-1h9.108c0.552,0,1,0.447,1,1v17.043
					C195.524,402.699,195.076,403.146,194.524,403.146z"/>
				<rect x="184.416" y="387.277" fill="#B699C8" width="11.108" height="12.695"/>
				<polygon fill="#FFFFFF" points="184.416,397.592 194.73,387.277 184.416,387.277 				"/>
				
					<rect x="184.416" y="387.277" fill="none" stroke="#764D9F" stroke-linecap="round" stroke-linejoin="round" stroke-miterlimit="10" width="11.108" height="12.695"/>
			</g>
			<path fill="#B699C8" stroke="#764D9F" stroke-linecap="round" stroke-linejoin="round" stroke-miterlimit="10" d="
				M242.988,387.877c0.158,0.407,0.106,0.866-0.141,1.227c-0.246,0.361-0.654,0.576-1.092,0.576h-6.606
				c-0.481,0-0.927-0.262-1.159-0.684c-0.766-1.391-1.172-2.957-1.172-4.553v-4.285h9.522v4.285
				C242.341,385.624,242.563,386.788,242.988,387.877z"/>
			<circle fill="none" stroke="#764D9F" stroke-miterlimit="10" cx="222.503" cy="383.332" r="0.661"/>
		</g>
	</g>
	<g>
		<g>
			<g>
				<path fill="#E3D7EA" d="M339.998,556c0-22.091-17.908-40-40-40c-22.091,0-39.999,17.909-39.999,40
					c0,5.886,1.281,11.468,3.564,16.5h72.87C338.717,567.468,339.998,561.886,339.998,556z"/>
			</g>
			<g>
				
					<line fill="none" stroke="#764D9F" stroke-linecap="round" stroke-linejoin="round" stroke-miterlimit="10" x1="260.499" y1="572.5" x2="338.498" y2="572.5"/>
				
					<line fill="none" stroke="#764D9F" stroke-linecap="round" stroke-linejoin="round" stroke-miterlimit="10" x1="255.999" y1="572.5" x2="258.499" y2="572.5"/>
				
					<line fill="none" stroke="#764D9F" stroke-linecap="round" stroke-linejoin="round" stroke-miterlimit="10" x1="340.498" y1="572.5" x2="342.998" y2="572.5"/>
			</g>
		</g>
		<g>
			<g>
				<g>
					<rect x="295.276" y="576.914" fill="#FFFFFF" width="7.699" height="4.4"/>
					<path fill="#FFFFFF" stroke="#764D9F" stroke-linecap="round" stroke-linejoin="round" stroke-miterlimit="10" d="
						M308.476,584.614c0-1.822-1.477-3.3-3.3-3.3h-12.1c-1.822,0-3.299,1.478-3.299,3.3H308.476z"/>
					
						<rect x="295.276" y="576.914" fill="none" stroke="#764D9F" stroke-linecap="round" stroke-linejoin="round" stroke-miterlimit="10" width="7.699" height="4.4"/>
					<path fill="#FFFFFF" stroke="#764D9F" stroke-linecap="round" stroke-linejoin="round" stroke-miterlimit="10" d="
						M319.476,576.914h-40.698c-1.823,0-3.301-1.478-3.301-3.3v-2.2h47.3v2.2C322.776,575.437,321.299,576.914,319.476,576.914z"/>
					<circle fill="none" stroke="#764D9F" stroke-miterlimit="10" cx="299.126" cy="574.164" r="0.55"/>
					<path fill="#B699C8" d="M279.877,542.814h38.499c2.43,0,4.4,1.97,4.4,4.399v24.2h-47.3v-24.2
						C275.477,544.784,277.447,542.814,279.877,542.814z"/>
					<path fill="none" stroke="#764D9F" stroke-linecap="round" stroke-linejoin="round" stroke-miterlimit="10" d="
						M279.877,542.814h38.499c2.43,0,4.4,1.97,4.4,4.399v24.2h-47.3v-24.2C275.477,544.784,277.447,542.814,279.877,542.814z"/>
				</g>
				<g>
					
						<line fill="none" stroke="#764D9F" stroke-linecap="round" stroke-linejoin="round" stroke-miterlimit="10" x1="279.877" y1="545.015" x2="279.877" y2="553.814"/>
					
						<line fill="none" stroke="#764D9F" stroke-linecap="round" stroke-linejoin="round" stroke-miterlimit="10" x1="279.877" y1="556.015" x2="279.877" y2="569.214"/>
					<path fill="#FFFFFF" stroke="#764D9F" stroke-linecap="round" stroke-linejoin="round" stroke-miterlimit="10" d="
						M307.376,548.314c0.607,0,1.1-0.493,1.1-1.101s-0.492-1.1-1.1-1.1h-24.2c-0.607,0-1.1,0.492-1.1,1.1s0.492,1.101,1.1,1.101
						H307.376z"/>
					<path fill="#FFFFFF" stroke="#764D9F" stroke-linecap="round" stroke-linejoin="round" stroke-miterlimit="10" d="
						M298.576,559.314c0.607,0,1.1-0.493,1.1-1.101s-0.492-1.1-1.1-1.1h-15.4c-0.607,0-1.1,0.492-1.1,1.1s0.492,1.101,1.1,1.101
						H298.576z"/>
					<path fill="#FFFFFF" stroke="#764D9F" stroke-linecap="round" stroke-linejoin="round" stroke-miterlimit="10" d="
						M293.076,568.114c0.607,0,1.1-0.492,1.1-1.1s-0.492-1.101-1.1-1.101h-9.9c-0.607,0-1.1,0.493-1.1,1.101s0.492,1.1,1.1,1.1
						H293.076z"/>
					<path fill="#FFFFFF" stroke="#764D9F" stroke-linecap="round" stroke-linejoin="round" stroke-miterlimit="10" d="
						M302.976,563.714c0.607,0,1.101-0.492,1.101-1.1s-0.493-1.1-1.101-1.1h-19.8c-0.607,0-1.1,0.492-1.1,1.1s0.492,1.1,1.1,1.1
						H302.976z"/>
					<path fill="#FFFFFF" stroke="#764D9F" stroke-linecap="round" stroke-linejoin="round" stroke-miterlimit="10" d="
						M288.676,552.714c0.607,0,1.102-0.492,1.102-1.1s-0.494-1.1-1.102-1.1h-5.5c-0.607,0-1.1,0.492-1.1,1.1s0.492,1.1,1.1,1.1
						H288.676z"/>
					<path fill="#FFFFFF" stroke="#764D9F" stroke-linecap="round" stroke-linejoin="round" stroke-miterlimit="10" d="
						M302.976,552.714c0.607,0,1.101-0.492,1.101-1.1s-0.493-1.1-1.101-1.1h-9.899c-0.607,0-1.1,0.492-1.1,1.1s0.492,1.1,1.1,1.1
						H302.976z"/>
				</g>
			</g>
			<path fill="#E3D7EA" d="M301.16,586.33c-13.061,0-23.649,0.739-23.649,1.65c0,0.321,1.335,0.62,3.607,0.872
				c-2.851,0.301-4.707,0.783-4.707,1.328c0,0.911,5.171,1.649,11.55,1.649c6.378,0,11.549-0.738,11.549-1.649
				c0-0.196-0.252-0.384-0.692-0.559c0.771,0.005,1.552,0.008,2.343,0.008c13.062,0,23.649-0.738,23.649-1.649
				S314.222,586.33,301.16,586.33z"/>
		</g>
	</g>
	<g>
		<g>
			<g>
				<path fill="#E3D7EA" d="M179.127,556.425c0-22.091-17.908-40-40-40s-40,17.909-40,40c0,5.886,1.281,11.468,3.564,16.5h72.871
					C177.846,567.893,179.127,562.311,179.127,556.425z"/>
			</g>
			<g>
				
					<line fill="none" stroke="#764D9F" stroke-linecap="round" stroke-linejoin="round" stroke-miterlimit="10" x1="99.627" y1="572.925" x2="177.627" y2="572.925"/>
				
					<line fill="none" stroke="#764D9F" stroke-linecap="round" stroke-linejoin="round" stroke-miterlimit="10" x1="95.127" y1="572.925" x2="97.627" y2="572.925"/>
				
					<line fill="none" stroke="#764D9F" stroke-linecap="round" stroke-linejoin="round" stroke-miterlimit="10" x1="179.627" y1="572.925" x2="182.127" y2="572.925"/>
			</g>
		</g>
		<g>
			<path fill="#B699C8" d="M156.975,576.289h-41.1c-1.988,0-3.6-1.611-3.6-3.6v-27.3c0-1.988,1.611-3.601,3.6-3.601h41.1
				c1.988,0,3.601,1.612,3.601,3.601v27.3C160.575,574.678,158.963,576.289,156.975,576.289z"/>
			<path fill="#FFFFFF" d="M141.486,541.789h-25.071c-2.286,0-4.14,1.854-4.14,4.141V571L141.486,541.789z"/>
			<path fill="none" stroke="#764D9F" stroke-linecap="round" stroke-linejoin="round" stroke-miterlimit="10" d="M156.975,576.289
				h-41.1c-1.988,0-3.6-1.611-3.6-3.6v-27.3c0-1.988,1.611-3.601,3.6-3.601h41.1c1.988,0,3.601,1.612,3.601,3.601v27.3
				C160.575,574.678,158.963,576.289,156.975,576.289z"/>
			<path fill="#FFFFFF" stroke="#764D9F" stroke-linecap="round" stroke-linejoin="round" stroke-miterlimit="10" d="
				M156.436,576.289c2.286,0,4.14-1.854,4.14-4.139v-1.381h-48.3v1.381c0,2.285,1.854,4.139,4.14,4.139H156.436z"/>
			<polygon fill="#FFFFFF" points="140.564,581.811 132.285,581.811 132.975,576.289 139.875,576.289 			"/>
			<polygon fill="none" stroke="#764D9F" stroke-linecap="round" stroke-linejoin="round" stroke-miterlimit="10" points="
				140.564,581.811 132.285,581.811 132.975,576.289 139.875,576.289 			"/>
			<path fill="#FFFFFF" stroke="#764D9F" stroke-linecap="round" stroke-linejoin="round" stroke-miterlimit="10" d="
				M145.395,584.57h-17.939c0-1.525,1.235-2.76,2.76-2.76h12.42C144.159,581.811,145.395,583.045,145.395,584.57z"/>
			<path fill="#FFFFFF" stroke="#764D9F" stroke-linecap="round" stroke-linejoin="round" stroke-miterlimit="10" d="
				M160.936,563.18h-35.221c-1.32,0-2.4-1.08-2.4-2.4V536.96h40.021v23.819C163.335,562.1,162.255,563.18,160.936,563.18z"/>
			<path fill="#FFFFFF" stroke="#764D9F" stroke-linecap="round" stroke-linejoin="round" stroke-miterlimit="10" d="
				M163.335,536.96h-40.021v-5.88c0-1.32,1.08-2.4,2.4-2.4h35.221c1.319,0,2.399,1.08,2.399,2.4V536.96z"/>
			
				<circle fill="#B699C8" stroke="#764D9F" stroke-linecap="round" stroke-linejoin="round" stroke-miterlimit="10" cx="127.455" cy="532.82" r="1.38"/>
			
				<circle fill="#B699C8" stroke="#764D9F" stroke-linecap="round" stroke-linejoin="round" stroke-miterlimit="10" cx="132.976" cy="532.82" r="1.38"/>
			
				<circle fill="#B699C8" stroke="#764D9F" stroke-linecap="round" stroke-linejoin="round" stroke-miterlimit="10" cx="138.495" cy="532.82" r="1.38"/>
			<path fill="#B699C8" stroke="#764D9F" stroke-linecap="round" stroke-linejoin="round" stroke-miterlimit="10" d="
				M131.975,542.479h-3.52c-0.553,0-1-0.447-1-1v-0.76c0-0.552,0.447-1,1-1h3.52c0.553,0,1,0.448,1,1v0.76
				C132.975,542.032,132.527,542.479,131.975,542.479z"/>
			
				<line fill="none" stroke="#764D9F" stroke-linecap="round" stroke-linejoin="round" stroke-miterlimit="10" x1="127.455" y1="545.24" x2="132.975" y2="545.24"/>
			
				<line fill="none" stroke="#764D9F" stroke-linecap="round" stroke-linejoin="round" stroke-miterlimit="10" x1="127.455" y1="548" x2="132.975" y2="548"/>
			
				<line fill="none" stroke="#764D9F" stroke-linecap="round" stroke-linejoin="round" stroke-miterlimit="10" x1="127.455" y1="550.76" x2="132.975" y2="550.76"/>
			
				<line fill="none" stroke="#764D9F" stroke-linecap="round" stroke-linejoin="round" stroke-miterlimit="10" x1="127.455" y1="553.52" x2="132.975" y2="553.52"/>
			
				<line fill="none" stroke="#764D9F" stroke-linecap="round" stroke-linejoin="round" stroke-miterlimit="10" x1="127.455" y1="556.279" x2="132.975" y2="556.279"/>
			
				<line fill="none" stroke="#764D9F" stroke-linecap="round" stroke-linejoin="round" stroke-miterlimit="10" x1="127.455" y1="559.039" x2="130.905" y2="559.039"/>
			
				<circle fill="none" stroke="#764D9F" stroke-linecap="round" stroke-linejoin="round" stroke-miterlimit="10" cx="136.425" cy="573.529" r="0.575"/>
			
				<rect x="135.5" y="539.5" fill="#B699C8" stroke="#764D9F" stroke-linejoin="round" stroke-miterlimit="10" width="25" height="10"/>
			
				<rect x="135.5" y="551.5" fill="#B699C8" stroke="#764D9F" stroke-linejoin="round" stroke-miterlimit="10" width="25" height="10"/>
		</g>
	</g>
	<g id="Interface-Essential__x2F__Form-Validation__x2F__check-circle">
		<g id="Group_426">
			<g id="check-circle">
				<path id="Shape_2106" fill="none" stroke="#764D9F" stroke-width="2" stroke-linecap="round" stroke-linejoin="round" d="
					M349.256,103.843l-18.922,23.49l-6.525-6.524"/>
				<path id="Shape_2107" fill="none" stroke="#764D9F" stroke-width="2" stroke-linecap="round" stroke-linejoin="round" d="
					M342.436,119.496c1.221,5.352-1.432,10.833-6.383,13.199s-10.883,0.984-14.277-3.327c-3.396-4.31-3.354-10.399,0.105-14.658
					c3.459-4.262,9.408-5.557,14.326-3.117"/>
			</g>
		</g>
	</g>
	<g id="Interface-Essential__x2F__Form-Validation__x2F__check-circle_1_">
		<g id="Group_426_1_">
			<g id="check-circle_1_">
				<path id="Shape_2106_1_" fill="none" stroke="#764D9F" stroke-width="2" stroke-linecap="round" stroke-linejoin="round" d="
					M349.923,135.843L331,159.334l-6.524-6.525"/>
				<path id="Shape_2107_1_" fill="none" stroke="#764D9F" stroke-width="2" stroke-linecap="round" stroke-linejoin="round" d="
					M343.103,151.496c1.22,5.352-1.432,10.833-6.384,13.2c-4.951,2.365-10.882,0.984-14.277-3.328
					c-3.396-4.309-3.353-10.399,0.106-14.658c3.459-4.262,9.408-5.557,14.325-3.117"/>
			</g>
		</g>
	</g>
	<g id="Interface-Essential__x2F__Form-Validation__x2F__check-circle_2_">
		<g id="Group_426_2_">
			<g id="check-circle_2_">
				<path id="Shape_2106_2_" fill="none" stroke="#764D9F" stroke-width="2" stroke-linecap="round" stroke-linejoin="round" d="
					M351.537,168.481l-18.923,23.491l-6.524-6.525"/>
				<path id="Shape_2107_2_" fill="none" stroke="#764D9F" stroke-width="2" stroke-linecap="round" stroke-linejoin="round" d="
					M344.717,184.134c1.22,5.352-1.432,10.833-6.384,13.2c-4.951,2.366-10.882,0.985-14.277-3.328
					c-3.396-4.309-3.353-10.399,0.106-14.658c3.459-4.262,9.408-5.557,14.325-3.117"/>
			</g>
		</g>
	</g>
</g>
<path fill="#764D9F" stroke="#764D9F" stroke-width="0.25" stroke-linejoin="round" stroke-miterlimit="10" d="M400.667,12.241
	C400.667,6.034,395.636,1,389.43,1H283.636c-6.207,0-11.238,5.034-11.238,11.241v44.653c0,6.207,5.031,11.238,11.238,11.238h25.289
	v16.827c0,1.887,1.139,3.59,2.885,4.313c1.743,0.724,3.752,0.324,5.087-1.01l20.127-20.13h52.406
	c6.206,0,11.237-5.031,11.237-11.238V12.241z"/>
<g>
	<path fill="#FFFFFF" d="M291.843,20.569v-8.531h2.52c0.754,0,1.423,0.168,2.007,0.504s1.036,0.813,1.356,1.43
		s0.48,1.324,0.48,2.121v0.428c0,0.809-0.161,1.52-0.483,2.133s-0.781,1.086-1.377,1.418s-1.278,0.498-2.048,0.498H291.843z
		 M293.325,13.233v6.152h0.967c0.777,0,1.374-0.243,1.79-0.729s0.628-1.185,0.636-2.095v-0.475c0-0.926-0.201-1.633-0.604-2.121
		s-0.986-0.732-1.752-0.732H293.325z"/>
	<path fill="#FFFFFF" d="M304.335,18.583h-3.305l-0.691,1.986h-1.541l3.223-8.531h1.33l3.229,8.531h-1.547L304.335,18.583z
		 M301.446,17.388h2.473l-1.236-3.539L301.446,17.388z"/>
	<path fill="#FFFFFF" d="M313.933,17.792c-0.086,0.91-0.422,1.62-1.008,2.13s-1.365,0.765-2.338,0.765
		c-0.68,0-1.278-0.161-1.796-0.483s-0.917-0.78-1.198-1.374s-0.428-1.283-0.439-2.068v-0.797c0-0.805,0.143-1.514,0.428-2.127
		s0.694-1.086,1.228-1.418s1.149-0.498,1.849-0.498c0.941,0,1.699,0.255,2.273,0.765s0.908,1.231,1.002,2.165h-1.477
		c-0.07-0.613-0.249-1.056-0.536-1.327s-0.708-0.407-1.263-0.407c-0.645,0-1.14,0.235-1.485,0.707s-0.522,1.163-0.53,2.073v0.757
		c0,0.922,0.165,1.626,0.495,2.111s0.813,0.727,1.45,0.727c0.582,0,1.02-0.131,1.313-0.393s0.479-0.697,0.557-1.307H313.933z"/>
	<path fill="#FFFFFF" d="M323.161,16.954h-3.434v3.615h-1.482v-8.531h5.42v1.195h-3.938v2.537h3.434V16.954z"/>
	<path fill="#FFFFFF" d="M328.487,18.583h-3.305l-0.691,1.986h-1.541l3.223-8.531h1.33l3.229,8.531h-1.547L328.487,18.583z
		 M325.599,17.388h2.473l-1.236-3.539L325.599,17.388z"/>
	<path fill="#FFFFFF" d="M338.085,17.792c-0.086,0.91-0.422,1.62-1.008,2.13s-1.365,0.765-2.338,0.765
		c-0.68,0-1.278-0.161-1.796-0.483s-0.917-0.78-1.198-1.374s-0.428-1.283-0.439-2.068v-0.797c0-0.805,0.143-1.514,0.428-2.127
		s0.694-1.086,1.228-1.418s1.149-0.498,1.849-0.498c0.941,0,1.699,0.255,2.273,0.765s0.908,1.231,1.002,2.165h-1.477
		c-0.07-0.613-0.249-1.056-0.536-1.327s-0.708-0.407-1.263-0.407c-0.645,0-1.14,0.235-1.485,0.707s-0.522,1.163-0.53,2.073v0.757
		c0,0.922,0.165,1.626,0.495,2.111s0.813,0.727,1.45,0.727c0.582,0,1.02-0.131,1.313-0.393s0.479-0.697,0.557-1.307H338.085z"/>
	<path fill="#FFFFFF" d="M345.403,13.233h-2.66v7.336h-1.471v-7.336h-2.637v-1.195h6.768V13.233z"/>
	<path fill="#FFFFFF" d="M353.167,16.526c0,0.836-0.145,1.569-0.434,2.2s-0.702,1.115-1.239,1.453s-1.155,0.507-1.854,0.507
		c-0.691,0-1.308-0.169-1.849-0.507s-0.959-0.819-1.254-1.444s-0.444-1.346-0.448-2.162v-0.48c0-0.832,0.147-1.566,0.442-2.203
		s0.711-1.124,1.248-1.462s1.153-0.507,1.849-0.507s1.312,0.167,1.849,0.501s0.952,0.814,1.245,1.441s0.441,1.356,0.445,2.188
		V16.526z M351.685,16.081c0-0.945-0.179-1.67-0.536-2.174s-0.864-0.756-1.521-0.756c-0.641,0-1.142,0.251-1.503,0.753
		s-0.546,1.212-0.554,2.13v0.492c0,0.938,0.183,1.662,0.548,2.174s0.872,0.768,1.521,0.768c0.656,0,1.161-0.25,1.515-0.75
		s0.53-1.23,0.53-2.191V16.081z"/>
	<path fill="#FFFFFF" d="M357.778,17.288h-1.652v3.281h-1.482v-8.531h3c0.984,0,1.744,0.221,2.279,0.663s0.803,1.081,0.803,1.917
		c0,0.571-0.138,1.049-0.413,1.434s-0.659,0.681-1.151,0.888l1.916,3.553v0.076h-1.588L357.778,17.288z M356.126,16.093h1.523
		c0.5,0,0.891-0.126,1.172-0.378s0.422-0.597,0.422-1.034c0-0.457-0.13-0.811-0.39-1.061s-0.647-0.379-1.163-0.387h-1.564V16.093z"
		/>
	<path fill="#FFFFFF" d="M364.634,16.081l1.963-4.043h1.641l-2.859,5.391v3.141h-1.488v-3.141l-2.865-5.391h1.646L364.634,16.081z"
		/>
	<path fill="#FFFFFF" d="M297.123,36.255c-0.071,0.758-0.352,1.35-0.84,1.775s-1.138,0.637-1.948,0.637
		c-0.566,0-1.065-0.134-1.497-0.403c-0.431-0.269-0.764-0.65-0.998-1.145s-0.356-1.069-0.366-1.724v-0.664
		c0-0.67,0.119-1.261,0.356-1.772s0.578-0.905,1.023-1.182c0.443-0.277,0.957-0.415,1.54-0.415c0.784,0,1.416,0.212,1.895,0.637
		s0.757,1.026,0.835,1.804h-1.23c-0.059-0.511-0.207-0.88-0.447-1.106c-0.238-0.226-0.59-0.339-1.052-0.339
		c-0.537,0-0.95,0.196-1.237,0.589c-0.289,0.393-0.436,0.969-0.442,1.728v0.631c0,0.769,0.138,1.355,0.413,1.759
		c0.274,0.404,0.678,0.606,1.208,0.606c0.485,0,0.85-0.109,1.094-0.327s0.398-0.581,0.464-1.089H297.123z"/>
	<path fill="#FFFFFF" d="M300.878,34.37c-0.156-0.026-0.317-0.039-0.483-0.039c-0.544,0-0.91,0.208-1.099,0.625v3.613h-1.187v-5.283
		h1.133l0.029,0.591c0.286-0.459,0.684-0.688,1.191-0.688c0.169,0,0.31,0.023,0.42,0.068L300.878,34.37z"/>
	<path fill="#FFFFFF" d="M303.861,38.667c-0.752,0-1.361-0.237-1.828-0.71c-0.468-0.474-0.701-1.104-0.701-1.892v-0.146
		c0-0.527,0.102-0.999,0.305-1.414c0.204-0.415,0.489-0.738,0.857-0.969s0.778-0.347,1.23-0.347c0.72,0,1.275,0.229,1.668,0.688
		c0.392,0.459,0.588,1.108,0.588,1.948v0.479h-3.452c0.036,0.436,0.182,0.781,0.437,1.035c0.256,0.254,0.577,0.381,0.965,0.381
		c0.544,0,0.986-0.22,1.328-0.659l0.64,0.61c-0.212,0.316-0.494,0.561-0.847,0.735C304.697,38.58,304.301,38.667,303.861,38.667z
		 M303.72,34.141c-0.325,0-0.589,0.114-0.788,0.342c-0.201,0.228-0.328,0.545-0.384,0.952h2.261v-0.088
		c-0.026-0.397-0.132-0.697-0.317-0.901S304.049,34.141,303.72,34.141z"/>
	<path fill="#FFFFFF" d="M310.058,38.569c-0.052-0.101-0.098-0.265-0.137-0.493c-0.378,0.394-0.84,0.591-1.387,0.591
		c-0.53,0-0.964-0.151-1.299-0.454s-0.503-0.677-0.503-1.123c0-0.563,0.209-0.995,0.627-1.296c0.419-0.301,1.017-0.452,1.795-0.452
		h0.728v-0.347c0-0.273-0.076-0.492-0.229-0.657s-0.386-0.247-0.698-0.247c-0.271,0-0.491,0.067-0.664,0.203
		s-0.259,0.307-0.259,0.515h-1.187c0-0.29,0.096-0.561,0.288-0.813s0.453-0.45,0.783-0.593c0.331-0.143,0.699-0.215,1.106-0.215
		c0.618,0,1.111,0.155,1.479,0.466s0.557,0.748,0.566,1.311v2.383c0,0.475,0.066,0.854,0.2,1.138v0.083H310.058z M308.754,37.715
		c0.234,0,0.455-0.057,0.662-0.171c0.206-0.114,0.361-0.267,0.466-0.459v-0.996h-0.64c-0.439,0-0.77,0.077-0.991,0.229
		s-0.332,0.37-0.332,0.649c0,0.228,0.075,0.409,0.228,0.544C308.297,37.647,308.5,37.715,308.754,37.715z"/>
	<path fill="#FFFFFF" d="M313.798,32.002v1.284h0.933v0.879h-0.933v2.949c0,0.202,0.04,0.348,0.12,0.437
		c0.079,0.089,0.222,0.134,0.427,0.134c0.137,0,0.275-0.016,0.415-0.049v0.918c-0.271,0.075-0.53,0.112-0.781,0.112
		c-0.911,0-1.367-0.503-1.367-1.509v-2.993h-0.869v-0.879h0.869v-1.284H313.798z"/>
	<path fill="#FFFFFF" d="M317.963,38.667c-0.752,0-1.361-0.237-1.828-0.71c-0.468-0.474-0.701-1.104-0.701-1.892v-0.146
		c0-0.527,0.102-0.999,0.305-1.414c0.204-0.415,0.489-0.738,0.857-0.969s0.778-0.347,1.23-0.347c0.72,0,1.275,0.229,1.668,0.688
		c0.392,0.459,0.588,1.108,0.588,1.948v0.479h-3.452c0.036,0.436,0.182,0.781,0.437,1.035c0.256,0.254,0.577,0.381,0.965,0.381
		c0.544,0,0.986-0.22,1.328-0.659l0.64,0.61c-0.212,0.316-0.494,0.561-0.847,0.735C318.799,38.58,318.402,38.667,317.963,38.667z
		 M317.821,34.141c-0.325,0-0.589,0.114-0.788,0.342c-0.201,0.228-0.328,0.545-0.384,0.952h2.261v-0.088
		c-0.026-0.397-0.132-0.697-0.317-0.901S318.15,34.141,317.821,34.141z"/>
	<path fill="#FFFFFF" d="M326.649,38.569c-0.052-0.101-0.098-0.265-0.137-0.493c-0.378,0.394-0.84,0.591-1.387,0.591
		c-0.53,0-0.964-0.151-1.299-0.454s-0.503-0.677-0.503-1.123c0-0.563,0.209-0.995,0.627-1.296c0.419-0.301,1.017-0.452,1.795-0.452
		h0.728v-0.347c0-0.273-0.076-0.492-0.229-0.657s-0.386-0.247-0.698-0.247c-0.271,0-0.491,0.067-0.664,0.203
		s-0.259,0.307-0.259,0.515h-1.187c0-0.29,0.096-0.561,0.288-0.813s0.453-0.45,0.783-0.593c0.331-0.143,0.699-0.215,1.106-0.215
		c0.618,0,1.111,0.155,1.479,0.466s0.557,0.748,0.566,1.311v2.383c0,0.475,0.066,0.854,0.2,1.138v0.083H326.649z M325.346,37.715
		c0.234,0,0.455-0.057,0.662-0.171c0.206-0.114,0.361-0.267,0.466-0.459v-0.996h-0.64c-0.439,0-0.77,0.077-0.991,0.229
		s-0.332,0.37-0.332,0.649c0,0.228,0.075,0.409,0.228,0.544C324.889,37.647,325.092,37.715,325.346,37.715z"/>
	<path fill="#FFFFFF" d="M330.004,33.286l0.034,0.61c0.391-0.472,0.903-0.708,1.538-0.708c1.101,0,1.66,0.63,1.68,1.89v3.491h-1.187
		v-3.423c0-0.335-0.072-0.583-0.218-0.745c-0.145-0.161-0.381-0.242-0.71-0.242c-0.479,0-0.835,0.216-1.069,0.649v3.76h-1.187
		v-5.283H330.004z"/>
	<path fill="#FFFFFF" d="M334.242,35.889c0-0.814,0.188-1.467,0.566-1.96s0.884-0.74,1.519-0.74c0.56,0,1.013,0.195,1.357,0.586
		v-2.705h1.187v7.5h-1.074l-0.059-0.547c-0.354,0.43-0.828,0.645-1.421,0.645c-0.618,0-1.119-0.249-1.501-0.747
		C334.434,37.422,334.242,36.745,334.242,35.889z M335.429,35.991c0,0.537,0.104,0.956,0.31,1.257
		c0.207,0.301,0.501,0.452,0.882,0.452c0.485,0,0.84-0.216,1.064-0.649v-2.256c-0.218-0.423-0.569-0.635-1.055-0.635
		c-0.384,0-0.681,0.152-0.889,0.457S335.429,35.379,335.429,35.991z"/>
	<path fill="#FFFFFF" d="M344.77,37.72c0.296,0,0.542-0.086,0.737-0.259s0.3-0.386,0.313-0.64h1.118
		c-0.013,0.329-0.115,0.636-0.308,0.92s-0.452,0.51-0.781,0.676s-0.684,0.249-1.064,0.249c-0.739,0-1.325-0.239-1.758-0.718
		s-0.649-1.139-0.649-1.982v-0.122c0-0.804,0.215-1.448,0.645-1.931s1.016-0.725,1.758-0.725c0.628,0,1.141,0.183,1.535,0.549
		c0.396,0.366,0.604,0.847,0.623,1.443h-1.118c-0.013-0.303-0.116-0.552-0.31-0.747c-0.194-0.195-0.44-0.293-0.74-0.293
		c-0.384,0-0.681,0.139-0.889,0.417s-0.314,0.701-0.317,1.267v0.19c0,0.573,0.104,1,0.31,1.282
		C344.08,37.579,344.379,37.72,344.77,37.72z"/>
	<path fill="#FFFFFF" d="M347.611,35.879c0-0.518,0.103-0.984,0.308-1.399s0.493-0.734,0.864-0.957s0.798-0.334,1.279-0.334
		c0.713,0,1.291,0.229,1.736,0.688c0.443,0.459,0.684,1.068,0.72,1.826l0.005,0.278c0,0.521-0.1,0.986-0.301,1.396
		c-0.199,0.41-0.486,0.728-0.859,0.952c-0.372,0.225-0.803,0.337-1.291,0.337c-0.745,0-1.342-0.248-1.789-0.745
		c-0.448-0.497-0.672-1.158-0.672-1.985V35.879z M348.798,35.981c0,0.543,0.112,0.969,0.337,1.277s0.537,0.461,0.938,0.461
		s0.712-0.156,0.936-0.469c0.223-0.313,0.334-0.77,0.334-1.372c0-0.534-0.115-0.957-0.344-1.27c-0.23-0.313-0.542-0.469-0.936-0.469
		c-0.388,0-0.695,0.154-0.923,0.461S348.798,35.37,348.798,35.981z"/>
	<path fill="#FFFFFF" d="M354.628,33.286l0.034,0.61c0.391-0.472,0.903-0.708,1.538-0.708c1.101,0,1.66,0.63,1.68,1.89v3.491h-1.187
		v-3.423c0-0.335-0.072-0.583-0.217-0.745c-0.146-0.161-0.382-0.242-0.711-0.242c-0.479,0-0.835,0.216-1.069,0.649v3.76h-1.187
		v-5.283H354.628z"/>
	<path fill="#FFFFFF" d="M359.506,38.569v-4.404H358.7v-0.879h0.806v-0.483c0-0.586,0.163-1.039,0.488-1.357
		s0.781-0.479,1.367-0.479c0.208,0,0.43,0.029,0.664,0.088l-0.029,0.928c-0.13-0.026-0.281-0.039-0.454-0.039
		c-0.566,0-0.85,0.292-0.85,0.874v0.469h1.074v0.879h-1.074v4.404H359.506z"/>
	<path fill="#FFFFFF" d="M362.636,31.914c0-0.182,0.058-0.333,0.173-0.454c0.116-0.121,0.281-0.181,0.496-0.181
		s0.381,0.06,0.498,0.181s0.176,0.272,0.176,0.454c0,0.179-0.059,0.328-0.176,0.447s-0.283,0.178-0.498,0.178
		s-0.38-0.06-0.496-0.178C362.693,32.242,362.636,32.093,362.636,31.914z M363.896,38.569h-1.187v-5.283h1.187V38.569z"/>
	<path fill="#FFFFFF" d="M364.979,35.889c0-0.82,0.192-1.476,0.579-1.965c0.385-0.49,0.897-0.735,1.535-0.735
		c0.603,0,1.076,0.21,1.421,0.63l0.054-0.532h1.069v5.122c0,0.693-0.216,1.24-0.647,1.641c-0.431,0.4-1.013,0.601-1.745,0.601
		c-0.388,0-0.766-0.081-1.136-0.242c-0.369-0.161-0.649-0.372-0.842-0.632l0.562-0.713c0.364,0.433,0.813,0.649,1.348,0.649
		c0.394,0,0.705-0.106,0.933-0.32s0.342-0.526,0.342-0.94v-0.356c-0.342,0.381-0.798,0.571-1.367,0.571
		c-0.618,0-1.124-0.246-1.516-0.737C365.176,37.438,364.979,36.758,364.979,35.889z M366.161,35.991
		c0,0.531,0.108,0.948,0.325,1.252c0.216,0.304,0.517,0.457,0.9,0.457c0.479,0,0.833-0.205,1.064-0.615v-2.324
		c-0.225-0.4-0.576-0.601-1.055-0.601c-0.391,0-0.694,0.155-0.91,0.464C366.27,34.933,366.161,35.389,366.161,35.991z"/>
	<path fill="#FFFFFF" d="M374.057,38.052c-0.349,0.41-0.843,0.615-1.484,0.615c-0.573,0-1.007-0.167-1.301-0.503
		c-0.295-0.335-0.442-0.82-0.442-1.455v-3.423h1.187v3.408c0,0.67,0.278,1.006,0.835,1.006c0.576,0,0.965-0.207,1.167-0.62v-3.794
		h1.187v5.283h-1.118L374.057,38.052z"/>
	<path fill="#FFFFFF" d="M379.179,34.37c-0.156-0.026-0.317-0.039-0.483-0.039c-0.544,0-0.91,0.208-1.099,0.625v3.613h-1.187v-5.283
		h1.133l0.029,0.591c0.286-0.459,0.684-0.688,1.191-0.688c0.169,0,0.31,0.023,0.42,0.068L379.179,34.37z"/>
	<path fill="#FFFFFF" d="M382.162,38.667c-0.752,0-1.361-0.237-1.828-0.71c-0.468-0.474-0.701-1.104-0.701-1.892v-0.146
		c0-0.527,0.102-0.999,0.305-1.414c0.204-0.415,0.489-0.738,0.857-0.969s0.778-0.347,1.23-0.347c0.72,0,1.275,0.229,1.668,0.688
		c0.392,0.459,0.588,1.108,0.588,1.948v0.479h-3.452c0.036,0.436,0.182,0.781,0.437,1.035c0.256,0.254,0.577,0.381,0.965,0.381
		c0.544,0,0.986-0.22,1.328-0.659l0.64,0.61c-0.212,0.316-0.494,0.561-0.847,0.735C382.998,38.58,382.602,38.667,382.162,38.667z
		 M382.021,34.141c-0.325,0-0.589,0.114-0.788,0.342c-0.201,0.228-0.328,0.545-0.384,0.952h2.261v-0.088
		c-0.026-0.397-0.132-0.697-0.317-0.901S382.35,34.141,382.021,34.141z"/>
	<path fill="#FFFFFF" d="M293.432,48.87l1.074-3.584h1.265l-2.1,6.084c-0.322,0.889-0.869,1.333-1.641,1.333
		c-0.173,0-0.363-0.029-0.571-0.088v-0.922l0.225,0.015c0.3,0,0.525-0.055,0.676-0.164c0.152-0.109,0.271-0.292,0.359-0.549
		l0.171-0.454l-1.855-5.255h1.279L293.432,48.87z"/>
	<path fill="#FFFFFF" d="M296.156,47.879c0-0.518,0.103-0.984,0.308-1.399s0.493-0.734,0.864-0.957s0.798-0.334,1.279-0.334
		c0.713,0,1.291,0.229,1.736,0.688c0.443,0.459,0.684,1.068,0.72,1.826l0.005,0.278c0,0.521-0.1,0.986-0.301,1.396
		c-0.199,0.41-0.486,0.728-0.859,0.952c-0.372,0.225-0.803,0.337-1.291,0.337c-0.745,0-1.342-0.248-1.789-0.745
		c-0.448-0.497-0.672-1.158-0.672-1.985V47.879z M297.343,47.981c0,0.543,0.112,0.969,0.337,1.277s0.537,0.461,0.938,0.461
		s0.712-0.156,0.936-0.469c0.223-0.313,0.334-0.77,0.334-1.372c0-0.534-0.115-0.957-0.344-1.27c-0.23-0.313-0.542-0.469-0.936-0.469
		c-0.388,0-0.695,0.154-0.923,0.461S297.343,47.37,297.343,47.981z"/>
	<path fill="#FFFFFF" d="M305.272,50.052c-0.349,0.41-0.843,0.615-1.484,0.615c-0.573,0-1.007-0.167-1.302-0.503
		c-0.294-0.335-0.441-0.82-0.441-1.455v-3.423h1.187v3.408c0,0.67,0.278,1.006,0.835,1.006c0.576,0,0.965-0.207,1.167-0.62v-3.794
		h1.187v5.283h-1.118L305.272,50.052z"/>
	<path fill="#FFFFFF" d="M310.395,46.37c-0.156-0.026-0.317-0.039-0.483-0.039c-0.544,0-0.91,0.208-1.099,0.625v3.613h-1.187v-5.283
		h1.133l0.029,0.591c0.286-0.459,0.684-0.688,1.191-0.688c0.169,0,0.31,0.023,0.42,0.068L310.395,46.37z"/>
	<path fill="#FFFFFF" d="M313.412,47.879c0-0.518,0.103-0.984,0.308-1.399s0.493-0.734,0.864-0.957s0.798-0.334,1.279-0.334
		c0.713,0,1.291,0.229,1.736,0.688c0.443,0.459,0.684,1.068,0.72,1.826l0.005,0.278c0,0.521-0.1,0.986-0.301,1.396
		c-0.199,0.41-0.486,0.728-0.859,0.952c-0.372,0.225-0.803,0.337-1.291,0.337c-0.745,0-1.342-0.248-1.789-0.745
		c-0.448-0.497-0.672-1.158-0.672-1.985V47.879z M314.599,47.981c0,0.543,0.112,0.969,0.337,1.277s0.537,0.461,0.938,0.461
		s0.712-0.156,0.936-0.469c0.223-0.313,0.334-0.77,0.334-1.372c0-0.534-0.115-0.957-0.344-1.27c-0.23-0.313-0.542-0.469-0.936-0.469
		c-0.388,0-0.695,0.154-0.923,0.461S314.599,47.37,314.599,47.981z"/>
	<path fill="#FFFFFF" d="M323.969,48.934l0.84-3.647h1.157l-1.44,5.283h-0.977l-1.133-3.628l-1.113,3.628h-0.977l-1.445-5.283h1.157
		l0.854,3.608l1.084-3.608h0.894L323.969,48.934z"/>
	<path fill="#FFFFFF" d="M327.86,45.286l0.034,0.61c0.391-0.472,0.903-0.708,1.538-0.708c1.101,0,1.66,0.63,1.68,1.89v3.491h-1.187
		v-3.423c0-0.335-0.072-0.583-0.217-0.745c-0.146-0.161-0.382-0.242-0.711-0.242c-0.479,0-0.835,0.216-1.069,0.649v3.76h-1.187
		v-5.283H327.86z"/>
	<path fill="#FFFFFF" d="M334.926,50.569V43.46h2.1c0.628,0,1.186,0.14,1.672,0.42c0.487,0.28,0.864,0.677,1.131,1.191
		s0.4,1.104,0.4,1.768v0.356c0,0.674-0.135,1.266-0.402,1.777c-0.27,0.511-0.651,0.905-1.148,1.182
		c-0.496,0.277-1.064,0.415-1.706,0.415H334.926z M336.161,44.456v5.127h0.806c0.647,0,1.145-0.203,1.492-0.608
		c0.346-0.405,0.522-0.987,0.529-1.746v-0.396c0-0.771-0.168-1.361-0.503-1.768s-0.822-0.61-1.46-0.61H336.161z"/>
	<path fill="#FFFFFF" d="M345.336,48.914h-2.754l-0.576,1.655h-1.284l2.686-7.109h1.108l2.69,7.109h-1.289L345.336,48.914z
		 M342.929,47.918h2.061l-1.03-2.949L342.929,47.918z"/>
	<path fill="#FFFFFF" d="M353.334,48.255c-0.071,0.758-0.352,1.35-0.84,1.775s-1.138,0.637-1.948,0.637
		c-0.566,0-1.065-0.134-1.497-0.403c-0.431-0.269-0.764-0.65-0.998-1.145s-0.356-1.069-0.366-1.724v-0.664
		c0-0.67,0.119-1.261,0.356-1.772s0.578-0.905,1.023-1.182c0.443-0.277,0.957-0.415,1.54-0.415c0.784,0,1.416,0.212,1.895,0.637
		s0.757,1.026,0.835,1.804h-1.23c-0.059-0.511-0.207-0.88-0.447-1.106c-0.238-0.226-0.59-0.339-1.052-0.339
		c-0.537,0-0.95,0.196-1.237,0.589c-0.289,0.393-0.436,0.969-0.442,1.728v0.631c0,0.769,0.138,1.355,0.413,1.759
		c0.274,0.404,0.678,0.606,1.208,0.606c0.485,0,0.85-0.109,1.094-0.327s0.398-0.581,0.464-1.089H353.334z"/>
</g>
</svg>
