<?xml version="1.0" encoding="UTF-8" standalone="no"?><!DOCTYPE svg PUBLIC "-//W3C//DTD SVG 1.1//EN" "http://www.w3.org/Graphics/SVG/1.1/DTD/svg11.dtd"><svg width="100%" height="100%" viewBox="0 0 180 120" version="1.1" xmlns="http://www.w3.org/2000/svg" xmlns:xlink="http://www.w3.org/1999/xlink" xml:space="preserve" xmlns:serif="http://www.serif.com/" style="fill-rule:evenodd;clip-rule:evenodd;stroke-linecap:round;stroke-linejoin:round;stroke-miterlimit:10;"><rect id="ArtBoard1" x="0" y="0" width="180" height="120" style="fill:none;"/><g id="Ebene-1" serif:id="Ebene 1"><path d="M169,83c0,-44.182 -35.816,-80 -80,-80c-44.184,0 -80,35.818 -80,80c0,11.77 2.562,22.938 7.128,33l145.744,0c4.566,-10.062 7.128,-21.23 7.128,-33" style="fill:#e3d7ef;fill-rule:nonzero;"/><path d="M11,116l156,0" style="fill:none;stroke:#7c41ba;stroke-width:2px;"/><path d="M2,116l5,0" style="fill:none;stroke:#7c41ba;stroke-width:2px;"/><path d="M171,116l5,0" style="fill:none;stroke:#7c41ba;stroke-width:2px;"/></g><g id="Ebene-11" serif:id="Ebene 1"><path d="M128.392,27.141l-36.045,0l0,15.256l36.045,0c0.833,0 1.509,-0.676 1.509,-1.509l0,-12.239c0,-0.833 -0.676,-1.508 -1.509,-1.508Z" style="fill:#b999db;fill-rule:nonzero;stroke:#7c41ba;stroke-width:2px;stroke-linecap:butt;"/><rect x="86.479" y="27.14" width="5.868" height="15.256" style="fill:#fff;stroke:#7c41ba;stroke-width:2px;stroke-linecap:butt;"/><path d="M57.141,21.608l0,36.044l15.256,0l0,-36.044c0,-0.833 -0.676,-1.508 -1.509,-1.508l-12.239,0c-0.833,0 -1.508,0.675 -1.508,1.508Z" style="fill:#b999db;fill-rule:nonzero;stroke:#7c41ba;stroke-width:2px;stroke-linecap:butt;"/><rect x="57.14" y="57.652" width="15.256" height="5.869" style="fill:#fff;stroke:#7c41ba;stroke-width:2px;stroke-linecap:butt;"/><path d="M52.446,75.162c0,-1.546 0.748,-3.011 2.035,-3.869c1.502,-0.999 2.66,-1.625 2.66,-3.727l0,-4.045l15.255,0l0,0.813l4.023,10.047c0.444,1.11 0.672,2.295 0.672,3.488l0,14.988c0,1.297 -1.051,2.347 -2.347,2.347c-1.296,0 -2.348,-1.05 -2.348,-2.347l0,-8.214l0,9.387c0,1.296 -1.049,2.348 -2.346,2.348c-1.297,0 -2.347,-1.052 -2.347,-2.348l0,-8.214l0,9.388c0,1.296 -1.052,2.347 -2.348,2.347c-1.296,0 -2.347,-1.051 -2.347,-2.347l0,-8.214l0,8.214c0,1.298 -1.051,2.349 -2.349,2.349c-1.295,0 -2.347,-1.051 -2.348,-2.348l-0.013,-17.604l-5.852,0l0,-2.439Z" style="fill:#fff;fill-rule:nonzero;stroke:#7c41ba;stroke-width:2px;stroke-linecap:butt;"/><path d="M127.552,44.836c0,1.545 -0.746,3.012 -2.034,3.869c-1.501,0.998 -2.658,1.625 -2.658,3.727l0,4.048l-15.257,0l0,-0.816l-4.022,-10.047c-0.445,-1.111 -0.673,-2.294 -0.673,-3.489l0,-14.987c0,-1.296 1.052,-2.346 2.348,-2.346c1.296,0 2.347,1.05 2.347,2.346l0,8.215l0,-9.389c0,-1.296 1.05,-2.347 2.346,-2.347c1.297,0 2.347,1.051 2.347,2.347l0,8.214l0,-9.386c0,-1.298 1.052,-2.349 2.347,-2.349c1.298,0 2.348,1.051 2.348,2.349l0,8.213l0,-8.213c0,-1.298 1.052,-2.35 2.348,-2.35c1.297,0 2.349,1.052 2.35,2.348l0.013,17.604l5.85,0l0,2.439Z" style="fill:#fff;fill-rule:nonzero;stroke:#7c41ba;stroke-width:2px;stroke-linecap:butt;"/><path d="M122.86,98.392l0,-36.045l-15.258,0l0,36.045c0,0.833 0.677,1.508 1.509,1.508l12.241,0c0.832,0 1.508,-0.675 1.508,-1.508Z" style="fill:#b999db;fill-rule:nonzero;stroke:#7c41ba;stroke-width:2px;stroke-linecap:butt;"/><rect x="107.602" y="56.48" width="15.258" height="5.867" style="fill:#fff;stroke:#7c41ba;stroke-width:2px;stroke-linecap:butt;"/><path d="M105.165,97.551c-1.546,0 -3.013,-0.745 -3.87,-2.033c-0.997,-1.502 -1.625,-2.661 -3.727,-2.661l-4.047,0l0,-15.256l0.815,0l10.048,-4.021c1.11,-0.445 2.292,-0.672 3.489,-0.672l14.987,0c1.297,0 2.347,1.05 2.347,2.348c0,1.293 -1.05,2.345 -2.347,2.345l-8.216,0l9.392,0c1.293,0 2.344,1.052 2.344,2.348c0,1.297 -1.051,2.347 -2.344,2.347l-8.217,0l9.388,0c1.298,0 2.349,1.051 2.349,2.347c0,1.296 -1.051,2.347 -2.349,2.347l-8.214,0l8.214,0c1.298,0 2.349,1.053 2.349,2.346c0,1.3 -1.051,2.349 -2.349,2.353l-17.603,0.013l0,5.849l-2.439,0Z" style="fill:#fff;fill-rule:nonzero;"/><path d="M58.277,77.601l-6.442,0c-0.958,0 -1.736,0.778 -1.736,1.736l0,11.787c0,0.958 0.778,1.734 1.736,1.734l6.475,0l-0.033,-15.257Z" style="fill:#b999db;fill-rule:nonzero;"/><rect x="77.093" y="77.601" width="10.562" height="15.256" style="fill:#b999db;"/><path d="M105.165,97.551c-1.546,0 -3.013,-0.745 -3.87,-2.033c-0.997,-1.502 -1.625,-2.661 -3.727,-2.661l-4.047,0l0,-15.256l0.815,0l10.048,-4.021c1.11,-0.445 2.292,-0.672 3.489,-0.672l14.987,0c1.297,0 2.347,1.05 2.347,2.348c0,1.293 -1.05,2.345 -2.347,2.345l-8.216,0l9.392,0c1.293,0 2.344,1.052 2.344,2.348c0,1.297 -1.051,2.347 -2.344,2.347l-8.217,0l9.388,0c1.298,0 2.349,1.051 2.349,2.347c0,1.296 -1.051,2.347 -2.349,2.347l-8.214,0l8.214,0c1.298,0 2.349,1.053 2.349,2.346c0,1.3 -1.051,2.349 -2.349,2.353l-17.603,0.013l0,5.849l-2.439,0Z" style="fill:none;stroke:#7c41ba;stroke-width:2px;stroke-linecap:butt;"/><rect x="87.654" y="77.601" width="5.867" height="15.256" style="fill:#fff;stroke:#7c41ba;stroke-width:2px;stroke-linecap:butt;"/><path d="M58.277,77.601l-6.442,0c-0.958,0 -1.736,0.778 -1.736,1.736l0,11.787c0,0.958 0.778,1.734 1.736,1.734l6.475,0l-0.033,-15.257Z" style="fill:none;stroke:#7c41ba;stroke-width:2px;stroke-linecap:butt;"/><rect x="77.093" y="77.601" width="10.562" height="15.256" style="fill:none;stroke:#7c41ba;stroke-width:2px;stroke-linecap:butt;"/><path d="M74.838,22.445c1.545,0 3.011,0.748 3.868,2.034c0.999,1.503 1.625,2.661 3.728,2.661l4.045,0l0,15.254l-0.813,0l-10.049,4.023c-1.108,0.444 -2.292,0.672 -3.487,0.672l-14.987,0c-1.297,0 -2.348,-1.05 -2.348,-2.347c0,-1.295 1.051,-2.348 2.348,-2.348l8.214,0l-9.389,0c-1.295,0 -2.346,-1.05 -2.346,-2.345c0,-1.296 1.051,-2.348 2.346,-2.348l8.215,0l-9.388,0c-1.296,0 -2.348,-1.051 -2.348,-2.347c0,-1.297 1.052,-2.347 2.348,-2.347l8.215,0l-8.215,0c-1.297,0 -2.349,-1.052 -2.349,-2.348c0,-1.298 1.051,-2.348 2.348,-2.35l17.604,-0.013l0,-5.851l2.44,0Z" style="fill:#fff;fill-rule:nonzero;stroke:#7c41ba;stroke-width:2px;stroke-linecap:butt;"/><path id="Shape_2_copy_9" d="M92.394,50.279l-2.097,1.361l-0.383,4.363l2.924,-3.268l-0.444,-2.456Z" style="fill:#7c41ba;"/><path id="Shape_2" d="M86.796,52.756l0.244,4.374l2.054,1.421l0.522,-2.442l-2.82,-3.353Z" style="fill:#7c41ba;"/><path id="Shape_2_copy" d="M90.051,56.087l0.443,2.455l2.097,-1.36l0.384,-4.363l-2.924,3.268Z" style="fill:#7c41ba;"/><path id="Shape_2_copy_2" d="M92.918,57.468l-1.421,2.047l2.443,0.522l3.351,-2.81l-4.373,0.241Z" style="fill:#7c41ba;"/><path id="Shape_2_copy_3" d="M93.963,60.486l-2.455,0.444l1.359,2.098l4.363,0.383l-3.267,-2.925Z" style="fill:#7c41ba;"/><path id="Shape_2_copy_4" d="M92.581,63.354l-2.047,-1.42l-0.522,2.442l2.81,3.351l-0.241,-4.373Z" style="fill:#7c41ba;"/><path id="Shape_2_copy_5" d="M89.135,61.959l-2.099,1.359l-0.382,4.363l2.925,-3.267l-0.444,-2.455Z" style="fill:#7c41ba;"/><path id="Shape_2_copy_6" d="M85.673,60.448l-3.351,2.81l4.373,-0.241l1.42,-2.047l-2.442,-0.522Z" style="fill:#7c41ba;"/><path id="Shape_2_copy_7" d="M86.746,57.457l-4.363,-0.382l3.267,2.926l2.455,-0.445l-1.359,-2.099Z" style="fill:#7c41ba;"/><path id="Shape_2_copy_15" d="M82.299,57.209l-2.454,0.444l1.359,2.099l4.362,0.383l-3.267,-2.926Z" style="fill:#7c41ba;"/><path id="Shape_2_copy_8" d="M86.641,52.79l-2.049,-1.422l-0.522,2.444l2.814,3.357l-0.243,-4.379Z" style="fill:#7c41ba;"/><path id="Shape_2_copy_10" d="M96.235,54.509l-3.352,2.81l4.374,-0.241l1.42,-2.047l-2.442,-0.522Z" style="fill:#7c41ba;"/><path id="Shape_2_copy_11" d="M98.409,60.733l-4.363,-0.384l3.267,2.926l2.456,-0.444l-1.36,-2.098Z" style="fill:#7c41ba;"/><path id="Shape_2_copy_12" d="M92.73,63.319l0.241,4.373l2.047,1.42l0.522,-2.442l-2.81,-3.351Z" style="fill:#7c41ba;"/><path id="Shape_2_copy_13" d="M86.773,67.75l0.444,2.455l2.099,-1.36l0.383,-4.363l-2.926,3.268Z" style="fill:#7c41ba;"/><path id="Shape_2_copy_14" d="M82.356,63.407l-1.42,2.047l2.443,0.523l3.351,-2.811l-4.374,0.241Z" style="fill:#7c41ba;"/><path id="Shape_2_copy_16" d="M83.486,66.044l3.03,1.602l0.368,-4.416l-3.398,2.814Z" style="fill:#7c41ba;"/><path id="Shape_2_copy_17" d="M81.235,59.875l1.01,3.276l3.383,-2.863l-4.393,-0.413Z" style="fill:#7c41ba;"/><path id="Shape_2_copy_18" d="M84.005,53.921l-1.597,3.026l4.413,0.373l-2.816,-3.399Z" style="fill:#7c41ba;"/><path id="Shape_2_copy_19" d="M86.902,52.678l2.859,3.386l0.411,-4.396l-3.27,1.01Z" style="fill:#7c41ba;"/><path id="Shape_2_copy_20" d="M93.103,52.844l-0.373,4.414l3.398,-2.817l-3.025,-1.597Z" style="fill:#7c41ba;"/><path id="Shape_2_copy_21" d="M97.371,57.338l-3.386,2.859l4.396,0.41l-1.01,-3.269Z" style="fill:#7c41ba;"/><path id="Shape_2_copy_22" d="M92.791,63.167l2.817,3.397l1.598,-3.025l-4.415,-0.372Z" style="fill:#7c41ba;"/><path id="Shape_2_copy_23" d="M89.852,64.421l-0.41,4.395l3.27,-1.009l-2.86,-3.386Z" style="fill:#7c41ba;"/></g></svg>