<?xml version="1.0" encoding="UTF-8" standalone="no"?><!DOCTYPE svg PUBLIC "-//W3C//DTD SVG 1.1//EN" "http://www.w3.org/Graphics/SVG/1.1/DTD/svg11.dtd"><svg width="100%" height="100%" viewBox="0 0 180 120" version="1.1" xmlns="http://www.w3.org/2000/svg" xmlns:xlink="http://www.w3.org/1999/xlink" xml:space="preserve" xmlns:serif="http://www.serif.com/" style="fill-rule:evenodd;clip-rule:evenodd;stroke-linecap:round;stroke-linejoin:round;stroke-miterlimit:10;"><rect id="ArtBoard1" x="0" y="0" width="180" height="120" style="fill:none;"/><g id="Ebene-1" serif:id="Ebene 1"><path d="M169,83c0,-44.182 -35.816,-80 -80,-80c-44.184,0 -80,35.818 -80,80c0,11.77 2.562,22.938 7.128,33l145.744,0c4.566,-10.062 7.128,-21.23 7.128,-33" style="fill:#e3d7ef;fill-rule:nonzero;"/><path d="M11,116l156,0" style="fill:none;stroke:#7c41ba;stroke-width:2px;"/><path d="M2,116l5,0" style="fill:none;stroke:#7c41ba;stroke-width:2px;"/><path d="M171,116l5,0" style="fill:none;stroke:#7c41ba;stroke-width:2px;"/></g><g id="Ebene-11" serif:id="Ebene 1"><g><path d="M100.348,26l-5.913,7.391l22.33,11.164c1.966,0.985 4.278,-0.446 4.278,-2.643l0,-7.042l-20.695,-8.87Z" style="fill:#fff;fill-rule:nonzero;stroke:#7c41ba;stroke-width:2px;"/><path d="M97.391,71.826l0,22.174l-38.434,0l0,-29.565l25.13,0" style="fill:#fff;fill-rule:nonzero;stroke:#7c41ba;stroke-width:2px;"/><path d="M67.828,64.438l-1.508,-3.012c-0.902,-1.81 -0.822,-3.953 0.219,-5.689l6.137,-10.229c0.689,-1.144 1.745,-2.025 2.995,-2.493l21.719,-8.145l17.739,8.87c0,0 -2.587,7.574 -8.87,17.739c-6.282,10.161 -14.782,11.826 -14.782,11.826l-10.357,6.215c-2.477,1.487 -5.685,0.765 -7.285,-1.638l-0.006,-0.006c-1.682,-2.525 -0.966,-5.934 1.594,-7.566c4.044,-2.575 9.381,-5.875 10.141,-5.875c0,-1.247 3.19,-6.143 5.913,-8.869c-5.218,0 -8.87,-2.957 -8.87,-2.957c0,1.892 -7.391,5.913 -8.869,5.913c0,0 2.956,2.711 2.956,5.913" style="fill:#e3d7ef;fill-rule:nonzero;stroke:#7c41ba;stroke-width:2px;"/></g></g></svg>