<?xml version="1.0" encoding="utf-8"?>
<!-- Generator: Adobe Illustrator 16.0.3, SVG Export Plug-In . SVG Version: 6.00 Build 0)  -->
<!DOCTYPE svg PUBLIC "-//W3C//DTD SVG 1.1//EN" "http://www.w3.org/Graphics/SVG/1.1/DTD/svg11.dtd">
<svg version="1.1" id="Ebene_1" xmlns="http://www.w3.org/2000/svg" xmlns:xlink="http://www.w3.org/1999/xlink" x="0px" y="0px"
	 width="160px" height="160px" viewBox="0 0 160 160" enable-background="new 0 0 160 160" xml:space="preserve">
<g>
	<circle fill="#E3D7EF" cx="80" cy="80" r="80"/>
	<g id="Interface-Essential__x2F__Help__x2F__help-question-network">
		<g id="Group_219">
			<g id="help-question-network">
				<path id="Shape_1122" fill="none" stroke="#7C41BA" stroke-width="2" stroke-linecap="round" stroke-linejoin="round" d="
					M119.801,66.055l7.248-7.199"/>
				<path id="Oval_186" fill="none" stroke="#7C41BA" stroke-width="2" stroke-linecap="round" stroke-linejoin="round" d="
					M130.297,60.184c2.576,0,4.664-2.086,4.664-4.664c0-2.576-2.088-4.664-4.664-4.664s-4.665,2.088-4.665,4.664
					C125.632,58.098,127.721,60.184,130.297,60.184z"/>
				<path id="Shape_1123" fill="none" stroke="#7C41BA" stroke-width="2" stroke-linecap="round" stroke-linejoin="round" d="
					M122.045,91.625l4.931,4.961"/>
				<path id="Oval_187" fill="none" stroke="#7C41BA" stroke-width="2" stroke-linecap="round" stroke-linejoin="round" d="
					M130.317,104.498c2.578,0,4.664-2.088,4.664-4.666c0-2.574-2.086-4.664-4.664-4.664c-2.576,0-4.665,2.09-4.665,4.664
					C125.652,102.41,127.741,104.498,130.317,104.498z"/>
				<path id="Shape_1124" fill="none" stroke="#7C41BA" stroke-width="2" stroke-linecap="round" stroke-linejoin="round" d="
					M38.166,66.055l-7.247-7.199"/>
				<path id="Oval_188" fill="none" stroke="#7C41BA" stroke-width="2" stroke-linecap="round" stroke-linejoin="round" d="
					M27.671,60.184c2.576,0,4.664-2.086,4.664-4.664c0-2.576-2.088-4.664-4.664-4.664s-4.664,2.088-4.664,4.664
					C23.007,58.098,25.095,60.184,27.671,60.184z"/>
				<path id="Shape_1125" fill="none" stroke="#7C41BA" stroke-width="2" stroke-linecap="round" stroke-linejoin="round" d="
					M35.923,91.625l-4.933,4.961"/>
				<path id="Oval_189" fill="none" stroke="#7C41BA" stroke-width="2" stroke-linecap="round" stroke-linejoin="round" d="
					M27.646,104.498c2.576,0,4.665-2.088,4.665-4.666c0-2.574-2.089-4.664-4.665-4.664c-2.575,0-4.664,2.09-4.664,4.664
					C22.981,102.41,25.07,104.498,27.646,104.498z"/>
				<path id="Shape_1126" fill="none" stroke="#7C41BA" stroke-width="2" stroke-linecap="round" stroke-linejoin="round" d="
					M118.635,76.512h6.997"/>
				<path id="Oval_190" fill="none" stroke="#7C41BA" stroke-width="2" stroke-linecap="round" stroke-linejoin="round" d="
					M130.297,81.176c2.576,0,4.664-2.088,4.664-4.664c0-2.578-2.088-4.668-4.664-4.668s-4.665,2.09-4.665,4.668
					C125.632,79.088,127.721,81.176,130.297,81.176z"/>
				<path id="Shape_1127" fill="none" stroke="#7C41BA" stroke-width="2" stroke-linecap="round" stroke-linejoin="round" d="
					M39.333,76.512h-6.998"/>
				<path id="Oval_191" fill="none" stroke="#7C41BA" stroke-width="2" stroke-linecap="round" stroke-linejoin="round" d="
					M27.671,81.176c2.576,0,4.664-2.088,4.664-4.664c0-2.578-2.088-4.668-4.664-4.668s-4.664,2.09-4.664,4.668
					C23.007,79.088,25.095,81.176,27.671,81.176z"/>
			</g>
		</g>
	</g>
	<path fill="#FFFFFF" stroke="#7C41BA" stroke-width="2" stroke-miterlimit="10" d="M81.067,90.441
		c-1.189,0-2.262,0.461-3.079,1.199V79.666H66.015c0.735-0.818,1.197-1.889,1.197-3.078c0-2.549-2.067-4.619-4.618-4.619
		c-2.549,0-4.618,2.07-4.618,4.619c0,1.189,0.463,2.26,1.198,3.078h-8.893c-1.703,0-3.08,1.379-3.08,3.08v24.629
		c0,1.699,1.377,3.078,3.08,3.078h27.707V98.479c0.817,0.736,1.89,1.201,3.079,1.201c2.549,0,4.616-2.07,4.616-4.621
		S83.616,90.441,81.067,90.441z"/>
	<path fill="#B999DB" stroke="#7C41BA" stroke-width="2" stroke-miterlimit="10" d="M96.802,79.666
		c0.734-0.818,1.197-1.889,1.197-3.078c0-2.549-2.067-4.619-4.619-4.619c-2.551,0-4.616,2.07-4.616,4.619
		c0,1.189,0.46,2.26,1.197,3.078H77.988v11.975c0.817-0.738,1.89-1.199,3.079-1.199c2.549,0,4.616,2.066,4.616,4.617
		s-2.067,4.621-4.616,4.621c-1.189,0-2.262-0.465-3.079-1.201v11.975h27.707c1.702,0,3.079-1.379,3.079-3.078V82.746
		c0-1.701-1.377-3.08-3.079-3.08H96.802z"/>
	<g>
		<path fill="#FFFFFF" stroke="#7C41BA" stroke-width="2" stroke-miterlimit="10" d="M82.842,36.684
			c0.966,0.527,1.758,1.385,2.152,2.506c0.845,2.406-0.42,5.043-2.825,5.891c-2.405,0.846-5.042-0.418-5.887-2.822
			c-0.396-1.123-0.316-2.285,0.107-3.305l-8.392,2.953c-1.604,0.566-2.445,2.322-1.882,3.926l2.649,7.527
			c-0.515-0.002-1.034,0.063-1.547,0.244c-2.404,0.848-3.67,3.482-2.822,5.889c0.846,2.406,3.483,3.672,5.889,2.824
			c0.513-0.18,0.959-0.453,1.359-0.777l2.648,7.527c0.565,1.604,2.321,2.445,3.925,1.883l8.392-2.953
			c-0.967-0.527-1.76-1.387-2.153-2.508c-0.845-2.406,0.419-5.041,2.824-5.889c2.405-0.846,5.043,0.418,5.888,2.822
			c0.396,1.123,0.317,2.285-0.106,3.305l8.391-2.955c1.604-0.564,2.446-2.322,1.881-3.928l-8.175-23.23
			c-0.564-1.605-2.322-2.445-3.926-1.883L82.842,36.684z"/>
		<path fill="none" stroke="#7C41BA" stroke-width="2" stroke-linecap="round" stroke-linejoin="round" stroke-miterlimit="10" d="
			M82.842,36.684c0.966,0.527,1.758,1.385,2.152,2.506c0.845,2.406-0.42,5.043-2.825,5.891c-2.405,0.846-5.042-0.418-5.887-2.822
			c-0.396-1.123-0.316-2.285,0.107-3.305l-8.392,2.953c-1.604,0.566-2.445,2.322-1.882,3.926l2.649,7.527
			c-0.515-0.002-1.034,0.063-1.547,0.244c-2.404,0.848-3.67,3.482-2.822,5.889c0.846,2.406,3.483,3.672,5.889,2.824
			c0.513-0.18,0.959-0.453,1.359-0.777l2.648,7.527c0.565,1.604,2.321,2.445,3.925,1.883l8.392-2.953
			c-0.967-0.527-1.76-1.387-2.153-2.508c-0.845-2.406,0.419-5.041,2.824-5.889c2.405-0.846,5.043,0.418,5.888,2.822
			c0.396,1.123,0.317,2.285-0.106,3.305l8.391-2.955c1.604-0.564,2.446-2.322,1.881-3.928l-8.175-23.23
			c-0.564-1.605-2.322-2.445-3.926-1.883L82.842,36.684z"/>
	</g>
	<path fill="#B999DB" d="M105.75,130.674c0,1.66-10.746,3-24,3s-24-1.34-24-3c0-1.656,10.746-3,24-3S105.75,129.018,105.75,130.674z
		"/>
</g>
</svg>
