<?xml version="1.0" encoding="utf-8"?>
<!-- Generator: Adobe Illustrator 16.0.3, SVG Export Plug-In . SVG Version: 6.00 Build 0)  -->
<!DOCTYPE svg PUBLIC "-//W3C//DTD SVG 1.1//EN" "http://www.w3.org/Graphics/SVG/1.1/DTD/svg11.dtd">
<svg version="1.1" id="Ebene_1" xmlns="http://www.w3.org/2000/svg" xmlns:xlink="http://www.w3.org/1999/xlink" x="0px" y="0px"
	 width="160px" height="160px" viewBox="0 0 160 160" enable-background="new 0 0 160 160" xml:space="preserve">
<g>
	<circle fill="#E3D7EF" cx="80" cy="80" r="80"/>
	<g>
		<ellipse fill="#E3D7EF" cx="78.816" cy="108.219" rx="24.053" ry="3.436"/>
		<path fill="#FFFFFF" d="M93.998,106.844H65.012c-1.105,0-2-0.896-2-2v-2.82c0-2.65,2.148-4.801,4.799-4.801h23.387
			c2.65,0,4.801,2.15,4.801,4.801v2.82C95.998,105.947,95.102,106.844,93.998,106.844z"/>
		<g>
			
				<path fill="#FFFFFF" stroke="#7C41BA" stroke-width="2" stroke-linecap="round" stroke-linejoin="round" stroke-miterlimit="10" d="
				M104.244,58.738c-1.52,0-2.748-1.229-2.748-2.748c0-2.98-3.777-5.498-8.248-5.498c-4.469,0-9.621,2.518-9.621,5.498
				c0,1.52-1.229,2.748-2.748,2.748s-2.75-1.229-2.75-2.748c0-6.066,7.541-10.996,15.119-10.996s13.744,4.93,13.744,10.996
				C106.992,57.51,105.764,58.738,104.244,58.738z"/>
		</g>
		<g>
			
				<path fill="#FFFFFF" stroke="#7C41BA" stroke-width="2" stroke-linecap="round" stroke-linejoin="round" stroke-miterlimit="10" d="
				M78.129,58.738c-1.518,0-2.748-1.229-2.748-2.748c0-2.98-5.152-5.498-9.621-5.498c-4.471,0-8.246,2.518-8.246,5.498
				c0,1.52-1.23,2.748-2.75,2.748s-2.748-1.229-2.748-2.748c0-6.066,6.166-10.996,13.744-10.996s15.119,4.93,15.119,10.996
				C80.879,57.51,79.648,58.738,78.129,58.738z"/>
		</g>
		
			<rect x="75.381" y="54.615" fill="#FFFFFF" stroke="#7C41BA" stroke-width="2" stroke-linecap="round" stroke-linejoin="round" stroke-miterlimit="10" width="8.246" height="37.109"/>
		
			<rect x="75.381" y="54.615" fill="none" stroke="#7C41BA" stroke-width="2" stroke-linecap="round" stroke-linejoin="round" stroke-miterlimit="10" width="8.246" height="37.109"/>
		
			<path fill="#FFFFFF" stroke="#7C41BA" stroke-width="2" stroke-linecap="round" stroke-linejoin="round" stroke-miterlimit="10" d="
			M79.504,44.994l-6.871,6.871c0,1.52,1.23,2.75,2.748,2.75h8.246c1.52,0,2.75-1.23,2.75-2.75L79.504,44.994z"/>
		<path fill="none" stroke="#7C41BA" stroke-width="2" stroke-linecap="round" stroke-linejoin="round" stroke-miterlimit="10" d="
			M93.998,106.844H65.012c-1.105,0-2-0.896-2-2v-2.82c0-2.65,2.148-4.801,4.799-4.801h23.387c2.65,0,4.801,2.15,4.801,4.801v2.82
			C95.998,105.947,95.102,106.844,93.998,106.844z"/>
		
			<path fill="#FFFFFF" stroke="#7C41BA" stroke-width="2" stroke-linecap="round" stroke-linejoin="round" stroke-miterlimit="10" d="
			M87.75,97.223H71.258c-2.277,0-4.123-1.846-4.123-4.123l0,0c0-2.277,1.846-4.123,4.123-4.123H87.75
			c2.277,0,4.125,1.846,4.125,4.123l0,0C91.875,95.377,90.027,97.223,87.75,97.223z"/>
		
			<polygon fill="none" stroke="#7C41BA" stroke-width="2" stroke-linecap="round" stroke-linejoin="round" stroke-miterlimit="10" points="
			104.244,58.738 115.24,76.607 93.248,76.607 		"/>
		<path fill="#FFFFFF" d="M65.76,76.607c0,6.07-4.924,10.994-10.996,10.994s-10.996-4.924-10.996-10.994H65.76z"/>
		
			<polygon fill="none" stroke="#7C41BA" stroke-width="2" stroke-linecap="round" stroke-linejoin="round" stroke-miterlimit="10" points="
			54.764,58.738 43.768,76.607 65.76,76.607 		"/>
		<path fill="none" stroke="#7C41BA" stroke-width="2" stroke-linecap="round" stroke-linejoin="round" stroke-miterlimit="10" d="
			M65.76,76.607c0,6.07-4.924,10.994-10.996,10.994s-10.996-4.924-10.996-10.994H65.76z"/>
		<path fill="#FFFFFF" d="M115.24,76.607c0,6.07-4.924,10.994-10.996,10.994s-10.996-4.924-10.996-10.994H115.24z"/>
		<path fill="none" stroke="#7C41BA" stroke-width="2" stroke-linecap="round" stroke-linejoin="round" stroke-miterlimit="10" d="
			M115.24,76.607c0,6.07-4.924,10.994-10.996,10.994s-10.996-4.924-10.996-10.994H115.24z"/>
	</g>
	<path fill="#B999DB" d="M103.75,134.006c0,1.66-10.746,3-24,3s-24-1.34-24-3c0-1.656,10.746-3,24-3S103.75,132.35,103.75,134.006z"
		/>
</g>
</svg>
