<?xml version="1.0" encoding="utf-8"?>
<!-- Generator: Adobe Illustrator 16.0.3, SVG Export Plug-In . SVG Version: 6.00 Build 0)  -->
<!DOCTYPE svg PUBLIC "-//W3C//DTD SVG 1.1//EN" "http://www.w3.org/Graphics/SVG/1.1/DTD/svg11.dtd">
<svg version="1.1" id="Ebene_1" xmlns="http://www.w3.org/2000/svg" xmlns:xlink="http://www.w3.org/1999/xlink" x="0px" y="0px"
	 width="450px" height="600px" viewBox="0 0 450 600" enable-background="new 0 0 450 600" xml:space="preserve">
<g>
	<g>
		<g>
			<g>
				<path fill="#E3D7EF" d="M264,99.569c0-44.184-35.816-80-80-80c-44.183,0-80,35.816-80,80c0,11.77,2.563,22.936,7.128,33h145.743
					C261.438,122.505,264,111.339,264,99.569z"/>
			</g>
			<g>
				
					<line fill="none" stroke="#7C41BA" stroke-width="2" stroke-linecap="round" stroke-linejoin="round" stroke-miterlimit="10" x1="106" y1="132.569" x2="262" y2="132.569"/>
				
					<line fill="none" stroke="#7C41BA" stroke-width="2" stroke-linecap="round" stroke-linejoin="round" stroke-miterlimit="10" x1="97" y1="132.569" x2="102" y2="132.569"/>
				
					<line fill="none" stroke="#7C41BA" stroke-width="2" stroke-linecap="round" stroke-linejoin="round" stroke-miterlimit="10" x1="266" y1="132.569" x2="271" y2="132.569"/>
			</g>
		</g>
	</g>
	<g>
		
			<path fill="#FFFFFF" stroke="#7C41BA" stroke-width="2" stroke-linecap="round" stroke-linejoin="round" stroke-miterlimit="10" d="
			M169.398,49.589h4.223c1.508,0,2.736,1.211,2.762,2.719l1.336,86.98H165.3l1.339-86.98
			C166.661,50.8,167.891,49.589,169.398,49.589z"/>
		
			<polygon fill="#B999DB" stroke="#7C41BA" stroke-width="2" stroke-linecap="round" stroke-linejoin="round" stroke-miterlimit="10" points="
			166.34,71.669 176.68,71.669 176.531,62.009 166.488,62.009 		"/>
		
			<polygon fill="#B999DB" stroke="#7C41BA" stroke-width="2" stroke-linecap="round" stroke-linejoin="round" stroke-miterlimit="10" points="
			166.001,93.749 177.018,93.749 176.871,84.089 166.149,84.089 		"/>
		<rect x="130.8" y="89.608" fill="#FFFFFF" width="85.56" height="49.68"/>
		
			<rect x="130.8" y="89.608" fill="none" stroke="#7C41BA" stroke-width="2" stroke-linecap="round" stroke-linejoin="round" stroke-miterlimit="10" width="85.56" height="49.68"/>
		
			<path fill="#B999DB" stroke="#7C41BA" stroke-width="2" stroke-linecap="round" stroke-linejoin="round" stroke-miterlimit="10" d="
			M218.359,73.05h11.18c1.105,0,2,0.895,2,2v29.738h-15.18V75.05C216.359,73.944,217.256,73.05,218.359,73.05z"/>
		
			<path fill="#B999DB" stroke="#7C41BA" stroke-width="2" stroke-linecap="round" stroke-linejoin="round" stroke-miterlimit="10" d="
			M204.699,82.71h-19.461c-1.104,0-2,0.895-2,2v20.078h23.461V84.71C206.699,83.604,205.805,82.71,204.699,82.71z"/>
		<path fill="none" stroke="#7C41BA" stroke-width="2" stroke-linecap="round" stroke-linejoin="round" stroke-miterlimit="10" d="
			M242.578,104.788h-11.039V78.569h10.039c0.555,0,1,0.449,1,1V104.788z"/>
		
			<polyline fill="none" stroke="#7C41BA" stroke-width="2" stroke-linecap="round" stroke-linejoin="round" stroke-miterlimit="10" points="
			231.539,78.569 242.578,89.608 231.539,89.608 242.578,100.649 231.539,100.649 		"/>
		<path fill="none" stroke="#7C41BA" stroke-width="2" stroke-linecap="round" stroke-linejoin="round" stroke-miterlimit="10" d="
			M166.68,139.288h-13.801v-44.16h12.801c0.552,0,1,0.449,1,1V139.288z"/>
		
			<polyline fill="none" stroke="#7C41BA" stroke-width="2" stroke-linecap="round" stroke-linejoin="round" stroke-miterlimit="10" points="
			152.879,95.128 166.68,108.929 152.879,108.929 166.68,122.729 152.879,122.729 166.68,136.528 		"/>
		<path fill="#FFFFFF" d="M162.539,139.288h84.18v-32.5c0-1.104-0.895-2-2-2h-80.18c-1.104,0-2,0.896-2,2V139.288z"/>
		<path fill="none" stroke="#7C41BA" stroke-width="2" stroke-linecap="round" stroke-linejoin="round" stroke-miterlimit="10" d="
			M162.539,139.288h84.18v-32.5c0-1.104-0.895-2-2-2h-80.18c-1.104,0-2,0.896-2,2V139.288z"/>
		<path fill="none" stroke="#7C41BA" stroke-width="2" stroke-linecap="round" stroke-linejoin="round" stroke-miterlimit="10" d="
			M183.238,114.45h58.748c6.426,0,11.633,5.209,11.633,11.633v13.205"/>
		<path fill="#FFFFFF" d="M143.181,44.069h6.979c1.51,0,2.738,1.211,2.761,2.719l1.341,92.5h-15.182l1.341-92.5
			C140.442,45.28,141.672,44.069,143.181,44.069z"/>
		<path fill="#FFFFFF" d="M122.48,44.069h6.979c1.51,0,2.738,1.211,2.761,2.719l1.341,92.5h-15.182l1.342-92.5
			C119.742,45.28,120.972,44.069,122.48,44.069z"/>
		<path fill="none" stroke="#7C41BA" stroke-width="2" stroke-linecap="round" stroke-linejoin="round" stroke-miterlimit="10" d="
			M143.181,44.069h6.979c1.51,0,2.738,1.211,2.761,2.719l1.341,92.5h-15.182l1.341-92.5
			C140.442,45.28,141.672,44.069,143.181,44.069z"/>
		
			<path fill="#B999DB" stroke="#7C41BA" stroke-width="2" stroke-linecap="round" stroke-linejoin="round" stroke-miterlimit="10" d="
			M226.023,139.292h9.66v-36.24c0-1.326-1.074-2.4-2.398-2.4h-4.863c-1.324,0-2.398,1.074-2.398,2.4V139.292z"/>
		
			<path fill="#B999DB" stroke="#7C41BA" stroke-width="2" stroke-linecap="round" stroke-linejoin="round" stroke-miterlimit="10" d="
			M220.5,139.288h20.699v-8.998c0-2.65-2.148-4.801-4.801-4.801h-11.098c-2.652,0-4.801,2.15-4.801,4.801V139.288z"/>
		
			<path fill="#B999DB" stroke="#7C41BA" stroke-width="2" stroke-linecap="round" stroke-linejoin="round" stroke-miterlimit="10" d="
			M199.805,139.292h9.66v-36.24c0-1.326-1.074-2.4-2.398-2.4h-4.863c-1.324,0-2.398,1.074-2.398,2.4V139.292z"/>
		
			<path fill="#B999DB" stroke="#7C41BA" stroke-width="2" stroke-linecap="round" stroke-linejoin="round" stroke-miterlimit="10" d="
			M194.281,139.288h20.699v-8.998c0-2.65-2.148-4.801-4.801-4.801h-11.098c-2.652,0-4.801,2.15-4.801,4.801V139.288z"/>
		
			<path fill="#B999DB" stroke="#7C41BA" stroke-width="2" stroke-linecap="round" stroke-linejoin="round" stroke-miterlimit="10" d="
			M173.584,139.292h9.66v-36.24c0-1.326-1.074-2.4-2.4-2.4h-4.859c-1.326,0-2.4,1.074-2.4,2.4V139.292z"/>
		
			<path fill="#B999DB" stroke="#7C41BA" stroke-width="2" stroke-linecap="round" stroke-linejoin="round" stroke-miterlimit="10" d="
			M168.061,139.288h20.701v-8.998c0-2.65-2.15-4.801-4.801-4.801h-11.1c-2.65,0-4.801,2.15-4.801,4.801V139.288z"/>
		
			<line fill="none" stroke="#7C41BA" stroke-width="2" stroke-linecap="round" stroke-linejoin="round" stroke-miterlimit="10" x1="190.141" y1="82.71" x2="190.141" y2="90.989"/>
		
			<line fill="none" stroke="#7C41BA" stroke-width="2" stroke-linecap="round" stroke-linejoin="round" stroke-miterlimit="10" x1="199.801" y1="82.71" x2="199.801" y2="90.989"/>
		
			<line fill="none" stroke="#7C41BA" stroke-width="2" stroke-linecap="round" stroke-linejoin="round" stroke-miterlimit="10" x1="190.141" y1="88.229" x2="199.801" y2="88.229"/>
		
			<line fill="none" stroke="#7C41BA" stroke-width="2" stroke-linecap="round" stroke-linejoin="round" stroke-miterlimit="10" x1="221.879" y1="78.569" x2="226.02" y2="78.569"/>
		<path fill="none" stroke="#7C41BA" stroke-width="2" stroke-linecap="round" stroke-linejoin="round" stroke-miterlimit="10" d="
			M122.48,44.069h6.979c1.51,0,2.738,1.211,2.761,2.719l1.341,92.5h-15.182l1.342-92.5C119.742,45.28,120.972,44.069,122.48,44.069z
			"/>
		
			<line fill="none" stroke="#7C41BA" stroke-width="2" stroke-linecap="round" stroke-linejoin="round" stroke-miterlimit="10" x1="118.379" y1="52.351" x2="133.561" y2="52.351"/>
		
			<line fill="none" stroke="#7C41BA" stroke-width="2" stroke-linecap="round" stroke-linejoin="round" stroke-miterlimit="10" x1="139.079" y1="52.351" x2="154.261" y2="52.351"/>
		<circle fill="#FFFFFF" stroke="#7C41BA" stroke-width="2" stroke-miterlimit="10" cx="169.439" cy="13.709" r="4.139"/>
		<circle fill="#FFFFFF" stroke="#7C41BA" stroke-width="2" stroke-miterlimit="10" cx="132.179" cy="27.509" r="4.14"/>
		<path fill="#FFFFFF" stroke="#7C41BA" stroke-width="2" stroke-linejoin="round" stroke-miterlimit="10" d="M163.278,22.63
			c-2.692-2.693-7.063-2.693-9.757,0c-1.705,1.705-2.324,4.076-1.873,6.275c-0.05-0.002-0.097-0.016-0.148-0.016
			c-2.286,0-4.14,1.852-4.14,4.139s1.854,4.141,4.14,4.141c2.03,0,3.711-1.463,4.065-3.389c2.541,1.146,5.627,0.695,7.713-1.391
			C165.975,29.694,165.975,25.325,163.278,22.63z"/>
	</g>
	<g>
		<g>
			<path fill="#B999DB" d="M290.688,124.193c1.051,0,1.904-0.853,1.904-1.904v-3.049c0-1.052-0.854-1.904-1.904-1.904h-3.012
				c-0.445-2.188-1.31-4.221-2.5-6.02l2.134-2.136c0.356-0.357,0.559-0.841,0.559-1.346c0-0.506-0.202-0.991-0.559-1.349
				l-2.155-2.153c-0.743-0.744-1.95-0.744-2.693,0l-2.135,2.134c-1.799-1.191-3.833-2.057-6.021-2.5v-3.012
				c0-1.053-0.853-1.904-1.903-1.904h-3.049c-1.053,0-1.906,0.852-1.906,1.904v3.012c-2.187,0.443-4.221,1.309-6.02,2.5
				l-2.134-2.134c-0.744-0.744-1.95-0.744-2.694,0l-2.153,2.153c-0.746,0.744-0.746,1.951,0,2.694l2.134,2.136
				c-1.191,1.799-2.057,3.832-2.5,6.02h-3.012c-1.053,0-1.906,0.853-1.906,1.904v3.049c0,1.052,0.854,1.904,1.906,1.904h3.012
				c0.443,2.188,1.309,4.221,2.5,6.02l-2.134,2.136c-0.357,0.356-0.56,0.841-0.56,1.346c0,0.506,0.202,0.991,0.56,1.347l2.153,2.155
				c0.744,0.744,1.95,0.744,2.694,0l2.134-2.134c1.799,1.19,3.833,2.057,6.02,2.5v3.012c0,1.053,0.854,1.904,1.906,1.904h3.049
				c1.051,0,1.903-0.852,1.903-1.904v-3.012c2.188-0.443,4.222-1.31,6.021-2.5l2.135,2.134c0.743,0.744,1.95,0.744,2.693,0
				l2.155-2.155c0.356-0.355,0.558-0.841,0.558-1.347c0-0.505-0.201-0.989-0.558-1.346l-2.134-2.136
				c1.19-1.799,2.055-3.831,2.5-6.02H290.688z M270.877,128.766c-4.418,0-8-3.582-8-8.002c0-4.418,3.582-8,8-8s8.001,3.582,8.001,8
				C278.878,125.184,275.295,128.766,270.877,128.766z"/>
			<path fill="#FFFFFF" d="M290.688,124.193c1.051,0,1.904-0.853,1.904-1.904v-3.049c0-1.052-0.854-1.904-1.904-1.904h-3.012
				c-0.445-2.188-1.31-4.221-2.5-6.02l2.134-2.136c0.356-0.357,0.559-0.841,0.559-1.346c0-0.506-0.202-0.991-0.559-1.349
				l-2.155-2.153c-0.743-0.744-1.95-0.744-2.693,0l-2.135,2.134c-1.799-1.191-3.833-2.057-6.021-2.5v-3.012
				c0-1.053-0.853-1.904-1.903-1.904h-3.049c-1.053,0-1.906,0.852-1.906,1.904v3.012c-2.187,0.443-4.221,1.309-6.02,2.5
				l-2.134-2.134c-0.744-0.744-1.95-0.744-2.694,0l-2.153,2.153c-0.746,0.744-0.746,1.951,0,2.694l2.134,2.136
				c-1.191,1.799-2.057,3.832-2.5,6.02h-3.012c-1.053,0-1.906,0.853-1.906,1.904v3.049c0,1.052,0.854,1.904,1.906,1.904h3.012
				c0.443,2.188,1.309,4.221,2.5,6.02l-2.134,2.136c-0.357,0.356-0.56,0.841-0.56,1.346c0,0.506,0.202,0.991,0.56,1.347l2.153,2.155
				c0.744,0.744,1.95,0.744,2.694,0l2.134-2.134c1.799,1.19,3.833,2.057,6.02,2.5v3.012c0,1.053,0.854,1.904,1.906,1.904h3.049
				c1.051,0,1.903-0.852,1.903-1.904v-3.012c2.188-0.443,4.222-1.31,6.021-2.5l2.135,2.134c0.743,0.744,1.95,0.744,2.693,0
				l2.155-2.155c0.356-0.355,0.558-0.841,0.558-1.347c0-0.505-0.201-0.989-0.558-1.346l-2.134-2.136
				c1.19-1.799,2.055-3.831,2.5-6.02H290.688z M270.877,133.336c-6.943,0-12.57-5.628-12.57-12.572c0-6.941,5.627-12.57,12.57-12.57
				c6.944,0,12.572,5.629,12.572,12.57C283.449,127.708,277.821,133.336,270.877,133.336z"/>
			<path fill="none" stroke="#7C41BA" stroke-width="2" stroke-linejoin="round" stroke-miterlimit="10" d="M290.688,124.193
				c1.051,0,1.904-0.853,1.904-1.904v-3.049c0-1.052-0.854-1.904-1.904-1.904h-3.012c-0.445-2.188-1.31-4.221-2.5-6.02l2.134-2.136
				c0.356-0.357,0.559-0.841,0.559-1.346c0-0.506-0.202-0.991-0.559-1.349l-2.155-2.153c-0.743-0.744-1.95-0.744-2.693,0
				l-2.135,2.134c-1.799-1.191-3.833-2.057-6.021-2.5v-3.012c0-1.053-0.853-1.904-1.903-1.904h-3.049
				c-1.053,0-1.906,0.852-1.906,1.904v3.012c-2.187,0.443-4.221,1.309-6.02,2.5l-2.134-2.134c-0.744-0.744-1.95-0.744-2.694,0
				l-2.153,2.153c-0.746,0.744-0.746,1.951,0,2.694l2.134,2.136c-1.191,1.799-2.057,3.832-2.5,6.02h-3.012
				c-1.053,0-1.906,0.853-1.906,1.904v3.049c0,1.052,0.854,1.904,1.906,1.904h3.012c0.443,2.188,1.309,4.221,2.5,6.02l-2.134,2.136
				c-0.357,0.356-0.56,0.841-0.56,1.346c0,0.506,0.202,0.991,0.56,1.347l2.153,2.155c0.744,0.744,1.95,0.744,2.694,0l2.134-2.134
				c1.799,1.19,3.833,2.057,6.02,2.5v3.012c0,1.053,0.854,1.904,1.906,1.904h3.049c1.051,0,1.903-0.852,1.903-1.904v-3.012
				c2.188-0.443,4.222-1.31,6.021-2.5l2.135,2.134c0.743,0.744,1.95,0.744,2.693,0l2.155-2.155c0.356-0.355,0.558-0.841,0.558-1.347
				c0-0.505-0.201-0.989-0.558-1.346l-2.134-2.136c1.19-1.799,2.055-3.831,2.5-6.02H290.688z M270.877,128.766
				c-4.418,0-8-3.582-8-8.002c0-4.418,3.582-8,8-8s8.001,3.582,8.001,8C278.878,125.184,275.295,128.766,270.877,128.766z"/>
		</g>
		<ellipse fill="#E3D7EF" cx="270.877" cy="193.766" rx="38.096" ry="2.857"/>
		<path fill="#FFFFFF" d="M307.722,183.621h-73.69c-1.742,0-3.154-1.412-3.154-3.154V136.49c0-1.742,1.412-3.154,3.154-3.154h73.69
			c1.744,0,3.155,1.412,3.155,3.154v43.977C310.877,182.209,309.466,183.621,307.722,183.621z"/>
		<circle fill="#B999DB" cx="242.306" cy="144.765" r="4.57"/>
		
			<circle fill="none" stroke="#7C41BA" stroke-width="2" stroke-linejoin="round" stroke-miterlimit="10" cx="242.306" cy="144.765" r="4.57"/>
		<circle fill="#B999DB" cx="242.306" cy="159.622" r="4.57"/>
		
			<circle fill="none" stroke="#7C41BA" stroke-width="2" stroke-linejoin="round" stroke-miterlimit="10" cx="242.306" cy="159.622" r="4.57"/>
		<path fill="#B999DB" stroke="#7C41BA" stroke-width="2" stroke-linejoin="round" stroke-miterlimit="10" d="M260.591,174.479
			c0,1.264-1.022,2.286-2.284,2.286c-1.264,0-2.286-1.022-2.286-2.286v-33.144c0-1.261,1.022-2.284,2.286-2.284
			c1.262,0,2.284,1.023,2.284,2.284V174.479z"/>
		<g>
			<path fill="#FFFFFF" d="M263.586,176.765h-10.561c-0.871,0-1.577-0.705-1.577-1.577v-3.702c0-0.872,0.706-1.577,1.577-1.577
				h10.561c0.87,0,1.577,0.705,1.577,1.577v3.702C265.163,176.06,264.456,176.765,263.586,176.765z"/>
			<path fill="none" stroke="#7C41BA" stroke-width="2" stroke-linejoin="round" stroke-miterlimit="10" d="M263.586,176.765
				h-10.561c-0.871,0-1.577-0.705-1.577-1.577v-3.702c0-0.872,0.706-1.577,1.577-1.577h10.561c0.87,0,1.577,0.705,1.577,1.577v3.702
				C265.163,176.06,264.456,176.765,263.586,176.765z"/>
		</g>
		<path fill="#B999DB" stroke="#7C41BA" stroke-width="2" stroke-linejoin="round" stroke-miterlimit="10" d="M281.163,174.479
			c0,1.264-1.023,2.286-2.285,2.286c-1.263,0-2.286-1.022-2.286-2.286v-33.144c0-1.261,1.023-2.284,2.286-2.284
			c1.262,0,2.285,1.023,2.285,2.284V174.479z"/>
		<path fill="#B999DB" stroke="#7C41BA" stroke-width="2" stroke-linejoin="round" stroke-miterlimit="10" d="M301.734,174.479
			c0,1.264-1.023,2.286-2.285,2.286c-1.263,0-2.285-1.022-2.285-2.286v-33.144c0-1.261,1.022-2.284,2.285-2.284
			c1.262,0,2.285,1.023,2.285,2.284V174.479z"/>
		<g>
			<path fill="#FFFFFF" d="M284.157,152.764h-10.56c-0.872,0-1.578-0.705-1.578-1.577v-3.701c0-0.872,0.706-1.578,1.578-1.578h10.56
				c0.87,0,1.577,0.706,1.577,1.578v3.701C285.734,152.059,285.027,152.764,284.157,152.764z"/>
			<path fill="none" stroke="#7C41BA" stroke-width="2" stroke-linejoin="round" stroke-miterlimit="10" d="M284.157,152.764h-10.56
				c-0.872,0-1.578-0.705-1.578-1.577v-3.701c0-0.872,0.706-1.578,1.578-1.578h10.56c0.87,0,1.577,0.706,1.577,1.578v3.701
				C285.734,152.059,285.027,152.764,284.157,152.764z"/>
		</g>
		<g>
			<path fill="#FFFFFF" d="M304.729,164.193h-10.56c-0.872,0-1.577-0.706-1.577-1.578v-3.701c0-0.872,0.705-1.578,1.577-1.578h10.56
				c0.871,0,1.578,0.706,1.578,1.578v3.701C306.307,163.487,305.6,164.193,304.729,164.193z"/>
			<path fill="none" stroke="#7C41BA" stroke-width="2" stroke-linejoin="round" stroke-miterlimit="10" d="M304.729,164.193h-10.56
				c-0.872,0-1.577-0.706-1.577-1.578v-3.701c0-0.872,0.705-1.578,1.577-1.578h10.56c0.871,0,1.578,0.706,1.578,1.578v3.701
				C306.307,163.487,305.6,164.193,304.729,164.193z"/>
		</g>
		<path fill="none" stroke="#7C41BA" stroke-width="2" stroke-linecap="round" stroke-linejoin="round" stroke-miterlimit="10" d="
			M307.722,183.621h-73.69c-1.742,0-3.154-1.412-3.154-3.154V136.49c0-1.742,1.412-3.154,3.154-3.154h73.69
			c1.744,0,3.155,1.412,3.155,3.154v43.977C310.877,182.209,309.466,183.621,307.722,183.621z"/>
	</g>
	<g>
		<g>
			<path fill-rule="evenodd" clip-rule="evenodd" fill="#FFFFFF" d="M139.153,218c6.249,0,11.321,5.073,11.321,11.321
				c0,6.249-5.072,11.321-11.321,11.321s-11.322-5.072-11.322-11.321C127.831,223.073,132.904,218,139.153,218z"/>
			<path fill="none" stroke="#7C41BA" stroke-width="2" stroke-linecap="round" stroke-linejoin="round" stroke-miterlimit="10" d="
				M139.153,218c6.249,0,11.321,5.073,11.321,11.321c0,6.249-5.072,11.321-11.321,11.321s-11.322-5.072-11.322-11.321
				C127.831,223.073,132.904,218,139.153,218z"/>
			
				<line fill="none" stroke="#7C41BA" stroke-width="2" stroke-linecap="round" stroke-linejoin="round" stroke-miterlimit="10" x1="139.153" y1="240.643" x2="139.153" y2="499.422"/>
			
				<polyline fill="none" stroke="#7C41BA" stroke-width="2" stroke-linecap="round" stroke-linejoin="round" stroke-miterlimit="10" points="
				126.001,486.27 139.153,499.422 152.73,485.844 			"/>
		</g>
		<g>
			<path fill-rule="evenodd" clip-rule="evenodd" fill="#FFFFFF" d="M300.379,218.414c6.248,0,11.321,5.073,11.321,11.321
				c0,6.249-5.073,11.321-11.321,11.321c-6.249,0-11.322-5.072-11.322-11.321C289.057,223.487,294.13,218.414,300.379,218.414z"/>
			<path fill="none" stroke="#7C41BA" stroke-width="2" stroke-linecap="round" stroke-linejoin="round" stroke-miterlimit="10" d="
				M300.379,218.414c6.248,0,11.321,5.073,11.321,11.321c0,6.249-5.073,11.321-11.321,11.321c-6.249,0-11.322-5.072-11.322-11.321
				C289.057,223.487,294.13,218.414,300.379,218.414z"/>
			
				<line fill="none" stroke="#7C41BA" stroke-width="2" stroke-linecap="round" stroke-linejoin="round" stroke-miterlimit="10" x1="300.379" y1="241.057" x2="300.379" y2="507.923"/>
			
				<polyline fill="none" stroke="#7C41BA" stroke-width="2" stroke-linecap="round" stroke-linejoin="round" stroke-miterlimit="10" points="
				287.227,494.771 300.379,507.923 313.957,494.345 			"/>
		</g>
		<g>
			<path fill-rule="evenodd" clip-rule="evenodd" fill="#FFFFFF" d="M213.089,206c6.248,0,11.321,5.073,11.321,11.322
				c0,6.248-5.073,11.32-11.321,11.32c-6.249,0-11.321-5.072-11.321-11.32C201.768,211.073,206.84,206,213.089,206z"/>
			<path fill="none" stroke="#7C41BA" stroke-width="2" stroke-linecap="round" stroke-linejoin="round" stroke-miterlimit="10" d="
				M213.089,206c6.248,0,11.321,5.073,11.321,11.322c0,6.248-5.073,11.32-11.321,11.32c-6.249,0-11.321-5.072-11.321-11.32
				C201.768,211.073,206.84,206,213.089,206z"/>
			
				<line fill="none" stroke="#7C41BA" stroke-width="2" stroke-linecap="round" stroke-linejoin="round" stroke-miterlimit="10" x1="213.089" y1="228.643" x2="213.089" y2="319.705"/>
			
				<polyline fill="none" stroke="#7C41BA" stroke-width="2" stroke-linecap="round" stroke-linejoin="round" stroke-miterlimit="10" points="
				199.938,306.553 213.089,319.705 226.667,306.127 			"/>
		</g>
		<g>
			<path fill-rule="evenodd" clip-rule="evenodd" fill="#FFFFFF" d="M393.64,206c6.249,0,11.322,5.073,11.322,11.322
				c0,6.248-5.073,11.32-11.322,11.32c-6.248,0-11.321-5.072-11.321-11.32C382.318,211.073,387.392,206,393.64,206z"/>
			<path fill="none" stroke="#7C41BA" stroke-width="2" stroke-linecap="round" stroke-linejoin="round" stroke-miterlimit="10" d="
				M393.64,206c6.249,0,11.322,5.073,11.322,11.322c0,6.248-5.073,11.32-11.322,11.32c-6.248,0-11.321-5.072-11.321-11.32
				C382.318,211.073,387.392,206,393.64,206z"/>
			
				<line fill="none" stroke="#7C41BA" stroke-width="2" stroke-linecap="round" stroke-linejoin="round" stroke-miterlimit="10" x1="393.64" y1="228.643" x2="393.64" y2="319.705"/>
			
				<polyline fill="none" stroke="#7C41BA" stroke-width="2" stroke-linecap="round" stroke-linejoin="round" stroke-miterlimit="10" points="
				380.488,306.553 393.64,319.705 407.219,306.127 			"/>
		</g>
		<g>
			<path fill-rule="evenodd" clip-rule="evenodd" fill="#FFFFFF" d="M58.154,206c6.248,0,11.321,5.073,11.321,11.322
				c0,6.248-5.073,11.32-11.321,11.32s-11.322-5.072-11.322-11.32C46.832,211.073,51.906,206,58.154,206z"/>
			<path fill="none" stroke="#7C41BA" stroke-width="2" stroke-linecap="round" stroke-linejoin="round" stroke-miterlimit="10" d="
				M58.154,206c6.248,0,11.321,5.073,11.321,11.322c0,6.248-5.073,11.32-11.321,11.32s-11.322-5.072-11.322-11.32
				C46.832,211.073,51.906,206,58.154,206z"/>
			
				<line fill="none" stroke="#7C41BA" stroke-width="2" stroke-linecap="round" stroke-linejoin="round" stroke-miterlimit="10" x1="58.154" y1="228.643" x2="58.154" y2="319.705"/>
			
				<polyline fill="none" stroke="#7C41BA" stroke-width="2" stroke-linecap="round" stroke-linejoin="round" stroke-miterlimit="10" points="
				45.002,306.553 58.154,319.705 71.732,306.127 			"/>
		</g>
	</g>
	<g>
		<g>
			<g>
				<path fill="#E3D7EF" d="M98.002,377c0-22.091-17.908-40-40-40s-40,17.909-40,40c0,5.886,1.281,11.468,3.564,16.5h72.871
					C96.721,388.468,98.002,382.886,98.002,377z"/>
			</g>
			<g>
				
					<line fill="none" stroke="#7C41BA" stroke-linecap="round" stroke-linejoin="round" stroke-miterlimit="10" x1="18.502" y1="393.5" x2="96.502" y2="393.5"/>
				
					<line fill="none" stroke="#7C41BA" stroke-linecap="round" stroke-linejoin="round" stroke-miterlimit="10" x1="14.002" y1="393.5" x2="16.502" y2="393.5"/>
				
					<line fill="none" stroke="#7C41BA" stroke-linecap="round" stroke-linejoin="round" stroke-miterlimit="10" x1="98.502" y1="393.5" x2="101.002" y2="393.5"/>
			</g>
		</g>
		<g>
			<path fill="#B999DB" d="M75.85,396.864h-41.1c-1.988,0-3.6-1.611-3.6-3.6v-27.3c0-1.988,1.611-3.601,3.6-3.601h41.1
				c1.988,0,3.601,1.612,3.601,3.601v27.3C79.45,395.253,77.838,396.864,75.85,396.864z"/>
			<path fill="#FFFFFF" d="M60.361,362.364H35.29c-2.286,0-4.14,1.854-4.14,4.141v25.07L60.361,362.364z"/>
			<path fill="none" stroke="#7C41BA" stroke-linecap="round" stroke-linejoin="round" stroke-miterlimit="10" d="M75.85,396.864
				h-41.1c-1.988,0-3.6-1.611-3.6-3.6v-27.3c0-1.988,1.611-3.601,3.6-3.601h41.1c1.988,0,3.601,1.612,3.601,3.601v27.3
				C79.45,395.253,77.838,396.864,75.85,396.864z"/>
			<path fill="#FFFFFF" stroke="#7C41BA" stroke-linecap="round" stroke-linejoin="round" stroke-miterlimit="10" d="
				M75.311,396.864c2.286,0,4.14-1.854,4.14-4.139v-1.381h-48.3v1.381c0,2.285,1.854,4.139,4.14,4.139H75.311z"/>
			<polygon fill="#FFFFFF" points="59.439,402.386 51.16,402.386 51.85,396.864 58.75,396.864 			"/>
			<polygon fill="none" stroke="#7C41BA" stroke-linecap="round" stroke-linejoin="round" stroke-miterlimit="10" points="
				59.439,402.386 51.16,402.386 51.85,396.864 58.75,396.864 			"/>
			<path fill="#FFFFFF" stroke="#7C41BA" stroke-linecap="round" stroke-linejoin="round" stroke-miterlimit="10" d="M64.27,405.146
				H46.33c0-1.525,1.235-2.76,2.76-2.76h12.42C63.034,402.386,64.27,403.62,64.27,405.146z"/>
			<path fill="#FFFFFF" stroke="#7C41BA" stroke-linecap="round" stroke-linejoin="round" stroke-miterlimit="10" d="
				M79.811,383.755H44.59c-1.32,0-2.4-1.08-2.4-2.4v-23.819H82.21v23.819C82.21,382.675,81.13,383.755,79.811,383.755z"/>
			<path fill="#FFFFFF" stroke="#7C41BA" stroke-linecap="round" stroke-linejoin="round" stroke-miterlimit="10" d="M82.21,357.535
				H42.189v-5.88c0-1.32,1.08-2.4,2.4-2.4h35.221c1.319,0,2.399,1.08,2.399,2.4V357.535z"/>
			
				<circle fill="#B999DB" stroke="#7C41BA" stroke-linecap="round" stroke-linejoin="round" stroke-miterlimit="10" cx="46.33" cy="353.396" r="1.38"/>
			
				<circle fill="#B999DB" stroke="#7C41BA" stroke-linecap="round" stroke-linejoin="round" stroke-miterlimit="10" cx="51.851" cy="353.396" r="1.38"/>
			
				<circle fill="#B999DB" stroke="#7C41BA" stroke-linecap="round" stroke-linejoin="round" stroke-miterlimit="10" cx="57.37" cy="353.396" r="1.38"/>
			<path fill="#B999DB" stroke="#7C41BA" stroke-linecap="round" stroke-linejoin="round" stroke-miterlimit="10" d="M59.13,371.335
				h-3.521c-0.552,0-1-0.447-1-1v-3.52c0-0.553,0.448-1,1-1h3.521c0.553,0,1,0.447,1,1v3.52
				C60.13,370.888,59.683,371.335,59.13,371.335z"/>
			<path fill="#B999DB" stroke="#7C41BA" stroke-linecap="round" stroke-linejoin="round" stroke-miterlimit="10" d="M68.1,371.335
				h-3.52c-0.553,0-1-0.447-1-1v-3.52c0-0.553,0.447-1,1-1h3.52c0.553,0,1,0.447,1,1v3.52C69.1,370.888,68.652,371.335,68.1,371.335
				z"/>
			<path fill="#B999DB" stroke="#7C41BA" stroke-linecap="round" stroke-linejoin="round" stroke-miterlimit="10" d="M77.07,371.335
				H73.55c-0.552,0-1-0.447-1-1v-3.52c0-0.553,0.448-1,1-1h3.521c0.553,0,1,0.447,1,1v3.52
				C78.07,370.888,77.623,371.335,77.07,371.335z"/>
			<path fill="#B999DB" stroke="#7C41BA" stroke-linecap="round" stroke-linejoin="round" stroke-miterlimit="10" d="M59.13,379.614
				h-3.521c-0.552,0-1-0.447-1-1v-3.52c0-0.552,0.448-1,1-1h3.521c0.553,0,1,0.448,1,1v3.52
				C60.13,379.167,59.683,379.614,59.13,379.614z"/>
			<path fill="#B999DB" stroke="#7C41BA" stroke-linecap="round" stroke-linejoin="round" stroke-miterlimit="10" d="M68.1,379.614
				h-3.52c-0.553,0-1-0.447-1-1v-3.52c0-0.552,0.447-1,1-1h3.52c0.553,0,1,0.448,1,1v3.52C69.1,379.167,68.652,379.614,68.1,379.614
				z"/>
			<path fill="#B999DB" stroke="#7C41BA" stroke-linecap="round" stroke-linejoin="round" stroke-miterlimit="10" d="M77.07,379.614
				H73.55c-0.552,0-1-0.447-1-1v-3.52c0-0.552,0.448-1,1-1h3.521c0.553,0,1,0.448,1,1v3.52
				C78.07,379.167,77.623,379.614,77.07,379.614z"/>
			<path fill="#B999DB" stroke="#7C41BA" stroke-linecap="round" stroke-linejoin="round" stroke-miterlimit="10" d="M50.85,363.055
				h-3.52c-0.553,0-1-0.447-1-1v-0.76c0-0.552,0.447-1,1-1h3.52c0.553,0,1,0.448,1,1v0.76
				C51.85,362.607,51.402,363.055,50.85,363.055z"/>
			<path fill="#B999DB" stroke="#7C41BA" stroke-linejoin="round" stroke-miterlimit="10" d="M77.07,363.055H55.609
				c-0.552,0-1-0.447-1-1v-0.76c0-0.552,0.448-1,1-1H77.07c0.553,0,1,0.448,1,1v0.76C78.07,362.607,77.623,363.055,77.07,363.055z"
				/>
			
				<line fill="none" stroke="#7C41BA" stroke-linecap="round" stroke-linejoin="round" stroke-miterlimit="10" x1="46.33" y1="365.815" x2="51.85" y2="365.815"/>
			
				<line fill="none" stroke="#7C41BA" stroke-linecap="round" stroke-linejoin="round" stroke-miterlimit="10" x1="46.33" y1="368.575" x2="51.85" y2="368.575"/>
			
				<line fill="none" stroke="#7C41BA" stroke-linecap="round" stroke-linejoin="round" stroke-miterlimit="10" x1="46.33" y1="371.335" x2="51.85" y2="371.335"/>
			
				<line fill="none" stroke="#7C41BA" stroke-linecap="round" stroke-linejoin="round" stroke-miterlimit="10" x1="46.33" y1="374.095" x2="51.85" y2="374.095"/>
			
				<line fill="none" stroke="#7C41BA" stroke-linecap="round" stroke-linejoin="round" stroke-miterlimit="10" x1="46.33" y1="376.854" x2="51.85" y2="376.854"/>
			
				<line fill="none" stroke="#7C41BA" stroke-linecap="round" stroke-linejoin="round" stroke-miterlimit="10" x1="46.33" y1="379.614" x2="49.78" y2="379.614"/>
			
				<circle fill="none" stroke="#7C41BA" stroke-linecap="round" stroke-linejoin="round" stroke-miterlimit="10" cx="55.3" cy="394.104" r="0.575"/>
		</g>
	</g>
	<g>
		<g>
			<path fill="#E3D7EF" d="M433.997,379c0-22.091-17.908-40-40-40s-40,17.909-40,40c0,5.886,1.281,11.468,3.564,16.5h72.871
				C432.716,390.468,433.997,384.886,433.997,379z"/>
		</g>
		<g>
			
				<line fill="none" stroke="#7C41BA" stroke-linecap="round" stroke-linejoin="round" stroke-miterlimit="10" x1="354.497" y1="395.5" x2="432.497" y2="395.5"/>
			
				<line fill="none" stroke="#7C41BA" stroke-linecap="round" stroke-linejoin="round" stroke-miterlimit="10" x1="349.997" y1="395.5" x2="352.497" y2="395.5"/>
			
				<line fill="none" stroke="#7C41BA" stroke-linecap="round" stroke-linejoin="round" stroke-miterlimit="10" x1="434.497" y1="395.5" x2="436.997" y2="395.5"/>
		</g>
	</g>
	<g>
		<path fill="#B999DB" d="M411.845,398.864h-41.1c-1.988,0-3.6-1.611-3.6-3.6v-27.3c0-1.988,1.611-3.601,3.6-3.601h41.1
			c1.988,0,3.601,1.612,3.601,3.601v27.3C415.445,397.253,413.833,398.864,411.845,398.864z"/>
		<path fill="#FFFFFF" d="M396.356,364.364h-25.071c-2.286,0-4.14,1.854-4.14,4.141v25.07L396.356,364.364z"/>
		<path fill="none" stroke="#7C41BA" stroke-linecap="round" stroke-linejoin="round" stroke-miterlimit="10" d="M411.845,398.864
			h-41.1c-1.988,0-3.6-1.611-3.6-3.6v-27.3c0-1.988,1.611-3.601,3.6-3.601h41.1c1.988,0,3.601,1.612,3.601,3.601v27.3
			C415.445,397.253,413.833,398.864,411.845,398.864z"/>
		<path fill="#FFFFFF" stroke="#7C41BA" stroke-linecap="round" stroke-linejoin="round" stroke-miterlimit="10" d="
			M411.306,398.864c2.286,0,4.14-1.854,4.14-4.139v-1.381h-48.3v1.381c0,2.285,1.854,4.139,4.14,4.139H411.306z"/>
		<polygon fill="#FFFFFF" points="395.435,404.386 387.155,404.386 387.845,398.864 394.745,398.864 		"/>
		<polygon fill="none" stroke="#7C41BA" stroke-linecap="round" stroke-linejoin="round" stroke-miterlimit="10" points="
			395.435,404.386 387.155,404.386 387.845,398.864 394.745,398.864 		"/>
		<path fill="#FFFFFF" stroke="#7C41BA" stroke-linecap="round" stroke-linejoin="round" stroke-miterlimit="10" d="
			M400.265,407.146h-17.939c0-1.525,1.235-2.76,2.76-2.76h12.42C399.029,404.386,400.265,405.62,400.265,407.146z"/>
		<path fill="#FFFFFF" stroke="#7C41BA" stroke-linecap="round" stroke-linejoin="round" stroke-miterlimit="10" d="
			M415.806,385.755h-35.221c-1.32,0-2.4-1.08-2.4-2.4v-23.819h40.021v23.819C418.205,384.675,417.125,385.755,415.806,385.755z"/>
		<path fill="#FFFFFF" stroke="#7C41BA" stroke-linecap="round" stroke-linejoin="round" stroke-miterlimit="10" d="
			M418.205,359.535h-40.021v-5.88c0-1.32,1.08-2.4,2.4-2.4h35.221c1.319,0,2.399,1.08,2.399,2.4V359.535z"/>
		
			<circle fill="#B999DB" stroke="#7C41BA" stroke-linecap="round" stroke-linejoin="round" stroke-miterlimit="10" cx="382.325" cy="355.396" r="1.38"/>
		
			<circle fill="#B999DB" stroke="#7C41BA" stroke-linecap="round" stroke-linejoin="round" stroke-miterlimit="10" cx="387.846" cy="355.396" r="1.38"/>
		
			<circle fill="#B999DB" stroke="#7C41BA" stroke-linecap="round" stroke-linejoin="round" stroke-miterlimit="10" cx="393.365" cy="355.396" r="1.38"/>
		<path fill="#B999DB" stroke="#7C41BA" stroke-linecap="round" stroke-linejoin="round" stroke-miterlimit="10" d="
			M386.845,365.055h-3.52c-0.553,0-1-0.447-1-1v-0.76c0-0.552,0.447-1,1-1h3.52c0.553,0,1,0.448,1,1v0.76
			C387.845,364.607,387.397,365.055,386.845,365.055z"/>
		<path fill="#B999DB" stroke="#7C41BA" stroke-linejoin="round" stroke-miterlimit="10" d="M413.065,365.055h-21.461
			c-0.552,0-1-0.447-1-1v-0.76c0-0.552,0.448-1,1-1h21.461c0.553,0,1,0.448,1,1v0.76
			C414.065,364.607,413.618,365.055,413.065,365.055z"/>
		
			<line fill="none" stroke="#7C41BA" stroke-linecap="round" stroke-linejoin="round" stroke-miterlimit="10" x1="382.325" y1="367.815" x2="412.325" y2="367.815"/>
		
			<line fill="none" stroke="#7C41BA" stroke-linecap="round" stroke-linejoin="round" stroke-miterlimit="10" x1="382.325" y1="370.575" x2="412.325" y2="370.575"/>
		
			<line fill="none" stroke="#7C41BA" stroke-linecap="round" stroke-linejoin="round" stroke-miterlimit="10" x1="382.325" y1="373.335" x2="412.325" y2="373.335"/>
		
			<line fill="none" stroke="#7C41BA" stroke-linecap="round" stroke-linejoin="round" stroke-miterlimit="10" x1="382.325" y1="376.095" x2="412.325" y2="376.095"/>
		
			<line fill="none" stroke="#7C41BA" stroke-linecap="round" stroke-linejoin="round" stroke-miterlimit="10" x1="382.325" y1="378.854" x2="412.325" y2="378.854"/>
		
			<line fill="none" stroke="#7C41BA" stroke-linecap="round" stroke-linejoin="round" stroke-miterlimit="10" x1="382.325" y1="381.614" x2="401.078" y2="381.614"/>
		
			<circle fill="none" stroke="#7C41BA" stroke-linecap="round" stroke-linejoin="round" stroke-miterlimit="10" cx="391.295" cy="396.104" r="0.575"/>
	</g>
	<g>
		<g>
			<g>
				<path fill="#E3D7EF" d="M254,379c0-22.092-17.908-40-40-40s-40,17.908-40,40c0,5.885,1.281,11.468,3.564,16.5h72.871
					C252.719,390.468,254,384.885,254,379z"/>
			</g>
			<g>
				
					<line fill="none" stroke="#7C41BA" stroke-linecap="round" stroke-linejoin="round" stroke-miterlimit="10" x1="174.5" y1="395.5" x2="252.5" y2="395.5"/>
				
					<line fill="none" stroke="#7C41BA" stroke-linecap="round" stroke-linejoin="round" stroke-miterlimit="10" x1="170" y1="395.5" x2="172.5" y2="395.5"/>
				
					<line fill="none" stroke="#7C41BA" stroke-linecap="round" stroke-linejoin="round" stroke-miterlimit="10" x1="254.5" y1="395.5" x2="257" y2="395.5"/>
			</g>
		</g>
		<g>
			<rect x="218.536" y="387.506" fill="#FFFFFF" width="7.935" height="4.762"/>
			
				<rect x="218.536" y="387.506" fill="none" stroke="#7C41BA" stroke-linecap="round" stroke-linejoin="round" stroke-miterlimit="10" width="7.935" height="4.762"/>
			<path fill="#FFFFFF" stroke="#7C41BA" stroke-linecap="round" stroke-linejoin="round" stroke-miterlimit="10" d="
				M232.818,395.441h-20.631c0-1.753,1.422-3.174,3.174-3.174h14.283C231.398,392.268,232.818,393.688,232.818,395.441z"/>
			<path fill="#B999DB" d="M243.135,351.006h-41.262c-2.191,0-3.969,1.775-3.969,3.967v26.186h49.197v-26.186
				C247.102,352.781,245.326,351.006,243.135,351.006z"/>
			<path fill="#FFFFFF" d="M228.466,351.006h-26.593c-2.191,0-3.969,1.775-3.969,3.967v26.594L228.466,351.006z"/>
			<g>
				<path fill="none" stroke="#7C41BA" stroke-linecap="round" stroke-linejoin="round" stroke-miterlimit="10" d="M243.135,351.006
					h-41.262c-2.191,0-3.969,1.775-3.969,3.967v26.186h49.197v-26.186C247.102,352.781,245.326,351.006,243.135,351.006z"/>
			</g>
			<path fill="#FFFFFF" stroke="#7C41BA" stroke-linecap="round" stroke-linejoin="round" stroke-miterlimit="10" d="
				M243.135,387.506c2.191,0,3.967-1.775,3.967-3.967v-2.381h-49.197v2.381c0,2.191,1.777,3.967,3.969,3.967H243.135z"/>
			<ellipse fill="#E3D7EF" cx="200.23" cy="399.386" rx="12.696" ry="1.587"/>
			<path fill="#FFFFFF" stroke="#7C41BA" stroke-linecap="round" stroke-linejoin="round" stroke-miterlimit="10" d="
				M210.469,397.799h-20.217c-0.553,0-1-0.447-1-1V371.82c0-0.553,0.447-1,1-1h20.217c0.553,0,1,0.447,1,1v24.979
				C211.469,397.352,211.021,397.799,210.469,397.799z"/>
			<path fill="#B999DB" d="M207.295,393.038h-13.869c-0.553,0-1-0.448-1-1v-17.044c0-0.553,0.447-1,1-1h13.869c0.553,0,1,0.447,1,1
				v17.044C208.295,392.59,207.848,393.038,207.295,393.038z"/>
			<path fill="#FFFFFF" d="M192.426,387.016l13.021-13.021h-11.699c-0.73,0-1.322,0.592-1.322,1.322V387.016z"/>
			<path fill="none" stroke="#7C41BA" stroke-linecap="round" stroke-linejoin="round" stroke-miterlimit="10" d="M207.295,393.038
				h-13.869c-0.553,0-1-0.448-1-1v-17.044c0-0.553,0.447-1,1-1h13.869c0.553,0,1,0.447,1,1v17.044
				C208.295,392.59,207.848,393.038,207.295,393.038z"/>
			<g>
				<ellipse fill="#E3D7EF" cx="189.97" cy="404.94" rx="9.522" ry="1.587"/>
				<path fill="#FFFFFF" stroke="#7C41BA" stroke-linecap="round" stroke-linejoin="round" stroke-miterlimit="10" d="
					M194.524,404.146h-9.108c-0.553,0-1-0.447-1-1v-17.043c0-0.553,0.447-1,1-1h9.108c0.552,0,1,0.447,1,1v17.043
					C195.524,403.699,195.076,404.146,194.524,404.146z"/>
				<rect x="184.416" y="388.277" fill="#B999DB" width="11.108" height="12.695"/>
				<polygon fill="#FFFFFF" points="184.416,398.592 194.73,388.277 184.416,388.277 				"/>
				
					<rect x="184.416" y="388.277" fill="none" stroke="#7C41BA" stroke-linecap="round" stroke-linejoin="round" stroke-miterlimit="10" width="11.108" height="12.695"/>
			</g>
			<path fill="#B999DB" stroke="#7C41BA" stroke-linecap="round" stroke-linejoin="round" stroke-miterlimit="10" d="
				M242.988,388.877c0.158,0.407,0.106,0.866-0.141,1.227c-0.246,0.361-0.654,0.576-1.092,0.576h-6.606
				c-0.481,0-0.927-0.262-1.159-0.684c-0.766-1.391-1.172-2.957-1.172-4.553v-4.285h9.522v4.285
				C242.341,386.624,242.563,387.788,242.988,388.877z"/>
			<circle fill="none" stroke="#7C41BA" stroke-miterlimit="10" cx="222.503" cy="384.332" r="0.661"/>
		</g>
	</g>
	<g>
		<g>
			<g>
				<path fill="#E3D7EF" d="M339.998,557c0-22.091-17.908-40-40-40c-22.091,0-39.999,17.909-39.999,40
					c0,5.886,1.281,11.468,3.564,16.5h72.87C338.717,568.468,339.998,562.886,339.998,557z"/>
			</g>
			<g>
				
					<line fill="none" stroke="#7C41BA" stroke-linecap="round" stroke-linejoin="round" stroke-miterlimit="10" x1="260.499" y1="573.5" x2="338.498" y2="573.5"/>
				
					<line fill="none" stroke="#7C41BA" stroke-linecap="round" stroke-linejoin="round" stroke-miterlimit="10" x1="255.999" y1="573.5" x2="258.499" y2="573.5"/>
				
					<line fill="none" stroke="#7C41BA" stroke-linecap="round" stroke-linejoin="round" stroke-miterlimit="10" x1="340.498" y1="573.5" x2="342.998" y2="573.5"/>
			</g>
		</g>
		<g>
			<g>
				<g>
					<rect x="295.276" y="577.914" fill="#FFFFFF" width="7.699" height="4.4"/>
					<path fill="#FFFFFF" stroke="#7C41BA" stroke-linecap="round" stroke-linejoin="round" stroke-miterlimit="10" d="
						M308.476,585.614c0-1.822-1.477-3.3-3.3-3.3h-12.1c-1.822,0-3.299,1.478-3.299,3.3H308.476z"/>
					
						<rect x="295.276" y="577.914" fill="none" stroke="#7C41BA" stroke-linecap="round" stroke-linejoin="round" stroke-miterlimit="10" width="7.699" height="4.4"/>
					<path fill="#FFFFFF" stroke="#7C41BA" stroke-linecap="round" stroke-linejoin="round" stroke-miterlimit="10" d="
						M319.476,577.914h-40.698c-1.823,0-3.301-1.478-3.301-3.3v-2.2h47.3v2.2C322.776,576.437,321.299,577.914,319.476,577.914z"/>
					<circle fill="none" stroke="#7C41BA" stroke-miterlimit="10" cx="299.126" cy="575.164" r="0.55"/>
					<path fill="#B999DB" d="M279.877,543.814h38.499c2.43,0,4.4,1.97,4.4,4.399v24.2h-47.3v-24.2
						C275.477,545.784,277.447,543.814,279.877,543.814z"/>
					<path fill="none" stroke="#7C41BA" stroke-linecap="round" stroke-linejoin="round" stroke-miterlimit="10" d="
						M279.877,543.814h38.499c2.43,0,4.4,1.97,4.4,4.399v24.2h-47.3v-24.2C275.477,545.784,277.447,543.814,279.877,543.814z"/>
				</g>
				<g>
					
						<line fill="none" stroke="#7C41BA" stroke-linecap="round" stroke-linejoin="round" stroke-miterlimit="10" x1="279.877" y1="546.015" x2="279.877" y2="554.814"/>
					
						<line fill="none" stroke="#7C41BA" stroke-linecap="round" stroke-linejoin="round" stroke-miterlimit="10" x1="279.877" y1="557.015" x2="279.877" y2="570.214"/>
					<path fill="#FFFFFF" stroke="#7C41BA" stroke-linecap="round" stroke-linejoin="round" stroke-miterlimit="10" d="
						M307.376,549.314c0.607,0,1.1-0.493,1.1-1.101s-0.492-1.1-1.1-1.1h-24.2c-0.607,0-1.1,0.492-1.1,1.1s0.492,1.101,1.1,1.101
						H307.376z"/>
					<path fill="#FFFFFF" stroke="#7C41BA" stroke-linecap="round" stroke-linejoin="round" stroke-miterlimit="10" d="
						M298.576,560.314c0.607,0,1.1-0.493,1.1-1.101s-0.492-1.1-1.1-1.1h-15.4c-0.607,0-1.1,0.492-1.1,1.1s0.492,1.101,1.1,1.101
						H298.576z"/>
					<path fill="#FFFFFF" stroke="#7C41BA" stroke-linecap="round" stroke-linejoin="round" stroke-miterlimit="10" d="
						M293.076,569.114c0.607,0,1.1-0.492,1.1-1.1s-0.492-1.101-1.1-1.101h-9.9c-0.607,0-1.1,0.493-1.1,1.101s0.492,1.1,1.1,1.1
						H293.076z"/>
					<path fill="#FFFFFF" stroke="#7C41BA" stroke-linecap="round" stroke-linejoin="round" stroke-miterlimit="10" d="
						M302.976,564.714c0.607,0,1.101-0.492,1.101-1.1s-0.493-1.1-1.101-1.1h-19.8c-0.607,0-1.1,0.492-1.1,1.1s0.492,1.1,1.1,1.1
						H302.976z"/>
					<path fill="#FFFFFF" stroke="#7C41BA" stroke-linecap="round" stroke-linejoin="round" stroke-miterlimit="10" d="
						M288.676,553.714c0.607,0,1.102-0.492,1.102-1.1s-0.494-1.1-1.102-1.1h-5.5c-0.607,0-1.1,0.492-1.1,1.1s0.492,1.1,1.1,1.1
						H288.676z"/>
					<path fill="#FFFFFF" stroke="#7C41BA" stroke-linecap="round" stroke-linejoin="round" stroke-miterlimit="10" d="
						M302.976,553.714c0.607,0,1.101-0.492,1.101-1.1s-0.493-1.1-1.101-1.1h-9.899c-0.607,0-1.1,0.492-1.1,1.1s0.492,1.1,1.1,1.1
						H302.976z"/>
				</g>
			</g>
			<path fill="#E3D7EF" d="M301.16,587.33c-13.061,0-23.649,0.739-23.649,1.65c0,0.321,1.335,0.62,3.607,0.872
				c-2.851,0.301-4.707,0.783-4.707,1.328c0,0.911,5.171,1.649,11.55,1.649c6.378,0,11.549-0.738,11.549-1.649
				c0-0.196-0.252-0.384-0.692-0.559c0.771,0.005,1.552,0.008,2.343,0.008c13.062,0,23.649-0.738,23.649-1.649
				S314.222,587.33,301.16,587.33z"/>
		</g>
	</g>
	<g>
		<g>
			<g>
				<path fill="#E3D7EF" d="M179.127,557.425c0-22.091-17.908-40-40-40s-40,17.909-40,40c0,5.886,1.281,11.468,3.564,16.5h72.871
					C177.846,568.893,179.127,563.311,179.127,557.425z"/>
			</g>
			<g>
				
					<line fill="none" stroke="#7C41BA" stroke-linecap="round" stroke-linejoin="round" stroke-miterlimit="10" x1="99.627" y1="573.925" x2="177.627" y2="573.925"/>
				
					<line fill="none" stroke="#7C41BA" stroke-linecap="round" stroke-linejoin="round" stroke-miterlimit="10" x1="95.127" y1="573.925" x2="97.627" y2="573.925"/>
				
					<line fill="none" stroke="#7C41BA" stroke-linecap="round" stroke-linejoin="round" stroke-miterlimit="10" x1="179.627" y1="573.925" x2="182.127" y2="573.925"/>
			</g>
		</g>
		<g>
			<path fill="#B999DB" d="M156.975,577.289h-41.1c-1.988,0-3.6-1.611-3.6-3.6v-27.3c0-1.988,1.611-3.601,3.6-3.601h41.1
				c1.988,0,3.601,1.612,3.601,3.601v27.3C160.575,575.678,158.963,577.289,156.975,577.289z"/>
			<path fill="#FFFFFF" d="M141.486,542.789h-25.071c-2.286,0-4.14,1.854-4.14,4.141V572L141.486,542.789z"/>
			<path fill="none" stroke="#7C41BA" stroke-linecap="round" stroke-linejoin="round" stroke-miterlimit="10" d="M156.975,577.289
				h-41.1c-1.988,0-3.6-1.611-3.6-3.6v-27.3c0-1.988,1.611-3.601,3.6-3.601h41.1c1.988,0,3.601,1.612,3.601,3.601v27.3
				C160.575,575.678,158.963,577.289,156.975,577.289z"/>
			<path fill="#FFFFFF" stroke="#7C41BA" stroke-linecap="round" stroke-linejoin="round" stroke-miterlimit="10" d="
				M156.436,577.289c2.286,0,4.14-1.854,4.14-4.139v-1.381h-48.3v1.381c0,2.285,1.854,4.139,4.14,4.139H156.436z"/>
			<polygon fill="#FFFFFF" points="140.564,582.811 132.285,582.811 132.975,577.289 139.875,577.289 			"/>
			<polygon fill="none" stroke="#7C41BA" stroke-linecap="round" stroke-linejoin="round" stroke-miterlimit="10" points="
				140.564,582.811 132.285,582.811 132.975,577.289 139.875,577.289 			"/>
			<path fill="#FFFFFF" stroke="#7C41BA" stroke-linecap="round" stroke-linejoin="round" stroke-miterlimit="10" d="
				M145.395,585.57h-17.939c0-1.525,1.235-2.76,2.76-2.76h12.42C144.159,582.811,145.395,584.045,145.395,585.57z"/>
			<path fill="#FFFFFF" stroke="#7C41BA" stroke-linecap="round" stroke-linejoin="round" stroke-miterlimit="10" d="
				M160.936,564.18h-35.221c-1.32,0-2.4-1.08-2.4-2.4V537.96h40.021v23.819C163.335,563.1,162.255,564.18,160.936,564.18z"/>
			<path fill="#FFFFFF" stroke="#7C41BA" stroke-linecap="round" stroke-linejoin="round" stroke-miterlimit="10" d="
				M163.335,537.96h-40.021v-5.88c0-1.32,1.08-2.4,2.4-2.4h35.221c1.319,0,2.399,1.08,2.399,2.4V537.96z"/>
			
				<circle fill="#B999DB" stroke="#7C41BA" stroke-linecap="round" stroke-linejoin="round" stroke-miterlimit="10" cx="127.455" cy="533.82" r="1.38"/>
			
				<circle fill="#B999DB" stroke="#7C41BA" stroke-linecap="round" stroke-linejoin="round" stroke-miterlimit="10" cx="132.976" cy="533.82" r="1.38"/>
			
				<circle fill="#B999DB" stroke="#7C41BA" stroke-linecap="round" stroke-linejoin="round" stroke-miterlimit="10" cx="138.495" cy="533.82" r="1.38"/>
			<path fill="#B999DB" stroke="#7C41BA" stroke-linecap="round" stroke-linejoin="round" stroke-miterlimit="10" d="
				M131.975,543.479h-3.52c-0.553,0-1-0.447-1-1v-0.76c0-0.552,0.447-1,1-1h3.52c0.553,0,1,0.448,1,1v0.76
				C132.975,543.032,132.527,543.479,131.975,543.479z"/>
			
				<line fill="none" stroke="#7C41BA" stroke-linecap="round" stroke-linejoin="round" stroke-miterlimit="10" x1="127.455" y1="546.24" x2="132.975" y2="546.24"/>
			
				<line fill="none" stroke="#7C41BA" stroke-linecap="round" stroke-linejoin="round" stroke-miterlimit="10" x1="127.455" y1="549" x2="132.975" y2="549"/>
			
				<line fill="none" stroke="#7C41BA" stroke-linecap="round" stroke-linejoin="round" stroke-miterlimit="10" x1="127.455" y1="551.76" x2="132.975" y2="551.76"/>
			
				<line fill="none" stroke="#7C41BA" stroke-linecap="round" stroke-linejoin="round" stroke-miterlimit="10" x1="127.455" y1="554.52" x2="132.975" y2="554.52"/>
			
				<line fill="none" stroke="#7C41BA" stroke-linecap="round" stroke-linejoin="round" stroke-miterlimit="10" x1="127.455" y1="557.279" x2="132.975" y2="557.279"/>
			
				<line fill="none" stroke="#7C41BA" stroke-linecap="round" stroke-linejoin="round" stroke-miterlimit="10" x1="127.455" y1="560.039" x2="130.905" y2="560.039"/>
			
				<circle fill="none" stroke="#7C41BA" stroke-linecap="round" stroke-linejoin="round" stroke-miterlimit="10" cx="136.425" cy="574.529" r="0.575"/>
			
				<rect x="135.5" y="540.5" fill="#B999DB" stroke="#7C41BA" stroke-linejoin="round" stroke-miterlimit="10" width="25" height="10"/>
			
				<rect x="135.5" y="552.5" fill="#B999DB" stroke="#7C41BA" stroke-linejoin="round" stroke-miterlimit="10" width="25" height="10"/>
		</g>
	</g>
	<g id="Interface-Essential__x2F__Form-Validation__x2F__check-circle">
		<g id="Group_426">
			<g id="check-circle">
				<path id="Shape_2106" fill="none" stroke="#7C41BA" stroke-width="2" stroke-linecap="round" stroke-linejoin="round" d="
					M349.256,104.843l-18.922,23.49l-6.525-6.524"/>
				<path id="Shape_2107" fill="none" stroke="#7C41BA" stroke-width="2" stroke-linecap="round" stroke-linejoin="round" d="
					M342.436,120.496c1.221,5.352-1.432,10.833-6.383,13.199s-10.883,0.984-14.277-3.327c-3.396-4.31-3.354-10.399,0.105-14.658
					c3.459-4.262,9.408-5.557,14.326-3.117"/>
			</g>
		</g>
	</g>
	<g id="Interface-Essential__x2F__Form-Validation__x2F__check-circle_1_">
		<g id="Group_426_1_">
			<g id="check-circle_1_">
				<path id="Shape_2106_1_" fill="none" stroke="#7C41BA" stroke-width="2" stroke-linecap="round" stroke-linejoin="round" d="
					M349.923,136.843L331,160.334l-6.524-6.525"/>
				<path id="Shape_2107_1_" fill="none" stroke="#7C41BA" stroke-width="2" stroke-linecap="round" stroke-linejoin="round" d="
					M343.103,152.496c1.22,5.352-1.432,10.833-6.384,13.2c-4.951,2.365-10.882,0.984-14.277-3.328
					c-3.396-4.309-3.353-10.399,0.106-14.658c3.459-4.262,9.408-5.557,14.325-3.117"/>
			</g>
		</g>
	</g>
	<g id="Interface-Essential__x2F__Form-Validation__x2F__check-circle_2_">
		<g id="Group_426_2_">
			<g id="check-circle_2_">
				<path id="Shape_2106_2_" fill="none" stroke="#7C41BA" stroke-width="2" stroke-linecap="round" stroke-linejoin="round" d="
					M351.537,169.481l-18.923,23.491l-6.524-6.525"/>
				<path id="Shape_2107_2_" fill="none" stroke="#7C41BA" stroke-width="2" stroke-linecap="round" stroke-linejoin="round" d="
					M344.717,185.134c1.22,5.352-1.432,10.833-6.384,13.2c-4.951,2.366-10.882,0.985-14.277-3.328
					c-3.396-4.309-3.353-10.399,0.106-14.658c3.459-4.262,9.408-5.557,14.325-3.117"/>
			</g>
		</g>
	</g>
</g>
<path fill="#7C41BA" stroke="#7C41BA" stroke-width="0.25" stroke-linejoin="round" stroke-miterlimit="10" d="M391.073,22.249
	c0-7.773-6.301-14.078-14.074-14.078H274.506c-7.773,0-14.074,6.305-14.074,14.078v33.923c0,7.773,6.301,14.074,14.074,14.074
	h31.672V91.32c0,2.363,1.426,4.496,3.613,5.402c2.184,0.906,4.699,0.406,6.371-1.266l25.207-25.211h35.63
	c7.773,0,14.074-6.301,14.074-14.074V22.249z"/>
<rect x="247.411" y="18.902" fill="none" width="148.78" height="42.927"/>
<text transform="matrix(1 0 0 1 288.1934 27.9014)"><tspan x="0" y="0" fill="#FFFFFF" font-family="'Roboto-Bold'" font-size="12">DAC Factory</tspan><tspan x="-22.131" y="14.4" fill="#FFFFFF" font-family="'Roboto-Regular'" font-size="12">Create and configure  </tspan><tspan x="-3.992" y="28.8" fill="#FFFFFF" font-family="'Roboto-Regular'" font-size="12">your </tspan><tspan x="22.176" y="28.8" fill="#FFFFFF" font-family="'Roboto-Bold'" font-size="12">own DAC</tspan></text>
</svg>
