<?xml version="1.0" encoding="utf-8"?>
<!-- Generator: Adobe Illustrator 16.0.3, SVG Export Plug-In . SVG Version: 6.00 Build 0)  -->
<!DOCTYPE svg PUBLIC "-//W3C//DTD SVG 1.1//EN" "http://www.w3.org/Graphics/SVG/1.1/DTD/svg11.dtd">
<svg version="1.1" id="Ebene_1" xmlns="http://www.w3.org/2000/svg" xmlns:xlink="http://www.w3.org/1999/xlink" x="0px" y="0px"
	 width="160px" height="160px" viewBox="0 0 160 160" enable-background="new 0 0 160 160" xml:space="preserve">
<g>
	<ellipse fill="#B999DB" cx="67.084" cy="136.67" rx="24" ry="3"/>
	<path fill="none" stroke="#7C41BA" stroke-width="2.5" stroke-linecap="round" stroke-linejoin="round" stroke-miterlimit="10" d="
		M119.437,56.804l-4.295-12.935c-0.961-3.241,0.207-6.738,2.92-8.759c17.852,35.706,17.742,24.152,7.3,55.475l7.299,11.679"/>
	<path fill="none" stroke="#7C41BA" stroke-width="2.5" stroke-linecap="round" stroke-linejoin="round" stroke-miterlimit="10" d="
		M120.971,75.987V59.929c0.21-1.168-0.298-2.351-1.285-3.002c-0.992-0.653-2.277-0.653-3.27,0c-0.987,0.651-1.495,1.834-1.285,3.002
		v8.759c-3.57,3.463-5.661,8.17-5.84,13.14v8.759l5.84,11.679"/>
	<polyline fill="#FFFFFF" points="110.893,106.717 109.291,103.061 129.541,94.195 131.142,97.853 	"/>
	
		<polyline fill="none" stroke="#7C41BA" stroke-width="2" stroke-linecap="round" stroke-linejoin="round" stroke-miterlimit="10" points="
		110.893,106.717 109.291,103.061 129.541,94.195 131.142,97.853 	"/>
	<polyline fill="#B999DB" points="112.605,115.652 109.291,108.082 132.66,97.852 135.974,105.423 	"/>
	
		<polyline fill="none" stroke="#7C41BA" stroke-width="2.0459" stroke-linecap="round" stroke-linejoin="round" stroke-miterlimit="10" points="
		112.605,115.652 109.291,108.082 132.66,97.852 135.974,105.423 	"/>
	
		<line fill="none" stroke="#7C41BA" stroke-width="2" stroke-linecap="round" stroke-linejoin="round" stroke-miterlimit="10" x1="57.579" y1="83.16" x2="35.474" y2="80.002"/>
	
		<line fill="none" stroke="#7C41BA" stroke-width="2" stroke-linecap="round" stroke-linejoin="round" stroke-miterlimit="10" x1="76.526" y1="83.16" x2="57.579" y2="83.16"/>
	<path fill="none" stroke="#7C41BA" stroke-width="2" stroke-linecap="round" stroke-linejoin="round" stroke-miterlimit="10" d="
		M62.303,54.738h14.1c1.055,0,2.042,0.528,2.627,1.405l1.052,1.579c0.707,1.06,0.707,2.446,0,3.506l-0.821,1.231
		c-0.707,1.059-0.707,2.446,0,3.505l0.821,1.231c0.707,1.06,0.707,2.446,0,3.506L78.948,72.4c-0.54,0.811-0.675,1.827-0.366,2.751
		l0.6,1.807c0.309,0.923,0.173,1.939-0.366,2.75l-2.302,3.452"/>
	<path fill="none" stroke="#7C41BA" stroke-width="2" stroke-linecap="round" stroke-linejoin="round" stroke-miterlimit="10" d="
		M35.461,64.212l9.717-2.775c0.851-0.242,1.562-0.832,1.958-1.623l3.657-7.285c0.307-0.61,0.802-1.105,1.412-1.412l6.625-3.325"/>
	<path fill="#B999DB" d="M58.555,42.107c-0.866,0-1.579,0.712-1.579,1.578c0,0.246,0.058,0.488,0.167,0.708l5.16,10.345h9.474
		l5.173-10.345c0.11-0.22,0.167-0.462,0.167-0.708c0-0.855-0.695-1.563-1.55-1.578H58.555z"/>
	<path fill="none" stroke="#7C41BA" stroke-width="2" stroke-linecap="round" stroke-linejoin="round" stroke-miterlimit="10" d="
		M58.555,42.107c-0.866,0-1.579,0.712-1.579,1.578c0,0.246,0.058,0.488,0.167,0.708l5.16,10.345h9.474l5.173-10.345
		c0.11-0.22,0.167-0.462,0.167-0.708c0-0.855-0.695-1.563-1.55-1.578H58.555z"/>
	<polyline fill="#B999DB" points="26,61.055 35.474,61.055 35.474,83.16 26,83.16 	"/>
	
		<polyline fill="none" stroke="#7C41BA" stroke-width="2" stroke-linecap="round" stroke-linejoin="round" stroke-miterlimit="10" points="
		26,61.055 35.474,61.055 35.474,83.16 26,83.16 	"/>
	<path fill="#B999DB" d="M74.976,83.194C81.484,84.985,86,95.425,86,102.107c0,9.157-8.482,12.631-18.947,12.631
		s-18.947-3.474-18.947-12.631c0-6.683,4.516-17.119,11.024-18.913"/>
	<path fill="none" stroke="#7C41BA" stroke-width="2" stroke-linecap="round" stroke-linejoin="round" stroke-miterlimit="10" d="
		M74.976,83.194C81.484,84.985,86,95.425,86,102.107c0,9.157-8.482,12.631-18.947,12.631s-18.947-3.474-18.947-12.631
		c0-6.683,4.516-17.119,11.024-18.913"/>
	
		<line fill="none" stroke="#FFFFFF" stroke-width="2" stroke-linecap="round" stroke-linejoin="round" stroke-miterlimit="10" x1="67.053" y1="105.265" x2="67.053" y2="108.423"/>
	
		<line fill="none" stroke="#FFFFFF" stroke-width="2" stroke-linecap="round" stroke-linejoin="round" stroke-miterlimit="10" x1="67.053" y1="89.476" x2="67.053" y2="92.633"/>
	<path fill="none" stroke="#FFFFFF" stroke-width="2" stroke-linecap="round" stroke-linejoin="round" stroke-miterlimit="10" d="
		M60.724,105.265h9.474c1.732,0,3.158-1.425,3.158-3.157s-1.426-3.158-3.158-3.158h-6.315c-1.732,0-3.158-1.426-3.158-3.158
		s1.426-3.158,3.158-3.158h9.474"/>
</g>
</svg>
