<?xml version="1.0" encoding="UTF-8" standalone="no"?><!DOCTYPE svg PUBLIC "-//W3C//DTD SVG 1.1//EN" "http://www.w3.org/Graphics/SVG/1.1/DTD/svg11.dtd"><svg width="100%" height="100%" viewBox="0 0 1213 666" version="1.1" xmlns="http://www.w3.org/2000/svg" xmlns:xlink="http://www.w3.org/1999/xlink" xml:space="preserve" xmlns:serif="http://www.serif.com/" style="fill-rule:evenodd;clip-rule:evenodd;stroke-linecap:round;stroke-linejoin:round;stroke-miterlimit:10;"><rect id="ArtBoard1" x="0" y="0" width="1213" height="666" style="fill:none;"/><g id="Ebene-1" serif:id="Ebene 1"></g><g id="Ebene-11" serif:id="Ebene 1"></g><g id="Ebene-12" serif:id="Ebene 1"></g><g id="Isolationsmodus"></g><g id="Ebene-13" serif:id="Ebene 1"><g><path d="M203.005,421.575c-0.188,0.969 -1.125,1.602 -2.094,1.412l-44.869,-8.771c-0.465,-0.091 -0.875,-0.361 -1.14,-0.755c-0.264,-0.393 -0.362,-0.874 -0.271,-1.34l11.639,-59.635c0.19,-0.97 1.128,-1.602 2.096,-1.411l44.868,8.769c0.969,0.188 1.6,1.127 1.41,2.095l-11.639,59.636Z" style="fill:#fff;fill-rule:nonzero;stroke:#7c41ba;stroke-width:2px;"/><path d="M199.363,424.592c-0.169,0.443 -0.505,0.802 -0.937,0.996c-0.431,0.196 -0.923,0.21 -1.367,0.041l-42.747,-16.216c-0.922,-0.348 -1.386,-1.38 -1.037,-2.303l21.52,-56.82c0.167,-0.443 0.506,-0.801 0.938,-0.995c0.431,-0.195 0.922,-0.21 1.365,-0.042l42.749,16.216c0.922,0.35 1.386,1.382 1.036,2.305l-21.52,56.818Z" style="fill:#fff;fill-rule:nonzero;stroke:#7c41ba;stroke-width:2px;"/><path d="M211.583,374.185c-0.349,0.922 -1.38,1.387 -2.303,1.036l-30.726,-11.655c-0.923,-0.349 -1.386,-1.381 -1.038,-2.304l1.014,-2.674c0.167,-0.443 0.504,-0.802 0.937,-0.996c0.43,-0.195 0.923,-0.21 1.366,-0.042l30.725,11.657c0.443,0.167 0.801,0.504 0.995,0.937c0.196,0.432 0.21,0.923 0.043,1.367l-1.013,2.674Z" style="fill:#b999db;fill-rule:nonzero;stroke:#7c41ba;stroke-width:2px;"/><path d="M208.674,381.872l-0.761,2.004" style="fill:none;stroke:#7c41ba;stroke-width:2px;"/><path d="M204.666,380.352l-0.76,2.005" style="fill:none;stroke:#7c41ba;stroke-width:2px;"/><path d="M200.658,378.832l-0.76,2.004" style="fill:none;stroke:#7c41ba;stroke-width:2px;"/><path d="M196.651,377.311l-0.761,2.006" style="fill:none;stroke:#7c41ba;stroke-width:2px;"/><path d="M206.393,387.887l-0.758,2.005" style="fill:none;stroke:#7c41ba;stroke-width:2px;"/><path d="M202.387,386.368l-0.759,2.005" style="fill:none;stroke:#7c41ba;stroke-width:2px;"/><path d="M198.38,384.848l-0.76,2.004" style="fill:none;stroke:#7c41ba;stroke-width:2px;"/><path d="M204.115,393.903l-0.758,2.006" style="fill:none;stroke:#7c41ba;stroke-width:2px;"/><path d="M200.107,392.384l-0.76,2.005" style="fill:none;stroke:#7c41ba;stroke-width:2px;"/><path d="M196.099,390.863l-0.758,2.005" style="fill:none;stroke:#7c41ba;stroke-width:2px;"/><path d="M192.093,389.343l-0.759,2.006" style="fill:none;stroke:#7c41ba;stroke-width:2px;"/><path d="M173.849,370.955l16.03,6.08" style="fill:none;stroke:#7c41ba;stroke-width:2px;"/><path d="M171.569,376.971l12.022,4.56" style="fill:none;stroke:#7c41ba;stroke-width:2px;"/><path d="M169.292,382.987l14.026,5.321" style="fill:none;stroke:#7c41ba;stroke-width:2px;"/><path d="M201.838,399.919l-0.761,2.006" style="fill:none;stroke:#7c41ba;stroke-width:2px;"/><path d="M197.83,398.4l-0.761,2.006" style="fill:none;stroke:#7c41ba;stroke-width:2px;"/><path d="M193.822,396.879l-0.761,2.005" style="fill:none;stroke:#7c41ba;stroke-width:2px;"/><path d="M189.815,395.359l-0.761,2.006" style="fill:none;stroke:#7c41ba;stroke-width:2px;"/><path d="M185.807,393.839l-0.76,2.005" style="fill:none;stroke:#7c41ba;stroke-width:2px;"/><path d="M167.012,389.003l8.016,3.04" style="fill:none;stroke:#7c41ba;stroke-width:2px;"/><path d="M199.557,405.936l-0.759,2.005" style="fill:none;stroke:#7c41ba;stroke-width:2px;"/><path d="M195.55,404.416l-0.758,2.006" style="fill:none;stroke:#7c41ba;stroke-width:2px;"/><path d="M164.733,395.019l20.04,7.603" style="fill:none;stroke:#7c41ba;stroke-width:2px;"/><path d="M179.213,414.273c-1.661,-0.63 -2.496,-2.488 -1.866,-4.148c0.63,-1.662 2.485,-2.498 4.146,-1.868c1.658,0.629 2.492,2.487 1.865,4.148" style="fill:none;stroke:#7c41ba;stroke-width:2px;"/><path d="M195.761,415.963c-0.63,1.662 -2.485,2.498 -4.145,1.868" style="fill:none;stroke:#7c41ba;stroke-width:2px;"/><path d="M182.979,413.406c0.629,-1.66 2.483,-2.496 4.144,-1.866" style="fill:none;stroke:#7c41ba;stroke-width:2px;"/><path d="M187.986,415.308c0.631,-1.662 2.487,-2.498 4.146,-1.868" style="fill:none;stroke:#7c41ba;stroke-width:2px;"/></g><g><path d="M215.005,283.748c-0.188,0.968 -1.125,1.601 -2.094,1.411l-44.869,-8.77c-0.465,-0.091 -0.875,-0.361 -1.14,-0.755c-0.264,-0.394 -0.362,-0.875 -0.271,-1.341l11.639,-59.635c0.19,-0.969 1.128,-1.601 2.096,-1.411l44.868,8.769c0.969,0.188 1.6,1.127 1.41,2.096l-11.639,59.636Z" style="fill:#fff;fill-rule:nonzero;stroke:#7c41ba;stroke-width:2px;"/><path d="M211.363,286.765c-0.169,0.443 -0.505,0.801 -0.937,0.995c-0.431,0.196 -0.923,0.21 -1.367,0.042l-42.747,-16.216c-0.922,-0.349 -1.386,-1.381 -1.037,-2.304l21.52,-56.82c0.167,-0.442 0.506,-0.801 0.938,-0.995c0.431,-0.194 0.922,-0.21 1.365,-0.041l42.749,16.216c0.922,0.35 1.386,1.382 1.036,2.305l-21.52,56.818Z" style="fill:#fff;fill-rule:nonzero;stroke:#7c41ba;stroke-width:2px;"/><path d="M223.583,236.357c-0.349,0.923 -1.38,1.387 -2.303,1.037l-30.726,-11.655c-0.923,-0.349 -1.386,-1.381 -1.038,-2.304l1.014,-2.674c0.167,-0.444 0.504,-0.803 0.937,-0.997c0.43,-0.194 0.923,-0.21 1.366,-0.041l30.725,11.657c0.443,0.167 0.801,0.503 0.995,0.936c0.196,0.432 0.21,0.924 0.043,1.368l-1.013,2.673Z" style="fill:#b999db;fill-rule:nonzero;stroke:#7c41ba;stroke-width:2px;"/><path d="M220.674,244.044l-0.761,2.005" style="fill:none;stroke:#7c41ba;stroke-width:2px;"/><path d="M216.666,242.525l-0.76,2.005" style="fill:none;stroke:#7c41ba;stroke-width:2px;"/><path d="M212.658,241.004l-0.76,2.005" style="fill:none;stroke:#7c41ba;stroke-width:2px;"/><path d="M208.651,239.484l-0.761,2.006" style="fill:none;stroke:#7c41ba;stroke-width:2px;"/><path d="M218.393,250.06l-0.758,2.005" style="fill:none;stroke:#7c41ba;stroke-width:2px;"/><path d="M214.387,248.541l-0.759,2.005" style="fill:none;stroke:#7c41ba;stroke-width:2px;"/><path d="M210.38,247.02l-0.76,2.005" style="fill:none;stroke:#7c41ba;stroke-width:2px;"/><path d="M216.115,256.076l-0.758,2.006" style="fill:none;stroke:#7c41ba;stroke-width:2px;"/><path d="M212.107,254.557l-0.76,2.004" style="fill:none;stroke:#7c41ba;stroke-width:2px;"/><path d="M208.099,253.036l-0.758,2.005" style="fill:none;stroke:#7c41ba;stroke-width:2px;"/><path d="M204.093,251.515l-0.759,2.007" style="fill:none;stroke:#7c41ba;stroke-width:2px;"/><path d="M185.849,233.128l16.03,6.079" style="fill:none;stroke:#7c41ba;stroke-width:2px;"/><path d="M183.569,239.144l12.022,4.56" style="fill:none;stroke:#7c41ba;stroke-width:2px;"/><path d="M181.292,245.16l14.026,5.321" style="fill:none;stroke:#7c41ba;stroke-width:2px;"/><path d="M213.838,262.092l-0.761,2.006" style="fill:none;stroke:#7c41ba;stroke-width:2px;"/><path d="M209.83,260.572l-0.761,2.007" style="fill:none;stroke:#7c41ba;stroke-width:2px;"/><path d="M205.822,259.052l-0.761,2.005" style="fill:none;stroke:#7c41ba;stroke-width:2px;"/><path d="M201.815,257.531l-0.761,2.006" style="fill:none;stroke:#7c41ba;stroke-width:2px;"/><path d="M197.807,256.012l-0.76,2.005" style="fill:none;stroke:#7c41ba;stroke-width:2px;"/><path d="M179.012,251.175l8.016,3.04" style="fill:none;stroke:#7c41ba;stroke-width:2px;"/><path d="M211.557,268.109l-0.759,2.005" style="fill:none;stroke:#7c41ba;stroke-width:2px;"/><path d="M207.55,266.588l-0.758,2.007" style="fill:none;stroke:#7c41ba;stroke-width:2px;"/><path d="M176.733,257.191l20.04,7.603" style="fill:none;stroke:#7c41ba;stroke-width:2px;"/><path d="M191.213,276.445c-1.661,-0.63 -2.496,-2.487 -1.866,-4.147c0.63,-1.663 2.485,-2.499 4.146,-1.868c1.658,0.629 2.492,2.487 1.865,4.147" style="fill:none;stroke:#7c41ba;stroke-width:2px;"/><path d="M207.761,278.136c-0.63,1.662 -2.485,2.498 -4.145,1.868" style="fill:none;stroke:#7c41ba;stroke-width:2px;"/><path d="M194.979,275.579c0.629,-1.661 2.483,-2.497 4.144,-1.867" style="fill:none;stroke:#7c41ba;stroke-width:2px;"/><path d="M199.986,277.48c0.631,-1.662 2.487,-2.498 4.146,-1.868" style="fill:none;stroke:#7c41ba;stroke-width:2px;"/></g><g><path d="M886.005,283.748c-0.188,0.968 -1.125,1.601 -2.094,1.411l-44.869,-8.77c-0.465,-0.091 -0.875,-0.361 -1.14,-0.755c-0.264,-0.394 -0.362,-0.875 -0.271,-1.341l11.639,-59.635c0.19,-0.969 1.128,-1.601 2.096,-1.411l44.868,8.769c0.969,0.188 1.6,1.127 1.41,2.096l-11.639,59.636Z" style="fill:#fff;fill-rule:nonzero;stroke:#7c41ba;stroke-width:2px;"/><path d="M882.363,286.765c-0.169,0.443 -0.505,0.801 -0.937,0.995c-0.431,0.196 -0.923,0.21 -1.367,0.042l-42.747,-16.216c-0.922,-0.349 -1.386,-1.381 -1.037,-2.304l21.52,-56.82c0.167,-0.442 0.506,-0.801 0.938,-0.995c0.431,-0.194 0.922,-0.21 1.365,-0.041l42.749,16.216c0.922,0.35 1.386,1.382 1.036,2.305l-21.52,56.818Z" style="fill:#fff;fill-rule:nonzero;stroke:#7c41ba;stroke-width:2px;"/><path d="M894.583,236.357c-0.349,0.923 -1.38,1.387 -2.303,1.037l-30.726,-11.655c-0.923,-0.349 -1.386,-1.381 -1.038,-2.304l1.014,-2.674c0.167,-0.444 0.504,-0.803 0.937,-0.997c0.43,-0.194 0.923,-0.21 1.366,-0.041l30.725,11.657c0.443,0.167 0.801,0.503 0.995,0.936c0.196,0.432 0.21,0.924 0.043,1.368l-1.013,2.673Z" style="fill:#b999db;fill-rule:nonzero;stroke:#7c41ba;stroke-width:2px;"/><path d="M891.674,244.044l-0.761,2.005" style="fill:none;stroke:#7c41ba;stroke-width:2px;"/><path d="M887.666,242.525l-0.76,2.005" style="fill:none;stroke:#7c41ba;stroke-width:2px;"/><path d="M883.658,241.004l-0.76,2.005" style="fill:none;stroke:#7c41ba;stroke-width:2px;"/><path d="M879.651,239.484l-0.761,2.006" style="fill:none;stroke:#7c41ba;stroke-width:2px;"/><path d="M889.393,250.06l-0.758,2.005" style="fill:none;stroke:#7c41ba;stroke-width:2px;"/><path d="M885.387,248.541l-0.759,2.005" style="fill:none;stroke:#7c41ba;stroke-width:2px;"/><path d="M881.38,247.02l-0.76,2.005" style="fill:none;stroke:#7c41ba;stroke-width:2px;"/><path d="M887.115,256.076l-0.758,2.006" style="fill:none;stroke:#7c41ba;stroke-width:2px;"/><path d="M883.107,254.557l-0.76,2.004" style="fill:none;stroke:#7c41ba;stroke-width:2px;"/><path d="M879.099,253.036l-0.758,2.005" style="fill:none;stroke:#7c41ba;stroke-width:2px;"/><path d="M875.093,251.515l-0.759,2.007" style="fill:none;stroke:#7c41ba;stroke-width:2px;"/><path d="M856.849,233.128l16.03,6.079" style="fill:none;stroke:#7c41ba;stroke-width:2px;"/><path d="M854.569,239.144l12.022,4.56" style="fill:none;stroke:#7c41ba;stroke-width:2px;"/><path d="M852.292,245.16l14.026,5.321" style="fill:none;stroke:#7c41ba;stroke-width:2px;"/><path d="M884.838,262.092l-0.761,2.006" style="fill:none;stroke:#7c41ba;stroke-width:2px;"/><path d="M880.83,260.572l-0.761,2.007" style="fill:none;stroke:#7c41ba;stroke-width:2px;"/><path d="M876.822,259.052l-0.761,2.005" style="fill:none;stroke:#7c41ba;stroke-width:2px;"/><path d="M872.815,257.531l-0.761,2.006" style="fill:none;stroke:#7c41ba;stroke-width:2px;"/><path d="M868.807,256.012l-0.76,2.005" style="fill:none;stroke:#7c41ba;stroke-width:2px;"/><path d="M850.012,251.175l8.016,3.04" style="fill:none;stroke:#7c41ba;stroke-width:2px;"/><path d="M882.557,268.109l-0.759,2.005" style="fill:none;stroke:#7c41ba;stroke-width:2px;"/><path d="M878.55,266.588l-0.758,2.007" style="fill:none;stroke:#7c41ba;stroke-width:2px;"/><path d="M847.733,257.191l20.04,7.603" style="fill:none;stroke:#7c41ba;stroke-width:2px;"/><path d="M862.213,276.445c-1.661,-0.63 -2.496,-2.487 -1.866,-4.147c0.63,-1.663 2.485,-2.499 4.146,-1.868c1.658,0.629 2.492,2.487 1.865,4.147" style="fill:none;stroke:#7c41ba;stroke-width:2px;"/><path d="M878.761,278.136c-0.63,1.662 -2.485,2.498 -4.145,1.868" style="fill:none;stroke:#7c41ba;stroke-width:2px;"/><path d="M865.979,275.579c0.629,-1.661 2.483,-2.497 4.144,-1.867" style="fill:none;stroke:#7c41ba;stroke-width:2px;"/><path d="M870.986,277.48c0.631,-1.662 2.487,-2.498 4.146,-1.868" style="fill:none;stroke:#7c41ba;stroke-width:2px;"/></g><g><path d="M126.005,354.575c-0.188,0.969 -1.125,1.602 -2.094,1.412l-44.869,-8.771c-0.465,-0.091 -0.875,-0.361 -1.14,-0.755c-0.264,-0.393 -0.362,-0.874 -0.271,-1.34l11.639,-59.635c0.19,-0.97 1.128,-1.602 2.096,-1.411l44.868,8.769c0.969,0.188 1.6,1.127 1.41,2.095l-11.639,59.636Z" style="fill:#fff;fill-rule:nonzero;stroke:#7c41ba;stroke-width:2px;"/><path d="M122.363,357.592c-0.169,0.443 -0.505,0.802 -0.937,0.996c-0.431,0.196 -0.923,0.21 -1.367,0.041l-42.747,-16.216c-0.922,-0.348 -1.386,-1.38 -1.037,-2.303l21.52,-56.82c0.167,-0.443 0.506,-0.801 0.938,-0.995c0.431,-0.195 0.922,-0.21 1.365,-0.042l42.749,16.216c0.922,0.35 1.386,1.382 1.036,2.305l-21.52,56.818Z" style="fill:#fff;fill-rule:nonzero;stroke:#7c41ba;stroke-width:2px;"/><path d="M134.583,307.185c-0.349,0.922 -1.38,1.387 -2.303,1.036l-30.726,-11.655c-0.923,-0.349 -1.386,-1.381 -1.038,-2.304l1.014,-2.674c0.167,-0.443 0.504,-0.802 0.937,-0.996c0.43,-0.195 0.923,-0.21 1.366,-0.042l30.725,11.657c0.443,0.167 0.801,0.504 0.995,0.937c0.196,0.432 0.21,0.923 0.043,1.367l-1.013,2.674Z" style="fill:#b999db;fill-rule:nonzero;stroke:#7c41ba;stroke-width:2px;"/><path d="M131.674,314.872l-0.761,2.004" style="fill:none;stroke:#7c41ba;stroke-width:2px;"/><path d="M127.666,313.352l-0.76,2.005" style="fill:none;stroke:#7c41ba;stroke-width:2px;"/><path d="M123.658,311.832l-0.76,2.004" style="fill:none;stroke:#7c41ba;stroke-width:2px;"/><path d="M119.651,310.311l-0.761,2.006" style="fill:none;stroke:#7c41ba;stroke-width:2px;"/><path d="M129.393,320.887l-0.758,2.005" style="fill:none;stroke:#7c41ba;stroke-width:2px;"/><path d="M125.387,319.368l-0.759,2.005" style="fill:none;stroke:#7c41ba;stroke-width:2px;"/><path d="M121.38,317.848l-0.76,2.004" style="fill:none;stroke:#7c41ba;stroke-width:2px;"/><path d="M127.115,326.903l-0.758,2.006" style="fill:none;stroke:#7c41ba;stroke-width:2px;"/><path d="M123.107,325.384l-0.76,2.005" style="fill:none;stroke:#7c41ba;stroke-width:2px;"/><path d="M119.099,323.863l-0.758,2.005" style="fill:none;stroke:#7c41ba;stroke-width:2px;"/><path d="M115.093,322.343l-0.759,2.006" style="fill:none;stroke:#7c41ba;stroke-width:2px;"/><path d="M96.849,303.955l16.03,6.08" style="fill:none;stroke:#7c41ba;stroke-width:2px;"/><path d="M94.569,309.971l12.022,4.56" style="fill:none;stroke:#7c41ba;stroke-width:2px;"/><path d="M92.292,315.987l14.026,5.321" style="fill:none;stroke:#7c41ba;stroke-width:2px;"/><path d="M124.838,332.919l-0.761,2.006" style="fill:none;stroke:#7c41ba;stroke-width:2px;"/><path d="M120.83,331.4l-0.761,2.006" style="fill:none;stroke:#7c41ba;stroke-width:2px;"/><path d="M116.822,329.879l-0.761,2.005" style="fill:none;stroke:#7c41ba;stroke-width:2px;"/><path d="M112.815,328.359l-0.761,2.006" style="fill:none;stroke:#7c41ba;stroke-width:2px;"/><path d="M108.807,326.839l-0.76,2.005" style="fill:none;stroke:#7c41ba;stroke-width:2px;"/><path d="M90.012,322.003l8.016,3.04" style="fill:none;stroke:#7c41ba;stroke-width:2px;"/><path d="M122.557,338.936l-0.759,2.005" style="fill:none;stroke:#7c41ba;stroke-width:2px;"/><path d="M118.55,337.416l-0.758,2.006" style="fill:none;stroke:#7c41ba;stroke-width:2px;"/><path d="M87.733,328.019l20.04,7.603" style="fill:none;stroke:#7c41ba;stroke-width:2px;"/><path d="M102.213,347.273c-1.661,-0.63 -2.496,-2.488 -1.866,-4.148c0.63,-1.662 2.485,-2.498 4.146,-1.868c1.658,0.629 2.492,2.487 1.865,4.148" style="fill:none;stroke:#7c41ba;stroke-width:2px;"/><path d="M118.761,348.963c-0.63,1.662 -2.485,2.498 -4.145,1.868" style="fill:none;stroke:#7c41ba;stroke-width:2px;"/><path d="M105.979,346.406c0.629,-1.66 2.483,-2.496 4.144,-1.866" style="fill:none;stroke:#7c41ba;stroke-width:2px;"/><path d="M110.986,348.308c0.631,-1.662 2.487,-2.498 4.146,-1.868" style="fill:none;stroke:#7c41ba;stroke-width:2px;"/></g></g><g id="Ebene-14" serif:id="Ebene 1"></g><g id="Ebene-15" serif:id="Ebene 1"></g><g id="Ebene-16" serif:id="Ebene 1"></g><g id="Isolationsmodus1" serif:id="Isolationsmodus"><g><path d="M926.005,283.748c-0.188,0.968 -1.125,1.601 -2.094,1.411l-44.869,-8.77c-0.465,-0.091 -0.875,-0.361 -1.14,-0.755c-0.264,-0.394 -0.362,-0.875 -0.271,-1.341l11.639,-59.635c0.19,-0.969 1.128,-1.601 2.096,-1.411l44.868,8.769c0.969,0.188 1.6,1.127 1.41,2.096l-11.639,59.636Z" style="fill:#fff;fill-rule:nonzero;stroke:#7c41ba;stroke-width:2px;"/><path d="M922.363,286.765c-0.169,0.443 -0.505,0.801 -0.937,0.995c-0.431,0.196 -0.923,0.21 -1.367,0.042l-42.747,-16.216c-0.922,-0.349 -1.386,-1.381 -1.037,-2.304l21.52,-56.82c0.167,-0.442 0.506,-0.801 0.938,-0.995c0.431,-0.194 0.922,-0.21 1.365,-0.041l42.749,16.216c0.922,0.35 1.386,1.382 1.036,2.305l-21.52,56.818Z" style="fill:#fff;fill-rule:nonzero;stroke:#7c41ba;stroke-width:2px;"/><path d="M934.583,236.357c-0.349,0.923 -1.38,1.387 -2.303,1.037l-30.726,-11.655c-0.923,-0.349 -1.386,-1.381 -1.038,-2.304l1.014,-2.674c0.167,-0.444 0.504,-0.803 0.937,-0.997c0.43,-0.194 0.923,-0.21 1.366,-0.041l30.725,11.657c0.443,0.167 0.801,0.503 0.995,0.936c0.196,0.432 0.21,0.924 0.043,1.368l-1.013,2.673Z" style="fill:#b999db;fill-rule:nonzero;stroke:#7c41ba;stroke-width:2px;"/><path d="M931.674,244.044l-0.761,2.005" style="fill:none;stroke:#7c41ba;stroke-width:2px;"/><path d="M927.666,242.525l-0.76,2.005" style="fill:none;stroke:#7c41ba;stroke-width:2px;"/><path d="M923.658,241.004l-0.76,2.005" style="fill:none;stroke:#7c41ba;stroke-width:2px;"/><path d="M919.651,239.484l-0.761,2.006" style="fill:none;stroke:#7c41ba;stroke-width:2px;"/><path d="M929.393,250.06l-0.758,2.005" style="fill:none;stroke:#7c41ba;stroke-width:2px;"/><path d="M925.387,248.541l-0.759,2.005" style="fill:none;stroke:#7c41ba;stroke-width:2px;"/><path d="M921.38,247.02l-0.76,2.005" style="fill:none;stroke:#7c41ba;stroke-width:2px;"/><path d="M927.115,256.076l-0.758,2.006" style="fill:none;stroke:#7c41ba;stroke-width:2px;"/><path d="M923.107,254.557l-0.76,2.004" style="fill:none;stroke:#7c41ba;stroke-width:2px;"/><path d="M919.099,253.036l-0.758,2.005" style="fill:none;stroke:#7c41ba;stroke-width:2px;"/><path d="M915.093,251.515l-0.759,2.007" style="fill:none;stroke:#7c41ba;stroke-width:2px;"/><path d="M896.849,233.128l16.03,6.079" style="fill:none;stroke:#7c41ba;stroke-width:2px;"/><path d="M894.569,239.144l12.022,4.56" style="fill:none;stroke:#7c41ba;stroke-width:2px;"/><path d="M892.292,245.16l14.026,5.321" style="fill:none;stroke:#7c41ba;stroke-width:2px;"/><path d="M924.838,262.092l-0.761,2.006" style="fill:none;stroke:#7c41ba;stroke-width:2px;"/><path d="M920.83,260.572l-0.761,2.007" style="fill:none;stroke:#7c41ba;stroke-width:2px;"/><path d="M916.822,259.052l-0.761,2.005" style="fill:none;stroke:#7c41ba;stroke-width:2px;"/><path d="M912.815,257.531l-0.761,2.006" style="fill:none;stroke:#7c41ba;stroke-width:2px;"/><path d="M908.807,256.012l-0.76,2.005" style="fill:none;stroke:#7c41ba;stroke-width:2px;"/><path d="M890.012,251.175l8.016,3.04" style="fill:none;stroke:#7c41ba;stroke-width:2px;"/><path d="M922.557,268.109l-0.759,2.005" style="fill:none;stroke:#7c41ba;stroke-width:2px;"/><path d="M918.55,266.588l-0.758,2.007" style="fill:none;stroke:#7c41ba;stroke-width:2px;"/><path d="M887.733,257.191l20.04,7.603" style="fill:none;stroke:#7c41ba;stroke-width:2px;"/><path d="M902.213,276.445c-1.661,-0.63 -2.496,-2.487 -1.866,-4.147c0.63,-1.663 2.485,-2.499 4.146,-1.868c1.658,0.629 2.492,2.487 1.865,4.147" style="fill:none;stroke:#7c41ba;stroke-width:2px;"/><path d="M918.761,278.136c-0.63,1.662 -2.485,2.498 -4.145,1.868" style="fill:none;stroke:#7c41ba;stroke-width:2px;"/><path d="M905.979,275.579c0.629,-1.661 2.483,-2.497 4.144,-1.867" style="fill:none;stroke:#7c41ba;stroke-width:2px;"/><path d="M910.986,277.48c0.631,-1.662 2.487,-2.498 4.146,-1.868" style="fill:none;stroke:#7c41ba;stroke-width:2px;"/></g><g><path d="M968.005,283.748c-0.188,0.968 -1.125,1.601 -2.094,1.411l-44.869,-8.77c-0.465,-0.091 -0.875,-0.361 -1.14,-0.755c-0.264,-0.394 -0.362,-0.875 -0.271,-1.341l11.639,-59.635c0.19,-0.969 1.128,-1.601 2.096,-1.411l44.868,8.769c0.969,0.188 1.6,1.127 1.41,2.096l-11.639,59.636Z" style="fill:#fff;fill-rule:nonzero;stroke:#7c41ba;stroke-width:2px;"/><path d="M964.363,286.765c-0.169,0.443 -0.505,0.801 -0.937,0.995c-0.431,0.196 -0.923,0.21 -1.367,0.042l-42.747,-16.216c-0.922,-0.349 -1.386,-1.381 -1.037,-2.304l21.52,-56.82c0.167,-0.442 0.506,-0.801 0.938,-0.995c0.431,-0.194 0.922,-0.21 1.365,-0.041l42.749,16.216c0.922,0.35 1.386,1.382 1.036,2.305l-21.52,56.818Z" style="fill:#fff;fill-rule:nonzero;stroke:#7c41ba;stroke-width:2px;"/><path d="M976.583,236.357c-0.349,0.923 -1.38,1.387 -2.303,1.037l-30.726,-11.655c-0.923,-0.349 -1.386,-1.381 -1.038,-2.304l1.014,-2.674c0.167,-0.444 0.504,-0.803 0.937,-0.997c0.43,-0.194 0.923,-0.21 1.366,-0.041l30.725,11.657c0.443,0.167 0.801,0.503 0.995,0.936c0.196,0.432 0.21,0.924 0.043,1.368l-1.013,2.673Z" style="fill:#b999db;fill-rule:nonzero;stroke:#7c41ba;stroke-width:2px;"/><path d="M973.674,244.044l-0.761,2.005" style="fill:none;stroke:#7c41ba;stroke-width:2px;"/><path d="M969.666,242.525l-0.76,2.005" style="fill:none;stroke:#7c41ba;stroke-width:2px;"/><path d="M965.658,241.004l-0.76,2.005" style="fill:none;stroke:#7c41ba;stroke-width:2px;"/><path d="M961.651,239.484l-0.761,2.006" style="fill:none;stroke:#7c41ba;stroke-width:2px;"/><path d="M971.393,250.06l-0.758,2.005" style="fill:none;stroke:#7c41ba;stroke-width:2px;"/><path d="M967.387,248.541l-0.759,2.005" style="fill:none;stroke:#7c41ba;stroke-width:2px;"/><path d="M963.38,247.02l-0.76,2.005" style="fill:none;stroke:#7c41ba;stroke-width:2px;"/><path d="M969.115,256.076l-0.758,2.006" style="fill:none;stroke:#7c41ba;stroke-width:2px;"/><path d="M965.107,254.557l-0.76,2.004" style="fill:none;stroke:#7c41ba;stroke-width:2px;"/><path d="M961.099,253.036l-0.758,2.005" style="fill:none;stroke:#7c41ba;stroke-width:2px;"/><path d="M957.093,251.515l-0.759,2.007" style="fill:none;stroke:#7c41ba;stroke-width:2px;"/><path d="M938.849,233.128l16.03,6.079" style="fill:none;stroke:#7c41ba;stroke-width:2px;"/><path d="M936.569,239.144l12.022,4.56" style="fill:none;stroke:#7c41ba;stroke-width:2px;"/><path d="M934.292,245.16l14.026,5.321" style="fill:none;stroke:#7c41ba;stroke-width:2px;"/><path d="M966.838,262.092l-0.761,2.006" style="fill:none;stroke:#7c41ba;stroke-width:2px;"/><path d="M962.83,260.572l-0.761,2.007" style="fill:none;stroke:#7c41ba;stroke-width:2px;"/><path d="M958.822,259.052l-0.761,2.005" style="fill:none;stroke:#7c41ba;stroke-width:2px;"/><path d="M954.815,257.531l-0.761,2.006" style="fill:none;stroke:#7c41ba;stroke-width:2px;"/><path d="M950.807,256.012l-0.76,2.005" style="fill:none;stroke:#7c41ba;stroke-width:2px;"/><path d="M932.012,251.175l8.016,3.04" style="fill:none;stroke:#7c41ba;stroke-width:2px;"/><path d="M964.557,268.109l-0.759,2.005" style="fill:none;stroke:#7c41ba;stroke-width:2px;"/><path d="M960.55,266.588l-0.758,2.007" style="fill:none;stroke:#7c41ba;stroke-width:2px;"/><path d="M929.733,257.191l20.04,7.603" style="fill:none;stroke:#7c41ba;stroke-width:2px;"/><path d="M944.213,276.445c-1.661,-0.63 -2.496,-2.487 -1.866,-4.147c0.63,-1.663 2.485,-2.499 4.146,-1.868c1.658,0.629 2.492,2.487 1.865,4.147" style="fill:none;stroke:#7c41ba;stroke-width:2px;"/><path d="M960.761,278.136c-0.63,1.662 -2.485,2.498 -4.145,1.868" style="fill:none;stroke:#7c41ba;stroke-width:2px;"/><path d="M947.979,275.579c0.629,-1.661 2.483,-2.497 4.144,-1.867" style="fill:none;stroke:#7c41ba;stroke-width:2px;"/><path d="M952.986,277.48c0.631,-1.662 2.487,-2.498 4.146,-1.868" style="fill:none;stroke:#7c41ba;stroke-width:2px;"/></g><g><path d="M886.005,422.748c-0.188,0.968 -1.125,1.601 -2.094,1.411l-44.869,-8.77c-0.465,-0.091 -0.875,-0.361 -1.14,-0.755c-0.264,-0.394 -0.362,-0.875 -0.271,-1.341l11.639,-59.635c0.19,-0.969 1.128,-1.601 2.096,-1.411l44.868,8.769c0.969,0.188 1.6,1.127 1.41,2.096l-11.639,59.636Z" style="fill:#fff;fill-rule:nonzero;stroke:#7c41ba;stroke-width:2px;"/><path d="M882.363,425.765c-0.169,0.443 -0.505,0.801 -0.937,0.995c-0.431,0.196 -0.923,0.21 -1.367,0.042l-42.747,-16.216c-0.922,-0.349 -1.386,-1.381 -1.037,-2.304l21.52,-56.82c0.167,-0.442 0.506,-0.801 0.938,-0.995c0.431,-0.194 0.922,-0.21 1.365,-0.041l42.749,16.216c0.922,0.35 1.386,1.382 1.036,2.305l-21.52,56.818Z" style="fill:#fff;fill-rule:nonzero;stroke:#7c41ba;stroke-width:2px;"/><path d="M894.583,375.357c-0.349,0.923 -1.38,1.387 -2.303,1.037l-30.726,-11.655c-0.923,-0.349 -1.386,-1.381 -1.038,-2.304l1.014,-2.674c0.167,-0.444 0.504,-0.803 0.937,-0.997c0.43,-0.194 0.923,-0.21 1.366,-0.041l30.725,11.657c0.443,0.167 0.801,0.503 0.995,0.936c0.196,0.432 0.21,0.924 0.043,1.368l-1.013,2.673Z" style="fill:#b999db;fill-rule:nonzero;stroke:#7c41ba;stroke-width:2px;"/><path d="M891.674,383.044l-0.761,2.005" style="fill:none;stroke:#7c41ba;stroke-width:2px;"/><path d="M887.666,381.525l-0.76,2.005" style="fill:none;stroke:#7c41ba;stroke-width:2px;"/><path d="M883.658,380.004l-0.76,2.005" style="fill:none;stroke:#7c41ba;stroke-width:2px;"/><path d="M879.651,378.484l-0.761,2.006" style="fill:none;stroke:#7c41ba;stroke-width:2px;"/><path d="M889.393,389.06l-0.758,2.005" style="fill:none;stroke:#7c41ba;stroke-width:2px;"/><path d="M885.387,387.541l-0.759,2.005" style="fill:none;stroke:#7c41ba;stroke-width:2px;"/><path d="M881.38,386.02l-0.76,2.005" style="fill:none;stroke:#7c41ba;stroke-width:2px;"/><path d="M887.115,395.076l-0.758,2.006" style="fill:none;stroke:#7c41ba;stroke-width:2px;"/><path d="M883.107,393.557l-0.76,2.004" style="fill:none;stroke:#7c41ba;stroke-width:2px;"/><path d="M879.099,392.036l-0.758,2.005" style="fill:none;stroke:#7c41ba;stroke-width:2px;"/><path d="M875.093,390.515l-0.759,2.007" style="fill:none;stroke:#7c41ba;stroke-width:2px;"/><path d="M856.849,372.128l16.03,6.079" style="fill:none;stroke:#7c41ba;stroke-width:2px;"/><path d="M854.569,378.144l12.022,4.56" style="fill:none;stroke:#7c41ba;stroke-width:2px;"/><path d="M852.292,384.16l14.026,5.321" style="fill:none;stroke:#7c41ba;stroke-width:2px;"/><path d="M884.838,401.092l-0.761,2.006" style="fill:none;stroke:#7c41ba;stroke-width:2px;"/><path d="M880.83,399.572l-0.761,2.007" style="fill:none;stroke:#7c41ba;stroke-width:2px;"/><path d="M876.822,398.052l-0.761,2.005" style="fill:none;stroke:#7c41ba;stroke-width:2px;"/><path d="M872.815,396.531l-0.761,2.006" style="fill:none;stroke:#7c41ba;stroke-width:2px;"/><path d="M868.807,395.012l-0.76,2.005" style="fill:none;stroke:#7c41ba;stroke-width:2px;"/><path d="M850.012,390.175l8.016,3.04" style="fill:none;stroke:#7c41ba;stroke-width:2px;"/><path d="M882.557,407.109l-0.759,2.005" style="fill:none;stroke:#7c41ba;stroke-width:2px;"/><path d="M878.55,405.588l-0.758,2.007" style="fill:none;stroke:#7c41ba;stroke-width:2px;"/><path d="M847.733,396.191l20.04,7.603" style="fill:none;stroke:#7c41ba;stroke-width:2px;"/><path d="M862.213,415.445c-1.661,-0.63 -2.496,-2.487 -1.866,-4.147c0.63,-1.663 2.485,-2.499 4.146,-1.868c1.658,0.629 2.492,2.487 1.865,4.147" style="fill:none;stroke:#7c41ba;stroke-width:2px;"/><path d="M878.761,417.136c-0.63,1.662 -2.485,2.498 -4.145,1.868" style="fill:none;stroke:#7c41ba;stroke-width:2px;"/><path d="M865.979,414.579c0.629,-1.661 2.483,-2.497 4.144,-1.867" style="fill:none;stroke:#7c41ba;stroke-width:2px;"/><path d="M870.986,416.48c0.631,-1.662 2.487,-2.498 4.146,-1.868" style="fill:none;stroke:#7c41ba;stroke-width:2px;"/></g><g><path d="M926.005,422.748c-0.188,0.968 -1.125,1.601 -2.094,1.411l-44.869,-8.77c-0.465,-0.091 -0.875,-0.361 -1.14,-0.755c-0.264,-0.394 -0.362,-0.875 -0.271,-1.341l11.639,-59.635c0.19,-0.969 1.128,-1.601 2.096,-1.411l44.868,8.769c0.969,0.188 1.6,1.127 1.41,2.096l-11.639,59.636Z" style="fill:#fff;fill-rule:nonzero;stroke:#7c41ba;stroke-width:2px;"/><path d="M922.363,425.765c-0.169,0.443 -0.505,0.801 -0.937,0.995c-0.431,0.196 -0.923,0.21 -1.367,0.042l-42.747,-16.216c-0.922,-0.349 -1.386,-1.381 -1.037,-2.304l21.52,-56.82c0.167,-0.442 0.506,-0.801 0.938,-0.995c0.431,-0.194 0.922,-0.21 1.365,-0.041l42.749,16.216c0.922,0.35 1.386,1.382 1.036,2.305l-21.52,56.818Z" style="fill:#fff;fill-rule:nonzero;stroke:#7c41ba;stroke-width:2px;"/><path d="M934.583,375.357c-0.349,0.923 -1.38,1.387 -2.303,1.037l-30.726,-11.655c-0.923,-0.349 -1.386,-1.381 -1.038,-2.304l1.014,-2.674c0.167,-0.444 0.504,-0.803 0.937,-0.997c0.43,-0.194 0.923,-0.21 1.366,-0.041l30.725,11.657c0.443,0.167 0.801,0.503 0.995,0.936c0.196,0.432 0.21,0.924 0.043,1.368l-1.013,2.673Z" style="fill:#b999db;fill-rule:nonzero;stroke:#7c41ba;stroke-width:2px;"/><path d="M931.674,383.044l-0.761,2.005" style="fill:none;stroke:#7c41ba;stroke-width:2px;"/><path d="M927.666,381.525l-0.76,2.005" style="fill:none;stroke:#7c41ba;stroke-width:2px;"/><path d="M923.658,380.004l-0.76,2.005" style="fill:none;stroke:#7c41ba;stroke-width:2px;"/><path d="M919.651,378.484l-0.761,2.006" style="fill:none;stroke:#7c41ba;stroke-width:2px;"/><path d="M929.393,389.06l-0.758,2.005" style="fill:none;stroke:#7c41ba;stroke-width:2px;"/><path d="M925.387,387.541l-0.759,2.005" style="fill:none;stroke:#7c41ba;stroke-width:2px;"/><path d="M921.38,386.02l-0.76,2.005" style="fill:none;stroke:#7c41ba;stroke-width:2px;"/><path d="M927.115,395.076l-0.758,2.006" style="fill:none;stroke:#7c41ba;stroke-width:2px;"/><path d="M923.107,393.557l-0.76,2.004" style="fill:none;stroke:#7c41ba;stroke-width:2px;"/><path d="M919.099,392.036l-0.758,2.005" style="fill:none;stroke:#7c41ba;stroke-width:2px;"/><path d="M915.093,390.515l-0.759,2.007" style="fill:none;stroke:#7c41ba;stroke-width:2px;"/><path d="M896.849,372.128l16.03,6.079" style="fill:none;stroke:#7c41ba;stroke-width:2px;"/><path d="M894.569,378.144l12.022,4.56" style="fill:none;stroke:#7c41ba;stroke-width:2px;"/><path d="M892.292,384.16l14.026,5.321" style="fill:none;stroke:#7c41ba;stroke-width:2px;"/><path d="M924.838,401.092l-0.761,2.006" style="fill:none;stroke:#7c41ba;stroke-width:2px;"/><path d="M920.83,399.572l-0.761,2.007" style="fill:none;stroke:#7c41ba;stroke-width:2px;"/><path d="M916.822,398.052l-0.761,2.005" style="fill:none;stroke:#7c41ba;stroke-width:2px;"/><path d="M912.815,396.531l-0.761,2.006" style="fill:none;stroke:#7c41ba;stroke-width:2px;"/><path d="M908.807,395.012l-0.76,2.005" style="fill:none;stroke:#7c41ba;stroke-width:2px;"/><path d="M890.012,390.175l8.016,3.04" style="fill:none;stroke:#7c41ba;stroke-width:2px;"/><path d="M922.557,407.109l-0.759,2.005" style="fill:none;stroke:#7c41ba;stroke-width:2px;"/><path d="M918.55,405.588l-0.758,2.007" style="fill:none;stroke:#7c41ba;stroke-width:2px;"/><path d="M887.733,396.191l20.04,7.603" style="fill:none;stroke:#7c41ba;stroke-width:2px;"/><path d="M902.213,415.445c-1.661,-0.63 -2.496,-2.487 -1.866,-4.147c0.63,-1.663 2.485,-2.499 4.146,-1.868c1.658,0.629 2.492,2.487 1.865,4.147" style="fill:none;stroke:#7c41ba;stroke-width:2px;"/><path d="M918.761,417.136c-0.63,1.662 -2.485,2.498 -4.145,1.868" style="fill:none;stroke:#7c41ba;stroke-width:2px;"/><path d="M905.979,414.579c0.629,-1.661 2.483,-2.497 4.144,-1.867" style="fill:none;stroke:#7c41ba;stroke-width:2px;"/><path d="M910.986,416.48c0.631,-1.662 2.487,-2.498 4.146,-1.868" style="fill:none;stroke:#7c41ba;stroke-width:2px;"/></g><g><path d="M968.005,422.748c-0.188,0.968 -1.125,1.601 -2.094,1.411l-44.869,-8.77c-0.465,-0.091 -0.875,-0.361 -1.14,-0.755c-0.264,-0.394 -0.362,-0.875 -0.271,-1.341l11.639,-59.635c0.19,-0.969 1.128,-1.601 2.096,-1.411l44.868,8.769c0.969,0.188 1.6,1.127 1.41,2.096l-11.639,59.636Z" style="fill:#fff;fill-rule:nonzero;stroke:#7c41ba;stroke-width:2px;"/><path d="M964.363,425.765c-0.169,0.443 -0.505,0.801 -0.937,0.995c-0.431,0.196 -0.923,0.21 -1.367,0.042l-42.747,-16.216c-0.922,-0.349 -1.386,-1.381 -1.037,-2.304l21.52,-56.82c0.167,-0.442 0.506,-0.801 0.938,-0.995c0.431,-0.194 0.922,-0.21 1.365,-0.041l42.749,16.216c0.922,0.35 1.386,1.382 1.036,2.305l-21.52,56.818Z" style="fill:#fff;fill-rule:nonzero;stroke:#7c41ba;stroke-width:2px;"/><path d="M976.583,375.357c-0.349,0.923 -1.38,1.387 -2.303,1.037l-30.726,-11.655c-0.923,-0.349 -1.386,-1.381 -1.038,-2.304l1.014,-2.674c0.167,-0.444 0.504,-0.803 0.937,-0.997c0.43,-0.194 0.923,-0.21 1.366,-0.041l30.725,11.657c0.443,0.167 0.801,0.503 0.995,0.936c0.196,0.432 0.21,0.924 0.043,1.368l-1.013,2.673Z" style="fill:#b999db;fill-rule:nonzero;stroke:#7c41ba;stroke-width:2px;"/><path d="M973.674,383.044l-0.761,2.005" style="fill:none;stroke:#7c41ba;stroke-width:2px;"/><path d="M969.666,381.525l-0.76,2.005" style="fill:none;stroke:#7c41ba;stroke-width:2px;"/><path d="M965.658,380.004l-0.76,2.005" style="fill:none;stroke:#7c41ba;stroke-width:2px;"/><path d="M961.651,378.484l-0.761,2.006" style="fill:none;stroke:#7c41ba;stroke-width:2px;"/><path d="M971.393,389.06l-0.758,2.005" style="fill:none;stroke:#7c41ba;stroke-width:2px;"/><path d="M967.387,387.541l-0.759,2.005" style="fill:none;stroke:#7c41ba;stroke-width:2px;"/><path d="M963.38,386.02l-0.76,2.005" style="fill:none;stroke:#7c41ba;stroke-width:2px;"/><path d="M969.115,395.076l-0.758,2.006" style="fill:none;stroke:#7c41ba;stroke-width:2px;"/><path d="M965.107,393.557l-0.76,2.004" style="fill:none;stroke:#7c41ba;stroke-width:2px;"/><path d="M961.099,392.036l-0.758,2.005" style="fill:none;stroke:#7c41ba;stroke-width:2px;"/><path d="M957.093,390.515l-0.759,2.007" style="fill:none;stroke:#7c41ba;stroke-width:2px;"/><path d="M938.849,372.128l16.03,6.079" style="fill:none;stroke:#7c41ba;stroke-width:2px;"/><path d="M936.569,378.144l12.022,4.56" style="fill:none;stroke:#7c41ba;stroke-width:2px;"/><path d="M934.292,384.16l14.026,5.321" style="fill:none;stroke:#7c41ba;stroke-width:2px;"/><path d="M966.838,401.092l-0.761,2.006" style="fill:none;stroke:#7c41ba;stroke-width:2px;"/><path d="M962.83,399.572l-0.761,2.007" style="fill:none;stroke:#7c41ba;stroke-width:2px;"/><path d="M958.822,398.052l-0.761,2.005" style="fill:none;stroke:#7c41ba;stroke-width:2px;"/><path d="M954.815,396.531l-0.761,2.006" style="fill:none;stroke:#7c41ba;stroke-width:2px;"/><path d="M950.807,395.012l-0.76,2.005" style="fill:none;stroke:#7c41ba;stroke-width:2px;"/><path d="M932.012,390.175l8.016,3.04" style="fill:none;stroke:#7c41ba;stroke-width:2px;"/><path d="M964.557,407.109l-0.759,2.005" style="fill:none;stroke:#7c41ba;stroke-width:2px;"/><path d="M960.55,405.588l-0.758,2.007" style="fill:none;stroke:#7c41ba;stroke-width:2px;"/><path d="M929.733,396.191l20.04,7.603" style="fill:none;stroke:#7c41ba;stroke-width:2px;"/><path d="M944.213,415.445c-1.661,-0.63 -2.496,-2.487 -1.866,-4.147c0.63,-1.663 2.485,-2.499 4.146,-1.868c1.658,0.629 2.492,2.487 1.865,4.147" style="fill:none;stroke:#7c41ba;stroke-width:2px;"/><path d="M960.761,417.136c-0.63,1.662 -2.485,2.498 -4.145,1.868" style="fill:none;stroke:#7c41ba;stroke-width:2px;"/><path d="M947.979,414.579c0.629,-1.661 2.483,-2.497 4.144,-1.867" style="fill:none;stroke:#7c41ba;stroke-width:2px;"/><path d="M952.986,416.48c0.631,-1.662 2.487,-2.498 4.146,-1.868" style="fill:none;stroke:#7c41ba;stroke-width:2px;"/></g><g><path d="M1014,283.748c-0.188,0.968 -1.125,1.601 -2.094,1.411l-44.869,-8.77c-0.465,-0.091 -0.875,-0.361 -1.14,-0.755c-0.264,-0.394 -0.362,-0.875 -0.271,-1.341l11.639,-59.635c0.19,-0.969 1.128,-1.601 2.096,-1.411l44.868,8.769c0.969,0.188 1.6,1.127 1.41,2.096l-11.639,59.636Z" style="fill:#fff;fill-rule:nonzero;stroke:#7c41ba;stroke-width:2px;"/><path d="M1010.36,286.765c-0.169,0.443 -0.505,0.801 -0.937,0.995c-0.431,0.196 -0.923,0.21 -1.367,0.042l-42.747,-16.216c-0.922,-0.349 -1.386,-1.381 -1.037,-2.304l21.52,-56.82c0.167,-0.442 0.506,-0.801 0.938,-0.995c0.431,-0.194 0.922,-0.21 1.365,-0.041l42.749,16.216c0.922,0.35 1.386,1.382 1.036,2.305l-21.52,56.818Z" style="fill:#fff;fill-rule:nonzero;stroke:#7c41ba;stroke-width:2px;"/><path d="M1022.58,236.357c-0.349,0.923 -1.38,1.387 -2.303,1.037l-30.726,-11.655c-0.923,-0.349 -1.386,-1.381 -1.038,-2.304l1.014,-2.674c0.167,-0.444 0.504,-0.803 0.937,-0.997c0.43,-0.194 0.923,-0.21 1.366,-0.041l30.725,11.657c0.443,0.167 0.801,0.503 0.995,0.936c0.196,0.432 0.21,0.924 0.043,1.368l-1.013,2.673Z" style="fill:#b999db;fill-rule:nonzero;stroke:#7c41ba;stroke-width:2px;"/><path d="M1019.67,244.044l-0.761,2.005" style="fill:none;stroke:#7c41ba;stroke-width:2px;"/><path d="M1015.67,242.525l-0.76,2.005" style="fill:none;stroke:#7c41ba;stroke-width:2px;"/><path d="M1011.66,241.004l-0.76,2.005" style="fill:none;stroke:#7c41ba;stroke-width:2px;"/><path d="M1007.65,239.484l-0.761,2.006" style="fill:none;stroke:#7c41ba;stroke-width:2px;"/><path d="M1017.39,250.06l-0.758,2.005" style="fill:none;stroke:#7c41ba;stroke-width:2px;"/><path d="M1013.39,248.541l-0.759,2.005" style="fill:none;stroke:#7c41ba;stroke-width:2px;"/><path d="M1009.38,247.02l-0.76,2.005" style="fill:none;stroke:#7c41ba;stroke-width:2px;"/><path d="M1015.12,256.076l-0.758,2.006" style="fill:none;stroke:#7c41ba;stroke-width:2px;"/><path d="M1011.11,254.557l-0.76,2.004" style="fill:none;stroke:#7c41ba;stroke-width:2px;"/><path d="M1007.1,253.036l-0.758,2.005" style="fill:none;stroke:#7c41ba;stroke-width:2px;"/><path d="M1003.09,251.515l-0.759,2.007" style="fill:none;stroke:#7c41ba;stroke-width:2px;"/><path d="M984.849,233.128l16.03,6.079" style="fill:none;stroke:#7c41ba;stroke-width:2px;"/><path d="M982.569,239.144l12.022,4.56" style="fill:none;stroke:#7c41ba;stroke-width:2px;"/><path d="M980.292,245.16l14.026,5.321" style="fill:none;stroke:#7c41ba;stroke-width:2px;"/><path d="M1012.84,262.092l-0.761,2.006" style="fill:none;stroke:#7c41ba;stroke-width:2px;"/><path d="M1008.83,260.572l-0.761,2.007" style="fill:none;stroke:#7c41ba;stroke-width:2px;"/><path d="M1004.82,259.052l-0.761,2.005" style="fill:none;stroke:#7c41ba;stroke-width:2px;"/><path d="M1000.82,257.531l-0.761,2.006" style="fill:none;stroke:#7c41ba;stroke-width:2px;"/><path d="M996.807,256.012l-0.76,2.005" style="fill:none;stroke:#7c41ba;stroke-width:2px;"/><path d="M978.012,251.175l8.016,3.04" style="fill:none;stroke:#7c41ba;stroke-width:2px;"/><path d="M1010.56,268.109l-0.759,2.005" style="fill:none;stroke:#7c41ba;stroke-width:2px;"/><path d="M1006.55,266.588l-0.758,2.007" style="fill:none;stroke:#7c41ba;stroke-width:2px;"/><path d="M975.733,257.191l20.04,7.603" style="fill:none;stroke:#7c41ba;stroke-width:2px;"/><path d="M990.213,276.445c-1.661,-0.63 -2.496,-2.487 -1.866,-4.147c0.63,-1.663 2.485,-2.499 4.146,-1.868c1.658,0.629 2.492,2.487 1.865,4.147" style="fill:none;stroke:#7c41ba;stroke-width:2px;"/><path d="M1006.76,278.136c-0.63,1.662 -2.485,2.498 -4.145,1.868" style="fill:none;stroke:#7c41ba;stroke-width:2px;"/><path d="M993.979,275.579c0.629,-1.661 2.483,-2.497 4.144,-1.867" style="fill:none;stroke:#7c41ba;stroke-width:2px;"/><path d="M998.986,277.48c0.631,-1.662 2.487,-2.498 4.146,-1.868" style="fill:none;stroke:#7c41ba;stroke-width:2px;"/></g><g><path d="M893.117,277.83c1.48,6.492 -1.737,13.141 -7.744,16.011c-6.005,2.87 -13.2,1.194 -17.318,-4.036c-4.12,-5.228 -4.067,-12.614 0.129,-17.78c4.195,-5.17 11.413,-6.741 17.377,-3.781" style="fill:#fff;fill-rule:nonzero;stroke:#fff;stroke-width:2px;stroke-miterlimit:4;"/><path d="M891.18,278.886c1.22,5.352 -1.432,10.833 -6.384,13.199c-4.951,2.366 -10.882,0.985 -14.277,-3.327c-3.397,-4.31 -3.353,-10.399 0.106,-14.658c3.459,-4.262 9.409,-5.557 14.326,-3.117" style="fill:#fff;fill-rule:nonzero;stroke:#7c41ba;stroke-width:2px;stroke-miterlimit:4;"/><path d="M898,263.234l-18.923,23.49l-6.524,-6.524" style="fill:none;stroke:#7c41ba;stroke-width:2px;stroke-miterlimit:4;"/></g><g><path d="M933.117,277.83c1.48,6.492 -1.737,13.141 -7.744,16.011c-6.005,2.87 -13.2,1.194 -17.318,-4.036c-4.12,-5.228 -4.067,-12.614 0.129,-17.78c4.195,-5.17 11.413,-6.741 17.377,-3.781" style="fill:#fff;fill-rule:nonzero;stroke:#fff;stroke-width:2px;stroke-miterlimit:4;"/><path d="M931.18,278.886c1.22,5.352 -1.432,10.833 -6.384,13.199c-4.951,2.366 -10.882,0.985 -14.277,-3.327c-3.397,-4.31 -3.353,-10.399 0.106,-14.658c3.459,-4.262 9.409,-5.557 14.326,-3.117" style="fill:#fff;fill-rule:nonzero;stroke:#7c41ba;stroke-width:2px;stroke-miterlimit:4;"/><path d="M938,263.234l-18.923,23.49l-6.524,-6.524" style="fill:none;stroke:#7c41ba;stroke-width:2px;stroke-miterlimit:4;"/></g><g><path d="M973.117,277.83c1.48,6.492 -1.737,13.141 -7.744,16.011c-6.005,2.87 -13.2,1.194 -17.318,-4.036c-4.12,-5.228 -4.067,-12.614 0.129,-17.78c4.195,-5.17 11.413,-6.741 17.377,-3.781" style="fill:#fff;fill-rule:nonzero;stroke:#fff;stroke-width:2px;stroke-miterlimit:4;"/><path d="M971.18,278.886c1.22,5.352 -1.432,10.833 -6.384,13.199c-4.951,2.366 -10.882,0.985 -14.277,-3.327c-3.397,-4.31 -3.353,-10.399 0.106,-14.658c3.459,-4.262 9.409,-5.557 14.326,-3.117" style="fill:#fff;fill-rule:nonzero;stroke:#7c41ba;stroke-width:2px;stroke-miterlimit:4;"/><path d="M978,263.234l-18.923,23.49l-6.524,-6.524" style="fill:none;stroke:#7c41ba;stroke-width:2px;stroke-miterlimit:4;"/></g><g><path d="M1015.12,277.83c1.48,6.492 -1.737,13.141 -7.744,16.011c-6.005,2.87 -13.2,1.194 -17.318,-4.036c-4.12,-5.228 -4.067,-12.614 0.129,-17.78c4.195,-5.17 11.413,-6.741 17.377,-3.781" style="fill:#fff;fill-rule:nonzero;stroke:#fff;stroke-width:2px;stroke-miterlimit:4;"/><path d="M1013.18,278.886c1.22,5.352 -1.432,10.833 -6.384,13.199c-4.951,2.366 -10.882,0.985 -14.277,-3.327c-3.397,-4.31 -3.353,-10.399 0.106,-14.658c3.459,-4.262 9.409,-5.557 14.326,-3.117" style="fill:#fff;fill-rule:nonzero;stroke:#7c41ba;stroke-width:2px;stroke-miterlimit:4;"/><path d="M1020,263.234l-18.923,23.49l-6.524,-6.524" style="fill:none;stroke:#7c41ba;stroke-width:2px;stroke-miterlimit:4;"/></g><g><circle cx="880.5" cy="420.404" r="11.5" style="fill:#fff;stroke:#7c41ba;stroke-width:2px;stroke-miterlimit:1.5;"/><path d="M875.904,415.808l9.192,9.192" style="fill:none;stroke:#7c41ba;stroke-width:2px;stroke-miterlimit:1.5;"/><path d="M875.904,425l9.192,-9.192" style="fill:none;stroke:#7c41ba;stroke-width:2px;stroke-miterlimit:1.5;"/></g><g><circle cx="916.5" cy="420.404" r="11.5" style="fill:#fff;stroke:#7c41ba;stroke-width:2px;stroke-miterlimit:1.5;"/><path d="M911.904,415.808l9.193,9.192" style="fill:none;stroke:#7c41ba;stroke-width:2px;stroke-miterlimit:1.5;"/><path d="M911.904,425l9.193,-9.192" style="fill:none;stroke:#7c41ba;stroke-width:2px;stroke-miterlimit:1.5;"/></g><g><circle cx="956.5" cy="420.404" r="11.5" style="fill:#fff;stroke:#7c41ba;stroke-width:2px;stroke-miterlimit:1.5;"/><path d="M951.904,415.808l9.193,9.192" style="fill:none;stroke:#7c41ba;stroke-width:2px;stroke-miterlimit:1.5;"/><path d="M951.904,425l9.193,-9.192" style="fill:none;stroke:#7c41ba;stroke-width:2px;stroke-miterlimit:1.5;"/></g></g><g id="Ebene-17" serif:id="Ebene 1"><g><path d="M735.25,321.232c0,-68.989 -56.011,-125 -125,-125c-68.99,0 -125,56.011 -125,125c0,68.99 56.01,125 125,125c68.989,0 125,-56.01 125,-125Z" style="fill:none;stroke:#7c41ba;stroke-width:2px;"/><path d="M739.13,306.044c0,2.319 -1.879,4.2 -4.199,4.2c-2.32,0 -4.2,-1.881 -4.2,-4.2l0,-2.1c0,-2.32 1.88,-4.2 4.2,-4.2c2.32,0 4.199,1.88 4.199,4.2l0,2.1Z" style="fill:#e3d7ef;fill-rule:nonzero;stroke:#7c41ba;stroke-width:2px;"/><path d="M734.931,312.045c-4.639,0 -9.1,3.761 -9.1,8.399l0,9.8c0,1.16 0.941,2.101 2.1,2.101c1.159,0 2.1,-0.941 2.1,-2.101l1.195,14.923c0.115,1.455 1.331,2.577 2.79,2.577l1.831,0c1.459,0 2.674,-1.122 2.789,-2.577l1.195,-14.923c0,1.16 0.941,2.101 2.101,2.101c1.158,0 2.099,-0.941 2.099,-2.101l0,-9.8c0,-4.638 -4.46,-8.399 -9.1,-8.399" style="fill:#e3d7ef;fill-rule:nonzero;"/><path d="M734.931,312.045c-4.639,0 -9.1,3.761 -9.1,8.399l0,9.8c0,1.16 0.941,2.101 2.1,2.101c1.159,0 2.1,-0.941 2.1,-2.101l1.195,14.923c0.115,1.455 1.331,2.577 2.79,2.577l1.831,0c1.459,0 2.674,-1.122 2.789,-2.577l1.195,-14.923c0,1.16 0.941,2.101 2.101,2.101c1.158,0 2.099,-0.941 2.099,-2.101l0,-9.8c0,-4.638 -4.46,-8.399 -9.1,-8.399Z" style="fill:none;stroke:#7c41ba;stroke-width:2px;"/><path d="M725.38,242.794c0,2.319 -1.879,4.2 -4.199,4.2c-2.32,0 -4.2,-1.881 -4.2,-4.2l0,-2.1c0,-2.32 1.88,-4.2 4.2,-4.2c2.32,0 4.199,1.88 4.199,4.2l0,2.1Z" style="fill:#e3d7ef;fill-rule:nonzero;stroke:#7c41ba;stroke-width:2px;"/><path d="M721.181,248.795c-4.639,0 -9.1,3.761 -9.1,8.399l0,9.8c0,1.16 0.941,2.101 2.1,2.101c1.159,0 2.1,-0.941 2.1,-2.101l1.195,14.923c0.115,1.455 1.331,2.577 2.79,2.577l1.831,0c1.459,0 2.674,-1.122 2.789,-2.577l1.195,-14.923c0,1.16 0.941,2.101 2.101,2.101c1.158,0 2.099,-0.941 2.099,-2.101l0,-9.8c0,-4.638 -4.46,-8.399 -9.1,-8.399" style="fill:#e3d7ef;fill-rule:nonzero;"/><path d="M721.181,248.795c-4.639,0 -9.1,3.761 -9.1,8.399l0,9.8c0,1.16 0.941,2.101 2.1,2.101c1.159,0 2.1,-0.941 2.1,-2.101l1.195,14.923c0.115,1.455 1.331,2.577 2.79,2.577l1.831,0c1.459,0 2.674,-1.122 2.789,-2.577l1.195,-14.923c0,1.16 0.941,2.101 2.101,2.101c1.158,0 2.099,-0.941 2.099,-2.101l0,-9.8c0,-4.638 -4.46,-8.399 -9.1,-8.399Z" style="fill:none;stroke:#7c41ba;stroke-width:2px;"/><path d="M675.88,189.044c0,2.319 -1.879,4.2 -4.199,4.2c-2.32,0 -4.2,-1.881 -4.2,-4.2l0,-2.1c0,-2.32 1.88,-4.2 4.2,-4.2c2.32,0 4.199,1.88 4.199,4.2l0,2.1Z" style="fill:#e3d7ef;fill-rule:nonzero;stroke:#7c41ba;stroke-width:2px;"/><path d="M671.681,195.045c-4.639,0 -9.1,3.761 -9.1,8.399l0,9.8c0,1.16 0.941,2.101 2.1,2.101c1.159,0 2.1,-0.941 2.1,-2.101l1.195,14.923c0.115,1.455 1.331,2.577 2.79,2.577l1.831,0c1.459,0 2.674,-1.122 2.789,-2.577l1.195,-14.923c0,1.16 0.941,2.101 2.101,2.101c1.158,0 2.099,-0.941 2.099,-2.101l0,-9.8c0,-4.638 -4.46,-8.399 -9.1,-8.399" style="fill:#e3d7ef;fill-rule:nonzero;"/><path d="M671.681,195.045c-4.639,0 -9.1,3.761 -9.1,8.399l0,9.8c0,1.16 0.941,2.101 2.1,2.101c1.159,0 2.1,-0.941 2.1,-2.101l1.195,14.923c0.115,1.455 1.331,2.577 2.79,2.577l1.831,0c1.459,0 2.674,-1.122 2.789,-2.577l1.195,-14.923c0,1.16 0.941,2.101 2.101,2.101c1.158,0 2.099,-0.941 2.099,-2.101l0,-9.8c0,-4.638 -4.46,-8.399 -9.1,-8.399Z" style="fill:none;stroke:#7c41ba;stroke-width:2px;"/><path d="M612.38,174.294c0,2.319 -1.879,4.2 -4.199,4.2c-2.32,0 -4.2,-1.881 -4.2,-4.2l0,-2.1c0,-2.32 1.88,-4.2 4.2,-4.2c2.32,0 4.199,1.88 4.199,4.2l0,2.1Z" style="fill:#e3d7ef;fill-rule:nonzero;stroke:#7c41ba;stroke-width:2px;"/><path d="M608.181,180.295c-4.639,0 -9.1,3.761 -9.1,8.399l0,9.8c0,1.16 0.941,2.101 2.1,2.101c1.159,0 2.1,-0.941 2.1,-2.101l1.195,14.923c0.115,1.455 1.331,2.577 2.79,2.577l1.831,0c1.459,0 2.674,-1.122 2.789,-2.577l1.195,-14.923c0,1.16 0.941,2.101 2.101,2.101c1.158,0 2.099,-0.941 2.099,-2.101l0,-9.8c0,-4.638 -4.46,-8.399 -9.1,-8.399" style="fill:#e3d7ef;fill-rule:nonzero;"/><path d="M608.181,180.295c-4.639,0 -9.1,3.761 -9.1,8.399l0,9.8c0,1.16 0.941,2.101 2.1,2.101c1.159,0 2.1,-0.941 2.1,-2.101l1.195,14.923c0.115,1.455 1.331,2.577 2.79,2.577l1.831,0c1.459,0 2.674,-1.122 2.789,-2.577l1.195,-14.923c0,1.16 0.941,2.101 2.101,2.101c1.158,0 2.099,-0.941 2.099,-2.101l0,-9.8c0,-4.638 -4.46,-8.399 -9.1,-8.399Z" style="fill:none;stroke:#7c41ba;stroke-width:2px;"/><path d="M550.63,191.294c0,2.319 -1.879,4.2 -4.199,4.2c-2.32,0 -4.2,-1.881 -4.2,-4.2l0,-2.1c0,-2.32 1.88,-4.2 4.2,-4.2c2.32,0 4.199,1.88 4.199,4.2l0,2.1Z" style="fill:#e3d7ef;fill-rule:nonzero;stroke:#7c41ba;stroke-width:2px;"/><path d="M546.431,197.295c-4.639,0 -9.1,3.761 -9.1,8.399l0,9.8c0,1.16 0.941,2.101 2.1,2.101c1.159,0 2.1,-0.941 2.1,-2.101l1.195,14.923c0.115,1.455 1.331,2.577 2.79,2.577l1.831,0c1.459,0 2.674,-1.122 2.789,-2.577l1.195,-14.923c0,1.16 0.941,2.101 2.101,2.101c1.158,0 2.099,-0.941 2.099,-2.101l0,-9.8c0,-4.638 -4.46,-8.399 -9.1,-8.399" style="fill:#e3d7ef;fill-rule:nonzero;"/><path d="M546.431,197.295c-4.639,0 -9.1,3.761 -9.1,8.399l0,9.8c0,1.16 0.941,2.101 2.1,2.101c1.159,0 2.1,-0.941 2.1,-2.101l1.195,14.923c0.115,1.455 1.331,2.577 2.79,2.577l1.831,0c1.459,0 2.674,-1.122 2.789,-2.577l1.195,-14.923c0,1.16 0.941,2.101 2.101,2.101c1.158,0 2.099,-0.941 2.099,-2.101l0,-9.8c0,-4.638 -4.46,-8.399 -9.1,-8.399Z" style="fill:none;stroke:#7c41ba;stroke-width:2px;"/><path d="M505.13,238.294c0,2.319 -1.879,4.2 -4.199,4.2c-2.32,0 -4.2,-1.881 -4.2,-4.2l0,-2.1c0,-2.32 1.88,-4.2 4.2,-4.2c2.32,0 4.199,1.88 4.199,4.2l0,2.1Z" style="fill:#e3d7ef;fill-rule:nonzero;stroke:#7c41ba;stroke-width:2px;"/><path d="M500.931,244.295c-4.639,0 -9.1,3.761 -9.1,8.399l0,9.8c0,1.16 0.941,2.101 2.1,2.101c1.159,0 2.1,-0.941 2.1,-2.101l1.195,14.923c0.115,1.455 1.331,2.577 2.79,2.577l1.831,0c1.459,0 2.674,-1.122 2.789,-2.577l1.195,-14.923c0,1.16 0.941,2.101 2.101,2.101c1.158,0 2.099,-0.941 2.099,-2.101l0,-9.8c0,-4.638 -4.46,-8.399 -9.1,-8.399" style="fill:#e3d7ef;fill-rule:nonzero;"/><path d="M500.931,244.295c-4.639,0 -9.1,3.761 -9.1,8.399l0,9.8c0,1.16 0.941,2.101 2.1,2.101c1.159,0 2.1,-0.941 2.1,-2.101l1.195,14.923c0.115,1.455 1.331,2.577 2.79,2.577l1.831,0c1.459,0 2.674,-1.122 2.789,-2.577l1.195,-14.923c0,1.16 0.941,2.101 2.101,2.101c1.158,0 2.099,-0.941 2.099,-2.101l0,-9.8c0,-4.638 -4.46,-8.399 -9.1,-8.399Z" style="fill:none;stroke:#7c41ba;stroke-width:2px;"/><path d="M489.88,300.544c0,2.319 -1.879,4.2 -4.199,4.2c-2.32,0 -4.2,-1.881 -4.2,-4.2l0,-2.1c0,-2.32 1.88,-4.2 4.2,-4.2c2.32,0 4.199,1.88 4.199,4.2l0,2.1Z" style="fill:#e3d7ef;fill-rule:nonzero;stroke:#7c41ba;stroke-width:2px;"/><path d="M485.681,306.545c-4.639,0 -9.1,3.761 -9.1,8.399l0,9.8c0,1.16 0.941,2.101 2.1,2.101c1.159,0 2.1,-0.941 2.1,-2.101l1.195,14.923c0.115,1.455 1.331,2.577 2.79,2.577l1.831,0c1.459,0 2.674,-1.122 2.789,-2.577l1.195,-14.923c0,1.16 0.941,2.101 2.101,2.101c1.158,0 2.099,-0.941 2.099,-2.101l0,-9.8c0,-4.638 -4.46,-8.399 -9.1,-8.399" style="fill:#e3d7ef;fill-rule:nonzero;"/><path d="M485.681,306.545c-4.639,0 -9.1,3.761 -9.1,8.399l0,9.8c0,1.16 0.941,2.101 2.1,2.101c1.159,0 2.1,-0.941 2.1,-2.101l1.195,14.923c0.115,1.455 1.331,2.577 2.79,2.577l1.831,0c1.459,0 2.674,-1.122 2.789,-2.577l1.195,-14.923c0,1.16 0.941,2.101 2.101,2.101c1.158,0 2.099,-0.941 2.099,-2.101l0,-9.8c0,-4.638 -4.46,-8.399 -9.1,-8.399Z" style="fill:none;stroke:#7c41ba;stroke-width:2px;"/><path d="M507.88,363.294c0,2.319 -1.879,4.2 -4.199,4.2c-2.32,0 -4.2,-1.881 -4.2,-4.2l0,-2.1c0,-2.32 1.88,-4.2 4.2,-4.2c2.32,0 4.199,1.88 4.199,4.2l0,2.1Z" style="fill:#e3d7ef;fill-rule:nonzero;stroke:#7c41ba;stroke-width:2px;"/><path d="M503.681,369.295c-4.639,0 -9.1,3.761 -9.1,8.399l0,9.8c0,1.16 0.941,2.101 2.1,2.101c1.159,0 2.1,-0.941 2.1,-2.101l1.195,14.923c0.115,1.455 1.331,2.577 2.79,2.577l1.831,0c1.459,0 2.674,-1.122 2.789,-2.577l1.195,-14.923c0,1.16 0.941,2.101 2.101,2.101c1.158,0 2.099,-0.941 2.099,-2.101l0,-9.8c0,-4.638 -4.46,-8.399 -9.1,-8.399" style="fill:#e3d7ef;fill-rule:nonzero;"/><path d="M503.681,369.295c-4.639,0 -9.1,3.761 -9.1,8.399l0,9.8c0,1.16 0.941,2.101 2.1,2.101c1.159,0 2.1,-0.941 2.1,-2.101l1.195,14.923c0.115,1.455 1.331,2.577 2.79,2.577l1.831,0c1.459,0 2.674,-1.122 2.789,-2.577l1.195,-14.923c0,1.16 0.941,2.101 2.101,2.101c1.158,0 2.099,-0.941 2.099,-2.101l0,-9.8c0,-4.638 -4.46,-8.399 -9.1,-8.399Z" style="fill:none;stroke:#7c41ba;stroke-width:2px;"/><path d="M550.38,406.294c0,2.319 -1.879,4.2 -4.199,4.2c-2.32,0 -4.2,-1.881 -4.2,-4.2l0,-2.1c0,-2.32 1.88,-4.2 4.2,-4.2c2.32,0 4.199,1.88 4.199,4.2l0,2.1Z" style="fill:#e3d7ef;fill-rule:nonzero;stroke:#7c41ba;stroke-width:2px;"/><path d="M546.181,412.295c-4.639,0 -9.1,3.761 -9.1,8.399l0,9.8c0,1.16 0.941,2.101 2.1,2.101c1.159,0 2.1,-0.941 2.1,-2.101l1.195,14.923c0.115,1.455 1.331,2.577 2.79,2.577l1.831,0c1.459,0 2.674,-1.122 2.789,-2.577l1.195,-14.923c0,1.16 0.941,2.101 2.101,2.101c1.158,0 2.099,-0.941 2.099,-2.101l0,-9.8c0,-4.638 -4.46,-8.399 -9.1,-8.399" style="fill:#e3d7ef;fill-rule:nonzero;"/><path d="M546.181,412.295c-4.639,0 -9.1,3.761 -9.1,8.399l0,9.8c0,1.16 0.941,2.101 2.1,2.101c1.159,0 2.1,-0.941 2.1,-2.101l1.195,14.923c0.115,1.455 1.331,2.577 2.79,2.577l1.831,0c1.459,0 2.674,-1.122 2.789,-2.577l1.195,-14.923c0,1.16 0.941,2.101 2.101,2.101c1.158,0 2.099,-0.941 2.099,-2.101l0,-9.8c0,-4.638 -4.46,-8.399 -9.1,-8.399Z" style="fill:none;stroke:#7c41ba;stroke-width:2px;"/><path d="M616.38,424.794c0,2.319 -1.879,4.2 -4.199,4.2c-2.32,0 -4.2,-1.881 -4.2,-4.2l0,-2.1c0,-2.32 1.88,-4.2 4.2,-4.2c2.32,0 4.199,1.88 4.199,4.2l0,2.1Z" style="fill:#e3d7ef;fill-rule:nonzero;stroke:#7c41ba;stroke-width:2px;"/><path d="M612.181,430.795c-4.639,0 -9.1,3.761 -9.1,8.399l0,9.8c0,1.16 0.941,2.101 2.1,2.101c1.159,0 2.1,-0.941 2.1,-2.101l1.195,14.923c0.115,1.455 1.331,2.577 2.79,2.577l1.831,0c1.459,0 2.674,-1.122 2.789,-2.577l1.195,-14.923c0,1.16 0.941,2.101 2.101,2.101c1.158,0 2.099,-0.941 2.099,-2.101l0,-9.8c0,-4.638 -4.46,-8.399 -9.1,-8.399" style="fill:#e3d7ef;fill-rule:nonzero;"/><path d="M612.181,430.795c-4.639,0 -9.1,3.761 -9.1,8.399l0,9.8c0,1.16 0.941,2.101 2.1,2.101c1.159,0 2.1,-0.941 2.1,-2.101l1.195,14.923c0.115,1.455 1.331,2.577 2.79,2.577l1.831,0c1.459,0 2.674,-1.122 2.789,-2.577l1.195,-14.923c0,1.16 0.941,2.101 2.101,2.101c1.158,0 2.099,-0.941 2.099,-2.101l0,-9.8c0,-4.638 -4.46,-8.399 -9.1,-8.399Z" style="fill:none;stroke:#7c41ba;stroke-width:2px;"/><path d="M677.63,409.044c0,2.319 -1.879,4.2 -4.199,4.2c-2.32,0 -4.2,-1.881 -4.2,-4.2l0,-2.1c0,-2.32 1.88,-4.2 4.2,-4.2c2.32,0 4.199,1.88 4.199,4.2l0,2.1Z" style="fill:#e3d7ef;fill-rule:nonzero;stroke:#7c41ba;stroke-width:2px;"/><path d="M673.431,415.045c-4.639,0 -9.1,3.761 -9.1,8.399l0,9.8c0,1.16 0.941,2.101 2.1,2.101c1.159,0 2.1,-0.941 2.1,-2.101l1.195,14.923c0.115,1.455 1.331,2.577 2.79,2.577l1.831,0c1.459,0 2.674,-1.122 2.789,-2.577l1.195,-14.923c0,1.16 0.941,2.101 2.101,2.101c1.158,0 2.099,-0.941 2.099,-2.101l0,-9.8c0,-4.638 -4.46,-8.399 -9.1,-8.399" style="fill:#e3d7ef;fill-rule:nonzero;"/><path d="M673.431,415.045c-4.639,0 -9.1,3.761 -9.1,8.399l0,9.8c0,1.16 0.941,2.101 2.1,2.101c1.159,0 2.1,-0.941 2.1,-2.101l1.195,14.923c0.115,1.455 1.331,2.577 2.79,2.577l1.831,0c1.459,0 2.674,-1.122 2.789,-2.577l1.195,-14.923c0,1.16 0.941,2.101 2.101,2.101c1.158,0 2.099,-0.941 2.099,-2.101l0,-9.8c0,-4.638 -4.46,-8.399 -9.1,-8.399Z" style="fill:none;stroke:#7c41ba;stroke-width:2px;"/><path d="M721.63,366.794c0,2.319 -1.879,4.2 -4.199,4.2c-2.32,0 -4.2,-1.881 -4.2,-4.2l0,-2.1c0,-2.32 1.88,-4.2 4.2,-4.2c2.32,0 4.199,1.88 4.199,4.2l0,2.1Z" style="fill:#e3d7ef;fill-rule:nonzero;stroke:#7c41ba;stroke-width:2px;"/><path d="M717.431,372.795c-4.639,0 -9.1,3.761 -9.1,8.399l0,9.8c0,1.16 0.941,2.101 2.1,2.101c1.159,0 2.1,-0.941 2.1,-2.101l1.195,14.923c0.115,1.455 1.331,2.577 2.79,2.577l1.831,0c1.459,0 2.674,-1.122 2.789,-2.577l1.195,-14.923c0,1.16 0.941,2.101 2.101,2.101c1.158,0 2.099,-0.941 2.099,-2.101l0,-9.8c0,-4.638 -4.46,-8.399 -9.1,-8.399" style="fill:#e3d7ef;fill-rule:nonzero;"/><path d="M717.431,372.795c-4.639,0 -9.1,3.761 -9.1,8.399l0,9.8c0,1.16 0.941,2.101 2.1,2.101c1.159,0 2.1,-0.941 2.1,-2.101l1.195,14.923c0.115,1.455 1.331,2.577 2.79,2.577l1.831,0c1.459,0 2.674,-1.122 2.789,-2.577l1.195,-14.923c0,1.16 0.941,2.101 2.101,2.101c1.158,0 2.099,-0.941 2.099,-2.101l0,-9.8c0,-4.638 -4.46,-8.399 -9.1,-8.399Z" style="fill:none;stroke:#7c41ba;stroke-width:2px;"/><g><g><path d="M689,321.31c0,-44.183 -35.816,-80 -80,-80c-44.184,0 -80,35.817 -80,80c0,11.771 2.563,22.936 7.129,33l145.742,0c4.566,-10.064 7.129,-21.229 7.129,-33" style="fill:#e3d7ef;fill-rule:nonzero;"/><path d="M531,354.31l156,0" style="fill:none;stroke:#7c41ba;stroke-width:2px;"/><path d="M522,354.31l5,0" style="fill:none;stroke:#7c41ba;stroke-width:2px;"/><path d="M691,354.31l5,0" style="fill:none;stroke:#7c41ba;stroke-width:2px;"/><path d="M637.508,375.979c0,1.893 -13.301,3.428 -29.703,3.428c-16.406,0 -29.703,-1.535 -29.703,-3.428c0,-1.893 13.297,-3.427 29.703,-3.427c16.402,0 29.703,1.534 29.703,3.427" style="fill:#e3d7ef;fill-rule:nonzero;"/><path d="M653.5,296.09c0,-4.002 -3.242,-7.245 -7.244,-7.245l-74.619,0c-4,0 -7.246,3.243 -7.246,7.245l0,49.46l89.109,0l0,-49.46Z" style="fill:#b999db;fill-rule:nonzero;"/><path d="M623.93,288.845l-52.293,0c-4,0 -7.246,3.243 -7.246,7.245l0,49.46l2.834,0l56.705,-56.705Z" style="fill:#fff;fill-rule:nonzero;"/><path d="M619.746,367.152l-21.602,0l1.352,-10.802l18.9,0l1.35,10.802Z" style="fill:#fff;fill-rule:nonzero;stroke:#7c41ba;stroke-width:2px;"/><path d="M624.414,372.553l-30.934,0c-1.203,0 -2.076,-1.254 -1.554,-2.336c0.869,-1.813 2.722,-3.064 4.869,-3.064l24.303,0c2.144,0 4,1.251 4.871,3.064c0.519,1.082 -0.356,2.336 -1.555,2.336Z" style="fill:#fff;fill-rule:nonzero;stroke:#7c41ba;stroke-width:2px;"/><path d="M646.256,356.351c4.002,0 7.244,-3.243 7.244,-7.245l0,-3.556l-89.109,0l0,3.556c0,4.002 3.246,7.245 7.246,7.245l74.619,0Z" style="fill:#fff;fill-rule:nonzero;stroke:#7c41ba;stroke-width:2px;"/><path d="M653.5,296.09c0,-4.002 -3.242,-7.245 -7.244,-7.245l-74.619,0c-4,0 -7.246,3.243 -7.246,7.245l0,49.46l89.109,0l0,-49.46Z" style="fill:none;stroke:#7c41ba;stroke-width:2px;"/><path d="M610.154,350.951c0,-0.667 -0.541,-1.208 -1.208,-1.208c-0.666,0 -1.208,0.541 -1.208,1.208c0,0.666 0.542,1.207 1.208,1.207c0.667,0 1.208,-0.541 1.208,-1.207Z" style="fill:none;stroke:#7c41ba;stroke-width:2px;"/><path d="M642.984,350.95c1.334,0 2.414,1.081 2.414,2.415l0,7.036c0,1.486 -0.594,2.835 -1.592,3.807c-0.972,1 -2.322,1.594 -3.806,1.594l-8.387,0c-1.334,0 -2.414,-1.081 -2.414,-2.415l0,-10.022c0,-1.334 1.08,-2.415 2.414,-2.415l11.371,0Z" style="fill:#b999db;fill-rule:nonzero;stroke:#7c41ba;stroke-width:2px;"/><path d="M645.398,360.401c0,1.485 -0.594,2.835 -1.592,3.807c-0.972,1 -2.322,1.593 -3.806,1.593l-1.352,0l0,-2.985c0,-1.334 1.082,-2.415 2.416,-2.415l4.334,0Z" style="fill:#fff;fill-rule:nonzero;stroke:#7c41ba;stroke-width:2px;"/><g><path id="Shape_2_copy_9" d="M614.48,299.843l-4.073,2.642l-0.746,8.476l5.68,-6.348l-0.861,-4.77Z" style="fill:#7c41ba;"/><path id="Shape_2" d="M603.605,304.654l0.474,8.497l3.989,2.761l1.014,-4.745l-5.477,-6.513Z" style="fill:#7c41ba;"/><path id="Shape_2_copy" d="M609.927,311.124l0.862,4.77l4.074,-2.642l0.745,-8.475l-5.681,6.347Z" style="fill:#7c41ba;"/><path id="Shape_2_copy_2" d="M615.496,313.808l-2.759,3.977l4.745,1.012l6.511,-5.458l-8.497,0.469Z" style="fill:#7c41ba;"/><path id="Shape_2_copy_3" d="M617.527,319.669l-4.769,0.863l2.641,4.076l8.474,0.744l-6.346,-5.683Z" style="fill:#7c41ba;"/><path id="Shape_2_copy_4" d="M614.842,325.241l-3.976,-2.758l-1.014,4.743l5.459,6.511l-0.469,-8.496Z" style="fill:#7c41ba;"/><path id="Shape_2_copy_5" d="M608.148,322.531l-4.076,2.641l-0.744,8.475l5.683,-6.346l-0.863,-4.77Z" style="fill:#7c41ba;"/><path id="Shape_2_copy_6" d="M601.423,319.595l-6.509,5.459l8.495,-0.467l2.758,-3.977l-4.744,-1.015Z" style="fill:#7c41ba;"/><path id="Shape_2_copy_7" d="M603.507,313.787l-8.475,-0.744l6.347,5.685l4.769,-0.864l-2.641,-4.077Z" style="fill:#7c41ba;"/><path id="Shape_2_copy_15" d="M594.87,313.304l-4.769,0.863l2.641,4.078l8.474,0.744l-6.346,-5.685Z" style="fill:#7c41ba;"/><path id="Shape_2_copy_8" d="M603.304,304.721l-3.982,-2.764l-1.012,4.749l5.466,6.52l-0.472,-8.505Z" style="fill:#7c41ba;"/><path id="Shape_2_copy_10" d="M621.94,308.06l-6.511,5.458l8.497,-0.468l2.759,-3.977l-4.745,-1.013Z" style="fill:#7c41ba;"/><path id="Shape_2_copy_11" d="M626.163,320.149l-8.474,-0.744l6.346,5.684l4.77,-0.863l-2.642,-4.077Z" style="fill:#7c41ba;"/><path id="Shape_2_copy_12" d="M615.132,325.174l0.468,8.495l3.977,2.759l1.014,-4.744l-5.459,-6.51Z" style="fill:#7c41ba;"/><path id="Shape_2_copy_13" d="M603.561,333.78l0.862,4.77l4.077,-2.642l0.745,-8.475l-5.684,6.347Z" style="fill:#7c41ba;"/><path id="Shape_2_copy_14" d="M594.98,325.344l-2.758,3.978l4.744,1.014l6.51,-5.459l-8.496,0.467Z" style="fill:#7c41ba;"/><path id="Shape_2_copy_16" d="M597.174,330.466l5.887,3.112l0.715,-8.578l-6.602,5.466Z" style="fill:#7c41ba;"/><path id="Shape_2_copy_17" d="M592.802,318.484l1.962,6.363l6.572,-5.561l-8.534,-0.802Z" style="fill:#7c41ba;"/><path id="Shape_2_copy_18" d="M598.184,306.917l-3.102,5.878l8.571,0.724l-5.469,-6.602Z" style="fill:#7c41ba;"/><path id="Shape_2_copy_19" d="M603.811,304.502l5.553,6.578l0.798,-8.539l-6.351,1.961Z" style="fill:#7c41ba;"/><path id="Shape_2_copy_20" d="M615.857,304.825l-0.724,8.574l6.6,-5.471l-5.876,-3.103Z" style="fill:#7c41ba;"/><path id="Shape_2_copy_21" d="M624.148,313.555l-6.577,5.553l8.538,0.798l-1.961,-6.351Z" style="fill:#7c41ba;"/><path id="Shape_2_copy_22" d="M615.25,324.878l5.472,6.6l3.105,-5.877l-8.577,-0.723Z" style="fill:#7c41ba;"/><path id="Shape_2_copy_23" d="M609.542,327.314l-0.797,8.538l6.351,-1.96l-5.554,-6.578Z" style="fill:#7c41ba;"/></g></g><path d="M665.707,362.955c0.179,0.609 -0.17,1.248 -0.779,1.428l-31.574,9.27c-0.609,0.179 -1.249,-0.17 -1.427,-0.779l-12.289,-41.855c-0.18,-0.609 0.17,-1.248 0.779,-1.427l31.573,-9.271c0.61,-0.179 1.248,0.17 1.428,0.78l12.289,41.854Z" style="fill:#fff;fill-rule:nonzero;stroke:#7c41ba;stroke-width:2px;"/><path d="M661.198,367.699c0,0.635 -0.515,1.149 -1.149,1.149l-32.907,0c-0.635,0 -1.15,-0.514 -1.15,-1.149l0,-43.621c0,-0.636 0.515,-1.15 1.15,-1.15l32.907,0c0.634,0 1.149,0.514 1.149,1.15l0,43.621Z" style="fill:#fff;fill-rule:nonzero;stroke:#7c41ba;stroke-width:2px;"/><path d="M656.607,330.962c0,0.635 -0.515,1.15 -1.149,1.15l-23.723,0c-0.635,0 -1.149,-0.515 -1.149,-1.15l0,-2.292c0,-0.636 0.514,-1.15 1.149,-1.15l23.723,0c0.634,0 1.149,0.514 1.149,1.15l0,2.292Z" style="fill:#b999db;fill-rule:nonzero;stroke:#7c41ba;stroke-width:1px;"/><path d="M639.769,339.766l6.123,0" style="fill:none;stroke:#7c41ba;stroke-width:1px;"/><path d="M639.769,342.827l13.776,0" style="fill:none;stroke:#7c41ba;stroke-width:1px;"/><path d="M639.769,345.888l9.962,0" style="fill:none;stroke:#7c41ba;stroke-width:1px;"/><path d="M639.769,355.072l7.654,0" style="fill:none;stroke:#7c41ba;stroke-width:1px;"/><path d="M639.769,358.134l15.308,0" style="fill:none;stroke:#7c41ba;stroke-width:1px;"/><path d="M639.769,361.195l12.246,0" style="fill:none;stroke:#7c41ba;stroke-width:1px;"/><path d="M631.921,344.552c0,0.953 0.772,1.725 1.725,1.725c0.953,0 1.725,-0.772 1.725,-1.725c0,-0.953 -0.772,-1.725 -1.725,-1.725c-0.953,0 -1.725,-0.772 -1.725,-1.725c0,-0.952 0.772,-1.725 1.725,-1.725c0.953,0 1.725,0.773 1.725,1.725" style="fill:none;stroke:#7c41ba;stroke-width:1px;"/><path d="M633.646,339.377l0,-1.15" style="fill:none;stroke:#7c41ba;stroke-width:1px;"/><path d="M633.646,347.427l0,-1.15" style="fill:none;stroke:#7c41ba;stroke-width:1px;"/><path d="M631.921,359.858c0,0.953 0.772,1.726 1.725,1.726c0.953,0 1.725,-0.773 1.725,-1.726c0,-0.952 -0.772,-1.725 -1.725,-1.725c-0.953,0 -1.725,-0.772 -1.725,-1.724c0,-0.953 0.772,-1.726 1.725,-1.726c0.953,0 1.725,0.773 1.725,1.726" style="fill:none;stroke:#7c41ba;stroke-width:1px;"/><path d="M633.646,354.684l0,-1.149" style="fill:none;stroke:#7c41ba;stroke-width:1px;"/><path d="M633.646,362.733l0,-1.149" style="fill:none;stroke:#7c41ba;stroke-width:1px;"/><path d="M677.137,375.793c1.115,1.114 1.115,2.921 0,4.036c-1.114,1.114 -2.921,1.114 -4.035,0l-7.568,-7.568l4.037,-4.036l7.566,7.568Z" style="fill:#b999db;fill-rule:nonzero;stroke:#7c41ba;stroke-width:1px;"/><path d="M661.497,366.208l2.019,-2.02l5.047,5.045l-2.019,2.019l-5.047,-5.044Z" style="fill:#fff;stroke:#7c41ba;stroke-width:1px;"/><path d="M664.022,348.549c5.014,5.016 5.014,13.146 0,18.163c-5.018,5.016 -13.147,5.016 -18.163,0c-5.016,-5.017 -5.016,-13.147 0,-18.163c5.016,-5.016 13.145,-5.016 18.163,0" style="fill:#fff;fill-rule:nonzero;"/><path d="M664.022,348.549c-5.012,-5.012 -13.151,-5.012 -18.163,0c-5.012,5.012 -5.012,13.151 0,18.163c5.012,5.012 13.151,5.012 18.163,0c5.012,-5.012 5.012,-13.151 0,-18.163Z" style="fill:none;stroke:#7c41ba;stroke-width:1px;"/><path d="M661.498,351.072c3.623,3.621 3.623,9.494 0,13.116c-3.621,3.623 -9.494,3.623 -13.117,0c-3.621,-3.622 -3.621,-9.495 0,-13.116c3.623,-3.622 9.496,-3.622 13.117,0" style="fill:#b999db;fill-rule:nonzero;"/><path d="M661.498,351.072c-3.621,-3.622 -9.495,-3.622 -13.117,0c-3.621,3.621 -3.621,9.494 0,13.116c0.045,0.045 0.094,0.082 0.138,0.125l13.104,-13.103c-0.043,-0.045 -0.081,-0.095 -0.125,-0.138" style="fill:#fff;fill-rule:nonzero;"/><path d="M661.499,351.072c-3.62,-3.62 -9.497,-3.621 -13.117,-0.001c-3.62,3.62 -3.621,9.498 -0.001,13.118c3.62,3.62 9.498,3.62 13.118,0c3.62,-3.619 3.62,-9.497 0,-13.117Z" style="fill:none;stroke:#7c41ba;stroke-width:1px;"/><path d="M661.143,383.822c0,0.952 -5.663,1.726 -12.65,1.726c-6.987,0 -12.65,-0.774 -12.65,-1.726c0,-0.953 5.663,-1.725 12.65,-1.725c6.987,0 12.65,0.772 12.65,1.725" style="fill:#b999db;fill-rule:nonzero;"/></g></g><g><path d="M437.086,274.244l13.152,-13.151l-13.578,-13.579" style="fill:none;stroke:#7c41ba;stroke-width:2px;"/><path d="M241.356,261.092c0,6.248 5.073,11.321 11.322,11.321c6.248,0 11.321,-5.073 11.321,-11.321c0,-6.249 -5.073,-11.322 -11.321,-11.322c-6.249,0 -11.322,5.073 -11.322,11.322Z" style="fill:none;stroke:#7c41ba;stroke-width:2px;"/><path d="M263.999,261.092l184.689,0" style="fill:none;stroke:#7c41ba;stroke-width:2px;"/></g><g><path d="M800.536,274.244l13.152,-13.151l-13.578,-13.579" style="fill:none;stroke:#7c41ba;stroke-width:2px;"/><path d="M755.356,261.092c0,6.248 5.073,11.321 11.322,11.321c6.248,0 11.321,-5.073 11.321,-11.321c0,-6.249 -5.073,-11.322 -11.321,-11.322c-6.249,0 -11.322,5.073 -11.322,11.322Z" style="fill:none;stroke:#7c41ba;stroke-width:2px;"/><path d="M777.999,261.092l35.689,0" style="fill:none;stroke:#7c41ba;stroke-width:2px;"/></g><g><path d="M800.536,403.724l13.152,-13.151l-13.578,-13.579" style="fill:none;stroke:#7c41ba;stroke-width:2px;"/><path d="M755.356,390.572c0,6.248 5.073,11.321 11.322,11.321c6.248,0 11.321,-5.073 11.321,-11.321c0,-6.249 -5.073,-11.322 -11.321,-11.322c-6.249,0 -11.322,5.073 -11.322,11.322Z" style="fill:none;stroke:#7c41ba;stroke-width:2px;"/><path d="M777.999,390.572l35.689,0" style="fill:none;stroke:#7c41ba;stroke-width:2px;"/></g><g><path d="M437.086,403.724l13.152,-13.151l-13.578,-13.579" style="fill:none;stroke:#7c41ba;stroke-width:2px;"/><path d="M241.356,390.572c0,6.248 5.073,11.321 11.322,11.321c6.248,0 11.321,-5.073 11.321,-11.321c0,-6.249 -5.073,-11.322 -11.321,-11.322c-6.249,0 -11.322,5.073 -11.322,11.322Z" style="fill:none;stroke:#7c41ba;stroke-width:2px;"/><path d="M263.999,390.572l184.689,0" style="fill:none;stroke:#7c41ba;stroke-width:2px;"/></g><g><path d="M407.086,336.724l13.152,-13.151l-13.578,-13.579" style="fill:none;stroke:#7c41ba;stroke-width:2px;"/><path d="M151.356,323.572c0,6.248 5.073,11.321 11.322,11.321c6.248,0 11.321,-5.073 11.321,-11.321c0,-6.249 -5.073,-11.322 -11.321,-11.322c-6.249,0 -11.322,5.073 -11.322,11.322Z" style="fill:none;stroke:#7c41ba;stroke-width:2px;"/><path d="M173.999,323.572l244.689,0" style="fill:none;stroke:#7c41ba;stroke-width:2px;"/></g></g><g id="Isolationsmodus2" serif:id="Isolationsmodus"></g><g id="Icons"></g><g id="Ebene-18" serif:id="Ebene 1"></g></svg>