<?xml version="1.0" encoding="UTF-8" standalone="no"?><!DOCTYPE svg PUBLIC "-//W3C//DTD SVG 1.1//EN" "http://www.w3.org/Graphics/SVG/1.1/DTD/svg11.dtd"><svg width="100%" height="100%" viewBox="0 0 160 160" version="1.1" xmlns="http://www.w3.org/2000/svg" xmlns:xlink="http://www.w3.org/1999/xlink" xml:space="preserve" xmlns:serif="http://www.serif.com/" style="fill-rule:evenodd;clip-rule:evenodd;stroke-linecap:round;stroke-linejoin:round;stroke-miterlimit:10;"><g id="Ebene-1" serif:id="Ebene 1"><path d="M159.999,80c0,44.184 -35.816,80 -79.999,80c-44.183,0 -80,-35.816 -80,-80c0,-44.182 35.817,-80 80,-80c44.183,0 79.999,35.818 79.999,80" style="fill:#e3d7ef;fill-rule:nonzero;"/><path d="M80,34l29.005,10.364c1.794,0.641 2.995,2.374 2.995,4.32l0,31.817c0,22.107 -32,34.304 -32,34.304c0,0 -32,-12.197 -32,-34.304l0,-31.817c0,-1.946 1.201,-3.679 2.995,-4.32l29.005,-10.364Z" style="fill:#fff;fill-rule:nonzero;stroke:#7c41ba;stroke-width:2px;"/><path d="M101.581,72.879c0,12.209 -9.662,22.107 -21.581,22.107c-11.919,0 -21.581,-9.898 -21.581,-22.107c0,-12.211 9.662,-22.107 21.581,-22.107c11.919,0 21.581,9.896 21.581,22.107" style="fill:#b999db;fill-rule:nonzero;stroke:#7c41ba;stroke-width:2px;stroke-linecap:butt;stroke-miterlimit:1.41421;"/><path d="M97.86,123.038c0,1.264 -7.997,2.287 -17.86,2.287c-9.863,0 -17.86,-1.023 -17.86,-2.287c0,-1.264 7.997,-2.287 17.86,-2.287c9.863,0 17.86,1.023 17.86,2.287" style="fill:#b999db;fill-rule:nonzero;"/></g></svg>