<?xml version="1.0" encoding="UTF-8" standalone="no"?><!DOCTYPE svg PUBLIC "-//W3C//DTD SVG 1.1//EN" "http://www.w3.org/Graphics/SVG/1.1/DTD/svg11.dtd"><svg width="100%" height="100%" viewBox="0 0 627 666" version="1.1" xmlns="http://www.w3.org/2000/svg" xmlns:xlink="http://www.w3.org/1999/xlink" xml:space="preserve" xmlns:serif="http://www.serif.com/" style="fill-rule:evenodd;clip-rule:evenodd;stroke-linecap:round;stroke-linejoin:round;"><rect id="ArtBoard1" x="0" y="0" width="627" height="666" style="fill:none;"/><path d="M118,268.5l0,-48.5c0,-2.209 1.791,-4 4,-4l158.6,0" style="fill:none;stroke:#7c41ba;stroke-width:2px;"/><path d="M104.77,256.426l13.151,13.152l13.579,-13.578" style="fill:none;stroke:#7c41ba;stroke-width:2px;stroke-miterlimit:10;"/><path d="M344.017,216l156.983,0c2.209,0 4,-1.791 4,-4l0,-46" style="fill:none;stroke:#7c41ba;stroke-width:2px;"/><g id="Ebene-1" serif:id="Ebene 1"><g><path d="M190.895,96.557c0,-44.184 -35.818,-80 -80,-80c-44.184,0 -80,35.816 -80,80c0,11.77 2.563,22.936 7.129,33l145.742,0c4.566,-10.064 7.129,-21.23 7.129,-33" style="fill:#e3d7ef;fill-rule:nonzero;"/><path d="M32.895,129.557l156,0" style="fill:none;stroke:#7c41ba;stroke-width:2px;stroke-miterlimit:10;"/><path d="M23.895,129.557l5,0" style="fill:none;stroke:#7c41ba;stroke-width:2px;stroke-miterlimit:10;"/><path d="M192.895,129.557l5,0" style="fill:none;stroke:#7c41ba;stroke-width:2px;stroke-miterlimit:10;"/><path d="M40.895,154.557c0,1.656 18.805,3 42,3c23.195,0 42,-1.344 42,-3c0,-1.656 -18.805,-3 -42,-3c-23.195,0 -42,1.344 -42,3" style="fill:#e3d7ef;fill-rule:nonzero;"/><path d="M116.895,85.557c6.627,0 12,-5.371 12,-12l0,-24c0,-13.783 -11.619,-24.854 -25.598,-23.947c-12.756,0.826 -22.402,11.986 -22.402,24.769l0,23.178c0,6.629 5.373,12 12,12l24,0Z" style="fill:#fff;fill-rule:nonzero;stroke:#7c41ba;stroke-width:2px;stroke-miterlimit:10;"/><path d="M123.895,116.557c0,8.285 6.715,15 15,15c8.285,0 15,-6.715 15,-15l0,-18c0,-0.551 -0.447,-1 -1,-1l-10,0c-0.553,0 -1,0.449 -1,1l0,18c0,1.656 -1.344,3 -3,3c-1.656,0 -3,-1.344 -3,-3l0,-2c0,-17.121 -13.879,-31 -31,-31c-17.121,0 -31,13.879 -31,31l0,15l50,0l0,-13Z" style="fill:#b999db;fill-rule:nonzero;stroke:#7c41ba;stroke-width:2px;stroke-miterlimit:10;"/><path d="M117.824,85.299c-1.408,-2.404 -4.119,-3.742 -6.906,-3.742l-12.047,0c-2.787,0 -5.498,1.338 -6.906,3.742c-1.205,2.053 -1.37,4.434 -0.61,6.525l2.711,7.454c0.43,1.181 1.83,1.677 2.908,1.031l7.92,-4.752l7.92,4.752c1.078,0.646 2.479,0.15 2.908,-1.031l2.711,-7.454c0.76,-2.091 0.596,-4.472 -0.609,-6.525" style="fill:#b999db;fill-rule:nonzero;"/><path d="M117.824,85.299c-1.408,-2.404 -4.119,-3.742 -6.906,-3.742l-12.047,0c-2.787,0 -5.498,1.338 -6.906,3.742c-1.205,2.053 -1.37,4.434 -0.61,6.525l2.711,7.454c0.43,1.181 1.83,1.677 2.908,1.031l7.92,-4.752l7.92,4.752c1.078,0.646 2.479,0.15 2.908,-1.031l2.711,-7.454c0.76,-2.091 0.596,-4.472 -0.609,-6.525Z" style="fill:none;stroke:#7c41ba;stroke-width:2px;stroke-miterlimit:10;"/><path d="M104.895,95.557l0,34" style="fill:none;stroke:#7c41ba;stroke-width:2px;stroke-miterlimit:10;"/><path d="M111.895,88.557l-7,7l-7,-7l0,-11l14,0l0,11Z" style="fill:#fff;fill-rule:nonzero;stroke:#7c41ba;stroke-width:2px;stroke-miterlimit:10;"/><path d="M85.895,111.557l0,18" style="fill:none;stroke:#7c41ba;stroke-width:2px;stroke-miterlimit:10;"/><path d="M123.895,111.557l0,18" style="fill:none;stroke:#7c41ba;stroke-width:2px;stroke-miterlimit:10;"/><path d="M124.895,56.557l0,-5c0,-0.469 -0.037,-0.928 -0.07,-1.387c-2.985,1.514 -6.352,2.387 -9.93,2.387c-6.941,0 -13.121,-3.223 -17.154,-8.242c-0.842,5.238 -5.369,9.242 -10.846,9.242c-0.684,0 -1.352,-0.07 -2,-0.191l0,3.191c-2.209,0 -4,1.789 -4,4c0,2.209 1.791,4 4,4c0.084,0 0.162,-0.02 0.246,-0.025c1.44,9.63 9.723,17.025 19.754,17.025c10.031,0 18.314,-7.395 19.754,-17.025c0.084,0.005 0.162,0.025 0.246,0.025c2.209,0 4,-1.791 4,-4c0,-2.211 -1.791,-4 -4,-4Z" style="fill:#fff;fill-rule:nonzero;stroke:#7c41ba;stroke-width:2px;stroke-miterlimit:10;"/><path d="M98.861,70.15c3.643,3.207 8.389,3.207 12.033,0" style="fill:none;stroke:#7c41ba;stroke-width:2px;stroke-miterlimit:10;"/><path d="M115.895,58.557c-0.619,-1.178 -1.707,-2.006 -3.008,-2.006c-1.301,0 -2.39,0.828 -3.01,2.006" style="fill:none;stroke:#7c41ba;stroke-width:2px;stroke-miterlimit:10;"/><path d="M99.912,58.557c-0.619,-1.178 -1.709,-2.006 -3.01,-2.006c-1.301,0 -2.388,0.828 -3.008,2.006" style="fill:none;stroke:#7c41ba;stroke-width:2px;stroke-miterlimit:10;"/><path d="M95.895,65.057c0,1.381 -1.119,2.5 -2.5,2.5c-1.381,0 -2.5,-1.119 -2.5,-2.5c0,-1.381 1.119,-2.5 2.5,-2.5c1.381,0 2.5,1.119 2.5,2.5" style="fill:#b999db;fill-rule:nonzero;"/><path d="M113.895,65.057c0,1.381 1.119,2.5 2.5,2.5c1.381,0 2.5,-1.119 2.5,-2.5c0,-1.381 -1.119,-2.5 -2.5,-2.5c-1.381,0 -2.5,1.119 -2.5,2.5" style="fill:#b999db;fill-rule:nonzero;"/><path d="M149.895,74.557c0,-1.656 -1.344,-3 -3,-3c-1.656,0 -3,1.344 -3,3l0,13l6,0l0,-13Z" style="fill:#fff;fill-rule:nonzero;stroke:#7c41ba;stroke-width:2px;stroke-miterlimit:10;"/><path d="M138.895,90.084c0,-2.5 2.027,-4.527 4.527,-4.527l11.473,0l0,5.586c0,0.906 -0.359,1.773 -1,2.414c-0.641,0.64 -1,1.507 -1,2.414l0,1.586l-10,0l0,-3l-1.789,-0.895c-1.356,-0.678 -2.211,-2.062 -2.211,-3.578" style="fill:#fff;fill-rule:nonzero;"/><path d="M138.895,90.084c0,-2.5 2.027,-4.527 4.527,-4.527l11.473,0l0,5.586c0,0.906 -0.359,1.773 -1,2.414c-0.641,0.64 -1,1.507 -1,2.414l0,1.586l-10,0l0,-3l-1.789,-0.895c-1.356,-0.678 -2.211,-2.062 -2.211,-3.578Z" style="fill:none;stroke:#7c41ba;stroke-width:2px;stroke-miterlimit:10;"/><path d="M156.6,90.912c-0.533,2.145 -2.703,3.449 -4.848,2.916l-5.822,-1.447c-2.144,-0.533 -3.449,-2.703 -2.916,-4.848l0.482,-1.941c0.534,-2.145 2.704,-3.45 4.848,-2.916l5.822,1.449c2.145,0.533 3.45,2.703 2.916,4.848l-0.482,1.939Z" style="fill:#fff;fill-rule:nonzero;stroke:#7c41ba;stroke-width:2px;stroke-miterlimit:10;"/><path d="M123.895,139.557c0,2.209 -1.791,4 -4,4l-74,0c-2.209,0 -4,-1.791 -4,-4l0,-50c0,-2.209 1.791,-4 4,-4l74,0c2.209,0 4,1.791 4,4l0,50Z" style="fill:#fff;fill-rule:nonzero;"/><path d="M96.883,149.557c0.281,0 0.551,0.119 0.74,0.328c0.19,0.209 0.283,0.49 0.256,0.772c-0.059,0.597 -0.287,1.177 -0.666,1.662c-0.611,0.781 -1.547,1.238 -2.537,1.238l-23.563,0c-0.99,0 -1.927,-0.457 -2.537,-1.238c-0.379,-0.485 -0.607,-1.065 -0.666,-1.662c-0.027,-0.282 0.065,-0.563 0.254,-0.772c0.19,-0.209 0.459,-0.328 0.742,-0.328l27.977,0Z" style="fill:#fff;fill-rule:nonzero;stroke:#7c41ba;stroke-width:2px;stroke-miterlimit:10;"/><path d="M123.895,139.557c0,2.209 -1.791,4 -4,4l-74,0c-2.209,0 -4,-1.791 -4,-4l0,-50c0,-2.209 1.791,-4 4,-4l74,0c2.209,0 4,1.791 4,4l0,50Z" style="fill:none;stroke:#7c41ba;stroke-width:2px;stroke-miterlimit:10;"/><path d="M94.895,153.557l-24,0c2.48,-6.611 3.594,-23.471 3.904,-29.121c0.059,-1.061 0.934,-1.879 1.996,-1.879l12.2,0c1.062,0 1.937,0.818 1.996,1.879c0.31,5.65 1.424,22.51 3.904,29.121Z" style="fill:#fff;fill-rule:nonzero;stroke:#7c41ba;stroke-width:2px;stroke-miterlimit:10;"/><path d="M48.895,134.557l0,3" style="fill:none;stroke:#7c41ba;stroke-width:2px;stroke-miterlimit:10;"/><path d="M52.895,134.557l0,3" style="fill:none;stroke:#7c41ba;stroke-width:2px;stroke-miterlimit:10;"/><path d="M56.895,134.557l0,3" style="fill:none;stroke:#7c41ba;stroke-width:2px;stroke-miterlimit:10;"/><path d="M60.895,134.557l0,3" style="fill:none;stroke:#7c41ba;stroke-width:2px;stroke-miterlimit:10;"/><path d="M47.895,89.557l69,0" style="fill:none;stroke:#7c41ba;stroke-width:2px;stroke-miterlimit:10;"/><path d="M156.895,44.557c0,-4.971 -4.029,-9 -9,-9c-4.971,0 -9,4.029 -9,9c0,2.207 0.797,4.229 2.117,5.793c1.215,1.441 1.883,3.268 1.883,5.154l0,2.053l10,0l0,-2.053c0,-1.888 0.668,-3.709 1.885,-5.154c1.32,-1.564 2.115,-3.586 2.115,-5.793" style="fill:#fff;fill-rule:nonzero;"/><path d="M156.895,44.557c0,-4.971 -4.029,-9 -9,-9c-4.971,0 -9,4.029 -9,9c0,2.207 0.797,4.229 2.117,5.793c1.215,1.441 1.883,3.268 1.883,5.154l0,2.053l10,0l0,-2.053c0,-1.888 0.668,-3.709 1.885,-5.154c1.32,-1.564 2.115,-3.586 2.115,-5.793Z" style="fill:none;stroke:#7c41ba;stroke-width:2px;stroke-linecap:butt;stroke-miterlimit:10;"/><path d="M150.895,61.557l-6,0c-1.104,0 -2,-0.895 -2,-2l0,-2l10,0l0,2c0,1.105 -0.895,2 -2,2Z" style="fill:#b999db;fill-rule:nonzero;stroke:#7c41ba;stroke-width:2px;stroke-linecap:butt;stroke-miterlimit:10;"/><path d="M150.895,62.557c0,1.656 -1.342,3 -3,3c-1.656,0 -3,-1.344 -3,-3l0,-1l6,0l0,1Z" style="fill:#b999db;fill-rule:nonzero;stroke:#7c41ba;stroke-width:2px;stroke-linecap:butt;stroke-miterlimit:10;"/><path d="M147.895,31.557l0,-2" style="fill:none;stroke:#7c41ba;stroke-width:2px;stroke-miterlimit:10;"/><path d="M157.088,35.365l1.414,-1.414" style="fill:none;stroke:#7c41ba;stroke-width:2px;stroke-miterlimit:10;"/><path d="M160.895,44.557l2,0" style="fill:none;stroke:#7c41ba;stroke-width:2px;stroke-miterlimit:10;"/><path d="M138.703,35.365l-1.414,-1.414" style="fill:none;stroke:#7c41ba;stroke-width:2px;stroke-miterlimit:10;"/><path d="M134.895,44.557l-2,0" style="fill:none;stroke:#7c41ba;stroke-width:2px;stroke-miterlimit:10;"/></g><g><path d="M190,365c0,-44.184 -35.818,-80 -80,-80c-44.184,0 -80,35.816 -80,80c0,11.77 2.563,22.936 7.129,33l145.742,0c4.566,-10.064 7.129,-21.23 7.129,-33" style="fill:#e3d7ef;fill-rule:nonzero;"/><g><path d="M124.597,345c6.627,0 12,-5.373 12,-12l0,-24c0,-13.783 -11.619,-24.854 -25.598,-23.948c-12.756,0.826 -22.402,11.987 -22.402,24.77l0,23.178c0,6.627 5.373,12 12,12l24,0Z" style="fill:#fff;fill-rule:nonzero;stroke:#7c41ba;stroke-width:2px;stroke-miterlimit:10;"/><path d="M143.195,369c-2.391,-14.744 -15.18,-26 -30.598,-26c-15.418,0 -28.207,11.256 -30.597,26l61.195,0Z" style="fill:#b999db;fill-rule:nonzero;stroke:#7c41ba;stroke-width:2px;stroke-miterlimit:10;"/><path d="M126.597,348.65c0,-4.227 -3.426,-7.652 -7.652,-7.652l-12.696,0c-4.226,0 -7.652,3.425 -7.652,7.652c0,0.893 0.156,1.777 0.461,2.615l3.539,9.733l10,-6l10,6l3.539,-9.733c0.305,-0.838 0.461,-1.722 0.461,-2.615" style="fill:#b999db;fill-rule:nonzero;"/><path d="M126.597,348.65c0,-4.227 -3.426,-7.652 -7.652,-7.652l-12.696,0c-4.226,0 -7.652,3.425 -7.652,7.652c0,0.893 0.156,1.777 0.461,2.615l3.539,9.733l10,-6l10,6l3.539,-9.733c0.305,-0.838 0.461,-1.722 0.461,-2.615Z" style="fill:none;stroke:#7c41ba;stroke-width:2px;stroke-miterlimit:10;"/><path d="M112.597,355l0,14" style="fill:none;stroke:#7c41ba;stroke-width:2px;stroke-miterlimit:10;"/><path d="M119.597,348l-7,7l-7,-7l0,-11l14,0l0,11Z" style="fill:#fff;fill-rule:nonzero;stroke:#7c41ba;stroke-width:2px;stroke-miterlimit:10;"/><path d="M132.582,315.998l0,-5c0,-0.467 -0.039,-0.926 -0.07,-1.385c-2.987,1.514 -6.354,2.387 -9.93,2.387c-6.941,0 -13.121,-3.223 -17.154,-8.244c-0.842,5.24 -5.371,9.244 -10.846,9.244c-0.684,0 -1.352,-0.07 -2,-0.191l0,3.189c-2.211,0 -4,1.791 -4,4c0,2.211 1.789,4 4,4c0.082,0 0.16,-0.02 0.244,-0.023c1.44,9.63 9.723,17.023 19.756,17.023c10.031,0 18.313,-7.393 19.754,-17.023c0.082,0.003 0.16,0.023 0.246,0.023c2.207,0 4,-1.789 4,-4c0,-2.209 -1.793,-4 -4,-4Z" style="fill:#fff;fill-rule:nonzero;stroke:#7c41ba;stroke-width:2px;stroke-miterlimit:10;"/><path d="M106.564,329.592c3.643,3.209 8.389,3.209 12.033,0" style="fill:none;stroke:#7c41ba;stroke-width:2px;stroke-miterlimit:10;"/><path d="M123.597,318c-0.619,-1.18 -1.707,-2.008 -3.008,-2.008c-1.301,0 -2.39,0.828 -3.008,2.008" style="fill:none;stroke:#7c41ba;stroke-width:2px;stroke-miterlimit:10;"/><path d="M107.613,318c-0.617,-1.18 -1.707,-2.008 -3.008,-2.008c-1.301,0 -2.388,0.828 -3.008,2.008" style="fill:none;stroke:#7c41ba;stroke-width:2px;stroke-miterlimit:10;"/><path d="M103.597,324.498c0,1.383 -1.119,2.5 -2.5,2.5c-1.381,0 -2.5,-1.117 -2.5,-2.5c0,-1.379 1.119,-2.5 2.5,-2.5c1.381,0 2.5,1.121 2.5,2.5" style="fill:#b999db;fill-rule:nonzero;"/><path d="M121.597,324.498c0,1.383 1.119,2.5 2.5,2.5c1.381,0 2.5,-1.117 2.5,-2.5c0,-1.379 -1.119,-2.5 -2.5,-2.5c-1.381,0 -2.5,1.121 -2.5,2.5" style="fill:#b999db;fill-rule:nonzero;"/></g><path d="M32,398l156,0" style="fill:none;stroke:#7c41ba;stroke-width:2px;stroke-miterlimit:10;"/><path d="M23,398l5,0" style="fill:none;stroke:#7c41ba;stroke-width:2px;stroke-miterlimit:10;"/><path d="M192,398l5,0" style="fill:none;stroke:#7c41ba;stroke-width:2px;stroke-miterlimit:10;"/><path d="M70,423c0,1.656 18.805,3 42,3c23.195,0 42,-1.344 42,-3c0,-1.656 -18.805,-3 -42,-3c-23.195,0 -42,1.344 -42,3" style="fill:#e3d7ef;fill-rule:nonzero;"/><path d="M104,364l0,34" style="fill:none;stroke:#7c41ba;stroke-width:2px;stroke-miterlimit:10;"/><path d="M85,380l0,18" style="fill:none;stroke:#7c41ba;stroke-width:2px;stroke-miterlimit:10;"/><path d="M123,380l0,18" style="fill:none;stroke:#7c41ba;stroke-width:2px;stroke-miterlimit:10;"/><path d="M153,408c0,2.209 -1.791,4 -4,4l-74,0c-2.209,0 -4,-1.791 -4,-4l0,-50c0,-2.209 1.791,-4 4,-4l74,0c2.209,0 4,1.791 4,4l0,50Z" style="fill:#fff;fill-rule:nonzero;"/><path d="M125.988,418c0.281,0 0.551,0.119 0.74,0.328c0.19,0.209 0.283,0.49 0.256,0.772c-0.059,0.597 -0.287,1.177 -0.666,1.662c-0.611,0.781 -1.547,1.238 -2.537,1.238l-23.563,0c-0.99,0 -1.927,-0.457 -2.537,-1.238c-0.379,-0.485 -0.607,-1.065 -0.666,-1.662c-0.027,-0.282 0.065,-0.563 0.254,-0.772c0.19,-0.209 0.459,-0.328 0.742,-0.328l27.977,0Z" style="fill:#fff;fill-rule:nonzero;stroke:#7c41ba;stroke-width:2px;stroke-miterlimit:10;"/><path d="M153,408c0,2.209 -1.791,4 -4,4l-74,0c-2.209,0 -4,-1.791 -4,-4l0,-50c0,-2.209 1.791,-4 4,-4l74,0c2.209,0 4,1.791 4,4l0,50Z" style="fill:none;stroke:#7c41ba;stroke-width:2px;stroke-miterlimit:10;"/><path d="M124,422l-24,0c2.48,-6.611 3.594,-23.471 3.904,-29.121c0.059,-1.061 0.934,-1.879 1.996,-1.879l12.2,0c1.062,0 1.937,0.818 1.996,1.879c0.31,5.65 1.424,22.51 3.904,29.121Z" style="fill:#fff;fill-rule:nonzero;stroke:#7c41ba;stroke-width:2px;stroke-miterlimit:10;"/><path d="M78,403l0,3" style="fill:none;stroke:#7c41ba;stroke-width:2px;stroke-miterlimit:10;"/><path d="M82,403l0,3" style="fill:none;stroke:#7c41ba;stroke-width:2px;stroke-miterlimit:10;"/><path d="M86,403l0,3" style="fill:none;stroke:#7c41ba;stroke-width:2px;stroke-miterlimit:10;"/><path d="M90,403l0,3" style="fill:none;stroke:#7c41ba;stroke-width:2px;stroke-miterlimit:10;"/><path d="M77,358l69,0" style="fill:none;stroke:#7c41ba;stroke-width:2px;stroke-miterlimit:10;"/></g><g><path d="M585.219,96.557c0,-44.183 -35.816,-80 -80,-80c-44.184,0 -80,35.817 -80,80c0,11.771 2.563,22.936 7.129,33l145.742,0c4.566,-10.064 7.129,-21.229 7.129,-33" style="fill:#e3d7ef;fill-rule:nonzero;"/><path d="M427.219,129.557l156,0" style="fill:none;stroke:#7c41ba;stroke-width:2px;stroke-miterlimit:10;"/><path d="M418.219,129.557l5,0" style="fill:none;stroke:#7c41ba;stroke-width:2px;stroke-miterlimit:10;"/><path d="M587.219,129.557l5,0" style="fill:none;stroke:#7c41ba;stroke-width:2px;stroke-miterlimit:10;"/><path d="M533.727,151.227c0,1.893 -13.301,3.428 -29.703,3.428c-16.406,0 -29.703,-1.535 -29.703,-3.428c0,-1.893 13.297,-3.427 29.703,-3.427c16.402,0 29.703,1.534 29.703,3.427" style="fill:#e3d7ef;fill-rule:nonzero;"/><path d="M549.719,71.337c0,-4.002 -3.242,-7.245 -7.244,-7.245l-74.619,0c-4,0 -7.246,3.243 -7.246,7.245l0,49.46l89.109,0l0,-49.46Z" style="fill:#b999db;fill-rule:nonzero;"/><path d="M520.149,64.092l-52.293,0c-4,0 -7.246,3.243 -7.246,7.245l0,49.46l2.834,0l56.705,-56.705Z" style="fill:#fff;fill-rule:nonzero;"/><path d="M515.965,142.399l-21.602,0l1.352,-10.802l18.9,0l1.35,10.802Z" style="fill:#fff;fill-rule:nonzero;stroke:#7c41ba;stroke-width:2px;stroke-miterlimit:10;"/><path d="M520.633,147.8l-30.934,0c-1.203,0 -2.076,-1.254 -1.554,-2.336c0.869,-1.813 2.722,-3.064 4.869,-3.064l24.303,0c2.144,0 4,1.251 4.871,3.064c0.519,1.082 -0.356,2.336 -1.555,2.336Z" style="fill:#fff;fill-rule:nonzero;stroke:#7c41ba;stroke-width:2px;stroke-miterlimit:10;"/><path d="M542.475,131.598c4.002,0 7.244,-3.243 7.244,-7.245l0,-3.556l-89.109,0l0,3.556c0,4.002 3.246,7.245 7.246,7.245l74.619,0Z" style="fill:#fff;fill-rule:nonzero;stroke:#7c41ba;stroke-width:2px;stroke-miterlimit:10;"/><path d="M549.719,71.337c0,-4.002 -3.242,-7.245 -7.244,-7.245l-74.619,0c-4,0 -7.246,3.243 -7.246,7.245l0,49.46l89.109,0l0,-49.46Z" style="fill:none;stroke:#7c41ba;stroke-width:2px;stroke-miterlimit:10;"/><path d="M506.374,126.198c0,-0.667 -0.542,-1.208 -1.208,-1.208c-0.667,0 -1.208,0.541 -1.208,1.208c0,0.666 0.541,1.207 1.208,1.207c0.666,0 1.208,-0.541 1.208,-1.207Z" style="fill:none;stroke:#7c41ba;stroke-width:2px;stroke-miterlimit:10;"/><path d="M539.204,126.197c1.334,0 2.414,1.081 2.414,2.415l0,7.036c0,1.486 -0.594,2.835 -1.592,3.807c-0.972,1 -2.322,1.594 -3.806,1.594l-8.387,0c-1.334,0 -2.414,-1.081 -2.414,-2.415l0,-10.022c0,-1.334 1.08,-2.415 2.414,-2.415l11.371,0Z" style="fill:#b999db;fill-rule:nonzero;stroke:#7c41ba;stroke-width:2px;stroke-miterlimit:10;"/><path d="M541.618,135.648c0,1.485 -0.594,2.835 -1.592,3.807c-0.972,1 -2.322,1.593 -3.806,1.593l-1.352,0l0,-2.985c0,-1.334 1.082,-2.415 2.416,-2.415l4.334,0Z" style="fill:#fff;fill-rule:nonzero;stroke:#7c41ba;stroke-width:2px;stroke-miterlimit:10;"/><g><path id="Shape_2_copy_9" d="M510.699,75.09l-4.073,2.642l-0.745,8.476l5.679,-6.348l-0.861,-4.77Z" style="fill:#7c41ba;"/><path id="Shape_2" d="M499.825,79.901l0.473,8.497l3.989,2.761l1.015,-4.745l-5.477,-6.513Z" style="fill:#7c41ba;"/><path id="Shape_2_copy" d="M506.147,86.372l0.861,4.769l4.074,-2.642l0.745,-8.475l-5.68,6.348Z" style="fill:#7c41ba;"/><path id="Shape_2_copy_2" d="M511.716,89.055l-2.759,3.977l4.744,1.013l6.511,-5.459l-8.496,0.469Z" style="fill:#7c41ba;"/><path id="Shape_2_copy_3" d="M513.746,94.916l-4.769,0.863l2.641,4.076l8.475,0.744l-6.347,-5.683Z" style="fill:#7c41ba;"/><path id="Shape_2_copy_4" d="M511.062,100.488l-3.977,-2.758l-1.014,4.744l5.459,6.51l-0.468,-8.496Z" style="fill:#7c41ba;"/><path id="Shape_2_copy_5" d="M504.368,97.778l-4.077,2.641l-0.744,8.475l5.683,-6.346l-0.862,-4.77Z" style="fill:#7c41ba;"/><path id="Shape_2_copy_6" d="M497.642,94.842l-6.509,5.459l8.495,-0.467l2.758,-3.977l-4.744,-1.015Z" style="fill:#7c41ba;"/><path id="Shape_2_copy_7" d="M499.727,89.034l-8.475,-0.744l6.346,5.685l4.77,-0.864l-2.641,-4.077Z" style="fill:#7c41ba;"/><path id="Shape_2_copy_15" d="M491.089,88.551l-4.769,0.863l2.641,4.078l8.474,0.744l-6.346,-5.685Z" style="fill:#7c41ba;"/><path id="Shape_2_copy_8" d="M499.523,79.968l-3.981,-2.764l-1.013,4.749l5.467,6.52l-0.473,-8.505Z" style="fill:#7c41ba;"/><path id="Shape_2_copy_10" d="M518.16,83.307l-6.512,5.458l8.497,-0.468l2.759,-3.977l-4.744,-1.013Z" style="fill:#7c41ba;"/><path id="Shape_2_copy_11" d="M522.383,95.396l-8.475,-0.744l6.347,5.684l4.769,-0.863l-2.641,-4.077Z" style="fill:#7c41ba;"/><path id="Shape_2_copy_12" d="M511.351,100.421l0.468,8.495l3.978,2.759l1.013,-4.744l-5.459,-6.51Z" style="fill:#7c41ba;"/><path id="Shape_2_copy_13" d="M499.78,109.027l0.863,4.77l4.076,-2.642l0.745,-8.475l-5.684,6.347Z" style="fill:#7c41ba;"/><path id="Shape_2_copy_14" d="M491.199,100.591l-2.758,3.978l4.744,1.014l6.511,-5.459l-8.497,0.467Z" style="fill:#7c41ba;"/><path id="Shape_2_copy_16" d="M493.394,105.714l5.887,3.111l0.714,-8.578l-6.601,5.467Z" style="fill:#7c41ba;"/><path id="Shape_2_copy_17" d="M489.021,93.731l1.963,6.363l6.571,-5.561l-8.534,-0.802Z" style="fill:#7c41ba;"/><path id="Shape_2_copy_18" d="M494.403,82.164l-3.102,5.878l8.571,0.724l-5.469,-6.602Z" style="fill:#7c41ba;"/><path id="Shape_2_copy_19" d="M500.03,79.75l5.553,6.577l0.798,-8.539l-6.351,1.962Z" style="fill:#7c41ba;"/><path id="Shape_2_copy_20" d="M512.076,80.072l-0.724,8.575l6.6,-5.472l-5.876,-3.103Z" style="fill:#7c41ba;"/><path id="Shape_2_copy_21" d="M520.367,88.802l-6.577,5.553l8.538,0.798l-1.961,-6.351Z" style="fill:#7c41ba;"/><path id="Shape_2_copy_22" d="M511.47,100.125l5.471,6.6l3.105,-5.877l-8.576,-0.723Z" style="fill:#7c41ba;"/><path id="Shape_2_copy_23" d="M505.761,102.561l-0.797,8.538l6.352,-1.96l-5.555,-6.578Z" style="fill:#7c41ba;"/></g></g><g><path d="M586,587.902c0,-44.183 -35.816,-80 -80,-80c-44.184,0 -80,35.817 -80,80c0,11.771 2.563,22.936 7.129,33l145.742,0c4.566,-10.064 7.129,-21.229 7.129,-33" style="fill:#e3d7ef;fill-rule:nonzero;"/><path d="M428,620.902l156,0" style="fill:none;stroke:#7c41ba;stroke-width:2px;stroke-miterlimit:10;"/><path d="M419,620.902l5,0" style="fill:none;stroke:#7c41ba;stroke-width:2px;stroke-miterlimit:10;"/><path d="M588,620.902l5,0" style="fill:none;stroke:#7c41ba;stroke-width:2px;stroke-miterlimit:10;"/><path d="M534.508,642.572c0,1.893 -13.301,3.428 -29.703,3.428c-16.406,0 -29.703,-1.535 -29.703,-3.428c0,-1.893 13.297,-3.427 29.703,-3.427c16.402,0 29.703,1.534 29.703,3.427" style="fill:#e3d7ef;fill-rule:nonzero;"/><path d="M550.5,562.682c0,-4.002 -3.242,-7.245 -7.244,-7.245l-74.619,0c-4,0 -7.246,3.243 -7.246,7.245l0,49.46l89.109,0l0,-49.46Z" style="fill:#b999db;fill-rule:nonzero;"/><path d="M520.93,555.437l-52.293,0c-4,0 -7.246,3.243 -7.246,7.245l0,49.46l2.834,0l56.705,-56.705Z" style="fill:#fff;fill-rule:nonzero;"/><path d="M516.746,633.745l-21.602,0l1.352,-10.802l18.9,0l1.35,10.802Z" style="fill:#fff;fill-rule:nonzero;stroke:#7c41ba;stroke-width:2px;stroke-miterlimit:10;"/><path d="M521.414,639.145l-30.934,0c-1.203,0 -2.076,-1.254 -1.554,-2.336c0.869,-1.813 2.722,-3.064 4.869,-3.064l24.303,0c2.144,0 4,1.251 4.871,3.064c0.519,1.082 -0.356,2.336 -1.555,2.336Z" style="fill:#fff;fill-rule:nonzero;stroke:#7c41ba;stroke-width:2px;stroke-miterlimit:10;"/><path d="M543.256,622.943c4.002,0 7.244,-3.243 7.244,-7.245l0,-3.556l-89.109,0l0,3.556c0,4.002 3.246,7.245 7.246,7.245l74.619,0Z" style="fill:#fff;fill-rule:nonzero;stroke:#7c41ba;stroke-width:2px;stroke-miterlimit:10;"/><path d="M550.5,562.682c0,-4.002 -3.242,-7.245 -7.244,-7.245l-74.619,0c-4,0 -7.246,3.243 -7.246,7.245l0,49.46l89.109,0l0,-49.46Z" style="fill:none;stroke:#7c41ba;stroke-width:2px;stroke-miterlimit:10;"/><path d="M507.154,617.543c0,-0.666 -0.541,-1.207 -1.208,-1.207c-0.666,0 -1.208,0.541 -1.208,1.207c0,0.667 0.542,1.208 1.208,1.208c0.667,0 1.208,-0.541 1.208,-1.208Z" style="fill:none;stroke:#7c41ba;stroke-width:2px;stroke-miterlimit:10;"/><path d="M539.984,617.543c1.334,0 2.414,1.081 2.414,2.415l0,7.036c0,1.486 -0.594,2.835 -1.592,3.807c-0.972,1 -2.322,1.594 -3.806,1.594l-8.387,0c-1.334,0 -2.414,-1.081 -2.414,-2.415l0,-10.022c0,-1.334 1.08,-2.415 2.414,-2.415l11.371,0Z" style="fill:#b999db;fill-rule:nonzero;stroke:#7c41ba;stroke-width:2px;stroke-miterlimit:10;"/><path d="M542.399,626.994c0,1.485 -0.594,2.835 -1.592,3.807c-0.972,1 -2.322,1.593 -3.806,1.593l-1.352,0l0,-2.985c0,-1.334 1.082,-2.415 2.416,-2.415l4.334,0Z" style="fill:#fff;fill-rule:nonzero;stroke:#7c41ba;stroke-width:2px;stroke-miterlimit:10;"/><g><path id="Shape_2_copy_91" serif:id="Shape_2_copy_9" d="M511.48,566.436l-4.073,2.642l-0.746,8.475l5.68,-6.348l-0.861,-4.769Z" style="fill:#7c41ba;"/><path id="Shape_21" serif:id="Shape_2" d="M500.605,571.246l0.474,8.497l3.989,2.761l1.014,-4.744l-5.477,-6.514Z" style="fill:#7c41ba;"/><path id="Shape_2_copy1" serif:id="Shape_2_copy" d="M506.927,577.717l0.862,4.769l4.074,-2.642l0.745,-8.475l-5.681,6.348Z" style="fill:#7c41ba;"/><path id="Shape_2_copy_24" serif:id="Shape_2_copy_2" d="M512.496,580.4l-2.759,3.977l4.745,1.013l6.511,-5.458l-8.497,0.468Z" style="fill:#7c41ba;"/><path id="Shape_2_copy_31" serif:id="Shape_2_copy_3" d="M514.527,586.262l-4.769,0.862l2.641,4.076l8.474,0.744l-6.346,-5.682Z" style="fill:#7c41ba;"/><path id="Shape_2_copy_41" serif:id="Shape_2_copy_4" d="M511.842,591.834l-3.976,-2.759l-1.014,4.744l5.459,6.51l-0.469,-8.495Z" style="fill:#7c41ba;"/><path id="Shape_2_copy_51" serif:id="Shape_2_copy_5" d="M505.148,589.124l-4.076,2.641l-0.744,8.475l5.683,-6.347l-0.863,-4.769Z" style="fill:#7c41ba;"/><path id="Shape_2_copy_61" serif:id="Shape_2_copy_6" d="M498.423,586.188l-6.509,5.458l8.495,-0.467l2.758,-3.977l-4.744,-1.014Z" style="fill:#7c41ba;"/><path id="Shape_2_copy_71" serif:id="Shape_2_copy_7" d="M500.507,580.379l-8.475,-0.744l6.347,5.685l4.769,-0.863l-2.641,-4.078Z" style="fill:#7c41ba;"/><path id="Shape_2_copy_151" serif:id="Shape_2_copy_15" d="M491.87,579.897l-4.769,0.863l2.641,4.077l8.474,0.744l-6.346,-5.684Z" style="fill:#7c41ba;"/><path id="Shape_2_copy_81" serif:id="Shape_2_copy_8" d="M500.304,571.313l-3.982,-2.763l-1.012,4.748l5.466,6.52l-0.472,-8.505Z" style="fill:#7c41ba;"/><path id="Shape_2_copy_101" serif:id="Shape_2_copy_10" d="M518.94,574.652l-6.511,5.458l8.497,-0.468l2.759,-3.976l-4.745,-1.014Z" style="fill:#7c41ba;"/><path id="Shape_2_copy_111" serif:id="Shape_2_copy_11" d="M523.163,586.742l-8.474,-0.745l6.346,5.684l4.77,-0.862l-2.642,-4.077Z" style="fill:#7c41ba;"/><path id="Shape_2_copy_121" serif:id="Shape_2_copy_12" d="M512.132,591.766l0.468,8.495l3.977,2.759l1.014,-4.744l-5.459,-6.51Z" style="fill:#7c41ba;"/><path id="Shape_2_copy_131" serif:id="Shape_2_copy_13" d="M500.561,600.373l0.862,4.769l4.077,-2.641l0.745,-8.476l-5.684,6.348Z" style="fill:#7c41ba;"/><path id="Shape_2_copy_141" serif:id="Shape_2_copy_14" d="M491.98,591.936l-2.758,3.978l4.744,1.014l6.51,-5.459l-8.496,0.467Z" style="fill:#7c41ba;"/><path id="Shape_2_copy_161" serif:id="Shape_2_copy_16" d="M494.174,597.059l5.887,3.112l0.715,-8.579l-6.602,5.467Z" style="fill:#7c41ba;"/><path id="Shape_2_copy_171" serif:id="Shape_2_copy_17" d="M489.802,585.076l1.962,6.363l6.572,-5.56l-8.534,-0.803Z" style="fill:#7c41ba;"/><path id="Shape_2_copy_181" serif:id="Shape_2_copy_18" d="M495.184,573.509l-3.102,5.878l8.571,0.725l-5.469,-6.603Z" style="fill:#7c41ba;"/><path id="Shape_2_copy_191" serif:id="Shape_2_copy_19" d="M500.811,571.095l5.553,6.578l0.798,-8.539l-6.351,1.961Z" style="fill:#7c41ba;"/><path id="Shape_2_copy_201" serif:id="Shape_2_copy_20" d="M512.857,571.417l-0.724,8.575l6.6,-5.472l-5.876,-3.103Z" style="fill:#7c41ba;"/><path id="Shape_2_copy_211" serif:id="Shape_2_copy_21" d="M521.148,580.148l-6.577,5.553l8.538,0.797l-1.961,-6.35Z" style="fill:#7c41ba;"/><path id="Shape_2_copy_221" serif:id="Shape_2_copy_22" d="M512.25,591.47l5.472,6.6l3.105,-5.876l-8.577,-0.724Z" style="fill:#7c41ba;"/><path id="Shape_2_copy_231" serif:id="Shape_2_copy_23" d="M506.542,593.907l-0.797,8.538l6.351,-1.961l-5.554,-6.577Z" style="fill:#7c41ba;"/></g></g><path d="M202.356,93.511c0,-6.249 5.073,-11.322 11.322,-11.322c6.248,0 11.321,5.073 11.321,11.322c0,6.248 -5.073,11.321 -11.321,11.321c-6.249,0 -11.322,-5.073 -11.322,-11.321" style="fill:#fff;"/><path d="M202.356,93.51c0,6.249 5.073,11.322 11.322,11.322c6.248,0 11.321,-5.073 11.321,-11.322c0,-6.248 -5.073,-11.321 -11.321,-11.321c-6.249,0 -11.322,5.073 -11.322,11.321Z" style="fill:none;stroke:#7c41ba;stroke-width:2px;stroke-miterlimit:10;"/><path d="M224.999,93.511l184.689,0" style="fill:none;stroke:#7c41ba;stroke-width:2px;stroke-miterlimit:10;"/><path d="M398.086,106.662l13.152,-13.151l-13.578,-13.579" style="fill:none;stroke:#7c41ba;stroke-width:2px;stroke-miterlimit:10;"/><path d="M197,362.579l71.794,0" style="fill:none;stroke:#7c41ba;stroke-width:2px;stroke-miterlimit:10;"/><path d="M351,362.579l66.325,0" style="fill:none;stroke:#7c41ba;stroke-width:2px;stroke-miterlimit:10;"/><path d="M404.173,375.73l13.152,-13.151l-13.578,-13.579" style="fill:none;stroke:#7c41ba;stroke-width:2px;stroke-miterlimit:10;"/><path d="M210.152,375.73l-13.152,-13.151l13.578,-13.579" style="fill:none;stroke:#7c41ba;stroke-width:2px;stroke-miterlimit:10;"/><path d="M210.152,598.73l-13.152,-13.151l13.578,-13.579" style="fill:none;stroke:#7c41ba;stroke-width:2px;stroke-miterlimit:10;"/><g><path d="M333.005,121.999c-0.188,0.968 -1.125,1.601 -2.094,1.411l-44.869,-8.77c-0.465,-0.091 -0.875,-0.361 -1.14,-0.755c-0.264,-0.394 -0.362,-0.875 -0.271,-1.341l11.639,-59.635c0.19,-0.969 1.128,-1.601 2.096,-1.411l44.868,8.769c0.969,0.188 1.6,1.128 1.41,2.096l-11.639,59.636Z" style="fill:#fff;fill-rule:nonzero;stroke:#7c41ba;stroke-width:2px;stroke-miterlimit:10;"/><path d="M329.363,125.016c-0.169,0.443 -0.505,0.801 -0.937,0.995c-0.431,0.196 -0.923,0.21 -1.367,0.042l-42.747,-16.216c-0.922,-0.349 -1.386,-1.381 -1.037,-2.304l21.52,-56.82c0.167,-0.442 0.506,-0.801 0.938,-0.995c0.431,-0.194 0.922,-0.21 1.365,-0.041l42.749,16.216c0.922,0.35 1.386,1.382 1.036,2.305l-21.52,56.818Z" style="fill:#fff;fill-rule:nonzero;stroke:#7c41ba;stroke-width:2px;stroke-miterlimit:10;"/><path d="M341.583,74.608c-0.349,0.923 -1.38,1.387 -2.303,1.037l-30.726,-11.655c-0.923,-0.349 -1.386,-1.381 -1.038,-2.304l1.014,-2.674c0.167,-0.444 0.504,-0.803 0.937,-0.997c0.43,-0.194 0.923,-0.21 1.366,-0.041l30.725,11.657c0.443,0.167 0.801,0.503 0.995,0.936c0.196,0.432 0.21,0.924 0.043,1.368l-1.013,2.673Z" style="fill:#b999db;fill-rule:nonzero;stroke:#7c41ba;stroke-width:2px;stroke-miterlimit:10;"/><path d="M338.674,82.295l-0.761,2.005" style="fill:none;stroke:#7c41ba;stroke-width:2px;stroke-miterlimit:10;"/><path d="M334.666,80.776l-0.76,2.005" style="fill:none;stroke:#7c41ba;stroke-width:2px;stroke-miterlimit:10;"/><path d="M330.658,79.255l-0.76,2.005" style="fill:none;stroke:#7c41ba;stroke-width:2px;stroke-miterlimit:10;"/><path d="M326.651,77.735l-0.761,2.006" style="fill:none;stroke:#7c41ba;stroke-width:2px;stroke-miterlimit:10;"/><path d="M336.393,88.311l-0.758,2.005" style="fill:none;stroke:#7c41ba;stroke-width:2px;stroke-miterlimit:10;"/><path d="M332.387,86.792l-0.759,2.005" style="fill:none;stroke:#7c41ba;stroke-width:2px;stroke-miterlimit:10;"/><path d="M328.38,85.271l-0.76,2.005" style="fill:none;stroke:#7c41ba;stroke-width:2px;stroke-miterlimit:10;"/><path d="M334.115,94.327l-0.758,2.006" style="fill:none;stroke:#7c41ba;stroke-width:2px;stroke-miterlimit:10;"/><path d="M330.107,92.808l-0.76,2.004" style="fill:none;stroke:#7c41ba;stroke-width:2px;stroke-miterlimit:10;"/><path d="M326.099,91.287l-0.758,2.005" style="fill:none;stroke:#7c41ba;stroke-width:2px;stroke-miterlimit:10;"/><path d="M322.093,89.766l-0.759,2.007" style="fill:none;stroke:#7c41ba;stroke-width:2px;stroke-miterlimit:10;"/><path d="M303.849,71.379l16.03,6.079" style="fill:none;stroke:#7c41ba;stroke-width:2px;stroke-miterlimit:10;"/><path d="M301.569,77.395l12.022,4.56" style="fill:none;stroke:#7c41ba;stroke-width:2px;stroke-miterlimit:10;"/><path d="M299.292,83.411l14.026,5.321" style="fill:none;stroke:#7c41ba;stroke-width:2px;stroke-miterlimit:10;"/><path d="M331.838,100.343l-0.761,2.006" style="fill:none;stroke:#7c41ba;stroke-width:2px;stroke-miterlimit:10;"/><path d="M327.83,98.823l-0.761,2.007" style="fill:none;stroke:#7c41ba;stroke-width:2px;stroke-miterlimit:10;"/><path d="M323.822,97.303l-0.761,2.005" style="fill:none;stroke:#7c41ba;stroke-width:2px;stroke-miterlimit:10;"/><path d="M319.815,95.782l-0.761,2.006" style="fill:none;stroke:#7c41ba;stroke-width:2px;stroke-miterlimit:10;"/><path d="M315.807,94.263l-0.76,2.005" style="fill:none;stroke:#7c41ba;stroke-width:2px;stroke-miterlimit:10;"/><path d="M297.012,89.426l8.016,3.04" style="fill:none;stroke:#7c41ba;stroke-width:2px;stroke-miterlimit:10;"/><path d="M329.557,106.36l-0.759,2.005" style="fill:none;stroke:#7c41ba;stroke-width:2px;stroke-miterlimit:10;"/><path d="M325.55,104.839l-0.758,2.007" style="fill:none;stroke:#7c41ba;stroke-width:2px;stroke-miterlimit:10;"/><path d="M294.733,95.442l20.04,7.603" style="fill:none;stroke:#7c41ba;stroke-width:2px;stroke-miterlimit:10;"/><path d="M309.213,114.696c-1.661,-0.63 -2.496,-2.487 -1.866,-4.147c0.63,-1.662 2.485,-2.499 4.146,-1.868c1.658,0.629 2.492,2.487 1.865,4.147" style="fill:none;stroke:#7c41ba;stroke-width:2px;stroke-miterlimit:10;"/><path d="M325.761,116.387c-0.63,1.662 -2.485,2.498 -4.145,1.868" style="fill:none;stroke:#7c41ba;stroke-width:2px;stroke-miterlimit:10;"/><path d="M312.979,113.83c0.629,-1.661 2.483,-2.497 4.144,-1.867" style="fill:none;stroke:#7c41ba;stroke-width:2px;stroke-miterlimit:10;"/><path d="M317.986,115.731c0.631,-1.662 2.487,-2.498 4.146,-1.868" style="fill:none;stroke:#7c41ba;stroke-width:2px;stroke-miterlimit:10;"/><path d="M265.506,65.829l-5.192,1.51c-0.948,0.276 -1.492,1.269 -1.217,2.216l0.101,0.342l0,0.002l1.197,4.117l0.099,0.344c0.275,0.948 1.266,1.493 2.213,1.217l0.344,-0.101l6.173,-1.796l5.838,-10.631l-9.556,2.78Z" style="fill:#fff;fill-rule:nonzero;"/><path d="M304.147,132.378c-1.086,0.469 -2.347,-0.033 -2.816,-1.12l-0.848,-1.97c-0.467,-1.09 0.034,-2.349 1.122,-2.817l29.849,-12.87c0.435,-0.188 0.926,-0.195 1.367,-0.018c0.439,0.174 0.792,0.517 0.979,0.952l1.131,2.626c0.39,0.907 -0.029,1.96 -0.934,2.349l-29.85,12.868Z" style="fill:#fff;fill-rule:nonzero;"/><path d="M311.444,122.228l2.544,5.907" style="fill:none;stroke:#7c41ba;stroke-width:2px;stroke-miterlimit:10;"/><path d="M301.604,126.472c-0.937,-2.178 0.066,-4.701 2.24,-5.639l11.81,-5.09" style="fill:none;stroke:#7c41ba;stroke-width:2px;stroke-miterlimit:10;"/><path d="M338.607,117.565c-1.63,0.702 -3.521,-0.05 -4.223,-1.682c-0.702,-1.632 0.05,-3.525 1.679,-4.227c1.631,-0.704 6.193,0.834 6.193,0.834c0,0 -2.017,4.372 -3.649,5.075" style="fill:#b999db;fill-rule:nonzero;"/><path d="M338.607,117.565c-1.63,0.702 -3.521,-0.05 -4.223,-1.682c-0.702,-1.632 0.05,-3.525 1.679,-4.227c1.631,-0.704 6.193,0.834 6.193,0.834c0,0 -2.017,4.372 -3.649,5.075Z" style="fill:none;stroke:#7c41ba;stroke-width:2px;stroke-miterlimit:10;"/><path d="M304.147,132.378c-1.086,0.469 -2.347,-0.033 -2.816,-1.12l-0.848,-1.97c-0.467,-1.09 0.034,-2.349 1.122,-2.817l29.849,-12.87c0.435,-0.188 0.926,-0.195 1.367,-0.018c0.439,0.174 0.792,0.517 0.979,0.952l1.131,2.626c0.39,0.907 -0.029,1.96 -0.934,2.349l-29.85,12.868Z" style="fill:none;stroke:#7c41ba;stroke-width:2px;stroke-miterlimit:10;"/></g><g><path d="M333,229.281l-7.857,1.572" style="fill:none;stroke:#7c41ba;stroke-width:2px;"/><path d="M326,221.978l-3.709,1.521c-1.195,0.484 -2.561,-0.065 -3.088,-1.242c-0.527,-1.176 -0.031,-2.56 1.125,-3.133l3.705,-1.8c0.815,-0.408 1.76,-0.461 2.615,-0.151l6.768,2.589" style="fill:none;stroke:#7c41ba;stroke-width:2px;"/><path d="M311,230.978l2.801,0l4.66,3.542c0.486,0.548 1.32,0.612 1.887,0.147l7,-5.613c0.574,-0.471 0.666,-1.312 0.211,-1.898l-3.844,-4.237" style="fill:none;stroke:#7c41ba;stroke-width:2px;"/><path d="M320.02,219.327l-0.5,-0.412c-0.504,-0.369 -1.113,-0.569 -1.74,-0.569c-0.373,-0.001 -0.742,0.07 -1.09,0.21l-5.69,2.421" style="fill:none;stroke:#7c41ba;stroke-width:2px;"/><path d="M305,232.978l4,0c1.105,0 2,-0.895 2,-2l0,-10c0,-1.104 -0.895,-2 -2,-2l-4,0l0,14Z" style="fill:#b999db;fill-rule:nonzero;stroke:#7c41ba;stroke-width:2px;"/><path d="M339,232.978l-4,0c-1.105,0 -2,-0.895 -2,-2l0,-10c0,-1.104 0.895,-2 2,-2l4,0l0,14Z" style="fill:#b999db;fill-rule:nonzero;stroke:#7c41ba;stroke-width:2px;"/><path d="M326,188.978l-25,0c-3.314,0 -6,2.687 -6,6l0,39c0,0.552 0.449,1 1,1l5,0" style="fill:none;stroke:#7c41ba;stroke-width:2px;"/><path d="M301,196.978l14,0" style="fill:none;stroke:#7c41ba;stroke-width:2px;"/><path d="M301,202.978l14,0" style="fill:none;stroke:#7c41ba;stroke-width:2px;"/><path d="M301,208.978l7,0" style="fill:none;stroke:#7c41ba;stroke-width:2px;"/><path d="M321,213.978l0,-20c0,-2.762 2.238,-5 5,-5c2.76,0 5,2.238 5,6l-10,0" style="fill:none;stroke:#7c41ba;stroke-width:2px;"/></g><path d="M493.356,167.976c0,6.249 5.073,11.322 11.322,11.322c6.248,0 11.321,-5.073 11.321,-11.322c0,-6.248 -5.073,-11.321 -11.321,-11.321c-6.249,0 -11.322,5.073 -11.322,11.321Z" style="fill:#fff;stroke:#7c41ba;stroke-width:2px;stroke-miterlimit:10;"/><path d="M344.017,586l69.544,0" style="fill:none;stroke:#7c41ba;stroke-width:2px;"/><path d="M199.017,586l74.544,0" style="fill:none;stroke:#7c41ba;stroke-width:2px;"/><path d="M505,494.624l0,-48.624" style="fill:none;stroke:#7c41ba;stroke-width:2px;"/><path d="M493.356,447.976c0,6.249 5.073,11.322 11.322,11.322c6.248,0 11.321,-5.073 11.321,-11.322c0,-6.248 -5.073,-11.321 -11.321,-11.321c-6.249,0 -11.322,5.073 -11.322,11.321Z" style="fill:#fff;stroke:#7c41ba;stroke-width:2px;stroke-miterlimit:10;"/><g><path d="M586,365c0,-44.183 -35.816,-80 -80,-80c-44.184,0 -80,35.817 -80,80c0,11.771 2.563,22.936 7.129,33l145.742,0c4.566,-10.064 7.129,-21.229 7.129,-33" style="fill:#e3d7ef;fill-rule:nonzero;"/><path d="M428,398l156,0" style="fill:none;stroke:#7c41ba;stroke-width:2px;stroke-miterlimit:10;"/><path d="M419,398l5,0" style="fill:none;stroke:#7c41ba;stroke-width:2px;stroke-miterlimit:10;"/><path d="M588,398l5,0" style="fill:none;stroke:#7c41ba;stroke-width:2px;stroke-miterlimit:10;"/><path d="M534.508,419.67c0,1.893 -13.301,3.428 -29.703,3.428c-16.406,0 -29.703,-1.535 -29.703,-3.428c0,-1.893 13.297,-3.427 29.703,-3.427c16.402,0 29.703,1.534 29.703,3.427" style="fill:#e3d7ef;fill-rule:nonzero;"/><path d="M550.5,339.78c0,-4.002 -3.242,-7.245 -7.244,-7.245l-74.619,0c-4,0 -7.246,3.243 -7.246,7.245l0,49.46l89.109,0l0,-49.46Z" style="fill:#b999db;fill-rule:nonzero;"/><path d="M520.93,332.535l-52.293,0c-4,0 -7.246,3.243 -7.246,7.245l0,49.46l2.834,0l56.705,-56.705Z" style="fill:#fff;fill-rule:nonzero;"/><path d="M516.746,410.843l-21.602,0l1.352,-10.802l18.9,0l1.35,10.802Z" style="fill:#fff;fill-rule:nonzero;stroke:#7c41ba;stroke-width:2px;stroke-miterlimit:10;"/><path d="M521.414,416.243l-30.934,0c-1.203,0 -2.076,-1.254 -1.554,-2.336c0.869,-1.813 2.722,-3.064 4.869,-3.064l24.303,0c2.144,0 4,1.251 4.871,3.064c0.519,1.082 -0.356,2.336 -1.555,2.336Z" style="fill:#fff;fill-rule:nonzero;stroke:#7c41ba;stroke-width:2px;stroke-miterlimit:10;"/><path d="M543.256,400.041c4.002,0 7.244,-3.243 7.244,-7.245l0,-3.556l-89.109,0l0,3.556c0,4.002 3.246,7.245 7.246,7.245l74.619,0Z" style="fill:#fff;fill-rule:nonzero;stroke:#7c41ba;stroke-width:2px;stroke-miterlimit:10;"/><path d="M550.5,339.78c0,-4.002 -3.242,-7.245 -7.244,-7.245l-74.619,0c-4,0 -7.246,3.243 -7.246,7.245l0,49.46l89.109,0l0,-49.46Z" style="fill:none;stroke:#7c41ba;stroke-width:2px;stroke-miterlimit:10;"/><path d="M507.154,394.641c0,-0.666 -0.541,-1.207 -1.208,-1.207c-0.666,0 -1.208,0.541 -1.208,1.207c0,0.667 0.542,1.208 1.208,1.208c0.667,0 1.208,-0.541 1.208,-1.208Z" style="fill:none;stroke:#7c41ba;stroke-width:2px;stroke-miterlimit:10;"/><path d="M539.984,394.641c1.334,0 2.414,1.081 2.414,2.415l0,7.036c0,1.486 -0.594,2.835 -1.592,3.807c-0.972,1 -2.322,1.594 -3.806,1.594l-8.387,0c-1.334,0 -2.414,-1.081 -2.414,-2.415l0,-10.022c0,-1.334 1.08,-2.415 2.414,-2.415l11.371,0Z" style="fill:#b999db;fill-rule:nonzero;stroke:#7c41ba;stroke-width:2px;stroke-miterlimit:10;"/><path d="M542.399,404.092c0,1.485 -0.594,2.835 -1.592,3.807c-0.972,1 -2.322,1.593 -3.806,1.593l-1.352,0l0,-2.985c0,-1.334 1.082,-2.415 2.416,-2.415l4.334,0Z" style="fill:#fff;fill-rule:nonzero;stroke:#7c41ba;stroke-width:2px;stroke-miterlimit:10;"/><rect x="491.862" y="348.861" width="31.413" height="24.719" style="fill:#fff;"/><path d="M511.002,360.314c-1.194,0 -2.136,1.026 -2.136,2.304c0,1.277 0.963,2.303 2.136,2.303c1.194,0 2.137,-1.026 2.137,-2.303c0,-1.278 -0.964,-2.304 -2.137,-2.304m-7.646,0c-1.193,0 -2.136,1.026 -2.136,2.304c0,1.277 0.964,2.303 2.136,2.303c1.195,0 2.137,-1.026 2.137,-2.303c0.021,-1.278 -0.942,-2.304 -2.137,-2.304" style="fill:#7c41ba;fill-rule:nonzero;"/><path d="M521.033,342.681l-27.981,0c-2.359,0 -4.28,1.92 -4.28,4.28l0,27.981c0,2.359 1.921,4.281 4.28,4.281l23.68,0l-1.107,-3.822l2.673,2.464l2.527,2.318l4.51,3.906l0,-37.128c-0.021,-2.36 -1.942,-4.28 -4.302,-4.28m-8.06,27.041c0,0 -0.752,-0.898 -1.378,-1.671c2.735,-0.772 3.779,-2.464 3.779,-2.464c-0.856,0.564 -1.67,0.961 -2.401,1.232c-1.044,0.438 -2.047,0.71 -3.028,0.898c-2.004,0.376 -3.842,0.272 -5.408,-0.02c-1.19,-0.23 -2.214,-0.543 -3.07,-0.899c-0.48,-0.187 -1.002,-0.417 -1.524,-0.709c-0.063,-0.042 -0.125,-0.063 -0.188,-0.105c-0.042,-0.021 -0.063,-0.042 -0.083,-0.042c-0.376,-0.208 -0.585,-0.355 -0.585,-0.355c0,0 1.002,1.65 3.654,2.443c-0.627,0.794 -1.399,1.713 -1.399,1.713c-4.614,-0.147 -6.369,-3.153 -6.369,-3.153c0,-6.661 3.007,-12.07 3.007,-12.07c3.007,-2.234 5.847,-2.171 5.847,-2.171l0.208,0.25c-3.758,1.065 -5.47,2.715 -5.47,2.715c0,0 0.459,-0.251 1.232,-0.585c2.234,-0.981 4.009,-1.232 4.74,-1.316c0.125,-0.02 0.23,-0.041 0.355,-0.041c1.274,-0.167 2.715,-0.209 4.218,-0.042c1.984,0.23 4.113,0.815 6.285,1.984c0,0 -1.65,-1.566 -5.199,-2.632l0.292,-0.333c0,0 2.861,-0.063 5.847,2.171c0,0 3.007,5.409 3.007,12.07c0,-0.021 -1.754,2.986 -6.369,3.132" style="fill:#7c41ba;fill-rule:nonzero;"/></g><g><path d="M129.597,605c6.627,0 12,-5.373 12,-12l0,-24c0,-13.783 -11.619,-24.854 -25.598,-23.948c-12.756,0.826 -22.402,11.987 -22.402,24.77l0,23.178c0,6.627 5.373,12 12,12l24,0Z" style="fill:#fff;fill-rule:nonzero;stroke:#7c41ba;stroke-width:2px;stroke-miterlimit:10;"/><path d="M148.195,629c-2.391,-14.744 -15.18,-26 -30.598,-26c-15.418,0 -28.207,11.256 -30.597,26l61.195,0Z" style="fill:#b999db;fill-rule:nonzero;stroke:#7c41ba;stroke-width:2px;stroke-miterlimit:10;"/><path d="M131.597,608.65c0,-4.227 -3.426,-7.652 -7.652,-7.652l-12.696,0c-4.226,0 -7.652,3.425 -7.652,7.652c0,0.893 0.156,1.777 0.461,2.615l3.539,9.733l10,-6l10,6l3.539,-9.733c0.305,-0.838 0.461,-1.722 0.461,-2.615" style="fill:#b999db;fill-rule:nonzero;"/><path d="M131.597,608.65c0,-4.227 -3.426,-7.652 -7.652,-7.652l-12.696,0c-4.226,0 -7.652,3.425 -7.652,7.652c0,0.893 0.156,1.777 0.461,2.615l3.539,9.733l10,-6l10,6l3.539,-9.733c0.305,-0.838 0.461,-1.722 0.461,-2.615Z" style="fill:none;stroke:#7c41ba;stroke-width:2px;stroke-miterlimit:10;"/><path d="M117.597,615l0,14" style="fill:none;stroke:#7c41ba;stroke-width:2px;stroke-miterlimit:10;"/><path d="M124.597,608l-7,7l-7,-7l0,-11l14,0l0,11Z" style="fill:#fff;fill-rule:nonzero;stroke:#7c41ba;stroke-width:2px;stroke-miterlimit:10;"/><path d="M137.582,575.998l0,-5c0,-0.467 -0.039,-0.926 -0.07,-1.385c-2.987,1.514 -6.354,2.387 -9.93,2.387c-6.941,0 -13.121,-3.223 -17.154,-8.244c-0.842,5.24 -5.371,9.244 -10.846,9.244c-0.684,0 -1.352,-0.07 -2,-0.191l0,3.189c-2.211,0 -4,1.791 -4,4c0,2.211 1.789,4 4,4c0.082,0 0.16,-0.02 0.244,-0.023c1.44,9.63 9.723,17.023 19.756,17.023c10.031,0 18.313,-7.393 19.754,-17.023c0.082,0.003 0.16,0.023 0.246,0.023c2.207,0 4,-1.789 4,-4c0,-2.209 -1.793,-4 -4,-4Z" style="fill:#fff;fill-rule:nonzero;stroke:#7c41ba;stroke-width:2px;stroke-miterlimit:10;"/><path d="M111.564,589.592c3.643,3.209 8.389,3.209 12.033,0" style="fill:none;stroke:#7c41ba;stroke-width:2px;stroke-miterlimit:10;"/><path d="M128.597,578c-0.619,-1.18 -1.707,-2.008 -3.008,-2.008c-1.301,0 -2.39,0.828 -3.008,2.008" style="fill:none;stroke:#7c41ba;stroke-width:2px;stroke-miterlimit:10;"/><path d="M112.613,578c-0.617,-1.18 -1.707,-2.008 -3.008,-2.008c-1.301,0 -2.388,0.828 -3.008,2.008" style="fill:none;stroke:#7c41ba;stroke-width:2px;stroke-miterlimit:10;"/><path d="M108.597,584.498c0,1.383 -1.119,2.5 -2.5,2.5c-1.381,0 -2.5,-1.117 -2.5,-2.5c0,-1.379 1.119,-2.5 2.5,-2.5c1.381,0 2.5,1.121 2.5,2.5" style="fill:#b999db;fill-rule:nonzero;"/><path d="M126.597,584.498c0,1.383 1.119,2.5 2.5,2.5c1.381,0 2.5,-1.117 2.5,-2.5c0,-1.379 -1.119,-2.5 -2.5,-2.5c-1.381,0 -2.5,1.121 -2.5,2.5" style="fill:#b999db;fill-rule:nonzero;"/></g></g><g id="Ebene-11" serif:id="Ebene 1"><path d="M561.926,138.202c0.179,0.609 -0.17,1.248 -0.779,1.428l-31.574,9.27c-0.609,0.179 -1.249,-0.17 -1.427,-0.779l-12.289,-41.855c-0.18,-0.609 0.17,-1.248 0.779,-1.427l31.573,-9.271c0.61,-0.179 1.248,0.17 1.428,0.78l12.289,41.854Z" style="fill:#fff;fill-rule:nonzero;stroke:#7c41ba;stroke-width:2px;stroke-miterlimit:10;"/><path d="M557.417,142.946c0,0.635 -0.515,1.149 -1.149,1.149l-32.907,0c-0.635,0 -1.15,-0.514 -1.15,-1.149l0,-43.621c0,-0.636 0.515,-1.15 1.15,-1.15l32.907,0c0.634,0 1.149,0.514 1.149,1.15l0,43.621Z" style="fill:#fff;fill-rule:nonzero;stroke:#7c41ba;stroke-width:2px;stroke-miterlimit:10;"/><path d="M552.826,106.209c0,0.635 -0.515,1.15 -1.149,1.15l-23.723,0c-0.635,0 -1.149,-0.515 -1.149,-1.15l0,-2.292c0,-0.636 0.514,-1.15 1.149,-1.15l23.723,0c0.634,0 1.149,0.514 1.149,1.15l0,2.292Z" style="fill:#b999db;fill-rule:nonzero;stroke:#7c41ba;stroke-width:1px;stroke-miterlimit:10;"/><path d="M535.988,115.013l6.123,0" style="fill:none;stroke:#7c41ba;stroke-width:1px;stroke-miterlimit:10;"/><path d="M535.988,118.074l13.776,0" style="fill:none;stroke:#7c41ba;stroke-width:1px;stroke-miterlimit:10;"/><path d="M535.988,121.135l9.962,0" style="fill:none;stroke:#7c41ba;stroke-width:1px;stroke-miterlimit:10;"/><path d="M535.988,130.319l7.654,0" style="fill:none;stroke:#7c41ba;stroke-width:1px;stroke-miterlimit:10;"/><path d="M535.988,133.381l15.308,0" style="fill:none;stroke:#7c41ba;stroke-width:1px;stroke-miterlimit:10;"/><path d="M535.988,136.442l12.246,0" style="fill:none;stroke:#7c41ba;stroke-width:1px;stroke-miterlimit:10;"/><path d="M528.141,119.799c0,0.953 0.772,1.725 1.725,1.725c0.953,0 1.725,-0.772 1.725,-1.725c0,-0.953 -0.772,-1.725 -1.725,-1.725c-0.953,0 -1.725,-0.772 -1.725,-1.725c0,-0.952 0.772,-1.725 1.725,-1.725c0.953,0 1.725,0.773 1.725,1.725" style="fill:none;stroke:#7c41ba;stroke-width:1px;stroke-miterlimit:10;"/><path d="M529.865,114.624l0,-1.15" style="fill:none;stroke:#7c41ba;stroke-width:1px;stroke-miterlimit:10;"/><path d="M529.865,122.674l0,-1.15" style="fill:none;stroke:#7c41ba;stroke-width:1px;stroke-miterlimit:10;"/><path d="M528.141,135.106c0,0.952 0.772,1.726 1.725,1.726c0.953,0 1.725,-0.774 1.725,-1.726c0,-0.952 -0.772,-1.726 -1.725,-1.726c-0.953,0 -1.725,-0.772 -1.725,-1.724c0,-0.953 0.772,-1.726 1.725,-1.726c0.953,0 1.725,0.773 1.725,1.726" style="fill:none;stroke:#7c41ba;stroke-width:1px;stroke-miterlimit:10;"/><path d="M529.865,129.931l0,-1.149" style="fill:none;stroke:#7c41ba;stroke-width:1px;stroke-miterlimit:10;"/><path d="M529.865,137.981l0,-1.149" style="fill:none;stroke:#7c41ba;stroke-width:1px;stroke-miterlimit:10;"/><path d="M573.356,151.04c1.115,1.114 1.115,2.921 0,4.036c-1.114,1.114 -2.921,1.114 -4.035,0l-7.568,-7.568l4.037,-4.036l7.566,7.568Z" style="fill:#b999db;fill-rule:nonzero;stroke:#7c41ba;stroke-width:1px;stroke-miterlimit:10;"/><path d="M557.717,141.455l2.018,-2.02l5.047,5.045l-2.019,2.019l-5.046,-5.044Z" style="fill:#fff;stroke:#7c41ba;stroke-width:1px;stroke-miterlimit:10;"/><path d="M560.241,123.796c5.014,5.016 5.014,13.146 0,18.163c-5.018,5.016 -13.147,5.016 -18.163,0c-5.016,-5.017 -5.016,-13.147 0,-18.163c5.016,-5.016 13.145,-5.016 18.163,0" style="fill:#fff;fill-rule:nonzero;"/><path d="M560.241,123.796c-5.012,-5.012 -13.151,-5.012 -18.163,0c-5.012,5.012 -5.012,13.151 0,18.163c5.012,5.012 13.151,5.012 18.163,0c5.012,-5.012 5.012,-13.151 0,-18.163Z" style="fill:none;stroke:#7c41ba;stroke-width:1px;stroke-miterlimit:10;"/><path d="M557.717,126.319c3.623,3.621 3.623,9.494 0,13.116c-3.621,3.623 -9.494,3.623 -13.117,0c-3.621,-3.622 -3.621,-9.495 0,-13.116c3.623,-3.622 9.496,-3.622 13.117,0" style="fill:#b999db;fill-rule:nonzero;"/><path d="M557.717,126.319c-3.621,-3.622 -9.495,-3.622 -13.117,0c-3.621,3.621 -3.621,9.494 0,13.116c0.045,0.045 0.094,0.082 0.138,0.125l13.104,-13.103c-0.043,-0.045 -0.081,-0.095 -0.125,-0.138" style="fill:#fff;fill-rule:nonzero;"/><path d="M557.719,126.319c-3.62,-3.62 -9.498,-3.621 -13.118,-0.001c-3.62,3.62 -3.62,9.498 -0.001,13.118c3.62,3.62 9.498,3.62 13.118,0c3.62,-3.619 3.62,-9.497 0.001,-13.117Z" style="fill:none;stroke:#7c41ba;stroke-width:1px;stroke-miterlimit:10;"/><path d="M557.362,159.069c0,0.952 -5.663,1.726 -12.65,1.726c-6.987,0 -12.65,-0.774 -12.65,-1.726c0,-0.953 5.663,-1.725 12.65,-1.725c6.987,0 12.65,0.772 12.65,1.725" style="fill:#b999db;fill-rule:nonzero;"/></g><g id="Ebene-12" serif:id="Ebene 1"><path d="M599.756,614.205c0,22.091 -17.908,40 -40,40c-22.092,0 -40,-17.909 -40,-40c0,-22.091 17.908,-40 40,-40c22.092,0 40,17.909 40,40" style="fill:#e3d7ef;fill-rule:nonzero;"/><path d="M573.194,615.02c0,7.672 -6.219,13.892 -13.892,13.892c-7.671,0 -13.891,-6.22 -13.891,-13.892c0,-7.672 6.22,-13.892 13.891,-13.892c7.673,0 13.892,6.22 13.892,13.892" style="fill:#b999db;fill-rule:nonzero;"/><path d="M573.194,615.02c0,-7.667 -6.225,-13.892 -13.892,-13.892c-7.667,0 -13.891,6.225 -13.891,13.892c0,7.668 6.224,13.892 13.891,13.892c7.667,0 13.892,-6.224 13.892,-13.892Z" style="fill:none;stroke:#7c41ba;stroke-width:1px;stroke-linecap:butt;stroke-linejoin:miter;stroke-miterlimit:10;"/><path d="M548.969,638.858l-7.72,-7.721" style="fill:none;stroke:#7c41ba;stroke-width:1px;stroke-linejoin:miter;stroke-miterlimit:10;"/><path d="M583.237,626.414l-7.816,7.817" style="fill:none;stroke:#7c41ba;stroke-width:1px;stroke-linejoin:miter;stroke-miterlimit:10;"/><path d="M571.227,590.459l7.865,7.865" style="fill:none;stroke:#7c41ba;stroke-width:1px;stroke-linejoin:miter;stroke-miterlimit:10;"/><path d="M536.043,602.951l8.037,-8.037" style="fill:none;stroke:#7c41ba;stroke-width:1px;stroke-linejoin:miter;stroke-miterlimit:10;"/><path d="M595.075,613.613c0,4.603 -3.731,8.335 -8.335,8.335c-4.603,0 -8.335,-3.732 -8.335,-8.335c0,-4.609 2.354,-8.224 4.746,-8.912c0.406,-0.116 0.844,-0.002 1.142,0.298c2.589,2.605 10.782,-0.643 10.782,8.614" style="fill:#fff;fill-rule:nonzero;"/><path d="M595.075,613.613c0,4.603 -3.731,8.335 -8.335,8.335c-4.603,0 -8.335,-3.732 -8.335,-8.335c0,-4.609 2.354,-8.224 4.746,-8.912c0.406,-0.116 0.844,-0.002 1.142,0.298c2.589,2.605 10.782,-0.643 10.782,8.614Z" style="fill:none;stroke:#7c41ba;stroke-width:1px;stroke-miterlimit:10;"/><path d="M593.693,615.696l-1.399,0.695l-1.01,-3.533c-0.199,-0.702 -0.91,-1.141 -1.621,-0.978c-0.754,0.172 -1.788,0.343 -2.926,0.343c-1.137,0 -2.172,-0.171 -2.926,-0.343c-0.711,-0.163 -1.42,0.276 -1.621,0.978l-1.01,3.533l-1.379,-0.695c-1.982,0 -1.848,3.473 0.348,3.473l0.006,-0.001c0.889,2.811 3.487,4.863 6.592,4.863c3.106,0 5.705,-2.052 6.593,-4.863l0.004,0.001c2.198,0 2.331,-3.473 0.349,-3.473Z" style="fill:#fff;fill-rule:nonzero;stroke:#7c41ba;stroke-width:1px;stroke-miterlimit:10;"/><circle cx="584.496" cy="615.87" r="0.868" style="fill:#7c41ba;"/><circle cx="589.011" cy="615.87" r="0.868" style="fill:#7c41ba;"/><path d="M583.282,617.78c0,0.383 -0.312,0.694 -0.695,0.694c-0.383,0 -0.695,-0.311 -0.695,-0.694c0,-0.384 0.312,-0.695 0.695,-0.695c0.383,0 0.695,0.311 0.695,0.695" style="fill:#b999db;fill-rule:nonzero;"/><path d="M591.616,617.78c0,0.383 -0.311,0.694 -0.694,0.694c-0.384,0 -0.695,-0.311 -0.695,-0.694c0,-0.384 0.311,-0.695 0.695,-0.695c0.383,0 0.694,0.311 0.694,0.695" style="fill:#b999db;fill-rule:nonzero;"/><path d="M585.02,620.033c1.051,0.7 2.422,0.7 3.473,0" style="fill:none;stroke:#7c41ba;stroke-width:1px;stroke-miterlimit:10;"/><path d="M539.622,617.336c0,-0.696 -0.502,-1.251 -1.157,-1.389l0,-0.926c0,-3.836 -3.11,-6.946 -6.946,-6.946c-3.835,0 -6.946,3.11 -6.946,6.946l0,0.926c-0.655,0.138 -1.157,0.693 -1.157,1.389c0,0.748 0.574,1.343 1.303,1.418c0.654,3.155 3.45,5.527 6.8,5.527c3.35,0 6.145,-2.372 6.799,-5.527c0.729,-0.075 1.304,-0.67 1.304,-1.418" style="fill:#fff;fill-rule:nonzero;"/><path d="M539.622,617.336c0,-0.696 -0.502,-1.251 -1.157,-1.389l0,-0.926c0,-3.836 -3.11,-6.946 -6.946,-6.946c-3.835,0 -6.946,3.11 -6.946,6.946l0,0.926c-0.655,0.138 -1.157,0.693 -1.157,1.389c0,0.748 0.574,1.343 1.303,1.418c0.654,3.155 3.45,5.527 6.8,5.527c3.35,0 6.145,-2.372 6.799,-5.527c0.729,-0.075 1.304,-0.67 1.304,-1.418Z" style="fill:none;stroke:#7c41ba;stroke-width:1px;stroke-miterlimit:10;"/><path d="M539.622,617.336c0,-0.696 -0.502,-1.251 -1.157,-1.389l0,-0.926c0,-3.836 -3.11,-6.946 -6.946,-6.946c-3.835,0 -6.946,3.11 -6.946,6.946l0,0.926c-0.655,0.138 -1.157,0.693 -1.157,1.389c0,0.748 0.574,1.343 1.303,1.418c0.654,3.155 3.45,5.527 6.8,5.527c3.35,0 6.145,-2.372 6.799,-5.527c0.729,-0.075 1.304,-0.67 1.304,-1.418Z" style="fill:none;stroke:#7c41ba;stroke-width:1px;stroke-miterlimit:10;"/><circle cx="528.914" cy="615.888" r="0.868" style="fill:#7c41ba;"/><circle cx="534.124" cy="615.888" r="0.868" style="fill:#7c41ba;"/><path d="M528.625,618.204c0,0.479 -0.389,0.868 -0.868,0.868c-0.48,0 -0.868,-0.389 -0.868,-0.868c0,-0.479 0.388,-0.868 0.868,-0.868c0.479,0 0.868,0.389 0.868,0.868" style="fill:#b999db;fill-rule:nonzero;"/><path d="M536.15,618.204c0,0.479 -0.389,0.868 -0.868,0.868c-0.48,0 -0.868,-0.389 -0.868,-0.868c0,-0.479 0.388,-0.868 0.868,-0.868c0.479,0 0.868,0.389 0.868,0.868" style="fill:#b999db;fill-rule:nonzero;"/><path d="M529.783,620.282c1.052,0.701 2.422,0.701 3.474,0" style="fill:none;stroke:#7c41ba;stroke-width:1px;stroke-miterlimit:10;"/><path d="M523.994,609.811l0,5.209c0,0.32 0.26,0.579 0.579,0.579l0.579,0l2.315,-5.788l-3.473,0Z" style="fill:#fff;fill-rule:nonzero;stroke:#7c41ba;stroke-width:1px;stroke-miterlimit:10;"/><path d="M539.043,610.39c0,-2.557 -2.072,-4.63 -4.63,-4.63l-5.21,0c-0.465,0 -0.867,-0.276 -1.051,-0.672c-0.119,-0.257 -0.402,-0.486 -0.685,-0.486l-0.984,0c-1.823,0 -3.463,1.328 -3.631,3.143c-0.178,1.936 1.232,3.581 3.078,3.782c0.422,1.234 1.469,2.336 2.695,2.336l1.157,0c0.095,0 0.178,-0.063 0.202,-0.154c0.026,-0.091 -0.013,-0.188 -0.093,-0.236c-0.563,-0.335 -0.889,-0.819 -1.069,-1.412c-0.036,-0.12 -0.013,-0.251 0.062,-0.352c0.075,-0.101 0.194,-0.161 0.319,-0.161l4.731,0c0.306,0 0.601,0.122 0.818,0.339l3.134,3.134l0.579,0c0.319,0 0.578,-0.26 0.578,-0.579l0,-4.052Z" style="fill:#fff;fill-rule:nonzero;stroke:#7c41ba;stroke-width:1px;stroke-miterlimit:10;"/><path d="M567.406,645.118c0,-0.696 -0.502,-1.25 -1.157,-1.389l0,-0.925c0,-3.836 -3.11,-6.947 -6.947,-6.947c-3.835,0 -6.946,3.111 -6.946,6.947l0,0.925c-0.654,0.139 -1.156,0.693 -1.156,1.389c0,0.748 0.574,1.344 1.303,1.418c0.654,3.156 3.45,5.528 6.799,5.528c3.351,0 6.146,-2.372 6.8,-5.528c0.729,-0.074 1.304,-0.67 1.304,-1.418" style="fill:#fff;fill-rule:nonzero;"/><path d="M567.406,645.118c0,-0.696 -0.502,-1.25 -1.157,-1.389l0,-0.925c0,-3.836 -3.11,-6.947 -6.947,-6.947c-3.835,0 -6.946,3.111 -6.946,6.947l0,0.925c-0.654,0.139 -1.156,0.693 -1.156,1.389c0,0.748 0.574,1.344 1.303,1.418c0.654,3.156 3.45,5.528 6.799,5.528c3.351,0 6.146,-2.372 6.8,-5.528c0.729,-0.074 1.304,-0.67 1.304,-1.418Z" style="fill:none;stroke:#7c41ba;stroke-width:1px;stroke-miterlimit:10;"/><path d="M556.408,645.987c0,0.479 -0.389,0.867 -0.869,0.867c-0.479,0 -0.867,-0.388 -0.867,-0.867c0,-0.48 0.388,-0.869 0.867,-0.869c0.48,0 0.869,0.389 0.869,0.869" style="fill:#b999db;fill-rule:nonzero;"/><path d="M563.933,645.987c0,0.479 -0.39,0.867 -0.868,0.867c-0.481,0 -0.869,-0.388 -0.869,-0.867c0,-0.48 0.388,-0.869 0.869,-0.869c0.478,0 0.868,0.389 0.868,0.869" style="fill:#b999db;fill-rule:nonzero;"/><path d="M557.566,648.065c1.052,0.701 2.421,0.701 3.474,0" style="fill:none;stroke:#7c41ba;stroke-width:1px;stroke-miterlimit:10;"/><path d="M566.826,641.067c0,-4.156 -3.369,-7.525 -7.524,-7.525c-4.156,0 -7.525,3.369 -7.525,7.525l0,2.314c2.057,-0.554 3.283,-1.816 4.052,-3.472c3.243,2.183 7.524,1.736 10.997,1.158Z" style="fill:#fff;fill-rule:nonzero;stroke:#7c41ba;stroke-width:1px;stroke-miterlimit:10;"/><path d="M554.672,638.751c0,0 0.447,0.75 1.157,1.158" style="fill:none;stroke:#7c41ba;stroke-width:1px;stroke-miterlimit:10;"/><path d="M555.762,643.673c0.385,-0.385 1.009,-0.385 1.394,0" style="fill:none;stroke:#7c41ba;stroke-width:1px;stroke-miterlimit:10;"/><path d="M561.334,643.673c0.385,-0.385 1.009,-0.385 1.393,0" style="fill:none;stroke:#7c41ba;stroke-width:1px;stroke-miterlimit:10;"/><path d="M548.305,593.604c0,1.278 -1.037,2.315 -2.315,2.315c-1.279,0 -2.316,-1.037 -2.316,-2.315c0,-1.279 1.037,-2.315 2.316,-2.315c1.278,0 2.315,1.036 2.315,2.315" style="fill:#b999db;fill-rule:nonzero;"/><path d="M548.305,593.604c0,-1.277 -1.038,-2.315 -2.316,-2.315c-1.278,0 -2.315,1.038 -2.315,2.315c0,1.278 1.037,2.315 2.315,2.315c1.278,0 2.316,-1.037 2.316,-2.315Z" style="fill:none;stroke:#7c41ba;stroke-width:1px;stroke-miterlimit:10;"/><path d="M583.033,599.971c0,1.279 -1.037,2.315 -2.315,2.315c-1.279,0 -2.316,-1.036 -2.316,-2.315c0,-1.279 1.037,-2.315 2.316,-2.315c1.278,0 2.315,1.036 2.315,2.315" style="fill:#b999db;fill-rule:nonzero;"/><path d="M583.033,599.971c0,-1.278 -1.037,-2.315 -2.315,-2.315c-1.278,0 -2.316,1.037 -2.316,2.315c0,1.278 1.038,2.315 2.316,2.315c1.278,0 2.315,-1.037 2.315,-2.315Z" style="fill:none;stroke:#7c41ba;stroke-width:1px;stroke-miterlimit:10;"/><path d="M576.088,635.857c0,1.278 -1.037,2.315 -2.315,2.315c-1.279,0 -2.316,-1.037 -2.316,-2.315c0,-1.278 1.037,-2.315 2.316,-2.315c1.278,0 2.315,1.037 2.315,2.315" style="fill:#b999db;fill-rule:nonzero;"/><path d="M576.088,635.857c0,-1.277 -1.037,-2.315 -2.315,-2.315c-1.278,0 -2.316,1.038 -2.316,2.315c0,1.278 1.038,2.315 2.316,2.315c1.278,0 2.315,-1.037 2.315,-2.315Z" style="fill:none;stroke:#7c41ba;stroke-width:1px;stroke-miterlimit:10;"/><path d="M541.938,629.491c0,1.278 -1.037,2.314 -2.315,2.314c-1.279,0 -2.316,-1.036 -2.316,-2.314c0,-1.279 1.037,-2.316 2.316,-2.316c1.278,0 2.315,1.037 2.315,2.316" style="fill:#b999db;fill-rule:nonzero;"/><path d="M541.938,629.49c0,-1.278 -1.038,-2.315 -2.316,-2.315c-1.278,0 -2.315,1.037 -2.315,2.315c0,1.278 1.037,2.315 2.315,2.315c1.278,0 2.316,-1.037 2.316,-2.315Z" style="fill:none;stroke:#7c41ba;stroke-width:1px;stroke-miterlimit:10;"/><path d="M567.406,588.395c0,-0.697 -0.502,-1.25 -1.157,-1.389l0,-0.926c0,-3.836 -3.11,-6.946 -6.947,-6.946c-3.835,0 -6.946,3.11 -6.946,6.946l0,0.926c-0.654,0.139 -1.156,0.692 -1.156,1.389c0,0.748 0.574,1.343 1.303,1.418c0.654,3.156 3.45,5.528 6.799,5.528c3.351,0 6.146,-2.372 6.8,-5.528c0.729,-0.075 1.304,-0.67 1.304,-1.418" style="fill:#fff;fill-rule:nonzero;"/><path d="M567.406,588.395c0,-0.697 -0.502,-1.25 -1.157,-1.389l0,-0.926c0,-3.836 -3.11,-6.946 -6.947,-6.946c-3.835,0 -6.946,3.11 -6.946,6.946l0,0.926c-0.654,0.139 -1.156,0.692 -1.156,1.389c0,0.748 0.574,1.343 1.303,1.418c0.654,3.156 3.45,5.528 6.799,5.528c3.351,0 6.146,-2.372 6.8,-5.528c0.729,-0.075 1.304,-0.67 1.304,-1.418Z" style="fill:none;stroke:#7c41ba;stroke-width:1px;stroke-miterlimit:10;"/><path d="M556.408,589.263c0,0.479 -0.389,0.868 -0.869,0.868c-0.479,0 -0.867,-0.389 -0.867,-0.868c0,-0.479 0.388,-0.868 0.867,-0.868c0.48,0 0.869,0.389 0.869,0.868" style="fill:#b999db;fill-rule:nonzero;"/><path d="M563.933,589.263c0,0.479 -0.39,0.868 -0.868,0.868c-0.481,0 -0.869,-0.389 -0.869,-0.868c0,-0.479 0.388,-0.868 0.869,-0.868c0.478,0 0.868,0.389 0.868,0.868" style="fill:#b999db;fill-rule:nonzero;"/><path d="M557.566,591.342c1.052,0.701 2.421,0.701 3.474,0" style="fill:none;stroke:#7c41ba;stroke-width:1px;stroke-miterlimit:10;"/><path d="M566.826,584.343c0,-4.156 -3.369,-7.524 -7.524,-7.524c-4.156,0 -7.525,3.368 -7.525,7.524l0,1.736c0,0.32 0.26,0.579 0.578,0.579l1.158,0c0.321,0 0.58,-0.259 0.58,-0.579c0,-1.451 0.605,-2.751 1.567,-3.693c0.256,-0.251 0.615,-0.37 0.972,-0.319c0.784,0.11 1.432,0.45 1.921,0.948c0.834,0.85 1.974,1.328 3.164,1.328c0.79,0 1.543,-0.23 2.209,-0.616c0.283,0.555 0.481,1.161 0.554,1.806c0.035,0.311 0.297,0.546 0.611,0.546l1.157,0c0.319,0 0.578,-0.259 0.578,-0.578l0,-1.158Z" style="fill:#fff;fill-rule:nonzero;stroke:#7c41ba;stroke-width:1px;stroke-miterlimit:10;"/><path d="M566.826,584.343c0,-4.156 -3.369,-7.524 -7.524,-7.524c-4.156,0 -7.525,3.368 -7.525,7.524l0,1.736c0,0.32 0.26,0.579 0.578,0.579l1.158,0c0.321,0 0.58,-0.259 0.58,-0.579c0,-1.451 0.605,-2.751 1.567,-3.693c0.256,-0.251 0.615,-0.37 0.972,-0.319c0.784,0.11 1.432,0.45 1.921,0.948c0.834,0.85 1.974,1.328 3.164,1.328c0.79,0 1.543,-0.23 2.209,-0.616c0.283,0.555 0.481,1.161 0.554,1.806c0.035,0.311 0.297,0.546 0.611,0.546l1.157,0c0.319,0 0.578,-0.259 0.578,-0.578l0,-1.158Z" style="fill:none;stroke:#7c41ba;stroke-width:1px;stroke-miterlimit:10;"/><path d="M563.926,583.727c0.124,-0.075 0.191,-0.216 0.173,-0.36c-0.02,-0.143 -0.122,-0.262 -0.263,-0.301c-0.615,-0.172 -1.533,-0.593 -2.221,-1.617" style="fill:none;stroke:#7c41ba;stroke-width:1px;stroke-miterlimit:10;"/><circle cx="556.698" cy="586.948" r="0.868" style="fill:#7c41ba;"/><circle cx="561.908" cy="586.948" r="0.868" style="fill:#7c41ba;"/><path d="M559.302,576.819c2.072,0 3.948,0.838 5.31,2.193c0.308,-0.495 0.478,-1.04 0.478,-1.614c0,-2.238 -2.592,-4.052 -5.788,-4.052c-3.196,0 -5.788,1.814 -5.788,4.052c0,0.574 0.171,1.119 0.478,1.614c1.362,-1.355 3.239,-2.193 5.31,-2.193" style="fill:#fff;fill-rule:nonzero;"/><path d="M559.302,576.819c2.072,0 3.948,0.838 5.31,2.193c0.308,-0.495 0.478,-1.04 0.478,-1.614c0,-2.238 -2.592,-4.052 -5.788,-4.052c-3.196,0 -5.788,1.814 -5.788,4.052c0,0.574 0.171,1.119 0.478,1.614c1.362,-1.355 3.239,-2.193 5.31,-2.193Z" style="fill:none;stroke:#7c41ba;stroke-width:1px;stroke-miterlimit:10;"/><path d="M561.105,616.75c-0.377,0.449 -0.828,0.811 -1.352,1.084c-0.524,0.273 -1.099,0.41 -1.724,0.41c-0.82,0 -1.535,-0.202 -2.143,-0.605c-0.609,-0.404 -1.079,-0.972 -1.411,-1.704c-0.332,-0.733 -0.498,-1.542 -0.498,-2.427c0,-0.951 0.18,-1.807 0.542,-2.569c0.361,-0.761 0.874,-1.344 1.538,-1.748c0.664,-0.403 1.438,-0.605 2.324,-0.605c1.406,0 2.515,0.526 3.325,1.577c0.811,1.052 1.216,2.485 1.216,4.302l0,0.527c0,2.767 -0.547,4.787 -1.641,6.06c-1.094,1.273 -2.744,1.925 -4.951,1.958l-0.351,0l0,-1.533l0.38,0c1.491,-0.026 2.637,-0.415 3.438,-1.165c0.801,-0.75 1.237,-1.938 1.308,-3.562Zm-2.783,0c0.606,0 1.164,-0.186 1.675,-0.557c0.511,-0.371 0.884,-0.83 1.118,-1.377l0,-0.722c0,-1.185 -0.257,-2.149 -0.771,-2.891c-0.515,-0.742 -1.166,-1.113 -1.953,-1.113c-0.795,0 -1.433,0.304 -1.914,0.913c-0.482,0.609 -0.723,1.411 -0.723,2.407c0,0.97 0.233,1.769 0.698,2.398c0.466,0.628 1.089,0.942 1.87,0.942Z" style="fill:#7c41ba;fill-rule:nonzero;"/><g><path d="M319.02,566.292l-11.02,36.364" style="fill:none;stroke:#7c41ba;stroke-width:2px;stroke-miterlimit:1.5;"/><path d="M308,602.656l-17.4,-9.971l6.38,-26.393l11.02,-15.837l11.02,15.837l6.38,26.393l-17.4,9.971l17.4,-9.971" style="fill:none;stroke:#7c41ba;stroke-width:2px;stroke-miterlimit:1.5;"/><path d="M308,602.656l-11.02,-36.364" style="fill:none;stroke:#7c41ba;stroke-width:2px;stroke-miterlimit:1.5;"/></g></g><g id="Isolationsmodus"><g><path d="M349.413,331.445c0.117,-1.252 -0.801,-2.363 -2.055,-2.48l-24.942,-2.349l-2.858,-8.644c-0.395,-1.194 -1.683,-1.842 -2.878,-1.446l-45.414,15.014c-1.193,0.397 -1.844,1.684 -1.448,2.88l20.739,62.715c0.393,1.194 1.683,1.84 2.876,1.446l8.877,-2.935l38.435,3.617c1.252,0.117 2.363,-0.801 2.481,-2.055l6.187,-65.763Z" style="fill:#b999db;fill-rule:nonzero;"/><path d="M332.371,387.89c0.014,1.259 -0.994,2.29 -2.253,2.305l-47.829,0.529c-1.257,0.016 -2.288,-0.995 -2.303,-2.252l-0.733,-66.049c-0.014,-1.258 0.994,-2.29 2.252,-2.304l47.829,-0.531c1.258,-0.013 2.288,0.995 2.302,2.253l0.735,66.049Z" style="fill:#b999db;fill-rule:nonzero;"/><path d="M340.205,392.883c-0.117,1.253 -1.228,2.174 -2.48,2.057l-45.357,-4.249c-1.252,-0.119 -2.172,-1.228 -2.055,-2.479l5.947,-63.5c0.117,-1.252 1.228,-2.172 2.482,-2.055l45.354,4.248c1.254,0.118 2.174,1.229 2.056,2.48l-5.947,63.498Z" style="fill:#fff;fill-rule:nonzero;stroke:#7c41ba;stroke-width:2px;stroke-miterlimit:10;"/><path d="M302.64,329.885l9.07,0.849" style="fill:none;stroke:#7c41ba;stroke-width:2px;stroke-miterlimit:10;"/><path d="M302.001,336.689l20.41,1.912" style="fill:none;stroke:#7c41ba;stroke-width:2px;stroke-miterlimit:10;"/><path d="M301.366,343.492l13.605,1.275" style="fill:none;stroke:#7c41ba;stroke-width:2px;stroke-miterlimit:10;"/><path d="M300.727,350.295l15.875,1.487" style="fill:none;stroke:#7c41ba;stroke-width:2px;stroke-miterlimit:10;"/><path d="M300.09,357.099l6.803,0.636" style="fill:none;stroke:#7c41ba;stroke-width:2px;stroke-miterlimit:10;"/><path d="M299.454,363.902l24.945,2.337" style="fill:none;stroke:#7c41ba;stroke-width:2px;stroke-miterlimit:10;"/><path d="M298.815,370.705l15.876,1.488" style="fill:none;stroke:#7c41ba;stroke-width:2px;stroke-miterlimit:10;"/><path d="M298.178,377.509l29.482,2.76" style="fill:none;stroke:#7c41ba;stroke-width:2px;stroke-miterlimit:10;"/><path d="M297.541,384.312l13.607,1.276" style="fill:none;stroke:#7c41ba;stroke-width:2px;stroke-miterlimit:10;"/><path d="M316.246,331.16l11.339,1.061" style="fill:none;stroke:#7c41ba;stroke-width:2px;stroke-miterlimit:10;"/><path d="M311.43,358.161l11.338,1.062" style="fill:none;stroke:#7c41ba;stroke-width:2px;stroke-miterlimit:10;"/><path d="M315.683,386.011l11.34,1.062" style="fill:none;stroke:#7c41ba;stroke-width:2px;stroke-miterlimit:10;"/><path d="M338.489,377.42c0.379,1.201 -0.288,2.479 -1.488,2.858l-43.448,13.692c-1.2,0.379 -2.478,-0.287 -2.857,-1.488l-19.169,-60.826c-0.378,-1.2 0.288,-2.478 1.488,-2.857l43.449,-13.693c1.199,-0.379 2.477,0.288 2.854,1.487l19.171,60.827Z" style="fill:#fff;fill-rule:nonzero;stroke:#7c41ba;stroke-width:2px;stroke-miterlimit:10;"/><path d="M279.413,333.947l8.689,-2.739" style="fill:none;stroke:#7c41ba;stroke-width:2px;stroke-miterlimit:10;"/><path d="M281.467,340.464l19.552,-6.162" style="fill:none;stroke:#7c41ba;stroke-width:2px;stroke-miterlimit:10;"/><path d="M283.52,346.981l13.036,-4.107" style="fill:none;stroke:#7c41ba;stroke-width:2px;stroke-miterlimit:10;"/><path d="M285.574,353.498l15.208,-4.791" style="fill:none;stroke:#7c41ba;stroke-width:2px;stroke-miterlimit:10;"/><path d="M287.628,360.015l6.518,-2.053" style="fill:none;stroke:#7c41ba;stroke-width:2px;stroke-miterlimit:10;"/><path d="M289.683,366.533l23.895,-7.532" style="fill:none;stroke:#7c41ba;stroke-width:2px;stroke-miterlimit:10;"/><path d="M291.737,373.049l15.206,-4.791" style="fill:none;stroke:#7c41ba;stroke-width:2px;stroke-miterlimit:10;"/><path d="M293.79,379.566l28.241,-8.899" style="fill:none;stroke:#7c41ba;stroke-width:2px;stroke-miterlimit:10;"/><path d="M295.844,386.083l13.036,-4.107" style="fill:none;stroke:#7c41ba;stroke-width:2px;stroke-miterlimit:10;"/><path d="M292.447,329.839l10.862,-3.424" style="fill:none;stroke:#7c41ba;stroke-width:2px;stroke-miterlimit:10;"/><path d="M298.49,356.592l10.863,-3.423" style="fill:none;stroke:#7c41ba;stroke-width:2px;stroke-miterlimit:10;"/><path d="M313.223,380.608l10.863,-3.423" style="fill:none;stroke:#7c41ba;stroke-width:2px;stroke-miterlimit:10;"/><path d="M332.34,385.031c0,1.257 -1.02,2.276 -2.276,2.276l-45.555,0c-1.258,0 -2.278,-1.019 -2.278,-2.276l0,-63.776c0,-1.258 1.02,-2.278 2.278,-2.278l45.555,0c1.256,0 2.276,1.02 2.276,2.278l0,63.776Z" style="fill:#fff;fill-rule:nonzero;stroke:#7c41ba;stroke-width:2px;stroke-miterlimit:10;"/><path d="M316.397,332.643l-25.055,0c-1.257,0 -2.278,-1.019 -2.278,-2.277l0,-2.278c0,-1.258 1.021,-2.278 2.278,-2.278l25.055,0c1.258,0 2.277,1.02 2.277,2.278l0,2.278c0,1.258 -1.019,2.277 -2.277,2.277Z" style="fill:none;stroke:#7c41ba;stroke-width:2px;stroke-miterlimit:10;"/><path d="M293.619,339.476l31.889,0" style="fill:none;stroke:#7c41ba;stroke-width:2px;stroke-miterlimit:10;"/><path d="M289.063,346.31l27.333,0" style="fill:none;stroke:#7c41ba;stroke-width:2px;stroke-miterlimit:10;"/><path d="M305.008,355.421l-13.666,0c-1.258,0 -2.278,-1.019 -2.278,-2.279c0,-1.258 1.02,-2.276 2.278,-2.276l13.666,0c1.258,0 2.278,1.018 2.278,2.276c0,1.26 -1.02,2.279 -2.278,2.279" style="fill:#b999db;fill-rule:nonzero;stroke:#7c41ba;stroke-width:2px;stroke-linecap:butt;stroke-miterlimit:1.41421;"/><path d="M305.008,369.087l-13.666,0c-1.258,0 -2.278,-1.02 -2.278,-2.277c0,-1.258 1.02,-2.279 2.278,-2.279l13.666,0c1.258,0 2.278,1.021 2.278,2.279c0,1.257 -1.02,2.277 -2.278,2.277" style="fill:#b999db;fill-rule:nonzero;stroke:#7c41ba;stroke-width:2px;stroke-linecap:butt;stroke-miterlimit:1.41421;"/><path d="M291.341,353.142l13.667,0" style="fill:none;"/><path d="M291.341,359.976l13.667,0" style="fill:none;stroke:#7c41ba;stroke-width:2px;stroke-miterlimit:10;"/><path d="M291.341,366.81l13.667,0" style="fill:none;"/><path d="M325.507,358.838c0,-4.401 -3.572,-7.973 -7.972,-7.973c-4.4,0 -7.972,3.572 -7.972,7.973c0,4.4 3.572,7.972 7.972,7.972c4.4,0 7.972,-3.572 7.972,-7.972Z" style="fill:none;stroke:#7c41ba;stroke-width:2px;stroke-miterlimit:10;"/><path d="M325.507,367.948c0,-4.4 -3.572,-7.972 -7.972,-7.972c-4.4,0 -7.972,3.572 -7.972,7.972c0,4.399 3.572,7.972 7.972,7.972c4.4,0 7.972,-3.573 7.972,-7.972Z" style="fill:none;stroke:#7c41ba;stroke-width:2px;stroke-miterlimit:10;"/></g></g><g id="Isolationsmodus1" serif:id="Isolationsmodus"></g><g id="Icons"></g><g id="Ebene-13" serif:id="Ebene 1"></g></svg>