<?xml version="1.0" encoding="UTF-8" standalone="no"?><!DOCTYPE svg PUBLIC "-//W3C//DTD SVG 1.1//EN" "http://www.w3.org/Graphics/SVG/1.1/DTD/svg11.dtd"><svg width="100%" height="100%" viewBox="0 0 48 48" version="1.1" xmlns="http://www.w3.org/2000/svg" xmlns:xlink="http://www.w3.org/1999/xlink" xml:space="preserve" xmlns:serif="http://www.serif.com/" style="fill-rule:evenodd;clip-rule:evenodd;stroke-linecap:round;stroke-linejoin:round;"><g><path d="M40,41.304l-7.858,1.572" style="fill:none;stroke:#7c41ba;stroke-width:2px;"/><path d="M33,34l-3.708,1.522c-1.196,0.482 -2.562,-0.066 -3.088,-1.242c-0.528,-1.178 -0.032,-2.562 1.124,-3.134l3.706,-1.8c0.814,-0.408 1.758,-0.462 2.614,-0.15l6.768,2.588" style="fill:none;stroke:#7c41ba;stroke-width:2px;"/><path d="M18,43l2.8,0l4.66,3.542c0.488,0.548 1.322,0.612 1.888,0.148l7,-5.614c0.574,-0.47 0.666,-1.312 0.21,-1.898l-3.844,-4.236" style="fill:none;stroke:#7c41ba;stroke-width:2px;"/><path d="M27.02,31.35l-0.5,-0.412c-0.504,-0.37 -1.114,-0.57 -1.74,-0.57c-0.374,0 -0.742,0.07 -1.09,0.21l-5.69,2.422" style="fill:none;stroke:#7c41ba;stroke-width:2px;"/><path d="M12,45l4,0c1.106,0 2,-0.894 2,-2l0,-10c0,-1.104 -0.894,-2 -2,-2l-4,0l0,14Z" style="fill:none;stroke:#7c41ba;stroke-width:2px;"/><path d="M46,45l-4,0c-1.106,0 -2,-0.894 -2,-2l0,-10c0,-1.104 0.894,-2 2,-2l4,0l0,14Z" style="fill:none;stroke:#7c41ba;stroke-width:2px;"/><path d="M33,1l-25,0c-3.314,0 -6,2.686 -6,6l0,39c0,0.552 0.448,1 1,1l5,0" style="fill:none;stroke:#7c41ba;stroke-width:2px;"/><path d="M8,9l14,0" style="fill:none;stroke:#7c41ba;stroke-width:2px;"/><path d="M8,15l14,0" style="fill:none;stroke:#7c41ba;stroke-width:2px;"/><path d="M8,21l7,0" style="fill:none;stroke:#7c41ba;stroke-width:2px;"/><path d="M28,26l0,-20c0,-2.762 2.238,-5 5,-5c2.76,0 5,2.238 5,6l-10,0" style="fill:none;stroke:#7c41ba;stroke-width:2px;"/></g></svg>