<?xml version="1.0" standalone="no"?>
<!DOCTYPE svg PUBLIC "-//W3C//DTD SVG 1.1//EN" "http://www.w3.org/Graphics/SVG/1.1/DTD/svg11.dtd" >
<svg xmlns="http://www.w3.org/2000/svg">
<metadata>
<json>
<![CDATA[
{
	"fontFamily": "eosdac-iconfont-v1-7",
	"majorVersion": 1,
	"minorVersion": 1,
	"fontURL": "https://eosdac.io/",
	"description": "eosDAC-Client Icon Font\nFont generated by IcoMoon.",
	"copyright": "https://eosdac.io/",
	"version": "Version 1.1",
	"fontId": "eosdac-iconfont-v1-7",
	"psName": "eosdac-iconfont-v1-7",
	"subFamily": "Regular",
	"fullName": "eosdac-iconfont-v1-7"
}
]]>
</json>
</metadata>
<defs>
<font id="eosdac-iconfont-v1-7" horiz-adv-x="1024">
<font-face units-per-em="1024" ascent="960" descent="-64" />
<missing-glyph horiz-adv-x="1024" />
<glyph unicode="&#x20;" horiz-adv-x="512" d="" />
<glyph unicode="&#x21;" glyph-name="ui-14" data-tags="ui-14" d="M512 320.667c-30 0-56 12-76 32-40 42-40 108 0 150 34 34 320 208 352 228 2 2 6 4 10 4 6 0 12-2 16-6 6-8 8-18 2-26-20-34-194-318-228-352-20-20-48-30-74-30zM732 646.667c-118-74-246-156-266-174-24-26-24-64 0-90 12-12 28-18 46-18h2c16 0 32 6 44 16 18 20 100 148 174 266zM150 404.667c-12 0-22 10-22 22s10 22 22 22h64c12 0 20-10 20-22s-8-22-20-22zM300 616.667c-4 0-10 2-14 6l-46 46c-4 4-6 8-6 14s2 12 6 16c4 4 10 6 16 6s10-2 14-6l46-46c8-8 8-22 0-30-4-4-10-6-16-6zM512 704.667c-12 0-22 8-22 20v64c0 12 10 22 22 22s22-10 22-22v-64c0-12-10-20-22-20zM810 404.667c-12 0-20 10-20 22s8 22 20 22h64c12 0 22-10 22-22s-10-22-22-22zM512-85.333c-146 0-286 62-382 172-2 0-2 2-4 4 0 0 0 0 0 0-82 94-126 214-126 336 0 282 230 512 512 512s512-230 512-512c0-122-44-242-126-334 0-2 0-2 0-2-2-2-2-4-4-6-98-108-236-170-382-170zM176 98.667c88-90 210-142 336-142s248 52 336 142c-98 62-210 94-324 94-4 0-8 0-12 0s-8 0-12 0c-114 0-226-32-324-94zM524 234.667c126 0 246-36 352-104 68 84 106 188 106 296 0 258-212 470-470 470s-470-212-470-470c0-108 38-212 106-296 106 68 226 104 352 104 4 0 8 0 12 0s8 0 12 0z" />
<glyph unicode="&#x22;" glyph-name="menu-9" data-tags="menu-9" d="M192 596.667c-36 0-64 30-64 64v44c0 34 28 64 64 64h640c36 0 64-30 64-64v-44c0-34-28-64-64-64zM192 724.667c-12 0-22-8-22-20v-44c0-12 10-20 22-20h640c12 0 22 8 22 20v44c0 12-10 20-22 20zM192 340.667c-36 0-64 30-64 64v44c0 34 28 64 64 64h640c36 0 64-30 64-64v-44c0-34-28-64-64-64zM192 468.667c-12 0-22-8-22-20v-44c0-12 10-20 22-20h640c12 0 22 8 22 20v44c0 12-10 20-22 20zM192 84.667c-36 0-64 30-64 64v44c0 34 28 64 64 64h640c36 0 64-30 64-64v-44c0-34-28-64-64-64zM192 212.667c-12 0-22-8-22-20v-44c0-12 10-20 22-20h640c12 0 22 8 22 20v44c0 12-10 20-22 20z" />
<glyph unicode="&#x23;" glyph-name="ui-15" data-tags="ui-15" d="M746-85.333c-152 0-276 124-276 278 0 152 124 276 276 276 154 0 278-124 278-276 0-154-124-278-278-278zM746 426.667c-128 0-234-106-234-234 0-130 106-236 234-236 130 0 236 106 236 236 0 128-106 234-236 234zM712 66.667c-12 0-24 4-32 12-2 0-4 2-6 4l-64 64c-8 8-8 22 0 30 4 4 8 6 14 6s12-2 16-6l64-64c0 0 0 0 0 0 2-2 4-2 8-2 2 0 6 0 8 4l124 164c4 6 10 10 16 10s10-2 14-6c4-2 8-8 8-14 0-4 0-10-4-16l-124-164c-10-14-26-22-42-22zM320 532.667c-112 0-202 92-202 204s90 202 202 202c112 0 202-90 202-202s-90-204-202-204zM320 896.667c-88 0-160-72-160-160s72-160 160-160c88 0 160 72 160 160s-72 160-160 160zM22 170.667c-12 0-22 10-22 22 0 84 34 166 94 226s140 94 226 94c62 0 122-18 172-52 10-6 14-20 8-28-4-8-12-10-18-10-4 0-8 0-12 2-44 30-96 44-150 44-74 0-144-28-196-80-48-48-76-110-80-176h318c12 0 22-8 22-20s-10-22-22-22z" />
<glyph unicode="&#x24;" glyph-name="ui-16" data-tags="ui-16" d="M512-85.333c-236 0-426 192-426 426 0 204 142 378 340 418v138h-42c-12 0-22 8-22 20s10 22 22 22h256c12 0 22-10 22-22s-10-20-22-20h-42v-138c74-14 144-50 200-102l46 48-6 6c-4 4-6 8-6 14s2 12 6 16c4 4 10 6 16 6s10-2 14-6l44-42c8-10 8-22 0-32-4-4-10-6-16-6s-12 2-16 6l-6 8-46-48c72-78 110-180 110-286 0-234-190-426-426-426zM512 724.667c-212 0-384-172-384-384s172-384 384-384c212 0 384 172 384 384s-172 384-384 384zM512 768.667c14 0 28-2 42-2v130h-84v-130c14 0 28 2 42 2zM512 320.667c-6 0-12 2-16 6l-192 192c-4 4-6 8-6 14s2 12 6 16c4 4 10 6 16 6s12-2 16-6l192-192c4-4 6-10 6-16s-2-10-6-14c-4-4-10-6-16-6z" />
<glyph unicode="&#x25;" glyph-name="ui-17" data-tags="ui-17" d="M640-77.333c-16 0-32 8-44 20l-560 558c-22 24-34 56-36 86v280c0 34 28 64 64 64h276c34-2 64-16 88-36l590-590c8-8 8-22 0-30l-332-332c-12-12-28-20-46-20zM64 886.667c-12 0-22-10-22-20v-278c2-22 10-42 26-58l558-558c4-4 8-6 14-6s12 2 16 6l316 316-574 574c-14 14-36 24-58 24zM234 588.667c-58 0-106 48-106 106 0 60 48 108 106 108 60 0 108-48 108-108 0-58-48-106-108-106zM234 758.667c-34 0-64-28-64-64 0-34 30-64 64-64 36 0 64 30 64 64 0 36-28 64-64 64z" />
<glyph unicode="&#x26;" glyph-name="ui-18" data-tags="ui-18" d="M426 468.667c-2 0-4 0-6 2-52 14-100 40-142 74-42-34-92-60-144-74-2-2-4-2-6-2-10 0-18 8-20 16-4 12 2 24 14 26 44 12 88 34 124 64-42 42-72 94-92 150h-46c-12 0-22 10-22 22s10 22 22 22h148v64c0 12 10 20 22 20s20-8 20-20v-64h150c12 0 22-10 22-22s-10-22-22-22h-48c-18-56-50-108-92-150 38-30 80-52 124-64 12-2 18-14 16-26-4-8-12-16-22-16zM200 724.667c16-44 44-86 78-122 34 36 60 78 76 122zM874 0.667c-8 0-16 4-20 14l-26 70h-162l-28-70c-2-10-10-14-20-14-2 0-4 0-6 0-12 4-18 18-14 28l108 288c4 10 12 20 24 24 4 2 10 4 16 4s10-2 16-2c12-6 20-14 24-26l76-200c0-2 2-4 2-6l30-82c4-10 0-24-12-28-2 0-4 0-8 0zM812 128.667l-66 174-64-174zM64 384.667c-36 0-64 28-64 64v426c0 36 28 64 64 64h426c36 0 64-28 64-64v-426c0-36-28-64-64-64zM64 896.667c-12 0-22-10-22-22v-426c0-12 10-22 22-22h426c12 0 22 10 22 22v426c0 12-10 22-22 22zM534-85.333c-36 0-64 28-64 64v320c0 12 8 22 20 22s22-10 22-22v-320c0-12 10-22 22-22h426c12 0 22 10 22 22v426c0 12-10 22-22 22h-320c-12 0-22 10-22 22s10 20 22 20h320c36 0 64-28 64-64v-426c0-36-28-64-64-64zM256-63.333c-6 0-12 2-16 6-8 8-8 22 0 30l50 48c-126 6-226 108-226 236 0 12 10 20 22 20s20-8 20-20c0-104 82-188 184-192l-50 48c-4 4-6 10-6 16s2 10 6 14c4 4 10 6 16 6s12-2 16-6l84-84c4-4 6-10 6-16 0 0 0 0 0 0 0-2 0-4 0-4s0-2 0-4c-2-2-4-6-6-8l-84-84c-4-4-10-6-16-6zM938 576.667c-12 0-20 8-20 20 0 104-82 188-184 192l50-48c4-4 6-10 6-16s-2-10-6-14c-4-4-10-6-16-6s-12 2-16 6l-84 84c-2 2-4 6-6 8 0 2 0 2 0 4 0 0 0 2 0 4 0 0 0 0 0 0 0 6 2 12 6 16l84 84c4 4 10 6 16 6s12-2 16-6c4-4 6-8 6-14s-2-12-6-16l-50-48c126-6 226-108 226-236 0-12-10-20-22-20z" />
<glyph unicode="&#x27;" glyph-name="menu-11" data-tags="menu-11" d="M320 0.667c-2 0-6 0-8 0-8 4-14 12-14 20v150h-234c-36 0-64 28-64 64v640c0 36 28 64 64 64h768c36 0 64-28 64-64v-298c0-12-10-22-22-22s-20 10-20 22v298c0 12-10 22-22 22h-768c-12 0-22-10-22-22v-640c0-12 10-22 22-22h256c12 0 22-8 22-20v-120l46 46c4 4 8 6 14 6s12-2 16-6c4-4 6-10 6-16 0-4-2-10-6-14l-82-82c-4-4-10-6-16-6zM874-85.333c-6 0-10 2-14 6l-164 164h-162c-36 0-64 30-64 64v300c0 34 28 64 64 64h426c36 0 64-30 64-64v-300c0-34-28-64-64-64h-64v-148c0-10-6-18-14-20-2-2-4-2-8-2zM534 468.667c-12 0-22-8-22-20v-300c0-12 10-20 22-20h170c6 0 12-2 16-6l134-136v120c0 12 8 22 20 22h86c12 0 22 8 22 20v300c0 12-10 20-22 20zM406 512.667c-12 0-22 8-22 20v30c0 26 18 50 42 60 26 8 44 32 44 60 0 18-8 34-20 46s-28 18-44 18c-18 0-34-6-46-18s-18-28-18-46c0-12-10-22-22-22s-22 10-22 22c0 28 12 56 32 76s46 30 76 30c28 0 54-10 74-30s32-48 32-76c0-46-28-86-72-100-8-4-14-12-14-20v-30c0-12-8-20-20-20zM438 436.667c0-18-14-32-32-32s-32 14-32 32c0 18 14 32 32 32s32-14 32-32zM778 224.667c0-18-14-32-32-32s-32 14-32 32c0 18 14 32 32 32s32-14 32-32zM746 298.667c-12 0-20 10-20 22v84c0 12 8 22 20 22s22-10 22-22v-84c0-12-10-22-22-22z" />
<glyph unicode="&#x28;" glyph-name="role-1" data-tags="role-1" d="M746-85.333c-72 0-142 28-194 80 0 0-2 0-2 2 0 0 0 0 0 0-52 52-80 122-80 196 0 152 124 276 276 276 74 0 144-28 196-80 0 0 0 0 0 0 2-2 2-2 2-2 52-52 80-122 80-194 0-154-124-278-278-278zM596 12.667c42-36 96-56 150-56 130 0 236 106 236 236 0 54-20 108-56 150zM746 426.667c-128 0-234-106-234-234 0-56 20-108 54-150l330 330c-42 34-94 54-150 54zM320 532.667c-112 0-202 92-202 204s90 202 202 202c112 0 202-90 202-202s-90-204-202-204zM320 896.667c-88 0-160-72-160-160s72-160 160-160c88 0 160 72 160 160s-72 160-160 160zM22 170.667c-12 0-22 10-22 22 0 84 34 166 94 226s140 94 226 94c62 0 122-18 172-52 10-6 14-20 8-28-4-8-12-10-18-10-4 0-8 0-12 2-44 30-96 44-150 44-74 0-144-28-196-80-48-48-76-110-80-176h318c12 0 22-8 22-20s-10-22-22-22z" />
<glyph unicode="&#x29;" glyph-name="menu-10" data-tags="menu-10" d="M64-85.333c-36 0-64 28-64 64v256c0 12 10 22 22 22s20-10 20-22v-256c0-12 10-22 22-22h256c12 0 22-8 22-20s-10-22-22-22zM22 596.667c-12 0-22 10-22 22v256c0 36 28 64 64 64h256c12 0 22-10 22-22s-10-20-22-20h-256c-12 0-22-10-22-22v-256c0-12-8-22-20-22zM704-85.333c-12 0-22 10-22 22s10 20 22 20h256c12 0 22 10 22 22v256c0 12 8 22 20 22s22-10 22-22v-256c0-36-28-64-64-64zM1002 596.667c-12 0-20 10-20 22v256c0 12-10 22-22 22h-256c-12 0-22 8-22 20s10 22 22 22h256c36 0 64-28 64-64v-256c0-12-10-22-22-22zM278 128.667c-12 0-22 8-22 20 0 142 114 256 256 256s256-114 256-256c0-12-10-20-22-20zM724 170.667c-10 108-102 192-212 192s-202-84-212-192zM510 426.667c-88 0-160 72-160 160s72 160 160 160c88 0 160-72 160-160s-72-160-160-160zM510 704.667c-66 0-118-54-118-118s52-118 118-118c64 0 116 54 116 118s-52 118-116 118z" />
<glyph unicode="&#x2a;" glyph-name="role-3" data-tags="role-3" d="M746-85.333c-152 0-276 124-276 278 0 152 124 276 276 276 12 0 22-8 22-20s-10-22-22-22c-128 0-234-106-234-234 0-130 106-236 234-236 130 0 236 106 236 236 0 12 8 20 20 20s22-8 22-20c0-154-124-278-278-278zM746 120.667c-14 0-26 4-38 14l-72 74c-8 8-8 22 0 30 4 4 8 6 14 6s12-2 16-6l74-72c2-4 4-4 6-4 4 0 6 2 8 4l234 232c4 4 8 6 14 6s12-2 16-6c8-8 8-22 0-30l-234-234c-10-10-24-14-38-14zM320 532.667c-112 0-202 92-202 204s90 202 202 202c112 0 202-90 202-202s-90-204-202-204zM320 896.667c-88 0-160-72-160-160s72-160 160-160c88 0 160 72 160 160s-72 160-160 160zM22 170.667c-12 0-22 10-22 22 0 84 34 166 94 226s140 94 226 94c62 0 122-18 172-52 10-6 14-20 8-28-4-8-12-10-18-10-4 0-8 0-12 2-44 30-96 44-150 44-146 0-266-110-276-256h318c12 0 22-8 22-20s-10-22-22-22z" />
<glyph unicode="&#x2b;" glyph-name="social-behance-net" data-tags="social-behance-net" d="M22 128.667c-12 0-22 8-22 20v598c0 12 10 22 22 22h346c94 0 170-78 170-172 0-62-34-118-88-148 54-30 88-88 88-150 0-94-76-170-170-170 0 0 0 0 0 0zM368 170.667c72 0 128 58 128 128s-56 128-128 128h-326v-256zM368 468.667c72 0 128 58 128 128 0 72-56 128-128 128h-326v-256zM790 128.667c-32 0-62 6-92 18-58 24-102 70-126 128s-24 122 0 178c38 88 122 144 218 144 30 0 62-6 90-18 88-36 144-122 144-216 0-12-10-22-22-22h-404c2-16 6-34 14-50 20-48 56-86 104-104 22-10 48-16 74-16 76 0 146 46 176 118 4 8 12 12 20 12 2 0 6 0 8 0 6-2 10-8 12-12 2-6 2-12 0-16-36-88-122-144-216-144zM980 384.667c-8 68-52 128-116 156-24 10-48 14-74 14-78 0-148-46-178-118-6-16-12-34-14-52h382zM682 682.667c-12 0-20 10-20 22s8 20 20 20h214c12 0 22-8 22-20s-10-22-22-22z" />
<glyph unicode="&#x2c;" glyph-name="social-dribbble-com" data-tags="social-dribbble-com" d="M512-85.333c-154 0-298 68-396 188 0 0 0 0 0 0-2 2-2 4-4 4-72 90-112 204-112 320 0 18 2 36 4 56 0 0 0 0 0 0s0 0 0 0c18 166 116 312 262 394 2 0 2 0 4 0 74 40 158 62 242 62 144 0 282-62 380-170 0 0 2 0 2 0 0-2 2-2 2-4 82-94 128-214 128-338 0-10 0-22-2-36 0 0 0 0 0-2 0 0 0 0 0 0-14-200-146-374-334-442 0 0-2-2-2-2-56-20-114-30-174-30zM160 116.667c90-102 218-160 352-160 50 0 100 8 148 24 0 22 2 42 2 62 0 106-18 212-52 314-168-40-322-122-450-240zM652 364.667c34-104 52-212 52-322 0-14 0-28-2-44 154 68 258 210 276 376-46 4-92 8-138 8h-2c-62 0-124-6-186-18zM44 456.667c0-12-2-20-2-30 0-100 32-196 92-276 130 120 290 206 462 246-16 40-34 80-54 120-118-46-242-68-370-68h-2c-42 0-84 2-126 8zM582 532.667c22-42 40-84 56-126 66 12 134 18 200 18h2c46 0 94-2 142-8 0 4 0 6 0 10 0 108-38 212-106 296-88-80-186-144-294-190zM48 498.667c42-6 82-8 122-8h2c120 0 238 22 350 62-66 110-148 202-246 280-122-72-206-196-228-334zM318 854.667c98-80 180-176 244-286 104 46 200 108 286 186-88 90-210 142-336 142-68 0-132-14-194-42z" />
<glyph unicode="&#x2d;" glyph-name="social-github-com" data-tags="social-github-com" d="M658-61.333c-14 0-24 6-30 10-10 8-14 20-14 36v136c2 28-8 54-28 74-6 6-8 14-6 22 4 8 10 14 18 14 182 20 206 124 206 222 0 44-16 86-46 116-4 6-6 16-4 22 12 34 12 70 0 102-14 0-50-8-108-46-2-4-6-4-12-4-2 0-4 0-4 0-40 10-78 16-118 16s-80-6-118-16c-2 0-4 0-4 0-6 0-10 0-12 4-58 38-94 46-108 46-12-32-12-68 0-102 2-6 0-16-4-22-30-30-46-72-46-116 0-174 104-210 204-222 8 0 16-6 18-14 4-8 2-16-4-22-14-14-24-32-26-52 0-8-4-14-10-16v0c0-2-2-2-2-2-18-10-38-16-60-16-46 0-88 26-110 66-2 4-6 8-10 12 12-14 20-30 24-46 2-2 18-56 96-56 14 0 28 2 44 6 2 0 4 0 4 0 6 0 10-2 14-4 6-4 8-10 8-18 0-30 0-56 0-72v-12c0-14-6-28-14-36-6-4-16-10-32-10-2 0-6 0-10 2-2 0-4 0-4 0-210 70-350 266-350 486 0 282 230 512 512 512v0c222 0 416-140 486-350 90-268-56-558-324-648 0 0-2 0-2 0-6-2-10-2-14-2zM656-19.333c0 0 2 0 2 0 2 0 2 0 4 2 244 82 378 346 296 592-64 192-242 322-446 322 0 0 0 0 0 0-260 0-470-212-470-470 0-202 128-380 320-444 0 0 2-2 4-2 0 0 2 2 2 2s0 0 0 2v12c0 12 0 28 0 48-10-2-20-2-28-2-108 0-136 84-136 86-8 24-24 46-46 60-10 6-34 22-28 46 6 14 20 22 42 22 2 0 4 0 4 0 38-6 72-28 90-60 16-28 44-44 74-44 12 0 22 2 32 6 2 12 6 24 12 36-184 34-206 164-206 258-2 50 16 98 48 136-14 44-10 92 8 134 4 6 8 10 14 12 2 0 8 2 18 2 22 0 64-8 126-50 40 10 80 14 120 14s80-4 118-14c64 42 106 50 128 50 10 0 16-2 18-2 6-2 10-6 14-12 18-42 20-90 8-134 32-38 50-86 48-136 0-148-68-234-206-258 12-24 18-50 16-76v-134c0-2 0-2 0-4 0 0 0 0 0 0z" />
<glyph unicode="&#x2e;" glyph-name="social-general" data-tags="social-general" d="M704 348.667c-32 0-62 12-84 34l-4 6c-4 4-6 8-6 14s2 12 6 16c4 4 10 6 16 6s10-2 14-6l4-6c14-14 34-20 54-20s38 6 52 20l190 190c46 48 46 126 0 174l-84 84c-24 22-54 36-86 36-34 0-64-14-88-36l-188-190c-30-28-30-76 0-106l4-4c4-4 6-8 6-14s-2-12-6-16c-4-4-10-6-16-6s-10 2-14 6l-6 4c-44 46-44 120 0 166l190 190c32 30 74 48 118 48s84-18 116-48l84-84c64-64 64-170 0-234l-190-190c-22-22-52-34-82-34zM248-85.333c-44 0-84 18-116 48l-84 84c-64 64-64 170 0 234l190 190c22 22 52 34 82 34 32 0 62-12 84-34l4-4c8-10 8-22 0-32-4-4-10-6-16-6s-10 2-14 6l-4 6c-14 14-34 20-54 20s-38-6-52-20l-190-190c-48-48-48-126 0-174l84-84c24-22 54-36 86-36 34 0 64 14 88 36l188 190c14 14 22 32 22 52s-8 38-22 54l-4 4c-8 8-8 22 0 30 4 4 10 6 16 6s10-2 14-6l6-4c22-22 34-52 34-84 0-30-12-60-34-82l-190-190c-32-30-74-48-118-48zM326 218.667c-6 0-12 2-16 6-8 10-8 22 0 30l372 374c4 4 10 6 16 6s12-2 16-6c4-4 6-10 6-16s-2-10-6-14l-374-374c-4-4-8-6-14-6z" />
<glyph unicode="&#x2f;" glyph-name="social-medium-com" data-tags="social-medium-com" d="M22-85.333c-12 0-22 10-22 22v980c0 12 10 22 22 22h980c12 0 22-10 22-22v-980c0-12-10-22-22-22zM982-43.333v940h-940v-940zM584 128.667c-10 0-20 8-20 20v12c0 6 2 10 4 14 0 0 50 58 50 58 0 2 0 250 0 250l-106-340c-4-8-12-14-20-14h-22c-8 0-16 4-18 12-30 66-56 120-76 166-40 86-64 140-84 180v-194l98-118c2-4 4-8 4-14v-12c0-12-10-20-22-20h-202c-12 0-20 8-20 20v12c0 6 2 10 4 14l94 118v266c-14 22-34 44-60 74-10 12-20 26-34 42-2 4-4 8-4 14v16c0 12 8 20 20 20h206c8 0 16-4 20-12l146-332 104 330c2 8 10 14 20 14h188c12 0 22-8 22-20v-16c0-6-2-12-8-16l-58-52c0 0 0-388 0-388l58-56c4-4 6-10 6-16v-12c0-12-8-20-20-20zM814 170.667l-32 32c-10 6-16 20-14 32v384c-2 14 4 26 14 34l34 30h-134l-20-64v-384c0-12-2-20-12-30l-28-34zM338 170.667l-68 80-64-80zM222 660.667c86-104 86-104 192-338 18-38 40-86 66-140l42 136-160 364h-158c6-8 12-16 18-22z" />
<glyph unicode="&#x30;" glyph-name="social-meetup-com" data-tags="social-meetup-com" d="M224 332.667c-10 0-18 8-20 18-12 54-24 106-34 144-4-20-6-40-8-56-12-72-14-84-36-84-16 0-20 6-76 104 2-30 6-62 10-92 2-6 0-10-4-16-2-4-8-8-14-8 0 0-2 0-2 0-12 0-20 8-22 18-8 60-14 122-16 184 0 6 2 12 6 16s8 6 14 6c16 0 16-2 64-84 8-16 20-36 30-54 2 6 2 12 4 18 14 100 22 136 48 136 2 0 2 0 4 0 16 0 26 0 74-224 2-12-6-24-18-26-2 0-2 0-4 0zM334 320.667c-8 0-16 2-24 4-28 10-46 30-52 58-8 48 20 102 50 126 14 10 26 16 40 16 6 0 12-2 18-4 6-4 14-8 18-20 10-28-4-86-8-94s-10-12-18-12c-20 0-40 2-58 6 0-4 0-6 0-10 2-12 10-20 22-24 4-2 8-2 12-2 14 0 26 6 34 16 4 6 10 8 18 8 4 0 8 0 12-4 10-6 12-20 4-30-16-20-40-34-68-34zM310 442.667c10-2 20-4 30-4 4 14 6 34 4 42-2 0-6-2-8-6-10-6-18-18-26-32zM478 320.667c-8 0-16 2-24 4-28 10-46 30-52 58-8 48 20 102 52 126 12 10 24 16 38 16 6 0 12-2 18-4 6-4 14-8 18-20 10-28-4-86-8-94s-10-12-18-12c-20 0-40 2-58 6 0-2 0-6 0-10 4-12 10-20 22-24 4-2 8-2 12-2 14 0 26 6 34 16 4 6 10 8 18 8 4 0 8 0 12-4 4-2 8-8 8-14 2-4 0-10-4-16-16-20-40-34-68-34zM454 442.667c10-2 20-4 32-4 2 16 4 34 2 42-2 0-4-2-8-4-10-8-18-20-26-34zM620 302.667c-10 0-20 8-20 20 0 2-6 58-8 102-14 0-30 2-44 4-10 2-20 12-18 24 2 10 10 18 22 18 0 0 2 0 2 0 12-2 24-2 36-4 0 2 0 2 0 2-4 54-4 108 0 162 0 10 10 20 20 20 0 0 2 0 2 0 12-2 20-12 20-24-2-52-2-104 0-156 0 0 0-2 0-2 16 2 30 4 44 6 2 0 4 2 6 2 10 0 18-8 20-18 2-6 0-10-2-16-4-4-8-8-14-10-18-2-34-6-52-6 2-42 8-90 8-100 0-6-2-12-4-16-4-4-10-8-16-8 0 0 0 0-2 0zM744 332.667c-6 0-12 2-16 6-42 42-28 128-28 138 2 10 12 18 22 18 2 0 2 0 4-2 12-2 20-12 16-24-2-16-6-64 10-90 30 14 40 60 44 96 2 10 10 20 22 20 0 0 0 0 2 0 6-2 10-4 14-8s6-10 4-16c-8-80-36-126-90-138-2 0-2 0-4 0zM884 206.667c-12 0-20 6-22 18-6 46-10 88-10 126 0 2 0 4 0 8 0 144 44 180 82 186 2 2 6 2 10 2 34 0 66-32 74-72 8-50-20-110-122-138 0-32 4-68 8-106 2-12-6-24-18-24 0 0-2 0-2 0zM944 502.667c-2 0-2 0-4 0-18-2-42-36-44-120 66 20 86 56 80 84-4 20-18 36-32 36z" />
<glyph unicode="&#x31;" glyph-name="social-ok-ru" data-tags="social-ok-ru" d="M520 416.667c-144 0-262 116-262 260s118 262 262 262c144 0 260-118 260-262s-116-260-260-260zM520 896.667c-120 0-218-98-218-220 0-120 98-218 218-218s218 98 218 218c0 122-98 220-218 220zM520 548.667c-70 0-128 58-128 128 0 72 58 128 128 128s128-56 128-128c0-70-58-128-128-128zM520 762.667c-48 0-86-38-86-86 0-46 38-84 86-84 46 0 86 38 86 84 0 48-40 86-86 86zM728-85.333c-26 0-52 10-72 30l-134 136-136-136c-20-20-46-30-72-30-28 0-52 10-72 30-18 18-30 44-30 72 0 26 12 52 30 72l116 116c-48 16-94 42-136 76-2 0-4 2-6 4-32 32-32 86 0 118l6 6c16 16 38 24 60 24 20 0 40-6 54-18 52-42 118-64 184-64s130 22 184 64c14 12 34 18 52 18 24 0 46-8 62-24l4-6c2-2 4-2 6-4 14-18 20-40 18-62s-12-42-30-58c-40-32-84-56-132-74l116-116c40-40 40-104 0-144-18-20-44-30-72-30zM522 130.667c4 0 10-2 14-6l150-150c12-12 26-18 42-18s30 6 42 18c22 22 22 60 0 82l-142 142c-4 6-6 14-4 20 0 8 6 14 14 16 56 16 106 42 152 78 16 14 20 40 4 58 0 0-2 2-2 2l-6 6c-8 8-18 12-28 12s-20-4-28-10c-60-46-134-72-210-72s-150 26-210 72c-8 6-18 10-28 10-12 0-22-4-30-12l-4-6c-8-8-14-18-12-28 0-12 4-22 12-30 0 0 0-2 2-2 46-36 98-64 154-78 8-2 12-8 14-16s0-16-4-20l-142-142c-10-10-16-24-16-40s6-30 16-42c12-12 26-18 42-18s30 6 42 18l150 150c4 4 10 6 16 6z" />
<glyph unicode="&#x32;" glyph-name="social-reddit-com" data-tags="social-reddit-com" d="M508 116.667c-56 0-110 14-158 40-4 4-8 8-10 14-2 4-2 10 2 16s10 10 18 10c4 0 8 0 10-2 42-24 90-36 138-36h8c48 0 94 12 136 36 4 2 8 2 10 2 8 0 16-4 20-10 6-10 2-24-8-30-48-26-104-40-158-40 0 0-8 0-8 0zM682 276.667c-46 0-84 38-84 86s38 86 84 86c48 0 86-38 86-86s-38-86-86-86zM682 404.667c-22 0-42-18-42-42s20-42 42-42c24 0 44 18 44 42s-20 42-44 42zM342 276.667c-48 0-86 38-86 86s38 86 86 86c46 0 84-38 84-86s-38-86-84-86zM342 404.667c-24 0-44-18-44-42s20-42 44-42c22 0 42 18 42 42s-20 42-42 42zM512 0.667c-236 0-426 134-426 298 0 10 0 18 2 28-34 12-60 34-76 66-30 64-2 140 60 170 18 10 36 14 56 14 40 0 80-20 104-54 72 46 164 70 260 74 2 46 14 154 84 194 18 10 38 16 60 16 28 0 60-10 94-26 14 54 66 94 124 94 70 0 128-58 128-128s-58-128-128-128c-66 0-122 50-128 116-34 18-64 28-90 28-14 0-26-2-38-8-50-30-62-118-64-158 96-4 186-30 258-74 16 22 36 38 62 46 14 4 28 8 42 8 20 0 38-4 56-14 62-30 90-106 60-170-16-32-42-54-76-66 2-10 2-18 2-28 0-164-190-298-426-298zM512 554.667c-212 0-384-114-384-256s172-256 384-256c212 0 384 114 384 256s-172 256-384 256zM828 498.667c48-36 82-82 98-130 22 8 38 22 46 42 10 20 12 44 4 66s-22 38-44 48c-10 6-24 8-36 8-10 0-20-2-28-4-16-6-30-16-40-30zM128 532.667c-12 0-26-2-36-8-44-20-62-72-42-114 10-20 26-34 48-42 16 48 50 94 98 130-16 22-42 34-68 34zM854 832.667c-48 0-86-38-86-86s38-86 86-86c46 0 84 38 84 86s-38 86-84 86z" />
<glyph unicode="&#x33;" glyph-name="social-twitter-com" data-tags="social-twitter-com" d="M382-1.333c-108 0-226 28-348 82-10 4-14 14-12 24s10 18 20 18c4-2 8-2 12-2 70 0 140 18 202 50-76 12-132 38-168 112-4 6-4 12-2 18 2 4 8 10 12 12l46 18c-86 36-110 112-122 170-2 8 0 14 6 20 4 4 8 6 14 6 2 0 4 0 4 0l70-12c-38 60-48 136-30 230 2 8 8 14 16 16 0 0 2 2 4 2 6 0 12-4 16-8 112-128 220-192 328-192 14 0 26 2 40 4v24c0 54 20 106 58 146 38 42 92 66 148 68 2 0 4 0 8 0 48 0 96-18 134-50l94 28c2 0 4 0 6 0 8 0 14-2 18-8s6-14 2-22l-32-62 60-14c8-2 14-8 16-16s0-16-8-22l-76-64v-48c0-178-92-348-240-444-86-56-186-84-296-84zM136 86.667c86-30 168-46 246-46 102 0 194 26 274 78 134 88 218 244 218 408v58c0 6 4 12 8 16l54 44-46 12c-6 0-10 4-14 10-2 6-2 14 0 20l22 42-58-18c-2 0-4 0-6 0-6 0-10 2-14 6-32 30-74 46-116 46-2 0-4 0-6 0-46-2-88-22-120-54-28-32-44-74-44-118v-42c0-10-8-20-18-22-22-4-44-6-66-6-112 0-218 56-328 172-8-84 14-148 62-192 8-6 10-18 6-26-4-6-12-12-20-12 0 0-2 0-2 0l-98 16c24-76 68-114 146-122 10-2 18-10 18-18 2-10-4-20-12-24l-84-32c38-60 98-70 184-76 8 0 16-6 18-16 2-8 0-18-8-22-58-42-126-70-196-82z" />
<glyph unicode="&#x34;" glyph-name="social-vk-com" data-tags="social-vk-com" d="M820 192.667c-26 0-50 8-72 24-20 14-40 38-58 60-16 16-42 48-52 48-14-4-16-14-18-46-2-20-2-42-18-58-2-4-8-6-12-6-22-4-42-4-64-4-8 0-16 0-26 0-4 0-8 0-14 0-92 0-182 40-244 110-124 130-232 372-238 382-2 8-10 32 4 48s38 18 44 18h142c2 0 2 0 4 0 10-2 20-6 30-12 0 0 2-2 2-2 8-6 14-14 18-24 26-66 94-196 128-210 2 2 4 8 6 16 12 54 2 148-6 160-6 8-18 14-28 14-12 2-20 10-22 20-4 20 20 40 36 48 0 0 2 2 2 2 34 10 66 14 100 14 10 0 20 0 30 0 4 0 6 0 10 0 22 0 42-4 64-8 60-14 54-94 50-164-2-34-6-88 4-102 32 14 104 148 128 214 6 10 12 18 20 26 2 0 2 0 4 2 8 2 16 4 24 4 2 0 4 0 6 0l144 2c4 0 8 0 14 0 32 0 52-10 60-30 8-22 4-58-80-170-14-16-24-32-34-44-28-36-46-58-44-70 0-10 18-26 44-52l4-2c38-32 74-72 100-116 14-22 16-42 6-60-14-26-52-30-58-32h-132c-2 0-4 0-8 0zM638 366.667c30 0 54-28 84-62 16-20 34-42 52-54 14-10 30-16 48-16 0 0 2 0 4 0l132 2c8 0 20 4 24 8 0 2 0 8-6 18-24 40-56 76-92 106l-4 4c-78 72-78 84-6 178 10 12 20 26 34 44 70 94 74 122 74 128-4 2-10 4-20 4-4 0-6 0-10-2 0 0-2 0-2 0h-148c0 0-4 0-4 0-2 0-2 0-4 0-2-2-4-4-4-6s-90-218-156-240c-4 0-8-2-12-2-8 0-14 2-20 6-36 24-32 82-28 142 4 52 8 114-16 120-18 4-36 6-54 6-2 0-6 0-10 0 0 0 0 0 0 0-2 0-2 0-2 0-10 2-18 2-28 2-26 0-52-4-76-10 8-6 14-12 20-18 24-32 26-146 16-198-6-24-14-38-26-44-6-4-12-6-20-6-4 0-10 2-14 4-68 24-154 232-156 234 0 2-2 4-4 6-4 4-8 4-12 6l-138-2c-4 0-8 0-10-2 0 0 0-2 0-4 4-8 112-248 230-370 54-60 132-96 214-96 4 0 8 0 12 0 10 0 18 0 26 0 16 0 32 0 48 2 2 6 2 16 2 26 2 28 4 70 48 84 4 2 8 2 14 2z" />
<glyph unicode="&#x35;" glyph-name="social-pinterest-com" data-tags="social-pinterest-com" d="M306-85.333c-14 0-26 10-28 24-12 74-12 148 2 222l72 300c-12 30-18 60-18 92 0 94 58 168 130 168h2c4 0 8-2 12-2 52-6 90-54 84-106 0-36-14-80-28-128-8-24-16-50-22-76-2-6-2-12-2-20 0-16 8-34 22-44 12-12 26-18 44-18 0 0 2 0 2 0 92 0 160 120 160 278 0 118-84 196-214 196-4 0-8 0-10 0h-4c-136-2-244-114-242-250-2-34 10-68 30-96 16-12 20-34 14-52l-4-18c-2-10-6-20-8-26 0-4-2-8-4-10-4-10-12-18-24-20-2-2-6-2-12-2s-12 2-18 4c-78 32-126 120-126 234 0 92 38 182 106 252 56 56 156 122 318 122 106 0 202-38 274-104 66-64 104-152 104-240 0-236-138-408-326-408-2 0-2 0-4 0-46 0-90 16-122 46-12-42-26-98-30-116-24-70-60-134-106-192-4-4-12-8-18-10-2 0-4 0-6 0zM464 676.667c-48 0-86-54-86-124-2-28 4-56 16-80 2-4 2-10 0-14l-72-308c-10-56-12-114-6-172 34 46 60 96 78 152 6 20 32 120 40 152v0c2 8 8 14 16 16 2 0 4 0 4 0 8 0 14-2 18-8 26-38 68-62 114-62 2 0 4 0 6 0 166 0 282 150 282 366 0 148-124 302-334 302-148 0-238-60-288-110-60-62-94-142-94-222 0-96 38-168 102-194 2 4 4 14 6 24 2 8 4 16 6 20 0 0 0 2 0 2 0 4 0 6-2 8 0 0-2 2-2 2-30 36-44 80-42 126-2 76 28 148 82 204 54 54 126 86 202 86h4c4 0 6 0 10 0 156 0 256-94 256-238 0-182-86-320-200-320-2 0-4 0-6 0-58 0-104 44-108 102 0 12 2 22 4 32 6 26 14 54 22 80 14 44 28 86 28 116 0 0 0 0 0 2 2 30-18 56-48 60-2 0-4 0-6 0v12z" />
<glyph unicode="&#x36;" glyph-name="ui-19" data-tags="ui-19" d="M106-43.333c-22 0-42 20-42 44v84c-24 0-42 20-42 44v84c0 24 18 44 42 44v84c-24 0-42 20-42 44v84c0 24 18 44 42 44v84c0 24 20 44 42 44v84h-42c-24 0-42 20-42 44v84c0 24 18 44 42 44h342c24 0 42-20 42-44v-84h42c24 0 44-20 44-44v-84c0-24-20-44-44-44v-84c0-24-18-44-42-44v-84c24 0 42-20 42-44v-84c0-24-18-44-42-44v-84c24 0 42-20 42-44v-84c0-24-18-44-42-44zM106 0.667h342v84h-342zM64 128.667h342v84h-342zM106 256.667h342v84h-342zM64 384.667h342v84h-342zM106 512.667h342v84h-342zM150 640.667h340v84h-340zM64 768.667h342v84h-342zM576-43.333c-24 0-42 20-42 44v84c0 24 18 44 42 44v84c-24 0-42 20-42 44v84c0 24 18 44 42 44h342c24 0 42-20 42-44v-84c24 0 42-20 42-44v-84c0-24-18-44-42-44v-84c0-24-18-44-42-44zM576 0.667h342v84h-342zM618 128.667h342v84h-342zM576 256.667h342v84h-342z" />
<glyph unicode="&#x37;" glyph-name="menu-8" data-tags="menu-8" d="M564-85.333c-12 0-26 6-36 16l-92 70h-34c-10-26-34-44-60-44h-86c-12 0-22 10-22 22v298c0 12 10 22 22 22h86c24 0 46-14 56-34l100 42c10 4 20 6 30 6 18 0 36-6 50-16v0l74 36c14 6 28 8 42 8 10 0 22-2 32-4l132-52c10 10 24 14 38 14h86c12 0 20-10 20-22v-298c0-12-8-22-20-22h-86c-36 0-64 30-64 64v10l-138-26-98-78c-8-8-20-12-32-12zM444 42.667c4 0 8-2 12-4l100-76c2 0 2-2 4-2 0-2 2-4 4-4s4 0 6 2l150 120c2 2 4 8 0 10l-70 80-16-8c-10-4-18-4-28-4s-20 0-28 4c-18 8-32 22-40 40-8 22-6 46 6 66-4 2-10 2-16 2s-10 0-14-2l-108-46v-178zM896 256.667c-12 0-22-10-22-22v-214c0-12 10-20 22-20h64v256zM342 0.667c12 0 20 8 20 20v214c0 12-8 22-20 22h-64v-256zM754 116.667c12-16 14-40 4-56l74 14v160c0 4 0 10 2 14l-124 48c-4 2-10 2-16 2-8 0-16-2-22-6l-80-38c0 0-2 0-2-2-2 0-2 0-4-2-10-8-12-22-8-34 2-8 8-12 16-16 4-2 8-2 12-2s8 0 10 2l80 32c2 2 6 2 8 2 8 0 16-6 20-14 2-4 2-10 0-16-2-4-6-8-12-12l-20-8zM64-85.333c-24 0-42 20-42 42v832c0 82 66 150 148 150h534c76 0 128-62 128-150 0-12-10-20-22-20h-192v-384c0-12-8-22-20-22s-22 10-22 22v426c0 32 12 62 32 86h-438c-58 0-106-48-106-108v-832h106c12 0 22-8 22-20s-10-22-22-22zM788 810.667c-8 52-40 86-84 86-48 0-86-38-86-86zM170 724.667c-12 0-20 10-20 22s8 22 20 22h300c12 0 20-10 20-22s-8-22-20-22zM170 596.667c-12 0-20 10-20 22s8 22 20 22h300c12 0 20-10 20-22s-8-22-20-22zM170 468.667c-12 0-20 10-20 22s8 22 20 22h150c12 0 22-10 22-22s-10-22-22-22z" />
<glyph unicode="&#x38;" glyph-name="ui-12" data-tags="ui-12" d="M64-85.333c-36 0-64 28-64 64v768c0 36 28 64 64 64h64v64c0 12 10 22 22 22s20-10 20-22v-64h128v64c0 12 10 22 22 22s22-10 22-22v-64h128v64c0 12 8 22 20 22s22-10 22-22v-64h128v64c0 12 10 22 22 22s20-10 20-22v-64h128v64c0 12 10 22 22 22s22-10 22-22v-64h64c34 0 64-28 64-64v-768c0-36-30-64-64-64zM64 768.667c-12 0-22-10-22-22v-768c0-12 10-22 22-22h854c12 0 20 10 20 22v768c0 12-8 22-20 22h-64v-22c0-12-10-22-22-22s-22 10-22 22v22h-128v-22c0-12-8-22-20-22s-22 10-22 22v22h-128v-22c0-12-10-22-22-22s-20 10-20 22v22h-128v-22c0-12-10-22-22-22s-22 10-22 22v22h-128v-22c0-12-8-22-20-22s-22 10-22 22v22zM320 42.667c0 0 0 0 0 0h-128c-36 0-64 28-64 64v256c0 36 28 64 64 64h128c0 0 0 0 0 0h150v106c0 36 28 64 64 64h256c34 0 64-28 64-64v-426c0-36-30-64-64-64h-128c0 0 0 0 0 0zM640 84.667v128h-128v-128zM470 84.667v128h-128v-128zM790 84.667c12 0 20 10 20 22v106h-128v-128zM170 106.667c0-12 10-22 22-22h106v128h-128zM640 256.667v128h-128v-128zM470 256.667v128h-128v-128zM810 256.667v128h-128v-128zM298 256.667v128h-106c-12 0-22-10-22-22v-106zM810 426.667v106c0 12-8 22-20 22h-108v-128zM640 426.667v128h-106c-12 0-22-10-22-22v-106z" />
<glyph unicode="&#x39;" glyph-name="ui-13" data-tags="ui-13" d="M298-85.333c-6 0-12 2-16 6l-276 276c-4 4-6 10-6 16s2 10 6 14l306 308c4 4 10 6 16 6s12-2 16-6l14-16c8-10 20-14 32-14v0c12 0 22 4 30 10 10 8 14 20 14 32 2 10-2 22-10 30-2 2-2 2-4 2l-16 16c-4 4-6 10-6 16s2 12 6 16l308 306c4 4 8 6 14 6s12-2 16-6l276-276c4-4 6-10 6-16s-2-10-6-14l-706-706c-4-4-8-6-14-6zM298-33.333l674 674-246 246-30-30 50-52c8-8 8-22 0-30-4-4-10-6-14-6-6 0-12 2-16 6l-50 52-32-32 52-50c4-4 6-10 6-16s-2-12-6-16c-4-4-10-6-16-6s-12 2-16 6l-50 52-32-32 52-50c8-8 8-22 0-30-4-4-10-6-16-6s-10 2-14 6l-52 50-30-30 50-52c8-8 8-22 0-30-4-4-10-6-14-6-6 0-12 2-16 6l-50 52-32-32c2-2 2-2 4-4 32-36 30-90-4-122-16-16-38-24-58-24-2 0-4 0-4 0-24 2-44 12-60 28l-32-32 52-50c8-8 8-22 0-30-4-4-10-6-16-6s-10 2-14 6l-52 50-30-30 50-52c8-8 8-22 0-30-4-4-8-6-14-6s-12 2-16 6l-50 52-32-32 52-50c8-10 8-22 0-32-4-4-10-6-16-6s-10 2-16 6l-50 52-32-32 52-50c8-8 8-22 0-30-4-4-10-6-16-6s-10 2-14 6l-52 50-30-30zM298 36.667c-6 0-12 2-16 6l-92 92c-4 4-6 10-6 16s2 12 6 16l154 152c4 4 8 6 14 6s12-2 16-6l92-92c4-4 6-8 6-14s-2-12-6-16l-154-154c-4-4-8-6-14-6zM298 88.667l122 124-62 62-122-124zM512 252.667c-6 0-12 2-16 6l-92 92c-8 8-8 22 0 30l154 154c4 2 10 6 16 6s10-4 14-6l92-92c4-4 6-10 6-16s-2-12-6-16l-152-152c-4-4-10-6-16-6zM512 302.667l124 124-62 62-124-124zM726 466.667c-6 0-10 2-14 6l-92 92c-4 4-6 10-6 16s2 10 6 14l152 154c4 4 10 6 16 6s12-2 16-6l92-92c8-8 8-22 0-30l-154-154c-4-4-10-6-16-6zM726 518.667l124 122-62 62-124-122z" />
<glyph unicode="&#x3a;" glyph-name="social-steemit-com" data-tags="social-steemit-com" d="M864 598.667c-40 42-90 72-140 90 30 88 136 120 136 120s-248 126-524 76c-90-14-178-70-242-142-140-158-122-396 40-532 26-20 82-54 82-54-36-92-152-116-152-116s154-96 360-120c56-6 114-8 174-2 96 8 192 58 264 128 158 152 160 400 2 552zM794 106.667c-58-56-146-92-214-98-48-4-100-4-148 2-72 8-124 28-176 46 26 24 52 58 62 88 8 18 6 36-2 54-54 110-30 244 60 330 66 62 156 92 246 82 68-8 130-38 178-84 116-114 110-308-6-420z" />
<glyph unicode="&#x3b;" glyph-name="ui-20" data-tags="ui-20" d="M106 0.667c-58 0-106 48-106 106v640c0 58 48 106 106 106h812c58 0 106-48 106-106v-640c0-58-48-106-106-106zM42 106.667c0-36 30-64 64-64h812c34 0 64 28 64 64v490h-940zM982 640.667v106c0 36-30 64-64 64h-812c-34 0-64-28-64-64v-106zM150 692.667c-18 0-32 14-32 32 0 10 4 18 10 24s14 8 22 8c18 0 32-14 32-32s-14-32-32-32zM278 692.667c-18 0-32 14-32 32 0 10 4 18 10 24s14 8 22 8c18 0 32-14 32-32s-14-32-32-32zM512 276.667c-36 0-64 30-64 64 0 36 28 64 64 64s64-28 64-64c0-34-28-64-64-64zM512 362.667c-12 0-22-10-22-22s10-20 22-20c12 0 22 8 22 20s-10 22-22 22zM512 128.667c-6 0-12 0-16 2-20 6-36 20-40 40l-14 40c0 4-2 6-6 6 0 0-2 0-2 0l-42-10c-4-2-8-2-12-2-28 0-52 20-58 46-4 20 0 40 14 54l30 32c2 2 2 6 0 10l-30 32c-10 10-16 26-16 42s8 30 20 42c10 10 24 14 40 14 4 0 8 0 12 0l42-10c2 0 2 0 2 0 4 0 6 2 6 4l14 42c6 24 30 42 56 42 6 0 12 0 16-2 20-6 34-20 40-40l14-42c0-2 2-4 6-4 0 0 0 0 2 0l42 10c4 0 8 0 12 0 12 0 22-2 32-8 14-8 24-22 26-38 4-18 0-38-14-52l-30-32c-2-4-2-8 0-10l30-32c22-24 20-62-4-84-10-10-24-16-40-16-4 0-8 0-12 2l-42 10c0 0-2 0-2 0-4 0-6-2-6-6l-14-40c-6-26-30-42-56-42zM436 258.667c22 0 42-14 48-34l12-42c2-6 6-10 12-12 0 0 2 0 4 0 8 0 14 4 16 12l12 42c6 20 26 34 48 34 4 0 8 0 12-2l40-8c2-2 4-2 4-2 4 0 8 2 12 6 6 6 8 16 0 22l-28 32c-18 20-18 50 0 68l28 32c4 4 6 10 4 16 0 4-2 8-6 10s-6 2-10 2c0 0-2 0-4 0l-40-10c-4 0-8-2-12-2-22 0-42 16-48 36 0 0-12 42-12 42-2 6-6 10-12 10 0 2-2 2-4 2-8 0-14-6-16-12l-12-42c-6-20-26-36-48-36-4 0-8 2-12 2l-40 10c-2 0-4 0-4 0-4 0-8-2-12-4-4-4-6-8-6-12s2-8 6-12l28-32c18-18 18-48 0-68l-28-32c-4-4-6-8-4-14 0-8 8-14 16-14 0 0 2 0 4 2l40 8c4 2 8 2 12 2z" />
<glyph unicode="&#x3c;" glyph-name="social-ono-chat" data-tags="social-ono-chat" d="M362 2.667c10 0 22 0 34 0s24 0 38 0c30 0 52 2 74 4 168 22 312 160 340 326 2 22 10 38 22 54 24 30 52 64 64 106 10 28 4 54-16 68-14 12-32 14-54 8-36-10-52 16-58 28-70 132-206 214-356 214-54 0-106-10-154-32-146-62-228-170-246-322-12-100-8-202-4-302l2-36c2-70 52-116 124-116h6c18 0 36 0 56 0h104c6 0 16 0 24 0M434-39.333c-14 0-26 0-40 0-20 0-38 0-54 0h-106c-20 0-38 0-56 0h-6c-94 0-164 64-166 156l-2 38c-4 100-8 204 4 306 20 166 112 290 270 358 56 22 112 34 172 34 166 0 316-90 394-236 2-6 4-8 4-8 2 0 4 0 6 2 36 8 66 4 90-16 34-26 46-70 32-114-16-50-46-88-72-120-8-10-12-20-14-34-32-186-190-338-376-362-24-4-48-4-80-4M404 544.667c12 0 20-4 28-14 6-6 16-20 6-42-6-16-14-32-24-46-4-8-10-14-14-20-8-12-16-22-24-34-6-10-2-14 2-18 6-6 14-2 16 2 28 30 60 72 72 124 6 18 2 36-8 50-12 14-32 24-52 24-46-4-82-34-114-68 0-2 0-8 4-12s10-6 14-2c8 6 16 10 22 16l12 10c12 10 26 20 44 26 6 2 10 4 16 4M386 324.667c-14 0-24 4-34 12-24 18-28 48-12 74 8 14 16 24 26 36 4 6 10 14 14 20 6 10 12 20 18 32-10-4-18-10-28-18l-10-8c-8-8-16-14-26-20-22-14-50-10-68 8-20 20-22 52-4 70 36 38 80 78 142 82 36 0 68-14 86-40 20-24 26-56 18-88-16-58-52-106-80-140-12-12-26-20-42-20M362 2.667c10 0 22 0 34 0s24 0 38 0c30 0 52 2 74 4 168 22 312 160 340 326 2 22 10 38 22 54 24 30 52 64 64 106 10 28 4 54-16 68-14 12-32 14-54 8-36-10-52 16-58 28-70 132-206 214-356 214-54 0-106-10-154-32-146-62-228-170-246-322-12-100-8-202-4-302l2-36c2-70 52-116 124-116h6c18 0 36 0 56 0h104c6 0 16 0 24 0M434-39.333c-14 0-26 0-40 0-20 0-38 0-54 0h-106c-20 0-38 0-56 0h-6c-94 0-164 64-166 156l-2 38c-4 100-8 204 4 306 20 166 112 290 270 358 56 22 112 34 172 34 166 0 316-90 394-236 2-6 4-8 4-8 2 0 4 0 6 2 36 8 66 4 90-16 34-26 46-70 32-114-16-50-46-88-72-120-8-10-12-20-14-34-32-186-190-338-376-362-24-4-48-4-80-4M404 544.667c12 0 20-4 28-14 6-6 16-20 6-42-6-16-14-32-24-46-4-8-10-14-14-20-8-12-16-22-24-34-6-10-2-14 2-18 6-6 14-2 16 2 28 30 60 72 72 124 6 18 2 36-8 50-12 14-32 24-52 24-46-4-82-34-114-68 0-2 0-8 4-12s10-6 14-2c8 6 16 10 22 16l12 10c12 10 26 20 44 26 6 2 10 4 16 4M386 324.667c-14 0-24 4-34 12-24 18-28 48-12 74 8 14 16 24 26 36 4 6 10 14 14 20 6 10 12 20 16 32-10-4-18-12-26-18l-10-8c-8-8-16-14-26-20-22-14-50-10-68 8-20 20-22 52-4 70 36 38 80 78 142 82 36 0 68-14 86-40 20-24 26-56 18-88-16-58-52-106-80-140-12-12-26-20-42-20" />
<glyph unicode="&#x3d;" glyph-name="menu-12" data-tags="menu-12" d="M854-85.333c-12 0-22 10-22 22v192c0 0 0 2 0 4l38 208h-188c-12 0-20 10-20 22v148c0 58-22 86-64 86-44 0-64-28-64-86v-190c0-2 0-4-2-6l-20-86c-10-36-12-76-2-114 16-28 36-54 60-78 4-4 6-10 6-16v-84c0-12-10-22-22-22s-20 10-20 22v76c-24 26-46 54-62 84 0 2-2 2-2 4-6 24-10 46-10 70-6-6-14-12-22-18 0 0 0 0-2-2-10-4-24-8-38-8-12 0-30 4-46 14-20 12-32 32-32 56v128h-192c-36 0-64 30-64 64v470c0 36 28 64 64 64h768c36 0 64-28 64-64v-470c0-28-18-52-46-60l-40-218v-190c0-12-8-22-20-22zM362 212.667c0-8 4-16 12-20 6-4 16-6 24-6s14 0 18 2c26 18 48 44 60 74l14 60v18h-128zM896 384.667c12 0 22 8 22 20v470c0 12-10 22-22 22h-768c-12 0-22-10-22-22v-470c0-12 10-20 22-20h362v126c0 116 76 130 108 130s106-14 106-130v-126zM512 768.667c-12 0-22 8-22 20s10 22 22 22h256c12 0 22-10 22-22s-10-20-22-20zM512 682.667c-12 0-22 10-22 22s10 20 22 20h256c12 0 22-8 22-20s-10-22-22-22zM320 554.667c-70 0-128 58-128 128s58 128 128 128c70 0 128-58 128-128s-58-128-128-128zM320 768.667c-48 0-86-38-86-86s38-86 86-86c48 0 86 38 86 86s-38 86-86 86z" />
<glyph unicode="&#x3e;" glyph-name="role-4" data-tags="role-4" d="M320 532.667c-112 0-202 92-202 204s90 202 202 202c112 0 202-90 202-202s-90-204-202-204zM320 896.667c-88 0-160-72-160-160s72-160 160-160c88 0 160 72 160 160s-72 160-160 160zM22 170.667c-12 0-22 10-22 22 0 84 34 166 94 226s140 94 226 94c86 0 168-36 228-96 4-4 6-10 6-16s-2-10-6-14c-4-4-10-6-14-6-6 0-12 2-16 6-52 52-124 82-198 82s-144-28-196-80c-48-48-76-110-80-176h362c12 0 20-8 20-20s-8-22-20-22zM582-85.333c-6 0-10 0-14 2-14 4-26 12-34 26s-10 32-4 48l56 128-100 100c-10 8-16 20-16 34-2 14 4 28 12 38 10 12 24 18 40 18h116l60 130c10 18 28 30 48 30 10 0 18-2 26-6 10-6 18-14 24-22 0-2 0-2 0-2l60-130h116c28 0 50-22 52-50 0-16-6-32-18-42l-100-98 56-128c6-14 6-28 0-42s-16-24-30-30c-6-2-12-4-20-4-10 0-20 2-28 8l-138 76-138-76c-8-6-16-8-26-8zM522 266.667c-4 0-6-2-8-4s-2-4-2-6 2-6 4-8l110-110c8-6 8-16 6-24l-62-140c-2-4 0-8 0-12 2-2 6-4 8-4 2-2 2-2 4-2s4 2 6 2l148 84c4 2 6 2 10 2s8 0 12-2l148-84c2 0 4-2 6-2s4 0 4 2c6 2 10 10 8 16l-62 140c-4 8-2 18 4 24l112 110c2 2 4 6 4 8 0 6-6 10-10 10h-130c-8 0-16 4-18 12l-66 142c-2 2-4 2-6 4s-4 2-6 2-8-4-10-8l-66-140c-4-8-10-12-20-12z" />
<glyph unicode="&#x3f;" glyph-name="role-2" data-tags="role-2" d="M746-85.333c-152 0-276 124-276 278 0 152 124 276 276 276 154 0 278-124 278-276 0-154-124-278-278-278zM746 426.667c-128 0-234-106-234-234 0-130 106-236 234-236 130 0 236 106 236 236 0 128-106 234-236 234zM746 162.667c-12 0-20 10-20 20v138c0 12 8 20 20 20s22-8 22-20v-116h64c12 0 22-10 22-22 0-10-10-20-22-20zM320 532.667c-112 0-202 92-202 204s90 202 202 202c112 0 202-90 202-202s-90-204-202-204zM320 896.667c-88 0-160-72-160-160s72-160 160-160c88 0 160 72 160 160s-72 160-160 160zM22 170.667c-12 0-22 10-22 22 0 84 34 166 94 226s140 94 226 94c62 0 122-18 172-52 10-6 14-20 8-28-4-8-12-10-18-10-4 0-8 0-12 2-44 30-96 44-150 44-74 0-144-28-196-80-48-48-76-110-80-176h318c12 0 22-8 22-20s-10-22-22-22z" />
<glyph unicode="&#x41;" glyph-name="ui-3" data-tags="ui-3" d="M1012 808.667l-300 128c-8 4-18 2-24-6l-86-106c-4-6-6-12-4-18s6-12 10-14l-268-100c-22-10-42-26-54-46l-88-148c-20-30-20-70-4-102l6-12h-94c-12 0-20-10-20-22v-426c0-12 8-22 20-22h556c12 0 20 10 20 22v320c0 0 0 2 0 4 40 26 86 68 126 134 68 110 106 198 120 238l4-2c8-4 18-8 28-8 16 0 32 8 44 20 14 12 20 28 20 46v100c0 10-6 16-12 20zM640-43.333h-512v384h108c0 0 0 0 0 0h170c-20-12-44-26-74-44-22-16-38-38-44-64-4-26 0-54 16-76 0 0 0 0 0 0 20-28 50-44 82-44 18 0 36 4 52 14l146 88c8 2 30 8 56 22v-280zM356 438.667c34 14 76 38 100 64 16-10 42-22 76-30-24-28-48-64-58-90-2 0-2 2-4 2h-88c-4 20-16 40-26 54zM772 416.667c-86-136-200-160-200-162-2 0-4 0-6-2l-150-90c-26-16-60-8-76 18-2 0-2 0-2 0-8 14-10 28-8 44 4 14 12 26 26 36 114 72 136 80 134 80 12 0 22 10 22 20 2 14 40 76 80 114 6 6 6 16 4 24-4 8-12 14-20 14-66 0-114 36-114 38-8 4-16 6-24 4-6-4-10-10-10-18-8-20-90-66-108-68-8 0-16-4-20-12-4-10 0-18 6-24 0 0 22-22 32-48h-90l-16 30c-10 20-8 44 2 62l88 148c8 12 20 22 34 28l304 114 230-116c-14-36-52-124-118-234zM982 688.667c0-8-4-14-8-16-6-6-16-8-24-4l-298 150 58 72 272-116z" />
<glyph unicode="&#x42;" glyph-name="transfers" data-tags="transfers" d="M790 468.667h-768c-10 0-18 6-20 14-4 8-2 18 4 24l278 256c8 8 22 8 30-2 8-8 8-22 0-30l-238-218h714c12 0 20-10 20-22s-8-22-20-22zM726 0.667c-6 0-12 2-16 6-8 8-8 22 0 30l238 220h-714c-12 0-20 8-20 20s8 22 20 22h768c10 0 18-6 20-14 4-8 2-18-4-22l-278-256c-4-4-10-6-14-6z" />
<glyph unicode="&#x43;" glyph-name="register-1" data-tags="register-1" d="M790 0.667h-192v20c0 12-10 22-22 22h-22v22c0 12-8 20-20 20h-22v44c10 0 20 2 30 2 0 0 0 0 0 0 2 0 2 2 4 2 114 14 212 78 276 168 2 2 4 4 4 6 44 66 70 142 70 226 0 224-182 406-406 406-4 0-8 0-12 0-2 0-2 0-4 0s-4 0-6-2c-212-10-382-188-382-404s170-392 384-404v-44h-22c-12 0-22-8-22-20v-22h-20c-12 0-22-10-22-22v-20h-192c-12 0-22-10-22-22s10-22 22-22h192v-20c0-12 10-22 22-22h170c12 0 22 10 22 22v20h192c12 0 20 10 20 22s-8 22-20 22zM594 186.667c16 20 30 42 34 56 6 20 8 60 0 82-10 20-32 36-56 52-12 10-34 26-42 36 2 0 4 2 6 2 10 8 26 18 26 36 0 22-12 44-28 64 12-8 24-14 32-18 16-6 38-4 60-2 14 2 34 4 40 2 2 0 8-8 10-12 6-8 12-14 20-20 14-8 32-10 50-14 14-4 40-8 44-14 8-10 6-62-2-110-46-66-114-116-194-140zM324 828.667c-6 8-14 12-22 14 44 28 94 46 148 52 0-20-2-38 4-52 6-12 28-46 54-46 16 0 26 14 34 26 0 0 0 0 0 0 2-2 2-2 4-4 4-8 10-14 16-18 8-8 20-10 34-14 4-2 10-4 16-6-2 0-2 0-2-2-8-4-16-10-20-16-10-14-18-36-26-60-10-26-22-60-32-66-2 0-14 2-20 2-18 4-48 12-58-14-6-14-2-30 10-48-10 6-18 12-28 20-32 22-64 46-78 66-10 14-26 46-30 60-2 6 0 22 2 34 4 26 8 54-6 72zM854 532.667c0-38-6-74-18-108-2 16-4 28-10 38-14 20-44 24-72 30-12 2-30 4-34 8-2 2-8 8-10 12-8 10-16 20-28 24-16 6-38 4-60 2-14-2-34-4-40-2-30 12-72 44-84 62 2 0 4 0 6 0 16-4 34-8 48 0 26 16 38 54 52 90 6 20 14 40 20 48 2 2 6 6 10 8 14 10 32 22 28 42-4 26-30 34-54 40-8 2-18 6-22 8 0 0-4 6-6 8-10 14-22 30-40 30-16 0-26-16-34-28 0 0 0 0-2-2-4 6-8 12-10 16-2 6 0 26 0 38 198-2 360-164 360-364zM128 532.667c0 110 50 208 126 276 10-4 18-4 26-6 2 0 8 0 10 0 2-10 0-30-2-40-2-18-6-36-2-50 6-22 26-58 38-74 16-26 52-50 88-78 46-32 100-74 106-106-2 0-4-2-6-4-10-6-26-16-26-34 0-30 32-52 62-74 14-10 36-26 40-34 4-10 4-40 0-54-6-14-34-54-58-82-12-2-26-2-40-2-200 0-362 162-362 362zM554-43.333h-128v44h22c12 0 22 8 22 20v22h42v-22c0-12 10-20 22-20h20z" />
<glyph unicode="&#x44;" glyph-name="register-2" data-tags="register-2" d="M682-43.333h-638c8 86 68 150 148 170l176 44c8 2 14 8 16 16l20 84c2 8 0 16-6 20-42 40-72 100-76 158-2 12-10 20-22 20h-6c-12 0-20 8-22 20l-10 84c0 6 0 12 6 18 4 4 8 6 16 6h4c6 0 12 4 16 8s6 10 4 16c-2 22-10 84-10 104 0 68 14 126 172 128 4 0 8 2 12 4 48 34 98 40 142 40 60 0 102-20 126-56 28-42 16-64 2-80l-20-20c-4-4-6-10-6-14l-6-108c0-4 2-10 6-14 4-6 10-8 16-8s10-2 16-6c4-6 4-12 4-18l-10-84c-2-12-10-20-24-20-10 0-20-6-20-18-6-24-22-56-22-56-6-10-2-22 8-28s22-2 28 8c2 2 16 26 24 54 24 6 44 28 48 54l10 86c2 18-2 36-14 50-8 8-16 14-26 18l4 80 16 16c24 24 44 68 2 132-32 50-86 74-162 74-30 0-98 0-162-42-182-4-206-90-206-172 0-18 4-62 8-88-12-4-22-10-28-18-14-14-18-32-16-50l10-86c4-28 24-50 52-54 8-60 36-118 78-160l-14-60-164-40c-108-26-182-122-182-232 0-12 10-22 22-22h660c12 0 22 10 22 22s-10 20-22 20zM1008 340.667l-170 44c-4 0-8 0-12 0l-170-44c-10-2-16-10-16-20v-256c0-66 140-130 184-148 2 0 6-2 8-2s6 2 8 2c44 18 184 82 184 148v256c0 10-6 18-16 20zM982 64.667c0-24-78-74-150-104-72 30-150 80-150 104v240l150 36 150-36zM742 274.667c-10-2-16-10-16-20v-104c0-12 8-22 20-22h64v-98c0-8 4-14 10-18 4-2 8-4 12-4s6 2 10 2c38 20 72 40 90 56 4 4 6 10 6 16v68c0 12-8 20-20 20h-64v104c0 8-4 14-8 18-6 4-12 6-20 4zM768 236.667l42 12v-78h-42zM896 92.667c-10-8-26-18-42-26v62h42z" />
<glyph unicode="&#x45;" glyph-name="type-8" data-tags="type-8" d="M918 512.667l-180 124c-8 4-18 4-24 0l-182-124c-2 0-6-2-10-4l-168 116c-8 6-18 6-24 0l-182-124c-10 0-20-10-20-20v-244c0 0 0-2 0-2 0-2 0-4 2-4 0-2 0-4 2-4 0-2 0-2 2-4 0 0 2-2 2-2 2-2 2-2 2-2l184-110c4-8 10-12 20-12 8 0 14 4 18 12l182 108 164-98c4-8 10-12 20-12 8 0 14 4 18 12l184 110c2 2 2 2 2 2 2 2 2 2 4 4 0 0 0 2 2 2 0 2 0 2 2 4 0 2 0 2 0 4s0 2 0 2v244c0 12-8 20-20 22zM298 158.667l-128 90v190l128-90zM188 476.667l154 106 152-106-152-92zM342 158.667v190l170 90v-190zM682 170.667l-128 88v190l128-90zM572 486.667l154 106 152-106-152-90zM896 258.667l-170-88v188l170 90z" />
<glyph unicode="&#x46;" glyph-name="ui-9" data-tags="ui-9" d="M1002 426.667c12 0 22 10 22 22s-10 20-22 20h-148v128h148c12 0 22 10 22 22s-10 22-22 22h-148v64c0 34-30 64-64 64h-64v148c0 12-10 22-22 22s-22-10-22-22v-148h-128v148c0 12-8 22-20 22s-22-10-22-22v-148h-128v148c0 12-10 22-22 22s-20-10-20-22v-148h-108c-34 0-64-30-64-64v-108h-148c-12 0-22-8-22-20s10-22 22-22h148v-128h-148c-12 0-22-10-22-22s10-20 22-20h148v-128h-148c-12 0-22-10-22-22s10-22 22-22h148v-64c0-34 30-64 64-64h108v-148c0-12 8-22 20-22s22 10 22 22v148h128v-148c0-12 10-22 22-22s20 10 20 22v148h128v-148c0-12 10-22 22-22s22 10 22 22v148h64c34 0 64 30 64 64v108h148c12 0 22 8 22 20s-10 22-22 22h-148v128zM810 148.667c0-12-8-20-20-20h-556c-12 0-20 8-20 20v556c0 12 8 20 20 20h556c12 0 20-8 20-20zM662 682.667h-300c-58 0-106-48-106-106v-300c0-58 48-106 106-106h300c58 0 106 48 106 106v300c0 58-48 106-106 106zM726 276.667c0-34-30-64-64-64h-300c-34 0-64 30-64 64v300c0 34 30 64 64 64h300c34 0 64-30 64-64zM406 512.667h170c12 0 22 8 22 20s-10 22-22 22h-170c-12 0-22-10-22-22s10-20 22-20zM490 468.667h-84c-12 0-22-8-22-20s10-22 22-22h84c12 0 22 10 22 22s-10 20-22 20zM618 340.667h-84c-12 0-22-8-22-20s10-22 22-22h84c12 0 22 10 22 22s-10 20-22 20z" />
<glyph unicode="&#x47;" glyph-name="menu-1" data-tags="menu-1" d="M406-85.333h-342c-36 0-64 28-64 64v214c0 34 28 64 64 64h342c34 0 64-30 64-64v-214c0-36-30-64-64-64zM64 212.667c-12 0-22-8-22-20v-214c0-12 10-22 22-22h342c12 0 20 10 20 22v214c0 12-8 20-20 20zM960-85.333h-342c-34 0-64 28-64 64v470c0 34 30 64 64 64h342c36 0 64-30 64-64v-470c0-36-28-64-64-64zM618 468.667c-12 0-20-8-20-20v-470c0-12 8-22 20-22h342c12 0 22 10 22 22v470c0 12-10 20-22 20zM960 596.667h-342c-34 0-64 30-64 64v214c0 36 30 64 64 64h342c36 0 64-28 64-64v-214c0-34-28-64-64-64zM618 896.667c-12 0-20-10-20-22v-214c0-12 8-20 20-20h342c12 0 22 8 22 20v214c0 12-10 22-22 22zM406 340.667h-342c-36 0-64 30-64 64v470c0 36 28 64 64 64h342c34 0 64-28 64-64v-470c0-34-30-64-64-64zM64 896.667c-12 0-22-10-22-22v-470c0-12 10-20 22-20h342c12 0 20 8 20 20v470c0 12-8 22-20 22z" />
<glyph unicode="&#x48;" glyph-name="ui-7" data-tags="ui-7" d="M1020 344.667c0 0 0 2 0 2l-104 410c-14 58-66 96-124 96h-560c-58 0-110-38-124-96l-104-410c0 0 0-2 0-2-2-8-4-16-4-24v-172c0-58 48-106 106-106h812c58 0 106 48 106 106v172c0 8-2 16-4 24zM150 746.667c10 38 44 64 82 64h560c38 0 72-26 82-64l84-328c-12 6-26 8-40 8h-812c-14 0-28-2-40-8zM982 148.667c0-34-30-64-64-64h-812c-34 0-64 30-64 64v172c0 34 30 64 64 64h812c34 0 64-30 64-64zM874 212.667h-724c-12 0-22-8-22-20s10-22 22-22h724c12 0 22 10 22 22s-10 20-22 20zM832 352.667c-18 0-32-16-32-32 0-18 14-32 32-32s32 14 32 32c0 16-14 32-32 32zM822 320.667c0 6 4 10 10 10s10-4 10-10c0-12-20-12-20 0z" />
<glyph unicode="&#x49;" glyph-name="ui-10" data-tags="ui-10" d="M1002-43.333h-448v182c86 6 194 44 266 114 32 30 58 64 78 102 0 0 0 0 0 2 28 52 42 110 42 170 0 0-2 0-2 0s0 0 0 0c0 2 0 2 0 2 0 102-42 204-118 276-70 68-164 108-266 112-2 0-2 0-4 0-6 0-10 0-16 0s-12 0-16 0c-214-4-388-176-388-380 0-4 0-6 0-8 0 0 0 0 0-2 0 0 0 0 0-2 4-204 168-372 382-386v-182h-446c-12 0-20-8-20-20s8-22 20-22h936c12 0 22 10 22 22s-10 20-22 20zM174 512.667h176c2-44 10-86 22-128h-166c-18 42-30 84-32 128zM224 724.667h152c-18-84-28-128-28-170h-176c4 42 22 128 52 170zM528 852.667c2 0 6 0 10 0 0 0 2 18 4 18 36-38 66-60 88-102h-188c22 42 50 84 86 84zM648 724.667c22-84 32-128 34-170h-292c0 42 10 86 32 170zM896 554.667h-174c0 42-10 86-28 170h150c30-42 50-128 52-170zM864 384.667h-166c12 42 20 84 22 128h176c-2-44-14-86-32-128zM390 512.667h290c-4-44-12-86-26-128h-236c-14 42-24 84-28 128zM636 340.667c-22-42-54-106-96-160-2 0-4 0-6 0s-4 0-4 0c-42 52-74 118-96 160zM792 282.667c-54-52-122-86-194-98 36 52 64 114 84 156h158c-14 0-30-40-48-58zM810 768.667h-134c-18 42-42 70-72 108 70-14 136-42 188-92 6-6 12-16 18-16zM466 882.667c-30-36-54-72-72-114h-138c54 42 128 100 210 114zM232 340.667h156c20-42 48-104 84-154-100 18-188 70-240 154z" />
<glyph unicode="&#x4a;" glyph-name="type-4" data-tags="type-4" d="M1020 276.667c-8 20-26 28-50 28v-6h-114l-60 136c-20 36-78 34-98-4l-60-132h-116c-22 0-42-8-50-28s-2-42 14-56l100-98-56-126c-8-22-2-48 16-62 16-16 44-18 62-6l138 78 138-78c8-6 18-8 28-8 14 0 26 4 36 14 18 16 24 40 14 62l-56 128 100 98c18 16 22 40 14 60zM978 248.667l-112-110c-6-6-8-16-4-24l62-140c2-6 0-10-4-14s-10-4-14-2l-148 84c-4 2-8 2-12 2-2 0-6 0-10-2l-148-84c-4-2-10-2-14 2s-6 8-4 14l62 140c4 8 2 18-4 24l-112 110c-4 4-4 2-4 6 2 4 4 2 12 2h128c8 0 14 10 18 16l66 144c4 8 18 8 22 2l66-146c2-8 10-16 18-16h130c4 0 8 2 8-2 2-4 2-2-2-6zM64 768.667c0-94 76-172 170-172s172 78 172 172c0 6-2 12-2 18 0 2 0 6-2 8-12 82-82 144-168 144-60 0-114-32-144-80-2-4-4-6-4-8-14-26-22-52-22-82zM234 640.667c-70 0-128 56-128 128 0 14 4 26 8 40 48-40 108-62 170-62 26 0 52 4 78 12-6-66-60-118-128-118zM234 896.667c60 0 108-40 124-94-76-26-164-8-224 44 24 30 60 50 100 50zM182 570.667c-106-24-182-120-182-230v-148c0-12 10-22 22-22h86l20-236c0-12 10-20 22-20h170c12 0 20 8 22 20l18 236h44c12 0 22 10 22 22s-10 20-22 20h-62c-12 0-22-8-22-18l-20-238h-132l-18 238c-2 10-10 18-22 18h-86v128c0 90 62 168 150 188s178-24 216-104c6-12 18-16 28-10 12 4 16 18 10 28-48 100-156 152-264 128z" />
<glyph unicode="&#x4b;" glyph-name="register-3" data-tags="register-3" d="M938 234.667c0 58-48 106-106 106s-106-48-106-106c0-34 16-66 42-84l-42-210c-2-8 2-16 8-22 6-4 16-6 22-2l76 38 76-38c2-2 6-2 10-2s8 2 12 4c6 6 10 14 8 22l-42 210c26 18 42 50 42 84zM832 298.667c36 0 64-28 64-64s-28-64-64-64c-36 0-64 28-64 64s28 64 64 64zM888-25.333l-46 24c-6 2-14 2-20 0l-46-24 32 156c8-2 16-2 24-2s16 0 24 2zM662 42.667h-534v598h234c12 0 22 8 22 20v236h426v-492c0-12 10-20 22-20s22 8 22 20v512c0 12-10 22-22 22h-470c-2 0-4 0-8-2-2 0-4-2-6-4l-256-256c-2-2-4-4-4-8-2-2-2-4-2-8v-640c0-12 8-20 20-20h556c12 0 20 8 20 20s-8 22-20 22zM158 682.667l184 184v-184zM746 512.667h-554c-12 0-22-10-22-22s10-22 22-22h554c12 0 22 10 22 22s-10 22-22 22zM662 340.667h-470c-12 0-22-8-22-20s10-22 22-22h470c12 0 20 10 20 22s-8 20-20 20zM362 128.667c12 0 22 8 22 20s-10 22-22 22h-170c-12 0-22-10-22-22s10-20 22-20zM746 682.667h-256c-12 0-20-10-20-22s8-20 20-20h256c12 0 22 8 22 20s-10 22-22 22z" />
<glyph unicode="&#x4c;" glyph-name="type-11" data-tags="type-11" d="M512-85.333c-282 0-512 230-512 512s230 512 512 512c282 0 512-230 512-512s-230-512-512-512zM512 896.667c-258 0-470-212-470-470s212-470 470-470c258 0 470 212 470 470s-212 470-470 470zM746 170.667c-4 0-10 2-14 6l-256 234c-4 4-6 10-6 16v234c0 12 8 22 20 22s22-10 22-22v-224l250-228c8-8 8-22 0-32-4-4-10-6-16-6z" />
<glyph unicode="&#x4d;" glyph-name="type-5" data-tags="type-5" d="M576 596.667h-426c-12 0-22 10-22 22s10 22 22 22h426c12 0 22-10 22-22s-10-22-22-22zM576 468.667h-426c-12 0-22 10-22 22s10 22 22 22h426c12 0 22-10 22-22s-10-22-22-22zM874 340.667h-724c-12 0-22 10-22 22s10 22 22 22h724c12 0 22-10 22-22s-10-22-22-22zM874 212.667h-724c-12 0-22 10-22 22s10 22 22 22h724c12 0 22-10 22-22s-10-22-22-22zM960 42.667h-896c-36 0-64 28-64 64v640c0 36 28 64 64 64h738c16 0 34-6 46-18l158-158c12-14 18-30 18-46v-482c0-36-28-64-64-64zM64 768.667c-12 0-22-10-22-22v-640c0-12 10-22 22-22h896c12 0 22 10 22 22v482c0 6-2 10-6 14l-160 160c-4 4-8 6-14 6z" />
<glyph unicode="&#x4e;" glyph-name="type-10" data-tags="type-10" d="M342 412.667c-2-4-2-10 0-16 2-2 4-4 6-6l192-192c8-8 22-8 30 0s8 22 0 30l-156 156h504c12 0 20 8 20 20s-8 22-20 22h-504l156 156c8 8 8 22 0 30-4 4-10 6-16 6-4 0-10-2-14-6l-192-192c-2-2-4-4-6-8zM662 298.667c-12 0-22-10-22-22v-170c0-12-10-22-22-22h-554c-12 0-22 10-22 22v598c0 12 10 20 22 20h554c12 0 22-8 22-20v-172c0-12 10-20 22-20s20 8 20 20v172c0 34-28 64-64 64h-554c-36 0-64-30-64-64v-598c0-36 28-64 64-64h554c36 0 64 28 64 64v170c0 12-8 22-20 22z" />
<glyph unicode="&#x4f;" glyph-name="transfer-out" data-tags="transfer-out" d="M1022 396.667c2 6 2 12 0 16 0 4-2 6-4 8l-192 192c-8 8-22 8-30 0s-8-22 0-30l156-156h-504c-12 0-22-10-22-22s10-20 22-20h504l-156-156c-8-8-8-22 0-30 4-4 10-6 14-6 6 0 12 2 16 6l192 192c2 2 4 4 4 6zM662 298.667c-12 0-22-10-22-22v-170c0-12-10-22-22-22h-554c-12 0-22 10-22 22v598c0 12 10 20 22 20h554c12 0 22-8 22-20v-172c0-12 10-20 22-20s20 8 20 20v172c0 34-28 64-64 64h-554c-36 0-64-30-64-64v-598c0-36 28-64 64-64h554c36 0 64 28 64 64v170c0 12-8 22-20 22z" />
<glyph unicode="&#x50;" glyph-name="circulating" data-tags="circulating" d="M828 80.667c-88-80-200-124-316-124-108 0-212 38-294 104l102 58c8 4 12 12 10 22 0 8-6 16-14 18l-230 60c-6 4-12 4-18 0-2 0-2 0-2 0-2-2-2-2-4-4 0 0-2 0-2-2-2-2-4-4-4-8-2-6 0-14 4-18 90-168 262-272 452-272 128 0 250 48 344 134 8 8 10 20 2 30-8 8-22 8-30 2zM124 164.667l130-34-66-38c0-2-2-2-2-2-22 22-44 48-62 74zM42 426.667c0 198 124 368 300 436v-116c0-8 4-16 12-20 4 0 6-2 8-2 6 0 12 2 16 6l168 168c2 4 6 6 8 10 0 0 0 0 0 0 0 2 0 4 0 6s0 2 0 2c0 6-2 12-6 16s-12 6-18 6h-4c-4 0-10 0-14 0-282 0-512-230-512-512 0-36 4-72 12-108 2-10 10-18 20-18 2 0 4 0 6 0 10 4 18 14 16 26-8 34-12 68-12 100zM384 876.667c30 10 62 16 96 18l-96-96v76c0 2 0 2 0 2zM1024 426.667c0 224-144 420-356 488-12 4-24-2-28-14-2-12 4-24 14-26 196-64 328-242 328-448 0-24-2-48-6-70l-102 58c-8 4-16 4-24-2-6-4-10-14-6-22l60-230c2-6 4-10 10-14 0 0 0 0 0 0 0-2 0-2 0-2 2 0 6-2 8-2s2-2 4-2c2 0 4 2 6 2 6 2 12 8 14 14 50 82 78 174 78 270zM964 312.667c0 0 2 0 2 0-8-32-18-62-34-92l-34 132z" />
<glyph unicode="&#x51;" glyph-name="social-youtube-com" data-tags="social-youtube-com" d="M192-85.333c-106 0-192 86-192 192v128c0 106 86 192 192 192h598c106 0 192-86 192-192v-128c0-106-86-192-192-192zM192 384.667c-82 0-150-68-150-150v-128c0-82 68-150 150-150h598c82 0 148 68 148 150v128c0 82-66 150-148 150zM278 512.667c-12 0-22 8-22 20v186l-124 164c-4 6-4 10-4 16 2 6 4 10 8 14s8 4 14 4c6 0 12-2 16-8l112-148 110 148c4 6 10 8 18 8 4 0 8 0 12-4s8-8 8-14c2-6 0-10-4-16l-124-164v-186c0-12-8-20-20-20zM470 512.667c-48 0-86 38-86 84v128c0 48 38 86 86 86 46 0 84-38 84-86v-128c0-46-38-84-84-84zM470 768.667c-24 0-44-20-44-44v-128c0-22 20-42 44-42 22 0 42 20 42 42v128c0 24-20 44-42 44zM790 512.667c-12 0-22 8-22 20v0c-18-14-40-20-64-20-58 0-106 48-106 106v170c0 12 8 22 20 22s22-10 22-22v-170c0-36 28-64 64-64s64 28 64 64v170c0 12 10 22 22 22s20-10 20-22v-256c0-12-8-20-20-20zM448 42.667c-6 0-12 2-16 6-8-4-18-6-26-6-36 0-64 28-64 64v128c0 12 8 22 20 22s22-10 22-22v-128c0-12 10-22 22-22s20 10 20 22v128c0 12 10 22 22 22s22-10 22-22v-170c0-12-10-22-22-22zM234 42.667c-12 0-20 10-20 22v192h-66c-12 0-20 8-20 20s8 22 20 22h172c12 0 22-10 22-22s-10-20-22-20h-64v-192c0-12-10-22-22-22zM576 42.667c-10 0-20 2-28 6-4-2-10-6-14-6-12 0-22 10-22 22v256c0 12 10 20 22 20s20-8 20-20v-68c8 2 14 4 22 4 36 0 64-30 64-64v-86c0-36-28-64-64-64zM576 212.667c-12 0-22-8-22-20v-86c0-12 10-22 22-22s22 10 22 22v86c0 12-10 20-22 20zM756 42.667c-2 0-4 0-8 0-36 4-64 32-66 68v38c0 0 0 2 0 2v42c0 34 30 64 64 64 36 0 64-30 64-64v-44c0-12-8-20-20-20h-64v-16c0-14 12-26 26-28 2 0 2 0 2 0 12 0 20 8 22 18 0 12 10 20 20 20 2 0 2 0 2 0 6 0 12-4 16-8 2-4 4-10 4-16-4-32-30-56-62-56zM768 170.667v22c0 12-10 20-22 20s-20-8-20-20v-22z" />
<glyph unicode="&#x52;" glyph-name="social-linkedin-com" data-tags="social-linkedin-com" d="M64-43.333c-12 0-22 10-22 22v554c0 12 10 22 22 22h214c12 0 20-10 20-22v-554c0-12-8-22-20-22zM256 0.667v512h-170v-512zM170 596.667c-70 0-128 58-128 128 0 72 58 128 128 128 72 0 128-56 128-128 0-70-56-128-128-128zM170 810.667c-46 0-84-38-84-86 0-46 38-84 84-84 48 0 86 38 86 84 0 48-38 86-86 86zM746-43.333c-12 0-20 10-20 22v298c0 36-30 64-64 64-36 0-64-28-64-64v-298c0-12-10-22-22-22h-214c-12 0-20 10-20 22v554c0 12 8 22 20 22h214c12 0 22-10 22-22v-20c44 26 96 42 148 42 146 0 236-112 236-292v-284c0-12-10-22-22-22zM938 0.667v262c0 156-72 250-192 250-56-2-112-22-156-58-4-4-8-6-14-6-4 0-6 0-8 2-8 4-14 12-14 20v42h-170v-512h170v276c0 60 48 108 108 108 58 0 106-48 106-108v-276z" />
<glyph unicode="&#x53;" glyph-name="social-ask-fm" data-tags="social-ask-fm" d="M968 874.667c-12 14-32 22-52 22h-348c-222 0-460-210-542-476-48-162-28-314 54-408 56-64 134-98 224-98 102 0 208 44 300 118l-14-46c-8-30 12-62 46-70 6-2 12-2 16-2 30 0 56 16 64 42l130 432c0 0 0 2 2 2 0 0 0 0 0 0l132 434c4 16 0 36-12 50zM722 416.667c-66-210-256-388-418-388-50 0-90 18-122 52-58 68-70 184-32 310 66 212 256 392 418 392h264z" />
<glyph unicode="&#x54;" glyph-name="social-tumblr-com" data-tags="social-tumblr-com" d="M806 204.667c-10 4-20 0-26-8-38-50-106-60-134-62-30-4-52 2-64 16-18 20-16 52-16 52s0 2 0 2v252h220c12 0 22 10 22 22v166c0 12-10 22-22 22h-226v248c0 14-10 24-22 24h-138c-12 0-24-10-24-24 0-232-176-242-184-242-12 0-22-10-22-24v-170c0-12 10-22 24-22l82-2v-264c0-166 66-256 200-272 20-4 46-4 64-4 38 0 78 2 102 6 112 18 170 76 172 78 4 6 8 10 8 16v168c0 10-8 20-16 22zM776 26.667c-18-14-64-48-140-60-38-6-118-8-154-4-74 10-160 46-160 228v288c0 12-10 22-24 22l-82 2v126c56 10 196 58 206 264h92v-248c0-12 10-24 24-24h224v-118h-220c-12 0-22-10-22-24v-272c0-10-2-54 26-86 20-22 50-34 86-34 6 0 12 0 18 2 26 2 80 10 126 42z" />
<glyph unicode="&#x55;" glyph-name="social-weibo-com" data-tags="social-weibo-com" d="M722 400.667c-14 6-22 8-16 30 16 46 18 84 0 112-30 52-116 50-214 2 0 0-30-16-22 12 14 58 12 106-12 132-52 64-194-2-314-144-92-106-144-220-144-318 0-186 204-312 404-312 260 0 434 190 434 332 0 86-62 134-116 154zM404-1.333c-160-18-296 66-308 186-10 122 112 236 270 254 160 18 296-66 308-186 10-122-112-236-270-254zM982 554.667c0 188-134 342-296 342-20 0-36-18-36-40s16-40 36-40c124 0 226-118 226-262 0-24 16-40 34-40 20 0 36 16 36 40 0 0 0 0 0 0zM844 560.667c-16 88-76 158-154 176-18 6-36-8-40-30s8-44 26-48c50-12 90-58 100-116 4-20 22-34 42-30 18 4 30 26 26 48zM322 318.667c-64-14-108-76-96-138 10-62 70-100 134-84 66 14 108 76 98 138-12 62-72 100-136 84z" />
<glyph unicode="&#x56;" glyph-name="social-qzoneqq-com" data-tags="social-qzoneqq-com" d="M980 522.667c-2 8-10 12-18 14l-314 30-138 316c-2 8-10 14-18 14s-16-6-20-14l-140-308-314-38c-8-2-14-6-18-14-2-8 0-18 8-24l230-222-56-336c-2-8 0-16 8-22 4-2 8-4 12-4s6 2 10 4l282 170 278-172c6-2 16-2 22 2 6 6 10 14 8 22l-42 248c10 6 44 20 60 42-28-12-38-16-66-20v0c-186-38-472-6-482-6l314 242c-106 20-354 28-368 28-2 0-2 0-2 0s2 0 2 0c12 2 334 58 522 2l-316-232c0 0 242-24 328-14l-4 46 228 224c4 4 6 14 4 22z" />
<glyph unicode="&#x57;" glyph-name="social-flickr-com" data-tags="social-flickr-com" d="M790 192.667c-130 0-236 104-236 234s106 234 236 234c128 0 234-104 234-234s-106-234-234-234zM790 618.667c-106 0-192-86-192-192s86-192 192-192c106 0 192 86 192 192s-86 192-192 192zM234 192.667c-128 0-234 104-234 234s106 234 234 234c130 0 236-104 236-234s-106-234-236-234zM234 618.667c-106 0-192-86-192-192s86-192 192-192c106 0 192 86 192 192s-86 192-192 192z" />
<glyph unicode="&#x58;" glyph-name="social-instagram-com" data-tags="social-instagram-com" d="M278-85.333c-154 0-278 124-278 278v468c0 118 74 222 184 262 30 10 62 16 94 16h468c154 0 278-124 278-278v-468c0-154-124-278-278-278zM42 192.667c0-130 106-236 236-236h468c130 0 236 106 236 236v276h-228c10-26 14-56 14-84 0-142-114-256-256-256s-256 114-256 256c0 28 4 58 14 84h-228zM512 596.667c-118 0-214-96-214-212 0-118 96-214 214-214s214 96 214 214c0 116-96 212-214 212zM982 512.667v148c0 130-106 236-236 236h-276v-192c0-12-10-22-22-22s-22 10-22 22v192h-42v-192c0-12-10-22-22-22s-20 10-20 22v192h-44v-192c0-12-8-22-20-22s-22 10-22 22v190c-14 0-28-4-42-8v-182c0-12-10-22-22-22s-22 10-22 22v166c-78-40-128-120-128-210v-148h248c46 78 130 128 222 128s176-50 222-128zM512 212.667c-94 0-170 78-170 172s76 170 170 170c94 0 170-76 170-170s-76-172-170-172zM512 512.667c-70 0-128-58-128-128 0-72 58-128 128-128s128 56 128 128c0 70-58 128-128 128zM790 640.667c-36 0-64 28-64 64v42c0 36 28 64 64 64h42c36 0 64-28 64-64v-42c0-36-28-64-64-64zM790 768.667c-12 0-22-10-22-22v-42c0-12 10-22 22-22h42c12 0 22 10 22 22v42c0 12-10 22-22 22z" />
<glyph unicode="&#x59;" glyph-name="social-facebook-com" data-tags="social-facebook-com" d="M362-85.333c-12 0-20 10-20 22v490h-108c-12 0-20 10-20 22v170c0 12 8 22 20 22h108v70c0 28 4 84 32 132 38 64 100 96 188 96h184c12 0 22-10 22-22v-170c0-6-2-12-6-16s-10-6-16-6c0 0-108 0-126 0h-2c-2 0-2 0-4 0-4 0-10-2-12-8-4-4-6-8-4-14 0-2 0-2 0-2v-60h160c6 0 12-4 16-8s6-10 6-16l-18-170c-2-12-10-20-22-20h-142v-490c0-12-10-22-22-22zM554-43.333v492c0 12 10 20 22 20h146l12 128h-158c-12 0-22 10-22 22v80c-2 16 4 32 14 44 10 14 24 22 40 24 4 2 6 2 10 2 0 0 2 0 2 0h4c18 0 66 0 96-2h6v130h-164c-66 0-178-24-178-186v-92c0-12-10-22-22-22h-106v-128h106c12 0 22-8 22-20v-492z" />
<glyph unicode="&#x5a;" glyph-name="social-plusgoogle-com" data-tags="social-plusgoogle-com" d="M308 54.667c-98 0-174 62-174 140 0 72 88 136 188 136h2c22 0 42-4 62-10 4 0 6-2 8-2 4-4 10-8 14-12h2c44-30 76-52 84-88 2-10 4-18 4-28 0-118-120-136-190-136zM322 288.667c-76 0-144-46-144-94 0-54 56-98 130-98 132 0 148 54 148 94 0 6-2 12-2 18-6 20-30 38-66 62l-2 2c-6 2-10 6-14 8-16 4-32 8-48 8h-2zM306-27.333c-42 0-82 4-122 14-66 12-126 50-164 106-14 24-20 48-20 74s6 52 18 76c40 84 138 144 252 152-4 10-4 20-4 32 0 2 0 4 0 6-54 6-104 30-142 68-44 44-68 102-68 162 8 104 80 190 178 218 28 10 60 16 90 16h262c12 0 26-8 34-18 12-18 8-44-10-58l-58-42c-4-2-6-4-8-6 18-34 28-72 26-112-2-66-36-130-90-168-30-24-32-30-34-36 12-20 30-38 50-52 72-42 114-120 110-204 0-98-72-182-186-214-36-10-72-14-110-14h-4zM298 352.667c-108 0-206-52-242-128-8-18-14-38-14-58 0-18 6-36 14-52 32-44 82-76 136-86 38-10 76-14 116-14 36 0 70 4 100 14 94 26 156 94 156 172 4 70-30 134-90 168-28 18-52 44-68 72-2 4-2 8-2 10 0 30 10 44 50 76 44 32 72 82 74 136 0 42-14 82-38 116-6 6-6 14-4 22 4 8 12 12 20 12h20l56 40h-258c-26 0-52-4-78-12-82-24-140-96-148-180 0-48 20-94 56-130s82-56 132-56h4c8 0 14-2 18-8 4-4 4-12 4-18-2-8-4-14-4-22 0-14 4-28 12-42 4-6 4-14 0-20-4-8-12-12-20-12zM334 500.667c-66 2-132 76-144 162-8 44 4 88 30 122 0 2 0 2 0 2 18 20 42 32 68 32h4c68-2 132-74 144-162 8-42-4-88-30-124-18-20-42-32-70-32 0 0-2 0-2 0zM288 774.667c-14 0-26-4-34-16-20-24-28-58-22-88 10-66 58-126 104-128v0c14 0 28 6 36 16 20 26 28 60 22 92-10 68-56 124-104 124 0 0-2 0-2 0zM790 298.667c-12 0-22 10-22 22v106h-106c-12 0-22 10-22 22v84c0 12 10 22 22 22h106v106c0 12 10 22 22 22h84c12 0 22-10 22-22v-106h106c12 0 22-10 22-22v-84c0-12-10-22-22-22h-106v-106c0-12-10-22-22-22zM854 340.667v108c0 12 8 20 20 20h108v44h-108c-12 0-20 8-20 20v108h-44v-108c0-12-8-20-20-20h-108v-44h108c12 0 20-8 20-20v-108z" />
<glyph unicode="&#x61;" glyph-name="type-1" data-tags="type-1" d="M72 220.667c2 0 4 0 8 0 2 0 2 0 2 0 78-8 156-40 234-64 16-4 20-28 6-38-34-20-70-46-96-58 170-126 428-138 602 20 0 0 10 6 18 4 18-4 26-22-4-48-128-110-312-148-472-102-132 38-244 130-310 252 0 0 0 0 0 0-8 12-4 30 12 34zM126 160.667c18-26 38-48 62-70 0 0 0 2 0 2l66 38c-42 10-86 18-128 30zM974 358.667c28 212-96 442-320 516 0 0-26 42 10 40 0 0 100-34 170-90 192-156 246-456 110-672 0 0-10-12-22-10-4 0-6 2-8 4-4 2-6 4-8 10-24 78-44 156-64 236-2 12 6 26 24 24 2 0 4 0 8-2 34-18 76-38 100-56zM966 312.667c0 0-2 0-2 0l-66 40c12-44 26-84 38-126 2 4 4 8 6 12 10 24 18 48 24 74zM338 860.667c-196-82-332-308-284-534 0 0-34-50-44-2-56 290 168 600 482 614 8 0 16 0 24 0 4 0 8 0 12 0 0 0 4 0 6 0 4 0 8-2 12-4s6-6 8-10c0-4 0-8 0-10 0-4-2-8-4-12-56-58-114-116-174-172-12-10-34-2-34 14-2 42-6 86-4 116zM480 894.667c-12 0-24-2-34-4-20-2-42-6-62-12 0-2 0-2 0-4v-76c32 32 64 64 96 96z" />
<glyph unicode="&#x62;" glyph-name="type-6" data-tags="type-6" d="M512 20.667c0-12 10-20 22-20h42c12 0 22 8 22 20s-10 22-22 22h-42c-12 0-22-10-22-22zM896 576.667c0 2 0 4 0 6-4 196-164 356-362 356-200 0-364-162-364-362 0 0 0 0 0 0s0 0 0 0c0-2 2-2 2-4s0-2 0-4 2-2 2-4 2-2 2-2l310-350h-80c-12 0-22-8-22-20v-256c0-12 10-22 22-22h256c12 0 20 10 20 22v256c0 12-8 20-20 20h-82l308 346c6 4 8 10 8 18zM512 248.667l-298 334c8 28 70 58 148 58 86 0 150-34 150-64zM554 576.667c0 30 64 64 150 64 80 0 140-30 148-58l-298-334zM534 896.667c150 0 278-106 310-246-34 20-84 32-140 32-76 0-140-22-170-56-32 34-96 56-172 56-56 0-106-12-140-32 34 140 160 246 312 246zM640-43.333h-214v214h214z" />
<glyph unicode="&#x63;" glyph-name="ui-11" data-tags="ui-11" d="M512 112.667c-6 0-10 2-16 6l-490 492c-8 8-8 22 0 30s22 8 30 0l476-476 476 476c8 8 22 8 30 0s8-22 0-30l-490-492c-6-4-10-6-16-6z" />
<glyph unicode="&#x64;" glyph-name="ui-1" data-tags="ui-1" d="M822 426.667c0-6-2-10-6-16l-492-490c-8-8-22-8-30 0s-8 22 0 30l476 476-476 476c-8 8-8 22 0 30s22 8 30 0l492-490c4-6 6-10 6-16z" />
<glyph unicode="&#x65;" glyph-name="ui-8" data-tags="ui-8" d="M564 404.667l326 326c8 10 8 22 0 32-8 8-22 8-30 0l-326-328-326 328c-10 8-22 8-32 0-8-10-8-22 0-32l328-326-328-326c-8-8-8-22 0-30 6-4 10-6 16-6s10 2 16 6l326 326 326-326c4-4 10-6 14-6 6 0 12 2 16 6 8 8 8 22 0 30z" />
<glyph unicode="&#x66;" glyph-name="menu-5" data-tags="menu-5" d="M512-85.333c-282 0-512 230-512 512s230 512 512 512c282 0 512-230 512-512s-230-512-512-512zM512 896.667c-258 0-470-212-470-470s212-470 470-470c258 0 470 212 470 470s-212 470-470 470zM704 128.667c-4 0-8 0-12 2l-180 122-180-122c-8-4-18-4-24 2-8 4-10 14-8 22l60 222-182 140c-6 6-10 14-6 24 2 8 10 14 20 14h220l80 200c6 16 34 16 40 0l80-200h220c10 0 18-6 20-14 4-10 0-18-6-24l-182-140 60-222c2-8 0-18-8-22-4-4-8-4-12-4zM512 298.667c4 0 8-2 12-4l144-96-48 180c-2 8 0 16 6 22l144 112h-172c-10 0-18 4-20 12l-66 164-66-164c-2-8-10-12-20-12h-172l144-112c6-6 8-14 6-22l-48-180 144 96c4 2 8 4 12 4z" />
<glyph unicode="&#x67;" glyph-name="dac-balance" data-tags="dac-balance" d="M364 794.667l12-214 100-70 26 120zM524 630.667l22-120 104 66 18 216zM666 562.667l-70-100 120-26 164 138zM716 414.667l-120-22 66-104 216-18zM648 272.667l-100 70-26-120 138-164zM478 342.667l-102-68-20-214 144 160zM308 416.667l-164-138 214 12 70 100zM362 564.667l-216 18 162-144 120 22zM142 576.667l-120-22 66-104 216-18zM356 794.667l-100 70-26-122 138-164zM640 916.667l-104-66-18-216 144 162zM828 708.667l-164-138 214 12 70 100zM936 402.667l-216 18 162-144 120 22zM656 274.667l12-214 100-70 26 120zM362 56.667l22-120 104 66 18 216zM146 270.667l-70-100 120-26 164 138zM200 140.667l150-78 18 216zM90 444.667l50-162 166 142zM226 738.667l-78-150 216-18zM368 798.667l142-166 20 216zM674 790.667l-18-218 168 140zM884 570.667l-166-142 216-20zM658 282.667l140-168 78 150zM514 220.667l-20-216 162 50z" />
<glyph unicode="&#x68;" glyph-name="menu-3" data-tags="menu-3" d="M1020 310.667l-66 102c0 0 2 2 0 2l-48 162c-2 0-2 2-4 2l64 92c4 6 6 14 2 20-2 8-8 12-14 14l-118 24c-2 2-2 2-2 2l-150 80c0 0-2 0-4 0l-20 110c0 8-6 14-12 16-6 4-14 2-20-2l-102-66c0 0-2 0-2 0l-162-50c0 0-2 0-2-2l-92 64c-6 4-14 6-20 2-8-2-12-8-14-14l-24-118c-2-2-2-2-2-2l-80-150c0 0 0-2 0-4l-110-20c-8 0-14-6-16-12-4-6-2-14 2-20l66-102c0 0 0-2 0-2l50-162c0 0 0-2 2-2l-64-92c-4-6-6-14-2-20 2-8 8-12 14-14l118-24c2-2 2-2 2-2l150-80c2 0 2 0 4 0l20-110c0-8 6-14 12-16 2-2 6-2 8-2 4 0 8 2 12 4l102 64c0 0 2 0 2 2l162 48c0 2 2 2 2 4l92-64c4-2 8-4 12-4s6 0 8 2c8 2 12 8 14 14l24 118c2 2 2 2 2 2l80 150c0 0 0 2 0 4l110 20c8 0 14 6 16 12 4 6 2 14-2 20zM512 278.667l-12 68c-2 6-6 12-12 14-8 4-14 4-20 0l-62-40 40 58c4 6 6 14 2 20-2 6-8 12-14 14l-72 14 70 12c8 2 12 6 16 14 2 6 2 14-2 20l-38 60 56-40c4-2 8-4 12-4s6 0 8 2c8 2 12 8 14 14l14 70 12-68c2-8 6-14 14-16 2-2 6-2 8-2 4 0 8 2 12 4l58 38-38-56c-4-6-6-14-2-20 2-6 8-12 14-14l72-14-70-12c-8-2-12-6-16-14-2-6-2-14 2-20l38-58-56 38c-6 4-14 6-20 2-6-2-12-8-14-14zM392 476.667l-78-16-106 96 142-14zM388 732.667l92-108-18-78-66 44zM392 376.667l-44-66-142-8 108 90zM396 262.667l68 44 14-80-94-104zM676 542.667l142 8-108-90-78 16zM628 588.667l-66-42-16 78 96 106zM710 392.667l106-96-142 14-42 66zM562 306.667l66-44 8-142-90 108zM770 444.667l104 88 30-100zM868 602.667l-142-8 108 92 80-18zM786 708.667l-104-86 10 134zM624 882.667l14-80-94-106 12 142zM506 818.667l-12-134-88 104zM270 828.667l66-46 8-142-92 108zM230 700.667l86-104-134 10zM136 552.667l106-94-142 12-44 68zM254 408.667l-104-88-30 100zM156 250.667l142 8-108-92-80 18zM238 144.667l104 86-10-134zM400-29.333l-14 80 94 106-12-142zM518 34.667l12 134 88-104zM754 24.667l-66 46-8 142 92-108zM794 152.667l-86 104 134-10zM888 300.667l-106 94 142-12 44-68z" />
<glyph unicode="&#x69;" glyph-name="type-2" data-tags="type-2" d="M852 112.667l-108 452c-2 2-2 2-2 4 0 0 0 2-2 2 0 0 0 2 0 2l-190 272c-4 6-10 8-16 8-8 0-14-2-18-8l-190-272c0 0 0-2 0-2s0-2-2-2c0-2 0-2 0-4l-110-452c-2-10 2-20 10-24l298-170c2-2 2-2 2-2 2 0 2 0 2 0s0 0 2-2c2 0 4 0 6 0 0 0 0 0 0 0s0 0 0 0c2 0 4 0 6 0 0 2 0 2 0 2 2 0 2 0 2 0s2 0 2 2l298 170c0 0 0 0 0 0s0 0 0 0 0 0 0 0 0 0 0 0 0 0 0 0c6 2 8 8 10 12 0 2 2 2 2 4v0c0 2 0 6-2 8zM534 794.667l166-238-166-548-166 548zM346 478.667l152-498-238 138zM570-19.333l150 498 88-360z" />
<glyph unicode="&#x6a;" glyph-name="menu-4" data-tags="menu-4" d="M804 404.667c16 16 30 32 42 48 66 80 86 150 60 198-14 24-46 54-122 54-40 0-84-8-134-22-8 30-18 58-28 84 12 12 18 26 18 44 0 36-28 64-62 64-8 0-14-2-22-4-18 16-40 26-60 26-72 0-124-92-154-214-50 14-96 22-134 22-76 0-108-30-122-54-26-48-6-118 58-198 14-16 28-32 44-48-80-80-120-158-110-216-8-12-14-24-14-40 0-34 28-64 62-64 20 0 36 10 48 24 10 0 22-2 34-2 40 0 84 8 134 22 30-124 82-214 154-214s124 90 154 214c26-8 50-12 74-16 8-28 32-48 60-48 30 0 54 22 60 50 28 8 50 24 62 46 36 64-14 156-102 244zM784 660.667c44 0 74-10 86-32 16-30-4-86-54-148-12-16-28-30-42-46-30 26-62 54-98 78-2 46-10 88-16 128 46 14 88 20 124 20zM568 276.667c-24-16-48-28-72-40-24 12-48 26-72 40s-48 28-70 44c-2 28-2 56-2 84 0 30 2 58 2 86 22 14 46 30 70 44s48 28 72 40c24-12 48-26 72-40s48-30 70-44c0-28 2-56 2-86 0-28-2-56-2-84-24-16-46-30-70-44zM632 266.667c-2-30-8-58-12-84-26 8-50 20-76 30 14 8 30 18 44 26 16 10 30 18 44 28zM448 212.667c-26-10-52-22-76-30-6 26-10 54-12 84 14-10 28-18 44-28 14-8 30-18 44-26zM312 352.667c-22 16-44 34-64 52 20 18 40 36 64 54 0-18-2-36-2-54s2-34 2-52zM360 544.667c2 28 6 56 12 84 24-10 50-20 76-32-14-8-30-16-44-26-16-8-30-18-44-26zM544 596.667c26 12 52 22 76 32 4-28 10-56 12-84-14 8-28 18-44 26-14 10-30 18-44 26zM680 458.667c24-18 44-36 64-54-20-18-42-36-64-52 0 18 2 34 2 52s-2 36-2 54zM598 810.667c0-8-4-14-10-18 0 0 0 0 0 0-4-2-8-4-10-4-12 0-20 10-20 22 0 8 6 14 8 16 0 0 0 2 2 2 2 2 6 4 10 4 12 0 20-10 20-22zM496 852.667c10 0 18-4 28-10-2-4-4-10-4-14-2-2-2-2-2-2 0-6-2-10-2-16 0-4 2-10 2-14 0 0 0 0 0-2 2-4 2-6 4-10 0 0 0-2 0-2 2-4 4-6 6-10 0 0 2 0 2 0 2-4 4-6 8-10 0 0 0 0 0 0 4-2 6-6 10-8 0 0 0 0 2 0 2-2 4-4 8-4 2 0 2-2 4-2s6 0 8-2c2 0 4 0 6 0 0 0 2 0 2 0 2 0 4 0 6 0 0 0 2 0 2 0 10-22 18-48 24-76-36-14-76-30-114-50-40 20-78 36-114 50 28 114 72 182 114 182zM122 628.667c12 22 42 32 86 32 36 0 78-6 124-20-8-40-12-84-16-126-36-26-70-54-98-80-16 16-30 30-42 46-50 62-70 118-54 148zM126 128.667c-12 0-20 8-20 20 0 6 2 12 6 16 0 0 0 0 0 0 4 4 8 6 12 6 0 0 0 0 0 0 4 0 8 0 10-2 2 0 2-2 2-2 2 0 4-2 6-6 0 0 2 0 2-2 2-2 2-6 2-10 0-2 0-6-2-8v0c-2-8-10-12-18-12zM208 148.667c-8 0-14 2-20 2 0 0 0 2-2 4 0 2 0 6 0 8s0 2-2 4c0 4-2 6-2 10 0 0 0 0-2 0-4 12-14 22-24 28-2 0-2 0-2 2-2 0-6 2-10 4 0 0-2 0-2 0-4 2-6 2-8 2s-4 0-6 0c0 0-2 0-2 0-2 0-4 0-6 0s-2 0-4 0c4 40 40 100 102 164 30-28 62-54 98-80 2-44 8-86 16-126-46-14-88-22-124-22zM496-43.333c-42 0-86 70-114 184 36 14 74 30 114 48 38-18 78-34 114-48-28-114-72-184-114-184zM784 106.667c-12 0-20 10-20 22 0 0 0 0 0 0 0 6 2 12 6 14 0 2 0 2 0 2 2 0 4 2 6 4 2 0 6 0 8 0s6 0 8 0c6-4 12-10 12-20 0 0 0 0 0 0 0-12-8-22-20-22zM870 180.667c-6-10-16-18-32-24-2 6-6 10-10 14 0 0 0 0 0 0-2 4-6 8-12 12 0 0 0 0-2 0-4 2-6 4-10 6-2 0-4 0-4 2-6 0-10 2-16 2s-12-2-16-4c-2 0-2 0-4 0-16-6-30-18-36-34-22 4-44 8-68 16 8 40 12 82 16 126 36 26 68 52 98 80 82-84 116-158 96-196z" />
<glyph unicode="&#x6b;" glyph-name="menu-7" data-tags="menu-7" d="M514 212.667c-52 0-96 42-96 94 0 130 68 200 112 246 38 40 52 56 52 94 0 34-32 64-68 64-38 0-68-28-68-64 0-52-44-94-96-94s-94 42-94 94c0 138 114 250 256 250s256-112 256-250c4-116-56-176-100-222-38-38-60-64-60-118 0-52-42-94-94-94zM514 754.667c60 0 110-50 110-108s-26-84-64-124c-44-46-98-102-98-216 0-28 22-50 52-50 28 0 52 22 52 50 0 74 34 110 72 148 42 44 90 94 88 190 0 116-96 208-214 208s-214-92-214-206c0-28 24-52 52-52 30 0 52 24 52 52 0 58 50 108 112 108zM512-53.333c-60 0-106 46-106 106s46 108 106 108c58 0 106-48 106-108s-46-106-106-106zM512 116.667c-36 0-64-28-64-64s28-64 64-64c36 0 64 28 64 64s-28 64-64 64z" />
<glyph unicode="&#x6c;" glyph-name="type-3" data-tags="type-3" d="M938 662.667c0 2 0 6-2 8 0 0 0 0 0 2 0 0 0 0 0 0-2 2-4 4-8 6 0 0 0 0 0 0l-426 256c-8 6-16 6-22 0l-428-256c0 0 0 0 0 0-2-2-4-4-6-6 0 0 0 0 0 0 0-2 0-2 0-2-2-2-2-6-4-8 0 0 0 0 0-2v-468c0-8 4-16 12-18l426-256c0-2 0-2 0-2 4 0 8-2 10-2 4 0 8 2 10 2 0 0 2 0 2 2l426 254c6 4 10 12 10 20v468c0 2 0 2 0 2zM490 892.667l386-232-386-230-384 230zM86 622.667l384-230v-418l-384 230zM512-25.333v418l384 232v-420z" />
<glyph unicode="&#x6d;" glyph-name="topmenu-5" data-tags="topmenu-5" d="M1002-85.333h-980c-12 0-22 10-22 22 0 4 0 94 44 182 32 62 140 102 288 156 16 6 34 14 52 20v102c-18 16-58 58-64 126-10 8-16 22-22 40-6 32-2 68 20 88-2 2-2 6-2 8-16 48-42 136-6 186 14 18 34 28 60 32 24 46 106 62 172 62 84 0 190-26 204-100 12-60-18-136-34-178-2-4-4-8-4-10 20-22 24-58 18-88-6-18-12-32-22-40-6-68-46-110-64-126v-102c18-6 36-14 52-20 148-54 256-94 288-156 44-88 44-178 44-182 0-12-10-22-22-22zM44-43.333h936c-2 30-12 88-40 142-22 48-134 90-262 136-22 8-44 16-66 26-10 2-14 10-14 20v128c0 6 2 12 8 16 2 2 56 38 56 112 0 8 6 18 16 20 4 6 10 26 8 46-2 10-6 18-12 20-8 4-12 12-12 20s2 14 10 34c14 36 42 106 32 154-8 42-88 66-162 66-80 0-132-24-138-46-2-10-10-16-20-16-18 0-32-6-38-16-26-32 0-114 10-148 4-16 6-22 6-28 0-8-4-16-12-20-6-2-10-10-12-20-2-20 4-40 8-46 10-2 16-12 16-20 0-74 54-110 56-112 6-4 8-10 8-16v-128c0-10-4-18-14-20-22-10-44-18-66-26-128-46-240-88-262-136-28-54-38-112-40-142z" />
<glyph unicode="&#x6e;" glyph-name="topmenu-4" data-tags="topmenu-4" d="M704-85.333h-384c-106 0-192 86-192 192v256c0 84 54 154 128 182v138c0 142 114 256 256 256s256-114 256-256v-138c74-28 128-98 128-182v-256c0-106-86-192-192-192zM320 512.667c-82 0-150-68-150-150v-256c0-82 68-150 150-150h384c82 0 150 68 150 150v256c0 82-68 150-150 150zM704 554.667h22v128c0 118-96 214-214 214s-214-96-214-214v-128zM512 148.667c-58 0-106 48-106 108 0 58 48 106 106 106s106-48 106-106c0-60-48-108-106-108zM512 320.667c-36 0-64-30-64-64 0-36 28-64 64-64s64 28 64 64c0 34-28 64-64 64z" />
<glyph unicode="&#x6f;" glyph-name="topmenu-1" data-tags="topmenu-1" d="M704 554.667h-384c-8 0-14 12-22 12v-12h-26c-82 0-144-88-144-178v-256c0-106 86-206 192-206h384c106 0 192 100 192 206v256c0 106-86 178-192 178zM854 106.667c0-82-68-150-150-150h-384c-82 0-150 68-150 150v256c0 82 68 150 150 150h384c82 0 150-68 150-150zM298 668.667c0 118 96 198 214 198s214-14 214-142h42c0 172-114 186-256 186-136 0-248-100-256-228h42zM512 376.667c-58 0-106-48-106-106 0-60 48-108 106-108s106 48 106 108c0 58-48 106-106 106zM512 206.667c-36 0-64 28-64 64 0 34 28 64 64 64s64-30 64-64c0-36-28-64-64-64zM256 682.667v-14c0 4 0 10 0 14zM298 682.667h-42v-128h16c8 0 18 12 26 12zM298 682.667h-42c0-4 0-10 0-14h42zM298 566.667c-8 0-18-2-26-4h26z" />
<glyph unicode="&#x70;" glyph-name="logo" data-tags="logo" d="M342 798.667l12-216 102-70 26 120zM504 634.667l20-122 104 68 20 214zM644 566.667l-70-100 120-26 166 138zM696 418.667l-122-22 68-104 214-18zM628 276.667l-102 70-24-120 138-166zM458 344.667l-104-66-18-216 144 162zM288 420.667l-166-140 216 12 70 102zM340 566.667l-214 20 160-144 122 22zM122 578.667l-122-22 68-102 214-20zM336 796.667l-102 70-26-120 140-166zM618 920.667l-102-68-20-214 144 160zM808 712.667l-166-138 216 12 70 100zM914 406.667l-214 18 160-144 122 22zM636 278.667l10-216 102-70 26 120zM342 60.667l22-122 102 68 20 214zM124 274.667l-70-102 120-26 166 140zM180 144.667l150-80 18 218zM68 448.667l50-162 168 140zM206 740.667l-80-148 218-18zM348 802.667l140-168 22 218zM654 794.667l-18-218 166 138zM864 572.667l-168-140 218-20zM638 286.667l138-168 80 148zM494 224.667l-20-216 160 48z" />
<glyph unicode="&#x71;" glyph-name="logo-footer-explorer" data-tags="logo-footer-explorer" d="M100 530.667l4-56 26-18 6 30zM142 486.667l6-30 26 16 6 56zM178 468.667l-18-26 32-6 44 36zM192 430.667l-32-6 18-26 56-6zM174 394.667l-26 18-6-32 36-42zM130 412.667l-26-18-6-56 38 42zM86 430.667l-44-36 56 4 20 26zM100 470.667l-56 4 42-38 32 6zM42 472.667l-32-6 18-26 56-6zM98 530.667l-26 18-6-32 36-44zM172 562.667l-26-18-6-56 38 42zM222 506.667l-44-36 56 4 18 26zM250 426.667l-56 6 42-38 30 6zM176 394.667l4-56 26-18 6 30zM100 336.667l6-30 26 16 6 56zM44 392.667l-18-26 30-6 44 36zM58 358.667l38-20 6 56zM28 438.667l14-42 44 36zM64 514.667l-20-38 56-6zM102 530.667l36-44 6 58zM182 528.667l-6-56 44 36zM236 470.667l-44-36 58-6zM178 396.667l36-44 20 38zM140 380.667l-6-56 42 12zM354 500.667c0 4 0 8-2 10-2 4-4 4-8 4s-6-2-8-4v-20c2-2 4-4 8-4s6 0 8 4c2 2 2 6 2 10zM362 500.667c0-6-2-12-4-14-4-4-8-6-12-6s-8 2-10 4v-18h-8v54h6v-6c4 4 8 6 12 6s8-2 12-6c2-2 4-8 4-14zM388 514.667c0 0-2 0-2 0-6 0-8-2-10-6v-28h-6v40h6v-6c2 4 6 6 10 6 0 0 2 0 2 0zM398 500.667c0-4 2-8 4-10 2-4 4-4 8-4 2 0 6 0 8 4 2 2 2 6 2 10s0 8-2 10c-2 4-6 4-8 4-4 0-6 0-8-4-2-2-4-6-4-10zM392 500.667c0 4 0 8 2 10 2 4 4 6 6 8 4 2 6 2 10 2s10-2 12-6c4-4 6-8 6-14v0c0-4-2-8-4-10 0-4-2-6-6-8-2-2-4-2-8-2-6 0-10 2-14 6-2 4-4 8-4 14zM460 484.667c-4-2-8-4-12-4s-8 2-10 4c-2 2-2 6-2 10v26h6v-26c0-6 2-8 8-8 4 0 8 2 10 6v28h6v-40h-6zM480 500.667c0-4 2-8 4-10 2-4 4-4 6-4 6 0 8 2 10 6v16c-2 4-4 6-8 6s-6 0-8-4c-2-2-4-6-4-10zM474 500.667c0 6 2 10 4 14 4 4 6 6 12 6 4 0 8-2 10-4v20h6v-56h-6v4c-2-2-6-4-10-4-6 0-8 2-12 6-2 4-4 8-4 14zM518 536.667h6v-56h-6zM548 490.667l8 30h8l-16-46c-2-6-6-8-12-8v0h-4v4h2c2 0 4 2 6 2 2 2 2 2 2 6l2 4-14 38h8zM614 500.667c0 4-2 8-4 10-2 4-4 4-6 4-4 0-8-2-10-4v-20c2-2 6-4 10-4 2 0 4 0 6 4 2 2 4 6 4 10zM620 500.667c0-6-2-12-4-14-2-4-6-6-10-6-6 0-10 2-12 4v-18h-6v54h6v-6c2 4 6 6 12 6 4 0 8-2 10-6 2-2 4-8 4-14zM648 514.667c-2 0-2 0-4 0-4 0-8-2-8-6v-28h-8v40h6l2-6c2 4 4 6 8 6 2 0 2 0 4 0v-6zM668 514.667c-2 0-6 0-6-2-2-2-4-6-4-8h20c-2 4-2 6-4 8s-4 2-6 2zM668 480.667c-4 0-8 2-12 6-4 2-6 8-6 12v2c0 4 2 8 4 10 0 4 2 6 6 8 2 2 4 2 8 2s8-2 12-4c2-4 4-10 4-16v-2h-26c0-4 0-6 2-10 2-2 6-2 8-2 4 0 6 0 6 0 2 2 4 2 6 4l4-2c-4-6-8-8-16-8zM714 490.667c0 2 0 4-2 6-2 0-4 0-8 2-2 0-6 2-8 2-2 2-2 2-4 4 0 2 0 2 0 4 0 4 0 6 4 8 2 2 6 4 10 4s8-2 10-4c2-2 4-4 4-8h-6c0 2-2 4-2 4-2 2-4 2-6 2-4 0-4 0-6-2-2 0-2-2-2-4 0 0 0-2 2-2 0-2 4-2 6-4 4 0 6 0 8-2 2 0 4-2 4-4 2 0 2-2 2-4 0-4 0-6-4-8-2-4-6-4-10-4s-6 0-8 2c-4 0-4 2-6 4s-2 4-2 6h6c0-2 2-4 2-4 2-2 4-2 8-2 2 0 4 0 6 0 2 2 2 4 2 4zM744 514.667c-2 0-4 0-6-2s-4-6-4-8h20c0 4-2 6-4 8 0 2-4 2-6 2zM746 480.667c-6 0-10 2-14 6-4 2-4 8-4 12v2c0 4 0 8 2 10 2 4 4 6 6 8s6 2 8 2 10-2 12-4c2-4 4-10 4-16v-2h-26c0-4 2-6 4-10 2-2 4-2 8-2 2 0 4 0 6 0 0 2 2 2 4 4l4-2c-4-6-8-8-14-8zM774 520.667v-6c4 4 8 6 12 6 8 0 12-4 12-14v-26h-6v26c0 2-2 6-2 6-2 2-4 2-6 2s-4 0-6-2c-2 0-2-2-4-4v-28h-6v40zM818 528.667v-8h6v-6h-6v-24c0-2 0-2 0-4 0 0 2 0 4 0 0 0 2 0 2 0v-6c-2 0-2 0-4 0-4 0-6 0-8 2 0 2-2 4-2 8v24h-6v6h6v8zM848 514.667c-4 0-6 0-8-2s-2-6-2-8h18c0 4 0 6-2 8s-4 2-6 2zM848 480.667c-6 0-10 2-12 6-4 2-6 8-6 12v2c0 4 2 8 2 10 2 4 4 6 6 8 4 2 6 2 10 2s8-2 10-4c4-4 6-10 6-16v-2h-28c2-4 2-6 4-10 2-2 6-2 8-2s4 0 6 0c2 2 4 2 4 4l4-2c-2-6-8-8-14-8zM876 500.667c0-4 0-8 2-10 2-4 4-4 8-4s8 2 10 6v16c-2 4-6 6-10 6s-6 0-8-4c-2-2-2-6-2-10zM870 500.667c0 6 0 10 4 14 2 4 6 6 10 6s8-2 12-4v20h6v-56h-6v4c-4-2-6-4-12-4-4 0-8 2-10 6-4 4-4 8-4 14zM956 500.667c0 4 0 8-2 10-2 4-4 4-8 4s-8-2-10-6v-16c2-4 6-6 10-6s6 0 8 4c2 2 2 6 2 10zM962 500.667c0-6 0-12-4-14-2-4-6-6-10-6-6 0-8 2-12 6v-6h-6v56h6v-20c4 2 8 4 12 4s8-2 10-6c4-2 4-8 4-14zM984 490.667l8 30h8l-16-46c-2-6-6-8-12-8v0h-4v4h2c2 0 4 2 6 2 2 2 2 2 2 6l2 4-14 38h8zM354 402.667c-4 0-6 0-8 0-2-2-4-4-4-4-2-2-4-4-4-6-2-4-2-6-2-8h34c0 2 0 4-2 6 0 4-2 6-2 6-2 2-4 4-6 6-2 0-4 0-6 0zM354 348.667c-4 0-6 0-10 2s-6 4-8 6c-2 2-4 6-6 8 0 4-2 8-2 12v2c0 6 2 10 2 12 2 4 4 8 6 10s4 4 8 6c2 2 6 2 10 2 2 0 6 0 10-2 2-2 4-4 6-6s4-4 4-8c2-4 2-6 2-10v-4h-42v-2c0-2 2-6 2-8 2-4 2-6 4-8s4-4 6-4 6-2 8-2 8 0 10 2c2 0 4 2 6 6l4-4c0-2-2-2-2-4-2-2-4-2-4-4-2 0-4 0-6-2-2 0-4 0-8 0zM392 378.667c0-4 0-8 0-10 2-2 2-6 4-8s4-4 6-4 6-2 10-2c2 0 4 0 8 2 2 0 4 2 6 4s2 6 4 8c0 2 0 6 0 10v0c0 4 0 6 0 10-2 2-2 6-4 8s-4 4-6 4-6 2-10 2c-2 0-4 0-8-2-2 0-4-2-6-4s-2-6-4-8c0-4 0-6 0-10zM386 378.667c0 6 0 8 0 12 2 4 4 8 6 10s6 4 8 6c4 2 8 2 10 2 4 0 8 0 12-2 2-2 6-4 8-6s4-6 6-10c0-4 0-6 0-12v0c0-6 0-10 0-12-2-4-4-8-6-10s-6-4-8-6c-4-2-8-2-10-2-4 0-8 0-12 2-2 2-6 4-8 6s-4 6-6 10c0 2 0 6 0 12zM484 364.667c0 0 0 2 0 4 0 0 0 2-2 2-2 2-2 2-4 4-2 0-6 2-8 2-4 0-6 2-10 2-2 2-4 2-6 4-2 0-2 2-4 4 0 2 0 4 0 6s0 4 0 6c2 2 2 4 4 6 2 0 4 2 6 2 4 2 6 2 10 2 2 0 6 0 8-2 4 0 6-2 8-2 2-2 2-4 4-6 0-2 0-4 0-8h-6c0 2 0 4 0 6-2 0-2 2-4 2 0 2-2 2-4 4-2 0-4 0-6 0-4 0-6 0-6 0-2 0-4-2-6-2 0-2-2-2-2-4s0-2 0-4c0 0 0-2 0-4 0 0 2-2 2-2 2 0 4-2 6-2 2-2 4-2 6-2 4-2 8-2 10-4 2 0 4-2 6-4 2 0 4-2 4-4s2-4 2-6c0-2-2-4-2-6-2-2-2-4-4-6-2 0-4-2-8-2-2-2-4-2-8-2s-8 0-10 2c-2 0-6 2-8 4 0 0-2 2-4 4 0 2 0 4 0 8h6c0-4 0-4 2-6 0-2 2-4 4-4 0-2 2-2 4-2s4 0 6 0c2 0 4 0 6 0s4 2 4 2 4 2 4 4c0 2 0 2 0 4zM520 414.667v-52h8c6 0 12 2 14 6 4 4 6 10 6 18v4c0 8-2 14-6 18-2 4-8 6-14 6zM504 350.667v78h24c6 0 10-2 14-4 6-2 8-4 12-8 4-2 6-6 8-12 0-4 2-8 2-14v-4c0-6-2-10-2-14-2-6-4-10-8-12-4-4-8-6-12-8s-8-2-14-2h-24zM594 378.667h20l-10 30zM618 366.667h-28l-6-16h-16l28 78h16l28-78h-16zM708 374.667c0-2 0-6-2-10s-4-6-6-8c-4-2-6-4-10-6s-8-2-14-2c-4 0-8 0-12 2s-8 4-10 8c-4 4-6 8-8 12 0 4-2 10-2 16v4c0 6 2 12 4 16 0 4 2 8 6 12 2 4 6 6 10 8s8 2 14 2c4 0 8 0 12-2s6-4 10-6c2-2 4-6 6-8 2-4 2-8 2-12h-16c0 2 0 4 0 6-2 2-2 4-4 6 0 0-2 2-4 2s-4 0-6 0c-6 0-10-2-12-6-4-2-4-10-4-18v-4c0-4 0-8 0-12 0-2 2-4 2-6 2-2 4-4 6-6 2 0 4 0 6 0 4 0 6 0 8 0s2 2 4 2 2 4 2 4c2 2 2 4 2 6h16z" />
<glyph unicode="&#x72;" glyph-name="topmenu-2" data-tags="topmenu-2" d="M1002-85.333h-980c-12 0-22 10-22 22 0 4 0 94 44 182 32 62 140 102 288 156 16 6 34 14 52 20v102c-18 16-58 58-64 126-10 8-16 22-22 40-6 32-2 68 20 88-2 2-2 6-2 8-16 48-42 136-6 186 14 18 34 28 60 32 24 46 106 62 172 62 84 0 190-26 204-100 12-60-18-136-34-178-2-4-4-8-4-10 20-22 24-58 18-88-6-18-12-32-22-40-6-68-46-110-64-126v-102c18-6 36-14 52-20 148-54 256-94 288-156 44-88 44-178 44-182 0-12-10-22-22-22zM44-43.333h936c-2 30-12 88-40 142-22 48-134 90-262 136-22 8-44 16-66 26-10 2-14 10-14 20v128c0 6 2 12 8 16 2 2 56 38 56 112 0 8 6 18 16 20 4 6 10 26 8 46-2 10-6 18-12 20-8 4-12 12-12 20s2 14 10 34c14 36 42 106 32 154-8 42-88 66-162 66-80 0-132-24-138-46-2-10-10-16-20-16-18 0-32-6-38-16-26-32 0-114 10-148 4-16 6-22 6-28 0-8-4-16-12-20-6-2-10-10-12-20-2-20 4-40 8-46 10-2 16-12 16-20 0-74 54-110 56-112 6-4 8-10 8-16v-128c0-10-4-18-14-20-22-10-44-18-66-26-128-46-240-88-262-136-28-54-38-112-40-142z" />
<glyph unicode="&#x73;" glyph-name="ui-5" data-tags="ui-5" d="M1002 340.667h-980c-12 0-22 10-22 22s10 22 22 22h980c12 0 22-10 22-22s-10-22-22-22z" />
<glyph unicode="&#x74;" glyph-name="plus" data-tags="plus" d="M1024 426.667h-470v470c0 12-8 20-20 20s-22-8-22-20v-470h-470c-12 0-20-10-20-22s8-20 20-20h470v-470c0-12 10-22 22-22s20 10 20 22v470h470c12 0 22 8 22 20s-10 22-22 22z" />
<glyph unicode="&#x75;" glyph-name="topmenu-3" data-tags="topmenu-3" d="M476-65.333c106 0 188 86 188 188 0 210-310 214-310 410 0 136 156 248 248 248 52 0 70-26 70-70 0-82-114-188-182-188-20 0-32 12-32-10 0-26 26-72 70-72 78 0 240 132 240 272 0 98-60 162-158 162-172 0-354-176-354-342 0-258 308-264 308-414 0-54-36-88-88-88-48 0-70 26-74 30-4 8-8 12-14 12-18 0-48-44-48-74 0-8 28-64 136-64z" />
<glyph unicode="&#x76;" glyph-name="topmenu-6" data-tags="topmenu-6" d="M692-53.333c-40 0-74 28-80 68-2 18-22 32-42 30-24-2-50-2-72 0s-40-12-44-30c-6-40-40-68-80-68-10 0-20 2-32 6-36 16-72 38-104 62-20 16-32 38-34 64 0 24 12 46 30 62 16 14 18 36 6 52-14 20-28 42-38 64-8 18-28 28-46 22-50-20-102 16-110 66-2 20-4 40-4 60 0 22 2 42 4 62 6 40 40 72 80 72 10 0 20-2 28-6 20-8 40 4 48 22 10 22 24 44 38 62 12 18 10 40-6 52-18 16-30 40-30 64 2 26 14 48 34 64 32 24 68 44 104 60 12 4 22 6 32 6 40 0 74-28 80-66 4-20 22-32 44-30s48 2 72 0c20-2 40 10 42 30 6 38 40 66 80 66 10 0 22-2 32-6 38-16 74-36 106-60 20-16 32-38 32-64 0-24-10-48-30-64-14-12-16-34-4-52 14-18 26-40 36-62 8-18 30-30 48-22 50 18 102-16 108-66 2-20 4-40 4-62 0-20-2-40-4-60-6-50-60-84-108-66-20 6-40-4-48-22-10-22-22-44-36-64-12-16-10-38 4-52 20-16 30-38 30-62 0-26-12-48-32-64-34-24-68-46-106-62-10-4-22-6-32-6zM574 86.667c40 0 74-28 80-66 4-18 20-30 38-30 6 0 10 0 16 2 34 14 66 34 96 56 10 8 14 18 16 30 0 12-6 22-14 30-34 26-38 74-14 110 14 16 24 36 32 56 18 38 64 58 102 44 26-10 48 6 52 30 2 18 4 38 4 56 0 20-2 38-4 56-4 24-28 40-50 32-42-16-86 6-104 44-8 20-18 38-32 56-24 36-20 82 14 110 8 8 14 18 14 30-2 12-6 22-16 30-30 22-62 40-96 56-24 8-50-6-54-28-6-42-44-72-88-66-22 2-44 2-64 0-46-6-84 24-90 66-4 22-30 36-52 28-34-16-68-34-98-56-8-8-14-18-14-30s4-22 14-30c32-28 38-74 12-110-12-18-24-36-32-56-18-38-64-58-102-44-24 10-48-8-50-32-4-18-4-36-4-56 0-18 0-36 2-56 4-24 28-40 52-30 40 14 84-6 102-44 8-20 20-38 32-56 26-36 20-84-12-110-10-8-14-18-14-30s6-22 14-30c30-22 64-42 98-56 22-10 48 6 52 28 6 42 46 72 90 66 20-2 42-2 64 0 2 0 6 0 8 0zM534 170.667c-130 0-236 106-236 234 0 130 106 236 236 236 128 0 234-106 234-236 0-128-106-234-234-234zM534 596.667c-106 0-192-86-192-192s86-192 192-192c106 0 192 86 192 192s-86 192-192 192z" />
<glyph unicode="&#x77;" glyph-name="top-signet-explorer" data-tags="top-signet-explorer" d="M290 438.667c-2 0-4-2-6-2s-4-2-4-4c-2 0-2-2-4-4 0-2-2-4-2-6h28c0 2 0 4 0 6-2 2-2 4-4 4 0 2-2 4-4 4 0 0-2 2-4 2zM290 394.667c-2 0-6 0-8 2-2 0-4 2-6 4s-4 4-6 8c0 2 0 6 0 8v2c0 4 0 6 2 10 0 2 2 6 4 8s4 2 6 4c2 2 4 2 8 2 2 0 4 0 6-2 4-2 6-2 6-4 2-2 4-4 4-8 0-2 2-4 2-8v-2h-34v-2c0-2 0-4 2-6 0-2 2-4 2-6 2-2 4-4 6-4 2-2 4-2 6-2 4 0 6 0 8 2 2 0 4 2 6 4l2-2c0-2-2-2-2-4-2 0-2-2-4-2s-2-2-4-2c-2 0-4 0-6 0zM320 416.667c0-2 0-4 0-6 2-2 2-4 4-6 0-2 2-4 4-4 2-2 4-2 8-2 2 0 4 0 6 2 2 0 4 2 4 4 2 2 2 4 4 6 0 2 0 4 0 6v2c0 2 0 6 0 8-2 2-2 4-4 6 0 2-2 2-4 4-2 0-4 2-8 2-2 0-4-2-6-2-2-2-4-2-4-4-2-2-2-4-4-6 0-2 0-6 0-8zM314 418.667c0 4 0 6 2 10 0 2 2 4 4 6 2 4 4 4 6 6 4 0 6 2 8 2 4 0 6-2 10-2 2-2 4-2 6-6 2-2 4-4 4-6 2-4 2-6 2-10v-2c0-2 0-6-2-8 0-4-2-6-4-8s-4-4-6-4c-2-2-6-2-8-2-4 0-6 0-10 2-2 0-4 2-6 4s-4 4-4 8c-2 2-2 6-2 8zM394 406.667c0 2 0 2 0 4-2 0-2 2-2 2-2 0-2 2-4 2s-4 2-6 2c-4 0-6 2-8 2s-4 2-4 2-2 2-4 4c0 2 0 4 0 6 0 0 0 2 0 4 2 2 2 2 4 4s2 2 4 2c2 2 6 2 8 2s4 0 6-2c2 0 4-2 6-2 2-2 2-4 4-4 0-2 0-4 0-6h-4c0 2 0 2-2 4 0 0 0 2-2 2 0 2-2 2-4 2 0 0-2 2-4 2s-4-2-6-2c0 0-2 0-4-2 0 0 0 0 0-2-2 0-2-2-2-2 0-2 0-2 0-4 2 0 2-2 2-2 2 0 2-2 4-2s4-2 6-2c4 0 6-2 8-2s4-2 4-2 4-4 4-4c0-2 0-4 0-6s0-2 0-4c-2-2-2-4-4-4-2-2-4-2-6-4-2 0-4 0-6 0-4 0-6 0-8 0-2 2-4 2-6 4s-2 2-4 4c0 2 0 4 0 6h4c0-2 2-4 2-4 2-2 2-4 4-4 0 0 2-2 4-2 0 0 2 0 4 0s4 0 4 0c2 2 4 2 4 2 2 2 2 2 2 4 2 0 2 2 2 2zM422 446.667v-42h6c6 0 8 2 12 6 2 4 4 8 4 14v4c0 6-2 10-4 14-2 2-6 4-12 4h-6zM410 394.667v62h18c4 0 8 0 12-2 4 0 6-2 8-6 4-2 6-6 6-8 2-4 2-8 2-12v-4c0-4 0-8-2-12 0-4-2-6-6-10-2-2-4-4-8-6-4 0-8-2-12-2h-18zM480 418.667h16l-8 22zM500 408.667h-22l-4-14h-14l22 62h12l24-62h-14zM572 416.667c0-4-2-6-2-10-2-2-4-4-6-6s-4-4-8-4c-2-2-6-2-10-2s-8 0-10 2c-4 2-6 4-8 6s-4 6-6 10c0 2-2 6-2 12v4c0 4 2 8 2 12 2 4 4 6 6 10 2 2 4 4 8 6 4 0 6 2 10 2s8-2 10-2c4-2 6-2 8-4s4-4 6-8c0-2 2-6 2-8h-14c0 2 0 4 0 4 0 2-2 4-2 4-2 2-2 2-4 2s-4 2-6 2c-4 0-8-2-10-6-2-2-2-8-2-14v-4c0-4 0-6 0-8 0-4 2-6 2-6 2-2 2-4 4-4 2-2 4-2 6-2s4 0 6 0c0 2 2 2 4 2 0 2 0 4 2 4 0 2 0 4 0 6zM638 426.667h-32v-30h36v-2h-38v62h38v-2h-36v-26h32zM672 428.667l20 28h2l-22-30 24-32h-4l-20 30-22-30h-2l22 32-22 30h4zM708 424.667h18c2 0 6 0 8 0 2 2 4 2 4 4 2 2 4 2 4 4s2 4 2 6c0 2-2 4-2 6s-2 4-4 6c0 2-2 2-4 4-2 0-6 0-8 0h-18zM708 420.667v-26h-2v62h20c2 0 6 0 8 0 2-2 4-2 6-4s4-4 4-6c0-2 2-4 2-8 0-2-2-4-2-6 0-4-2-4-4-6s-4-4-6-4c-2 0-6-2-8-2zM760 396.667h32v-2h-34v62h2zM842 430.667c0 4 0 8-2 10 0 4-2 6-4 8s-4 4-6 6c-2 0-6 2-10 2-2 0-6-2-8-2-2-2-4-4-6-6s-4-4-4-8c-2-2-2-6-2-10v-8c0-4 0-8 2-12 0-2 2-4 4-6 2-4 4-4 6-6s6-2 10-2c2 0 6 0 8 2s4 2 6 6c2 2 4 4 4 6 2 4 2 8 2 12v8zM844 422.667c0-6 0-8-2-12 0-4-2-6-4-8-2-4-4-4-8-6-2-2-6-2-8-2-4 0-8 0-10 2-4 2-6 2-8 6-2 2-4 4-4 8-2 4-2 6-2 12v8c0 4 0 8 2 12 0 2 2 6 4 8s4 4 8 6c2 0 6 2 8 2 4 0 8-2 10-2 4-2 6-4 8-6s4-6 4-8c2-4 2-8 2-12v-8zM860 424.667h20c2 0 6 0 8 0 2 2 2 2 4 4s2 4 4 6c0 0 0 2 0 4 0 4 0 6-2 8 0 2-2 2-2 4-2 2-4 2-6 4-2 0-6 0-8 0h-18zM882 422.667h-22v-28h-2v62h20c4 0 6 0 8 0 2-2 4-2 6-4s4-4 4-6c2-2 2-4 2-8 0-2 0-4 0-6-2-2-2-4-4-4 0-2-2-4-4-4-2-2-4-2-6-2l18-26v-2h-4zM948 426.667h-30v-30h36v-2h-38v62h38v-2h-36v-26h30zM968 424.667h18c4 0 6 0 8 0 2 2 4 2 4 4 2 2 4 4 4 6 0 0 0 2 0 4 0 4 0 6 0 8-2 2-2 2-4 4s-4 2-6 4c-2 0-4 0-8 0h-16zM988 422.667h-20v-28h-4v62h20c4 0 6 0 8 0 4-2 6-2 8-4s2-4 4-6c0-2 2-4 2-8 0-2-2-4-2-6s-2-4-2-4-4-4-6-4c-2-2-2-2-4-2l16-26v-2h-2zM72 504.667l2-44 22-14 4 24zM104 470.667l6-24 20 12 4 44zM134 456.667l-14-20 24-6 34 28zM144 426.667l-24-4 14-22 44-4zM130 396.667l-20 16-6-26 28-34zM96 410.667l-22-12-4-44 30 32zM60 426.667l-32-28 44 2 14 20zM72 456.667l-44 4 32-30 26 6zM26 458.667l-24-4 14-20 44-4zM70 504.667l-20 14-6-26 30-32zM128 528.667l-20-14-4-44 28 34zM168 486.667l-34-28 44 2 14 20zM188 424.667l-42 4 32-30 24 4zM132 398.667l2-44 20-16 6 26zM72 352.667l4-24 22 14 4 44zM28 396.667l-14-20 24-6 34 28zM38 370.667l32-16 4 44zM16 432.667l10-34 34 30zM44 492.667l-16-30 44-4zM74 504.667l28-34 4 44zM136 502.667l-4-44 34 28zM178 458.667l-34-30 44-4zM132 398.667l28-34 16 30zM102 386.667l-4-44 34 10z" />
<glyph unicode="&#x78;" glyph-name="top-signet-toolkit" data-tags="top-signet-toolkit" d="M302 434.667c-2 0-4 0-4-2-2 0-4-2-6-2 0-2-2-4-2-6-2-2-2-4-2-6h28c0 2 0 4 0 6-2 2-2 4-4 6 0 0-2 2-4 2-2 2-4 2-6 2zM304 388.667c-4 0-6 2-10 2-2 2-4 4-6 6s-4 4-4 6-2 6-2 10v2c0 4 0 8 2 10 0 4 2 6 4 8s4 4 6 4 6 2 8 2 6 0 8-2c4 0 6-2 6-4 2-2 4-4 4-6 2-4 2-6 2-10v-2h-34v-2c0-2 0-4 0-8 2-2 2-4 4-6s4-2 6-4c2 0 4 0 6 0s6 0 8 0c2 2 4 4 6 6l2-2c0-2-2-4-2-4-2-2-2-2-4-2-2-2-2-2-4-2-2-2-4-2-6-2zM334 412.667c0-2 0-4 2-6 0-4 2-6 2-6 2-2 4-4 6-6 2 0 4 0 6 0 4 0 6 0 8 0 2 2 4 4 4 6 2 0 2 2 4 6 0 2 0 4 0 6v2c0 2 0 6 0 8-2 2-2 4-4 6 0 2-2 4-4 4-2 2-4 2-8 2-2 0-4 0-6-2-2 0-4-2-6-4 0-2-2-4-2-6-2-2-2-6-2-8zM330 414.667c0 4 0 8 0 10 2 2 4 6 4 8 2 2 6 4 8 4 2 2 6 2 8 2 4 0 6 0 10-2 2 0 4-2 6-4s4-6 4-8c2-2 2-6 2-10v-2c0-2 0-6-2-8 0-4-2-6-4-8s-4-4-6-6c-4 0-6-2-10-2-2 0-6 2-8 2-2 2-6 4-8 6 0 2-2 4-4 8 0 2 0 6 0 8zM412 402.667c0 0 0 2 0 2-2 2-2 2-2 4-2 0-2 2-4 2s-4 2-8 2c-2 0-4 2-6 2s-4 2-6 2c0 2-2 2-2 4-2 2-2 4-2 6s0 2 2 4c0 2 2 4 2 4 2 2 4 2 6 4 2 0 4 0 8 0 2 0 4 0 6 0 2-2 4-2 6-4 2 0 2-2 4-4 0-2 0-4 0-6h-4c0 2 0 2-2 4 0 0 0 2-2 2 0 2-2 2-4 4-2 0-2 0-4 0s-4 0-6 0c-2-2-2-2-4-2 0-2-2-2-2-4 0 0 0-2 0-2 0-2 0-2 0-4 0 0 0-2 2-2 0 0 2-2 4-2s4-2 6-2c4 0 6-2 8-2s4-2 6-2c0-2 2-4 2-4 0-2 2-4 2-6s-2-4-2-6c0-2-2-2-4-4-2 0-4-2-6-2-2-2-4-2-6-2-4 0-6 2-8 2-4 0-6 2-6 4-2 0-4 2-4 4-2 2-2 4-2 6h6c0-2 0-4 2-6 0 0 2-2 2-2 2-2 4-2 4-2 2 0 4 0 6 0s4 0 4 0 4 0 4 2c2 0 2 2 4 2 0 2 0 2 0 4zM442 444.667v-44h6c4 0 8 2 12 6 2 2 4 8 4 14v4c0 6-2 10-4 14s-6 6-12 6zM428 390.667v64h20c4 0 8 0 12-2s6-4 10-6c2-4 4-6 6-10 0-4 2-8 2-12v-4c0-4-2-8-2-12-2-4-4-8-6-10-4-2-6-4-10-6s-8-2-12-2h-20zM502 414.667h18l-10 24zM522 402.667h-22l-6-12h-14l24 64h14l24-64h-14zM598 412.667c0-4-2-8-2-10-2-2-4-6-6-8s-4-2-8-4c-4 0-6-2-10-2s-8 2-12 2c-4 2-6 4-8 8-2 2-4 4-6 8 0 4-2 8-2 14v4c0 4 2 10 2 12 2 4 4 8 6 10 2 4 4 6 8 6 4 2 8 4 12 4s6-2 10-2c4-2 6-4 8-6s4-4 6-6c0-4 2-6 2-10h-14c0 2 0 4 0 6-2 0-2 2-4 4 0 0-2 0-4 2 0 0-2 0-4 0-6 0-8-2-10-4-2-4-4-10-4-16v-4c0-4 0-6 0-10 2-2 2-4 4-6 0-2 2-2 4-4 0 0 2 0 6 0 2 0 4 0 4 0 2 0 4 2 4 2 2 2 2 2 2 4 2 2 2 4 2 6zM674 452.667h-22v-62h-4v62h-22v2h48zM728 426.667c0 4 0 8-2 12 0 2-2 6-4 8s-4 4-6 4-6 2-10 2c-4 0-6 0-8-2-4 0-6-2-8-4s-4-6-4-8c-2-4-2-8-2-12v-8c0-4 0-8 2-12 0-2 2-6 4-8s4-4 8-6c2 0 4 0 8 0s8 0 10 0c2 2 4 4 6 6s4 6 4 8c2 4 2 8 2 12zM730 418.667c0-6 0-10 0-12-2-4-4-6-6-10-2-2-4-4-8-6-2 0-6-2-10-2s-6 2-10 2c-2 2-6 4-8 6-2 4-4 6-4 10-2 2-2 6-2 12v8c0 4 0 8 2 12 0 4 2 6 4 10 2 2 6 4 8 6 4 0 6 2 10 2s8-2 10-2c4-2 6-4 8-6 2-4 4-6 6-10 0-4 0-8 0-12v-8zM788 426.667c0 4 0 8 0 12-2 2-2 6-4 8s-4 4-8 4c-2 2-6 2-10 2-2 0-6 0-8-2-4 0-6-2-8-4s-2-6-4-8c0-4 0-8 0-12v-8c0-4 0-8 0-12 2-2 2-6 4-8s6-4 8-6c2 0 6 0 10 0 2 0 6 0 8 0 4 2 6 4 8 6s2 6 4 8c0 4 2 8 2 12v8zM792 418.667c0-6-2-10-2-12-2-4-4-6-6-10-2-2-4-4-6-6-4 0-8-2-10-2-4 0-8 2-12 2-2 2-4 4-6 6-2 4-4 6-6 10 0 2-2 6-2 12v8c0 4 2 8 2 12 2 4 4 6 6 10 2 2 4 4 6 6 4 0 8 2 10 2 4 0 8-2 12-2 2-2 4-4 6-6 2-4 4-6 6-10 0-4 2-8 2-12v-8zM808 392.667h34v-2h-36v64h2zM866 424.667l-10-10v-24h-2v64h2v-38l10 12 28 26h2l-28-28 30-36h-2zM912 454.667h4v-64h-4zM976 452.667h-24v-62h-2v62h-24v2h50zM76 504.667l2-46 22-16 4 26zM110 468.667l4-26 22 14 4 46zM140 454.667l-16-22 26-6 36 30zM150 422.667l-26-4 16-22 44-4zM136 392.667l-22 14-4-26 28-34zM100 406.667l-22-14-4-46 30 34zM64 422.667l-36-30 46 4 16 20zM74 454.667l-46 4 36-32 26 6zM28 456.667l-26-4 14-22 46-4zM74 502.667l-22 16-6-26 30-36zM134 530.667l-22-16-4-46 30 36zM174 484.667l-34-28 46 2 14 22zM198 420.667l-46 4 34-32 26 6zM138 392.667l2-46 22-14 6 24zM76 346.667l4-26 22 14 4 46zM28 392.667l-14-22 26-6 34 30zM40 364.667l32-18 4 48zM16 428.667l12-34 36 30zM46 490.667l-16-30 46-4zM76 504.667l30-36 4 46zM142 502.667l-4-46 36 30zM186 454.667l-36-30 48-4zM138 394.667l30-36 16 32zM108 380.667l-4-46 34 10z" />
<glyph unicode="&#x79;" glyph-name="ui-6" data-tags="ui-6" d="M342-57.333c-6 0-12 2-16 6l-298 298c-8 10-8 22 0 32l148 148c10 8 22 8 32 0l134-134 518 518c8 8 22 8 30 0l150-148c8-10 8-22 0-32l-684-682c-4-4-10-6-14-6zM72 262.667l270-268 652 652-120 120-518-520c-8-8-22-8-30 0l-134 136z" />
<glyph unicode="&#x7a;" glyph-name="menu-6" data-tags="menu-6" d="M1024 128.667h-42v-68c0-60-30-104-88-104h-726c-58 0-126 44-126 104v426c0 58 68 110 126 110h256c-8 0-16 4-20 12-4 12 2 24 12 28l4 4h-252c-8 0-16-4-22-4-52-32-84-88-84-148 0-12-20-22-32-22s-30 8-30 20v-426c0-82 86-146 168-146h726c82 0 130 64 130 146v84c0-12 0-16 0-16zM896 634.667v-20c0-12-10-22-22-22 60 0 108-48 108-106v-60h42c0 0 0-14 0-26v86c0 76-42 136-128 148zM854 614.667v26h-312l-110-42c-2 0-6-2-8-2h470c-12 0-40 6-40 18zM786 272.667c0-34 30-64 64-64 36 0 64 30 64 64 0 36-28 64-64 64-34 0-64-28-64-64zM872 272.667c0-10-10-20-22-20s-20 10-20 20c0 12 8 22 20 22s22-10 22-22zM702 276.667c0-82 66-148 148-148h132v42h-132c-58 0-106 48-106 106 0 60 48 108 106 108h132v42h-132c-82 0-148-66-148-150zM1024 426.667h-42v-298h42c0 0 0 4 0 16v256c0 12 0 26 0 26zM146 634.667c6 4 12 6 20 10l546 228c38 22 70 24 102 4 30-18 40-52 40-90v-146h42c0 0 0-6 0-6v152c0 54-16 100-62 126-44 28-96 26-146 0l-540-228c-80-34-130-112-130-198 0 74 56 136 128 148zM872 636.667v-22c0-12 10-22 22-22s20 10 20 22v20c-6 0-14 2-20 2zM40 464.667c12 0 22 10 22 22 0 62 32 116 84 148-72-12-128-74-128-148 0-12 10-22 22-22zM772 724.667c12 4 18 16 14 26-4 12-18 18-28 14l-338-124h122zM542 640.667h-122l-4-4c-10-4-16-18-12-28s12-14 20-14c2 0 6 2 8 2z" />
</font>
</defs>
</svg>
