<?xml version="1.0" encoding="UTF-8" standalone="no"?><!DOCTYPE svg PUBLIC "-//W3C//DTD SVG 1.1//EN" "http://www.w3.org/Graphics/SVG/1.1/DTD/svg11.dtd"><svg width="100%" height="100%" viewBox="0 0 160 160" version="1.1" xmlns="http://www.w3.org/2000/svg" xmlns:xlink="http://www.w3.org/1999/xlink" xml:space="preserve" xmlns:serif="http://www.serif.com/" style="fill-rule:evenodd;clip-rule:evenodd;stroke-linecap:round;stroke-linejoin:round;"><path d="M159.999,80c0,44.184 -35.816,80 -79.999,80c-44.183,0 -80,-35.816 -80,-80c0,-44.182 35.817,-80 80,-80c44.183,0 79.999,35.818 79.999,80" style="fill:#e3d7ef;fill-rule:nonzero;"/><g id="Ebene-1" serif:id="Ebene 1"></g><g><g><path d="M117.436,60.694l-4.295,-12.935c-0.96,-3.241 0.208,-6.739 2.92,-8.759c17.852,35.705 17.743,24.152 7.3,55.475l7.299,11.679" style="fill:none;stroke:#7c41ba;stroke-width:2.5px;"/><path d="M118.97,79.877l0,-16.058c0.211,-1.168 -0.297,-2.351 -1.284,-3.002c-0.993,-0.654 -2.278,-0.654 -3.27,0c-0.987,0.651 -1.495,1.834 -1.285,3.002l0,8.759c-3.571,3.463 -5.661,8.169 -5.839,13.139l0,8.759l5.839,11.679" style="fill:none;stroke:#7c41ba;stroke-width:2.5px;"/><path d="M108.892,110.607l-1.6,-3.657l20.249,-8.865l1.601,3.657" style="fill:#fff;fill-rule:nonzero;stroke:#7c41ba;stroke-width:2px;"/><path d="M110.606,119.543l-3.314,-7.571l23.368,-10.23l3.314,7.571" style="fill:#b999db;fill-rule:nonzero;stroke:#7c41ba;stroke-width:2.05px;"/></g><path d="M35.974,68.124l8,-3l6,-10l6,-3l14,17l3,8l1,7l0.552,2.891l-17.697,0.069l-15.855,-1.96l-7.513,-1.232l-0.487,-15.768l3,0Z" style="fill:#fff;"/><path d="M55.579,87.05l-22.105,-3.158" style="fill:none;stroke:#7c41ba;stroke-width:2px;"/><path d="M74.526,87.05l-18.947,0" style="fill:none;stroke:#7c41ba;stroke-width:2px;"/><path d="M60.303,58.629l14.1,0c1.055,-0.001 2.042,0.528 2.628,1.405l1.051,1.579c0.707,1.059 0.707,2.446 0,3.505l-0.821,1.232c-0.707,1.059 -0.707,2.446 0,3.505l0.821,1.231c0.707,1.059 0.707,2.447 0,3.506l-1.134,1.699c-0.539,0.81 -0.675,1.827 -0.366,2.75l0.6,1.806c0.309,0.924 0.173,1.94 -0.366,2.751l-2.302,3.452" style="fill:#fff;fill-rule:nonzero;stroke:#7c41ba;stroke-width:2px;"/><path d="M33.461,68.102l9.717,-2.776c0.851,-0.242 1.562,-0.832 1.958,-1.623l3.657,-7.285c0.306,-0.61 0.801,-1.105 1.411,-1.412l6.625,-3.325" style="fill:none;stroke:#7c41ba;stroke-width:2px;"/><path d="M56.555,45.997c-0.866,0 -1.579,0.713 -1.579,1.579c0,0.246 0.057,0.488 0.167,0.707l5.16,10.346l9.474,0l5.172,-10.346c0.111,-0.219 0.168,-0.462 0.168,-0.707c0,-0.856 -0.695,-1.564 -1.551,-1.579l-17.011,0Z" style="fill:#b999db;fill-rule:nonzero;stroke:#7c41ba;stroke-width:2px;"/><path d="M24,64.944l9.474,0l0,22.106l-9.474,0" style="fill:#b999db;fill-rule:nonzero;stroke:#7c41ba;stroke-width:2px;"/><path d="M72.976,87.084c6.508,1.791 11.024,12.231 11.024,18.913c0,9.158 -8.482,12.632 -18.947,12.632c-10.466,0 -18.948,-3.474 -18.948,-12.632c0,-6.682 4.516,-17.119 11.024,-18.913" style="fill:#b999db;fill-rule:nonzero;stroke:#7c41ba;stroke-width:2px;"/><path d="M65.053,109.155l0,3.158" style="fill:none;stroke:#fff;stroke-width:2px;"/><path d="M65.053,93.365l0,3.158" style="fill:none;stroke:#fff;stroke-width:2px;"/><path d="M58.724,109.155l9.474,0c1.732,0 3.158,-1.426 3.158,-3.158c0,-1.732 -1.426,-3.158 -3.158,-3.158l-6.316,0c-1.732,0 -3.158,-1.425 -3.158,-3.158c0,-1.732 1.426,-3.158 3.158,-3.158l9.474,0" style="fill:none;stroke:#fff;stroke-width:2px;"/></g></svg>