<?xml version="1.0" encoding="UTF-8" standalone="no"?><!DOCTYPE svg PUBLIC "-//W3C//DTD SVG 1.1//EN" "http://www.w3.org/Graphics/SVG/1.1/DTD/svg11.dtd"><svg width="100%" height="100%" viewBox="0 0 3750 875" version="1.1" xmlns="http://www.w3.org/2000/svg" xmlns:xlink="http://www.w3.org/1999/xlink" xml:space="preserve" xmlns:serif="http://www.serif.com/" style="fill-rule:evenodd;clip-rule:evenodd;stroke-linejoin:round;stroke-miterlimit:1.41421;"><rect x="0" y="-0.021" width="3750" height="875.046" style="fill:url(#_Linear1);"/><rect x="0" y="-112.025" width="3750" height="1049.05" style="fill:url(#_Linear2);"/><g><path d="M205.981,176.633l3.137,21.513l4.594,-19.384l32.269,-113.839l18.152,0l31.485,113.839l4.482,19.72l3.473,-21.961l25.323,-111.598l21.625,0l-39.553,163.14l-19.608,0l-33.614,-118.882l-2.577,-12.437l-2.577,12.437l-34.846,118.882l-19.608,0l-39.441,-163.14l21.513,0l25.771,111.71Z" style="fill:#fff;fill-rule:nonzero;"/><g><path d="M442.288,228.063c-1.196,-2.391 -2.167,-6.649 -2.914,-12.774c-9.636,10.01 -21.139,15.014 -34.51,15.014c-11.951,0 -21.756,-3.38 -29.412,-10.14c-7.657,-6.76 -11.485,-15.331 -11.485,-25.714c0,-12.624 4.8,-22.428 14.398,-29.413c9.599,-6.984 23.1,-10.476 40.505,-10.476l20.168,0l0,-9.524c0,-7.245 -2.166,-13.016 -6.498,-17.311c-4.333,-4.295 -10.72,-6.443 -19.16,-6.443c-7.395,0 -13.595,1.868 -18.6,5.603c-5.005,3.735 -7.507,8.254 -7.507,13.557l-20.841,0c0,-6.05 2.148,-11.895 6.443,-17.535c4.295,-5.64 10.121,-10.103 17.479,-13.389c7.358,-3.287 15.444,-4.931 24.258,-4.931c13.969,0 24.912,3.493 32.83,10.477c7.918,6.984 12.026,16.601 12.325,28.852l0,55.799c0,11.13 1.419,19.981 4.258,26.555l0,1.792l-21.737,0Zm-34.399,-15.798c6.499,0 12.662,-1.681 18.488,-5.042c5.826,-3.362 10.047,-7.731 12.661,-13.11l0,-24.874l-16.246,0c-25.398,0 -38.096,7.433 -38.096,22.297c0,6.499 2.166,11.579 6.498,15.239c4.333,3.66 9.898,5.49 16.695,5.49Z" style="fill:#fff;fill-rule:nonzero;"/><rect x="494.053" y="55.959" width="20.729" height="172.103" style="fill:#fff;fill-rule:nonzero;"/><rect x="549.74" y="55.959" width="20.729" height="172.103" style="fill:#fff;fill-rule:nonzero;"/><path d="M653.943,230.303c-16.433,0 -29.804,-5.396 -40.113,-16.19c-10.308,-10.794 -15.462,-25.229 -15.462,-43.306l0,-3.81c0,-12.026 2.297,-22.764 6.891,-32.213c4.594,-9.449 11.018,-16.844 19.272,-22.185c8.254,-5.341 17.199,-8.012 26.835,-8.012c15.761,0 28.012,5.192 36.751,15.575c8.74,10.383 13.11,25.248 13.11,44.594l0,8.628l-82.13,0c0.298,11.952 3.791,21.606 10.476,28.964c6.685,7.358 15.182,11.036 25.491,11.036c7.32,0 13.52,-1.494 18.599,-4.481c5.08,-2.988 9.524,-6.947 13.334,-11.877l12.661,9.86c-10.159,15.612 -25.397,23.417 -45.715,23.417Zm-2.577,-108.684c-8.366,0 -15.388,3.043 -21.065,9.131c-5.677,6.088 -9.188,14.622 -10.532,25.603l60.729,0l0,-1.569c-0.598,-10.532 -3.436,-18.693 -8.515,-24.482c-5.08,-5.789 -11.952,-8.683 -20.617,-8.683Z" style="fill:#fff;fill-rule:nonzero;"/><path d="M753.328,77.472l0,29.356l22.633,0l0,16.023l-22.633,0l0,75.278c0,4.861 1.009,8.507 3.025,10.937c2.017,2.431 5.453,3.646 10.309,3.646c2.39,0 5.677,-0.448 9.86,-1.344l0,16.709c-5.453,1.484 -10.757,2.226 -15.911,2.226c-9.262,0 -16.247,-2.801 -20.953,-8.403c-4.705,-5.602 -7.058,-13.558 -7.058,-23.866l0,-75.183l-22.074,0l0,-16.023l22.074,0l0,-29.356l20.728,0Z" style="fill:#fff;fill-rule:nonzero;"/></g></g><g><g><path d="M183.262,661.507l9.143,-93.312l95.464,0l0,7.126l-88.876,0l-7.932,78.522c1.613,-1.344 3.809,-2.801 6.588,-4.369c2.779,-1.569 5.938,-2.981 9.479,-4.236c3.541,-1.255 7.44,-2.308 11.698,-3.16c4.258,-0.851 8.672,-1.277 13.244,-1.277c8.426,0 16.179,1.367 23.261,4.101c7.081,2.734 13.176,6.723 18.286,11.967c5.109,5.243 9.098,11.63 11.966,19.16c2.869,7.529 4.303,16.045 4.303,25.546c0,9.412 -1.009,18.085 -3.026,26.017c-2.016,7.933 -5.243,14.791 -9.68,20.572c-4.437,5.782 -10.152,10.309 -17.143,13.58c-6.992,3.272 -15.418,4.908 -25.278,4.908c-7.709,0 -14.925,-1.098 -21.648,-3.294c-6.722,-2.196 -12.661,-5.535 -17.815,-10.017c-5.154,-4.482 -9.367,-10.129 -12.639,-16.942c-3.272,-6.812 -5.266,-14.79 -5.983,-23.933l7.395,0c1.434,15.328 6.454,26.981 15.059,34.959c8.605,7.977 20.482,11.966 35.631,11.966c16.134,0 28.123,-4.863 35.967,-14.588c7.843,-9.726 11.765,-24.045 11.765,-42.959c0,-7.619 -1.098,-14.723 -3.295,-21.311c-2.196,-6.588 -5.423,-12.28 -9.68,-17.076c-4.258,-4.796 -9.524,-8.56 -15.799,-11.294c-6.275,-2.734 -13.446,-4.101 -21.513,-4.101c-5.199,0 -9.905,0.358 -14.118,1.075c-4.213,0.717 -8.067,1.748 -11.563,3.093c-3.496,1.344 -6.7,2.98 -9.614,4.907c-2.913,1.928 -5.624,4.101 -8.134,6.522l-5.513,-2.152Z" style="fill:#fff;fill-rule:nonzero;"/><path d="M416.14,703.323l33.883,0l0,7.261l-33.883,0l0,53.379l-7.261,0l0,-53.379l-94.926,0l0,-4.034l93.447,-138.355l8.74,0l0,135.128Zm-90.892,0l83.631,0l0,-126.389l-11.294,18.555l-72.337,107.834Z" style="fill:#fff;fill-rule:nonzero;"/><path d="M498.293,759.391c14.073,0 26.241,-2.129 36.504,-6.386c10.264,-4.258 18.735,-10.376 25.413,-18.354c6.678,-7.977 11.63,-17.636 14.857,-28.975c3.227,-11.339 4.84,-24.09 4.84,-38.253l0,-0.806c-2.42,5.288 -5.535,10.039 -9.344,14.252c-3.81,4.213 -8.112,7.821 -12.908,10.824c-4.796,3.003 -10.039,5.311 -15.731,6.924c-5.692,1.614 -11.676,2.42 -17.95,2.42c-8.605,0 -16.381,-1.77 -23.328,-5.311c-6.947,-3.54 -12.886,-8.336 -17.816,-14.386c-4.93,-6.051 -8.717,-13.043 -11.361,-20.976c-2.645,-7.932 -3.967,-16.336 -3.967,-25.21c0,-9.502 1.367,-18.465 4.101,-26.891c2.734,-8.426 6.633,-15.799 11.698,-22.118c5.064,-6.32 11.137,-11.339 18.219,-15.059c7.081,-3.72 14.924,-5.58 23.529,-5.58c9.771,0 18.511,1.591 26.219,4.773c7.709,3.182 14.208,7.978 19.496,14.387c5.289,6.409 9.345,14.431 12.169,24.067c2.823,9.636 4.235,20.908 4.235,33.816l0,21.916c0,16.314 -1.815,30.791 -5.445,43.43c-3.631,12.639 -9.121,23.328 -16.471,32.067c-7.351,8.74 -16.583,15.373 -27.698,19.9c-11.115,4.527 -24.202,6.79 -39.261,6.79l-4.572,0l0.269,-7.261l4.303,0Zm25.681,-65.614c8.157,0 15.395,-1.322 21.714,-3.967c6.32,-2.644 11.81,-6.028 16.471,-10.151c4.661,-4.123 8.449,-8.717 11.362,-13.782c2.913,-5.064 5.042,-10.017 6.386,-14.857l0,-8.337c0,-11.652 -1.232,-21.849 -3.697,-30.588c-2.465,-8.74 -6.028,-16.023 -10.689,-21.849c-4.661,-5.827 -10.353,-10.197 -17.076,-13.11c-6.723,-2.913 -14.342,-4.37 -22.858,-4.37c-7.798,0 -14.835,1.771 -21.109,5.311c-6.275,3.541 -11.608,8.202 -16.001,13.984c-4.392,5.781 -7.776,12.437 -10.151,19.966c-2.375,7.53 -3.563,15.239 -3.563,23.127c0,7.529 1.098,14.813 3.294,21.849c2.196,7.037 5.401,13.289 9.614,18.757c4.213,5.468 9.367,9.837 15.462,13.109c6.095,3.272 13.042,4.908 20.841,4.908Z" style="fill:#fff;fill-rule:nonzero;"/><path d="M649.018,759.391c14.073,0 26.241,-2.129 36.505,-6.386c10.263,-4.258 18.734,-10.376 25.412,-18.354c6.678,-7.977 11.63,-17.636 14.857,-28.975c3.227,-11.339 4.841,-24.09 4.841,-38.253l0,-0.806c-2.421,5.288 -5.535,10.039 -9.345,14.252c-3.81,4.213 -8.112,7.821 -12.908,10.824c-4.795,3.003 -10.039,5.311 -15.731,6.924c-5.692,1.614 -11.675,2.42 -17.95,2.42c-8.605,0 -16.381,-1.77 -23.328,-5.311c-6.947,-3.54 -12.886,-8.336 -17.816,-14.386c-4.93,-6.051 -8.717,-13.043 -11.361,-20.976c-2.644,-7.932 -3.967,-16.336 -3.967,-25.21c0,-9.502 1.367,-18.465 4.101,-26.891c2.734,-8.426 6.634,-15.799 11.698,-22.118c5.065,-6.32 11.137,-11.339 18.219,-15.059c7.081,-3.72 14.924,-5.58 23.53,-5.58c9.77,0 18.51,1.591 26.219,4.773c7.708,3.182 14.207,7.978 19.496,14.387c5.288,6.409 9.344,14.431 12.168,24.067c2.824,9.636 4.235,20.908 4.235,33.816l0,21.916c0,16.314 -1.815,30.791 -5.445,43.43c-3.63,12.639 -9.121,23.328 -16.471,32.067c-7.35,8.74 -16.583,15.373 -27.698,19.9c-11.115,4.527 -24.202,6.79 -39.261,6.79l-4.572,0l0.269,-7.261l4.303,0Zm25.681,-65.614c8.157,0 15.395,-1.322 21.715,-3.967c6.319,-2.644 11.809,-6.028 16.47,-10.151c4.662,-4.123 8.449,-8.717 11.362,-13.782c2.913,-5.064 5.042,-10.017 6.387,-14.857l0,-8.337c0,-11.652 -1.233,-21.849 -3.698,-30.588c-2.465,-8.74 -6.028,-16.023 -10.689,-21.849c-4.661,-5.827 -10.353,-10.197 -17.076,-13.11c-6.723,-2.913 -14.342,-4.37 -22.858,-4.37c-7.798,0 -14.835,1.771 -21.109,5.311c-6.275,3.541 -11.608,8.202 -16,13.984c-4.393,5.781 -7.776,12.437 -10.152,19.966c-2.375,7.53 -3.563,15.239 -3.563,23.127c0,7.529 1.098,14.813 3.294,21.849c2.196,7.037 5.401,13.289 9.614,18.757c4.213,5.468 9.367,9.837 15.462,13.109c6.096,3.272 13.043,4.908 20.841,4.908Z" style="fill:#fff;fill-rule:nonzero;"/><path d="M774.869,757.374c0,-2.061 0.717,-3.832 2.151,-5.311c1.434,-1.479 3.182,-2.218 5.244,-2.218c2.061,0 3.832,0.739 5.311,2.218c1.479,1.479 2.218,3.25 2.218,5.311c0,2.062 -0.739,3.81 -2.218,5.244c-1.479,1.434 -3.25,2.152 -5.311,2.152c-2.062,0 -3.81,-0.718 -5.244,-2.152c-1.434,-1.434 -2.151,-3.182 -2.151,-5.244Z" style="fill:#fff;fill-rule:nonzero;"/><path d="M858.769,759.391c14.073,0 26.242,-2.129 36.505,-6.386c10.264,-4.258 18.734,-10.376 25.412,-18.354c6.678,-7.977 11.631,-17.636 14.858,-28.975c3.227,-11.339 4.84,-24.09 4.84,-38.253l0,-0.806c-2.42,5.288 -5.535,10.039 -9.345,14.252c-3.809,4.213 -8.112,7.821 -12.907,10.824c-4.796,3.003 -10.04,5.311 -15.732,6.924c-5.692,1.614 -11.675,2.42 -17.95,2.42c-8.605,0 -16.381,-1.77 -23.328,-5.311c-6.947,-3.54 -12.885,-8.336 -17.815,-14.386c-4.93,-6.051 -8.717,-13.043 -11.362,-20.976c-2.644,-7.932 -3.966,-16.336 -3.966,-25.21c0,-9.502 1.367,-18.465 4.101,-26.891c2.734,-8.426 6.633,-15.799 11.697,-22.118c5.065,-6.32 11.138,-11.339 18.219,-15.059c7.082,-3.72 14.925,-5.58 23.53,-5.58c9.771,0 18.51,1.591 26.219,4.773c7.709,3.182 14.208,7.978 19.496,14.387c5.289,6.409 9.345,14.431 12.168,24.067c2.824,9.636 4.236,20.908 4.236,33.816l0,21.916c0,16.314 -1.815,30.791 -5.446,43.43c-3.63,12.639 -9.12,23.328 -16.471,32.067c-7.35,8.74 -16.582,15.373 -27.698,19.9c-11.115,4.527 -24.202,6.79 -39.261,6.79l-4.571,0l0.269,-7.261l4.302,0Zm25.681,-65.614c8.157,0 15.396,-1.322 21.715,-3.967c6.32,-2.644 11.81,-6.028 16.471,-10.151c4.661,-4.123 8.448,-8.717 11.361,-13.782c2.914,-5.064 5.043,-10.017 6.387,-14.857l0,-8.337c0,-11.652 -1.232,-21.849 -3.697,-30.588c-2.465,-8.74 -6.029,-16.023 -10.69,-21.849c-4.661,-5.827 -10.353,-10.197 -17.076,-13.11c-6.722,-2.913 -14.342,-4.37 -22.857,-4.37c-7.799,0 -14.835,1.771 -21.11,5.311c-6.274,3.541 -11.608,8.202 -16,13.984c-4.392,5.781 -7.776,12.437 -10.151,19.966c-2.376,7.53 -3.563,15.239 -3.563,23.127c0,7.529 1.098,14.813 3.294,21.849c2.196,7.037 5.4,13.289 9.613,18.757c4.213,5.468 9.367,9.837 15.463,13.109c6.095,3.272 13.042,4.908 20.84,4.908Z" style="fill:#fff;fill-rule:nonzero;"/><path d="M995.914,661.507l9.144,-93.312l95.463,0l0,7.126l-88.875,0l-7.933,78.522c1.613,-1.344 3.81,-2.801 6.588,-4.369c2.779,-1.569 5.939,-2.981 9.479,-4.236c3.541,-1.255 7.44,-2.308 11.698,-3.16c4.258,-0.851 8.673,-1.277 13.244,-1.277c8.426,0 16.18,1.367 23.261,4.101c7.081,2.734 13.177,6.723 18.286,11.967c5.109,5.243 9.098,11.63 11.967,19.16c2.868,7.529 4.302,16.045 4.302,25.546c0,9.412 -1.008,18.085 -3.025,26.017c-2.017,7.933 -5.244,14.791 -9.681,20.572c-4.437,5.782 -10.151,10.309 -17.143,13.58c-6.992,3.272 -15.418,4.908 -25.278,4.908c-7.709,0 -14.924,-1.098 -21.647,-3.294c-6.723,-2.196 -12.662,-5.535 -17.816,-10.017c-5.154,-4.482 -9.367,-10.129 -12.639,-16.942c-3.271,-6.812 -5.266,-14.79 -5.983,-23.933l7.395,0c1.434,15.328 6.454,26.981 15.059,34.959c8.605,7.977 20.482,11.966 35.631,11.966c16.135,0 28.124,-4.863 35.967,-14.588c7.843,-9.726 11.765,-24.045 11.765,-42.959c0,-7.619 -1.098,-14.723 -3.294,-21.311c-2.196,-6.588 -5.423,-12.28 -9.681,-17.076c-4.258,-4.796 -9.524,-8.56 -15.799,-11.294c-6.274,-2.734 -13.445,-4.101 -21.513,-4.101c-5.198,0 -9.904,0.358 -14.117,1.075c-4.213,0.717 -8.068,1.748 -11.564,3.093c-3.495,1.344 -6.7,2.98 -9.613,4.907c-2.913,1.928 -5.625,4.101 -8.135,6.522l-5.513,-2.152Z" style="fill:#fff;fill-rule:nonzero;"/><path d="M1248.15,617.944c0,5.557 -0.896,10.778 -2.689,15.664c-1.793,4.885 -4.303,9.277 -7.53,13.176c-3.227,3.9 -7.059,7.306 -11.496,10.219c-4.437,2.913 -9.344,5.177 -14.723,6.79c6.096,1.614 11.721,3.944 16.875,6.992c5.154,3.047 9.591,6.7 13.311,10.958c3.72,4.258 6.633,9.009 8.739,14.252c2.107,5.244 3.16,10.914 3.16,17.009c0,8.874 -1.613,16.673 -4.84,23.395c-3.227,6.723 -7.664,12.325 -13.311,16.807c-5.648,4.482 -12.258,7.844 -19.833,10.085c-7.574,2.24 -15.664,3.361 -24.269,3.361c-8.874,0 -17.121,-1.121 -24.74,-3.361c-7.619,-2.241 -14.23,-5.603 -19.832,-10.085c-5.602,-4.482 -9.995,-10.084 -13.177,-16.807c-3.182,-6.722 -4.773,-14.521 -4.773,-23.395c0,-6.095 1.008,-11.765 3.025,-17.009c2.017,-5.243 4.841,-9.994 8.471,-14.252c3.63,-4.258 8,-7.911 13.109,-10.958c5.11,-3.048 10.712,-5.378 16.807,-6.992c-5.378,-1.613 -10.263,-3.877 -14.655,-6.79c-4.392,-2.913 -8.157,-6.319 -11.295,-10.219c-3.137,-3.899 -5.579,-8.291 -7.327,-13.176c-1.748,-4.886 -2.622,-10.107 -2.622,-15.664c0,-8.516 1.434,-16.023 4.302,-22.522c2.869,-6.499 6.835,-11.966 11.9,-16.403c5.064,-4.438 11.047,-7.799 17.95,-10.085c6.902,-2.285 14.342,-3.428 22.319,-3.428c7.888,0 15.306,1.143 22.253,3.428c6.947,2.286 12.997,5.647 18.151,10.085c5.154,4.437 9.233,9.904 12.236,16.403c3.003,6.499 4.504,14.006 4.504,22.522Zm-1.748,95.732c0,-7.081 -1.434,-13.468 -4.302,-19.16c-2.869,-5.692 -6.791,-10.555 -11.765,-14.588c-4.975,-4.034 -10.824,-7.126 -17.547,-9.278c-6.723,-2.151 -13.894,-3.227 -21.513,-3.227c-7.798,0 -15.037,1.076 -21.715,3.227c-6.677,2.152 -12.482,5.244 -17.412,9.278c-4.93,4.033 -8.806,8.896 -11.63,14.588c-2.824,5.692 -4.235,12.079 -4.235,19.16c0,7.44 1.411,13.984 4.235,19.631c2.824,5.647 6.7,10.42 11.63,14.319c4.93,3.9 10.779,6.835 17.547,8.807c6.768,1.972 14.051,2.958 21.849,2.958c7.619,0 14.768,-0.986 21.446,-2.958c6.678,-1.972 12.482,-4.907 17.412,-8.807c4.93,-3.899 8.829,-8.672 11.698,-14.319c2.868,-5.647 4.302,-12.191 4.302,-19.631Zm-5.513,-96.405c0,-6.543 -1.299,-12.527 -3.899,-17.95c-2.599,-5.423 -6.162,-10.106 -10.689,-14.05c-4.527,-3.944 -9.815,-7.014 -15.866,-9.211c-6.05,-2.196 -12.527,-3.294 -19.429,-3.294c-6.991,0 -13.49,1.031 -19.496,3.093c-6.006,2.061 -11.205,4.997 -15.597,8.807c-4.392,3.809 -7.843,8.47 -10.353,13.983c-2.51,5.513 -3.765,11.72 -3.765,18.622c0,6.633 1.255,12.594 3.765,17.883c2.51,5.289 5.961,9.793 10.353,13.513c4.392,3.72 9.614,6.566 15.664,8.538c6.051,1.972 12.617,2.958 19.698,2.958c6.902,0 13.356,-0.986 19.362,-2.958c6.006,-1.972 11.249,-4.818 15.731,-8.538c4.482,-3.72 8.023,-8.224 10.622,-13.513c2.6,-5.289 3.899,-11.25 3.899,-17.883Z" style="fill:#fff;fill-rule:nonzero;"/></g><g><path d="M1465.64,673.474l-84.842,0l0,69.379l98.557,0l0,21.11l-124.372,0l0,-195.768l123.027,0l0,21.109l-97.212,0l0,63.06l84.842,0l0,21.11Z" style="fill:#fff;fill-rule:nonzero;"/><path d="M1662.08,672.398c0,19.183 -3.226,35.922 -9.68,50.22c-6.454,14.297 -15.597,25.21 -27.429,32.74c-11.833,7.529 -25.637,11.294 -41.413,11.294c-15.417,0 -29.087,-3.787 -41.009,-11.362c-11.922,-7.574 -21.177,-18.375 -27.765,-32.403c-6.588,-14.029 -9.972,-30.276 -10.152,-48.741l0,-14.118c0,-18.824 3.272,-35.451 9.816,-49.883c6.543,-14.432 15.798,-25.479 27.765,-33.143c11.967,-7.664 25.659,-11.496 41.076,-11.496c15.687,0 29.513,3.787 41.48,11.361c11.967,7.575 21.177,18.555 27.631,32.942c6.454,14.387 9.68,31.127 9.68,50.219l0,12.37Zm-25.681,-12.639c0,-23.216 -4.661,-41.031 -13.983,-53.446c-9.322,-12.415 -22.365,-18.622 -39.127,-18.622c-16.314,0 -29.154,6.207 -38.521,18.622c-9.368,12.415 -14.186,29.648 -14.454,51.698l0,14.387c0,22.499 4.728,40.18 14.185,53.043c9.456,12.863 22.476,19.295 39.059,19.295c16.673,0 29.58,-6.073 38.724,-18.219c9.143,-12.146 13.848,-29.558 14.117,-52.236l0,-14.522Z" style="fill:#fff;fill-rule:nonzero;"/><path d="M1758.49,676.701c-22.14,-6.364 -38.252,-14.185 -48.336,-23.463c-10.085,-9.277 -15.127,-20.728 -15.127,-34.353c0,-15.418 6.163,-28.169 18.488,-38.253c12.325,-10.084 28.348,-15.126 48.068,-15.126c13.446,0 25.435,2.599 35.967,7.798c10.532,5.199 18.689,12.37 24.471,21.513c5.782,9.143 8.672,19.138 8.672,29.984l-25.95,0c0,-11.874 -3.764,-21.207 -11.294,-27.999c-7.529,-6.791 -18.152,-10.187 -31.866,-10.187c-12.729,0 -22.656,2.807 -29.782,8.42c-7.126,5.612 -10.689,13.402 -10.689,23.369c0,7.993 3.384,14.751 10.151,20.273c6.768,5.523 18.286,10.574 34.555,15.154c16.27,4.58 28.998,9.626 38.186,15.139c9.188,5.512 16,11.944 20.437,19.294c4.437,7.35 6.656,16 6.656,25.95c0,15.866 -6.185,28.572 -18.555,38.118c-12.37,9.547 -28.908,14.32 -49.614,14.32c-13.446,0 -25.995,-2.577 -37.648,-7.731c-11.653,-5.154 -20.639,-12.213 -26.959,-21.177c-6.319,-8.964 -9.479,-19.138 -9.479,-30.522l25.95,0c0,11.833 4.37,21.177 13.11,28.034c8.739,6.858 20.415,10.286 35.026,10.286c13.624,0 24.067,-2.778 31.328,-8.336c7.26,-5.557 10.891,-13.132 10.891,-22.723c0,-9.591 -3.362,-17.009 -10.084,-22.252c-6.723,-5.244 -18.914,-10.421 -36.573,-15.53Z" style="fill:#fff;fill-rule:nonzero;"/></g></g><g><text x="151.863px" y="478.521px" style="font-family:'Roboto-Regular', 'Roboto';font-size:80.317px;fill:#fff;fill-opacity:0.54902;">T</text><g><path d="M249.238,451.814c0,5.595 -0.941,10.477 -2.823,14.648c-1.883,4.17 -4.549,7.353 -8.001,9.549c-3.451,2.196 -7.477,3.294 -12.078,3.294c-4.497,0 -8.484,-1.104 -11.962,-3.314c-3.477,-2.209 -6.176,-5.359 -8.098,-9.451c-1.922,-4.092 -2.909,-8.83 -2.961,-14.216l0,-4.118c0,-5.49 0.954,-10.34 2.863,-14.55c1.909,-4.209 4.608,-7.431 8.098,-9.667c3.491,-2.235 7.484,-3.353 11.981,-3.353c4.575,0 8.608,1.105 12.099,3.314c3.49,2.209 6.176,5.412 8.059,9.608c1.882,4.197 2.823,9.079 2.823,14.648l0,3.608Zm-7.49,-3.686c0,-6.772 -1.36,-11.968 -4.079,-15.589c-2.719,-3.621 -6.523,-5.432 -11.412,-5.432c-4.758,0 -8.503,1.811 -11.236,5.432c-2.732,3.621 -4.137,8.647 -4.215,15.079l0,4.196c0,6.562 1.379,11.719 4.137,15.471c2.758,3.752 6.556,5.628 11.393,5.628c4.862,0 8.627,-1.772 11.294,-5.314c2.667,-3.543 4.039,-8.621 4.118,-15.236l0,-4.235Z" style="fill:#fff;fill-opacity:0.54902;fill-rule:nonzero;"/><path d="M298.926,427.578l-18.353,0l0,50.943l-7.491,0l0,-50.943l-18.314,0l0,-6.157l44.158,0l0,6.157Z" style="fill:#fff;fill-opacity:0.54902;fill-rule:nonzero;"/><path d="M335.83,463.579l-23.923,0l-5.372,14.942l-7.765,0l21.804,-57.1l6.589,0l21.844,57.1l-7.726,0l-5.451,-14.942Zm-21.648,-6.157l19.412,0l-9.725,-26.707l-9.687,26.707Z" style="fill:#fff;fill-opacity:0.54902;fill-rule:nonzero;"/><path d="M364.262,472.364l27.06,0l0,6.157l-34.629,0l0,-57.1l7.569,0l0,50.943Z" style="fill:#fff;fill-opacity:0.54902;fill-rule:nonzero;"/><path d="M452.069,452.128l-24.746,0l0,20.236l28.746,0l0,6.157l-36.275,0l0,-57.1l35.883,0l0,6.157l-28.354,0l0,18.393l24.746,0l0,6.157Z" style="fill:#fff;fill-opacity:0.54902;fill-rule:nonzero;"/><path d="M509.366,451.814c0,5.595 -0.942,10.477 -2.824,14.648c-1.883,4.17 -4.549,7.353 -8,9.549c-3.451,2.196 -7.478,3.294 -12.079,3.294c-4.497,0 -8.484,-1.104 -11.961,-3.314c-3.478,-2.209 -6.177,-5.359 -8.099,-9.451c-1.921,-4.092 -2.908,-8.83 -2.961,-14.216l0,-4.118c0,-5.49 0.955,-10.34 2.863,-14.55c1.909,-4.209 4.608,-7.431 8.098,-9.667c3.491,-2.235 7.484,-3.353 11.981,-3.353c4.576,0 8.608,1.105 12.099,3.314c3.49,2.209 6.176,5.412 8.059,9.608c1.882,4.197 2.824,9.079 2.824,14.648l0,3.608Zm-7.491,-3.686c0,-6.772 -1.359,-11.968 -4.079,-15.589c-2.719,-3.621 -6.523,-5.432 -11.412,-5.432c-4.758,0 -8.503,1.811 -11.235,5.432c-2.733,3.621 -4.138,8.647 -4.216,15.079l0,4.196c0,6.562 1.379,11.719 4.137,15.471c2.758,3.752 6.556,5.628 11.393,5.628c4.863,0 8.628,-1.772 11.294,-5.314c2.667,-3.543 4.04,-8.621 4.118,-15.236l0,-4.235Z" style="fill:#fff;fill-opacity:0.54902;fill-rule:nonzero;"/><path d="M537.484,453.069c-6.458,-1.856 -11.157,-4.137 -14.098,-6.843c-2.942,-2.706 -4.412,-6.046 -4.412,-10.02c0,-4.497 1.797,-8.216 5.392,-11.158c3.595,-2.941 8.268,-4.412 14.02,-4.412c3.922,0 7.419,0.759 10.491,2.275c3.072,1.516 5.451,3.608 7.137,6.275c1.687,2.666 2.53,5.582 2.53,8.745l-7.569,0c0,-3.463 -1.098,-6.185 -3.294,-8.166c-2.196,-1.981 -5.295,-2.972 -9.295,-2.972c-3.712,0 -6.608,0.819 -8.686,2.456c-2.079,1.637 -3.118,3.909 -3.118,6.816c0,2.332 0.987,4.303 2.961,5.913c1.974,1.611 5.333,3.085 10.079,4.42c4.745,1.336 8.457,2.808 11.137,4.416c2.68,1.608 4.667,3.484 5.961,5.628c1.294,2.143 1.941,4.666 1.941,7.568c0,4.628 -1.804,8.334 -5.411,11.119c-3.608,2.784 -8.432,4.176 -14.472,4.176c-3.921,0 -7.582,-0.751 -10.98,-2.255c-3.399,-1.503 -6.02,-3.562 -7.863,-6.177c-1.844,-2.614 -2.765,-5.581 -2.765,-8.902l7.569,0c0,3.451 1.274,6.177 3.823,8.177c2.549,2 5.955,3 10.216,3c3.974,0 7.02,-0.81 9.138,-2.431c2.118,-1.621 3.177,-3.831 3.177,-6.628c0,-2.798 -0.981,-4.961 -2.942,-6.491c-1.961,-1.529 -5.516,-3.039 -10.667,-4.529Z" style="fill:#fff;fill-opacity:0.54902;fill-rule:nonzero;"/><path d="M588.192,478.521l0,-57.1l18.667,0c6.197,0 10.857,1.281 13.981,3.843c3.125,2.562 4.687,6.353 4.687,11.373c0,2.667 -0.759,5.026 -2.275,7.079c-1.516,2.052 -3.582,3.64 -6.196,4.765c3.085,0.862 5.523,2.503 7.314,4.921c1.791,2.419 2.686,5.301 2.686,8.648c0,5.124 -1.66,9.15 -4.98,12.079c-3.321,2.928 -8.014,4.392 -14.079,4.392l-19.805,0Zm7.53,-26.707l0,20.55l12.431,0c3.504,0 6.269,-0.909 8.295,-2.726c2.026,-1.817 3.039,-4.32 3.039,-7.51c0,-6.876 -3.738,-10.314 -11.216,-10.314l-12.549,0Zm0,-6.039l11.373,0c3.294,0 5.928,-0.826 7.902,-2.476c1.974,-1.651 2.961,-3.891 2.961,-6.721c0,-3.144 -0.915,-5.43 -2.745,-6.858c-1.831,-1.428 -4.615,-2.142 -8.354,-2.142l-11.137,0l0,18.197Z" style="fill:#fff;fill-opacity:0.54902;fill-rule:nonzero;"/><path d="M669.724,463.579l-23.922,0l-5.373,14.942l-7.765,0l21.805,-57.1l6.588,0l21.844,57.1l-7.725,0l-5.452,-14.942Zm-21.647,-6.157l19.412,0l-9.726,-26.707l-9.686,26.707Z" style="fill:#fff;fill-opacity:0.54902;fill-rule:nonzero;"/><path d="M698.157,472.364l27.06,0l0,6.157l-34.629,0l0,-57.1l7.569,0l0,50.943Z" style="fill:#fff;fill-opacity:0.54902;fill-rule:nonzero;"/></g><g><path d="M766.071,463.579l-23.923,0l-5.372,14.942l-7.765,0l21.804,-57.1l6.589,0l21.844,57.1l-7.726,0l-5.451,-14.942Zm-21.648,-6.157l19.412,0l-9.725,-26.707l-9.687,26.707Z" style="fill:#fff;fill-opacity:0.54902;fill-rule:nonzero;"/><path d="M830.818,478.521l-7.569,0l-28.746,-44.002l0,44.002l-7.569,0l0,-57.1l7.569,0l28.825,44.197l0,-44.197l7.49,0l0,57.1Z" style="fill:#fff;fill-opacity:0.54902;fill-rule:nonzero;"/><path d="M886.193,460.403c-0.706,6.039 -2.935,10.699 -6.687,13.98c-3.751,3.282 -8.739,4.922 -14.961,4.922c-6.745,0 -12.151,-2.418 -16.216,-7.255c-4.066,-4.837 -6.099,-11.308 -6.099,-19.412l0,-5.491c0,-5.307 0.948,-9.974 2.844,-14c1.895,-4.027 4.582,-7.118 8.059,-9.275c3.477,-2.157 7.503,-3.236 12.079,-3.236c6.065,0 10.928,1.693 14.588,5.079c3.661,3.386 5.791,8.072 6.393,14.059l-7.569,0c-0.654,-4.563 -2.072,-7.867 -4.255,-9.912c-2.183,-2.046 -5.236,-3.069 -9.157,-3.069c-4.811,0 -8.582,1.78 -11.314,5.339c-2.733,3.558 -4.099,8.622 -4.099,15.189l0,5.535c0,6.201 1.294,11.134 3.883,14.797c2.588,3.663 6.209,5.495 10.863,5.495c4.183,0 7.392,-0.948 9.628,-2.843c2.235,-1.896 3.719,-5.196 4.451,-9.902l7.569,0Z" style="fill:#fff;fill-opacity:0.54902;fill-rule:nonzero;"/><path d="M928.743,452.128l-24.746,0l0,20.236l28.747,0l0,6.157l-36.276,0l0,-57.1l35.883,0l0,6.157l-28.354,0l0,18.393l24.746,0l0,6.157Z" style="fill:#fff;fill-opacity:0.54902;fill-rule:nonzero;"/></g></g><defs><linearGradient id="_Linear1" x1="0" y1="0" x2="1" y2="0" gradientUnits="userSpaceOnUse" gradientTransform="matrix(2865.63,0,0,2865.63,882.083,403.483)"><stop offset="0" style="stop-color:#4a1289;stop-opacity:1"/><stop offset="1" style="stop-color:#7c41ba;stop-opacity:1"/></linearGradient><linearGradient id="_Linear2" x1="0" y1="0" x2="1" y2="0" gradientUnits="userSpaceOnUse" gradientTransform="matrix(2865.63,0,0,2865.63,882.083,371.719)"><stop offset="0" style="stop-color:#4a1289;stop-opacity:1"/><stop offset="1" style="stop-color:#7c41ba;stop-opacity:1"/></linearGradient></defs></svg>